<svg id="Group_9" data-name="Group 9" xmlns="http://www.w3.org/2000/svg" width="515.278" height="182.556" viewBox="0 0 515.278 182.556">
  <rect id="Rectangle_2" data-name="Rectangle 2" width="515.278" height="182.556" rx="20" transform="translate(0 0)" fill="#1e2430"/>
  <g id="Group_11" data-name="Group 11" transform="translate(173.14 42.924)">
    <path id="Path_8" data-name="Path 8" d="M19.227,8.542a13.336,13.336,0,0,1-3.036,8.907,10.275,10.275,0,0,1-7.76,3.1H.4V-3.739L8.5-3.7A10.076,10.076,0,0,1,16.224-.533C18.451,1.9,19.227,5.135,19.227,8.542Zm-2.632,0c.034-2.767-.574-5.533-2.227-7.422a7.641,7.641,0,0,0-5.9-2.429l-5.5.034v19.4l5.466.067a7.941,7.941,0,0,0,6.005-2.53C16.022,13.873,16.562,11.039,16.6,8.542ZM30.179,21.093a8.058,8.058,0,0,0,6.579-2.969,10.541,10.541,0,0,0,2.058-6.68A10.432,10.432,0,0,0,36.758,4.8a8.277,8.277,0,0,0-6.579-2.935A8.3,8.3,0,0,0,23.6,4.8a10.447,10.447,0,0,0-2.058,6.646,10.344,10.344,0,0,0,2.058,6.68A8.111,8.111,0,0,0,30.179,21.093Zm6.005-9.649a8.342,8.342,0,0,1-1.417,5.162,5.685,5.685,0,0,1-4.588,2.126,5.639,5.639,0,0,1-4.588-2.126,8.342,8.342,0,0,1-1.417-5.162A8.366,8.366,0,0,1,25.59,6.315a5.612,5.612,0,0,1,4.588-2.092,5.657,5.657,0,0,1,4.588,2.092A8.366,8.366,0,0,1,36.184,11.444ZM61.845,2.368,57.527,16.5,53.175,2.368h-2.26L46.6,16.5,42.277,2.368h-2.5l5.567,18.219h2.159L52.061,6.079l4.42,14.508h2.26L64.308,2.368ZM79.68,3.38a7.214,7.214,0,0,0-5.162-1.417,6.738,6.738,0,0,0-4.555,1.889,6.477,6.477,0,0,0-.877,1.08V2.368H66.859V20.587h2.5V11.208a12.494,12.494,0,0,1,.2-2.6,5.511,5.511,0,0,1,1.687-3.138,4.776,4.776,0,0,1,3.1-1.181,5.471,5.471,0,0,1,3.543.978c1.822,1.35,2.126,3.711,2.126,6.545v8.772h2.5V11.747C82.547,8.508,82.21,5.27,79.68,3.38Zm6.734,17.207v-24.8h2.463v24.8Zm14.325.506a8.058,8.058,0,0,0,6.579-2.969,10.541,10.541,0,0,0,2.058-6.68A10.432,10.432,0,0,0,107.318,4.8a8.841,8.841,0,0,0-13.158,0A10.447,10.447,0,0,0,92.1,11.444a10.344,10.344,0,0,0,2.058,6.68A8.111,8.111,0,0,0,100.739,21.093Zm6.005-9.649a8.342,8.342,0,0,1-1.417,5.162,6.015,6.015,0,0,1-9.177,0,8.342,8.342,0,0,1-1.417-5.162,8.366,8.366,0,0,1,1.417-5.128,6.078,6.078,0,0,1,9.177,0A8.366,8.366,0,0,1,106.745,11.444Zm20.23,9.143V9.352a7.287,7.287,0,0,0-2.193-5.769,7.316,7.316,0,0,0-4.757-1.721,8.844,8.844,0,0,0-7.254,3.1l1.619,1.687a6.207,6.207,0,0,1,5.331-2.4c2.7,0,4.69,1.35,4.723,4.285-3.88.607-7.422.877-9.649,2.024a5.166,5.166,0,0,0-3.205,5.027c0,3.374,2.5,5.5,5.972,5.5,3.138,0,5.567-.945,7.186-3.441v2.935Zm-3.205-4.825c-1.08,2.058-3.171,3.1-5.8,3.1-2.26,0-3.88-1.383-3.88-3.509,0-1.957,1.822-3.171,4.116-3.644,1.147-.27,3.273-.607,6.309-1.08C124.511,13,124.477,14.379,123.769,15.762ZM144.2-3.7v8.2a8.269,8.269,0,0,0-6.14-2.632A7.743,7.743,0,0,0,131.853,4.8a10.806,10.806,0,0,0-1.991,6.646,10.7,10.7,0,0,0,1.991,6.714,7.889,7.889,0,0,0,6.309,2.935,7.416,7.416,0,0,0,6.309-3.07v2.564H146.7V-3.7Zm-1.215,20.445a5.709,5.709,0,0,1-4.555,2.058,5.6,5.6,0,0,1-4.588-2.193,8.636,8.636,0,0,1-1.35-5.162,8.612,8.612,0,0,1,1.383-5.128,5.481,5.481,0,0,1,4.588-2.159,5.614,5.614,0,0,1,4.521,2.024,8.622,8.622,0,0,1,1.484,5.263A8.6,8.6,0,0,1,142.986,16.741Zm21.836,4.352a8.058,8.058,0,0,0,6.579-2.969,10.541,10.541,0,0,0,2.058-6.68A10.432,10.432,0,0,0,171.4,4.8a8.841,8.841,0,0,0-13.158,0,10.447,10.447,0,0,0-2.058,6.646,10.344,10.344,0,0,0,2.058,6.68A8.111,8.111,0,0,0,164.822,21.093Zm6.005-9.649a8.342,8.342,0,0,1-1.417,5.162,6.015,6.015,0,0,1-9.177,0,8.342,8.342,0,0,1-1.417-5.162,8.366,8.366,0,0,1,1.417-5.128,6.078,6.078,0,0,1,9.177,0A8.366,8.366,0,0,1,170.827,11.444ZM189.5,3.38a7.214,7.214,0,0,0-5.162-1.417,6.738,6.738,0,0,0-4.555,1.889,6.478,6.478,0,0,0-.877,1.08V2.368h-2.227V20.587h2.5V11.208a12.493,12.493,0,0,1,.2-2.6,5.511,5.511,0,0,1,1.687-3.138,4.776,4.776,0,0,1,3.1-1.181,5.471,5.471,0,0,1,3.543.978c1.822,1.35,2.126,3.711,2.126,6.545v8.772h2.5V11.747C192.373,8.508,192.035,5.27,189.5,3.38Zm17.348,1.113h5.567V2.368h-5.567V-2.693h-2.5V2.368h-3.88V4.494h3.88v9.48c0,1.788-.067,3.205.607,4.487a4.443,4.443,0,0,0,3.543,2.294,10.928,10.928,0,0,0,3.914-.169V18.428a12.809,12.809,0,0,1-3,.135,2.574,2.574,0,0,1-2.193-1.383c-.472-.81-.371-1.754-.371-3.273ZM228.365,3.38A7.214,7.214,0,0,0,223.2,1.963a6.738,6.738,0,0,0-4.555,1.889,6.478,6.478,0,0,0-.877,1.08V-3.7h-2.227V20.587h2.5V11.208a12.494,12.494,0,0,1,.2-2.6,5.511,5.511,0,0,1,1.687-3.138,4.776,4.776,0,0,1,3.1-1.181,5.471,5.471,0,0,1,3.543.978c1.822,1.35,2.126,3.711,2.126,6.545v8.772h2.5V11.747C231.233,8.508,230.9,5.27,228.365,3.38Zm8.387,8.806h14.339c.067-2.8-.371-5.432-1.957-7.422a7.815,7.815,0,0,0-6.41-2.9A8.23,8.23,0,0,0,236.145,4.8a10.732,10.732,0,0,0-2.058,6.748,10.446,10.446,0,0,0,2.058,6.579,8.346,8.346,0,0,0,6.646,2.969,9.312,9.312,0,0,0,4.656-1.215,8.458,8.458,0,0,0,3.306-3.779l-2.328-.877a6.59,6.59,0,0,1-2.227,2.564,6.4,6.4,0,0,1-3.475.945,5.752,5.752,0,0,1-4.622-2.126A7.866,7.866,0,0,1,236.752,12.186Zm5.972-8.063a5.642,5.642,0,0,1,4.521,2.058,6.735,6.735,0,0,1,1.248,3.88H236.786a7.243,7.243,0,0,1,1.35-3.846A5.65,5.65,0,0,1,242.724,4.122Z" transform="translate(-0.401 4.211)" fill="#fff"/>
    <path id="Path_7" data-name="Path 7" d="M33.057,7.434A13.575,13.575,0,0,0,28.7-2.994C26.248-5.387,23.181-6.736,18.58-6.736H.729V37.431H7.17V21.543H18.58A14.373,14.373,0,0,0,29.253,17.31,14.02,14.02,0,0,0,33.057,7.434Zm-8.343,5.214a7.96,7.96,0,0,1-5.95,2.822H7.17V-.663H18.764a7.34,7.34,0,0,1,5.644,2.27,8.829,8.829,0,0,1,2.086,5.828A8.509,8.509,0,0,1,24.714,12.648Zm13.3,24.782V-7.656h6.441V37.431Zm40.781,0V17.372c0-4.049-.981-7.975-4.11-10.612a14.673,14.673,0,0,0-9.2-3.374c-5.644,0-10,1.84-13.434,5.582L55.913,13.2A11.489,11.489,0,0,1,64.93,9.458c4.294,0,7.116,2.086,7.422,5.95-5.644.859-12.391,1.534-16.5,3.5a9.439,9.439,0,0,0-5.828,9.324c0,6.2,4.417,10.122,10.919,10.122,5.337,0,9.079-1.472,12.207-5.644v4.723Zm-7.606-9.263a9.9,9.9,0,0,1-8.895,4.723c-3.374,0-5.889-2.086-5.889-5.153,0-2.883,2.822-4.6,6.134-5.337,2.576-.552,6.2-1.227,9.876-1.779C72.414,23.567,72.475,26.021,71.187,28.168ZM106.815,4.306,97.246,30.192,87.185,4.306h-6.5L94.24,38.412c-1.595,4.355-2.392,5.828-3.619,6.748-1.166.8-2.392.859-4.417.8v6.2c3.742,0,5.7-.061,7.668-1.472,2.147-1.595,3.435-4.355,4.723-7.729L113.256,4.306Zm47.271,8.711a14.09,14.09,0,0,0-6.932-7.975,15.2,15.2,0,0,0-6.993-1.656,17.718,17.718,0,0,0-7.177,1.227,9.2,9.2,0,0,0-5.7,8.343,8.55,8.55,0,0,0,1.963,5.459,15.316,15.316,0,0,0,5.7,3.313c1.595.552,2.944.92,7.668,2.27,2.944.859,5.766,1.656,5.766,4.294a3.647,3.647,0,0,1-1.718,3.067,11.3,11.3,0,0,1-5.644,1.35,9.214,9.214,0,0,1-6.625-2.392,9.736,9.736,0,0,1-2.331-4.11l-5.828,1.656a14.6,14.6,0,0,0,3.558,6.38c3.006,3.128,6.809,4.11,11.164,4.11a16.146,16.146,0,0,0,8.895-2.208,9.457,9.457,0,0,0,4.417-7.852c0-5.337-4.233-8.588-10.122-10.183-2.638-.736-4.6-1.288-6.441-1.84-2.7-.736-4.539-1.472-4.539-3.558,0-2.331,3.313-3.8,6.625-3.681,3.681.061,6.809,1.718,8.22,5.459ZM168.98,9.458h9.876V4.306H168.98V-4.9H162.6v9.2h-6.38V9.458h6.38V24.426c0,3.619-.307,6.564,1.288,9.079,1.534,2.638,3.558,3.681,6.564,4.171a24.284,24.284,0,0,0,8.4-.245V31.971a20.4,20.4,0,0,1-5.459.245,4.6,4.6,0,0,1-3.742-2.208c-.8-1.288-.675-3.251-.675-5.95ZM197.43,38.351a15.43,15.43,0,0,0,12.33-5.459,18.3,18.3,0,0,0,3.926-12.023A18.3,18.3,0,0,0,209.76,8.845a15.43,15.43,0,0,0-12.33-5.459A15.906,15.906,0,0,0,185.1,8.845a19.07,19.07,0,0,0-3.865,12.023A18.818,18.818,0,0,0,185.1,32.891,15.8,15.8,0,0,0,197.43,38.351Zm9.447-17.483a13.435,13.435,0,0,1-2.208,8.1,8.775,8.775,0,0,1-7.238,3.313,8.657,8.657,0,0,1-7.177-3.312,13.435,13.435,0,0,1-2.208-8.1c0-2.944.552-5.95,2.208-8.159a8.609,8.609,0,0,1,7.177-3.251,8.728,8.728,0,0,1,7.238,3.251C206.325,14.918,206.877,17.924,206.877,20.868ZM234.9,3.447a12.006,12.006,0,0,0-6.809,2.208,11.016,11.016,0,0,0-3.128,3.435V4.306h-5.7V37.431H225.7V20.745c0-3.681.368-6.686,2.7-8.895a8.678,8.678,0,0,1,5.95-2.392,14.192,14.192,0,0,1,5.521.736V4.183A11.546,11.546,0,0,0,234.9,3.447Zm13.422,19.2h24.721c.307-5.4-.552-10.306-3.619-14.047a14.578,14.578,0,0,0-11.778-5.214,15.8,15.8,0,0,0-12.33,5.459,19.708,19.708,0,0,0-3.865,12.33,18.563,18.563,0,0,0,3.865,11.716c2.944,3.558,7.79,5.459,12.7,5.459a16.838,16.838,0,0,0,8.711-2.454,14.926,14.926,0,0,0,5.828-6.87L266.294,27a9,9,0,0,1-8.649,5.275,8.657,8.657,0,0,1-7.177-3.312A11.823,11.823,0,0,1,248.32,22.647ZM257.644,9.09a8.558,8.558,0,0,1,7.054,3.067,9.91,9.91,0,0,1,1.779,5.337H248.443a11.114,11.114,0,0,1,2.024-5.153A8.546,8.546,0,0,1,257.644,9.09Z" transform="translate(1.203 49.201)" fill="#fff"/>
  </g>
  <g id="레이어_2" data-name="레이어 2" transform="translate(64.778 49.879)">
    <g id="레이어_1" data-name="레이어 1" transform="translate(0 0)">
      <path id="Path_3" data-name="Path 3" d="M41.515,38.765l12.4-11.989L7.306.714a5.579,5.579,0,0,0-5.2-.14Z" transform="translate(0.936 0.001)" fill="#fff"/>
      <path id="Path_4" data-name="Path 4" d="M1.7,77.859,41.4,39.387,1.79,1A5.175,5.175,0,0,0,0,4.931V74.012a5.171,5.171,0,0,0,1.7,3.847Z" transform="translate(0 0.4)" fill="#fff"/>
      <path id="Path_5" data-name="Path 5" d="M41.564,29.18,2,67.483a5.578,5.578,0,0,0,5.3-.1L53.963,41.267Z" transform="translate(0.887 11.642)" fill="#fff"/>
      <path id="Path_6" data-name="Path 6" d="M56.6,27.4,42.8,19.68,30.16,31.935,42.92,44.3l13.7-7.666A5.249,5.249,0,0,0,56.6,27.4Z" transform="translate(13.373 7.852)" fill="#fff"/>
    </g>
  </g>
</svg>
