<svg xmlns="http://www.w3.org/2000/svg" width="577" height="230" viewBox="0 0 577 230">
  <g id="Group_7" data-name="Group 7" transform="translate(0.333)">
    <rect id="Rectangle_1" data-name="Rectangle 1" width="577" height="230" rx="20" transform="translate(-0.333 0)" fill="#fff"/>
    <g id="Group_12" data-name="Group 12" transform="translate(223.41 58.337)">
      <path id="Path_9" data-name="Path 9" d="M20.975,9.319c0,3.57-1.067,7.288-3.312,9.717A11.209,11.209,0,0,1,9.2,22.422H.438v-26.5l8.833.037A10.991,10.991,0,0,1,17.7-.582C20.128,2.068,20.975,5.6,20.975,9.319Zm-2.871,0c.037-3.018-.626-6.036-2.429-8.1a8.335,8.335,0,0,0-6.441-2.65l-6,.037V19.772l5.963.074a8.663,8.663,0,0,0,6.551-2.76C17.478,15.134,18.067,12.042,18.1,9.319ZM33.1,23.01a8.79,8.79,0,0,0,7.177-3.239,11.5,11.5,0,0,0,2.245-7.288,11.38,11.38,0,0,0-2.245-7.251,9.029,9.029,0,0,0-7.177-3.2,9.049,9.049,0,0,0-7.177,3.2,11.4,11.4,0,0,0-2.245,7.251,11.284,11.284,0,0,0,2.245,7.288A8.848,8.848,0,0,0,33.1,23.01ZM39.65,12.484A9.1,9.1,0,0,1,38.1,18.115,6.2,6.2,0,0,1,33.1,20.434a6.152,6.152,0,0,1-5.006-2.319,9.1,9.1,0,0,1-1.546-5.631A9.127,9.127,0,0,1,28.093,6.89,6.122,6.122,0,0,1,33.1,4.608,6.172,6.172,0,0,1,38.1,6.89,9.127,9.127,0,0,1,39.65,12.484Zm28.171-9.9L63.11,18,58.362,2.583H55.9L51.185,18,46.474,2.583H43.75l6.073,19.875h2.356L57.147,6.632l4.822,15.826h2.466L70.508,2.583Zm19.632,1.1a7.869,7.869,0,0,0-5.631-1.546A7.351,7.351,0,0,0,76.853,4.2,7.066,7.066,0,0,0,75.9,5.381v-2.8H73.467V22.458h2.724V12.226a13.629,13.629,0,0,1,.221-2.834,6.012,6.012,0,0,1,1.84-3.423,5.21,5.21,0,0,1,3.386-1.288A5.968,5.968,0,0,1,85.5,5.749c1.988,1.472,2.319,4.049,2.319,7.14v9.569h2.724V12.815C90.582,9.282,90.214,5.749,87.453,3.688Zm7.523,18.771V-4.594h2.687V22.458Zm15.8.552a8.79,8.79,0,0,0,7.177-3.239,11.5,11.5,0,0,0,2.245-7.288,11.38,11.38,0,0,0-2.245-7.251,9.644,9.644,0,0,0-14.354,0,11.4,11.4,0,0,0-2.245,7.251,11.284,11.284,0,0,0,2.245,7.288A8.848,8.848,0,0,0,110.781,23.01Zm6.551-10.526a9.1,9.1,0,0,1-1.546,5.631,6.562,6.562,0,0,1-10.011,0,9.1,9.1,0,0,1-1.546-5.631,9.127,9.127,0,0,1,1.546-5.594,6.631,6.631,0,0,1,10.011,0A9.127,9.127,0,0,1,117.332,12.484Zm22.245,9.974V10.2c0-2.319-.552-4.748-2.392-6.294A7.981,7.981,0,0,0,132,2.031a9.648,9.648,0,0,0-7.913,3.386l1.767,1.84a6.771,6.771,0,0,1,5.815-2.613c2.944,0,5.116,1.472,5.153,4.674-4.233.662-8.1.957-10.526,2.208a5.635,5.635,0,0,0-3.5,5.484c0,3.681,2.724,6,6.515,6,3.423,0,6.073-1.031,7.84-3.754v3.2Zm-3.5-5.263c-1.178,2.245-3.46,3.386-6.331,3.386-2.466,0-4.233-1.509-4.233-3.828,0-2.135,1.988-3.46,4.49-3.975,1.251-.294,3.57-.662,6.883-1.178C136.89,14.177,136.854,15.686,136.081,17.2ZM158.547-4.042V4.9a9.021,9.021,0,0,0-6.7-2.871,8.447,8.447,0,0,0-6.772,3.2,11.788,11.788,0,0,0-2.172,7.251,11.674,11.674,0,0,0,2.172,7.324,8.606,8.606,0,0,0,6.883,3.2,8.09,8.09,0,0,0,6.883-3.349v2.8h2.429v-26.5Zm-1.325,22.3a6.228,6.228,0,0,1-4.969,2.245,6.106,6.106,0,0,1-5.006-2.392,9.422,9.422,0,0,1-1.472-5.631,9.4,9.4,0,0,1,1.509-5.594,5.98,5.98,0,0,1,5.006-2.356,6.125,6.125,0,0,1,4.932,2.208,9.406,9.406,0,0,1,1.619,5.742A9.376,9.376,0,0,1,157.222,18.263ZM181.4,23.01a8.79,8.79,0,0,0,7.177-3.239,11.5,11.5,0,0,0,2.245-7.288,11.38,11.38,0,0,0-2.245-7.251,9.644,9.644,0,0,0-14.354,0,11.4,11.4,0,0,0-2.245,7.251,11.284,11.284,0,0,0,2.245,7.288A8.848,8.848,0,0,0,181.4,23.01Zm6.551-10.526a9.1,9.1,0,0,1-1.546,5.631,6.562,6.562,0,0,1-10.011,0,9.1,9.1,0,0,1-1.546-5.631A9.127,9.127,0,0,1,176.39,6.89a6.631,6.631,0,0,1,10.011,0A9.127,9.127,0,0,1,187.947,12.484Zm20.552-8.8a7.869,7.869,0,0,0-5.631-1.546A7.351,7.351,0,0,0,197.9,4.2a7.067,7.067,0,0,0-.957,1.178v-2.8h-2.429V22.458h2.724V12.226a13.63,13.63,0,0,1,.221-2.834,6.013,6.013,0,0,1,1.84-3.423,5.21,5.21,0,0,1,3.386-1.288,5.968,5.968,0,0,1,3.865,1.067c1.987,1.472,2.319,4.049,2.319,7.14v9.569h2.724V12.815C211.628,9.282,211.26,5.749,208.5,3.688ZM227.778,4.9h6.073V2.583h-6.073V-2.937h-2.724V2.583h-4.233V4.9h4.233V15.244c0,1.951-.074,3.5.662,4.9a4.847,4.847,0,0,0,3.865,2.5,11.921,11.921,0,0,0,4.269-.184V20.1a13.973,13.973,0,0,1-3.276.147,2.807,2.807,0,0,1-2.392-1.509c-.515-.883-.4-1.914-.4-3.57Zm23.644-1.215a7.869,7.869,0,0,0-5.631-1.546A7.351,7.351,0,0,0,240.822,4.2a7.067,7.067,0,0,0-.957,1.178V-4.042h-2.429v26.5h2.724V12.226a13.63,13.63,0,0,1,.221-2.834,6.013,6.013,0,0,1,1.84-3.423,5.21,5.21,0,0,1,3.386-1.288,5.968,5.968,0,0,1,3.865,1.067c1.987,1.472,2.319,4.049,2.319,7.14v9.569h2.724V12.815C254.55,9.282,254.182,5.749,251.422,3.688Zm9.327,9.606h15.642c.074-3.055-.4-5.926-2.135-8.1a8.526,8.526,0,0,0-6.993-3.165,8.978,8.978,0,0,0-7.177,3.2,11.707,11.707,0,0,0-2.245,7.361,11.4,11.4,0,0,0,2.245,7.177,9.105,9.105,0,0,0,7.251,3.239,10.158,10.158,0,0,0,5.079-1.325,9.227,9.227,0,0,0,3.607-4.122l-2.54-.957a7.189,7.189,0,0,1-2.429,2.8,6.979,6.979,0,0,1-3.791,1.031,6.275,6.275,0,0,1-5.042-2.319A8.58,8.58,0,0,1,260.749,13.294Zm6.515-8.8A6.155,6.155,0,0,1,272.2,6.742a7.347,7.347,0,0,1,1.362,4.233H260.785a7.9,7.9,0,0,1,1.472-4.2A6.164,6.164,0,0,1,267.263,4.5Z" transform="translate(-0.437 4.594)" fill="#888"/>
      <path id="Path_10" data-name="Path 10" d="M31.309,36.667h7.606L24.991-7.5H14.133L.208,36.667H7.815L10.821,27.1H28.242Zm-18.28-16.5L19.47-.323l6.564,20.488ZM71.292,7.9A14.865,14.865,0,0,0,59.576,2.622a15.469,15.469,0,0,0-9.753,3.435V3.542H43.259V51.389h7.422V34.826a15.355,15.355,0,0,0,9.14,2.76,14.847,14.847,0,0,0,11.471-5.275A19.163,19.163,0,0,0,75.1,20.1,19.811,19.811,0,0,0,71.292,7.9ZM65.4,27.772a7.793,7.793,0,0,1-6.686,3.19,8.258,8.258,0,0,1-6.5-2.7c-1.656-1.9-2.392-5.03-2.392-8.159s.736-6.2,2.392-8.22a7.9,7.9,0,0,1,6.257-2.638c2.883,0,5.275.92,6.809,3.19A13.442,13.442,0,0,1,67.244,20.1C67.244,23.049,66.753,25.87,65.4,27.772ZM108.7,7.9A14.865,14.865,0,0,0,96.982,2.622a15.469,15.469,0,0,0-9.753,3.435V3.542H80.665V51.389h7.422V34.826a15.355,15.355,0,0,0,9.14,2.76A14.847,14.847,0,0,0,108.7,32.311,19.163,19.163,0,0,0,112.5,20.1,19.811,19.811,0,0,0,108.7,7.9ZM102.81,27.772a7.793,7.793,0,0,1-6.686,3.19,8.258,8.258,0,0,1-6.5-2.7c-1.656-1.9-2.392-5.03-2.392-8.159s.736-6.2,2.392-8.22a7.9,7.9,0,0,1,6.257-2.638c2.883,0,5.275.92,6.809,3.19A13.442,13.442,0,0,1,104.65,20.1C104.65,23.049,104.159,25.87,102.81,27.772Zm52.73-15.52a14.222,14.222,0,0,0-6.993-7.975,15.446,15.446,0,0,0-7.054-1.656,17.042,17.042,0,0,0-7.177,1.227,9.422,9.422,0,0,0-5.828,8.588,8.881,8.881,0,0,0,1.779,5.4,14.871,14.871,0,0,0,5.521,3.5c1.288.429,2.515.736,8.036,2.331,2.638.736,5.275,1.35,5.275,3.681a2.891,2.891,0,0,1-1.534,2.576c-1.1.859-3.558,1.227-5.03,1.227a8.824,8.824,0,0,1-6.441-2.331,10.664,10.664,0,0,1-2.147-4.049l-6.625,1.779a14.775,14.775,0,0,0,3.558,6.748c2.944,3.251,6.932,4.294,11.532,4.294a15.248,15.248,0,0,0,8.772-2.208,9.605,9.605,0,0,0,4.6-8.1c0-5.337-4.171-8.711-10.244-10.367l-6.318-1.779c-2.331-.613-4.049-1.166-4.049-2.944,0-2.024,3.006-3.312,5.95-3.19,3.313.123,6.134,1.534,7.484,4.969Zm15.507-2.944H180.8V3.542h-9.753v-9.2h-7.361v9.2h-6.012V9.308h6.012v13.8c0,3.8-.307,7.054,1.35,9.631a8.739,8.739,0,0,0,6.686,4.171,25.187,25.187,0,0,0,9.079-.245v-6.2a27.546,27.546,0,0,1-5.46.245,4.527,4.527,0,0,1-3.619-2.024c-.8-1.288-.675-3.374-.675-5.95Zm28.635,28.279A15.941,15.941,0,0,0,212.2,32.066,18.078,18.078,0,0,0,216.183,20.1,18.241,18.241,0,0,0,212.2,8.081a17.071,17.071,0,0,0-25.028,0A18.457,18.457,0,0,0,183.181,20.1a18.188,18.188,0,0,0,3.987,11.962A16.05,16.05,0,0,0,199.682,37.587ZM208.393,20.1a12.436,12.436,0,0,1-2.086,7.484,8.069,8.069,0,0,1-6.625,3.067,7.988,7.988,0,0,1-6.625-3.067c-1.595-2.024-2.024-4.785-2.024-7.484,0-2.76.429-5.521,2.024-7.545a8.8,8.8,0,0,1,13.25,0A12.5,12.5,0,0,1,208.393,20.1ZM237.948,2.683a11.793,11.793,0,0,0-6.318,1.963,10.577,10.577,0,0,0-3.312,3.5v-4.6h-6.564V36.667h7.422V19.491c0-3.067.552-5.644,2.454-7.606a8.4,8.4,0,0,1,5.582-2.331,13.852,13.852,0,0,1,5.95.859V3.542A11.973,11.973,0,0,0,237.948,2.683ZM252.719,22.19h23.924c.429-5.582-.429-10.551-3.619-14.354-3.006-3.619-6.932-5.214-11.778-5.214a16,16,0,0,0-12.514,5.459,19.247,19.247,0,0,0-3.987,12.391,18.225,18.225,0,0,0,3.987,11.594c2.944,3.619,7.975,5.521,12.882,5.521a17,17,0,0,0,8.833-2.515,15.6,15.6,0,0,0,5.828-6.932l-7.3-2.208a8.214,8.214,0,0,1-2.638,3.19,8.105,8.105,0,0,1-5.091,1.534,8.188,8.188,0,0,1-6.686-3.067A10.172,10.172,0,0,1,252.719,22.19Zm8.527-13.127a8.176,8.176,0,0,1,6.441,2.76,8.39,8.39,0,0,1,1.534,4.539H252.842a9.179,9.179,0,0,1,1.779-4.294A8.127,8.127,0,0,1,261.246,9.062Z" transform="translate(1.387 63.997)" fill="#1e252d"/>
    </g>
    <g id="Group_1" data-name="Group 1" transform="translate(76.556 58.889)">
      <g id="_211892_social_apple_icon" data-name="211892_social_apple_icon">
        <path id="Path_1" data-name="Path 1" d="M163.147,153.9c-9.5,0-13.512,4.512-20.127,4.512-6.784,0-11.957-4.485-20.183-4.485-8.056,0-16.65,4.895-22.105,13.236-7.661,11.759-6.36,33.91,6.049,52.779,4.438,6.755,10.374,14.33,18.148,14.412h.141c6.756,0,8.763-4.4,18.063-4.458h.141c9.159,0,11,4.43,17.724,4.43h.141c7.774-.082,14.021-8.477,18.459-15.2a73.953,73.953,0,0,0,6.841-12.743c-17.95-6.782-20.833-32.1-3.081-41.813-5.427-6.755-13.031-10.665-20.211-10.665Z" transform="translate(-95.977 -125.777)" fill="#1e252d"/>
        <path id="Path_2" data-name="Path 2" d="M273.643,64c-6.256.438-13.545,4.536-17.831,9.885-3.879,4.849-7.07,12.044-5.818,19.02h.5c6.663,0,13.483-4.129,17.456-9.416C271.8,78.452,274.707,71.32,273.643,64Z" transform="translate(-207.732 -64)" fill="#1e252d"/>
      </g>
    </g>
  </g>
</svg>
