<svg xmlns="http://www.w3.org/2000/svg" viewBox="0 0 32 32"><title>Artboard 1</title><g id="Hospital-2" data-name="Hospital"><path d="M23,13H19V9a1,1,0,0,0-1-1H14a1,1,0,0,0-1,1v4H9a1,1,0,0,0-1,1v4a1,1,0,0,0,1,1h4v4a1,1,0,0,0,1,1h4a1,1,0,0,0,1-1V19h4a1,1,0,0,0,1-1V14A1,1,0,0,0,23,13Zm-1,4H18a1,1,0,0,0-1,1v4H15V18a1,1,0,0,0-1-1H10V15h4a1,1,0,0,0,1-1V10h2v4a1,1,0,0,0,1,1h4Z" style="fill:#16c1cc"/><path d="M16,2A14,14,0,1,0,30,16,14.0158,14.0158,0,0,0,16,2Zm0,26A12,12,0,1,1,28,16,12.0137,12.0137,0,0,1,16,28Z" style="fill:#16c1cc"/></g></svg>