<svg width="54" height="54" viewBox="0 0 54 54" fill="none" xmlns="http://www.w3.org/2000/svg">
<path d="M27 54C41.9117 54 54 41.9117 54 27C54 12.0883 41.9117 0 27 0C12.0883 0 0 12.0883 0 27C0 41.9117 12.0883 54 27 54Z" fill="url(#paint0_linear_881_127)"/>
<path d="M14.2116 34.8158C14.3272 34.7004 14.4644 34.6091 14.6154 34.5469C14.7664 34.4847 14.9282 34.453 15.0915 34.4535H45.3253C45.4479 34.4533 45.5679 34.4894 45.67 34.5573C45.7721 34.6252 45.8517 34.7219 45.8988 34.8351C45.9459 34.9483 45.9584 35.073 45.9346 35.1933C45.9108 35.3136 45.8519 35.4241 45.7652 35.5109L39.7927 41.4835C39.5601 41.7155 39.245 41.8458 38.9164 41.8457H8.67754C8.55476 41.8464 8.43455 41.8105 8.33223 41.7426C8.2299 41.6747 8.15007 41.578 8.1029 41.4646C8.05573 41.3512 8.04336 41.2264 8.06734 41.106C8.09132 40.9855 8.15057 40.875 8.23757 40.7883L14.2116 34.8158Z" fill="white"/>
<path d="M14.2116 12.517C14.4471 12.2872 14.7624 12.1574 15.0915 12.1548H45.3253C45.4479 12.1545 45.5679 12.1906 45.67 12.2585C45.7721 12.3264 45.8517 12.4231 45.8988 12.5363C45.9459 12.6496 45.9584 12.7742 45.9346 12.8945C45.9108 13.0148 45.8519 13.1254 45.7652 13.2121L39.7927 19.1847C39.5601 19.4167 39.245 19.547 38.9164 19.5469H8.67754C8.55476 19.5476 8.43455 19.5117 8.33223 19.4438C8.2299 19.3759 8.15007 19.2792 8.1029 19.1658C8.05573 19.0524 8.04336 18.9276 8.06734 18.8072C8.09132 18.6868 8.15057 18.5762 8.23757 18.4895L14.2116 12.517Z" fill="white"/>
<path d="M39.7876 23.5968C39.5547 23.3652 39.2397 23.2352 38.9113 23.2353H8.67754C8.55476 23.2346 8.43455 23.2705 8.33223 23.3384C8.2299 23.4063 8.15007 23.503 8.1029 23.6164C8.05573 23.7298 8.04336 23.8546 8.06734 23.975C8.09132 24.0954 8.15057 24.206 8.23757 24.2927L14.2094 30.2652C14.3251 30.3803 14.4624 30.4715 14.6134 30.5335C14.7644 30.5956 14.9261 30.6272 15.0893 30.6267H45.3231C45.4457 30.627 45.5657 30.5909 45.6678 30.523C45.7699 30.455 45.8495 30.3583 45.8966 30.2451C45.9437 30.1319 45.9562 30.0073 45.9324 29.8869C45.9086 29.7666 45.8497 29.6561 45.763 29.5693L39.7876 23.5968Z" fill="white"/>
<defs>
<linearGradient id="paint0_linear_881_127" x1="50.652" y1="2.862" x2="6.75" y2="47.628" gradientUnits="userSpaceOnUse">
<stop stop-color="#00FFA3"/>
<stop offset="1" stop-color="#DC1FFF"/>
</linearGradient>
</defs>
</svg>
