<svg id="icons" xmlns="http://www.w3.org/2000/svg" viewBox="0 0 64 64"><defs><style>.cls-1,.cls-2{fill:none;stroke:#c19e62;stroke-linecap:round;stroke-linejoin:round;stroke-width:2px;}.cls-2{stroke-dasharray:4 6;}</style></defs><title>61</title><g id="handcuffs"><circle class="cls-1" cx="18.02242" cy="28.4937" r="7.35538"/><circle class="cls-1" cx="18.02242" cy="28.4937" r="11.83791"/><circle class="cls-1" cx="45.97758" cy="44.72232" r="7.35538"/><circle class="cls-1" cx="45.97758" cy="44.72232" r="11.83791"/><path class="cls-1" d="M26.60069,20.33144l2.3338-4.04232a.891.891,0,0,0-.32612-1.21707l-4.25544-2.45688a.891.891,0,0,0-1.21707.32612L20.802,16.98359"/><path class="cls-1" d="M54.55583,36.56l2.37222-4.10882a.891.891,0,0,0-.32611-1.21707L52.3465,28.77727a.891.891,0,0,0-1.21707.32611L48.7572,33.2122"/><path class="cls-2" d="M26.48067,13.84362h0A12.80737,12.80737,0,0,1,43.97585,9.15579l5.81056,3.35473A12.80737,12.80737,0,0,1,54.47423,30.0057h0"/></g></svg>