<svg width="147" height="50" viewBox="0 0 147 50" fill="none" xmlns="http://www.w3.org/2000/svg">
<path d="M141.976 0H5.02386C2.24926 0 0 2.64665 0 5.91146V44.0885C0 47.3533 2.24926 50 5.02386 50H141.976C144.751 50 147 47.3533 147 44.0885V5.91146C147 2.64665 144.751 0 141.976 0Z" fill="white"/>
<path d="M74.2597 27.9209C73.3384 27.9244 72.4388 28.2008 71.6744 28.7152C70.9101 29.2296 70.3153 29.9589 69.9652 30.8111C69.615 31.6633 69.5252 32.6001 69.7071 33.5032C69.889 34.4064 70.3344 35.2354 70.9871 35.8857C71.6398 36.5359 72.4705 36.9781 73.3744 37.1566C74.2782 37.335 75.2147 37.2417 76.0655 36.8883C76.9164 36.5349 77.6434 35.9374 78.1549 35.1711C78.6664 34.4049 78.9394 33.5042 78.9394 32.5829C78.9485 31.9667 78.8335 31.355 78.6013 30.7841C78.3691 30.2132 78.0244 29.6949 77.5878 29.2599C77.1512 28.825 76.6316 28.4823 76.0598 28.2522C75.488 28.0222 74.8759 27.9095 74.2597 27.9209ZM74.2597 35.4083C73.6922 35.4488 73.1257 35.3175 72.6339 35.0316C72.1421 34.7456 71.7478 34.3182 71.5023 33.8049C71.2568 33.2917 71.1716 32.7165 71.2576 32.1541C71.3437 31.5917 71.5971 31.0683 71.9848 30.652C72.3725 30.2357 72.8766 29.9457 73.4314 29.8199C73.9862 29.6941 74.5661 29.7382 75.0955 29.9466C75.6249 30.1549 76.0792 30.5178 76.3995 30.988C76.7197 31.4583 76.8909 32.014 76.8909 32.5829C76.9076 32.942 76.8524 33.3008 76.7285 33.6382C76.6045 33.9756 76.4144 34.2849 76.1693 34.5478C75.9242 34.8107 75.629 35.0219 75.301 35.1691C74.9731 35.3163 74.619 35.3965 74.2597 35.4049V35.4083ZM64.0518 27.9209C63.1304 27.9243 62.2308 28.2006 61.4663 28.7149C60.7019 29.2292 60.107 29.9585 59.7568 30.8106C59.4065 31.6628 59.3166 32.5996 59.4984 33.5028C59.6803 34.406 60.1256 35.2351 60.7783 35.8854C61.4309 36.5357 62.2617 36.978 63.1655 37.1565C64.0694 37.335 65.0059 37.2417 65.8568 36.8884C66.7077 36.535 67.4348 35.9375 67.9463 35.1712C68.4578 34.4049 68.7308 33.5043 68.7308 32.5829C68.7399 31.9668 68.6249 31.3551 68.3928 30.7842C68.1606 30.2134 67.816 29.6951 67.3795 29.2602C66.9429 28.8252 66.4234 28.4825 65.8517 28.2524C65.28 28.0224 64.6679 27.9096 64.0518 27.9209ZM64.0518 35.4083C63.4843 35.449 62.9177 35.3178 62.4258 35.0319C61.9339 34.746 61.5395 34.3187 61.2939 33.8054C61.0484 33.2922 60.963 32.717 61.049 32.1546C61.1349 31.5922 61.3883 31.0687 61.7759 30.6523C62.1636 30.2359 62.6677 29.9459 63.2225 29.82C63.7774 29.6941 64.3573 29.7382 64.8867 29.9465C65.4161 30.1548 65.8705 30.5178 66.1908 30.988C66.5111 31.4582 66.6823 32.014 66.6823 32.5829C66.699 32.9419 66.6438 33.3007 66.5199 33.638C66.396 33.9754 66.206 34.2846 65.9609 34.5475C65.7159 34.8104 65.4208 35.0217 65.0929 35.169C64.765 35.3162 64.4111 35.3964 64.0518 35.4049V35.4083ZM51.9084 29.3514V31.3277H56.6406C56.5725 32.2553 56.1931 33.1327 55.5639 33.8178C55.0895 34.3009 54.5191 34.6794 53.8895 34.9287C53.2599 35.178 52.585 35.2926 51.9084 35.2652C50.5232 35.2495 49.2001 34.6881 48.2261 33.703C47.2522 32.7179 46.7059 31.3885 46.7059 30.0032C46.7059 28.6179 47.2522 27.2885 48.2261 26.3034C49.2001 25.3183 50.5232 24.7569 51.9084 24.7412C53.2371 24.7238 54.5189 25.2315 55.4753 26.1539L56.8703 24.7589C56.2177 24.1128 55.4426 23.6035 54.5906 23.2609C53.7385 22.9183 52.8267 22.7492 51.9084 22.7635C50.9493 22.7504 49.9971 22.9279 49.1072 23.2859C48.2172 23.6438 47.4073 24.175 46.7244 24.8486C46.0415 25.5222 45.4992 26.3248 45.1291 27.2097C44.759 28.0947 44.5684 29.0443 44.5684 30.0035C44.5684 30.9628 44.759 31.9124 45.1291 32.7974C45.4992 33.6823 46.0415 34.4849 46.7244 35.1585C47.4073 35.8321 48.2172 36.3633 49.1072 36.7212C49.9971 37.0792 50.9493 37.2567 51.9084 37.2435C52.8461 37.2823 53.7813 37.1213 54.652 36.7711C55.5227 36.421 56.3091 35.8898 56.9589 35.2127C58.1121 33.9534 58.7267 32.2929 58.6715 30.5862C58.676 30.1717 58.6404 29.7577 58.5652 29.35L51.9084 29.3514ZM101.57 30.8874C101.29 30.043 100.756 29.3054 100.042 28.7747C99.3281 28.2439 98.468 27.9459 97.5786 27.9209C96.9795 27.9245 96.3874 28.0495 95.838 28.2884C95.2886 28.5273 94.7933 28.8752 94.3823 29.311C93.9712 29.7468 93.6528 30.2614 93.4463 30.8238C93.2398 31.3862 93.1496 31.9847 93.181 32.5829C93.1675 33.1958 93.2776 33.8051 93.5048 34.3745C93.7321 34.9438 94.0717 35.4615 94.5035 35.8967C94.9353 36.3318 95.4504 36.6755 96.0179 36.9071C96.5855 37.1388 97.1939 37.2537 97.8069 37.2449C98.5749 37.2493 99.3319 37.0629 100.01 36.7022C100.688 36.3415 101.266 35.818 101.691 35.1787L100.102 34.119C99.864 34.5144 99.5271 34.8411 99.1246 35.0672C98.7221 35.2932 98.2678 35.4107 97.8062 35.4083C97.3313 35.4265 96.8619 35.3016 96.459 35.0497C96.056 34.7977 95.7381 34.4305 95.5464 33.9956L101.78 31.4176L101.57 30.8874ZM95.2125 32.4419C95.1906 32.1025 95.2366 31.7622 95.3477 31.4409C95.4589 31.1195 95.6331 30.8236 95.86 30.5703C96.0869 30.3171 96.362 30.1116 96.6693 29.966C96.9766 29.8203 97.3098 29.7374 97.6495 29.7221C98.0031 29.6988 98.3558 29.7801 98.6635 29.956C98.9712 30.1318 99.2203 30.3944 99.3798 30.7109L95.2125 32.4419ZM90.145 36.9621H92.1929V23.2597H90.145V36.9621ZM86.7894 28.9629H86.7212C86.4099 28.6248 86.03 28.357 85.607 28.1773C85.1839 27.9976 84.7274 27.9102 84.2679 27.9209C83.0653 27.9713 81.9286 28.4845 81.0954 29.3533C80.2623 30.2221 79.7971 31.3792 79.7971 32.5829C79.7971 33.7866 80.2623 34.9438 81.0954 35.8125C81.9286 36.6813 83.0653 37.1945 84.2679 37.2449C84.7292 37.2569 85.1876 37.1683 85.6113 36.9853C86.035 36.8023 86.4137 36.5293 86.7212 36.1852H86.7894V36.8558C86.7894 38.6399 85.8353 39.5933 84.2999 39.5933C83.7879 39.581 83.2911 39.4165 82.8729 39.1209C82.4547 38.8252 82.1339 38.4118 81.9516 37.9332L80.1647 38.676C80.5009 39.4945 81.0739 40.194 81.8101 40.6848C82.5463 41.1757 83.4124 41.4356 84.2972 41.4312C86.6988 41.4312 88.7268 40.0185 88.7268 36.575V28.2038H86.7839L86.7894 28.9629ZM84.441 35.4083C83.7332 35.3481 83.0737 35.0243 82.5931 34.5011C82.1126 33.9779 81.8459 33.2933 81.8459 32.5829C81.8459 31.8725 82.1126 31.188 82.5931 30.6648C83.0737 30.1416 83.7332 29.8178 84.441 29.7575C85.836 29.7575 86.9311 30.9583 86.9311 32.6006C86.9582 32.9496 86.9146 33.3005 86.803 33.6323C86.6914 33.9641 86.5142 34.27 86.2817 34.5317C86.0493 34.7935 85.7665 35.0057 85.4503 35.1557C85.134 35.3057 84.7908 35.3905 84.441 35.4049V35.4083ZM111.165 23.2597H106.265V36.9621H108.31V31.7706H111.166C111.745 31.8025 112.324 31.7161 112.868 31.5167C113.412 31.3173 113.909 31.009 114.33 30.6107C114.751 30.2124 115.086 29.7325 115.316 29.2002C115.545 28.668 115.663 28.0946 115.663 27.5151C115.663 26.9357 115.545 26.3623 115.316 25.83C115.086 25.2978 114.751 24.8179 114.33 24.4196C113.909 24.0213 113.412 23.713 112.868 23.5136C112.324 23.3141 111.745 23.2277 111.166 23.2597H111.165ZM111.218 29.8638H108.31V25.1664H111.219C111.531 25.1611 111.841 25.2179 112.13 25.3336C112.42 25.4492 112.684 25.6214 112.906 25.84C113.128 26.0586 113.305 26.3194 113.426 26.607C113.546 26.8946 113.608 27.2033 113.608 27.5151C113.608 27.827 113.546 28.1357 113.426 28.4233C113.305 28.7109 113.128 28.9716 112.906 29.1902C112.684 29.4089 112.42 29.581 112.13 29.6967C111.841 29.8123 111.531 29.8691 111.219 29.8638H111.218ZM123.857 27.8957C123.111 27.8521 122.368 28.0274 121.72 28.4C121.071 28.7726 120.546 29.3264 120.208 29.9933L122.024 30.7518C122.204 30.4206 122.477 30.1491 122.808 29.9706C123.14 29.792 123.517 29.7142 123.893 29.7466C124.95 29.7466 126.026 30.3811 126.043 31.5096V31.6507C125.386 31.302 124.654 31.1203 123.91 31.1218C121.953 31.1218 119.961 32.1972 119.961 34.2069C119.961 36.0401 121.565 37.2211 123.364 37.2211C123.879 37.2514 124.392 37.1431 124.851 36.9075C125.31 36.6719 125.697 36.3175 125.973 35.8813H126.041V36.9389H128.017V31.6861C128.018 29.2532 126.202 27.8957 123.857 27.8957ZM123.611 35.4056C122.941 35.4056 122.006 35.0703 122.006 34.2423C122.006 33.1847 123.17 32.7785 124.175 32.7785C124.827 32.7612 125.473 32.9196 126.043 33.2371C125.968 33.8314 125.68 34.3784 125.233 34.7769C124.786 35.1754 124.209 35.3991 123.611 35.4056ZM135.21 28.1956L132.865 34.136H132.797L130.364 28.1956H128.161L131.809 36.4987L129.73 41.117H131.863L137.486 28.1956H135.21ZM116.788 36.9621H118.833V23.2597H116.788V36.9621Z" fill="black"/>
<path d="M11.0147 12.352C10.6558 12.7815 10.4747 13.332 10.5084 13.8908V38.1118C10.4746 38.6703 10.6558 39.2206 11.0147 39.6499L11.0958 39.7296L24.6641 26.1614V25.8411L11.0958 12.2729L11.0147 12.352Z" fill="#40BFF2"/>
<path d="M29.1898 30.6856L24.6675 26.1613V25.841L29.1912 21.3174L29.2927 21.3753L34.6512 24.4201C36.1818 25.2897 36.1818 26.7126 34.6512 27.5822L29.2927 30.627L29.1898 30.6856Z" fill="url(#paint0_linear_444_154365)"/>
<path d="M29.2893 30.627L24.664 26.0005L11.0146 39.6498C11.5196 40.184 12.3524 40.2501 13.2908 39.7179L29.2893 30.627Z" fill="url(#paint1_linear_444_154365)"/>
<path d="M29.2893 21.3749L13.2908 12.2847C12.3524 11.7511 11.5189 11.8179 11.0146 12.3529L24.664 26.0001L29.2893 21.3749Z" fill="url(#paint2_linear_444_154365)"/>
<path d="M49.8279 13.1266C49.401 12.7435 48.8484 12.5303 48.2748 12.5276C47.6341 12.5514 47.0277 12.8226 46.5828 13.2842C46.138 13.7459 45.8895 14.362 45.8895 15.0031C45.8895 15.6442 46.138 16.2603 46.5828 16.7219C47.0277 17.1836 47.6341 17.4548 48.2748 17.4785C48.5252 17.5045 48.7783 17.4795 49.0189 17.4053C49.2595 17.331 49.4826 17.2089 49.6749 17.0463C49.8671 16.8837 50.0246 16.684 50.1378 16.459C50.2509 16.2341 50.3175 15.9886 50.3335 15.7374H48.4997V14.9796H51.3258C51.3258 17.2448 50.1182 18.3113 48.2748 18.3113C47.4056 18.2988 46.5762 17.9448 45.966 17.3257C45.3558 16.7067 45.0137 15.8723 45.0137 15.0031C45.0137 14.1338 45.3558 13.2995 45.966 12.6804C46.5762 12.0614 47.4056 11.7073 48.2748 11.6948C49.0835 11.6918 49.863 11.9963 50.4555 12.5467L49.8279 13.1266Z" fill="black"/>
<path d="M56.334 11.7695V12.5832H53.3859V14.6426H55.9598V15.457H53.3859V17.4033H56.4273V18.2177H52.5156V11.7695H56.334Z" fill="black"/>
<path d="M61.978 11.7695V12.5928H60.0214V18.2177H59.1423V12.5928H57.1858V11.7695H61.978Z" fill="black"/>
<path d="M66.1535 11.7695V18.2177H65.2832V11.7695H66.1535Z" fill="black"/>
<path d="M72.0871 11.7695V12.5928H70.1306V18.2177H69.2515V12.5928H67.2949V11.7695H72.0871Z" fill="black"/>
<path d="M78.2273 11.6947C78.8836 11.6845 79.5281 11.8696 80.0788 12.2267C80.6296 12.5837 81.0617 13.0965 81.3202 13.6998C81.5788 14.3031 81.652 14.9697 81.5306 15.6147C81.4092 16.2597 81.0988 16.8541 80.6387 17.3222C80.1786 17.7903 79.5896 18.1109 78.9468 18.2434C78.3039 18.3759 77.6362 18.3141 77.0285 18.066C76.4208 17.8179 75.9007 17.3947 75.5342 16.8502C75.1677 16.3057 74.9715 15.6644 74.9705 15.0081C74.9649 14.5762 75.0449 14.1474 75.2059 13.7466C75.3669 13.3458 75.6057 12.9808 75.9085 12.6728C76.2113 12.3647 76.5721 12.1197 76.9701 11.9518C77.3681 11.784 77.7954 11.6966 78.2273 11.6947ZM78.2273 17.4689C78.7186 17.4852 79.2036 17.3543 79.6201 17.0931C80.0365 16.8318 80.3654 16.4521 80.5645 16.0026C80.7637 15.5532 80.824 15.0545 80.7378 14.5705C80.6515 14.0865 80.4226 13.6393 80.0805 13.2863C79.7383 12.9333 79.2985 12.6906 78.8175 12.5893C78.3364 12.488 77.8361 12.5327 77.3806 12.7177C76.9251 12.9028 76.5353 13.2196 76.2612 13.6277C75.9871 14.0358 75.8412 14.5165 75.8421 15.0081C75.8345 15.327 75.8904 15.6442 76.0067 15.9412C76.1229 16.2383 76.2971 16.5092 76.5191 16.7382C76.7411 16.9673 77.0065 17.1498 77.2997 17.2753C77.593 17.4007 77.9083 17.4665 78.2273 17.4689Z" fill="black"/>
<path d="M86.6518 18.2177L83.7133 13.3608V18.2177H82.843V11.7695H83.7037L86.6143 16.5889V11.7695H87.4846V18.2177H86.6518Z" fill="black"/>
<defs>
<linearGradient id="paint0_linear_444_154365" x1="33.6619" y1="26.0015" x2="7.15738" y2="26.0015" gradientUnits="userSpaceOnUse">
<stop stop-color="#FFD700"/>
<stop offset="0.075" stop-color="#FECE00"/>
<stop offset="0.48" stop-color="#FCA704"/>
<stop offset="0.803" stop-color="#FA8E07"/>
<stop offset="1" stop-color="#FA8608"/>
</linearGradient>
<linearGradient id="paint1_linear_444_154365" x1="26.7674" y1="28.5076" x2="9.33694" y2="57.876" gradientUnits="userSpaceOnUse">
<stop stop-color="#E82B36"/>
<stop offset="1" stop-color="#B4005A"/>
</linearGradient>
<linearGradient id="paint2_linear_444_154365" x1="1.74942" y1="-1.54743" x2="15.9817" y2="22.4287" gradientUnits="userSpaceOnUse">
<stop stop-color="#2F8E5B"/>
<stop offset="0.39" stop-color="#4EA157"/>
<stop offset="0.768" stop-color="#67B054"/>
<stop offset="1" stop-color="#70B653"/>
</linearGradient>
</defs>
</svg>
