<svg xmlns="http://www.w3.org/2000/svg" viewBox="0 0 32 32"><g id="home"><path d="M27.54,19.16,24,16.88V9.8l1.47,1a1,1,0,1,0,1.14-1.64l-10-7a1,1,0,0,0-1.14,0l-10,7a1,1,0,0,0,1.14,1.64L8,9.82v7.09L4.46,19.16a1,1,0,0,0,1.08,1.68L6,20.55V29a1,1,0,0,0,1,1H25a1,1,0,0,0,1-1V20.55l.46.29a1,1,0,1,0,1.08-1.68ZM10,8.42l6-4.2L22,8.4v7.21l-5.42-3.45a1,1,0,0,0-1.08,0L10,15.63ZM14,28V25a2,2,0,0,1,4,0v3Zm10,0H20V25a4,4,0,0,0-8,0v3H8V19.28l8-5.09,8,5.09Z"/><path d="M18,8a1,1,0,0,0-1-1H15a1,1,0,0,0,0,2h2A1,1,0,0,0,18,8Z"/></g></svg>