<svg xmlns="http://www.w3.org/2000/svg" viewBox="0 0 32 32"><title>Artboard 36</title><g id="Stetoscope"><path d="M24.5,23H19a1,1,0,0,0,0,2h5.5a1.5,1.5,0,0,1,0,3H18a1.0009,1.0009,0,0,1-1-1V19.9493A10.0137,10.0137,0,0,0,26,10V5a1,1,0,0,0-1-1H21V3a1,1,0,0,0-2,0V7a1,1,0,0,0,2,0V6h3v4A8,8,0,0,1,8,10V6h3V7a1,1,0,0,0,2,0V3a1,1,0,0,0-2,0V4H7A1,1,0,0,0,6,5v5a10.0137,10.0137,0,0,0,9,9.9493V27a3.0033,3.0033,0,0,0,3,3h6.5a3.5,3.5,0,0,0,0-7Z" style="fill:#16c1cc"/><path d="M13,23H9.8157a3,3,0,1,0,0,2H13a1,1,0,0,0,0-2ZM7,25a1,1,0,1,1,1-1A1.0009,1.0009,0,0,1,7,25Z" style="fill:#16c1cc"/></g></svg>