<svg xmlns="http://www.w3.org/2000/svg" viewBox="0 0 32 32"><title>Artboard 14</title><g id="Heart"><path d="M30,14H28.1942a7.2226,7.2226,0,0,0,.1525-5.7822,6.6251,6.6251,0,0,0-5.6211-4.2212A8.1473,8.1473,0,0,0,16,6.6772,8.1426,8.1426,0,0,0,9.2725,3.9966a6.6469,6.6469,0,0,0-5.6368,4.24A7.1369,7.1369,0,0,0,4.3781,15H2a1,1,0,0,0,0,2H6.0268l9.1519,10.686a1.0005,1.0005,0,0,0,.7568.35h.003a1.0006,1.0006,0,0,0,.7558-.3452L26.8259,16H30a1,1,0,0,0,0-2Zm-23.6465.3066A5.1477,5.1477,0,0,1,5.49,8.9849,4.6815,4.6815,0,0,1,9.45,5.9888c.1807-.0161.3643-.0244.55-.0244a5.94,5.94,0,0,1,5.1416,2.913,1.04,1.04,0,0,0,1.7168,0A5.94,5.94,0,0,1,22,5.9644c.1855,0,.3691.0083.5479.0244a4.6585,4.6585,0,0,1,3.9443,2.9775A5.2248,5.2248,0,0,1,25.87,14H20a.9988.9988,0,0,0-.8.4l-2.0293,2.7056-2.2764-4.5528a.9989.9989,0,0,0-.832-.5507.9714.9714,0,0,0-.8945.4433L11.4648,15H6.9474Zm9.59,11.1968L8.66,17H12a1,1,0,0,0,.832-.4453l1.044-1.5664,2.23,4.459a1.0014,1.0014,0,0,0,.8047.5488c.03.0024.0605.0039.09.0039a.999.999,0,0,0,.8-.4L20.5,16h3.6793Z" style="fill:#16c1cc"/></g></svg>