<svg width="54" height="54" viewBox="0 0 54 54" fill="none" xmlns="http://www.w3.org/2000/svg">
<path d="M27 0C32.3401 0 37.5603 1.58352 42.0004 4.55032C46.4405 7.51712 49.9012 11.7339 51.9447 16.6675C53.9883 21.6011 54.523 27.0299 53.4812 32.2674C52.4394 37.5049 49.8679 42.3159 46.0919 46.0919C42.3159 49.8679 37.5049 52.4394 32.2674 53.4812C27.03 54.523 21.6012 53.9883 16.6676 51.9447C11.7339 49.9012 7.51713 46.4405 4.55033 42.0004C1.58354 37.5603 0 32.3401 0 27C0.000388916 19.8393 2.84516 12.9719 7.90855 7.90854C12.9719 2.84515 19.8393 0.000388916 27 0Z" fill="#53AE94"/>
<path d="M30.3305 23.4026V19.3864H39.5155V13.2665H14.5049V19.3864H23.6907V23.3996C16.2252 23.7428 10.6119 25.2211 10.6119 26.9927C10.6119 28.7643 16.2281 30.2426 23.6907 30.5858V43.4511H30.3327V30.5858C37.785 30.2418 43.385 28.7643 43.385 26.9927C43.385 25.2211 37.7835 23.7457 30.3327 23.3996M30.3327 29.4917C30.1457 29.5034 29.1829 29.5614 27.0388 29.5614C25.3251 29.5614 24.1189 29.5122 23.6943 29.488V29.4939C17.0985 29.2006 12.1753 28.053 12.1753 26.6789C12.1753 25.3047 17.0992 24.1571 23.6943 23.8645V28.3493C24.1262 28.3793 25.3618 28.4519 27.0674 28.4519C29.1162 28.4519 30.1472 28.3669 30.3349 28.3493V23.8682C36.9175 24.1615 41.829 25.3113 41.829 26.681C41.829 28.0508 36.9161 29.2006 30.3349 29.4939" fill="white"/>
</svg>
