<svg xmlns="http://www.w3.org/2000/svg" xmlns:xlink="http://www.w3.org/1999/xlink" width="128" height="128" viewBox="0 0 128 128">
  <defs>
    <clipPath id="clip-BATHTUB">
      <rect width="128" height="128"/>
    </clipPath>
  </defs>
  <g id="BATHTUB" clip-path="url(#clip-BATHTUB)">
    <path id="Path_89" data-name="Path 89" d="M566.25,944.752H566v-41A15.767,15.767,0,0,0,550.247,888H540.5a15.767,15.767,0,0,0-15.75,15.75v8.432H522.6a1.755,1.755,0,0,0-1.365.654L520,914.386a21.833,21.833,0,0,0-4.713,11.89A5.755,5.755,0,0,0,510.031,932v3.545a1.749,1.749,0,0,0,1.75,1.75h37.432a1.749,1.749,0,0,0,1.75-1.75V932a5.755,5.755,0,0,0-5.255-5.725,21.826,21.826,0,0,0-4.713-11.889l-1.241-1.548a1.75,1.75,0,0,0-1.365-.655h-2.142v-8.432a4.254,4.254,0,0,1,4.25-4.25h9.75a4.254,4.254,0,0,1,4.25,4.25v41H501.281c0-.021,0-.043,0-.063a9.057,9.057,0,0,0-15.72-6.14,8.218,8.218,0,0,0-4.861-1.286,12.361,12.361,0,0,0-23.305-.009,8.259,8.259,0,0,0-7.988,7.515A5.752,5.752,0,0,0,444,950.5v3a5.756,5.756,0,0,0,5.75,5.75H450v20a25.776,25.776,0,0,0,14.28,23.045l-1.826,4.309a6.757,6.757,0,0,0,12.443,5.272L477.81,1005h60.38l2.912,6.877a6.758,6.758,0,0,0,12.444-5.273l-1.826-4.309A25.776,25.776,0,0,0,566,979.252v-20h.25A5.756,5.756,0,0,0,572,953.5v-3A5.756,5.756,0,0,0,566.25,944.752ZM547.463,932v1.8H513.531V932a2.253,2.253,0,0,1,2.25-2.25h29.432A2.253,2.253,0,0,1,547.463,932Zm-9.2-15.424a18.322,18.322,0,0,1,3.932,9.674H518.8a18.322,18.322,0,0,1,3.932-9.674l.717-.893h14.1ZM550.247,896H540.5a7.759,7.759,0,0,0-7.75,7.75v8.432h-4.5v-8.432A12.263,12.263,0,0,1,540.5,891.5h9.75a12.263,12.263,0,0,1,12.25,12.25v41H558v-41A7.759,7.759,0,0,0,550.247,896Zm-92.622,44.749a4.8,4.8,0,0,1,.78.071,1.747,1.747,0,0,0,1.991-1.35,8.862,8.862,0,0,1,17.331.113,1.749,1.749,0,0,0,2.167,1.337,4.623,4.623,0,0,1,4.7,1.338,1.749,1.749,0,0,0,2.8-.326,5.559,5.559,0,0,1,10.39,2.755v.063H452.934A4.757,4.757,0,0,1,457.625,940.751Zm14.05,69.762a3.251,3.251,0,0,1-3,1.985,3.255,3.255,0,0,1-3-4.526l1.831-4.322c.084.029.171.05.256.078.335.11.674.211,1.016.307.146.041.291.086.437.125q.7.185,1.421.33c.138.028.277.049.415.075.359.066.719.127,1.083.178.177.025.354.047.532.068q.522.063,1.05.1c.105.009.21.024.315.031Zm76.817-6.863,1.831,4.322a3.255,3.255,0,0,1-3,4.526,3.252,3.252,0,0,1-3-1.985l-2.358-5.568c.105-.007.208-.022.312-.03q.534-.042,1.062-.1c.172-.021.344-.042.516-.066.372-.052.741-.114,1.107-.182.132-.025.264-.044.4-.071q.719-.146,1.423-.331c.148-.039.294-.084.441-.125q.51-.144,1.013-.307C548.321,1003.7,548.407,1003.679,548.492,1003.65Zm14.008-24.4a22.282,22.282,0,0,1-13.879,20.61c-.6.246-1.217.469-1.838.66-.069.021-.141.039-.211.06-.631.187-1.268.35-1.913.479-.06.013-.12.021-.18.033-.664.128-1.333.23-2.009.3-.028,0-.057,0-.085.006-.706.067-1.418.1-2.135.1h-64.5c-.706,0-1.406-.037-2.1-.1l-.129-.01c-.665-.066-1.324-.167-1.977-.293-.069-.013-.139-.023-.208-.037-.639-.129-1.272-.29-1.9-.476-.074-.022-.148-.041-.221-.063-.62-.191-1.231-.413-1.836-.659a22.282,22.282,0,0,1-13.879-20.61v-20h109Zm6-25.75a2.253,2.253,0,0,1-2.25,2.25H449.75a2.253,2.253,0,0,1-2.25-2.25v-3a2.253,2.253,0,0,1,2.25-2.25h116.5a2.253,2.253,0,0,1,2.25,2.25Z" transform="translate(-444 -888)"/>
  </g>
</svg>
