<svg xmlns="http://www.w3.org/2000/svg" viewBox="0 0 32 32"><g id="dining_table" data-name="dining table"><path d="M28.46,11H22a6,6,0,0,0-5-5.91V4a1,1,0,0,0-2,0V5.09A6,6,0,0,0,10,11H3.54A1.54,1.54,0,0,0,2,12.54v3.92A1.54,1.54,0,0,0,3.54,18H5v9a1,1,0,0,0,1,1H9a1,1,0,0,0,1-.9l.84-8.44,4.49,4.08a1,1,0,0,0,1.34,0l4.49-4.08L22,27.1a1,1,0,0,0,1,.9h3a1,1,0,0,0,1-1V18h1.46A1.54,1.54,0,0,0,30,16.46V12.54A1.54,1.54,0,0,0,28.46,11ZM16,7a4,4,0,0,1,4,4H12A4,4,0,0,1,16,7ZM4,13h.61l3.3,3H4ZM8.09,26H7V18H8.89ZM16,20.65,7.59,13H24.41ZM25,26H23.91l-.8-8H25Zm3-10H24.09l3.3-3H28Z"/></g></svg>