<svg xmlns="http://www.w3.org/2000/svg" xmlns:xlink="http://www.w3.org/1999/xlink" width="235" height="39" viewBox="0 0 235 39">
  <defs>
    <clipPath id="clip-path">
      <rect id="Rectangle_5" data-name="Rectangle 5" width="235" height="39"/>
    </clipPath>
  </defs>
  <g id="demo-horizontal-portfolio-awwwards" clip-path="url(#clip-path)">
    <g id="Awwards" clip-path="url(#clip-path)">
      <g id="Awwards-logotype-2018" transform="translate(1.077 0.525)">
        <path id="logo-a1" d="M.994,13.392C1.823,9.083,5.634,6.1,10.937,6.1c6.132,0,10.937,2.651,10.937,10.937V32.449h-5.3l-.663-3.314a9.521,9.521,0,0,1-7.954,3.812C3.48,32.946,0,30.129,0,24.992S4.64,16.54,11.1,16.54h4.309V15.38c0-2.983-2.154-3.812-4.64-3.812A4.337,4.337,0,0,0,6.3,14.552ZM9.446,27.478c2.983,0,5.966-1.989,5.966-5.3v-.5H11.269c-2.817-.166-4.474.994-4.474,3.314a2.584,2.584,0,0,0,2.651,2.486Z" transform="translate(0 4.009)" fill="#fff"/>
        <path id="logo-a2" d="M76.394,13.392c.829-4.309,4.64-7.292,9.943-7.292,6.132,0,10.937,2.651,10.937,10.937V32.449h-5.3l-.663-3.314a9.521,9.521,0,0,1-7.954,3.812c-4.474,0-7.954-2.817-7.954-7.954s4.64-8.452,11.1-8.452h4.309V15.38c0-2.983-2.154-3.812-4.64-3.812A4.337,4.337,0,0,0,81.7,14.552Zm8.452,14.086c2.983,0,5.966-1.989,5.966-5.3v-.5H86.5c-2.817,0-4.474.994-4.474,3.314a2.873,2.873,0,0,0,2.82,2.486Z" transform="translate(49.551 4.009)" fill="#fff"/>
        <path id="logo-r" d="M92.1,32.615V6.431h6.463V10.74a8.849,8.849,0,0,1,7.623-4.64,9.648,9.648,0,0,1,3.149.5l-1.16,5.966a5.008,5.008,0,0,0-2.651-.829c-3.812,0-6.96,3.149-6.96,11.435v9.28l-6.463.166Z" transform="translate(60.526 4.009)" fill="#fff"/>
        <path id="logo-d" d="M115.466,10.109a8.371,8.371,0,0,1,6.3,2.817V0h6.463V36.624h-6.463V33.972a7.684,7.684,0,0,1-6.3,3.149c-7.789,0-11.766-5.469-11.766-13.423S107.677,10.109,115.466,10.109Zm.994,21.378c3.314,0,5.966-2.817,5.966-7.954s-2.651-7.954-5.966-7.954-5.966,2.817-5.966,7.954,2.652,7.953,5.966,7.953Z" transform="translate(68.149)" fill="#fff"/>
        <path id="logo-s" d="M139.729,10.374l-3.812,3.48a5.435,5.435,0,0,0-4.309-2.32,2.278,2.278,0,0,0-2.486,2.154c0,1.16.994,1.989,2.486,2.486,3.646,1.326,9.446,2.486,9.446,7.954,0,4.806-3.646,8.617-9.28,8.617A11.061,11.061,0,0,1,121.5,25.784l5.137-2.816c.994,2.486,2.651,4.309,5.3,4.309,1.989,0,3.314-.994,3.314-2.817,0-2.154-3.314-2.651-6.463-3.977-2.817-1.16-5.3-2.983-5.3-6.96S126.8,5.9,131.774,5.9a10.057,10.057,0,0,1,7.955,4.474Z" transform="translate(79.847 3.877)" fill="#fff"/>
        <path id="logo-w2" d="M62.021,6.3,57.38,24.363,52.906,6.3H46.94L42.632,24.363l-3.646-10.44-.5,1.16L36.5,21.877l3.314,10.606h5.634l4.474-16.9,4.474,16.9h5.8L68.484,6.3Z" transform="translate(23.987 4.14)" fill="#fff"/>
        <path id="logo-w3" d="M80.786,6.3l-4.64,18.063L71.672,6.3H65.706L61.4,24.363l-3.646-10.44-.5,1.16L55.1,21.877l3.48,10.606h5.634l4.474-16.9,4.474,16.9H78.8L87.249,6.3Z" transform="translate(36.21 4.14)" fill="#fff"/>
        <path id="logo-w1" d="M51.689,6.3,43.4,32.318H37.769L33.295,15.58l-4.474,16.9H23.186L14.9,6.466h6.463L26,24.363l4.474-17.9H36.44l4.474,17.9,4.64-17.9Z" transform="translate(9.792 4.14)" fill="#fff"/>
        <path id="logo-p" d="M140.109,17a4.18,4.18,0,0,1,4.309,4.309,4.309,4.309,0,1,1-8.618,0A4.18,4.18,0,0,1,140.109,17Z" transform="translate(89.245 11.172)" fill="#fff"/>
      </g>
    </g>
  </g>
</svg>
