<?xml version="1.0" standalone="no"?>
<!DOCTYPE svg PUBLIC "-//W3C//DTD SVG 20010904//EN"
 "http://www.w3.org/TR/2001/REC-SVG-20010904/DTD/svg10.dtd">
<svg version="1.0" xmlns="http://www.w3.org/2000/svg"
 width="512.000000pt" height="512.000000pt" viewBox="0 0 512.000000 512.000000"
 preserveAspectRatio="xMidYMid meet">

<g transform="translate(0.000000,512.000000) scale(0.100000,-0.100000)"
fill="#2a2b3f" stroke="none">
<path d="M303 4825 c-154 -42 -261 -155 -293 -311 -7 -33 -10 -293 -8 -765 l3
-714 23 -58 c44 -108 121 -184 233 -230 54 -22 56 -22 835 -25 l782 -3 -24
-73 c-91 -287 -60 -653 78 -931 131 -263 320 -455 580 -590 359 -186 788 -191
1156 -12 l84 40 416 -415 c229 -228 433 -424 452 -436 59 -35 150 -48 222 -33
80 16 124 39 177 92 53 53 76 97 92 177 15 73 2 163 -33 222 -12 19 -105 119
-207 222 -142 144 -193 189 -217 194 -60 11 -113 -36 -114 -100 0 -37 9 -47
184 -225 154 -156 185 -192 191 -224 10 -51 -1 -85 -39 -123 -38 -38 -72 -49
-124 -39 -32 6 -87 57 -435 404 l-398 397 93 94 c245 248 366 522 384 870 7
128 -12 293 -46 403 -11 34 -20 67 -20 74 0 8 65 12 237 15 220 3 242 6 296
27 110 44 195 132 234 245 17 47 18 105 18 791 l0 740 -23 58 c-45 111 -133
195 -246 234 -48 17 -136 18 -1629 18 l-1579 0 -29 -33 c-38 -42 -38 -82 0
-124 l29 -33 1574 -5 1574 -5 37 -25 c21 -14 50 -43 65 -64 l27 -39 0 -727 0
-727 -27 -39 c-15 -21 -44 -50 -65 -64 -36 -25 -37 -25 -313 -28 l-276 -3 -59
88 c-78 115 -204 245 -313 323 -81 58 -291 170 -319 170 -7 0 -13 3 -12 8 0 4
33 75 73 157 l72 150 93 -177 c93 -179 123 -218 168 -218 56 0 81 26 139 148
229 475 233 484 196 528 -38 47 -93 57 -136 23 -16 -13 -58 -87 -112 -197
l-85 -177 -91 175 c-49 96 -98 183 -108 193 -9 10 -35 21 -57 24 -61 8 -87
-24 -179 -219 -44 -92 -81 -167 -84 -167 -3 -1 -45 79 -95 176 -67 132 -98
181 -120 195 -63 40 -145 -5 -145 -79 0 -27 30 -94 110 -249 61 -118 110 -215
110 -216 0 -2 -82 -4 -183 -4 -142 -1 -200 -6 -264 -21 -46 -11 -83 -18 -83
-17 0 2 50 108 112 236 122 255 131 288 89 332 -44 47 -114 43 -151 -8 -8 -12
-49 -92 -90 -178 -42 -87 -79 -160 -82 -163 -3 -3 -47 75 -97 173 -95 183
-118 212 -171 212 -54 0 -76 -28 -165 -214 l-87 -180 -30 55 c-16 30 -56 106
-89 169 -32 63 -64 122 -71 131 -38 46 -107 48 -149 3 -45 -48 -36 -74 120
-375 147 -282 166 -309 220 -309 57 0 72 19 164 208 49 101 90 182 93 180 2
-2 44 -82 93 -177 l89 -173 -30 -16 c-218 -120 -370 -254 -494 -437 l-58 -85
-816 2 -817 3 -39 27 c-21 15 -50 44 -64 65 l-25 37 0 726 0 726 25 37 c14 21
43 50 64 65 l39 27 259 5 260 5 29 33 c38 42 38 82 0 124 l-29 33 -249 2
c-190 2 -260 -1 -300 -12z m3022 -1470 c375 -79 689 -356 811 -713 174 -509
-32 -1053 -501 -1321 -218 -125 -507 -169 -760 -116 -374 78 -689 356 -811
713 -221 647 182 1328 856 1446 106 19 295 15 405 -9z"/>
<path d="M2990 3154 c-218 -40 -375 -118 -510 -254 -115 -114 -194 -256 -236
-420 -26 -104 -26 -296 0 -400 84 -331 325 -572 656 -656 104 -26 296 -26 400
0 331 84 572 325 656 656 26 104 26 296 0 400 -83 326 -317 564 -641 652 -68
18 -271 32 -325 22z m242 -209 c245 -51 436 -223 516 -462 22 -67 26 -95 26
-203 0 -108 -4 -136 -26 -203 -99 -298 -378 -492 -683 -474 -349 21 -621 293
-642 642 -25 436 384 791 809 700z"/>
<path d="M3065 2721 c-31 -13 -55 -45 -61 -83 -8 -46 32 -95 84 -103 20 -3 60
-12 89 -21 94 -27 173 -132 173 -231 0 -44 43 -92 91 -99 28 -5 41 -1 67 21
38 32 47 72 33 151 -34 184 -178 329 -360 364 -63 12 -88 12 -116 1z"/>
<path d="M1224 4831 c-32 -14 -64 -60 -64 -92 0 -17 11 -41 29 -61 60 -67 166
-28 166 62 0 66 -72 116 -131 91z"/>
<path d="M480 4125 c-35 -19 -54 -57 -47 -97 3 -19 68 -155 145 -303 146 -281
164 -305 224 -305 49 0 80 41 163 219 44 94 82 170 85 170 3 1 45 -78 95 -175
49 -96 97 -182 107 -191 9 -8 34 -17 55 -20 32 -4 45 -1 66 18 40 35 287 552
287 600 0 75 -73 119 -140 84 -27 -14 -45 -43 -119 -198 l-87 -180 -51 94
c-28 52 -69 131 -91 175 -50 100 -82 128 -135 121 -21 -3 -45 -11 -54 -19 -9
-7 -55 -94 -103 -193 l-86 -180 -93 177 c-51 98 -103 186 -118 198 -30 23 -67
25 -103 5z"/>
<path d="M4359 1402 c-47 -23 -65 -63 -50 -112 26 -87 138 -95 180 -13 18 36
13 71 -16 102 -36 38 -70 45 -114 23z"/>
</g>
</svg>
