<svg xmlns="http://www.w3.org/2000/svg" xmlns:xlink="http://www.w3.org/1999/xlink" width="128" height="128" viewBox="0 0 128 128">
  <defs>
    <clipPath id="clip-path">
      <rect id="Rectangle_8" data-name="Rectangle 8" width="128" height="128"/>
    </clipPath>
  </defs>
  <g id="TAXI" clip-path="url(#clip-path)">
    <g id="Group_29" data-name="Group 29" transform="translate(-148 -444)">
      <path id="Path_159" data-name="Path 159" d="M175.062,505.736h73.876a1.749,1.749,0,0,0,1.736-1.967l-3.565-28.5a5.76,5.76,0,0,0-5.706-5.036H182.6a5.759,5.759,0,0,0-5.706,5.037l-3.565,28.5a1.749,1.749,0,0,0,1.736,1.967Zm5.3-30.036a2.254,2.254,0,0,1,2.233-1.971h58.8a2.253,2.253,0,0,1,2.233,1.971l3.32,26.536H177.044Z"/>
      <path id="Path_160" data-name="Path 160" d="M178,511.7h-5.563a4.755,4.755,0,0,0-4.75,4.75V521a4.756,4.756,0,0,0,4.75,4.75H178a4.756,4.756,0,0,0,4.75-4.75v-4.547A4.755,4.755,0,0,0,178,511.7Zm1.25,9.3a1.251,1.251,0,0,1-1.25,1.25h-5.563a1.251,1.251,0,0,1-1.25-1.25v-4.547a1.251,1.251,0,0,1,1.25-1.25H178a1.251,1.251,0,0,1,1.25,1.25Z"/>
      <path id="Path_161" data-name="Path 161" d="M251.562,511.7H246a4.755,4.755,0,0,0-4.75,4.75V521a4.756,4.756,0,0,0,4.75,4.75h5.562a4.755,4.755,0,0,0,4.75-4.75v-4.547a4.754,4.754,0,0,0-4.749-4.753Zm1.25,9.3a1.25,1.25,0,0,1-1.25,1.25H246a1.25,1.25,0,0,1-1.25-1.25v-4.547A1.25,1.25,0,0,1,246,515.2h5.562a1.25,1.25,0,0,1,1.25,1.25Z"/>
      <path id="Path_162" data-name="Path 162" d="M224.789,511.7H199.211a4.755,4.755,0,0,0-4.75,4.75V521a4.756,4.756,0,0,0,4.75,4.75h25.578a4.756,4.756,0,0,0,4.75-4.75v-4.547a4.755,4.755,0,0,0-4.75-4.753Zm1.25,9.3a1.251,1.251,0,0,1-1.25,1.25H199.211a1.25,1.25,0,0,1-1.25-1.25v-4.547a1.25,1.25,0,0,1,1.25-1.25h25.578a1.251,1.251,0,0,1,1.25,1.25Z"/>
      <path id="Path_163" data-name="Path 163" d="M276.125,495.237v-5.125a5.757,5.757,0,0,0-5.75-5.75h-3.388a16.7,16.7,0,0,0-9.184,2.743l-1.064.7-1.692-13.53A13.771,13.771,0,0,0,241.4,462.229h-8.15v-5.555a5.757,5.757,0,0,0-5.75-5.75h-31a5.757,5.757,0,0,0-5.75,5.75v5.555H182.6a13.771,13.771,0,0,0-13.644,12.043l-1.692,13.53-1.064-.7a16.7,16.7,0,0,0-9.184-2.743h-3.388a5.757,5.757,0,0,0-5.75,5.75v5.125a5.757,5.757,0,0,0,5.75,5.75h11.986l-.282,2.261-6.32,7.4A16.767,16.767,0,0,0,155,521.526v8.727a7.061,7.061,0,0,0,0,14.122v13.951a6.758,6.758,0,0,0,6.75,6.75h12.7a6.758,6.758,0,0,0,6.75-6.75V544.378h61.6v13.948a6.758,6.758,0,0,0,6.75,6.75h12.7a6.758,6.758,0,0,0,6.75-6.75V544.375a7.061,7.061,0,1,0,0-14.122v-8.727a16.767,16.767,0,0,0-4.009-10.874l-6.32-7.4-.283-2.261h11.987a5.757,5.757,0,0,0,5.75-5.754Zm-124.75,0v-5.125a2.252,2.252,0,0,1,2.25-2.25h3.388a13.214,13.214,0,0,1,7.265,2.169l2.5,1.639-.727,5.817H153.625a2.253,2.253,0,0,1-2.25-2.25Zm42.875-38.563a2.253,2.253,0,0,1,2.25-2.25h31a2.253,2.253,0,0,1,2.25,2.25v5.555h-35.5ZM177.7,558.326a3.254,3.254,0,0,1-3.25,3.25h-12.7a3.254,3.254,0,0,1-3.25-3.25V544.378h19.2Zm87.8,0a3.254,3.254,0,0,1-3.25,3.25h-12.7a3.254,3.254,0,0,1-3.25-3.25V544.378h19.2Zm7-21.012a3.568,3.568,0,0,1-3.564,3.564H155.064a3.564,3.564,0,0,1,0-7.128H268.936a3.568,3.568,0,0,1,3.564,3.564Zm-10.171-24.389a13.266,13.266,0,0,1,3.171,8.6v8.724h-107v-8.724a13.26,13.26,0,0,1,3.171-8.6l6.66-7.8a1.747,1.747,0,0,0,.4-.919l3.69-29.5a10.265,10.265,0,0,1,10.171-8.978H241.4a10.266,10.266,0,0,1,10.171,8.978l2.041,16.313h0l1.054,8.432h0l.594,4.746a1.747,1.747,0,0,0,.4.919Zm-4.411-15.7-.7-5.555,2.5-1.639a13.214,13.214,0,0,1,7.265-2.169h3.388a2.252,2.252,0,0,1,2.25,2.25v5.125a2.253,2.253,0,0,1-2.25,2.25h-12.42Z" transform="translate(0 6.876)"/>
    </g>
  </g>
</svg>
