<svg width="170" height="56" viewBox="0 0 170 56" fill="none" xmlns="http://www.w3.org/2000/svg">
<mask id="mask0_779_5836" style="mask-type:alpha" maskUnits="userSpaceOnUse" x="0" y="0" width="170" height="56">
<rect width="170" height="56" fill="#D9D9D9"/>
</mask>
<g mask="url(#mask0_779_5836)">
<mask id="mask1_779_5836" style="mask-type:alpha" maskUnits="userSpaceOnUse" x="1" y="9" width="168" height="39">
<path d="M75.0848 36.964L73.7281 40.5574C73.2515 41.7839 72.9056 42.1157 72.1768 42.1157C72.0654 42.1118 71.9545 42.0998 71.8449 42.0797V41.4664C72.3283 41.5313 72.6819 41.4591 73.0282 40.5573L71.6934 36.9639H72.451L73.389 39.648L74.3343 36.9639L75.0848 36.964Z" fill="#666666"/>
<path d="M80.7334 38.761C80.7334 39.916 80.2499 40.6515 79.0665 40.6515C77.8832 40.6515 77.3926 39.9156 77.3926 38.761C77.3926 37.6064 77.8833 36.8706 79.0665 36.8706C80.2498 36.8706 80.7334 37.6066 80.7334 38.761ZM80.019 38.761C80.019 38.0323 79.7592 37.585 79.0665 37.585C78.3739 37.585 78.1069 38.0323 78.1069 38.761C78.1069 39.4897 78.3739 39.9371 79.0665 39.9371C79.7592 39.9371 80.019 39.4898 80.019 38.761Z" fill="#666666"/>
<path d="M86.6505 36.9624V40.5558H85.9866V40.2242C85.6919 40.492 85.3098 40.6433 84.9116 40.6499C83.9808 40.6499 83.5479 40.1448 83.5479 39.0841V36.9628H84.2405V39.113C84.2405 39.7623 84.5868 39.9645 85.027 39.9645C85.5609 39.9645 85.9071 39.5604 85.965 39.38V36.9628L86.6505 36.9624Z" fill="#666666"/>
<path d="M91.6207 36.877V37.5768C91.4928 37.5484 91.3621 37.5339 91.2311 37.5336C90.6682 37.5336 90.4229 37.8871 90.3652 38.1612V40.5568H89.6797V36.9634H90.3219V37.2448C90.3436 37.2087 90.6755 36.8696 91.397 36.8696C91.4692 36.8702 91.5341 36.8702 91.6207 36.877Z" fill="#666666"/>
<path d="M99.8972 39.7543V40.4902C99.675 40.5987 99.4302 40.6531 99.1829 40.649C98.8294 40.649 98.5191 40.5408 98.3459 40.3604C98.0717 40.0934 98.0501 39.6893 98.0501 39.0111V37.6478H97.3936V36.9623H98.0501V35.9814H98.7428V36.9623H99.6664V37.6478H98.7428V39.0115C98.7428 39.4444 98.7572 39.7187 98.9593 39.8556C99.219 40.0213 99.6592 39.8986 99.8972 39.7543Z" fill="#666666"/>
<path d="M105.7 36.9623V40.5557H105.015V40.2599C104.776 40.5052 104.445 40.6495 103.983 40.6495C102.915 40.6495 102.388 39.9207 102.388 38.759C102.388 37.6047 102.914 36.8687 103.983 36.8687C104.459 36.8687 104.798 37.0274 105.036 37.2872V36.9624L105.7 36.9623ZM105.015 38.759C105.015 38.0304 104.733 37.583 104.055 37.583C103.362 37.583 103.103 38.0304 103.103 38.759C103.103 39.4877 103.362 39.9351 104.055 39.9351C104.733 39.9351 105.015 39.4878 105.015 38.759Z" fill="#666666"/>
<path d="M111.788 36.9635V40.3548C111.788 41.3144 111.362 42.1009 109.998 42.1009C109.592 42.1059 109.188 42.0246 108.815 41.8625V41.177C109.176 41.3546 109.575 41.4436 109.977 41.4367C110.641 41.4367 111.102 41.1482 111.102 40.3545V40.2537C110.864 40.499 110.525 40.6505 110.071 40.6505C109.003 40.6505 108.476 39.9217 108.476 38.76C108.476 37.6056 109.002 36.8696 110.071 36.8696C110.547 36.8696 110.886 37.0284 111.124 37.2882V36.9634L111.788 36.9635ZM111.102 38.7602C111.102 38.0315 110.821 37.5842 110.143 37.5842C109.45 37.5842 109.183 38.0315 109.183 38.7602C109.183 39.4889 109.45 39.9363 110.143 39.9363C110.821 39.9362 111.102 39.489 111.102 38.7602Z" fill="#666666"/>
<path d="M115.506 35.4121V40.5567H114.82V35.4121H115.506Z" fill="#666666"/>
<path d="M118.479 36.0099C118.479 35.93 118.502 35.8519 118.547 35.7854C118.591 35.719 118.654 35.6673 118.728 35.6367C118.802 35.6061 118.883 35.5981 118.961 35.6137C119.04 35.6293 119.112 35.6678 119.168 35.7243C119.225 35.7808 119.263 35.8528 119.279 35.9311C119.294 36.0095 119.286 36.0907 119.256 36.1645C119.225 36.2383 119.173 36.3014 119.107 36.3458C119.041 36.3902 118.962 36.4139 118.883 36.4139C118.829 36.414 118.777 36.4036 118.728 36.3834C118.679 36.3631 118.634 36.3333 118.597 36.2958C118.559 36.2582 118.529 36.2137 118.509 36.1646C118.489 36.1155 118.478 36.0629 118.479 36.0099ZM118.536 36.9622H119.229V40.5556H118.536V36.9622Z" fill="#666666"/>
<path d="M125.361 38.4355V40.5568H124.668V38.4139C124.668 37.7572 124.322 37.5551 123.881 37.5551C123.347 37.5551 123.001 37.9664 122.943 38.1397V40.5568H122.258V36.9634H122.922V37.2953C123.216 37.0275 123.599 36.8762 123.997 36.8696C124.928 36.8702 125.361 37.3748 125.361 38.4355Z" fill="#666666"/>
<path d="M131.112 39.093H128.875C128.954 39.6339 129.236 39.9587 129.856 39.9587C130.25 39.9677 130.635 39.8459 130.953 39.6124V40.3845C130.615 40.5623 130.238 40.654 129.856 40.6515C128.644 40.6515 128.139 39.9227 128.139 38.761C128.139 37.6138 128.651 36.8706 129.647 36.8706C130.693 36.8711 131.285 37.585 131.112 39.093ZM128.861 38.4075H130.434C130.419 37.9024 130.217 37.585 129.647 37.585C129.142 37.585 128.911 37.9385 128.861 38.4075Z" fill="#666666"/>
<path d="M140.599 38.435V40.5563H139.906V38.4134C139.906 37.7568 139.56 37.5546 139.12 37.5546C138.593 37.5546 138.24 37.9659 138.182 38.1392V40.5563H137.496V35.5054H138.182V37.2947C138.467 37.0252 138.843 36.8732 139.235 36.869C140.166 36.8697 140.599 37.3743 140.599 38.435Z" fill="#666666"/>
<path d="M146.351 39.093H144.114C144.194 39.6339 144.475 39.9587 145.095 39.9587C145.489 39.9677 145.875 39.8459 146.192 39.6124V40.3845C145.854 40.5623 145.477 40.654 145.095 40.6515C143.883 40.6515 143.378 39.9227 143.378 38.761C143.378 37.6138 143.89 36.8706 144.886 36.8706C145.932 36.8711 146.524 37.585 146.351 39.093ZM144.1 38.4075H145.673C145.658 37.9024 145.456 37.585 144.886 37.585C144.381 37.585 144.15 37.9385 144.1 38.4075Z" fill="#666666"/>
<path d="M151.14 36.877V37.5768C151.012 37.5484 150.882 37.5339 150.751 37.5336C150.188 37.5336 149.942 37.8871 149.885 38.1612V40.5568H149.199V36.9634H149.841V37.2448C149.863 37.2087 150.194 36.8696 150.916 36.8696C150.989 36.8702 151.054 36.8702 151.14 36.877Z" fill="#666666"/>
<path d="M156.531 39.093H154.294C154.373 39.6339 154.655 39.9587 155.275 39.9587C155.669 39.9677 156.054 39.8459 156.372 39.6124V40.3845C156.033 40.5623 155.657 40.654 155.275 40.6515C154.063 40.6515 153.558 39.9227 153.558 38.761C153.558 37.6138 154.07 36.8706 155.066 36.8706C156.112 36.8711 156.704 37.585 156.531 39.093ZM154.28 38.4075H155.852C155.838 37.9024 155.636 37.585 155.066 37.585C154.561 37.585 154.33 37.9385 154.28 38.4075Z" fill="#666666"/>
<path d="M59.3623 17.7739H62.6282V29.2241H69.7042V31.8852H59.3623V17.7739Z" fill="#666666"/>
<path d="M76.1846 31.1802C75.0418 30.58 74.0862 29.6768 73.4227 28.5695C72.7575 27.4608 72.4249 26.2143 72.4248 24.8299C72.4247 23.4454 72.7574 22.1989 73.4227 21.0903C74.0863 19.9831 75.0418 19.0799 76.1846 18.4796C77.3605 17.8481 78.681 17.5323 80.146 17.5322C81.6111 17.5321 82.9281 17.8479 84.097 18.4796C85.2369 19.0838 86.1915 19.9861 86.8588 21.0903C87.531 22.1991 87.8671 23.4456 87.8671 24.8299C87.8671 26.2141 87.531 27.4606 86.8588 28.5695C86.1916 29.6738 85.237 30.5761 84.097 31.1802C82.9277 31.812 81.6107 32.1279 80.146 32.1277C78.6813 32.1275 77.3609 31.8117 76.1846 31.1802ZM82.4039 28.7711C83.0699 28.3941 83.6179 27.8392 83.9864 27.1684C84.3639 26.4467 84.561 25.6444 84.561 24.8299C84.561 24.0155 84.3639 23.2131 83.9864 22.4914C83.6178 21.8207 83.0699 21.2658 82.4039 20.8887C81.711 20.5117 80.9348 20.3143 80.146 20.3143C79.3572 20.3143 78.581 20.5117 77.8881 20.8887C77.222 21.2657 76.6741 21.8206 76.3055 22.4914C75.9281 23.2131 75.731 24.0155 75.731 24.8299C75.731 25.6443 75.9281 26.4467 76.3055 27.1684C76.674 27.8392 77.222 28.3942 77.8881 28.7711C78.581 29.1481 79.3572 29.3456 80.146 29.3456C80.9348 29.3456 81.7111 29.1481 82.4039 28.7711Z" fill="#666666"/>
<path d="M101.878 24.6079H104.862V30.3333C104.06 30.9295 103.159 31.3799 102.201 31.6639C101.215 31.9695 100.189 32.1258 99.1566 32.1275C97.6917 32.1275 96.3747 31.815 95.2057 31.1901C94.0663 30.5934 93.114 29.6934 92.4539 28.5896C91.7887 27.4807 91.4561 26.2275 91.4561 24.8297C91.4561 23.4319 91.7887 22.1787 92.4539 21.07C93.118 19.9622 94.078 19.0616 95.2259 18.4695C96.4083 17.8445 97.7389 17.532 99.2175 17.5321C100.37 17.5164 101.514 17.7287 102.584 18.157C103.562 18.5524 104.433 19.1742 105.124 19.9714L103.028 21.9067C102.02 20.8451 100.804 20.3143 99.3792 20.3141C98.5449 20.2983 97.72 20.4924 96.9802 20.8785C96.2945 21.2419 95.7277 21.7947 95.3473 22.4711C94.9634 23.1944 94.7627 24.0008 94.7627 24.8197C94.7627 25.6385 94.9634 26.4449 95.3473 27.1683C95.7271 27.8441 96.2894 28.3995 96.9699 28.7709C97.697 29.1627 98.5128 29.3605 99.3387 29.3455C100.223 29.359 101.096 29.151 101.879 28.7405L101.878 24.6079Z" fill="#666666"/>
<path d="M109.901 17.7739H113.167V31.8855H109.901V17.7739Z" fill="#666666"/>
<path d="M119.932 31.6738C118.89 31.3715 118.053 30.9784 117.422 30.4946L118.531 28.0351C119.188 28.5048 119.916 28.8656 120.688 29.1035C121.495 29.3683 122.339 29.5044 123.188 29.5069C124.115 29.5069 124.801 29.3692 125.244 29.0937C125.688 28.8183 125.909 28.4521 125.91 27.995C125.912 27.8348 125.878 27.6761 125.81 27.5311C125.742 27.3861 125.641 27.2586 125.516 27.1584C125.218 26.9171 124.875 26.7356 124.508 26.6242C124.098 26.4897 123.543 26.3419 122.845 26.1806C121.95 25.9783 121.068 25.7225 120.204 25.4146C119.521 25.1612 118.914 24.738 118.44 24.1849C117.949 23.6204 117.704 22.8677 117.704 21.9269C117.696 21.1343 117.928 20.3578 118.369 19.6994C118.813 19.034 119.481 18.5065 120.375 18.1168C121.269 17.7271 122.361 17.5322 123.651 17.5322C124.541 17.5311 125.428 17.6394 126.292 17.8547C127.089 18.0435 127.851 18.3564 128.55 18.782L127.542 21.2617C126.238 20.5227 124.934 20.153 123.631 20.1525C122.717 20.1525 122.041 20.3003 121.605 20.5961C121.168 20.8918 120.95 21.2815 120.95 21.7653C120.95 22.2492 121.202 22.6087 121.706 22.8439C122.21 23.079 122.979 23.3109 124.014 23.5394C124.909 23.7419 125.791 23.9978 126.655 24.3054C127.334 24.5565 127.94 24.9721 128.419 25.515C128.909 26.0662 129.154 26.8121 129.155 27.7527C129.16 28.5403 128.925 29.3107 128.479 29.9602C128.029 30.6254 127.354 31.1529 126.453 31.5427C125.553 31.9324 124.458 32.1273 123.167 32.1273C122.073 32.1303 120.983 31.9776 119.932 31.6738Z" fill="#666666"/>
<path d="M136.13 20.435H131.614V17.7739H143.912V20.435H139.396V31.8855H136.13V20.435Z" fill="#666666"/>
<path d="M147.681 17.7739H150.946V31.8855H147.681V17.7739Z" fill="#666666"/>
<path d="M159.162 31.1903C158.026 30.5913 157.078 29.6917 156.42 28.5897C155.755 27.4809 155.422 26.2276 155.422 24.8299C155.422 23.4321 155.755 22.1789 156.42 21.0702C157.078 19.9682 158.026 19.0685 159.162 18.4696C160.324 17.8446 161.631 17.5322 163.083 17.5322C164.305 17.5322 165.411 17.7472 166.399 18.1773C167.364 18.5903 168.217 19.2259 168.889 20.0319L166.792 21.9672C165.838 20.8654 164.655 20.3145 163.244 20.3143C162.428 20.2999 161.622 20.4979 160.905 20.8887C160.231 21.2611 159.675 21.8167 159.303 22.4914C158.925 23.2131 158.728 24.0155 158.728 24.8299C158.728 25.6444 158.925 26.4467 159.303 27.1684C159.675 27.8431 160.231 28.3988 160.905 28.7711C161.622 29.162 162.428 29.36 163.244 29.3456C164.655 29.3456 165.838 28.7879 166.792 27.6724L168.889 29.6077C168.219 30.4256 167.361 31.069 166.389 31.4826C165.394 31.9125 164.285 32.1276 163.063 32.1277C161.624 32.1277 160.324 31.8152 159.162 31.1903Z" fill="#666666"/>
<path fill-rule="evenodd" clip-rule="evenodd" d="M34.8651 18.9092C28.1308 18.9092 21.397 22.1414 17.8953 28.0673H32.9796L34.3258 22.1414L45.639 33.1854L29.4777 44.4986L30.8244 38.5726H16.0098C17.0871 44.768 22.7436 48.0002 29.7473 48.0002C38.6361 48.0002 47.2562 42.8825 48.8721 33.4545C50.4882 24.2968 43.754 18.9092 34.8651 18.9092Z" fill="#FD6500"/>
<path fill-rule="evenodd" clip-rule="evenodd" d="M15.7475 38.091C22.4818 38.091 29.2157 34.8588 32.7173 28.9328H17.6331L16.2862 34.8588L4.97307 23.8147L21.1344 12.5016L19.788 18.4276H34.6029C33.5256 12.2321 27.869 9 20.8653 9C11.9765 9 3.35648 14.1177 1.74053 23.5457C0.124401 32.7034 6.85861 38.091 15.7476 38.091H15.7475Z" fill="#4D4D4D"/>
</mask>
<g mask="url(#mask1_779_5836)">
<rect width="170" height="56" fill="#141414"/>
</g>
</g>
</svg>
