<svg xmlns="http://www.w3.org/2000/svg" viewBox="0 0 32 32"><g id="certified"><path d="M7,12H18a1,1,0,0,0,0-2H7a1,1,0,0,0,0,2Z"/><path d="M14,14H7a1,1,0,0,0,0,2h7a1,1,0,0,0,0-2Z"/><path d="M26,14.69V8.63A3.44,3.44,0,0,0,22.79,5H5.21A3.44,3.44,0,0,0,2,8.63V20.37A3.44,3.44,0,0,0,5.21,24H16.69A7,7,0,1,0,26,14.69ZM5.21,22C4.55,22,4,21.25,4,20.37V8.63C4,7.75,4.55,7,5.21,7H22.79C23.45,7,24,7.75,24,8.63v5.45A6.63,6.63,0,0,0,23,14a7,7,0,0,0-7,7,6.63,6.63,0,0,0,.08,1ZM23,26a5,5,0,1,1,5-5A5,5,0,0,1,23,26Z"/><path d="M25.45,18.11a1,1,0,0,0-1.34.44l-1.38,2.76-1-1a1,1,0,0,0-1.42,1.42l2,2A1,1,0,0,0,23,24h.16a1,1,0,0,0,.73-.54l2-4A1,1,0,0,0,25.45,18.11Z"/></g></svg>