<svg xmlns="http://www.w3.org/2000/svg" xmlns:xlink="http://www.w3.org/1999/xlink" width="150" height="150" viewBox="0 0 150 150">
  <defs>
    <clipPath id="clip-demo-real-estate-icon-02">
      <rect width="150" height="150"/>
    </clipPath>
  </defs>
  <g id="demo-real-estate-icon-02" clip-path="url(#clip-demo-real-estate-icon-02)">
    <rect width="150" height="150" fill="#fff"/>
    <g id="demo-real-estate-icon-02-2" data-name="demo-real-estate-icon-02" transform="translate(-18.593 -47.649)">
      <path id="Path_6" data-name="Path 6" d="M145.155,277.1H42.032A23.465,23.465,0,0,1,18.593,253.66v-37.5a4.687,4.687,0,0,1,4.687-4.687H117.03a4.687,4.687,0,0,1,0,9.375H27.968V253.66a14.08,14.08,0,0,0,14.064,14.064H145.155a14.08,14.08,0,0,0,14.064-14.064V220.848H135.781a4.687,4.687,0,1,1,0-9.375h28.125a4.687,4.687,0,0,1,4.687,4.687v37.5A23.465,23.465,0,0,1,145.155,277.1Z" transform="translate(0 -102.887)" fill="#232323"/>
      <path id="Line_1" data-name="Line 1" d="M-10.289,3.772A4.687,4.687,0,0,1-14.977-.915v-9.374a4.687,4.687,0,0,1,4.687-4.687A4.687,4.687,0,0,1-5.6-10.289V-.915A4.687,4.687,0,0,1-10.289,3.772Z" transform="translate(57.01 179.813)" fill="#232323"/>
      <path id="Line_2" data-name="Line 2" d="M-10.289,3.772A4.687,4.687,0,0,1-14.977-.915v-9.374a4.687,4.687,0,0,1,4.687-4.687A4.687,4.687,0,0,1-5.6-10.289V-.915A4.687,4.687,0,0,1-10.289,3.772Z" transform="translate(150.759 179.813)" fill="#232323"/>
      <path id="Path_7" data-name="Path 7" d="M98.181,117.961a4.687,4.687,0,0,1-4.687-4.687v-37.5a14.077,14.077,0,0,1,14.061-14.061h9.374A14.077,14.077,0,0,1,130.99,75.775v9.374a4.687,4.687,0,0,1-9.375,0V75.775a4.692,4.692,0,0,0-4.686-4.686h-9.374a4.692,4.692,0,0,0-4.686,4.686v37.5A4.687,4.687,0,0,1,98.181,117.961Z" transform="translate(-51.457 0)" fill="#232323"/>
      <path id="Line_3" data-name="Line 3" d="M8.462-5.6H-10.289a4.687,4.687,0,0,1-4.687-4.687,4.687,4.687,0,0,1,4.687-4.687H8.462a4.687,4.687,0,0,1,4.687,4.687A4.687,4.687,0,0,1,8.462-5.6Z" transform="translate(75.758 95.438)" fill="#232323"/>
      <path id="Line_4" data-name="Line 4" d="M13.147-5.6H-10.289a4.687,4.687,0,0,1-4.687-4.687,4.687,4.687,0,0,1,4.687-4.687H13.147a4.687,4.687,0,0,1,4.687,4.687A4.687,4.687,0,0,1,13.147-5.6Z" transform="translate(150.759 142.311)" fill="#232323"/>
    </g>
  </g>
</svg>
