<svg width="89" height="5" viewBox="0 0 89 5" fill="none" xmlns="http://www.w3.org/2000/svg">
<path d="M5.44263 1.24585C5.22486 1.07199 5.02176 0.88675 4.75524 1.16971C4.69153 1.23737 4.51637 1.09 4.38047 1.11005C4.27185 1.1261 4.14055 0.991608 4.07813 1.24911C4.0658 1.29999 3.79445 1.48409 3.62226 1.34117C3.56376 1.29261 3.51708 1.27845 3.47826 1.32275C3.36098 1.4566 3.2775 1.54455 3.30275 1.23502C3.31237 1.11723 3.23609 1.10789 3.16857 1.14801C3.0448 1.21864 2.9179 1.28083 2.78844 1.33432C2.60914 1.41237 2.52988 1.41372 2.32629 1.41206C2.20587 1.41108 2.02945 1.34226 1.94441 1.56163C1.87806 1.73279 1.70799 1.60025 1.58807 1.73675C1.46608 1.87576 1.22669 1.82235 1.03629 1.84259C0.75867 1.87193 0.487805 1.95577 0.243497 2.14038C0.0935932 2.25368 0.056979 2.45838 0.0182258 2.62181C-0.0350545 2.84639 0.0263047 3.09764 0.231089 3.21657C0.465892 3.35297 0.702764 3.40784 0.949442 3.23247C1.16619 3.07846 1.41987 3.08894 1.66158 3.04132C1.8642 3.00129 2.11662 3.14969 2.26293 2.80153C2.31215 2.68442 2.49472 2.83479 2.59627 2.88352C2.68617 2.92669 2.73771 2.99832 2.8568 2.95319C3.13072 2.85447 3.41349 2.79592 3.69925 2.77876C3.99748 2.75791 4.30278 2.70605 4.60475 2.72052C5.14342 2.74637 5.67662 2.61856 6.21949 2.6938C6.45742 2.72678 6.69561 2.54178 6.95119 2.55265C7.29934 2.56746 7.64986 2.53582 7.99537 2.57839C8.14698 2.59414 8.2994 2.58774 8.44943 2.55933C9.10878 2.45152 9.77469 2.50028 10.4349 2.4472C10.7421 2.42248 11.0764 2.53907 11.3647 2.29965C11.3998 2.27046 11.4303 2.3565 11.492 2.35825C12.1101 2.3757 12.727 2.28879 13.3407 2.30576C13.7192 2.31626 14.1006 2.2466 14.4785 2.32479C14.5318 2.33691 14.5867 2.33177 14.6376 2.30989C14.8605 2.21922 15.0766 2.13016 15.323 2.26675C15.4668 2.34648 15.6347 2.16713 15.7765 2.19486C15.9696 2.23269 16.184 2.02906 16.3727 2.29951C16.4169 2.3628 16.6359 2.22284 16.777 2.20836C17.2346 2.1614 17.6929 2.01441 18.1526 2.17922C18.3189 2.23881 18.4333 2.08072 18.5877 2.08281C18.7638 2.08532 18.9293 2.23653 19.1102 2.13631C19.1421 2.11868 19.1897 2.14013 19.2192 2.11993C19.4911 1.93362 19.8263 1.90956 20.0793 1.98788C20.4995 2.11802 20.9078 2.06311 21.3025 2.0186C22.2062 1.91677 23.1254 2.07404 24.0153 1.80379C24.1557 1.76113 24.2645 1.86042 24.3852 1.87759C24.9738 1.96123 25.5544 1.83926 26.1374 1.83841C26.7181 1.83754 27.3044 1.8317 27.8877 1.78207C28.4944 1.73047 29.1036 1.71033 29.7149 1.7176C30.1955 1.72334 30.6839 1.74143 31.1588 1.69372C31.7466 1.63468 32.3376 1.64924 32.9214 1.635C33.4911 1.62111 34.0645 1.55416 34.6416 1.60684C35.2155 1.65929 35.7956 1.59096 36.3733 1.54982C36.7642 1.52208 37.1748 1.58169 37.5695 1.55428C38.1979 1.51044 38.827 1.57915 39.4558 1.49851C39.8669 1.44577 40.286 1.57247 40.7069 1.54575C41.2968 1.50831 41.8894 1.52309 42.4808 1.51568C42.4901 1.51695 42.4994 1.51758 42.5087 1.51757C42.7135 1.48564 42.8858 1.34949 43.1334 1.46832C43.3567 1.57541 43.6456 1.46103 43.9056 1.46395C44.1604 1.46683 44.4166 1.48198 44.6702 1.48506C45.4515 1.49455 46.2354 1.39949 47.0131 1.46053C47.5619 1.50368 48.1116 1.32605 48.6584 1.52144C48.779 1.56453 48.9252 1.50068 49.059 1.48026C49.4583 1.41933 49.8554 1.42114 50.2479 1.55268C50.353 1.58786 50.3031 1.39471 50.4404 1.40166C50.7884 1.41932 51.1346 1.48671 51.4818 1.48097C51.6582 1.47806 51.8431 1.49324 52.0105 1.45449C52.3823 1.36859 52.7517 1.50366 53.1186 1.43635C53.215 1.41868 53.3251 1.67219 53.3914 1.34849C53.4567 1.52847 53.3597 1.7092 53.5016 1.76796C53.6427 1.82643 53.6563 1.65418 53.7079 1.55641C53.7475 1.4812 53.8086 1.4467 53.876 1.47082C54.2222 1.59453 54.5743 1.47512 54.9235 1.52187C55.0159 1.53424 55.0478 1.55111 55.0806 1.64315C55.0915 1.67376 55.154 1.70927 55.1745 1.69696C55.2492 1.65215 55.1669 1.61499 55.1583 1.57344C55.1455 1.51119 55.1773 1.47456 55.211 1.48027C55.495 1.52808 55.7909 1.35242 56.0418 1.43286C56.3535 1.5328 56.6036 1.50301 56.8677 1.33237C56.8758 1.3264 56.8848 1.32259 56.8941 1.32118C56.9035 1.31977 56.913 1.32079 56.9221 1.32419C56.9311 1.32758 56.9395 1.33327 56.9467 1.34088C56.9538 1.34849 56.9596 1.35785 56.9637 1.36836C57.0038 1.47153 56.8583 1.45047 56.8841 1.56186C57.0014 1.5765 57.1421 1.51243 57.2315 1.68183C57.2613 1.73827 57.3413 1.71338 57.3578 1.68175C57.4635 1.47764 57.6136 1.612 57.7402 1.58233C58.2076 1.47281 58.6625 1.56268 59.1262 1.59485C59.371 1.61183 59.6391 1.5408 59.889 1.57288C60.2396 1.61802 60.5994 1.47433 60.9451 1.69483C61.1247 1.80942 61.3062 1.61501 61.492 1.58528C61.7407 1.5457 61.9279 1.73709 62.1518 1.77933C62.3241 1.81196 62.4605 2.10454 62.6739 1.78089C62.7678 1.63835 63.0249 1.49292 63.2477 1.72521C63.3144 1.79484 63.4503 1.86184 63.5669 1.75514C63.7669 1.57232 63.9884 1.712 64.1835 1.75607C64.5581 1.84073 64.9542 1.5226 65.3045 1.86551C65.3961 1.95525 65.4098 1.81177 65.4657 1.81632C65.5392 1.82228 65.6707 1.65913 65.6627 1.92206C65.6609 1.97877 65.7275 2.01017 65.7729 1.96756C66.0343 1.7225 66.3167 1.77548 66.619 1.8306C66.7408 1.85281 66.8803 1.8334 67.0152 1.85046C67.1003 1.86123 67.1768 1.81558 67.2097 1.95274C67.2325 2.04825 67.3161 2.04246 67.3476 2.02064C67.7207 1.76226 68.1197 1.97203 68.5042 1.939C68.8827 1.9065 69.267 1.97572 69.6489 1.98517C69.979 1.9933 70.3116 2.09152 70.6421 1.93658C70.681 1.91831 70.8313 2.08364 70.9482 2.06625C71.2815 2.01662 71.6201 2.07414 71.9468 2.09438C72.2529 2.11336 72.5484 2.12726 72.8499 2.07326C72.895 2.06516 72.9501 2.12688 72.9989 2.16013C73.0759 2.21257 73.1747 2.26191 73.2344 2.18886C73.3439 2.05507 73.4342 2.1362 73.5529 2.15146C74.1543 2.23156 74.7586 2.27081 75.3629 2.26902C75.6702 2.2668 75.9923 2.33055 76.3107 2.31956C76.6767 2.30694 77.039 2.38301 77.4127 2.32458C77.5662 2.30055 77.7916 2.43995 77.9863 2.42173C78.6874 2.35616 79.389 2.45249 80.0859 2.48745C80.8673 2.5267 81.6572 2.48805 82.4355 2.65608C82.5007 2.67014 82.5936 2.66079 82.5994 2.54389C82.6028 2.47554 82.5288 2.38477 82.6484 2.37687C82.7227 2.37184 82.8132 2.37181 82.8182 2.49687C82.8257 2.68971 82.938 2.67545 83.0367 2.67944C84.2166 2.72705 85.3943 2.8247 86.5704 2.95696C86.7069 2.97232 86.8533 2.87625 86.9768 3.02265C87.0546 2.71783 87.144 3.10067 87.2399 3.01858C87.3406 2.93226 87.4958 3.02434 87.5839 2.95615C87.7593 2.82057 87.7588 3.09474 87.8726 3.10161C88.1174 3.11634 88.3608 3.17045 88.6056 3.18951C88.7322 3.1994 88.8607 3.16883 88.9883 3.15654L88.9821 3.16588C89.0102 2.97046 88.8976 2.90513 88.7853 2.9243C88.5771 2.95976 88.3889 2.85973 88.1909 2.83819C87.9123 2.80786 87.6315 2.79706 87.3538 2.78837C87.2188 2.78413 87.0105 2.70605 86.8441 2.62723C86.6968 2.55746 86.5143 2.7331 86.3833 2.51772C86.3689 2.49405 86.2759 2.52035 86.2556 2.60421C86.2471 2.63939 86.2463 2.72016 86.2017 2.67702C85.9291 2.41324 85.5912 2.50056 85.2876 2.41034C85.0176 2.3301 84.6566 2.19713 84.4674 2.34285C84.1499 2.58731 84.0034 2.27832 83.7814 2.21996C83.6102 2.1767 83.4362 2.15292 83.2617 2.14891C82.7524 2.13295 82.2453 2.10316 81.7376 2.0289C81.3261 1.96868 80.9086 1.97385 80.4937 1.95065C79.9571 1.92067 79.4199 1.9025 78.8838 1.85897C78.1623 1.80036 77.4415 1.67624 76.7207 1.6714C76.3327 1.66878 75.945 1.58398 75.5508 1.65439C75.314 1.69667 75.0579 1.59576 74.8116 1.5492C74.5755 1.50455 74.3382 1.5353 74.1022 1.52399C73.6799 1.50379 73.2509 1.51649 72.8335 1.48264C72.4553 1.45197 72.0786 1.41869 71.6978 1.39911C71.0474 1.36578 70.3942 1.32698 69.7467 1.26152C69.1039 1.19644 68.4608 1.13308 67.8063 1.10736C67.7708 1.1863 67.8683 1.18367 67.8824 1.22911C67.9097 1.31754 67.8527 1.38525 67.7881 1.40009C67.7151 1.41686 67.7047 1.35289 67.7097 1.26977C67.727 0.981377 67.6176 0.965671 67.423 1.04618C67.158 1.15585 66.8787 1.05168 66.6058 1.05754C66.183 1.06662 65.7683 0.884089 65.3342 0.974132C65.1796 1.00621 64.9981 0.92724 64.8275 0.907743C64.596 0.881263 64.361 0.890345 64.1288 0.858451C63.8628 0.821831 63.5773 0.782736 63.3146 0.810951C62.5125 0.897188 61.7232 0.639863 60.9314 0.692108C60.4127 0.726366 59.8999 0.652775 59.3834 0.664004C58.8478 0.675641 58.3069 0.582472 57.7679 0.607972C57.4914 0.621052 57.208 0.492847 56.9607 0.539621C56.6829 0.592191 56.4181 0.499542 56.1546 0.554389C55.7329 0.642165 55.3139 0.415246 54.8994 0.53139C54.6941 0.588928 54.5127 0.645318 54.3395 0.443395C54.3098 0.408848 54.24 0.378119 54.212 0.396973C53.8736 0.62514 53.505 0.413545 53.1593 0.501994C52.9819 0.547393 52.8199 0.353909 52.6497 0.444943C52.3483 0.606129 52.0361 0.452867 51.733 0.504399C51.4729 0.548623 51.1937 0.313686 50.9496 0.576824C50.1602 0.334743 49.3577 0.555683 48.5678 0.448743C48.0846 0.38341 47.6158 0.505921 47.1385 0.470297C45.9955 0.384949 44.8524 0.45998 43.7098 0.439031C43.0739 0.427351 42.4359 0.420417 41.8011 0.421691C41.1873 0.422883 40.5701 0.41179 39.9542 0.4531C39.6241 0.475244 39.2893 0.420565 38.9562 0.501103C38.8392 0.529404 38.7237 0.426816 38.5888 0.420172C38.2833 0.405256 37.9822 0.497251 37.668 0.403306C37.4205 0.329222 37.1521 0.47063 36.8826 0.430379C36.7542 0.411198 36.6041 0.413295 36.5095 0.339289C36.3121 0.184772 36.2182 0.257323 36.1547 0.497211C35.9402 0.221482 35.7823 0.222589 35.5438 0.460259C35.4289 0.574746 35.2603 0.344491 35.145 0.526434C35.0209 0.365758 34.8676 0.564996 34.7605 0.493661C34.4723 0.301501 34.09 0.481388 33.8429 0.106727C33.7938 0.0323081 33.6446 0.176647 33.5413 0.219303C33.3274 0.307631 33.1692 0.618649 32.8925 0.454904C32.7527 0.711857 32.5662 0.418025 32.3962 0.525161C32.4572 0.410407 32.4789 0.186327 32.4359 0.223893C32.2246 0.408284 32.1174 0.065083 31.9382 0.139891C32.0943 0.204027 32.081 0.346159 32.0134 0.461219C31.9359 0.593256 31.8428 0.493349 31.7789 0.417101C31.6408 0.252633 31.5565 0.444994 31.47 0.495004C31.3446 0.567596 31.2443 0.464338 31.1459 0.447851C31.0604 0.43351 31.2156 0.308983 31.2193 0.170687C31.1312 0.251025 31.0674 0.35513 30.9471 0.245046C30.7662 0.0796138 30.5227 0.123676 30.3166 0.0853311C30.1376 0.0520487 29.9504 0.285549 29.9331 0.584873C30.0873 0.34833 30.2697 0.219811 30.5611 0.329396C30.3466 0.513821 30.1587 0.621242 29.933 0.583606C29.6924 0.595509 29.722 0.224479 29.5387 0.10409C29.5178 0.281898 29.6227 0.315871 29.6585 0.404614C29.723 0.56472 29.573 0.548997 29.5649 0.637039C29.4514 0.462666 29.3436 0.664699 29.2262 0.642887C29.0526 0.610637 28.89 0.617053 29.0279 0.314662C29.0705 0.221143 29.0627 0.107761 28.9943 0.036847C28.8726 -0.0891642 28.923 0.149472 28.8709 0.136973C28.7592 0.110225 28.6546 0.277978 28.5358 0.132304C28.4822 0.0666617 28.0028 0.279598 27.969 0.364477C27.8767 0.595939 27.6623 0.625628 27.5228 0.425539C27.4703 0.35029 27.4221 0.36209 27.3529 0.403246C27.2502 0.464366 27.1363 0.49784 26.9926 0.557481C27.035 0.437447 27.0718 0.36573 27.0842 0.287861C27.0895 0.253676 27.085 0.218192 27.0715 0.187356C27.058 0.156519 27.0364 0.132205 27.0101 0.118485C26.9372 0.0750325 26.9426 0.169136 26.9199 0.202326C26.8233 0.343645 26.6782 0.364225 26.5891 0.269438C26.4585 0.130496 26.339 0.235658 26.2193 0.226002C26.0263 0.21039 26.2249 0.405421 26.1316 0.486284C26.0431 0.417191 26.0317 0.197045 25.8646 0.223981C25.9125 0.298698 25.9607 0.364611 25.9996 0.437967C26.0271 0.489814 26.0138 0.590181 25.9775 0.579483C25.7689 0.517985 25.5161 0.830168 25.3401 0.444727C25.2876 0.32971 25.1745 0.200965 25.0544 0.427242C24.9577 0.609344 24.874 0.411091 24.82 0.343783C24.7536 0.261125 24.6832 0.191254 24.6086 0.242714C24.5348 0.293601 24.5889 0.407732 24.6026 0.493728C24.6279 0.652248 24.6289 0.652045 24.4622 0.623585C24.4546 0.621176 24.4467 0.620472 24.4388 0.62151C24.3547 0.64707 24.2474 0.823521 24.1951 0.6121C24.162 0.478333 24.344 0.521046 24.3861 0.407035C24.2637 0.38271 24.1427 0.356548 24.0212 0.335145C23.9202 0.317344 23.7878 0.19873 23.7654 0.450682C23.7641 0.462158 23.7603 0.472948 23.7543 0.481908C23.7484 0.490869 23.7406 0.497664 23.7317 0.501568C23.7228 0.505473 23.7132 0.506343 23.7039 0.504086C23.6946 0.501828 23.686 0.496527 23.6789 0.488747C23.5655 0.347633 23.4203 0.537031 23.2826 0.392626C23.1138 0.215622 22.8964 0.435794 22.6947 0.400071C22.5617 0.376511 22.3895 0.603072 22.3026 0.291853C22.2987 0.277823 22.2167 0.269109 22.201 0.290733C22.0474 0.501922 21.8531 0.423583 21.6649 0.417378C21.5294 0.412892 21.3886 0.436266 21.5516 0.709315C21.3574 0.627705 21.2427 0.403247 21.0557 0.537248C21.1045 0.640803 21.2058 0.596556 21.2842 0.653385C21.1195 0.849218 20.8651 0.565499 20.7181 0.882298C20.7354 0.550609 20.5865 0.431658 20.3662 0.499086C20.2419 0.537082 20.0787 0.459183 20.1369 0.75636C20.1519 0.833035 20.0043 0.835724 19.9337 0.864337C19.8783 0.886786 19.8067 0.825999 19.8352 0.713885C19.87 0.5766 19.8319 0.54091 19.729 0.601052C19.6834 0.6277 19.634 0.636441 19.5982 0.594146C19.3986 0.358132 19.2578 0.523717 19.137 0.702871C19.0487 0.833772 19.0215 0.84306 18.9181 0.699979C18.773 0.499272 18.5596 0.483146 18.3445 0.551639C18.365 0.647793 18.5215 0.632238 18.4572 0.781969C18.3965 0.923414 18.3332 0.78447 18.2721 0.789702C18.2358 0.794776 18.2007 0.807533 18.1681 0.827404C17.9342 0.957407 17.7142 0.835269 17.4952 0.756602C17.3244 0.695233 17.1829 0.927273 16.992 0.799495C16.9507 0.771764 16.7945 1.01096 16.7748 0.708687C16.6182 0.879326 16.4351 0.664904 16.2683 0.757981C16.1321 0.833977 15.9954 0.838927 15.8404 0.761019C15.6212 0.650775 15.5978 0.685924 15.524 1.05024C15.4962 0.901488 15.2437 0.975105 15.4135 0.735625C15.2753 0.68082 15.1273 0.678031 14.9886 0.727618C14.7674 0.806737 14.5317 0.805975 14.3096 0.725423C14.2764 0.713189 14.2451 0.693353 14.2129 0.677041C14.1539 1.04704 13.8532 0.792793 13.7157 0.9619C13.7035 0.97946 13.6861 0.990471 13.6673 0.99263C13.6485 0.994788 13.6297 0.98793 13.6147 0.973487C13.453 0.820922 13.3916 0.818931 13.21 1.0031C13.1456 1.06859 13.0702 1.11125 13.0119 1.05812C12.9361 0.989037 13.1173 0.977776 13.0588 0.885346C12.7907 1.03479 12.7907 1.03479 12.6872 0.822844C12.6521 0.992907 12.6538 1.2636 12.4483 0.991691C12.3802 0.901707 12.35 0.891268 12.3658 1.0548C12.3777 1.17738 12.2721 1.12784 12.2396 1.06853C12.1011 0.816094 11.9155 0.803883 11.7041 0.878114C11.6922 1.02226 11.9384 0.898408 11.8493 1.06329C11.793 1.16726 11.5828 1.15981 11.5567 1.07319C11.4925 0.860662 11.3779 0.951455 11.2777 0.932329C11.2193 0.92117 11.1326 0.959646 11.1213 0.841854C11.1137 0.762826 11.0701 0.727148 11.0407 0.776409C10.878 1.04944 10.6006 0.880969 10.4053 1.03083C10.3376 1.08276 10.2899 1.0839 10.2762 0.912727C10.2624 0.741554 10.116 0.934694 10.0379 0.886995C9.95943 1.04882 10.1934 0.958177 10.1188 1.06569C10.0727 1.13215 9.98737 1.205 9.88453 1.10882C9.76937 1.0011 9.68518 0.814895 9.48879 1.06471C9.3419 1.25156 9.53688 0.877907 9.36974 0.914044C9.28989 1.02336 9.2799 1.22237 9.14472 1.3532C9.17954 1.22439 8.9716 1.19773 9.08625 1.0215C9.13768 0.942477 9.04931 0.94774 9.01432 0.939926C8.83892 0.900813 8.66109 0.940207 8.50625 1.01318C8.32205 1.10002 8.08995 1.05172 7.95368 1.28124C7.7512 0.990127 7.5543 1.3365 7.35673 1.28108C7.22426 1.244 7.10068 1.24099 6.97466 1.30299C6.85967 1.35954 6.78392 1.33272 6.79267 1.15251C6.79791 1.0443 6.71867 1.0603 6.68016 1.06788C6.48689 1.1059 6.29829 1.1605 6.1105 1.01921C6.06935 0.988265 5.9712 1.06158 5.98004 1.10586C6.02973 1.35441 5.84233 1.24067 5.78256 1.31461C5.66575 1.32344 5.54424 1.36396 5.44263 1.24585Z" fill="#97E14D"/>
<path d="M5.43592 2.82901C5.21566 2.65852 5.0099 2.47642 4.74751 2.76345C4.68479 2.83208 4.50751 2.68742 4.37192 2.70956C4.26354 2.72728 4.13031 2.59482 4.07162 2.85325C4.06003 2.90432 3.79138 3.09257 3.61714 2.95231C3.55794 2.90467 3.51107 2.89123 3.47289 2.93612C3.35756 3.07175 3.27537 3.16098 3.29613 2.8511C3.30404 2.73318 3.22763 2.72501 3.1607 2.76616C3.03797 2.83868 2.91199 2.90282 2.78331 2.95829C2.60517 3.03909 2.52593 3.04167 2.32234 3.04314C2.20192 3.04401 2.02452 2.97791 1.94267 3.19856C1.87881 3.37073 1.70684 3.24082 1.58891 3.37915C1.46894 3.52002 1.22881 3.4703 1.03872 3.49346C0.761558 3.52707 0.491938 3.61506 0.250333 3.80342C0.102087 3.91901 0.0684425 4.12425 0.0320614 4.28825C-0.0179591 4.51363 0.0470335 4.76391 0.253518 4.87967C0.490271 5.01245 0.727912 5.06367 0.972022 4.88452C1.18651 4.7272 1.44032 4.73377 1.68131 4.68244C1.88333 4.6393 2.13787 4.78379 2.27912 4.43342C2.32664 4.31557 2.51137 4.46312 2.61361 4.51028C2.70412 4.55206 2.75669 4.62289 2.87512 4.57593C3.14758 4.47301 3.42947 4.41012 3.71495 4.38856C4.01285 4.36313 4.31736 4.30658 4.6195 4.3164C5.15849 4.33396 5.68978 4.19797 6.23367 4.26485C6.47206 4.29416 6.70755 4.10552 6.96325 4.11245C7.31157 4.12191 7.6616 4.08488 8.00769 4.12213C8.15951 4.13555 8.31182 4.12681 8.46142 4.09609C9.11914 3.97815 9.78568 4.01666 10.445 3.95343C10.7518 3.92398 11.0878 4.03542 11.3726 3.79159C11.4073 3.76187 11.439 3.84742 11.5008 3.84822C12.1191 3.85617 12.7345 3.75977 13.3484 3.76731C13.7271 3.77198 14.1074 3.69646 14.4864 3.76883C14.5399 3.78013 14.5947 3.77415 14.6453 3.75148C14.8669 3.65739 15.0817 3.56502 15.33 3.6978C15.475 3.77532 15.6402 3.5934 15.7823 3.61895C15.976 3.6538 16.1875 3.44689 16.3801 3.71442C16.4251 3.77702 16.6421 3.6337 16.7829 3.61706C17.2399 3.56306 17.696 3.40904 18.158 3.56676C18.3251 3.62378 18.4373 3.46395 18.5916 3.46367C18.7678 3.46346 18.9354 3.61212 19.1149 3.50912C19.1465 3.491 19.1945 3.51171 19.2236 3.49106C19.4928 3.30059 19.8277 3.27138 20.0817 3.3458C20.5038 3.46946 20.9112 3.40828 21.3053 3.3577C22.2074 3.24198 23.1287 3.3851 24.0146 3.10118C24.1544 3.05637 24.2646 3.15397 24.3856 3.16928C24.9753 3.24386 25.5541 3.11298 26.137 3.10316C26.7176 3.09335 27.3038 3.07849 27.8863 3.0199C28.4922 2.95897 29.101 2.92946 29.7123 2.92733C30.1929 2.92567 30.6815 2.93625 31.1557 2.88123C31.7426 2.81316 32.3337 2.81863 32.9173 2.79541C33.4867 2.77276 34.0591 2.69699 34.6369 2.74079C35.2115 2.78441 35.7905 2.70716 36.3676 2.65714C36.758 2.62339 37.1694 2.67668 37.5636 2.6432C38.1914 2.58969 38.8214 2.64872 39.449 2.55842C39.8593 2.49936 40.2801 2.6196 40.7006 2.5864C41.2899 2.5399 41.8826 2.54556 42.4739 2.52906C42.4832 2.53018 42.4925 2.53067 42.5018 2.53052C42.7062 2.49544 42.8764 2.35665 43.1257 2.47166C43.3505 2.5753 43.6378 2.45649 43.8978 2.45541C44.1525 2.45437 44.4089 2.46558 44.6626 2.46476C45.4439 2.46223 46.2263 2.35512 47.0049 2.40419C47.5542 2.43889 48.1013 2.25283 48.6509 2.43978C48.7721 2.48102 48.9174 2.41492 49.0508 2.39244C49.4492 2.32538 49.8463 2.32108 50.2407 2.44657C50.3462 2.48013 50.2936 2.28777 50.4309 2.29261C50.7792 2.30491 51.1263 2.36697 51.4734 2.35588C51.6497 2.35026 51.8348 2.3626 52.0017 2.32128C52.3722 2.22966 52.7434 2.35904 53.1094 2.28609C53.2055 2.26694 53.3193 2.51873 53.3808 2.19405C53.4488 2.37301 53.3543 2.5552 53.4971 2.61178C53.6391 2.66806 53.6502 2.49562 53.7003 2.39708C53.7388 2.32127 53.7994 2.28583 53.8672 2.30891C54.2151 2.42728 54.5654 2.30247 54.9153 2.34384C55.0079 2.35479 55.04 2.37117 55.0741 2.46269C55.0854 2.49313 55.1485 2.52767 55.1688 2.51505C55.2429 2.4691 55.16 2.4332 55.1508 2.39179C55.1371 2.32974 55.1684 2.29263 55.2021 2.29782C55.4868 2.34126 55.7801 2.16106 56.0322 2.23763C56.3452 2.33277 56.595 2.29914 56.8566 2.12445C56.8645 2.11836 56.8734 2.11441 56.8828 2.11285C56.8921 2.1113 56.9016 2.11218 56.9107 2.11543C56.9198 2.11869 56.9283 2.12425 56.9356 2.13175C56.9429 2.13925 56.9488 2.14852 56.953 2.15896C56.9946 2.26151 56.8488 2.24269 56.8763 2.35366C56.9937 2.3665 57.1335 2.30028 57.2254 2.46828C57.256 2.52425 57.3356 2.49813 57.3516 2.46626C57.4543 2.26054 57.6064 2.39258 57.7325 2.36096C58.1983 2.24427 58.6544 2.32712 59.1186 2.35216C59.3636 2.36538 59.6306 2.29023 59.881 2.31846C60.2322 2.3582 60.5899 2.20899 60.9387 2.42415C61.12 2.53597 61.2986 2.33879 61.484 2.3062C61.7321 2.2628 61.9221 2.45129 62.1465 2.49007C62.3193 2.52005 62.4599 2.81051 62.6685 2.48361C62.7604 2.33963 63.0154 2.19027 63.2415 2.4191C63.3092 2.4877 63.446 2.55261 63.5611 2.44413C63.7585 2.25825 63.9819 2.3945 64.1777 2.43557C64.5534 2.51445 64.9449 2.19026 65.3001 2.52775C65.393 2.61607 65.4046 2.4724 65.4606 2.47609C65.5341 2.48091 65.6633 2.31576 65.659 2.57879C65.6581 2.63552 65.7251 2.66589 65.7699 2.62259C66.0278 2.37353 66.3108 2.42216 66.6139 2.47263C66.736 2.49296 66.8752 2.47141 67.0104 2.48639C67.0956 2.49584 67.1715 2.44903 67.2064 2.58566C67.2306 2.68081 67.314 2.67373 67.3452 2.65143C67.7145 2.38734 68.1165 2.59095 68.5005 2.55201C68.8785 2.51369 69.2638 2.57699 69.6457 2.58056C69.9759 2.58362 70.3099 2.67671 70.6381 2.51671C70.6767 2.49784 70.8294 2.66084 70.946 2.64165C71.2787 2.5869 71.618 2.6392 71.945 2.65441C72.2513 2.66868 72.5469 2.67804 72.8476 2.61941C72.8926 2.61062 72.9487 2.67148 72.9979 2.70397C73.0757 2.75523 73.1751 2.80304 73.2338 2.72908C73.3413 2.59362 73.4328 2.67335 73.5517 2.68679C74.1542 2.75763 74.759 2.78758 75.3633 2.77649C75.6705 2.76954 75.9934 2.82833 76.3116 2.81244C76.6774 2.79419 77.0408 2.86468 77.4136 2.80052C77.5668 2.77412 77.7941 2.91004 77.9886 2.88883C78.6886 2.81248 79.3915 2.898 80.0889 2.92225C80.8707 2.94947 81.66 2.89867 82.4407 3.05471C82.506 3.06777 82.5988 3.05698 82.6029 2.94001C82.6053 2.87161 82.53 2.78199 82.6495 2.77225C82.7237 2.76608 82.8142 2.76466 82.821 2.88963C82.8313 3.08233 82.9434 3.06635 83.0421 3.06882C84.2226 3.09827 85.4016 3.1778 86.5794 3.29195C86.7162 3.30521 86.8611 3.20689 86.9868 3.35138C87.0601 3.04539 87.1551 3.42682 87.2497 3.34326C87.3492 3.25541 87.5057 3.34509 87.5928 3.27554C87.7662 3.13728 87.7697 3.41143 87.8836 3.41655C88.1286 3.42751 88.3727 3.47787 88.6178 3.49317C88.7446 3.50111 88.8726 3.46857 89 3.45431L88.9939 3.46375C89.0192 3.26791 88.9056 3.20432 88.7936 3.22522C88.586 3.26388 88.3963 3.16676 88.198 3.14826C87.9191 3.12222 87.6382 3.11574 87.3604 3.11133C87.2253 3.10916 87.0158 3.0343 86.8483 2.95805C86.7001 2.89055 86.5202 3.06897 86.386 2.85564C86.3713 2.83219 86.2787 2.85992 86.2595 2.94408C86.2516 2.97939 86.2519 3.06017 86.2067 3.01772C85.9303 2.75815 85.5938 2.85067 85.2888 2.76512C85.0177 2.68905 84.6548 2.56164 84.4678 2.71026C84.1539 2.95957 84.0029 2.65288 83.7801 2.59794C83.6082 2.55731 83.4339 2.53621 83.2594 2.53489C82.7499 2.52676 82.2424 2.50478 81.7338 2.43833C81.3214 2.38445 80.904 2.39604 80.4888 2.37923C79.9518 2.35751 79.4144 2.34761 78.8778 2.31232C78.1555 2.26481 77.433 2.1518 76.7122 2.15805C76.3242 2.1614 75.9353 2.08257 75.5422 2.15904C75.306 2.20496 75.0485 2.108 74.8016 2.06523C74.5649 2.02421 74.328 2.05861 74.0919 2.05094C73.6693 2.03723 73.2406 2.05653 72.8227 2.02911C72.4441 2.00426 72.067 1.97677 71.686 1.96305C71.0351 1.93973 70.3814 1.91099 69.733 1.85549C69.0894 1.80031 68.4455 1.74685 67.7907 1.7312C67.7563 1.81068 67.8538 1.80655 67.8685 1.85176C67.8971 1.93977 67.841 2.00834 67.7766 2.02418C67.704 2.04206 67.6926 1.97827 67.6964 1.89508C67.7095 1.60645 67.5999 1.59243 67.4065 1.67593C67.1431 1.78966 66.8624 1.68979 66.5895 1.69986C66.1669 1.71544 65.7497 1.5393 65.3169 1.63602C65.1628 1.67046 64.9801 1.5943 64.8092 1.57743C64.5774 1.55451 64.3426 1.56721 64.1099 1.53889C63.8434 1.50637 63.5574 1.47167 63.2952 1.50392C62.4944 1.60249 61.7014 1.35733 60.9105 1.42175C60.3923 1.46398 59.8786 1.39829 59.3623 1.41746C58.8269 1.43734 58.2847 1.3525 57.7461 1.38629C57.4699 1.40362 57.1846 1.27979 56.938 1.33036C56.661 1.3872 56.3949 1.29863 56.1323 1.35753C55.7119 1.45178 55.2896 1.23133 54.8768 1.35384C54.6724 1.41453 54.4918 1.4737 54.3157 1.27447C54.2856 1.24038 54.2153 1.21073 54.1876 1.23001C53.8525 1.46336 53.4809 1.25746 53.1365 1.35121C52.9598 1.39934 52.795 1.20837 52.6261 1.30201C52.3271 1.46781 52.0127 1.31937 51.7104 1.37556C51.4509 1.42378 51.1684 1.19316 50.9281 1.46003C50.1353 1.23012 49.3361 1.46338 48.5447 1.3686C48.0607 1.31071 47.5937 1.44042 47.1159 1.41214C45.9718 1.34438 44.8299 1.43699 43.6871 1.43362C43.0512 1.43172 42.4131 1.4346 41.7784 1.44564C41.1647 1.45628 40.5474 1.45468 39.9321 1.50546C39.6025 1.53268 39.2668 1.48316 38.935 1.56881C38.8184 1.59891 38.7014 1.49811 38.5665 1.49354C38.2607 1.48332 37.9611 1.57994 37.6455 1.49084C37.3969 1.42057 37.1306 1.56609 36.8606 1.52999C36.7319 1.51279 36.5819 1.51719 36.4862 1.44465C36.2866 1.29319 36.1938 1.36717 36.1338 1.60801C35.9153 1.33561 35.7574 1.33915 35.5223 1.58046C35.4091 1.6967 35.2372 1.46907 35.1246 1.65276C34.9982 1.49401 34.8477 1.69559 34.7396 1.62591C34.4487 1.4382 34.069 1.62395 33.8166 1.25313C33.7664 1.17948 33.6192 1.3261 33.5166 1.37034C33.304 1.46194 33.1503 1.77536 32.8713 1.61589C32.7352 1.87497 32.5445 1.58404 32.3761 1.69377C32.4354 1.5781 32.4539 1.35371 32.4114 1.39193C32.2028 1.57955 32.0906 1.23804 31.9125 1.31559C32.0695 1.37732 32.0583 1.51964 31.9924 1.63573C31.9168 1.76894 31.8223 1.67048 31.7572 1.59522C31.6168 1.4329 31.5353 1.62653 31.4495 1.67787C31.3251 1.75238 31.2234 1.65068 31.1248 1.63571C31.0391 1.62268 31.1925 1.49578 31.1941 1.35745C31.1072 1.43913 31.045 1.5442 30.9231 1.43598C30.7398 1.27335 30.497 1.32115 30.2903 1.28598C30.1109 1.25546 29.9271 1.49181 29.9141 1.79137C30.0649 1.55248 30.2454 1.42117 30.5383 1.52626C30.3265 1.71397 30.1402 1.82427 29.914 1.7901C29.6736 1.80571 29.6977 1.43426 29.5127 1.31671C29.4945 1.49482 29.5998 1.52717 29.6369 1.61536C29.7038 1.77445 29.5535 1.76104 29.5467 1.8492C29.4307 1.67659 29.3258 1.88025 29.2082 1.86025C29.034 1.83068 28.8716 1.83959 29.0051 1.53511C29.0464 1.44095 29.0369 1.3277 28.9674 1.25785C28.844 1.13372 28.8978 1.37156 28.8455 1.35986C28.7335 1.33483 28.6313 1.50418 28.5104 1.36035C28.4559 1.29554 27.9796 1.51582 27.947 1.60121C27.8581 1.83407 27.6441 1.86705 27.5018 1.66913C27.4482 1.5947 27.4002 1.60724 27.3315 1.64945C27.2297 1.71215 27.1164 1.74737 26.9735 1.80922C27.0142 1.68854 27.0499 1.61627 27.0612 1.53822C27.066 1.50395 27.061 1.46854 27.0471 1.43792C27.0331 1.40729 27.0111 1.38331 26.9847 1.37C26.9112 1.32767 26.9179 1.42168 26.8957 1.45522C26.8012 1.59801 26.6563 1.62082 26.5659 1.52741C26.4333 1.39049 26.3153 1.49748 26.1955 1.48967C26.0023 1.47703 26.2037 1.66898 26.1116 1.75127C26.0221 1.68355 26.0075 1.4636 25.8409 1.4931C25.8898 1.56708 25.939 1.63224 25.9789 1.70499C26.0071 1.75641 25.9953 1.85697 25.9589 1.84683C25.7494 1.78855 25.5011 2.10458 25.3196 1.72189C25.2654 1.6077 25.1504 1.48071 25.0336 1.70881C24.9396 1.89237 24.853 1.69543 24.798 1.62896C24.7305 1.54733 24.659 1.47855 24.5852 1.53115C24.5122 1.58317 24.5679 1.69646 24.5829 1.78223C24.6104 1.94035 24.6115 1.94013 24.4444 1.91424C24.4367 1.91194 24.4288 1.91136 24.421 1.91252C24.3372 1.93937 24.2325 2.11745 24.1772 1.90686C24.1421 1.77362 24.3247 1.81353 24.3652 1.69888C24.2424 1.67644 24.121 1.65214 23.9992 1.63261C23.898 1.61637 23.7639 1.4998 23.7451 1.75207C23.744 1.76357 23.7403 1.77441 23.7345 1.78346C23.7287 1.79251 23.721 1.79943 23.7122 1.80347C23.7033 1.80751 23.6938 1.80853 23.6844 1.80641C23.6751 1.8043 23.6664 1.79913 23.6592 1.79146C23.5437 1.65211 23.4014 1.84372 23.2616 1.70145C23.0902 1.52706 22.876 1.75055 22.6738 1.71794C22.5405 1.69642 22.3716 1.92561 22.2802 1.61576C22.2761 1.60179 22.194 1.59434 22.1786 1.61621C22.028 1.82973 21.8327 1.75439 21.6444 1.75108C21.5088 1.74868 21.3684 1.77422 21.5353 2.04473C21.34 1.96612 21.222 1.74345 21.037 1.88031C21.0873 1.9831 21.1879 1.9373 21.2672 1.99292C21.1053 2.19126 20.8468 1.91149 20.7044 2.23052C20.7169 1.8986 20.5663 1.78195 20.347 1.85276C20.2233 1.89266 20.059 1.81728 20.1215 2.11353C20.1376 2.18997 19.99 2.19493 19.9199 2.22462C19.8648 2.24792 19.7923 2.18824 19.8192 2.0757C19.852 1.9379 19.8133 1.9028 19.7114 1.96452C19.6662 1.99186 19.6169 2.00136 19.5805 1.95962C19.3775 1.72671 19.2391 1.89444 19.1209 2.07543C19.0345 2.20767 19.0074 2.21738 18.9019 2.07591C18.754 1.87745 18.5404 1.86461 18.3263 1.93641C18.3482 2.03223 18.5045 2.01427 18.4424 2.16498C18.3837 2.30734 18.3184 2.16938 18.2573 2.17556C18.2212 2.18119 18.1862 2.19448 18.1539 2.21485C17.9219 2.34844 17.7002 2.2297 17.4801 2.15441C17.3083 2.09568 17.1702 2.32987 16.9776 2.20504C16.9358 2.17795 16.7831 2.41952 16.759 2.11758C16.605 2.29061 16.4188 2.07903 16.2533 2.17466C16.1182 2.25274 15.9816 2.2598 15.8255 2.18428C15.6047 2.07742 15.5818 2.11293 15.5133 2.47834C15.4833 2.33003 15.232 2.40752 15.3983 2.16546C15.2593 2.11278 15.1113 2.11227 14.9733 2.16399C14.7533 2.2465 14.5176 2.24937 14.2943 2.17224C14.261 2.16052 14.2294 2.14116 14.197 2.12535C14.1433 2.49621 13.839 2.24662 13.704 2.41782C13.692 2.43557 13.6748 2.44685 13.656 2.4493C13.6372 2.45174 13.6183 2.44518 13.6032 2.43096C13.4393 2.2809 13.3778 2.27986 13.1989 2.4668C13.1354 2.53327 13.0607 2.57709 13.0016 2.52486C12.9249 2.45695 13.1058 2.4429 13.0461 2.35138C12.7802 2.50493 12.7802 2.50493 12.6736 2.29461C12.641 2.46519 12.6466 2.73583 12.4371 2.46711C12.3677 2.37818 12.3374 2.36821 12.3556 2.53148C12.3692 2.65387 12.2629 2.60596 12.2295 2.54715C12.0875 2.29687 11.9017 2.28752 11.6913 2.36499C11.6816 2.5093 11.9259 2.38168 11.8392 2.54791C11.7845 2.65274 11.5742 2.64852 11.5468 2.56231C11.4796 2.3508 11.3663 2.44334 11.2658 2.42576C11.2073 2.4155 11.1212 2.45531 11.1081 2.3377C11.0993 2.2588 11.0552 2.2238 11.0266 2.2735C10.8679 2.549 10.588 2.38482 10.3949 2.53767C10.328 2.59063 10.2803 2.59251 10.2641 2.42157C10.2479 2.25062 10.1042 2.446 10.0254 2.3995C9.94937 2.56252 10.1819 2.46829 10.1089 2.57693C10.0638 2.6441 9.97956 2.71825 9.87535 2.62366C9.75864 2.51773 9.67176 2.33284 9.47901 2.58565C9.33484 2.77473 9.52439 2.39812 9.35779 2.43683C9.27953 2.54736 9.27242 2.7465 9.13916 2.8794C9.1721 2.75007 8.96381 2.7266 9.07589 2.54863C9.12617 2.46883 9.03789 2.47545 9.00279 2.46817C8.82683 2.43176 8.6496 2.47389 8.49583 2.54924C8.31292 2.6389 8.08014 2.59418 7.94721 2.82577C7.74053 2.5378 7.54868 2.88717 7.35032 2.83479C7.21733 2.79975 7.09372 2.79865 6.96861 2.86257C6.85445 2.92089 6.77833 2.89523 6.78447 2.71491C6.78814 2.60664 6.70913 2.62384 6.67074 2.63202C6.47805 2.67301 6.29025 2.7305 6.10044 2.59212C6.05884 2.56181 5.96177 2.63662 5.97125 2.68077C6.02453 2.92852 5.83551 2.81768 5.77682 2.89253C5.66015 2.90316 5.53924 2.94554 5.43592 2.82901Z" fill="#97E14D"/>
</svg>
