<svg xmlns="http://www.w3.org/2000/svg" xmlns:xlink="http://www.w3.org/1999/xlink" width="400" height="114" viewBox="0 0 400 114">
  <defs>
    <clipPath id="clip-Web_1920_1">
      <rect width="400" height="114"/>
    </clipPath>
  </defs>
  <g id="Web_1920_1" data-name="Web 1920 – 1" clip-path="url(#clip-Web_1920_1)">
    <g id="hotel-and-resort-client-01" transform="translate(0.999 15.424)">
      <path id="Path_1" data-name="Path 1" d="M796.407,151.3v-5.442h-8.344v32.377h8.344V158.822c0-3.516,2.255-5.242,5.77-5.242h4.567v-7.721h-3.9A6.15,6.15,0,0,0,796.407,151.3Zm18.153-18.248a5.076,5.076,0,1,0,5.042,5.109A5.012,5.012,0,0,0,814.56,133.053ZM810.4,178.236h8.325V145.859H810.4Zm47.98-16.189a16.735,16.735,0,0,1-16.735,16.736,16.1,16.1,0,0,1-9.823-3.287v12.245h-8.325V145.859h8.325v2.74a16.1,16.1,0,0,1,9.823-3.287A16.735,16.735,0,0,1,858.378,162.047Zm-8.377,0a9.091,9.091,0,1,0-9.091,9.091A9.093,9.093,0,0,0,850,162.047Zm153.069-2.84-4.857-1.332c-3.2-.833-4.438-1.812-4.438-3.5,0-1.646,1.75-2.8,4.253-2.8,2.383,0,4.253,1.56,4.253,3.558v.185h7.673v-.185c0-5.875-4.79-9.824-11.926-9.824-7.064,0-12.2,3.944-12.2,9.381,0,4.229,2.8,7.416,7.692,8.739l4.653,1.27c3.534.98,4.847,2.065,4.847,4.01,0,2.05-1.9,3.43-4.724,3.43-2.945,0-4.928-1.865-4.928-4.633v-.186h-8.144v.186c0,6.641,5.347,11.284,13.006,11.284,7.378,0,12.735-4.533,12.735-10.775C1010.967,164.954,1009.6,160.949,1003.07,159.208ZM887.91,145.859h8.325v32.377H887.91V175.5a16.1,16.1,0,0,1-9.823,3.287,16.736,16.736,0,0,1,0-33.471,16.1,16.1,0,0,1,9.823,3.287Zm0,16.188a9.091,9.091,0,1,0-9.091,9.091A9.09,9.09,0,0,0,887.91,162.047Zm38.385-27.71h8.325v43.9H926.3V175.5a16.1,16.1,0,0,1-9.823,3.287,16.736,16.736,0,1,1,0-33.471A16.1,16.1,0,0,1,926.3,148.6Zm0,27.71a9.091,9.091,0,1,0-9.091,9.091A9.094,9.094,0,0,0,926.3,162.047Zm46.976,16.189H981.6V145.859h-8.325Zm4.162-45.183a5.076,5.076,0,1,0,5.043,5.109A5.012,5.012,0,0,0,977.434,133.053Zm69.516,28.994a16.736,16.736,0,1,1-16.736-16.735A16.735,16.735,0,0,1,1046.949,162.047Zm-7.645,0a9.091,9.091,0,1,0-9.091,9.091A9.094,9.094,0,0,0,1039.3,162.047Zm-247.161-27.71H760.21v7.426h11.821v36.473h8.3V141.763h11.821v-7.426Zm161.5,35.031-7.407-23.509h-8.744L948.6,178.236h10.018l11.174-32.377h-8.744Zm105.5-18.067v-5.442H1050.8v32.377h8.344V158.822c0-3.516,2.255-5.242,5.77-5.242h4.567v-7.721h-3.9a6.153,6.153,0,0,0-6.436,5.442Z" transform="translate(-671.482 -117.396)"/>
      <ellipse id="Ellipse_1" data-name="Ellipse 1" cx="42.576" cy="42.363" rx="42.576" ry="42.363" transform="translate(0.001 0)" fill="#34e0a1"/>
      <path id="Path_2" data-name="Path 2" d="M151.155,200.412l5.138-5.59H144.9a35.6,35.6,0,0,0-40.045,0H93.432l5.138,5.59a15.7,15.7,0,1,0,21.255,23.124l5.033,5.48,5.033-5.475a15.709,15.709,0,1,0,21.264-23.129Zm-42,22.235a10.627,10.627,0,1,1,10.627-10.627A10.626,10.626,0,0,1,109.154,222.647Zm15.708-10.937c0-6.993-5.085-13-11.8-15.561a30.661,30.661,0,0,1,23.59,0C129.948,198.718,124.862,204.717,124.862,211.71Zm15.7,10.937a10.627,10.627,0,1,1,10.627-10.627A10.626,10.626,0,0,1,140.565,222.647Zm0-16.2a5.571,5.571,0,1,0,5.571,5.571A5.569,5.569,0,0,0,140.565,206.444Zm-25.841,5.575a5.571,5.571,0,1,1-5.571-5.571A5.569,5.569,0,0,1,114.725,212.019Z" transform="translate(-82.28 -166.356)"/>
    </g>
  </g>
</svg>
