<svg id="icons" xmlns="http://www.w3.org/2000/svg" viewBox="0 0 64 64"><defs><style>.cls-1{fill:none;stroke:#c19e62;stroke-linecap:round;stroke-linejoin:round;stroke-width:2px;}</style></defs><title>42</title><g id="police_car"><path class="cls-1" d="M54.86879,51.09629l-.276.0433a146.49638,146.49638,0,0,1-45.40806,0l-.276-.0433A1.84459,1.84459,0,0,1,7.40384,49.337V36.17816a1.78085,1.78085,0,0,1,1.78085-1.78085h45.4081a1.78085,1.78085,0,0,1,1.78085,1.78085V49.337A1.84459,1.84459,0,0,1,54.86879,51.09629Z"/><path class="cls-1" d="M18.76468,52.32057v5.11658A1.78085,1.78085,0,0,1,16.98383,59.218h-3.347A1.78085,1.78085,0,0,1,11.856,57.43715V51.53338"/><path class="cls-1" d="M45.0128,52.32057v5.11658A1.78085,1.78085,0,0,0,46.79365,59.218h3.347a1.78084,1.78084,0,0,0,1.78084-1.78085V51.53338"/><line class="cls-1" x1="22.98121" y1="40.19912" x2="40.88803" y2="40.19912"/><line class="cls-1" x1="22.98121" y1="43.65346" x2="40.88803" y2="43.65346"/><line class="cls-1" x1="22.98121" y1="47.10781" x2="40.88803" y2="47.10781"/><path class="cls-1" d="M54.60027,34.39731,50.01436,22.51973a6.233,6.233,0,0,0-5.81462-3.98795H19.58521a6.233,6.233,0,0,0-5.81462,3.98795L9.18469,34.39731H6.67811A2.67807,2.67807,0,0,1,4,31.71924H4a2.67807,2.67807,0,0,1,2.67807-2.67807h4.57457"/><path class="cls-1" d="M52.74732,29.04117l2.068,5.35614h2.50658A2.67807,2.67807,0,0,0,60,31.71924h0a2.67807,2.67807,0,0,0-2.67807-2.67807Z"/><path class="cls-1" d="M25.11081,10.62667H38.75843a3,3,0,0,1,3,3v1.21021a0,0,0,0,1,0,0H22.11081a0,0,0,0,1,0,0V13.62667A3,3,0,0,1,25.11081,10.62667Z"/><circle class="cls-1" cx="15.31033" cy="43.65346" r="3.47017"/><circle class="cls-1" cx="48.46715" cy="43.65346" r="3.47017"/><line class="cls-1" x1="20.32995" y1="4.782" x2="22.11081" y2="7.60212"/><line class="cls-1" x1="27.13483" y1="4.782" x2="27.13483" y2="7.60212"/><line class="cls-1" x1="31.93462" y1="4.782" x2="31.93462" y2="7.60212"/><line class="cls-1" x1="36.73441" y1="4.782" x2="36.73441" y2="7.60212"/><line class="cls-1" x1="43.53929" y1="4.782" x2="41.75843" y2="7.60212"/></g></svg>