<?xml version="1.0" standalone="no"?>
<!DOCTYPE svg PUBLIC "-//W3C//DTD SVG 20010904//EN"
 "http://www.w3.org/TR/2001/REC-SVG-20010904/DTD/svg10.dtd">
<svg version="1.0" xmlns="http://www.w3.org/2000/svg"
 width="512.000000pt" height="512.000000pt" viewBox="0 0 512.000000 512.000000"
 preserveAspectRatio="xMidYMid meet">

<g transform="translate(0.000000,512.000000) scale(0.100000,-0.100000)"
fill="#BD3723" stroke="none">
<path d="M2124 5104 c-45 -22 -54 -51 -54 -174 l0 -110 -360 0 c-398 0 -398 0
-419 -62 -6 -17 -11 -98 -11 -179 l0 -148 -365 -3 -365 -3 -27 -28 -28 -27 -3
-560 -3 -559 -213 -3 c-190 -3 -216 -5 -234 -21 -49 -45 -59 31 207 -1614 175
-1085 254 -1551 265 -1568 10 -14 28 -30 42 -35 34 -13 3974 -13 4008 0 14 5
32 21 42 35 11 17 90 483 265 1568 266 1645 256 1569 207 1614 -18 16 -44 18
-234 21 l-213 3 -3 559 -3 560 -28 27 -27 28 -365 3 -365 3 0 148 c0 81 -5
162 -11 179 -21 62 -21 62 -419 62 l-360 0 0 110 c0 124 -9 153 -55 175 -49
23 -824 22 -871 -1z m734 -1505 l2 -1326 -31 -7 c-41 -8 -497 -8 -538 0 l-31
7 0 1322 c0 727 3 1325 7 1328 4 4 137 6 297 5 l291 -3 3 -1326z m-788 -124
c0 -917 -3 -1155 -12 -1155 -7 0 -37 12 -67 25 -196 92 -372 280 -454 487 -61
151 -60 133 -64 986 -2 431 -2 790 1 798 4 12 56 14 301 14 l295 0 0 -1155z
m1575 365 c0 -867 1 -852 -65 -1016 -81 -202 -257 -388 -453 -480 -29 -13 -58
-24 -64 -24 -10 0 -13 238 -13 1155 l0 1155 298 -2 297 -3 0 -785z m-2365 -95
l0 -495 -295 0 -295 0 0 495 0 495 295 0 295 0 0 -495z m3150 0 l0 -495 -295
0 -295 0 0 495 0 495 295 0 295 0 0 -495z m-3132 -771 c64 -412 381 -758 797
-871 l100 -27 365 0 365 0 100 27 c416 113 733 459 797 871 l12 76 538 0 538
0 -5 -22 c-3 -13 -106 -651 -230 -1418 -124 -767 -227 -1401 -230 -1407 -7
-19 -3763 -19 -3771 0 -9 23 -32 182 -27 190 2 4 131 7 286 7 313 0 316 1 337
64 12 39 3 71 -30 101 -21 19 -38 20 -325 23 l-304 3 -5 27 c-3 15 -91 558
-196 1207 -104 649 -192 1190 -195 1203 l-5 22 538 0 538 0 12 -76z"/>
<path d="M2411 1750 c-159 -42 -303 -158 -374 -301 -85 -174 -87 -350 -4 -524
141 -294 499 -415 792 -268 157 79 272 232 310 408 18 88 19 152 0 239 -69
325 -402 530 -724 446z m209 -181 c257 -41 405 -317 296 -554 -33 -72 -119
-158 -193 -193 -52 -24 -70 -27 -163 -27 -93 0 -111 3 -163 27 -115 54 -210
180 -226 303 -28 207 118 410 319 444 30 5 57 9 60 10 3 0 34 -4 70 -10z"/>
<path d="M1429 575 c-55 -30 -62 -116 -12 -155 62 -49 153 -7 153 71 0 73 -78
120 -141 84z"/>
</g>
</svg>
