<svg xmlns="http://www.w3.org/2000/svg" width="581.651" height="451.782" viewBox="0 0 581.651 451.782">
  <g id="demo-seo-agency-icon-01" transform="translate(0 454.838)">
    <path id="Path_1" data-name="Path 1" d="M261.856-453.772c-22.721,2.954-48.4,10.679-70.548,21.471-16.473,7.952-20.9,11.36-20.9,16.018,0,3.749,4.317,8.975,7.5,8.975,1.022,0,7.952-3.067,15.45-6.93,13.064-6.589,29.764-13.519,36.58-15.109,3.067-.8,2.84-.341-3.295,6.362-11.36,12.5-26.129,36.694-33.967,55.666l-1.7,4.317h-30.1c-16.7,0-30.219-.341-30.219-.682,0-.454,5.68-6.475,12.5-13.519,7.043-7.157,12.5-13.746,12.5-15,0-5.112-6.7-10.224-11.36-8.52-3.295,1.25-21.812,19.653-29.764,29.651-15,18.745-27.151,39.761-34.876,60.437l-4.544,11.815-35.331.568-35.444.568-2.158,2.726c-2.045,2.5-2.158,5.339-2.158,66s.114,63.5,2.158,66l2.158,2.727,35.444.568,35.444.568L78.5-150c16.813,46.123,52.485,89.065,95.881,115.308A230.326,230.326,0,0,0,265.151-3.9c14.428,1.7,51.349.682,64.3-1.7,48.963-9.2,89.065-30.446,122.692-64.981,23.97-24.652,40.329-50.1,51.122-79.977l3.181-8.52,35.444-.568,35.444-.568,2.158-2.727c2.045-2.5,2.158-5.339,2.158-66.231v-63.5l-2.84-2.726c-2.613-2.727-3.408-2.84-16.927-2.84-7.725,0-15,.341-16.018.682-2.954,1.136-5.112,7.157-3.862,10.565,1.818,4.658,4.317,5.68,13.86,5.794h8.747v104.515H460.095V-281.208H486.11c24.538,0,26.129-.114,28.969-2.386,6.021-4.771,3.067-13.292-5.112-14.655-3.181-.568-3.863-1.363-6.7-9.088-10.679-29.537-27.151-55.211-50.554-79.409-36.694-37.83-82.363-60.551-134.62-67.026C306.843-455.249,273.217-455.136,261.856-453.772Zm19.881,53.28V-363H210.053l.682-2.613c1.363-4.544,12.042-23.857,18.063-32.6,7.384-10.679,22.153-25.561,30.787-30.673,5-2.954,18.972-8.747,21.926-9.088C281.623-437.982,281.737-421.168,281.737-400.492Zm35.217-31.241c12.724,6.475,26.47,19.54,37.262,35.444,5,7.384,15.45,26.7,16.7,30.673L371.6-363H299.914v-74.865l6.021,1.818A85.39,85.39,0,0,1,316.954-431.733Zm47.714,7.043c19.313,7.043,41.465,19.881,58.165,33.4,8.747,7.157,22.948,20.9,26.015,25.106L451.12-363H390.683l-1.7-4.317c-7.952-18.972-22.607-43.169-34.081-55.779C347.514-431.279,347.059-431.165,364.668-424.69Zm-180.63,79.636c0,.568-2.045,8.861-4.431,18.517-2.5,9.656-4.771,19.881-5.226,22.834l-.8,5.453H133.371c-22.153,0-40.216-.114-40.216-.341,0-2.954,14.2-32.263,19.994-41.465l3.863-5.907h33.513C168.929-345.963,184.038-345.508,184.038-345.054Zm97.7,22.948v23.857H236.3c-24.993,0-45.441-.341-45.441-.682,0-4.2,10.224-42.942,12.156-46.237.227-.454,18.063-.8,39.648-.8h39.08ZM380.8-339.146c1.931,5.567,7.5,27.719,9.429,37.148l.8,3.749h-91.11v-47.714l39.42.227,39.307.341Zm87.816-.568c6.021,9.429,19.881,38.057,19.881,41.124,0,.227-18.063.341-40.216.341H408.064l-.8-5.453c-.454-2.954-2.727-13.178-5.226-22.834-2.386-9.656-4.431-17.949-4.431-18.517,0-.454,15.109-.909,33.513-.909h33.4ZM443.054-228.951v52.258H291.28c-94.973,0-152.456.454-153.706,1.136a8.869,8.869,0,0,0-3.408,4.431c-1.136,2.727-1.136,3.863.341,6.7a10.864,10.864,0,0,0,3.522,4.09c1.022.341,9.429.682,18.745.682h16.813l.8,5.339c.454,3.067,2.727,13.292,5.226,22.948,2.386,9.656,4.431,17.949,4.431,18.517,0,.454-15.109.909-33.513.909h-33.4l-4.09-6.248c-6.021-9.429-19.881-38.057-19.881-41.125,0-.227,2.613-.341,5.907-.341,4.431,0,6.475-.568,8.52-2.5a7.9,7.9,0,0,0-.341-12.156c-2.954-2.272-4.2-2.386-46.577-2.386H17.041V-281.208H443.054ZM281.737-135.8v23.857l-39.42-.227-39.307-.341-2.158-6.248c-1.931-5.567-7.5-27.719-9.429-37.262l-.8-3.635h91.11Zm108.491-20.221c-1.931,9.543-7.5,31.7-9.429,37.262l-2.158,6.248-39.307.341-39.42.227v-47.714h91.11Zm98.267-3.295c0,3.067-13.86,31.7-19.881,41.125l-4.09,6.248h-33.4c-18.4,0-33.513-.454-33.513-.909,0-.568,2.045-8.861,4.431-18.517,2.5-9.656,4.771-19.881,5.226-22.948l.8-5.339H448.28C470.433-159.653,488.5-159.539,488.5-159.312ZM192.672-90.7c7.839,18.972,22.607,43.283,33.967,55.666,3.522,3.976,6.135,7.157,5.907,7.157-.341,0-5.112-1.59-10.679-3.522a215.342,215.342,0,0,1-58.051-31.355c-9.543-7.271-27.492-23.857-31.014-28.969L130.531-94.9h60.437Zm89.065,33.172v37.489l-5.907-1.7c-17.495-5.226-34.763-19.653-49.418-41.352-4.2-6.135-14.541-25.674-15.677-29.31l-.682-2.5h71.684ZM370.916-92.4c-1.136,3.635-11.474,23.175-15.677,29.31-14.655,21.7-31.923,36.126-49.3,41.352l-6.021,1.7V-94.9H371.6Zm76.91,1.7c-17.495,21.812-53.167,46.464-83.158,57.483-17.609,6.475-17.154,6.589-9.77-1.59,11.474-12.61,26.129-36.808,34.081-55.893l1.7-4.2h60.551Z" transform="translate(0 0)" fill="#2a2b3f"/>
    <path id="Path_2" data-name="Path 2" d="M445.113-284.022a34.251,34.251,0,0,0-17.041,11.133c-10.111,13.292-6.135,33.286,8.407,41.92,7.611,4.658,13.746,5.567,22.266,3.294l6.7-1.7,5.453,5.112c2.954,2.84,6.589,5.112,7.839,5.112,1.363,0,3.976-1.59,5.907-3.408,4.317-4.431,3.749-7.839-2.613-14.314l-4.544-4.544,1.818-6.816c2.158-8.52.8-16.359-4.317-23.97C468.743-281.181,455.224-286.634,445.113-284.022ZM456.587-266.3A11.785,11.785,0,0,1,460-247.555c-6.135,6.362-15.564,4.771-19.426-3.181a11.362,11.362,0,0,1,5.226-15.223C450.68-268.458,451.816-268.458,456.587-266.3Z" transform="translate(57.469 23.148)" fill="#2a2b3f"/>
  </g>
</svg>
