<?xml version="1.0" standalone="no"?>
<!DOCTYPE svg PUBLIC "-//W3C//DTD SVG 20010904//EN"
 "http://www.w3.org/TR/2001/REC-SVG-20010904/DTD/svg10.dtd">
<svg version="1.0" xmlns="http://www.w3.org/2000/svg"
 width="512.000000pt" height="420.000000pt" viewBox="0 0 512.000000 420.000000"
 preserveAspectRatio="xMidYMid meet">

<g transform="translate(0.000000,420.000000) scale(0.100000,-0.100000)"
fill="#BD3723" stroke="none">
<path d="M2306 4190 c-787 -58 -1410 -363 -1733 -848 -143 -214 -239 -489
-258 -737 -9 -119 -10 -120 -53 -133 -95 -29 -192 -123 -233 -229 -17 -44 -23
-79 -23 -143 0 -101 23 -167 84 -247 l40 -53 -40 -52 c-78 -102 -105 -224 -76
-338 32 -127 118 -229 232 -275 l59 -24 7 -77 c21 -225 117 -445 264 -603 182
-198 493 -341 856 -395 160 -24 387 -38 560 -34 157 3 158 3 185 31 38 38 38
96 0 134 l-27 28 -273 6 c-338 9 -465 24 -675 85 -405 117 -651 388 -696 766
l-6 48 413 0 412 0 147 -147 c141 -141 150 -148 188 -148 38 0 47 7 188 148
l147 147 565 0 565 0 147 -147 c199 -198 177 -198 376 0 l147 147 412 0 413 0
-7 -47 c-49 -382 -279 -640 -678 -762 -211 -64 -345 -81 -692 -90 l-273 -6
-27 -28 c-38 -38 -38 -96 0 -134 l28 -28 242 1 c260 0 393 12 583 49 606 121
961 465 1012 984 l7 73 46 17 c106 41 187 122 231 231 16 41 22 76 22 140 0
101 -23 167 -84 248 l-40 52 40 53 c78 101 105 223 76 337 -32 127 -127 238
-236 277 -57 20 -56 18 -65 137 -20 251 -115 523 -258 738 -303 454 -864 750
-1582 833 -162 19 -502 26 -659 15z m544 -200 c919 -84 1541 -502 1716 -1155
21 -80 53 -269 54 -317 0 -17 -105 -18 -2061 -18 l-2060 0 6 58 c23 206 67
367 145 523 190 386 574 673 1090 815 139 38 364 79 510 93 137 12 466 13 600
1z m1948 -1705 c49 -21 81 -52 103 -100 47 -101 4 -220 -96 -266 -39 -18 -123
-19 -2243 -19 -1966 0 -2207 2 -2240 15 -49 21 -81 52 -103 100 -47 101 -4
220 96 266 39 18 123 19 2243 19 1966 0 2207 -2 2240 -15z m-3873 -785 l200
-200 -383 0 c-411 0 -425 2 -481 53 -76 70 -80 208 -8 286 49 52 86 61 287 61
l185 0 200 -200z m1067 -132 l-332 -333 -332 333 -333 332 665 0 665 0 -333
-332z m1800 0 l-332 -333 -332 333 -333 332 665 0 665 0 -333 -332z m1013 313
c48 -22 79 -54 100 -103 41 -100 -3 -214 -100 -259 -37 -17 -72 -19 -425 -19
l-385 0 200 200 200 200 185 0 c158 0 191 -3 225 -19z m-2060 -201 l180 -180
-365 0 -365 0 180 180 c99 99 182 180 185 180 3 0 86 -81 185 -180z"/>
<path d="M1925 3791 c-37 -16 -60 -51 -60 -92 0 -38 8 -47 178 -216 170 -171
178 -178 217 -178 56 0 95 39 95 95 0 39 -7 47 -175 215 -179 179 -206 197
-255 176z"/>
<path d="M2825 3791 c-37 -16 -60 -51 -60 -92 0 -38 8 -47 178 -216 170 -171
178 -178 217 -178 56 0 95 39 95 95 0 39 -7 47 -175 215 -179 179 -206 197
-255 176z"/>
<path d="M1625 3191 c-11 -5 -96 -86 -190 -180 -163 -164 -170 -172 -170 -211
0 -56 39 -95 95 -95 39 0 47 7 217 178 171 170 178 178 178 217 0 66 -72 116
-130 91z"/>
<path d="M2675 3191 c-11 -5 -96 -86 -190 -180 -163 -164 -170 -172 -170 -211
0 -56 39 -95 95 -95 39 0 47 7 217 178 171 170 178 178 178 217 0 66 -72 116
-130 91z"/>
<path d="M3725 3191 c-11 -5 -96 -86 -190 -180 -163 -164 -170 -172 -170 -211
0 -56 39 -95 95 -95 39 0 47 7 217 178 171 170 178 178 178 217 0 66 -72 116
-130 91z"/>
<path d="M2525 191 c-64 -27 -81 -110 -32 -158 60 -61 162 -19 162 67 0 66
-72 116 -130 91z"/>
</g>
</svg>
