<svg xmlns="http://www.w3.org/2000/svg" viewBox="0 0 32 32"><g id="ruler"><path d="M7.71,2H4.29A2.3,2.3,0,0,0,2,4.29V27.71A2.3,2.3,0,0,0,4.29,30H7.71A2.3,2.3,0,0,0,10,27.71V4.29A2.3,2.3,0,0,0,7.71,2ZM8,27.71a.29.29,0,0,1-.29.29H4.29A.29.29,0,0,1,4,27.71V26H5a1,1,0,0,0,0-2H4V22H5a1,1,0,0,0,0-2H4V18H5a1,1,0,0,0,0-2H4V14H5a1,1,0,0,0,0-2H4V10H5A1,1,0,0,0,5,8H4V4.29A.29.29,0,0,1,4.29,4H7.71A.29.29,0,0,1,8,4.29Z"/><path d="M29.74,27.49,14,2.75a1.6,1.6,0,0,0-1.8-.69A1.63,1.63,0,0,0,11,3.63V28.37A1.62,1.62,0,0,0,12.61,30H28.39a1.62,1.62,0,0,0,1.41-.84A1.66,1.66,0,0,0,29.74,27.49ZM13,28V5L27.7,28Z"/><path d="M16.49,26h5a1.51,1.51,0,0,0,1.3-.78,1.55,1.55,0,0,0,0-1.57l-5-7.95a1.47,1.47,0,0,0-1.66-.64A1.5,1.5,0,0,0,15,16.52v8A1.51,1.51,0,0,0,16.49,26ZM17,18.26,20.62,24H17Z"/></g></svg>