<svg xmlns="http://www.w3.org/2000/svg" xmlns:xlink="http://www.w3.org/1999/xlink" width="45" height="47" viewBox="0 0 45 47">
  <defs>
    <clipPath id="clip-Custom_Size_1">
      <rect width="45" height="47"/>
    </clipPath>
  </defs>
  <g id="Custom_Size_1" data-name="Custom Size – 1" clip-path="url(#clip-Custom_Size_1)">
    <g id="_18" data-name="18" transform="translate(-1454.45 -1142.278)">
      <path id="_Path_" data-name="&lt;Path&gt;" d="M1466.5,1162.7c1.512,5.169,5.029,11.921,13.292,15.3q14.417,5.873,14.417,21.978" transform="translate(-2.01 -12.319)" fill="none" stroke="#16c1cc" stroke-linecap="square" stroke-width="2"/>
      <path id="_Path_2" data-name="&lt;Path&gt;" d="M1463.4,1143.7a20.454,20.454,0,0,0,.211,2.6" transform="translate(0)" fill="none" stroke="#16c1cc" stroke-linecap="square" stroke-width="2"/>
      <path id="_Path_3" data-name="&lt;Path&gt;" d="M1473.492,1212.7q-10.092,6.963-10.092,19.692" transform="translate(0 -44.737)" fill="none" stroke="#16c1cc" stroke-linecap="square" stroke-width="2"/>
      <path id="_Path_4" data-name="&lt;Path&gt;" d="M1526.174,1143.7q0,12.94-10.374,19.833" transform="translate(-33.974)" fill="none" stroke="#16c1cc" stroke-linecap="square" stroke-width="2"/>
      <path id="_Path_5" data-name="&lt;Path&gt;" d="M1517.734,1160.1H1506.2" transform="translate(-27.75 -10.633)" fill="none" stroke="#16c1cc" stroke-linecap="square" stroke-width="2"/>
      <path id="_Path_6" data-name="&lt;Path&gt;" d="M1515.835,1174.8H1506.2" transform="translate(-27.75 -20.164)" fill="none" stroke="#16c1cc" stroke-linecap="square" stroke-width="2"/>
      <path id="_Path_7" data-name="&lt;Path&gt;" d="M1513.268,1189.5H1506.2" transform="translate(-27.75 -29.695)" fill="none" stroke="#16c1cc" stroke-linecap="square" stroke-width="2"/>
      <path id="_Path_8" data-name="&lt;Path&gt;" d="M1469.7,1252.3h11.5" transform="translate(-4.085 -70.411)" fill="none" stroke="#16c1cc" stroke-linecap="square" stroke-width="2"/>
      <path id="_Path_9" data-name="&lt;Path&gt;" d="M1475,1237.6h9.635" transform="translate(-7.521 -60.881)" fill="none" stroke="#16c1cc" stroke-linecap="square" stroke-width="2"/>
      <path id="_Path_10" data-name="&lt;Path&gt;" d="M1482.4,1222.9h7.033" transform="translate(-12.319 -51.35)" fill="none" stroke="#16c1cc" stroke-linecap="square" stroke-width="2"/>
    </g>
  </g>
</svg>
