<svg width="559" height="25" viewBox="0 0 559 25" fill="none" xmlns="http://www.w3.org/2000/svg">
<path d="M558.952 11.5603C559.197 10.8846 558.334 10.9943 557.909 10.8191C556.234 10.1294 554.385 10.1851 552.636 9.8162C552.311 9.76413 551.98 9.75328 551.652 9.78394C551.078 9.81169 550.471 9.84065 549.891 9.49524C549.532 9.28155 549.531 10.0254 549.159 10.1651C549.269 10.3103 549.083 10.6521 549.408 10.615C550.745 10.462 552.035 10.7204 553.325 10.9788C554.51 11.2162 555.696 11.4537 556.918 11.3718C557.122 11.3581 557.339 11.4997 557.546 11.578C557.853 11.6932 558.222 11.9635 558.523 11.9523C558.697 11.9456 558.85 11.8436 558.952 11.5603ZM549.103 10.1419C549.246 9.23241 548.56 8.93988 547.878 9.04065C546.594 9.23029 545.432 8.76632 544.209 8.68072C542.49 8.56019 540.758 8.53378 539.044 8.51724C538.21 8.50914 536.924 8.15258 535.896 7.78862C535.546 7.6645 535.163 7.71614 534.779 7.76785C534.167 7.85043 533.55 7.93303 533.052 7.30345C532.962 7.19089 532.389 7.32586 532.264 7.73101C532.213 7.90098 532.208 8.28953 531.933 8.08611C530.247 6.84225 528.164 7.29296 526.289 6.88664C524.622 6.52531 522.393 5.91863 521.227 6.63665C519.271 7.84121 518.363 6.36854 516.992 6.10803C515.935 5.91556 514.862 5.81699 513.785 5.81359C510.642 5.78314 507.512 5.68585 504.379 5.37501C501.838 5.12281 499.262 5.18564 496.702 5.11183C493.39 5.01643 490.075 4.97791 486.767 4.81714C482.314 4.60087 477.864 4.06951 473.416 4.11196C471.022 4.1345 468.628 3.76137 466.196 4.13655C464.735 4.36142 463.154 3.89939 461.634 3.69786C460.177 3.50457 458.713 3.67406 457.256 3.64101C454.65 3.58224 452.003 3.68234 449.427 3.5575C447.092 3.44455 444.768 3.31858 442.418 3.25906C438.404 3.15792 434.372 3.03057 430.376 2.77478C426.409 2.52027 422.44 2.27403 418.401 2.20985C418.182 2.59274 418.784 2.5712 418.871 2.78845C419.041 3.21129 418.69 3.54209 418.291 3.61937C417.841 3.70676 417.776 3.39992 417.806 2.9997C417.91 1.61114 417.234 1.54556 416.035 1.95046C414.401 2.50201 412.676 2.0264 410.992 2.07957C408.383 2.16169 405.822 1.32152 403.144 1.79406C402.19 1.96237 401.07 1.59896 400.017 1.52084C398.588 1.41454 397.138 1.47961 395.704 1.34734C394.063 1.19541 392.301 1.03333 390.68 1.19293C388.078 1.44923 385.497 1.24862 382.924 1.04743C380.603 0.866084 378.289 0.684489 375.972 0.837973C372.772 1.05004 369.607 0.742604 366.42 0.843574C363.115 0.948391 359.776 0.54937 356.45 0.721031C355.685 0.737848 354.921 0.686814 354.167 0.568601C353.229 0.44893 352.314 0.328525 351.468 0.465698C350.619 0.603405 349.79 0.569847 348.971 0.535185C348.137 0.500256 347.315 0.464778 346.494 0.610179C345.251 0.830319 344.009 0.704376 342.773 0.578125C341.425 0.440469 340.082 0.302598 338.748 0.61373C337.482 0.909121 336.363 1.19669 335.292 0.241456C335.109 0.0780036 334.677 -0.0634408 334.505 0.0296469C333.265 0.700065 331.958 0.624445 330.654 0.548436C329.765 0.496784 328.875 0.445004 328.011 0.630309C327.512 0.737207 327.032 0.604808 326.558 0.472196C325.993 0.314171 325.436 0.1557 324.865 0.402285C323.74 0.888154 322.589 0.820073 321.442 0.752165C320.694 0.707776 319.947 0.663194 319.209 0.77186C318.633 0.856588 318.041 0.768576 317.449 0.680535C316.394 0.52336 315.339 0.36601 314.375 1.1913C311.522 0.551639 308.642 0.675831 305.766 0.799875C303.731 0.887664 301.698 0.97538 299.677 0.792194C298.057 0.645301 296.464 0.764613 294.875 0.883812C293.538 0.984031 292.203 1.08416 290.857 1.02584C283.803 0.71918 276.75 1.18413 269.699 1.1866C265.775 1.18826 261.838 1.21293 257.921 1.27679C254.133 1.33835 250.324 1.34112 246.524 1.59595C245.786 1.64538 245.043 1.64642 244.299 1.64739C242.99 1.64918 241.676 1.65131 240.367 1.91755C239.645 2.0643 238.931 1.58143 238.099 1.56174C237.412 1.557 236.725 1.58659 236.041 1.65036C234.848 1.74163 233.649 1.83292 232.416 1.5641C231.588 1.38317 230.723 1.50731 229.839 1.63211C229.092 1.73751 228.332 1.8434 227.57 1.76602C226.777 1.68544 225.851 1.70918 225.266 1.36172C224.047 0.636539 223.468 0.994014 223.079 2.1535C221.752 0.846925 220.778 0.866608 219.308 2.03135C218.986 2.28678 218.594 2.19939 218.195 2.1121C217.719 2.0078 217.234 1.90385 216.848 2.38589C216.41 1.95077 215.913 2.08178 215.445 2.21172C215.094 2.30922 214.759 2.40613 214.475 2.26337C212.694 1.36542 210.337 2.26519 208.809 0.485883C208.505 0.132303 207.586 0.840047 206.949 1.05473C205.63 1.49898 204.657 3.00918 202.948 2.24683C202.451 2.96965 201.854 2.8057 201.237 2.6428C200.788 2.52428 200.328 2.40603 199.887 2.62986C200.261 2.07242 200.393 0.992758 200.128 1.17735C199.402 1.68275 198.874 1.3955 198.357 1.10798C197.947 0.879918 197.544 0.651314 197.055 0.817783C198.02 1.11204 197.939 1.79695 197.523 2.35632C197.046 2.99839 196.471 2.52634 196.076 2.16543C195.223 1.387 194.704 2.31981 194.171 2.56819C193.398 2.92872 192.778 2.44125 192.171 2.3709C191.643 2.30971 192.599 1.6967 192.62 1.03125C192.078 1.42563 191.685 1.9321 190.942 1.41361C189.824 0.634436 188.322 0.868478 187.049 0.702809C185.946 0.559102 184.795 1.69601 184.689 3.13432L184.688 3.13437C183.203 3.21349 183.381 1.4264 182.249 0.864077C182.122 1.72112 182.77 1.87497 182.991 2.29852C183.392 3.06266 182.466 3.00068 182.417 3.42485C181.976 2.90564 181.552 3.09755 181.117 3.28983C180.858 3.4042 180.597 3.51896 180.326 3.48379C179.254 3.34448 178.251 3.39012 179.099 1.92327C179.361 1.46976 179.311 0.925034 178.888 0.590208C178.442 0.237582 178.371 0.495373 178.32 0.752402C178.285 0.929129 178.259 1.1055 178.129 1.08294C177.865 1.0371 177.607 1.12918 177.349 1.22086C176.933 1.36864 176.514 1.51621 176.061 1.09098C175.729 0.780151 172.773 1.84784 172.565 2.25927C171.998 3.38085 170.676 3.54314 169.813 2.59352C169.488 2.23639 169.191 2.29754 168.764 2.50163C168.131 2.80492 167.429 2.9764 166.542 3.27617C166.803 2.69502 167.029 2.34674 167.105 1.97112C167.137 1.80624 167.109 1.63598 167.025 1.4889C166.942 1.34181 166.808 1.22684 166.646 1.16326C166.195 0.961057 166.229 1.41314 166.09 1.57483C165.496 2.26327 164.6 2.37545 164.049 1.92769C163.498 1.47993 162.983 1.57781 162.477 1.67357C162.244 1.7275 162.006 1.75399 161.767 1.75242C160.576 1.6949 161.803 2.6148 161.229 3.01219C160.682 2.68795 160.609 1.63021 159.578 1.77495C159.874 2.12994 160.173 2.44256 160.413 2.79183C160.584 3.03868 160.503 3.52273 160.279 3.47444C159.83 3.3779 159.348 3.50042 158.865 3.623C157.962 3.85132 157.054 4.08108 156.344 2.88428C156.019 2.33602 155.32 1.72702 154.581 2.82619C153.987 3.71078 153.468 2.76491 153.134 2.44612C152.723 2.05463 152.288 1.72499 151.828 1.97926C151.374 2.23071 151.709 2.77468 151.794 3.18703C151.952 3.94698 151.958 3.94603 150.929 3.82432C150.882 3.81343 150.833 3.81082 150.785 3.81661C150.266 3.94719 149.606 4.80543 149.281 3.79352C149.075 3.1532 150.199 3.34207 150.457 2.78991C149.701 2.68406 148.955 2.56923 148.204 2.47736C147.581 2.40106 146.763 1.8425 146.627 3.05627C146.619 3.11157 146.596 3.1638 146.559 3.20742C146.523 3.25105 146.475 3.28443 146.42 3.304C146.365 3.32358 146.306 3.32861 146.249 3.31859C146.191 3.30856 146.138 3.28385 146.094 3.24707C145.746 2.91489 145.349 2.97609 144.935 3.03797C144.515 3.10059 144.076 3.16394 143.648 2.82152C143.014 2.31355 142.27 2.51273 141.505 2.71255C141.012 2.8422 140.508 2.97094 140.02 2.91092C139.759 2.87888 139.475 2.9682 139.19 3.05765C138.579 3.24997 137.968 3.44226 137.6 2.42612C137.575 2.35886 137.069 2.32454 136.972 2.42998C136.027 3.45977 134.827 3.10053 133.665 3.08781C132.829 3.07856 131.961 3.20392 132.97 4.5023C131.771 4.12732 131.06 3.05825 129.908 3.71986C130.21 4.21345 130.834 3.99145 131.319 4.25763C130.869 4.68237 130.308 4.65412 129.745 4.62595C129.04 4.59068 128.33 4.55558 127.828 5.41018C127.931 3.81324 127.011 3.25485 125.653 3.59917C124.886 3.79321 123.878 3.43326 124.241 4.85734C124.334 5.22474 123.423 5.2511 122.988 5.39513C122.646 5.50813 122.203 5.2223 122.378 4.68051C122.591 4.01723 122.356 3.84904 121.722 4.14751C121.441 4.27995 121.136 4.32649 120.914 4.12619C119.68 3.0094 118.813 3.81843 118.07 4.69104C117.526 5.32863 117.358 5.37577 116.719 4.69691C115.821 3.74483 114.504 3.68681 113.178 4.03564C113.305 4.49621 114.271 4.40718 113.876 5.13313C113.629 5.58606 113.375 5.45085 113.122 5.31573C113.008 5.23824 112.873 5.19363 112.733 5.18717C112.51 5.21491 112.293 5.27944 112.092 5.37794C110.65 6.02444 109.291 5.45704 107.939 5.09861C107.466 4.97294 107.029 5.13135 106.585 5.28988C106.04 5.48461 105.484 5.67957 104.834 5.35067C104.751 5.30803 104.59 5.40538 104.408 5.50368C104.037 5.70415 103.577 5.90784 103.493 4.9337C102.958 5.3978 102.369 5.2903 101.776 5.18285C101.302 5.09724 100.825 5.0115 100.368 5.21726C99.5285 5.59514 98.6848 5.63137 97.7278 5.27077C96.3736 4.76051 96.2299 4.93167 95.7785 6.69053C95.6049 5.97764 94.0479 6.35481 95.0934 5.18747C94.2399 4.93648 93.3263 4.93652 92.4711 5.18759C91.1069 5.58823 89.6525 5.60601 88.2808 5.2388C88.0764 5.18311 87.8825 5.09043 87.6841 5.01503C87.4693 6.07859 86.7227 6.08382 85.9752 6.08922C85.4682 6.09291 84.961 6.09646 84.619 6.43025C84.5437 6.51584 84.4368 6.57039 84.3207 6.58249C84.2046 6.59458 84.0882 6.56329 83.9959 6.49516C82.9963 5.77612 82.6171 5.77213 81.4988 6.67439C81.1018 6.9952 80.6369 7.20725 80.2769 6.95633C79.8085 6.63112 80.9261 6.56035 80.5645 6.12113C78.9118 6.86422 78.9118 6.86422 78.2708 5.85433C78.056 6.67541 78.0694 7.97713 76.7979 6.68811C76.3769 6.26153 76.1907 6.2142 76.2901 6.99912C76.3645 7.58758 75.7124 7.35892 75.5109 7.07651C74.6541 5.87502 73.5084 5.83332 72.2043 6.20956C72.1328 6.90387 73.6506 6.28571 73.1024 7.08692C72.7568 7.59208 71.4593 7.57537 71.2971 7.16115C71.0049 6.41525 70.5468 6.45746 70.0797 6.50001C69.9122 6.52166 69.7428 6.52468 69.5747 6.50904C69.214 6.46055 68.6796 6.65362 68.608 6.08816C68.5603 5.70877 68.2908 5.54101 68.1102 5.78073C67.1093 7.10848 65.3956 6.32362 64.1919 7.06212C63.775 7.31786 63.4802 7.32787 63.3937 6.50588C63.3419 6.01146 62.9948 6.15527 62.6214 6.29992C62.3742 6.39578 62.1152 6.49193 61.9228 6.40365C61.4408 7.18905 62.8831 6.73186 62.4241 7.25584C62.1404 7.57967 61.6149 7.9378 60.9793 7.48456C60.2674 6.97698 59.7457 6.08898 58.5367 7.3083C58.0125 7.8368 58.1951 7.44927 58.2404 7.06712C58.2737 6.78974 58.2344 6.51507 57.801 6.59448C57.3094 7.12747 57.25 8.0855 56.4173 8.72715C56.6306 8.1045 55.3473 7.99516 56.0528 7.13719C56.3692 6.75247 55.8241 6.78582 55.6081 6.75142C54.5252 6.57926 53.4284 6.78475 52.4735 7.14995C51.338 7.58433 49.9051 7.37317 49.0669 8.48926C48.2983 7.64144 47.5455 7.94765 46.7965 8.25372C46.3248 8.4464 45.8546 8.63902 45.383 8.54276C44.5652 8.37647 43.8025 8.37326 43.0257 8.68287C42.3166 8.96534 41.8489 8.8432 41.9009 7.97572C41.9321 7.45484 41.4432 7.53897 41.2058 7.57895C40.0135 7.77937 38.8504 8.05911 37.6899 7.39669C37.4356 7.2516 36.8308 7.61309 36.8858 7.82528C37.1952 9.01611 36.0375 8.48602 35.6695 8.8472C36.1336 7.26829 34.5566 7.32596 33.8832 7.25668C33.0099 7.16715 33.323 8.01161 33.5688 8.54819C32.223 7.73186 30.9677 6.85943 29.3262 8.24452C29.1049 8.43123 28.6638 8.29224 28.1708 8.15491C27.7901 8.04901 27.3782 7.94414 27.013 7.99166C26.8193 8.00611 26.6244 7.99306 26.4349 7.95292C25.9256 7.87114 25.4251 7.78875 25.1488 8.68794C25.0732 8.93378 23.4009 9.84384 22.3367 9.17214C21.9752 8.94395 21.687 8.88012 21.4479 9.0967C20.7257 9.75108 20.2116 10.1817 20.3641 8.69073C20.422 8.12337 19.9512 8.08536 19.5344 8.28449C18.7715 8.63532 17.9891 8.94594 17.1909 9.21492C16.0846 9.60661 15.5962 9.62047 14.3398 9.63088C13.5967 9.63709 12.5072 9.32217 11.9849 10.3849C11.5774 11.2142 10.5264 10.5922 9.78796 11.2595C9.24456 11.751 8.32091 11.7643 7.40699 11.7772C7.05806 11.7821 6.70912 11.787 6.3843 11.8186C4.67151 11.985 3.00102 12.4128 1.4955 13.3231C0.571717 13.8814 0.348013 14.8694 0.110684 15.6589C-0.215613 16.7438 0.166494 17.9466 1.43077 18.5C2.8812 19.1346 4.34353 19.377 5.8638 18.5111C7.1996 17.7508 8.7651 17.778 10.2561 17.527C10.6149 17.48 10.9776 17.4673 11.3387 17.4894C12.3144 17.5163 13.3129 17.5423 13.9643 16.3192C14.2669 15.7515 15.395 16.4581 16.0222 16.6833C16.5774 16.8825 16.8962 17.2224 17.6307 16.9946C19.3198 16.4949 21.0641 16.1876 22.8273 16.0791C24.6674 15.9517 26.5508 15.6747 28.4143 15.7167C29.8439 15.7262 31.2733 15.6672 32.6972 15.5399C34.5831 15.4016 36.4707 15.2634 38.3784 15.4413C39.151 15.5133 39.9234 15.2952 40.7115 15.0763C41.4216 14.8794 42.1445 14.6818 42.892 14.6956C45.0405 14.7352 47.2032 14.5511 49.3357 14.7245C50.2715 14.7864 51.2119 14.7418 52.1374 14.5915C54.6005 14.2413 57.079 14.1668 59.5555 14.0931C61.1684 14.0447 62.7812 13.9962 64.3884 13.8717C64.9373 13.8389 65.4875 13.8336 66.0368 13.8558C67.4345 13.8883 68.8535 13.92 70.1246 13.0779C70.3411 12.9343 70.5299 13.3453 70.911 13.3482C72.8236 13.362 74.7341 13.2498 76.6411 13.1375C78.5371 13.0261 80.4294 12.9147 82.3179 12.9276C83.1393 12.9332 83.9626 12.8912 84.7865 12.8497C86.3059 12.7722 87.8269 12.6949 89.3394 12.9162C89.6686 12.9696 90.0071 12.94 90.3213 12.8301C91.6957 12.3738 93.0283 11.9258 94.5503 12.5603C95.0442 12.7661 95.5832 12.5862 96.1147 12.4066C96.5393 12.2631 96.959 12.1198 97.3475 12.1734C97.7632 12.2058 98.1818 12.1725 98.5867 12.0749C99.4131 11.9235 100.255 11.7718 101.028 12.6224C101.301 12.9228 102.652 12.2296 103.522 12.1472C106.345 11.8798 109.172 11.1312 112.01 11.882C112.602 12.0382 113.085 11.849 113.572 11.6597C113.924 11.4971 114.305 11.4019 114.694 11.3794C115.781 11.3754 116.803 12.0876 117.919 11.5892C118.025 11.5531 118.137 11.5394 118.249 11.549C118.366 11.5612 118.483 11.5444 118.591 11.5003C120.267 10.5797 122.336 10.4333 123.897 10.787C126.492 11.3748 129.011 11.0735 131.446 10.8235C133.55 10.6077 135.667 10.5692 137.784 10.5305C141.277 10.467 144.766 10.4035 148.183 9.54384C149.05 9.32578 149.722 9.79352 150.467 9.86513C152.754 10.0846 155.02 9.91255 157.283 9.74078C158.615 9.6395 159.946 9.53854 161.279 9.51736C164.863 9.46033 168.48 9.37907 172.079 9.08791C175.822 8.78444 179.582 8.63213 183.354 8.61165C186.319 8.59554 189.333 8.63817 192.263 8.36548C195.89 8.02809 199.537 8.04424 203.14 7.92279C204.218 7.88633 205.298 7.82599 206.38 7.76544C208.827 7.62883 211.285 7.49152 213.754 7.63034C217.296 7.83027 220.875 7.44902 224.44 7.19865C225.648 7.11408 226.886 7.13452 228.128 7.15485C229.365 7.17506 230.606 7.19515 231.821 7.11127C233.488 6.99603 235.155 6.98092 236.822 6.96565C239.035 6.94542 241.249 6.92529 243.461 6.67164C244.829 6.51462 246.213 6.60854 247.604 6.70217C248.792 6.78223 249.986 6.86193 251.182 6.78504C254.822 6.55134 258.478 6.56853 262.128 6.47915C262.185 6.48434 262.243 6.48653 262.3 6.48569C263.564 6.3135 264.625 5.64302 266.155 6.19198C267.055 6.51516 268.129 6.38109 269.211 6.24665C269.777 6.16505 270.348 6.11629 270.919 6.10064C272.491 6.09144 274.072 6.14087 275.637 6.13261C277.572 6.12231 279.508 6.03112 281.443 5.93995C284.333 5.80384 287.22 5.66782 290.095 5.80159C291.354 5.86008 292.614 5.77193 293.873 5.68381C296 5.53513 298.127 5.3858 300.248 5.94489C300.992 6.14118 301.894 5.82079 302.719 5.71039C305.183 5.38106 307.633 5.35365 310.057 5.95059C310.401 6.03516 310.475 5.81428 310.596 5.59152C310.645 5.4686 310.735 5.36436 310.852 5.29484C310.969 5.22532 311.106 5.19438 311.243 5.20677C313.391 5.26018 315.528 5.55268 317.67 5.49347C318.759 5.46344 319.9 5.51963 320.933 5.31804C322.13 5.08434 323.323 5.14069 324.512 5.19704C325.602 5.24877 326.688 5.30075 327.77 5.13002C327.96 5.1 328.159 5.20305 328.355 5.30622C328.772 5.52579 329.177 5.74601 329.452 4.68256C329.857 5.54223 329.26 6.42036 330.136 6.68993C331.008 6.95827 331.091 6.1286 331.407 5.65374C331.651 5.28842 332.027 5.11695 332.444 5.2268C333.713 5.56145 334.995 5.48334 336.278 5.40544C337.153 5.33017 338.032 5.32072 338.908 5.3772C339.479 5.42831 339.676 5.50654 339.879 5.94623C339.946 6.09242 340.333 6.2575 340.46 6.19645C340.92 5.97414 340.411 5.80303 340.358 5.60386C340.279 5.30564 340.474 5.12655 340.682 5.15097C341.5 5.24574 342.335 5.10705 343.148 4.96857C344.078 4.81046 344.982 4.65319 345.808 4.84743C347.732 5.29976 349.275 5.13357 350.903 4.28902C350.953 4.25955 351.008 4.24038 351.066 4.23273C351.124 4.22509 351.182 4.22916 351.238 4.24466C351.294 4.26017 351.346 4.28676 351.39 4.32273C351.435 4.35869 351.471 4.40322 351.496 4.4534C351.744 4.94594 350.846 4.85788 351.007 5.3911C351.196 5.40208 351.385 5.40103 351.574 5.38795C352.148 5.36077 352.738 5.33298 353.152 5.93662C353.337 6.20533 353.83 6.07834 353.932 5.92475C354.369 5.25701 354.933 5.32606 355.493 5.39511C355.756 5.44234 356.025 5.44796 356.29 5.41178C359.173 4.84258 361.981 5.23342 364.843 5.34596C365.561 5.35748 366.279 5.32474 366.993 5.24795C367.851 5.17431 368.717 5.10036 369.55 5.17149C370.293 5.21699 371.038 5.20959 371.78 5.14935C373.22 5.06689 374.662 4.98432 376.069 5.66194C377.178 6.19674 378.296 5.24525 379.442 5.08535C380.976 4.87237 382.134 5.77583 383.515 5.95857C384.58 6.09985 385.424 7.49461 386.737 5.91864C387.316 5.22453 388.9 4.50163 390.278 5.59863C390.69 5.92745 391.529 6.23748 392.248 5.71372C393.48 4.81612 394.849 5.46774 396.053 5.66196C396.928 5.80301 397.822 5.66572 398.713 5.52965C400.174 5.30562 401.626 5.08163 402.971 6.08677C403.318 6.34583 403.484 6.1872 403.638 6.02928C403.736 5.92909 403.831 5.82902 403.964 5.8363C404.119 5.82618 404.27 5.7875 404.409 5.72238C404.809 5.57162 405.215 5.42047 405.181 6.3265C405.171 6.59939 405.582 6.74435 405.862 6.5353C407.472 5.33277 409.215 5.56205 411.081 5.79967C411.833 5.89538 412.694 5.78936 413.526 5.85912C413.647 5.86671 413.768 5.86687 413.889 5.85955C414.261 5.84475 414.572 5.83221 414.728 6.33278C414.87 6.79004 415.385 6.7546 415.579 6.6468C417.093 5.80619 418.679 5.94088 420.263 6.07535C421.076 6.16758 421.897 6.19217 422.716 6.14884C425.051 5.95811 427.423 6.25605 429.78 6.26677C431.817 6.27589 433.87 6.718 435.908 5.94293C436.029 5.89669 436.325 6.07263 436.682 6.2462C437.032 6.4168 437.441 6.58537 437.798 6.53856C439.855 6.26955 441.944 6.51527 443.961 6.58302C445.85 6.64645 447.673 6.68648 449.533 6.39933C449.811 6.3563 450.152 6.64812 450.454 6.80356C450.93 7.0488 451.54 7.27707 451.907 6.92048C452.581 6.26706 453.14 6.64889 453.872 6.71151C457.585 7.04204 461.314 7.17585 465.043 7.11229C466.939 7.07365 468.927 7.35098 470.892 7.26916C471.79 7.23173 472.685 7.26189 473.582 7.29183C474.94 7.3373 476.304 7.38272 477.692 7.1931C478.176 7.12698 478.776 7.26407 479.408 7.40016C480.012 7.53069 480.646 7.66016 481.234 7.60825C485.559 7.22915 489.889 7.6286 494.19 7.7334C499.012 7.85109 503.886 7.59336 508.692 8.33059C509.094 8.39242 509.667 8.33881 509.701 7.77623C509.721 7.44704 509.264 7.01738 510.002 6.96837C510.46 6.93811 511.019 6.92903 511.051 7.53005C511.1 8.45679 511.792 8.37817 512.401 8.38821C519.683 8.50988 526.951 8.87245 534.21 9.40156C534.48 9.41179 534.751 9.39557 535.018 9.35317C535.608 9.27935 536.196 9.20587 536.719 9.68053C537.003 8.80135 537.316 9.0998 537.648 9.39755C537.872 9.59886 538.104 9.79957 538.342 9.637C538.668 9.41384 539.089 9.42659 539.492 9.43996C539.857 9.45201 540.207 9.46459 540.465 9.30547C541.545 8.63734 541.545 9.95612 542.248 9.97881C543.758 10.0273 545.261 10.2654 546.772 10.3349C546.924 10.3419 547.077 10.3415 547.23 10.3358C547.853 10.3104 548.479 10.1991 549.103 10.1419ZM188.561 1.85424C187.241 2.75938 186.084 3.29294 184.693 3.13459C185.391 2.28957 186.184 1.7241 187.27 1.68371C187.707 1.67362 188.143 1.73119 188.561 1.85424ZM549.098 10.1818C549.119 10.1783 549.139 10.1725 549.159 10.1651C549.152 10.1554 549.144 10.1471 549.134 10.1397L549.103 10.1419C549.101 10.1559 549.098 10.1705 549.095 10.1845L549.098 10.1818Z" fill="#97E14D"/>
<path d="M558.959 12.3206C559.197 11.6427 558.335 11.7604 557.909 11.5892C556.228 10.915 554.379 10.9879 552.627 10.6353C552.302 10.5863 551.971 10.5785 551.643 10.6122C551.069 10.6453 550.462 10.6799 549.879 10.3399C549.519 10.1296 549.525 10.8734 549.154 11.0166C549.265 11.1608 549.082 11.5043 549.406 11.4641C550.742 11.2987 552.034 11.5451 553.326 11.7914C554.514 12.0179 555.702 12.2443 556.923 12.151C557.127 12.1354 557.345 12.275 557.554 12.3513C557.861 12.4637 558.233 12.7305 558.533 12.7166C558.708 12.7082 558.859 12.6048 558.959 12.3206ZM549.097 10.9939C549.232 10.0831 548.544 9.79698 547.862 9.9041C546.58 10.1057 545.413 9.65256 544.19 9.57834C542.47 9.47381 540.737 9.46354 539.023 9.46295C538.19 9.46261 536.9 9.11804 535.869 8.76367C535.517 8.64281 535.135 8.69801 534.752 8.75329C534.14 8.84157 533.524 8.92991 533.02 8.305C532.93 8.19327 532.358 8.33357 532.237 8.73986C532.187 8.91031 532.186 9.29888 531.909 9.09803C530.212 7.86992 528.132 8.34001 526.254 7.95116C524.584 7.60536 522.349 7.01945 521.19 7.7483C519.245 8.97101 518.323 7.50685 516.951 7.25911C515.892 7.07649 514.817 6.98792 513.74 6.99454C510.597 6.99336 507.467 6.9252 504.331 6.64354C501.788 6.415 499.213 6.5018 496.652 6.45183C493.339 6.38727 490.024 6.37961 486.714 6.24964C482.259 6.07484 477.805 5.58492 473.357 5.66877C470.963 5.7136 468.566 5.36276 466.138 5.76057C464.68 5.99903 463.094 5.55174 461.572 5.36437C460.113 5.18465 458.651 5.36776 457.194 5.34827C454.587 5.31377 451.941 5.4385 449.364 5.33765C447.029 5.24642 444.703 5.1421 442.353 5.10446C438.338 5.04069 434.305 4.95087 430.307 4.73229C426.337 4.51473 422.366 4.30544 418.327 4.27886C418.112 4.66377 418.714 4.63663 418.803 4.85306C418.977 5.2743 418.628 5.60835 418.23 5.68934C417.781 5.78092 417.714 5.47469 417.74 5.07421C417.83 3.68475 417.154 3.62546 415.958 4.04151C414.33 4.60824 412.601 4.14871 410.917 4.21755C408.309 4.32395 405.741 3.50766 403.067 4.0051C402.115 4.18229 400.991 3.82933 399.937 3.76102C398.508 3.66802 397.058 3.74659 395.623 3.62766C393.98 3.49102 392.217 3.34535 390.598 3.52003C387.999 3.80054 385.416 3.62397 382.841 3.44674C380.519 3.287 378.203 3.12695 375.888 3.302C372.689 3.54385 369.521 3.26589 366.336 3.39652C363.032 3.5321 359.689 3.16417 356.365 3.36679C355.601 3.39072 354.836 3.3468 354.081 3.23562C353.141 3.12468 352.226 3.0128 351.381 3.15784C350.534 3.30344 349.704 3.27761 348.885 3.25057C348.051 3.2234 347.228 3.19558 346.409 3.34861C345.167 3.58032 343.925 3.46594 342.688 3.3512C341.338 3.2261 339.994 3.10073 338.663 3.42427C337.4 3.73143 336.283 4.02941 335.203 3.08419C335.019 2.92245 334.586 2.78502 334.414 2.87972C333.181 3.56164 331.873 3.4982 330.568 3.43433C329.679 3.39096 328.789 3.34746 327.926 3.5408C327.428 3.65234 326.947 3.52442 326.472 3.39622C325.905 3.24346 325.347 3.09018 324.779 3.34207C323.658 3.83839 322.507 3.78102 321.358 3.7238C320.61 3.68638 319.863 3.64875 319.126 3.76428C318.551 3.85437 317.958 3.77187 317.366 3.68934C316.309 3.542 315.253 3.39447 314.297 4.22869C311.437 3.61563 308.559 3.76662 305.684 3.91743C303.65 4.02416 301.617 4.1308 299.595 3.96643C297.973 3.83463 296.382 3.96876 294.794 4.10275C293.458 4.21541 292.124 4.32796 290.778 4.28217C283.721 4.04119 276.672 4.57178 269.622 4.63988C265.698 4.67806 261.761 4.73938 257.845 4.8397C254.058 4.93652 250.25 4.97474 246.452 5.26494C245.714 5.32124 244.972 5.32919 244.227 5.33708C242.918 5.35107 241.604 5.36543 240.298 5.64383C239.578 5.7973 238.859 5.32109 238.027 5.30915C237.34 5.31081 236.654 5.34679 235.97 5.41692C234.777 5.5193 233.58 5.62175 232.344 5.36441C231.515 5.1912 230.65 5.32339 229.768 5.45641C229.022 5.56876 228.263 5.68173 227.5 5.61144C226.707 5.53823 225.781 5.5706 225.193 5.22859C223.967 4.5148 223.391 4.87765 223.013 6.04071C221.674 4.74654 220.7 4.77529 219.242 5.95365C218.921 6.21208 218.529 6.12834 218.129 6.04476C217.652 5.9449 217.166 5.84547 216.784 6.33109C216.342 5.90006 215.847 6.03569 215.38 6.16998C215.03 6.27074 214.695 6.37077 214.411 6.23067C212.621 5.34932 210.273 6.27099 208.729 4.50599C208.421 4.15526 207.509 4.87153 206.874 5.09213C205.559 5.54864 204.6 7.06782 202.884 6.32142C202.393 7.04884 201.795 6.89045 201.176 6.73331C200.726 6.61897 200.265 6.50501 199.826 6.73293C200.196 6.17203 200.317 5.09119 200.054 5.27824C199.332 5.79038 198.802 5.50806 198.282 5.22536C197.87 5.00112 197.465 4.77628 196.978 4.94729C197.945 5.23256 197.871 5.91819 197.461 6.4814C196.99 7.12788 196.41 6.66121 196.012 6.304C195.151 5.53354 194.641 6.47114 194.11 6.72447C193.341 7.09218 192.716 6.6105 192.108 6.54581C191.58 6.48954 192.531 5.86765 192.545 5.20203C192.006 5.60145 191.619 6.11155 190.87 5.6C189.745 4.83127 188.245 5.07928 186.972 4.92546C185.867 4.79203 184.727 5.93961 184.634 7.37884L184.633 7.3789C183.149 7.47184 183.31 5.68317 182.173 5.13141C182.054 5.98959 182.703 6.13741 182.929 6.55888C183.336 7.31926 182.41 7.2659 182.364 7.69052C181.919 7.17543 181.496 7.37128 181.063 7.5676C180.806 7.68436 180.545 7.80156 180.275 7.76891C179.201 7.63959 178.199 7.69456 179.033 6.21988C179.291 5.76395 179.236 5.21971 178.81 4.88884C178.361 4.54038 178.292 4.79882 178.243 5.05631C178.209 5.23336 178.185 5.40996 178.055 5.38862C177.791 5.34523 177.534 5.43971 177.277 5.53379C176.862 5.68543 176.444 5.83689 175.987 5.4159C175.653 5.10818 172.707 6.20334 172.503 6.61668C171.946 7.7435 170.625 7.91809 169.753 6.97654C169.425 6.62245 169.129 6.68636 168.704 6.89442C168.073 7.20359 167.373 7.3816 166.489 7.68961C166.744 7.10606 166.968 6.75569 167.04 6.37937C167.07 6.21421 167.041 6.04422 166.956 5.89791C166.871 5.75161 166.736 5.6379 166.573 5.57583C166.121 5.37782 166.159 5.82957 166.021 5.99255C165.433 6.68649 164.539 6.80701 163.984 6.36439C163.429 5.92178 162.915 6.02444 162.409 6.12492C162.177 6.18101 161.939 6.20972 161.7 6.21038C160.508 6.16395 161.744 7.07238 161.173 7.47511C160.624 7.15597 160.541 6.09896 159.512 6.25327C159.811 6.6055 160.112 6.91532 160.356 7.26234C160.529 7.50759 160.452 7.99238 160.228 7.94617C159.778 7.85382 159.297 7.98082 158.815 8.10789C157.915 8.34461 157.009 8.58281 156.288 7.39266C155.958 6.84746 155.253 6.24499 154.524 7.35099C153.938 8.24107 153.411 7.30007 153.073 6.98441C152.659 6.59675 152.221 6.27118 151.764 6.52972C151.312 6.78539 151.652 7.32622 151.741 7.73776C151.906 8.4962 151.912 8.4952 150.882 8.38307C150.835 8.37262 150.786 8.37046 150.738 8.37671C150.22 8.51211 149.568 9.37646 149.233 8.36762C149.022 7.72923 150.147 7.90764 150.4 7.3531C149.644 7.25429 148.896 7.14642 148.145 7.06153C147.521 6.99104 146.697 6.44012 146.573 7.6551C146.566 7.71047 146.543 7.76292 146.507 7.80688C146.47 7.85084 146.422 7.88467 146.368 7.90475C146.313 7.92484 146.254 7.93042 146.197 7.92093C146.139 7.91144 146.086 7.88723 146.042 7.85085C145.69 7.52194 145.295 7.58682 144.881 7.65255C144.462 7.71908 144.023 7.78651 143.592 7.44809C142.953 6.94605 142.211 7.15214 141.448 7.35908C140.956 7.49332 140.454 7.62673 139.965 7.57126C139.704 7.54165 139.42 7.63362 139.136 7.72571C138.527 7.92371 137.918 8.12167 137.54 7.10902C137.515 7.04198 137.009 7.01238 136.913 7.11871C135.977 8.15726 134.774 7.80921 133.612 7.8073C132.776 7.80582 131.909 7.93927 132.929 9.2282C131.727 8.8644 131.007 7.80199 129.861 8.47429C130.167 8.96506 130.79 8.73725 131.277 8.99891C130.831 9.42781 130.269 9.40479 129.706 9.38187C129.001 9.35316 128.291 9.32466 127.797 10.1839C127.885 8.58608 126.96 8.03627 125.604 8.39322C124.84 8.59439 123.828 8.24385 124.204 9.66449C124.301 10.031 123.39 10.0658 122.956 10.2139C122.616 10.3301 122.17 10.0484 122.34 9.505C122.547 8.83976 122.31 8.67377 121.679 8.97813C121.399 9.11318 121.094 9.16255 120.871 8.96432C119.627 7.85907 118.767 8.67614 118.032 9.55563C117.494 10.1983 117.327 10.247 116.681 9.57408C115.775 8.63039 114.457 8.58464 113.134 8.94579C113.266 9.40516 114.231 9.30715 113.842 10.0367C113.6 10.4919 113.344 10.3591 113.09 10.2264C112.975 10.1499 112.84 10.1066 112.7 10.1014C112.477 10.1312 112.261 10.1978 112.061 10.2981C110.625 10.958 109.261 10.4033 107.906 10.0575C107.431 9.93623 106.996 10.0987 106.554 10.2613C106.01 10.4612 105.456 10.6613 104.803 10.3384C104.719 10.2966 104.56 10.3954 104.379 10.4954C104.01 10.6993 103.551 10.9073 103.458 9.93397C102.927 10.403 102.337 10.301 101.743 10.1991C101.269 10.1179 100.791 10.0366 100.336 10.2466C99.4999 10.6323 98.6566 10.6764 97.6963 10.3247C96.3374 9.82706 96.1953 9.99955 95.7602 11.7625C95.5801 11.0513 94.0266 11.4429 95.0612 10.2659C94.2054 10.0229 93.2919 10.0314 92.439 10.2905C91.0787 10.7038 89.6245 10.7351 88.2494 10.3807C88.0445 10.3269 87.8498 10.236 87.6506 10.1625C87.4457 11.228 86.6992 11.2402 85.9518 11.2525C85.4449 11.2609 84.9377 11.2692 84.5989 11.6061C84.5243 11.6924 84.418 11.748 84.302 11.7612C84.186 11.7743 84.0693 11.7441 83.9764 11.6769C82.9702 10.9672 82.5909 10.9667 81.4811 11.8793C81.0871 12.2038 80.6241 12.4202 80.2618 12.1726C79.7904 11.8518 80.9073 11.7706 80.5416 11.3348C78.8959 12.0932 78.8959 12.0932 78.2455 11.0893C78.0384 11.9124 78.0639 13.2139 76.7804 11.9368C76.3555 11.5142 76.1689 11.4686 76.2756 12.2525C76.3554 12.8403 75.7013 12.6177 75.4972 12.3372C74.6292 11.1437 73.4832 11.1127 72.1827 11.501C72.1176 12.196 73.6296 11.5637 73.0889 12.37C72.7479 12.8784 71.4504 12.8737 71.2843 12.461C70.9852 11.7179 70.5275 11.7644 70.0608 11.8112C69.8936 11.8345 69.7241 11.8391 69.5559 11.825C69.1948 11.7798 68.6622 11.9779 68.5854 11.4131C68.5342 11.0342 68.2631 10.8689 68.0847 11.1103C67.0962 12.4473 65.3753 11.6785 64.1785 12.4281C63.764 12.6878 63.4693 12.7005 63.3752 11.8794C63.3188 11.3854 62.973 11.5325 62.601 11.6806C62.3546 11.7787 62.0965 11.8773 61.9033 11.7908C61.4287 12.5807 62.8667 12.1101 62.4126 12.6383C62.1319 12.9648 61.6097 13.3278 60.9699 12.8805C60.2534 12.3795 59.7234 11.4964 58.5259 12.727C58.0065 13.2603 58.1855 12.8711 58.2273 12.4885C58.258 12.2109 58.2162 11.9366 57.7835 12.02C57.2969 12.5576 57.2464 13.5161 56.4197 14.1655C56.6272 13.5409 55.343 13.4435 56.0405 12.579C56.3532 12.1913 55.8084 12.2297 55.5922 12.1974C54.5078 12.0353 53.4128 12.251 52.4615 12.625C51.33 13.07 49.8952 12.8722 49.0674 13.996C48.291 13.1554 47.5411 13.4686 46.795 13.7816C46.3251 13.9787 45.8566 14.1757 45.3842 14.0838C44.5648 13.9251 43.8022 13.929 43.0283 14.2458C42.3218 14.5349 41.853 14.4171 41.897 13.5492C41.9233 13.0281 41.4352 13.1167 41.1982 13.1589C40.0078 13.3704 38.8474 13.661 37.6807 13.0094C37.4251 12.8667 36.8237 13.2338 36.8807 13.4455C37.2011 14.6333 36.0386 14.1141 35.674 14.4786C36.1233 12.8955 34.5469 12.9678 33.873 12.9048C32.9988 12.8234 33.3197 13.6649 33.5705 14.1992C32.2173 13.3954 30.9539 12.5347 29.3253 13.935C29.1058 14.1238 28.6634 13.9889 28.1692 13.8562C27.7875 13.7538 27.3746 13.6528 27.0098 13.7037C26.8162 13.72 26.6213 13.7087 26.4314 13.6704C25.9214 13.5933 25.4201 13.5156 25.1522 14.4173C25.0789 14.6639 23.4151 15.5895 22.3448 14.9277C21.9811 14.7029 21.6923 14.6417 21.4553 14.8605C20.7391 15.5216 20.2291 15.957 20.3677 14.4647C20.4204 13.8968 19.9492 13.8632 19.5343 14.0662C18.7746 14.4241 17.9952 14.742 17.1995 15.0184C16.0969 15.4203 15.6087 15.4387 14.3524 15.4608C13.6094 15.474 12.5171 15.1692 12.0046 16.2368C11.6048 17.0698 10.5482 16.4576 9.81592 17.1318C9.27711 17.6284 8.35362 17.6502 7.43987 17.6717C7.09099 17.6798 6.74212 17.6879 6.41761 17.7225C4.70644 17.9048 3.03999 18.3482 1.54299 19.2724C0.624442 19.8394 0.40993 20.8294 0.179947 21.621C-0.136253 22.709 0.257015 23.9081 1.52638 24.4497C2.98264 25.0708 4.44717 25.2996 5.95932 24.4196C7.288 23.6469 8.85369 23.6596 10.3423 23.3947C10.7006 23.3443 11.0632 23.3283 11.4245 23.347C12.4004 23.3647 13.3991 23.3815 14.0391 22.1524C14.3364 21.5819 15.471 22.278 16.1003 22.4973C16.6573 22.6914 16.9793 23.0282 17.7116 22.7936C19.396 22.2782 21.1374 21.9547 22.8995 21.8298C24.7383 21.6853 26.619 21.3907 28.4829 21.4154C29.9125 21.4116 31.3413 21.3393 32.764 21.1987C34.6485 21.0429 36.5347 20.8871 38.444 21.0472C39.2172 21.112 39.9876 20.8868 40.7735 20.6606C41.4818 20.457 42.2029 20.2527 42.9504 20.2596C45.0993 20.2792 47.2601 20.075 49.3942 20.2285C50.3304 20.2817 51.2705 20.2283 52.1945 20.0694C54.6542 19.6963 57.1319 19.5987 59.6077 19.502C61.22 19.4385 62.8323 19.3751 64.4382 19.2356C64.9868 19.1977 65.537 19.1873 66.0865 19.2044C67.4844 19.2239 68.9036 19.2423 70.1668 18.3884C70.382 18.2428 70.5746 18.6521 70.9557 18.6514C72.8684 18.6474 74.7777 18.5174 76.6836 18.3874C78.5785 18.2584 80.4697 18.1294 82.3582 18.1246C83.1796 18.1226 84.0025 18.0729 84.826 18.0237C86.3446 17.9321 87.8648 17.8407 89.3793 18.0479C89.709 18.0982 90.0472 18.0654 90.3604 17.9527C91.7305 17.4836 93.0588 17.0232 94.5867 17.6435C95.0825 17.8447 95.6198 17.6598 96.1496 17.4752C96.5728 17.3278 96.9912 17.1806 97.3801 17.2305C97.7961 17.2591 98.2145 17.2219 98.6184 17.1205C99.4434 16.9615 100.283 16.8019 101.065 17.6453C101.341 17.9431 102.685 17.2374 103.554 17.1469C106.375 16.8533 109.194 16.0784 112.04 16.8027C112.632 16.9534 113.114 16.7597 113.599 16.5658C113.949 16.4 114.329 16.3013 114.718 16.2751C115.806 16.261 116.834 16.9637 117.945 16.4548C118.051 16.4178 118.163 16.403 118.275 16.4117C118.392 16.4227 118.509 16.4048 118.617 16.3597C120.284 15.4235 122.351 15.258 123.916 15.5971C126.516 16.1608 129.032 15.8359 131.465 15.5633C133.566 15.3279 135.683 15.2697 137.799 15.2114C141.291 15.1153 144.78 15.0193 148.189 14.1279C149.054 13.9018 149.73 14.3632 150.476 14.4279C152.765 14.6261 155.03 14.433 157.29 14.2401C158.621 14.1265 159.951 14.0131 161.284 13.9795C164.867 13.8891 168.484 13.7742 172.08 13.4496C175.82 13.1113 179.578 12.924 183.349 12.8684C186.315 12.8247 189.329 12.8392 192.257 12.5393C195.88 12.1681 199.527 12.1503 203.128 11.9954C204.206 11.9489 205.285 11.8785 206.367 11.8078C208.812 11.6485 211.269 11.4883 213.74 11.6041C217.284 11.7711 220.859 11.3565 224.421 11.073C225.628 10.9772 226.867 10.9861 228.109 10.9948C229.346 11.0035 230.586 11.0121 231.801 10.9169C233.466 10.7861 235.133 10.7555 236.801 10.7247C239.013 10.6839 241.226 10.6431 243.436 10.3689C244.803 10.1992 246.187 10.2802 247.579 10.3609C248.768 10.4299 249.962 10.4985 251.158 10.4104C254.795 10.1429 258.452 10.126 262.101 10.0027C262.158 10.0073 262.215 10.009 262.273 10.0076C263.535 9.82366 264.59 9.14333 266.124 9.67803C267.028 9.99281 268.1 9.84876 269.181 9.70424C269.747 9.61738 270.316 9.56331 270.888 9.54234C272.46 9.51851 274.041 9.55322 275.606 9.53039C277.54 9.50209 279.475 9.39288 281.41 9.2837C284.298 9.12069 287.184 8.9578 290.06 9.06481C291.32 9.11157 292.579 9.0117 293.836 8.91186C295.963 8.74338 298.088 8.57426 300.214 9.11358C300.96 9.30294 301.859 8.97417 302.683 8.8561C305.143 8.50385 307.593 8.45362 310.023 9.02798C310.368 9.10934 310.44 8.88778 310.559 8.6639C310.607 8.54053 310.695 8.43546 310.812 8.36485C310.928 8.29425 311.065 8.26204 311.202 8.27315C313.35 8.30656 315.49 8.57916 317.631 8.50001C318.719 8.45985 319.861 8.50541 320.892 8.29422C322.087 8.04939 323.28 8.09463 324.47 8.1399C325.56 8.18149 326.647 8.22336 327.727 8.04255C327.917 8.01077 328.117 8.11197 328.314 8.2133C328.733 8.42899 329.14 8.64542 329.405 7.57946C329.818 8.43532 329.229 9.31897 330.108 9.58037C330.982 9.84058 331.057 9.01018 331.369 8.5324C331.609 8.16483 331.984 7.98986 332.401 8.09583C333.674 8.41865 334.955 8.3286 336.237 8.23877C337.111 8.15536 337.991 8.13773 338.867 8.18604C339.438 8.23184 339.636 8.30823 339.843 8.74601C339.912 8.89158 340.3 9.05305 340.426 8.99082C340.884 8.76424 340.374 8.59787 340.319 8.3992C340.237 8.10174 340.431 7.92083 340.639 7.94331C341.458 8.03047 342.291 7.88401 343.103 7.73796C344.031 7.57121 344.934 7.40553 345.761 7.59207C347.69 8.02647 349.232 7.84592 350.852 6.98625C350.901 6.95633 350.956 6.93664 351.014 6.92846C351.072 6.92028 351.13 6.9238 351.186 6.93878C351.242 6.95377 351.294 6.97988 351.339 7.01543C351.384 7.05097 351.42 7.09517 351.446 7.14511C351.699 7.63532 350.8 7.55562 350.966 8.08732C351.155 8.09654 351.344 8.09373 351.533 8.0789C352.107 8.04637 352.696 8.01309 353.116 8.61284C353.303 8.87983 353.795 8.74825 353.895 8.59372C354.327 7.92194 354.891 7.98574 355.452 8.04957C355.715 8.09435 355.984 8.09747 356.249 8.05882C359.127 7.46281 361.938 7.82749 364.801 7.91338C365.519 7.91822 366.236 7.87881 366.949 7.79537C367.807 7.71375 368.672 7.63174 369.506 7.69511C370.249 7.73369 370.994 7.71936 371.736 7.65221C373.174 7.55636 374.616 7.46037 376.029 8.12486C377.143 8.6493 378.252 7.68745 379.397 7.5169C380.929 7.28964 382.095 8.18228 383.478 8.35216C384.543 8.48353 385.401 9.87036 386.699 8.28224C387.271 7.58278 388.849 6.84515 390.236 7.92929C390.652 8.25425 391.494 8.55646 392.208 8.02602C393.432 7.117 394.806 7.75586 396.012 7.93885C396.889 8.07175 397.781 7.92614 398.671 7.78179C400.13 7.54417 401.58 7.30667 402.934 8.29924C403.283 8.55507 403.448 8.39489 403.6 8.23555C403.698 8.13445 403.791 8.03351 403.925 8.03953C404.079 8.02799 404.23 7.9879 404.369 7.92149C404.767 7.76701 405.171 7.61209 405.146 8.51839C405.138 8.79136 405.551 8.9325 405.829 8.72085C407.428 7.50338 409.173 7.71642 411.041 7.93667C411.794 8.02537 412.653 7.91135 413.487 7.97335C413.607 7.97982 413.729 7.97884 413.849 7.9704C414.221 7.95214 414.532 7.93671 414.692 8.4358C414.839 8.89172 415.354 8.85149 415.547 8.74189C417.053 7.88722 418.64 8.00714 420.225 8.12687C421.039 8.21151 421.86 8.22846 422.678 8.17752C425.011 7.96505 427.386 8.24091 429.743 8.22969C431.78 8.21984 433.838 8.64281 435.868 7.84881C435.989 7.80145 436.286 7.97463 436.644 8.14487C436.997 8.31219 437.407 8.47695 437.764 8.42682C439.818 8.13868 441.91 8.36493 443.927 8.41391C445.816 8.45976 447.64 8.48281 449.497 8.17836C449.775 8.13274 450.119 8.42137 450.421 8.574C450.899 8.8148 451.511 9.03739 451.876 8.67739C452.544 8.01772 453.105 8.39434 453.839 8.45014C457.554 8.7461 461.284 8.84518 465.013 8.74691C466.908 8.69062 468.899 8.94944 470.863 8.84933C471.761 8.80354 472.656 8.82537 473.553 8.84696C474.912 8.87978 476.276 8.91251 477.662 8.70998C478.145 8.63935 478.747 8.77085 479.379 8.90105C479.985 9.02595 480.62 9.14952 481.207 9.09214C485.529 8.67279 489.863 9.03191 494.165 9.09667C498.988 9.16947 503.859 8.86638 508.671 9.55885C509.073 9.61693 509.646 9.55799 509.675 8.99511C509.692 8.66575 509.231 8.24036 509.969 8.18449C510.426 8.14997 510.985 8.13569 511.023 8.73638C511.08 9.66263 511.772 9.57756 512.381 9.58193C519.663 9.63581 526.934 9.93071 534.198 10.3922C534.468 10.3999 534.739 10.3812 535.005 10.3363C535.594 10.257 536.182 10.1781 536.709 10.6478C536.986 9.76604 537.301 10.0616 537.635 10.3562C537.861 10.5554 538.096 10.754 538.332 10.5892C538.656 10.363 539.077 10.3718 539.481 10.3815C539.845 10.3901 540.195 10.3994 540.451 10.2379C541.526 9.55976 541.538 10.8785 542.241 10.8946C543.752 10.929 545.257 11.1532 546.768 11.2086C546.92 11.2142 547.074 11.2123 547.226 11.2052C547.849 11.1741 548.474 11.0569 549.097 10.9939ZM188.494 6.06277C187.183 6.98016 186.03 7.52447 184.638 7.37907C185.328 6.52759 186.115 5.95477 187.201 5.90428C187.638 5.89011 188.075 5.94362 188.494 6.06277ZM549.092 11.0338C549.114 11.0301 549.134 11.0241 549.154 11.0166C549.146 11.007 549.138 10.9988 549.128 10.9914L549.097 10.9939C549.095 11.008 549.093 11.0225 549.09 11.0366L549.092 11.0338Z" fill="#97E14D"/>
</svg>
