<svg width="170" height="56" viewBox="0 0 170 56" fill="none" xmlns="http://www.w3.org/2000/svg">
<mask id="mask0_779_5834" style="mask-type:alpha" maskUnits="userSpaceOnUse" x="0" y="0" width="170" height="56">
<rect width="170" height="56" fill="#D9D9D9"/>
</mask>
<g mask="url(#mask0_779_5834)">
<mask id="mask1_779_5834" style="mask-type:alpha" maskUnits="userSpaceOnUse" x="6" y="6" width="158" height="45">
<path d="M44.7283 43.2231L38.7897 32.9373H12.6133C12.6133 32.9373 7.68505 32.9373 6.50223 28.3105C6.46587 29.932 6.87499 31.5323 7.68505 32.9373L9.36881 35.8536L15.7716 46.9434C16.4836 48.1767 17.5078 49.2009 18.7411 49.913C19.9745 50.625 21.3735 50.9999 22.7976 50.9999H38.9705C40.7493 50.9995 42.4869 50.4642 43.9576 49.4636C43.9875 49.4113 46.1307 45.6521 44.7283 43.2231Z" fill="url(#paint0_linear_779_5834)"/>
<path d="M54.5233 24.0631L46.6569 10.4378C45.9489 9.21308 44.958 8.17562 43.7671 7.41218C43.5913 7.36036 38.9565 6.02567 37.3326 8.8382L31.1045 19.625L38.7903 32.9373L44.7288 43.2238C46.1312 45.6528 43.9881 49.4125 43.9583 49.4643C45.0653 48.7133 45.988 47.7215 46.6571 46.5632L47.8345 44.5224L54.5227 32.938C55.3017 31.5889 55.7119 30.0585 55.712 28.5007C55.7122 26.9428 55.3022 25.4123 54.5233 24.0631Z" fill="url(#paint1_linear_779_5834)"/>
<path d="M38.9702 6H23.2374C21.6796 6.00006 20.1493 6.41016 18.8002 7.18908C17.4511 7.968 16.3308 9.0883 15.5519 10.4374L7.68552 24.0627C6.93949 25.3563 6.53237 26.8174 6.50195 28.3104C6.89689 31.5708 11.4803 32.9372 11.4803 32.9372H23.4184L31.1042 19.6249L37.3323 8.83812C38.9562 6.0256 43.5911 7.36028 43.7668 7.4121C42.3365 6.491 40.6715 6.00081 38.9702 6Z" fill="url(#paint2_linear_779_5834)"/>
<path d="M63.7983 31.1101V35.2296C64.3231 34.1801 65.3726 33.7078 66.4876 33.7078C68.2982 33.7078 69.7413 34.9147 69.7413 37.0532C69.7413 39.2047 68.3113 40.3984 66.5008 40.3984C65.3988 40.3984 64.3361 39.8476 63.7983 38.8636V40.2936H63.168V31.1099L63.7983 31.1101ZM63.8113 37.04C63.8113 38.6537 64.9396 39.7689 66.4614 39.7689C67.9176 39.7689 69.1115 38.8505 69.1115 37.0532C69.1115 35.2296 67.9176 34.3244 66.4614 34.3244C64.9658 34.324 63.8113 35.4264 63.8113 37.04Z" fill="#99D4C0"/>
<path d="M76.5373 40.2938V39.1256C76.0387 40.0179 75.133 40.3851 74.2283 40.3981C72.4965 40.3981 71.3027 39.3355 71.3027 37.5383V33.7998H71.9456V37.5257C71.9456 38.995 72.8508 39.7822 74.2546 39.7691C75.5927 39.7559 76.5241 38.7458 76.5241 37.4079V33.7998H77.167V40.2938H76.5373Z" fill="#99D4C0"/>
<path d="M83.3071 34.9936C82.6511 34.4164 82.0083 34.3115 81.2867 34.3115C80.2765 34.2982 79.3057 34.6787 79.3319 35.5052C79.3582 36.371 80.4864 36.5416 81.2998 36.6858C82.4543 36.8827 84.0418 37.0795 83.9762 38.5882C83.9368 40.0182 82.4543 40.3984 81.3129 40.3984C80.1715 40.3984 79.0433 39.9656 78.4795 39.0997L78.9517 38.6799C79.4896 39.454 80.4604 39.782 81.3263 39.782C82.1135 39.782 83.3073 39.5721 83.3467 38.5488C83.3729 37.6167 82.2971 37.4335 81.2341 37.2632C79.9747 37.0532 78.7284 36.8169 78.7152 35.5181C78.7021 34.2456 79.9747 33.6947 81.2865 33.7077C82.231 33.7077 83.0577 33.9702 83.7005 34.5737L83.3071 34.9936Z" fill="#99D4C0"/>
<path d="M86.2581 31.7006C86.2581 32.3827 85.2217 32.3827 85.2217 31.7006C85.2217 31.0184 86.2581 31.0184 86.2581 31.7006ZM85.4054 33.7865V40.2936H86.0482V33.7865H85.4054Z" fill="#99D4C0"/>
<path d="M88.5151 33.8128V34.9674C89.0135 34.0751 89.9193 33.7079 90.824 33.6948C92.5558 33.6948 93.7495 34.7575 93.7495 36.5547V40.2937H93.1067V36.5679C93.1067 35.0985 92.2015 34.3115 90.7978 34.3245C89.4596 34.3377 88.5281 35.3478 88.5281 36.6857V40.2934H87.8857V33.8128H88.5151Z" fill="#99D4C0"/>
<path d="M95.0615 37.0534C95.0615 35.1117 96.5309 33.708 98.3547 33.708C100.179 33.708 101.805 34.8231 101.556 37.3551H95.7174C95.8485 38.877 97.0162 39.756 98.3544 39.756C99.2071 39.756 100.204 39.4149 100.69 38.7721L101.149 39.1393C100.52 39.9658 99.3913 40.3856 98.3549 40.3856C96.5309 40.3856 95.0615 39.1131 95.0615 37.0534ZM100.978 36.7909C100.965 35.1906 99.9156 34.2983 98.3544 34.2983C97.0162 34.2983 95.8618 35.2036 95.7174 36.7909H100.978Z" fill="#99D4C0"/>
<path d="M107.669 34.9936C107.013 34.4164 106.371 34.3115 105.649 34.3115C104.639 34.2982 103.668 34.6787 103.694 35.5052C103.721 36.371 104.849 36.5416 105.662 36.6858C106.817 36.8827 108.404 37.0795 108.338 38.5882C108.299 40.0182 106.817 40.3984 105.675 40.3984C104.534 40.3984 103.406 39.9656 102.842 39.0997L103.314 38.6799C103.852 39.454 104.823 39.782 105.689 39.782C106.476 39.782 107.67 39.5721 107.709 38.5488C107.735 37.6167 106.659 37.4335 105.597 37.2632C104.337 37.0532 103.091 36.8169 103.078 35.5181C103.065 34.2456 104.337 33.6947 105.649 33.7077C106.594 33.7077 107.42 33.9702 108.063 34.5737L107.669 34.9936Z" fill="#99D4C0"/>
<path d="M114.215 34.9936C113.559 34.4164 112.916 34.3115 112.195 34.3115C111.185 34.2982 110.214 34.6787 110.24 35.5052C110.266 36.371 111.395 36.5416 112.208 36.6858C113.363 36.8827 114.95 37.0795 114.884 38.5882C114.845 40.0182 113.363 40.3984 112.221 40.3984C111.08 40.3984 109.952 39.9656 109.388 39.0997L109.86 38.6799C110.398 39.454 111.369 39.782 112.235 39.782C113.022 39.782 114.216 39.5721 114.255 38.5488C114.281 37.6167 113.205 37.4335 112.142 37.2632C110.883 37.0532 109.636 36.8169 109.623 35.5181C109.611 34.2456 110.883 33.6947 112.195 33.7077C113.139 33.7077 113.966 33.9702 114.609 34.5737L114.215 34.9936Z" fill="#99D4C0"/>
<path d="M121.405 31.8579V33.8126H123.609V34.3506H121.405V38.2993C121.405 39.1785 121.588 39.795 122.598 39.795C122.946 39.7807 123.286 39.6911 123.596 39.5326L123.819 40.0574C123.442 40.2572 123.025 40.3693 122.598 40.3853C121.221 40.3853 120.775 39.5721 120.775 38.2993V34.3506H119.397V33.8126H120.775V31.9236L121.405 31.8579Z" fill="#99D4C0"/>
<path d="M131.323 33.8126V40.2935H130.681V38.9159C130.408 39.3743 130.02 39.7528 129.555 40.0131C129.089 40.2733 128.564 40.4062 128.031 40.3983C126.22 40.3983 124.737 39.0341 124.737 37.0531C124.737 35.072 126.22 33.7339 128.031 33.7339C129.08 33.7339 130.143 34.2193 130.681 35.2295V33.8128L131.323 33.8126ZM125.38 37.0531C125.38 38.6798 126.561 39.7688 128.031 39.7688C131.638 39.7688 131.638 34.3505 128.031 34.3505C126.561 34.3505 125.38 35.4263 125.38 37.0531Z" fill="#99D4C0"/>
<path d="M138.276 33.5503L138.696 33.9176L138.066 34.6523C138.526 35.1509 138.867 35.8068 138.867 36.8564C138.867 37.9846 138.198 39.1259 137.122 39.6114C138.263 40.0182 138.893 40.8183 138.893 41.9336C138.893 43.6783 137.528 44.5184 135.81 44.5184C134.091 44.5184 132.74 43.574 132.74 41.9336H133.383C133.383 43.2585 134.511 43.8882 135.81 43.8882C137.109 43.8882 138.263 43.311 138.263 41.9336C138.263 40.5428 137.017 39.9919 135.81 39.9919C133.934 39.9919 132.766 38.5877 132.766 36.8564C132.766 34.836 134.131 33.6947 135.81 33.6947C136.468 33.7036 137.107 33.9091 137.647 34.2849L138.276 33.5503ZM133.409 36.8559C133.409 38.194 134.327 39.3486 135.81 39.3486C137.148 39.3486 138.237 38.194 138.237 36.8559C138.237 35.2155 137.148 34.3371 135.81 34.3371C134.485 34.3376 133.409 35.1641 133.409 36.8564V36.8559Z" fill="#99D4C0"/>
<path d="M140.834 31.1104V40.294H140.191V31.1104H140.834Z" fill="#99D4C0"/>
<path d="M143.485 31.7006C143.485 32.3827 142.448 32.3827 142.448 31.7006C142.448 31.0184 143.485 31.0184 143.485 31.7006ZM142.632 33.7865V40.2936H143.275V33.7865H142.632Z" fill="#99D4C0"/>
<path d="M145.742 33.8128V34.9674C146.24 34.0751 147.146 33.7079 148.05 33.6948C149.782 33.6948 150.976 34.7575 150.976 36.5547V40.2937H150.333V36.5679C150.333 35.0985 149.428 34.3115 148.024 34.3245C146.686 34.3377 145.754 35.3478 145.754 36.6857V40.2934H145.111V33.8128H145.742Z" fill="#99D4C0"/>
<path d="M152.288 37.0534C152.288 35.1117 153.757 33.708 155.581 33.708C157.405 33.708 159.032 34.8231 158.782 37.3551H152.944C153.075 38.877 154.243 39.756 155.581 39.756C156.434 39.756 157.431 39.4149 157.916 38.7721L158.375 39.1393C157.746 39.9658 156.617 40.3856 155.581 40.3856C153.757 40.3856 152.288 39.1131 152.288 37.0534ZM158.205 36.7909C158.192 35.1906 157.142 34.2983 155.581 34.2983C154.243 34.2983 153.088 35.2036 152.944 36.7909H158.205Z" fill="#99D4C0"/>
<path d="M63.0981 28.6387V17.5288H65.1262V26.8492H69.8834V28.6387H63.0981ZM76.3769 28.8176C75.5617 28.8176 74.8011 28.6735 74.0953 28.3852C73.3894 28.0968 72.773 27.6942 72.2461 27.1772C71.7192 26.6603 71.3066 26.0538 71.0083 25.3579C70.72 24.652 70.5759 23.8915 70.5759 23.0763C70.5759 22.2511 70.72 21.4905 71.0083 20.7946C71.2967 20.0987 71.7043 19.4923 72.2312 18.9753C72.7581 18.4583 73.3745 18.0606 74.0804 17.7823C74.7862 17.494 75.5517 17.3498 76.3769 17.3498C77.2021 17.3498 77.9676 17.494 78.6734 17.7823C79.3793 18.0706 79.9957 18.4732 80.5226 18.9902C81.0495 19.4972 81.4571 20.0987 81.7454 20.7946C82.0437 21.4905 82.1928 22.2511 82.1928 23.0763C82.1928 23.8915 82.0437 24.652 81.7454 25.3579C81.4472 26.0538 81.0346 26.6603 80.5077 27.1772C79.9808 27.6942 79.3644 28.0968 78.6585 28.3852C77.9626 28.6735 77.2021 28.8176 76.3769 28.8176ZM76.3769 26.9685C76.9237 26.9685 77.4258 26.874 77.8831 26.6851C78.3404 26.4863 78.7381 26.2129 79.0761 25.8649C79.424 25.517 79.6875 25.1044 79.8665 24.6272C80.0553 24.15 80.1498 23.633 80.1498 23.0763C80.1498 22.5195 80.0553 22.0075 79.8665 21.5403C79.6875 21.0631 79.424 20.6505 79.0761 20.3025C78.7381 19.9446 78.3404 19.6712 77.8831 19.4823C77.4258 19.2934 76.9237 19.199 76.3769 19.199C75.84 19.199 75.343 19.2934 74.8856 19.4823C74.4283 19.6712 74.0257 19.9446 73.6777 20.3025C73.3397 20.6505 73.0762 21.0631 72.8873 21.5403C72.6984 22.0075 72.604 22.5195 72.604 23.0763C72.604 23.633 72.6984 24.15 72.8873 24.6272C73.0762 25.1044 73.3397 25.517 73.6777 25.8649C74.0257 26.2129 74.4283 26.4863 74.8856 26.6851C75.343 26.874 75.84 26.9685 76.3769 26.9685ZM89.2604 28.8176C88.465 28.8176 87.7293 28.6735 87.0533 28.3852C86.3773 28.0968 85.7857 27.6942 85.2787 27.1772C84.7717 26.6603 84.374 26.0538 84.0857 25.3579C83.8073 24.662 83.6681 23.9014 83.6681 23.0763C83.6681 22.2511 83.8023 21.4905 84.0708 20.7946C84.3491 20.0888 84.7369 19.4823 85.234 18.9753C85.741 18.4583 86.3325 18.0606 87.0086 17.7823C87.6846 17.494 88.4203 17.3498 89.2156 17.3498C90.011 17.3498 90.7218 17.484 91.3481 17.7524C91.9844 18.0209 92.5213 18.3788 92.9587 18.8262C93.3961 19.2636 93.7093 19.7458 93.8982 20.2727L92.0938 21.1376C91.885 20.561 91.5321 20.0937 91.035 19.7358C90.5379 19.3779 89.9314 19.199 89.2156 19.199C88.5197 19.199 87.9033 19.363 87.3665 19.6911C86.8395 20.0192 86.427 20.4715 86.1287 21.0481C85.8404 21.6248 85.6962 22.3008 85.6962 23.0763C85.6962 23.8517 85.8454 24.5327 86.1436 25.1193C86.4518 25.6959 86.8743 26.1483 87.4112 26.4763C87.9481 26.8044 88.5644 26.9685 89.2604 26.9685C89.827 26.9685 90.349 26.8591 90.8262 26.6404C91.3034 26.4117 91.6862 26.0936 91.9745 25.686C92.2628 25.2684 92.4069 24.7763 92.4069 24.2096V23.3596L93.3315 24.1649H89.2156V22.4499H94.4351V23.5684C94.4351 24.4234 94.2909 25.1789 94.0026 25.8351C93.7143 26.4913 93.3216 27.043 92.8245 27.4904C92.3373 27.9278 91.7856 28.2609 91.1692 28.4895C90.5528 28.7083 89.9165 28.8176 89.2604 28.8176ZM96.0399 28.6387V17.5288H98.068V28.6387H96.0399ZM102.173 28.6387V19.3183H99.2953V17.5288H107.05V19.3183H104.216V28.6387H102.173ZM106.635 28.6387L110.468 17.5288H113.092L116.925 28.6387H114.718L113.927 26.2526H109.633L108.827 28.6387H106.635ZM110.214 24.4631H113.346L111.497 18.9305H112.063L110.214 24.4631ZM122.974 28.8176C122.179 28.8176 121.443 28.6735 120.767 28.3852C120.091 28.0968 119.499 27.6942 118.992 27.1772C118.485 26.6603 118.088 26.0538 117.799 25.3579C117.521 24.662 117.382 23.9014 117.382 23.0763C117.382 22.2511 117.516 21.4905 117.784 20.7946C118.063 20.0888 118.45 19.4823 118.948 18.9753C119.455 18.4583 120.046 18.0606 120.722 17.7823C121.398 17.494 122.134 17.3498 122.929 17.3498C123.725 17.3498 124.435 17.484 125.062 17.7524C125.698 18.0209 126.235 18.3788 126.672 18.8262C127.11 19.2636 127.423 19.7458 127.612 20.2727L125.807 21.1376C125.599 20.561 125.246 20.0937 124.749 19.7358C124.252 19.3779 123.645 19.199 122.929 19.199C122.233 19.199 121.617 19.363 121.08 19.6911C120.553 20.0192 120.141 20.4715 119.842 21.0481C119.554 21.6248 119.41 22.3008 119.41 23.0763C119.41 23.8517 119.559 24.5327 119.857 25.1193C120.165 25.6959 120.588 26.1483 121.125 26.4763C121.662 26.8044 122.278 26.9685 122.974 26.9685C123.541 26.9685 124.063 26.8591 124.54 26.6404C125.017 26.4117 125.4 26.0936 125.688 25.686C125.976 25.2684 126.121 24.7763 126.121 24.2096V23.3596L127.045 24.1649H122.929V22.4499H128.149V23.5684C128.149 24.4234 128.005 25.1789 127.716 25.8351C127.428 26.4913 127.035 27.043 126.538 27.4904C126.051 27.9278 125.499 28.2609 124.883 28.4895C124.266 28.7083 123.63 28.8176 122.974 28.8176ZM129.754 28.6387V17.5288H131.782V26.8492H136.539V28.6387H129.754ZM137.851 28.6387V17.5288H139.879V28.6387H137.851ZM142.016 28.6387V17.5288H143.596L149.711 25.7605L148.89 25.9246V17.5288H150.919V28.6387H149.323L143.298 20.3472L144.044 20.1832V28.6387H142.016ZM158.333 28.8176C157.538 28.8176 156.802 28.6735 156.126 28.3852C155.45 28.0968 154.859 27.6942 154.352 27.1772C153.845 26.6603 153.447 26.0538 153.159 25.3579C152.88 24.662 152.741 23.9014 152.741 23.0763C152.741 22.2511 152.875 21.4905 153.144 20.7946C153.422 20.0888 153.81 19.4823 154.307 18.9753C154.814 18.4583 155.405 18.0606 156.081 17.7823C156.757 17.494 157.493 17.3498 158.289 17.3498C159.084 17.3498 159.795 17.484 160.421 17.7524C161.057 18.0209 161.594 18.3788 162.032 18.8262C162.469 19.2636 162.782 19.7458 162.971 20.2727L161.167 21.1376C160.958 20.561 160.605 20.0937 160.108 19.7358C159.611 19.3779 159.004 19.199 158.289 19.199C157.593 19.199 156.976 19.363 156.439 19.6911C155.912 20.0192 155.5 20.4715 155.202 21.0481C154.913 21.6248 154.769 22.3008 154.769 23.0763C154.769 23.8517 154.918 24.5327 155.217 25.1193C155.525 25.6959 155.947 26.1483 156.484 26.4763C157.021 26.8044 157.637 26.9685 158.333 26.9685C158.9 26.9685 159.422 26.8591 159.899 26.6404C160.376 26.4117 160.759 26.0936 161.047 25.686C161.336 25.2684 161.48 24.7763 161.48 24.2096V23.3596L162.404 24.1649H158.289V22.4499H163.508V23.5684C163.508 24.4234 163.364 25.1789 163.075 25.8351C162.787 26.4913 162.394 27.043 161.897 27.4904C161.41 27.9278 160.858 28.2609 160.242 28.4895C159.626 28.7083 158.989 28.8176 158.333 28.8176Z" fill="#004B84"/>
</mask>
<g mask="url(#mask1_779_5834)">
<rect width="170" height="56" fill="#141414"/>
</g>
</g>
<defs>
<linearGradient id="paint0_linear_779_5834" x1="6.5" y1="39.6552" x2="45.2038" y2="39.6552" gradientUnits="userSpaceOnUse">
<stop stop-color="#99D4C0"/>
<stop offset="0.913" stop-color="#00929E"/>
<stop offset="1" stop-color="#006C6D"/>
</linearGradient>
<linearGradient id="paint1_linear_779_5834" x1="30.7846" y1="15.2366" x2="59.3731" y2="24.8492" gradientUnits="userSpaceOnUse">
<stop stop-color="#BA141A"/>
<stop offset="0.301" stop-color="#F04E3E"/>
<stop offset="0.714" stop-color="#F37021"/>
<stop offset="0.995" stop-color="#FBB040"/>
</linearGradient>
<linearGradient id="paint2_linear_779_5834" x1="25.1344" y1="32.9372" x2="25.1344" y2="6" gradientUnits="userSpaceOnUse">
<stop stop-color="#008BBF"/>
<stop offset="0.913" stop-color="#004B84"/>
<stop offset="1" stop-color="#00AEEF"/>
</linearGradient>
</defs>
</svg>
