<svg xmlns="http://www.w3.org/2000/svg" xmlns:xlink="http://www.w3.org/1999/xlink" width="45" height="47" viewBox="0 0 45 47">
  <defs>
    <clipPath id="clip-Custom_Size_1">
      <rect width="45" height="47"/>
    </clipPath>
  </defs>
  <g id="Custom_Size_1" data-name="Custom Size – 1" clip-path="url(#clip-Custom_Size_1)">
    <g id="_10" data-name="10" transform="translate(-1983.457 -509.311)">
      <path id="_Path_" data-name="&lt;Path&gt;" d="M2065.583,515.1a1.48,1.48,0,0,1,1.463,1.622c-.731,6.774-5.629,18-11.512,18-5.979,0-10.876-11.417-11.544-18.19a1.3,1.3,0,0,1,1.3-1.431" transform="translate(-40.605 -2.728)" fill="none" stroke="#16c1cc" stroke-linecap="square" stroke-width="2"/>
      <path id="_Path_2" data-name="&lt;Path&gt;" d="M2070.149,546.7c-2.544,2.449-5.565,4.1-8.809,4.1s-6.3-1.654-8.841-4.1" transform="translate(-46.412 -24.576)" fill="none" stroke="#16c1cc" stroke-linecap="square" stroke-width="2"/>
      <path id="_Path_3" data-name="&lt;Path&gt;" d="M2052.112,512.372a1.276,1.276,0,0,1-1.272,1.272,1.272,1.272,0,0,1,0-2.544A1.276,1.276,0,0,1,2052.112,512.372Z" transform="translate(-43.957 0)" fill="#16c1cc" stroke="#16c1cc" stroke-width="1"/>
      <path id="_Path_4" data-name="&lt;Path&gt;" d="M1996.312,550.472a1.256,1.256,0,0,1-2.512,0,1.256,1.256,0,1,1,2.512,0Z" transform="translate(-5.388 -26.29)" fill="#16c1cc" stroke="#16c1cc" stroke-width="1"/>
      <path id="_Path_5" data-name="&lt;Path&gt;" d="M2105.644,512.372a1.272,1.272,0,1,1-1.272-1.272A1.276,1.276,0,0,1,2105.644,512.372Z" transform="translate(-80.92 0)" fill="#16c1cc" stroke="#16c1cc" stroke-width="1"/>
      <path id="_Path_6" data-name="&lt;Path&gt;" d="M2024.036,575.231v21.148a3.164,3.164,0,1,1-6.328,0v-8.173a3.15,3.15,0,0,0-3.212-3.148h-.223a3.176,3.176,0,0,0-3.148,3.148v3.5a3.162,3.162,0,0,1-3.148,3.18h-.127a3.189,3.189,0,0,1-3.18-3.18v-5.47a3.447,3.447,0,0,0-3.434-3.466,3.42,3.42,0,0,1-3.435-3.435V574.5" transform="translate(-8.116 -44.317)" fill="none" stroke="#16c1cc" stroke-linecap="square" stroke-width="2"/>
      <path id="_Path_7" data-name="&lt;Path&gt;" d="M1993.437,545.084a3.768,3.768,0,1,1-3.752-3.784A3.759,3.759,0,0,1,1993.437,545.084Z" transform="translate(0 -20.871)" fill="none" stroke="#16c1cc" stroke-linecap="square" stroke-width="2"/>
    </g>
  </g>
</svg>
