<?xml version="1.0" standalone="no"?>
<!DOCTYPE svg PUBLIC "-//W3C//DTD SVG 20010904//EN"
 "http://www.w3.org/TR/2001/REC-SVG-20010904/DTD/svg10.dtd">
<svg version="1.0" xmlns="http://www.w3.org/2000/svg"
 width="512.000000pt" height="502.000000pt" viewBox="0 0 512.000000 502.000000"
 preserveAspectRatio="xMidYMid meet">

<g transform="translate(0.000000,502.000000) scale(0.100000,-0.100000)"
fill="#BD3723" stroke="none">
<path d="M3931 4993 c-30 -25 -961 -1937 -961 -1974 0 -43 49 -93 91 -93 48 1
1996 788 2029 820 43 42 34 82 -47 219 -226 382 -556 732 -923 981 -103 70
-148 81 -189 47z m289 -367 c110 -88 335 -316 429 -435 81 -102 228 -317 224
-328 -1 -4 -42 -23 -92 -44 l-91 -38 -36 57 c-160 251 -444 552 -688 728 l-28
20 46 92 46 92 58 -42 c31 -23 91 -69 132 -102z m-287 -283 c95 -75 271 -247
361 -353 72 -84 212 -278 205 -284 -7 -5 -713 -289 -731 -293 -11 -4 -35 15
-72 54 -57 62 -123 104 -193 122 -38 10 -41 14 -34 34 21 53 381 777 386 777
3 0 38 -26 78 -57z m-481 -943 c37 -11 98 -54 98 -70 0 -7 -50 -29 -232 -101
l-47 -18 9 23 c21 56 80 165 92 169 21 9 40 8 80 -3z"/>
<path d="M3933 4068 c-12 -6 -29 -26 -38 -45 -31 -65 13 -133 86 -133 74 0
119 73 85 138 -26 50 -79 66 -133 40z"/>
<path d="M2010 4585 c-534 -72 -1014 -316 -1379 -701 -327 -345 -534 -776
-607 -1259 -25 -164 -25 -474 0 -640 98 -659 457 -1228 1001 -1590 387 -258
810 -385 1277 -385 460 0 886 128 1266 380 840 558 1217 1587 938 2558 -55
191 -82 232 -149 232 -12 0 -436 -157 -942 -349 -506 -192 -922 -347 -924
-345 -3 3 241 533 686 1489 185 396 185 378 -14 460 -144 58 -315 107 -473
135 -161 29 -520 36 -680 15z m590 -201 c199 -29 480 -110 480 -139 0 -10 -63
-154 -75 -173 -1 -1 -50 14 -108 33 -390 130 -816 128 -1212 -6 -511 -174
-939 -577 -1140 -1076 -103 -253 -138 -437 -138 -718 0 -218 16 -341 68 -520
212 -735 841 -1270 1605 -1365 109 -13 331 -13 440 0 666 83 1239 503 1510
1108 178 397 214 829 105 1256 -13 55 -24 100 -22 101 19 15 180 66 186 59 13
-13 58 -195 76 -304 23 -136 30 -391 16 -535 -68 -667 -437 -1251 -1011 -1601
-229 -139 -503 -237 -785 -280 -149 -22 -442 -22 -590 0 -922 141 -1622 829
-1782 1751 -24 141 -24 519 0 660 53 303 160 577 324 825 449 681 1247 1040
2053 924z m-4 -404 c142 -24 320 -81 316 -101 -2 -8 -164 -358 -359 -779 -258
-555 -356 -775 -357 -802 -1 -53 39 -93 91 -92 23 0 144 41 299 100 l261 100
57 -63 c40 -43 77 -72 124 -95 62 -31 73 -33 172 -33 93 0 112 3 162 27 149
70 254 248 234 398 l-6 47 165 63 c91 35 167 61 169 59 7 -7 37 -130 52 -214
22 -115 29 -352 15 -470 -34 -287 -124 -534 -281 -768 -81 -122 -247 -301
-365 -392 -617 -481 -1471 -481 -2090 0 -44 34 -128 112 -186 172 -585 606
-628 1561 -100 2228 57 72 204 216 286 280 256 199 558 321 886 355 115 12
320 3 455 -20z m804 -1395 c0 -37 -34 -97 -74 -133 -43 -37 -104 -56 -156 -47
-43 7 -122 54 -117 70 3 10 309 132 335 134 6 1 12 -10 12 -24z"/>
<path d="M1993 3783 c-61 -21 -136 -92 -164 -155 -52 -117 -22 -257 72 -342
112 -101 282 -103 393 -5 100 88 130 234 73 352 -34 67 -101 130 -164 151 -57
20 -154 19 -210 -1z m180 -213 c37 -41 37 -89 -2 -132 -24 -27 -36 -33 -71
-33 -82 0 -129 96 -79 159 43 54 105 57 152 6z"/>
<path d="M1283 3186 c-108 -35 -194 -114 -246 -224 -28 -60 -31 -77 -31 -157
0 -80 3 -97 31 -157 42 -90 109 -160 192 -201 61 -30 72 -32 171 -32 93 0 112
3 162 27 163 76 261 262 229 429 -26 130 -113 244 -229 297 -69 32 -209 41
-279 18z m170 -187 c80 -22 147 -111 147 -194 0 -103 -100 -205 -200 -205 -66
0 -160 65 -187 127 -17 42 -17 115 1 156 19 43 75 96 122 112 48 17 68 18 117
4z"/>
<path d="M1035 2176 c-32 -32 -40 -69 -25 -107 17 -39 46 -59 90 -59 44 0 73
20 90 59 26 64 -20 131 -90 131 -30 0 -47 -6 -65 -24z"/>
<path d="M1835 2176 c-32 -32 -40 -69 -25 -107 17 -39 46 -59 90 -59 44 0 73
20 90 59 26 64 -20 131 -90 131 -30 0 -47 -6 -65 -24z"/>
<path d="M3435 1976 c-32 -32 -40 -69 -25 -107 17 -39 46 -59 90 -59 44 0 73
20 90 59 26 64 -20 131 -90 131 -30 0 -47 -6 -65 -24z"/>
<path d="M1593 1783 c-61 -21 -136 -92 -164 -155 -35 -79 -33 -174 4 -250 110
-225 424 -225 534 -1 57 118 27 264 -73 352 -25 22 -66 47 -91 55 -57 20 -154
19 -210 -1z m180 -213 c37 -41 37 -89 -2 -132 -24 -27 -36 -33 -71 -33 -82 0
-129 96 -79 159 43 54 105 57 152 6z"/>
<path d="M2683 1786 c-140 -46 -247 -168 -274 -314 -32 -169 67 -354 229 -430
50 -24 69 -27 162 -27 93 0 112 3 162 27 163 76 261 262 229 429 -26 130 -113
244 -229 297 -69 32 -209 41 -279 18z m170 -187 c80 -22 147 -111 147 -194 0
-103 -100 -205 -200 -205 -66 0 -160 65 -187 127 -17 42 -17 115 1 156 19 43
75 96 122 112 48 17 68 18 117 4z"/>
<path d="M2035 976 c-32 -32 -40 -69 -25 -107 17 -39 46 -59 90 -59 44 0 73
20 90 59 26 64 -20 131 -90 131 -30 0 -47 -6 -65 -24z"/>
</g>
</svg>
