<svg width="170" height="56" viewBox="0 0 170 56" fill="none" xmlns="http://www.w3.org/2000/svg">
<mask id="mask0_779_5835" style="mask-type:alpha" maskUnits="userSpaceOnUse" x="0" y="0" width="170" height="56">
<rect width="170" height="56" fill="#D9D9D9"/>
</mask>
<g mask="url(#mask0_779_5835)">
<mask id="mask1_779_5835" style="mask-type:alpha" maskUnits="userSpaceOnUse" x="11" y="8" width="148" height="42">
<path fill-rule="evenodd" clip-rule="evenodd" d="M16.791 49.9997L60.8772 18.7344L11 41.138C12.1149 44.7614 13.9388 47.6423 16.7912 50" fill="#D60314"/>
<path fill-rule="evenodd" clip-rule="evenodd" d="M16.5759 34.063L58.2485 18.6027L58.6771 18.4372C56.6292 14.921 53.6043 12.0751 49.97 10.245C46.3356 8.41498 42.2481 7.67955 38.2038 8.12803C34.1594 8.57652 30.3323 10.1896 27.1872 12.7715C24.0421 15.3533 21.7143 18.7929 20.4865 22.6723L23.5478 22.2185C24.7893 19.1177 26.8567 16.4163 29.5253 14.4076C32.194 12.3989 35.3619 11.1598 38.6852 10.8246C42.0085 10.4895 45.3601 11.0712 48.3761 12.5067C51.392 13.9421 53.9571 16.1764 55.7927 18.9669L17.0362 25.1379C16.5415 26.9051 16.2798 28.7293 16.2576 30.5643C16.2408 31.7385 16.3475 32.9112 16.5759 34.063Z" fill="#081C4A"/>
<path fill-rule="evenodd" clip-rule="evenodd" d="M53.4373 41.9165C51.7426 43.6155 49.7289 44.9629 47.5118 45.8812C45.2947 46.7995 42.9181 47.2706 40.5183 47.2674C40.0732 47.2674 39.6313 47.2516 39.1926 47.2201L57.8754 23.278C58.9307 26.4913 59.0746 29.9343 58.2912 33.2244C57.5077 36.5146 55.8275 39.5232 53.4373 41.916M29.6908 45.5905L28.7275 46.3789C32.4741 48.9173 36.9401 50.178 41.461 49.9736C45.9818 49.7691 50.3159 48.1104 53.818 45.2442C57.3201 42.378 59.8032 38.4576 60.8975 34.0664C61.9919 29.6752 61.6391 25.048 59.8916 20.8735L57.6716 22.6913L36.0744 40.3675L30.9486 44.5626L29.6908 45.5905Z" fill="#F56905"/>
<path d="M74.5017 27.9243H79.4356V30.73H70.7676V14.6685H74.5017V27.9243Z" fill="#081C4A"/>
<path d="M88.9725 19.0156C88.9725 18.2869 88.7689 17.762 88.3619 17.4409C87.9157 17.107 87.3682 16.9368 86.8113 16.9588C86.5312 16.9585 86.2519 16.9871 85.9776 17.0441C85.7179 17.0957 85.4708 17.1977 85.2503 17.3444C85.0332 17.493 84.859 17.696 84.745 17.9331C84.6095 18.232 84.5452 18.5583 84.5571 18.8862V26.6811C84.5438 26.9978 84.6168 27.3122 84.7684 27.5906C84.9028 27.8197 85.0926 28.0113 85.3205 28.1477C85.5496 28.2842 85.7996 28.3821 86.0605 28.4373C86.3073 28.4924 86.5591 28.5212 86.8119 28.5232C87.0845 28.5242 87.3565 28.4954 87.6228 28.4373C87.8712 28.3843 88.1065 28.2825 88.3152 28.1378C88.5252 27.9876 88.6913 27.7841 88.7965 27.5483C88.9244 27.2476 88.9847 26.9225 88.9731 26.5959L88.9725 19.0156ZM86.9052 14.5181C88.5652 14.5181 89.8454 14.8893 90.7457 15.6317C91.646 16.3741 92.0963 17.4592 92.0966 18.8869V26.5965C92.0966 29.4799 90.2645 30.9219 86.6003 30.9224C85.9093 30.9286 85.221 30.835 84.5568 30.6445C83.9652 30.4756 83.4112 30.1959 82.9241 29.8202C82.4638 29.4578 82.0906 28.9968 81.8319 28.4711C81.5549 27.8861 81.4182 27.2444 81.4327 26.5973V18.8876C81.4327 17.4172 81.8946 16.3215 82.8186 15.6006C83.7426 14.8797 85.1048 14.5189 86.9052 14.5181Z" fill="#081C4A"/>
<path d="M100.741 16.9805C100.457 16.9807 100.173 17.0094 99.8951 17.0661C99.6294 17.1168 99.3749 17.2147 99.1437 17.3553C98.9187 17.4969 98.736 17.6966 98.6151 17.9334C98.4717 18.23 98.4032 18.5573 98.4154 18.8866L98.4628 26.6814C98.4434 26.971 98.5044 27.2602 98.639 27.5173C98.7737 27.7743 98.9767 27.9891 99.2257 28.1381C99.4482 28.2788 99.6951 28.3766 99.9536 28.4265C100.197 28.4749 100.445 28.5001 100.693 28.5017C100.97 28.5026 101.246 28.4739 101.516 28.4159C101.767 28.3653 102.006 28.2672 102.22 28.1268C102.432 27.9825 102.598 27.7823 102.702 27.5487C102.83 27.2478 102.89 26.9227 102.878 26.5962V24.8399H100.67V22.2058H106.003V26.5962C106.003 29.4796 104.186 30.9215 100.553 30.9221C99.8501 30.9287 99.15 30.8352 98.4736 30.6442C97.878 30.4772 97.32 30.1974 96.83 29.8199C96.3693 29.4576 95.9958 28.9966 95.7369 28.4708C95.4601 27.8857 95.3235 27.2441 95.338 26.597V18.8873C95.338 17.4305 95.7998 16.3382 96.7235 15.6103C97.6471 14.8824 99.0019 14.5185 100.788 14.5186C102.448 14.5186 103.732 14.8897 104.64 15.6322C105.548 16.3746 106.002 17.4596 106.003 18.8873V20.2151H102.878V19.0377C102.878 18.2952 102.67 17.7669 102.256 17.4529C101.817 17.1313 101.284 16.9654 100.74 16.9817" fill="#081C4A"/>
<path d="M112.98 14.6685H109.434V30.73H112.98V14.6685Z" fill="#081C4A"/>
<path d="M123.222 20.2582V18.7586C123.222 18.1879 123.042 17.7453 122.682 17.4308C122.31 17.1129 121.833 16.9451 121.344 16.9602C120.812 16.9399 120.29 17.1025 119.864 17.4209C119.472 17.7275 119.276 18.2594 119.276 19.0164C119.268 19.3022 119.32 19.5865 119.428 19.851C119.535 20.0855 119.696 20.2911 119.898 20.451C120.143 20.6418 120.411 20.8003 120.697 20.9223C121.017 21.0639 121.406 21.222 121.86 21.3929C122.329 21.5788 122.842 21.7966 123.399 22.0463C123.955 22.2966 124.473 22.6245 124.937 23.0204C125.418 23.4334 125.819 23.9304 126.123 24.4871C126.461 25.1377 126.627 25.8642 126.605 26.5971C126.605 28.0246 126.17 29.1023 125.301 29.8301C124.432 30.5579 123.113 30.9222 121.343 30.923C120.437 30.9433 119.533 30.8423 118.654 30.6227C118.011 30.4625 117.423 30.1334 116.95 29.6696C116.508 29.1986 116.2 28.6183 116.058 27.9885C115.871 27.1668 115.784 26.3256 115.8 25.4832H119.182C119.177 25.9384 119.208 26.3933 119.276 26.8434C119.321 27.173 119.433 27.4898 119.605 27.7747C119.76 28.0156 119.985 28.2026 120.25 28.3099C120.592 28.4353 120.955 28.4934 121.32 28.481C121.81 28.5019 122.29 28.3331 122.659 28.0096C123.003 27.6963 123.175 27.2255 123.175 26.5971C123.183 26.2456 123.098 25.8981 122.929 25.5901C122.754 25.2939 122.523 25.0356 122.247 24.8303C121.929 24.5914 121.586 24.3868 121.225 24.2198C120.834 24.0346 120.411 23.8559 119.957 23.6838C119.327 23.4471 118.714 23.1645 118.125 22.8384C117.65 22.5791 117.221 22.2424 116.856 21.8422C116.527 21.471 116.276 21.0378 116.117 20.568C115.941 20.0181 115.858 19.4429 115.87 18.8657C115.861 18.2479 115.994 17.6363 116.258 17.0775C116.516 16.5424 116.894 16.0736 117.362 15.7073C117.877 15.3095 118.463 15.0118 119.088 14.8296C119.82 14.6139 120.58 14.509 121.343 14.5187C122.956 14.5187 124.221 14.8863 125.137 15.6217C126.053 16.357 126.511 17.4383 126.511 18.8657V20.2583L123.222 20.2582Z" fill="#081C4A"/>
<path d="M138.045 14.6685V17.2168H134.756V30.73H131.538V17.2168H128.25V14.6685H138.045Z" fill="#081C4A"/>
<path d="M144.6 14.6685H141.053V30.73H144.6V14.6685Z" fill="#081C4A"/>
<path d="M158.318 25.4182V26.5962C158.318 28.0522 157.895 29.1371 157.049 29.8507C156.204 30.5644 154.865 30.9215 153.033 30.9221C152.334 30.9293 151.638 30.8358 150.966 30.6442C150.377 30.4772 149.826 30.1972 149.344 29.8199C148.892 29.4583 148.53 28.9964 148.288 28.4708C148.025 27.8816 147.897 27.2417 147.911 26.597V18.8656C147.911 17.4094 148.361 16.3209 149.262 15.6003C150.162 14.8798 151.497 14.5192 153.267 14.5186C154.927 14.5186 156.184 14.8933 157.037 15.6427C157.89 16.3921 158.317 17.4664 158.317 18.8656V20.0655H155.24V19.0156C155.24 18.2869 155.052 17.762 154.676 17.4409C154.266 17.1077 153.748 16.9362 153.22 16.9588C152.936 16.9572 152.653 16.9858 152.375 17.0441C152.125 17.0941 151.889 17.1965 151.681 17.3444C151.479 17.4948 151.317 17.6936 151.211 17.9225C151.083 18.2194 151.023 18.5412 151.036 18.8643V26.681C151.023 26.9962 151.091 27.3095 151.235 27.5905C151.358 27.8161 151.536 28.0075 151.752 28.1475C151.964 28.2837 152.199 28.3817 152.445 28.4371C152.684 28.493 152.928 28.5218 153.173 28.523C153.441 28.5245 153.709 28.4957 153.971 28.4371C154.209 28.3858 154.434 28.2836 154.629 28.1376C154.826 27.9829 154.98 27.7798 155.075 27.5482C155.195 27.2453 155.251 26.9211 155.24 26.5957V25.4178L158.318 25.4182Z" fill="#081C4A"/>
<path d="M120.465 39.8384V43.3834H118.869V39.8384L116.828 35.5867H118.549L119.666 38.1133L120.762 35.5867H122.484L120.465 39.8384ZM114.501 35.5867V43.3834H113.076L110.442 38.1854V43.3834H109.028V35.5867H110.442V35.6072L113.076 40.8151V35.5867H114.501ZM104.74 40.5871L103.999 37.9254L103.258 40.5871H104.74ZM105.093 41.8552H102.927L102.517 43.3837H100.988L103.28 35.587H104.728L107.055 43.3837H105.526L105.093 41.8552ZM96.9736 39.4126C97.212 39.4208 97.4499 39.3853 97.6756 39.3081C97.8346 39.2521 97.9761 39.1552 98.0857 39.0271C98.1825 38.9062 98.2491 38.7638 98.2799 38.612C98.3149 38.4444 98.3322 38.2736 98.3315 38.1025C98.3337 37.9325 98.3122 37.763 98.2679 37.5989C98.2294 37.4545 98.1527 37.3233 98.0458 37.2191C97.9206 37.1042 97.7701 37.0204 97.6064 36.9747C97.3709 36.9097 97.1271 36.8799 96.8828 36.8865H96.2323V39.4121L96.9736 39.4126ZM97.1562 35.5867C97.6026 35.5721 98.0471 35.6499 98.4619 35.8153C98.7793 35.9467 99.0622 36.1492 99.2888 36.4073C99.4925 36.6476 99.6404 36.93 99.722 37.2342C99.8057 37.5411 99.8479 37.8579 99.8476 38.176C99.8492 38.5193 99.7992 38.8608 99.6992 39.1892C99.6049 39.5034 99.448 39.7953 99.2379 40.0472C99.0202 40.3025 98.7473 40.505 98.4397 40.6391C98.0773 40.7924 97.6865 40.8669 97.2932 40.8577H96.2323V43.3839H94.6366V35.5871H97.1562V35.5867ZM92.0819 35.5867V43.3834H90.4626V38.6839L89.1512 41.8037H88.3871L87.0642 38.6839V43.3834H85.4446V35.5867H87.0642V35.6072L88.7634 39.3498L90.4626 35.6072V35.5867H92.0819ZM81.6361 37.6967C81.6361 37.3436 81.5373 37.0891 81.3397 36.9333C81.1232 36.7706 80.8572 36.6878 80.5867 36.6989C80.4508 36.6991 80.3152 36.713 80.182 36.7406C80.0557 36.7653 79.9355 36.8147 79.8283 36.886C79.7232 36.9585 79.6387 37.057 79.5832 37.1719C79.5174 37.3172 79.4863 37.4758 79.4924 37.6351V41.4186C79.4859 41.5727 79.5212 41.7256 79.5946 41.8613C79.6599 41.9724 79.7522 42.0653 79.8631 42.1311C79.9743 42.1976 80.0957 42.2451 80.2225 42.2716C80.3421 42.2979 80.4642 42.3117 80.5867 42.3126C80.7192 42.3131 80.8513 42.2994 80.9809 42.2716C81.1015 42.2464 81.2157 42.1969 81.3165 42.126C81.4182 42.053 81.4989 41.9544 81.5504 41.8403C81.6123 41.6939 81.6416 41.5359 81.6361 41.3771V37.6967ZM80.6325 35.5132C81.4383 35.5132 82.0598 35.6933 82.497 36.0536C82.9342 36.4138 83.1529 36.9406 83.1529 37.6341V41.3766C83.1529 42.7764 82.2634 43.4763 80.4845 43.4763C80.1489 43.4793 79.8146 43.4337 79.4921 43.3408C79.2047 43.2594 78.9357 43.1235 78.6996 42.9404C78.4759 42.7648 78.2946 42.541 78.1693 42.2857C78.0347 42.0018 77.9682 41.6904 77.9753 41.3763V37.6337C77.9753 36.9199 78.1995 36.3881 78.648 36.0384C79.0965 35.6887 79.7581 35.5136 80.6329 35.5132H80.6325ZM75.8199 40.8052V41.3772C75.8199 42.0834 75.6146 42.6102 75.2039 42.9574C74.7932 43.3047 74.1433 43.478 73.2541 43.4773C72.9148 43.4807 72.5768 43.435 72.2505 43.3417C71.9645 43.261 71.697 43.1249 71.4631 42.9414C71.2438 42.7658 71.0682 42.5416 70.9502 42.2866C70.8235 42.0006 70.7613 41.6901 70.7681 41.3772V37.6238C70.7681 36.917 70.9865 36.3889 71.4233 36.0393C71.8601 35.6898 72.5086 35.5144 73.3686 35.5132C74.1744 35.5132 74.7845 35.6951 75.1991 36.0591C75.6137 36.423 75.8207 36.9446 75.8202 37.6238V38.2065H74.326V37.697C74.326 37.344 74.2352 37.0889 74.0526 36.9336C73.8535 36.7713 73.6017 36.6879 73.3452 36.6992C73.2073 36.6988 73.0698 36.7127 72.9348 36.7409C72.8137 36.7645 72.6992 36.8142 72.5991 36.8863C72.5005 36.9594 72.4218 37.056 72.3702 37.1673C72.3084 37.3114 72.2794 37.4675 72.2853 37.6241V41.4185C72.279 41.5719 72.3123 41.7243 72.3819 41.8611C72.442 41.9703 72.5281 42.0631 72.6326 42.131C72.7359 42.1971 72.85 42.2446 72.9697 42.2715C73.0855 42.2982 73.2039 42.312 73.3228 42.3124C73.4532 42.3132 73.5832 42.2994 73.7106 42.2715C73.8264 42.2466 73.9355 42.197 74.0302 42.1259C74.1253 42.0505 74.1997 41.9521 74.2464 41.8401C74.3041 41.6927 74.331 41.5351 74.3256 41.3769V40.8049L75.8199 40.8052Z" fill="#081C4A"/>
</mask>
<g mask="url(#mask1_779_5835)">
<rect width="170" height="56" fill="#141414"/>
</g>
</g>
</svg>
