<svg xmlns="http://www.w3.org/2000/svg" xmlns:xlink="http://www.w3.org/1999/xlink" width="128" height="128" viewBox="0 0 128 128">
  <defs>
    <clipPath id="clip-path">
      <rect id="Rectangle_6" data-name="Rectangle 6" width="128" height="128"/>
    </clipPath>
  </defs>
  <g id="BED" clip-path="url(#clip-path)">
    <path id="Path_235" data-name="Path 235" d="M416.25,63.141h-2.258V23.483a5.923,5.923,0,0,0-1.341-11.694H401.833a5.923,5.923,0,0,0-1.462,11.663,11.242,11.242,0,0,1-11.112,9.673H330.741a11.241,11.241,0,0,1-11.112-9.673,5.923,5.923,0,0,0-1.462-11.663H307.349a5.923,5.923,0,0,0-1.341,11.694V63.141H303.75a7.759,7.759,0,0,0-7.75,7.75v43.57a1.75,1.75,0,0,0,1.75,1.75h10a1.75,1.75,0,0,0,1.75-1.75,11.246,11.246,0,0,1,11.233-11.233h78.534A11.246,11.246,0,0,1,410.5,114.461a1.749,1.749,0,0,0,1.75,1.75h10a1.749,1.749,0,0,0,1.75-1.75V70.891A7.759,7.759,0,0,0,416.25,63.141ZM399.406,17.715a2.429,2.429,0,0,1,2.427-2.426h10.818a2.427,2.427,0,1,1,0,4.854H401.833a2.43,2.43,0,0,1-2.427-2.427Zm-94.484,0a2.429,2.429,0,0,1,2.427-2.426h10.818a2.427,2.427,0,1,1,0,4.854H307.349A2.43,2.43,0,0,1,304.922,17.715Zm4.586,5.927h6.6a14.755,14.755,0,0,0,14.63,12.983h58.518a14.756,14.756,0,0,0,14.63-12.983h6.6v39.5h-7.617v-8.17a9.761,9.761,0,0,0-9.75-9.75H368a9.741,9.741,0,0,0-8,4.192,9.741,9.741,0,0,0-8-4.192H326.875a9.761,9.761,0,0,0-9.75,9.75v8.169h-7.617Zm11.117,39.5v-8.17a6.257,6.257,0,0,1,6.25-6.25H352a6.257,6.257,0,0,1,6.25,6.25v8.169Zm41.125-8.169a6.257,6.257,0,0,1,6.25-6.25h25.125a6.257,6.257,0,0,1,6.25,6.25v8.169H361.75ZM299.5,70.891a4.255,4.255,0,0,1,4.25-4.25h112.5a4.255,4.255,0,0,1,4.25,4.25V84.724h-121Zm121,41.82h-6.6a14.754,14.754,0,0,0-14.629-12.983H320.733a14.756,14.756,0,0,0-14.63,12.983h-6.6V88.224h121Z" transform="translate(-296 11.711)"/>
  </g>
</svg>
