<svg width="54" height="54" viewBox="0 0 54 54" fill="none" xmlns="http://www.w3.org/2000/svg">
<path d="M27.0007 9.95903e-09C32.3408 0.000145043 37.5608 1.58377 42.0008 4.55062C46.4409 7.51748 49.9014 11.7343 51.9449 16.6679C53.9883 21.6015 54.523 27.0302 53.4812 32.2676C52.4393 37.505 49.8678 42.3159 46.0919 46.0919C42.3159 49.8678 37.505 52.4393 32.2676 53.4812C27.0302 54.523 21.6015 53.9883 16.6679 51.9449C11.7343 49.9014 7.51748 46.4409 4.55062 42.0008C1.58377 37.5608 0.000145043 32.3408 9.95903e-09 27.0007C-9.62926e-05 23.4549 0.698234 19.9438 2.05511 16.6679C3.41199 13.392 5.40085 10.4154 7.90812 7.90812C10.4154 5.40085 13.392 3.41199 16.6679 2.05511C19.9438 0.698234 23.4549 -9.62926e-05 27.0007 9.95903e-09Z" fill="#F0B90B"/>
<path d="M20.0139 24.0998L24.102 20.0248L24.9636 19.1632L27.0066 17.1203L33.9641 24.0998L38.0141 20.0248L27.0066 8.99972L15.9631 20.0248L20.0139 24.0998Z" fill="white"/>
<path d="M27.0117 22.9273L22.9456 26.9934L27.0117 31.0596L31.0778 26.9934L27.0117 22.9273Z" fill="white"/>
<path d="M33.9641 29.9097L27.0044 36.8694L24.561 34.4261L24.1108 33.9758L20.0131 29.9097L15.9631 33.9597L27.0066 44.9848L38.0141 33.9597L33.9641 29.9097Z" fill="white"/>
<path d="M13.0659 22.939L8.99976 27.0051L13.0659 31.0713L17.132 27.0051L13.0659 22.939Z" fill="white"/>
<path d="M40.9361 22.9362L36.8694 27.0029L40.9361 31.0697L45.0029 27.0029L40.9361 22.9362Z" fill="white"/>
</svg>
