<svg xmlns="http://www.w3.org/2000/svg" viewBox="0 0 32 32"><g id="car"><path d="M28.5,14.91l1.21-1.2a1,1,0,0,0-1.42-1.42l-.53.53-.49-4.43A3.8,3.8,0,0,0,23.48,5h-15A3.8,3.8,0,0,0,4.73,8.39l-.49,4.43-.53-.53a1,1,0,0,0-1.42,1.42l1.21,1.2A4,4,0,0,0,2,18v6a4,4,0,0,0,8,0H22a4,4,0,0,0,8,0V18A4,4,0,0,0,28.5,14.91ZM8.52,7h15a1.8,1.8,0,0,1,1.8,1.61l.6,5.39H6.12l.6-5.39A1.8,1.8,0,0,1,8.52,7ZM6,26a2,2,0,0,1-2-2H8A2,2,0,0,1,6,26Zm3-4H4V18a2,2,0,0,1,2-2H26a2,2,0,0,1,2,2v4H9Zm17,4a2,2,0,0,1-2-2h4A2,2,0,0,1,26,26Z"/><path d="M11,18H8a1,1,0,0,0,0,2h3a1,1,0,0,0,0-2Z"/><path d="M25,19a1,1,0,0,0-1-1H21a1,1,0,0,0,0,2h3A1,1,0,0,0,25,19Z"/></g></svg>