<svg xmlns="http://www.w3.org/2000/svg" viewBox="0 0 32 32"><g id="hdmi_port" data-name="hdmi port"><path d="M27.57,6H4.43A2.43,2.43,0,0,0,2,8.43V23.57A2.43,2.43,0,0,0,4.43,26H27.57A2.43,2.43,0,0,0,30,23.57V8.43A2.43,2.43,0,0,0,27.57,6ZM28,23.57a.43.43,0,0,1-.43.43H4.43A.43.43,0,0,1,4,23.57V8.43A.43.43,0,0,1,4.43,8H27.57a.43.43,0,0,1,.43.43Z"/><path d="M24.43,13H22.54L21,10.7a1.56,1.56,0,0,0-1.31-.7H12.31a1.56,1.56,0,0,0-1.31.7L9.46,13H7.57A1.58,1.58,0,0,0,6,14.57v5.86A1.58,1.58,0,0,0,7.57,22H24.43A1.58,1.58,0,0,0,26,20.43V14.57A1.58,1.58,0,0,0,24.43,13ZM24,20H8V15H9.69A1.56,1.56,0,0,0,11,14.3L12.54,12h6.92L21,14.3a1.56,1.56,0,0,0,1.31.7H24Z"/><path d="M21,17H20V16a1,1,0,0,0-2,0v1H17V16a1,1,0,0,0-2,0v1H14V16a1,1,0,0,0-2,0v1H11a1,1,0,0,0,0,2H21a1,1,0,0,0,0-2Z"/></g></svg>