<svg id="icons" xmlns="http://www.w3.org/2000/svg" viewBox="0 0 64 64"><defs><style>.cls-1{fill:none;stroke:#c19e62;stroke-linecap:round;stroke-linejoin:round;stroke-width:2px;}</style></defs><title>36</title><g id="agreement_3"><path class="cls-1" d="M45.88581,51.10125l5.89479.00611c0,1.55928-1.319,4.46462-2.94834,4.46462H16.95266"/><path class="cls-1" d="M45.88752,34.83871V11.25229A2.87159,2.87159,0,0,0,42.935,8.43789H11.0632a2.87824,2.87824,0,0,1,2.95248,2.8144V52.74622a2.86834,2.86834,0,0,0,2.93123,2.825h.01062c1.63554-.01062,2.94185-2.89937,2.94185-4.47119H45.88752V37.9756"/><path class="cls-1" d="M11.05822,8.428S4.80575,8.39105,4,13.70879H14.00437"/><line class="cls-1" x1="19.41448" y1="15.86115" x2="41.79367" y2="15.86115"/><line class="cls-1" x1="19.41448" y1="20.07452" x2="41.79367" y2="20.07452"/><line class="cls-1" x1="19.41448" y1="24.28788" x2="25.00928" y2="24.28788"/><line class="cls-1" x1="19.41448" y1="28.50125" x2="25.00928" y2="28.50125"/><line class="cls-1" x1="19.41448" y1="32.71462" x2="25.00928" y2="32.71462"/><rect class="cls-1" x="30.41352" y="31.68004" width="10.74054" height="9.98022" transform="translate(72.45394 0.88635) rotate(90)"/><rect class="cls-1" x="34.18284" y="36.66857" width="3.21371" height="13.95741" rx="1" transform="translate(79.43697 7.85758) rotate(90)"/><rect class="cls-1" x="34.18284" y="22.71432" width="3.21371" height="13.95741" rx="1" transform="translate(65.48272 -6.09667) rotate(90)"/><path class="cls-1" d="M58.40068,37.9756H40.77879l-.00488-3.13689H58.40068A1.58405,1.58405,0,0,1,60,36.40955h0A1.58417,1.58417,0,0,1,58.40068,37.9756Z"/></g></svg>