<svg xmlns="http://www.w3.org/2000/svg" xmlns:xlink="http://www.w3.org/1999/xlink" width="45" height="47" viewBox="0 0 45 47">
  <defs>
    <clipPath id="clip-Custom_Size_1">
      <rect width="45" height="47"/>
    </clipPath>
  </defs>
  <g id="Custom_Size_1" data-name="Custom Size – 1" clip-path="url(#clip-Custom_Size_1)">
    <g id="_11" data-name="11" transform="translate(-891.184 -819.547)">
      <path id="_Path_" data-name="&lt;Path&gt;" d="M911.407,859.545h-7.66a3.99,3.99,0,0,1-4.011-4.011v-8.173H894.7l4.916-10.947a16.469,16.469,0,0,1,32.871-.3,15.784,15.784,0,0,1-1.779,8.836" transform="translate(0)" fill="none" stroke="#16c1cc" stroke-linecap="square" stroke-width="2"/>
      <path id="_Path_2" data-name="&lt;Path&gt;" d="M1005.7,930.164V914" transform="translate(-77.525 -65.071)" fill="none" stroke="#16c1cc" stroke-linecap="square" stroke-width="2"/>
      <path id="_Path_3" data-name="&lt;Path&gt;" d="M950.1,949.2v5.549" transform="translate(-38.693 -89.655)" fill="none" stroke="#16c1cc" stroke-linecap="square" stroke-width="2"/>
      <path id="_Path_4" data-name="&lt;Path&gt;" d="M948.717,849.01c-.09,2.051-.935,5.519-1.387,8.323a1.166,1.166,0,0,1-1.146,1,1.2,1.2,0,0,1-1.206-.965c-.271-1.508-.935-4.132-2.051-3.8a3.039,3.039,0,0,1-2.413-1.236,2.981,2.981,0,0,1-2.171.965,3.081,3.081,0,0,1-2.624-1.538,2.825,2.825,0,0,1-1.357.332,3.037,3.037,0,0,1-2.955-2.563,2.847,2.847,0,0,1-2.292.241,3.094,3.094,0,0,1-2.081-2.413,4.3,4.3,0,0,0,1.357-4.674,3.1,3.1,0,0,1,1.6-2.262,2.875,2.875,0,0,1,2.413-.181,2.986,2.986,0,0,1,5.338-1.116,1.746,1.746,0,0,1,.3-.362,3,3,0,0,1,4.252,0,2.759,2.759,0,0,1,.724,1.206,3.018,3.018,0,0,1,3.83.332,2.973,2.973,0,0,1,.422,3.679,3.107,3.107,0,0,1,1.448.784A3,3,0,0,1,948.717,849.01Z" transform="translate(-22.563 -11.903)" fill="none" stroke="#16c1cc" stroke-linecap="square" stroke-width="2"/>
      <path id="_Path_5" data-name="&lt;Path&gt;" d="M962.032,842a3.151,3.151,0,0,0,.573,3.378" transform="translate(-46.855 -14.784)" fill="none" stroke="#16c1cc" stroke-linecap="square" stroke-width="2"/>
      <path id="_Path_6" data-name="&lt;Path&gt;" d="M944.9,845.7a1.7,1.7,0,0,1,1.176,1.84" transform="translate(-35.061 -17.368)" fill="none" stroke="#16c1cc" stroke-linecap="square" stroke-width="2"/>
      <path id="_Path_7" data-name="&lt;Path&gt;" d="M932.3,859a2.552,2.552,0,0,0,2.171.784" transform="translate(-26.261 -26.657)" fill="none" stroke="#16c1cc" stroke-linecap="square" stroke-width="2"/>
      <path id="_Path_8" data-name="&lt;Path&gt;" d="M941.6,872.03a2.046,2.046,0,0,1,1.568-1.93" transform="translate(-32.756 -34.41)" fill="none" stroke="#16c1cc" stroke-linecap="square" stroke-width="2"/>
      <path id="_Path_9" data-name="&lt;Path&gt;" d="M957.009,862.022q.694-1.87-1.809-2.322" transform="translate(-42.255 -27.146)" fill="none" stroke="#16c1cc" stroke-linecap="square" stroke-width="2"/>
      <path id="_Path_10" data-name="&lt;Path&gt;" d="M955.9,879.5a1.953,1.953,0,0,0,.724-1.9" transform="translate(-42.744 -39.648)" fill="none" stroke="#16c1cc" stroke-linecap="square" stroke-width="2"/>
      <path id="_Path_11" data-name="&lt;Path&gt;" d="M971.31,880.073a2.117,2.117,0,0,1,.513-2.473" transform="translate(-53.359 -39.648)" fill="none" stroke="#16c1cc" stroke-linecap="square" stroke-width="2"/>
      <path id="_Path_12" data-name="&lt;Path&gt;" d="M979.386,844.8a3.778,3.778,0,0,0-.241,2.111" transform="translate(-58.931 -16.74)" fill="none" stroke="#16c1cc" stroke-linecap="square" stroke-width="2"/>
      <path id="_Path_13" data-name="&lt;Path&gt;" d="M988.333,858.1q-.272,1.447-2.533,1.568" transform="translate(-63.627 -26.029)" fill="none" stroke="#16c1cc" stroke-linecap="square" stroke-width="2"/>
      <path id="_Path_14" data-name="&lt;Path&gt;" d="M990.968,874.1q-2.322-1.025-3.468,1.448" transform="translate(-64.814 -36.996)" fill="none" stroke="#16c1cc" stroke-linecap="square" stroke-width="2"/>
      <path id="_Path_15" data-name="&lt;Path&gt;" d="M972.323,859q-.241,2.232,1.267,2.533" transform="translate(-54.191 -26.657)" fill="none" stroke="#16c1cc" stroke-linecap="square" stroke-width="2"/>
    </g>
  </g>
</svg>
