<svg xmlns="http://www.w3.org/2000/svg" viewBox="0 0 32 32"><title>Artboard 41</title><g id="Eye_plus" data-name="Eye plus"><path d="M22.3452,23.1a1,1,0,0,0-1.3354.4658,7.6868,7.6868,0,0,1-6.3155,4.4073,9.8855,9.8855,0,0,1-1.4824,0,7.5966,7.5966,0,0,1-6.2637-4.29,8.2814,8.2814,0,0,1,.36-8.1621L13.95,4.8867,16.8521,9.53A1,1,0,0,0,18.5483,8.47l-3.75-6a1.04,1.04,0,0,0-1.6962,0l-7.49,11.9912A10.2671,10.2671,0,0,0,5.1606,24.58a9.6854,9.6854,0,0,0,7.8936,5.3867c.2949.0225.59.0332.896.0332s.6006-.0107.9009-.0332a9.67,9.67,0,0,0,7.9594-5.5322A1,1,0,0,0,22.3452,23.1Z" style="fill:#16c1cc"/><path d="M9.95,20a1,1,0,0,0-2,0,6.0066,6.0066,0,0,0,6,6,1,1,0,1,0,0-2A4.0042,4.0042,0,0,1,9.95,20Z" style="fill:#16c1cc"/><path d="M26.95,13h-2V11a1,1,0,0,0-1-1h-4a1,1,0,0,0-1,1v2h-2a1,1,0,0,0-1,1v4a1,1,0,0,0,1,1h2v2a1,1,0,0,0,1,1h4a1,1,0,0,0,1-1V19h2a1,1,0,0,0,1-1V14A1,1,0,0,0,26.95,13Zm-1,4h-2a1,1,0,0,0-1,1v2h-2V18a1,1,0,0,0-1-1h-2V15h2a1,1,0,0,0,1-1V12h2v2a1,1,0,0,0,1,1h2Z" style="fill:#16c1cc"/></g></svg>