<svg width="170" height="56" viewBox="0 0 170 56" fill="none" xmlns="http://www.w3.org/2000/svg">
<mask id="mask0_779_5831" style="mask-type:alpha" maskUnits="userSpaceOnUse" x="0" y="0" width="170" height="56">
<rect width="170" height="56" fill="#D9D9D9"/>
</mask>
<g mask="url(#mask0_779_5831)">
<mask id="mask1_779_5831" style="mask-type:alpha" maskUnits="userSpaceOnUse" x="10" y="6" width="150" height="46">
<path fill-rule="evenodd" clip-rule="evenodd" d="M74.248 19.3802H78.4732V38.2556H74.248L65.2466 26.4527V38.2556H61.0215V19.3802H64.9711L74.248 31.5504V19.3802ZM103.87 19.3802V23.146H94.4553V27.0497H102.906V30.6317H94.4553V34.5358H104.191V38.2558H90.2761V19.3802H103.87ZM129.221 28.703C129.221 27.0497 128.67 25.5801 127.614 24.432C126.511 23.2379 125.18 22.6408 123.618 22.6408C122.056 22.6408 120.725 23.2379 119.623 24.432C118.567 25.5801 118.015 27.0497 118.015 28.703C118.015 30.4023 118.567 31.826 119.623 33.0201C120.725 34.2141 122.057 34.8111 123.618 34.8111C125.18 34.8111 126.512 34.2141 127.614 33.0201C128.67 31.826 129.221 30.4023 129.221 28.703H129.221ZM130.645 35.6837C128.762 37.5207 126.374 38.4851 123.618 38.4851C120.817 38.4851 118.474 37.5208 116.545 35.6837C114.617 33.8008 113.698 31.5045 113.698 28.703C113.698 25.9475 114.617 23.6053 116.545 21.7682C118.474 19.8853 120.817 18.9668 123.618 18.9668C126.374 18.9668 128.762 19.8853 130.645 21.7682C132.573 23.6053 133.538 25.9475 133.538 28.703C133.538 31.5045 132.573 33.8008 130.645 35.6837ZM154.113 19.3802H159.21L153.286 28.4734L159.67 38.2556H154.526L150.531 32.0556L146.535 38.2556H141.437L147.775 28.6112L141.851 19.3798H146.903L150.531 24.9827L154.113 19.3802Z" fill="#3F3F41"/>
<mask id="mask2_779_5831" style="mask-type:luminance" maskUnits="userSpaceOnUse" x="10" y="6" width="42" height="46">
<path fill-rule="evenodd" clip-rule="evenodd" d="M19.3004 17.0616L15.6275 19.1665L24.3694 24.2138L28.6007 26.6624L29.3095 27.0705L29.9969 27.4571L32.8535 29.1109V14.1401L28.6222 11.6701H28.6007L19.3004 17.0616ZM45.8696 38.2396L37.1492 33.1923L32.8965 30.7437L32.2091 30.3357L31.5003 29.9491L28.6437 28.2952V43.2874L32.8965 45.736L42.2182 40.3663L45.8696 38.2396ZM38.5454 6V25.8894L41.402 24.2355L42.0894 23.8274L51.5186 18.3933V13.4961L42.2182 8.10501L38.5454 6ZM42.7767 25.0304L38.5454 27.5005L37.8366 27.8871L37.1492 28.2951L34.2925 29.949L37.1492 31.6029L37.8366 31.9895L47.2658 37.4451V37.4237L51.5186 34.9751V20.0043L43.1418 24.837L42.7767 25.0304ZM22.9732 51.4065V31.5168L20.1165 33.1707L19.4292 33.5788L10.0001 39.0126V43.9312L19.3004 49.301L22.9732 51.4065ZM18.7204 32.3761L22.9732 29.9275L23.6605 29.5195L24.3693 29.1113L27.226 27.4575L24.3693 25.8251L23.6605 25.417L14.2528 19.9829L10 22.4315V37.4023L18.3767 32.5695L18.7204 32.3761Z" fill="white"/>
</mask>
<g mask="url(#mask2_779_5831)">
<path fill-rule="evenodd" clip-rule="evenodd" d="M1.12891 19.639L3.31977 18.8442L17.1736 56.8617L15.0042 57.6565" fill="#BF9B30"/>
<path fill-rule="evenodd" clip-rule="evenodd" d="M3.25488 18.8662L3.40521 18.8232L17.2805 56.8407L17.1302 56.8837" fill="#BF9B30"/>
<path fill-rule="evenodd" clip-rule="evenodd" d="M3.3623 18.8442L3.49117 18.7798L17.3665 56.7973L17.2376 56.8402" fill="#C09B30"/>
<path fill-rule="evenodd" clip-rule="evenodd" d="M3.44824 18.8017L3.59857 18.7588L17.4524 56.7547L17.3236 56.8192" fill="#C09B2F"/>
<path fill-rule="evenodd" clip-rule="evenodd" d="M3.53418 18.7587L3.68451 18.7158L17.5598 56.7333L17.4095 56.7762" fill="#C09C2F"/>
<path fill-rule="evenodd" clip-rule="evenodd" d="M3.6416 18.7373L3.77047 18.6729L17.6458 56.6903L17.5169 56.7548" fill="#C09C2F"/>
<path fill-rule="evenodd" clip-rule="evenodd" d="M3.72754 18.6943L3.87787 18.6514L17.7316 56.6689L17.6028 56.7118" fill="#C19C2F"/>
<path fill-rule="evenodd" clip-rule="evenodd" d="M3.81348 18.6728L3.96381 18.6084L17.8391 56.6259L17.6888 56.6688" fill="#C19C2F"/>
<path fill-rule="evenodd" clip-rule="evenodd" d="M3.9209 18.6298L4.04976 18.5869L17.9251 56.604L17.7962 56.6469" fill="#C19C2E"/>
<path fill-rule="evenodd" clip-rule="evenodd" d="M4.00684 18.5869L4.15716 18.5439L18.0325 56.5614L17.8822 56.6044" fill="#C19C2E"/>
<path fill-rule="evenodd" clip-rule="evenodd" d="M4.09277 18.5654L4.2431 18.5225L18.1184 56.5184L17.9681 56.5829" fill="#C29C2E"/>
<path fill-rule="evenodd" clip-rule="evenodd" d="M4.2002 18.5224L4.32906 18.4795L18.2044 56.497L18.0755 56.5399" fill="#C29D2E"/>
<path fill-rule="evenodd" clip-rule="evenodd" d="M4.28613 18.501L4.43646 18.4365L18.3118 56.454L18.1614 56.5185" fill="#C29D2E"/>
<path fill-rule="evenodd" clip-rule="evenodd" d="M4.39355 18.458L4.52242 18.415L18.3977 56.4325L18.2474 56.4755" fill="#C29D2E"/>
<path fill-rule="evenodd" clip-rule="evenodd" d="M4.47949 18.4365L4.60836 18.3721L18.4836 56.3896L18.3547 56.4326" fill="#C39D2D"/>
<path fill-rule="evenodd" clip-rule="evenodd" d="M4.56543 18.3935L4.71576 18.3506L18.5911 56.3465L18.4407 56.4109" fill="#C39D2D"/>
<path fill-rule="evenodd" clip-rule="evenodd" d="M4.67285 18.3505L4.80172 18.3076L18.677 56.3251L18.5267 56.368" fill="#C39D2D"/>
<path fill-rule="evenodd" clip-rule="evenodd" d="M4.75879 18.329L4.88765 18.2646L18.763 56.2821L18.6341 56.3466" fill="#C39D2D"/>
<path fill-rule="evenodd" clip-rule="evenodd" d="M4.84473 18.2861L4.99506 18.2432L18.8704 56.2607L18.72 56.3036" fill="#C49E2D"/>
<path fill-rule="evenodd" clip-rule="evenodd" d="M4.95215 18.2647L5.08101 18.2002L18.9563 56.2177L18.806 56.2606" fill="#C49E2C"/>
<path fill-rule="evenodd" clip-rule="evenodd" d="M5.03809 18.2216L5.16695 18.1787L19.0423 56.1962L18.9134 56.2391" fill="#C49E2C"/>
<path fill-rule="evenodd" clip-rule="evenodd" d="M5.12402 18.1787L5.27435 18.1357L19.1497 56.1529L18.9993 56.1959" fill="#C49E2C"/>
<path fill-rule="evenodd" clip-rule="evenodd" d="M5.23145 18.1572L5.36031 18.0928L19.2356 56.1103L19.1068 56.1747" fill="#C59E2C"/>
<path fill-rule="evenodd" clip-rule="evenodd" d="M5.31738 18.1142L5.44625 18.0713L19.3216 56.0887L19.1927 56.1316" fill="#C59E2C"/>
<path fill-rule="evenodd" clip-rule="evenodd" d="M5.40332 18.0927L5.55365 18.0283L19.429 56.0458L19.2786 56.1103" fill="#C59E2B"/>
<path fill-rule="evenodd" clip-rule="evenodd" d="M5.51074 18.0498L5.63961 18.0068L19.5149 56.0243L19.3861 56.0673" fill="#C59F2B"/>
<path fill-rule="evenodd" clip-rule="evenodd" d="M5.59668 18.0283L5.74701 17.9639L19.6009 55.9814L19.472 56.0243" fill="#C69F2B"/>
<path fill-rule="evenodd" clip-rule="evenodd" d="M5.68262 17.9858L5.83295 17.9429L19.7083 55.9389L19.5579 56.0034" fill="#C69F2B"/>
<path fill-rule="evenodd" clip-rule="evenodd" d="M5.79004 17.9423L5.9189 17.8994L19.7942 55.9169L19.6654 55.9598" fill="#C69F2B"/>
<path fill-rule="evenodd" clip-rule="evenodd" d="M5.87598 17.9208L6.02631 17.8564L19.8802 55.8739L19.7513 55.9383" fill="#C69F2B"/>
<path fill-rule="evenodd" clip-rule="evenodd" d="M5.96191 17.8779L6.11224 17.835L19.9876 55.8525L19.8372 55.8954" fill="#C79F2A"/>
<path fill-rule="evenodd" clip-rule="evenodd" d="M6.06934 17.8565L6.1982 17.792L20.0735 55.8095L19.9447 55.8524" fill="#C79F2A"/>
<path fill-rule="evenodd" clip-rule="evenodd" d="M6.15527 17.8134L6.3056 17.7705L20.1595 55.7665L20.0306 55.8309" fill="#C7A02A"/>
<path fill-rule="evenodd" clip-rule="evenodd" d="M6.24121 17.7705L6.39154 17.7275L20.2669 55.745L20.1165 55.788" fill="#C7A02A"/>
<path fill-rule="evenodd" clip-rule="evenodd" d="M6.34863 17.749L6.4775 17.6846L20.3527 55.7019L20.2239 55.7664" fill="#C8A02A"/>
<path fill-rule="evenodd" clip-rule="evenodd" d="M6.43457 17.706L6.5849 17.6631L20.4602 55.6806L20.3099 55.7235" fill="#C8A029"/>
<path fill-rule="evenodd" clip-rule="evenodd" d="M6.52051 17.6846L6.67084 17.6201L20.5462 55.6376L20.3958 55.7021" fill="#C8A029"/>
<path fill-rule="evenodd" clip-rule="evenodd" d="M6.62695 17.6416L6.75583 17.5986L20.6311 55.6161L20.5023 55.6591" fill="#C8A029"/>
<path fill-rule="evenodd" clip-rule="evenodd" d="M6.71387 17.5986L6.8642 17.5557L20.7395 55.5732L20.5892 55.6161" fill="#C9A029"/>
<path fill-rule="evenodd" clip-rule="evenodd" d="M6.82031 17.5771L6.94918 17.5342L20.8245 55.5301L20.6742 55.5945" fill="#C9A129"/>
<path fill-rule="evenodd" clip-rule="evenodd" d="M6.90625 17.5346L7.03512 17.4917L20.9105 55.5089L20.7817 55.5518" fill="#C9A128"/>
<path fill-rule="evenodd" clip-rule="evenodd" d="M6.99219 17.5126L7.14252 17.4482L21.0178 55.4657L20.8675 55.5302" fill="#C9A128"/>
<path fill-rule="evenodd" clip-rule="evenodd" d="M7.09961 17.4697L7.22847 17.4268L21.1038 55.4443L20.9535 55.4872" fill="#CAA128"/>
<path fill-rule="evenodd" clip-rule="evenodd" d="M7.18555 17.4483L7.31442 17.3838L21.1897 55.4013L21.0609 55.4442" fill="#CAA128"/>
<path fill-rule="evenodd" clip-rule="evenodd" d="M7.27148 17.4052L7.42181 17.3623L21.2971 55.3583L21.1468 55.4227" fill="#CAA128"/>
<path fill-rule="evenodd" clip-rule="evenodd" d="M7.37891 17.3628L7.50777 17.3198L21.3831 55.3373L21.2328 55.3802" fill="#CAA128"/>
<path fill-rule="evenodd" clip-rule="evenodd" d="M7.46484 17.3408L7.59371 17.2764L21.469 55.2939L21.3402 55.3583" fill="#CBA127"/>
<path fill-rule="evenodd" clip-rule="evenodd" d="M7.55078 17.2983L7.70111 17.2554L21.5764 55.2729L21.4261 55.3158" fill="#CBA227"/>
<path fill-rule="evenodd" clip-rule="evenodd" d="M7.6582 17.2768L7.78708 17.2124L21.6624 55.2299L21.5121 55.2728" fill="#CBA227"/>
<path fill-rule="evenodd" clip-rule="evenodd" d="M7.74414 17.2334L7.873 17.1904L21.7483 55.2079L21.6195 55.2508" fill="#CBA227"/>
<path fill-rule="evenodd" clip-rule="evenodd" d="M7.83008 17.1909L7.98041 17.1479L21.8557 55.1654L21.7054 55.2084" fill="#CCA227"/>
<path fill-rule="evenodd" clip-rule="evenodd" d="M7.9375 17.1689L8.06636 17.1045L21.9417 55.122L21.8128 55.1865" fill="#CCA226"/>
<path fill-rule="evenodd" clip-rule="evenodd" d="M8.02344 17.1264L8.17377 17.0835L22.0276 55.101L21.8988 55.1439" fill="#CCA226"/>
<path fill-rule="evenodd" clip-rule="evenodd" d="M8.10938 17.1049L8.2597 17.0405L22.135 55.058L21.9847 55.1225" fill="#CCA226"/>
<path fill-rule="evenodd" clip-rule="evenodd" d="M8.2168 17.062L8.34566 17.019L22.2209 55.0368L22.092 55.0798" fill="#CDA326"/>
<path fill-rule="evenodd" clip-rule="evenodd" d="M8.30273 17.0405L8.45306 16.9761L22.3069 54.9936L22.1781 55.0365" fill="#CDA326"/>
<path fill-rule="evenodd" clip-rule="evenodd" d="M8.38867 16.9975L8.539 16.9546L22.4143 54.9506L22.264 55.0151" fill="#CDA325"/>
<path fill-rule="evenodd" clip-rule="evenodd" d="M8.49609 16.9546L8.62496 16.9116L22.5004 54.929L22.3716 54.972" fill="#CDA325"/>
<path fill-rule="evenodd" clip-rule="evenodd" d="M8.58203 16.9331L8.73236 16.8687L22.5862 54.8862L22.4574 54.9506" fill="#CEA325"/>
<path fill-rule="evenodd" clip-rule="evenodd" d="M8.66797 16.8901L8.8183 16.8472L22.6937 54.8646L22.5434 54.9075" fill="#CEA325"/>
<path fill-rule="evenodd" clip-rule="evenodd" d="M8.77539 16.8687L8.90425 16.8042L22.7796 54.8217L22.6507 54.8646" fill="#CEA325"/>
<path fill-rule="evenodd" clip-rule="evenodd" d="M8.86133 16.8256L9.01166 16.7827L22.887 54.7787L22.7367 54.8431" fill="#CEA425"/>
<path fill-rule="evenodd" clip-rule="evenodd" d="M8.94727 16.7827L9.09759 16.7397L22.9729 54.7572L22.8226 54.8002" fill="#CFA424"/>
<path fill-rule="evenodd" clip-rule="evenodd" d="M9.05469 16.7612L9.18355 16.6968L23.0589 54.7143L22.93 54.7787" fill="#CFA424"/>
<path fill-rule="evenodd" clip-rule="evenodd" d="M9.14062 16.7182L9.29095 16.6753L23.1663 54.6928L23.016 54.7357" fill="#CFA424"/>
<path fill-rule="evenodd" clip-rule="evenodd" d="M9.22656 16.6967L9.37689 16.6323L23.2522 54.6498L23.1019 54.7142" fill="#CFA424"/>
<path fill-rule="evenodd" clip-rule="evenodd" d="M9.33398 16.6538L9.46285 16.6108L23.3382 54.6283L23.2093 54.6713" fill="#D0A424"/>
<path fill-rule="evenodd" clip-rule="evenodd" d="M9.41992 16.6324L9.57025 16.5679L23.4456 54.5854L23.2952 54.6283" fill="#D0A423"/>
<path fill-rule="evenodd" clip-rule="evenodd" d="M9.52734 16.5893L9.65621 16.5464L23.5315 54.5423L23.3812 54.6068" fill="#D0A523"/>
<path fill-rule="evenodd" clip-rule="evenodd" d="M9.61328 16.5463L9.74215 16.5034L23.6175 54.5209L23.4886 54.5638" fill="#D0A523"/>
<path fill-rule="evenodd" clip-rule="evenodd" d="M9.69922 16.5248L9.84955 16.4604L23.7249 54.4779L23.5745 54.5423" fill="#D1A523"/>
<path fill-rule="evenodd" clip-rule="evenodd" d="M9.80664 16.4819L9.9355 16.439L23.8108 54.4565L23.6605 54.4994" fill="#D1A523"/>
<path fill-rule="evenodd" clip-rule="evenodd" d="M9.89258 16.4605L10.0214 16.396L23.8968 54.4135L23.7679 54.4564" fill="#D1A522"/>
<path fill-rule="evenodd" clip-rule="evenodd" d="M9.97852 16.4174L10.1288 16.3745L24.0042 54.3702L23.8538 54.4346" fill="#D1A522"/>
<path fill-rule="evenodd" clip-rule="evenodd" d="M10.0859 16.3745L10.2148 16.3315L24.0904 54.3491L23.94 54.392" fill="#D2A522"/>
<path fill-rule="evenodd" clip-rule="evenodd" d="M10.1719 16.3526L10.3007 16.2881L24.1761 54.3056L24.0472 54.3701" fill="#D2A622"/>
<path fill-rule="evenodd" clip-rule="evenodd" d="M10.2578 16.31L10.4081 16.2671L24.2836 54.2845L24.1333 54.3274" fill="#D2A622"/>
<path fill-rule="evenodd" clip-rule="evenodd" d="M10.3643 16.2885L10.4931 16.2241L24.3684 54.2416L24.2396 54.2845" fill="#D2A622"/>
<path fill-rule="evenodd" clip-rule="evenodd" d="M10.4512 16.2456L10.58 16.2026L24.4554 54.2201L24.3265 54.2631" fill="#D3A621"/>
<path fill-rule="evenodd" clip-rule="evenodd" d="M10.5361 16.2026L10.6865 16.1597L24.5618 54.1772L24.4114 54.2201" fill="#D3A621"/>
<path fill-rule="evenodd" clip-rule="evenodd" d="M10.6436 16.1811L10.7724 16.1382L24.6477 54.1341L24.5189 54.1986" fill="#D3A621"/>
<path fill-rule="evenodd" clip-rule="evenodd" d="M10.7295 16.1381L10.8798 16.0952L24.7337 54.1125L24.6048 54.1554" fill="#D3A621"/>
<path fill-rule="evenodd" clip-rule="evenodd" d="M10.8154 16.1166L10.9658 16.0522L24.8411 54.0697L24.6907 54.1342" fill="#D4A721"/>
<path fill-rule="evenodd" clip-rule="evenodd" d="M10.9229 16.0737L11.0517 16.0308L24.927 54.0483L24.7982 54.0912" fill="#D4A720"/>
<path fill-rule="evenodd" clip-rule="evenodd" d="M11.0088 16.0522L11.1591 15.9878L25.013 54.0052L24.8841 54.0481" fill="#D4A720"/>
<path fill-rule="evenodd" clip-rule="evenodd" d="M11.0947 16.0092L11.2451 15.9663L25.1204 53.9623L24.97 54.0267" fill="#D4A720"/>
<path fill-rule="evenodd" clip-rule="evenodd" d="M11.2021 15.9663L11.331 15.9233L25.2059 53.9408L25.0771 53.9838" fill="#D5A720"/>
<path fill-rule="evenodd" clip-rule="evenodd" d="M11.2891 15.9448L11.4394 15.8804L25.2929 53.898L25.1641 53.9624" fill="#D5A720"/>
<path fill-rule="evenodd" clip-rule="evenodd" d="M11.374 15.9018L11.5244 15.8589L25.3993 53.8763L25.2489 53.9192" fill="#D5A71F"/>
<path fill-rule="evenodd" clip-rule="evenodd" d="M11.4814 15.8804L11.6103 15.8159L25.4856 53.8334L25.3568 53.8763" fill="#D5A81F"/>
<path fill-rule="evenodd" clip-rule="evenodd" d="M11.5674 15.8374L11.7177 15.7944L25.593 53.7905L25.4427 53.8549" fill="#D6A81F"/>
<path fill-rule="evenodd" clip-rule="evenodd" d="M11.6533 15.7944L11.8036 15.7515L25.679 53.769L25.5286 53.8119" fill="#D6A81F"/>
<path fill-rule="evenodd" clip-rule="evenodd" d="M11.7607 15.773L11.8896 15.7085L25.7649 53.726L25.6361 53.7905" fill="#D6A81F"/>
<path fill-rule="evenodd" clip-rule="evenodd" d="M11.8467 15.7299L11.997 15.687L25.8726 53.7045L25.7222 53.7474" fill="#D6A81E"/>
<path fill-rule="evenodd" clip-rule="evenodd" d="M11.9541 15.7084L12.083 15.644L25.9584 53.6614L25.8081 53.7259" fill="#D7A81E"/>
<path fill-rule="evenodd" clip-rule="evenodd" d="M12.04 15.6655L12.1689 15.6226L26.0442 53.6401L25.9154 53.683" fill="#D7A81E"/>
<path fill-rule="evenodd" clip-rule="evenodd" d="M12.126 15.6445L12.2763 15.5801L26.1516 53.5976L26.0013 53.6405" fill="#D7A91E"/>
<path fill-rule="evenodd" clip-rule="evenodd" d="M12.2334 15.601L12.3623 15.5581L26.2376 53.5541L26.0872 53.6185" fill="#D7A91E"/>
<path fill-rule="evenodd" clip-rule="evenodd" d="M12.3193 15.5581L12.4482 15.5151L26.3235 53.5326L26.1947 53.5756" fill="#D8A91E"/>
<path fill-rule="evenodd" clip-rule="evenodd" d="M12.4053 15.5371L12.5556 15.4727L26.4309 53.4902L26.2806 53.5545" fill="#D8A91D"/>
<path fill-rule="evenodd" clip-rule="evenodd" d="M12.5127 15.4941L12.6416 15.4512L26.5169 53.4687L26.3665 53.5116" fill="#D8A91D"/>
<path fill-rule="evenodd" clip-rule="evenodd" d="M12.5986 15.4727L12.7275 15.4082L26.6028 53.4257L26.474 53.4686" fill="#D8A91D"/>
<path fill-rule="evenodd" clip-rule="evenodd" d="M12.6846 15.4296L12.8349 15.3867L26.7102 53.3827L26.5599 53.4471" fill="#D9A91D"/>
<path fill-rule="evenodd" clip-rule="evenodd" d="M12.792 15.3867L12.9209 15.3438L26.7959 53.3612L26.667 53.4041" fill="#D9AA1D"/>
<path fill-rule="evenodd" clip-rule="evenodd" d="M12.8779 15.3652L13.0068 15.3008L26.8821 53.3183L26.7533 53.3827" fill="#D9AA1C"/>
<path fill-rule="evenodd" clip-rule="evenodd" d="M12.9639 15.3222L13.1142 15.2793L26.9892 53.2968L26.8389 53.3397" fill="#D9AA1C"/>
<path fill-rule="evenodd" clip-rule="evenodd" d="M13.0713 15.3007L13.2002 15.2363L27.0755 53.2538L26.9466 53.2968" fill="#DAAA1C"/>
<path fill-rule="evenodd" clip-rule="evenodd" d="M13.1572 15.2574L13.3076 15.2144L27.1614 53.2318L27.0326 53.2748" fill="#DAAA1C"/>
<path fill-rule="evenodd" clip-rule="evenodd" d="M13.2432 15.2148L13.3935 15.1719L27.2688 53.1894L27.1185 53.2323" fill="#DAAA1C"/>
<path fill-rule="evenodd" clip-rule="evenodd" d="M13.3506 15.1933L13.4795 15.1504L27.3548 53.1464L27.2259 53.2109" fill="#DAAA1B"/>
<path fill-rule="evenodd" clip-rule="evenodd" d="M13.4365 15.1504L13.5869 15.1074L27.4407 53.1249L27.3118 53.1678" fill="#DBAB1B"/>
<path fill-rule="evenodd" clip-rule="evenodd" d="M13.5225 15.1289L13.6728 15.0645L27.5481 53.082L27.3977 53.1464" fill="#DBAB1B"/>
<path fill-rule="evenodd" clip-rule="evenodd" d="M13.6299 15.0859L13.7587 15.043L27.6341 53.0605L27.5052 53.1034" fill="#DBAB1B"/>
<path fill-rule="evenodd" clip-rule="evenodd" d="M13.7158 15.0644L13.8662 15L27.7202 53.0174L27.5914 53.0603" fill="#DBAB1B"/>
<path fill-rule="evenodd" clip-rule="evenodd" d="M13.8018 15.021L13.9521 14.978L27.8274 52.974L27.6771 53.0385" fill="#DCAB1B"/>
<path fill-rule="evenodd" clip-rule="evenodd" d="M13.9092 14.9785L14.038 14.9355L27.9134 52.953L27.7845 52.996" fill="#DCAB1A"/>
<path fill-rule="evenodd" clip-rule="evenodd" d="M13.9941 14.957L14.1445 14.8926L28.0198 52.9101L27.8695 52.9745" fill="#DCAB1A"/>
<path fill-rule="evenodd" clip-rule="evenodd" d="M14.0811 14.914L14.2314 14.8711L28.1067 52.8886L27.9564 52.9315" fill="#DCAC1A"/>
<path fill-rule="evenodd" clip-rule="evenodd" d="M14.1875 14.8926L14.3164 14.8281L28.1917 52.8456L28.0628 52.8885" fill="#DDAC1A"/>
<path fill-rule="evenodd" clip-rule="evenodd" d="M14.2734 14.8496L14.4238 14.8066L28.2991 52.8026L28.1488 52.8671" fill="#DDAC1A"/>
<path fill-rule="evenodd" clip-rule="evenodd" d="M14.3594 14.8066L14.5097 14.7637L28.385 52.7812L28.2347 52.8241" fill="#DDAC19"/>
<path fill-rule="evenodd" clip-rule="evenodd" d="M14.4668 14.7851L14.5957 14.7207L28.471 52.7382L28.3421 52.8027" fill="#DDAC19"/>
<path fill-rule="evenodd" clip-rule="evenodd" d="M14.5527 14.7421L14.7031 14.6992L28.5782 52.7166L28.4278 52.7596" fill="#DEAC19"/>
<path fill-rule="evenodd" clip-rule="evenodd" d="M14.6602 14.7206L14.789 14.6562L28.6643 52.6737L28.514 52.7382" fill="#DEAC19"/>
<path fill-rule="evenodd" clip-rule="evenodd" d="M14.7461 14.6777L14.875 14.6348L28.7503 52.6523L28.6214 52.6952" fill="#DEAD19"/>
<path fill-rule="evenodd" clip-rule="evenodd" d="M14.832 14.6563L14.9824 14.5918L28.8577 52.6093L28.7074 52.6522" fill="#DEAD18"/>
<path fill-rule="evenodd" clip-rule="evenodd" d="M14.9395 14.6132L15.0683 14.5703L28.9436 52.5663L28.7932 52.6307" fill="#DFAD18"/>
<path fill-rule="evenodd" clip-rule="evenodd" d="M15.0254 14.5698L15.1543 14.5269L29.0296 52.5443L28.9007 52.5873" fill="#DFAD18"/>
<path fill-rule="evenodd" clip-rule="evenodd" d="M15.1113 14.5488L15.2617 14.4844L29.137 52.5019L28.9867 52.5663" fill="#DFAD18"/>
<path fill-rule="evenodd" clip-rule="evenodd" d="M15.2188 14.5058L15.3476 14.4629L29.2229 52.4804L29.0726 52.5233" fill="#DFAD18"/>
<path fill-rule="evenodd" clip-rule="evenodd" d="M15.3047 14.4844L15.4336 14.4199L29.3092 52.4375L29.1803 52.4804" fill="#E0AD18"/>
<path fill-rule="evenodd" clip-rule="evenodd" d="M15.3906 14.4414L15.541 14.3984L29.4163 52.3945L29.266 52.4589" fill="#E0AD17"/>
<path fill-rule="evenodd" clip-rule="evenodd" d="M15.498 14.3984L15.6269 14.3555L29.5022 52.3729L29.3734 52.4158" fill="#E0AE17"/>
<path fill-rule="evenodd" clip-rule="evenodd" d="M15.584 14.3769L15.7343 14.3125L29.5882 52.33L29.4593 52.3944" fill="#E0AE17"/>
<path fill-rule="evenodd" clip-rule="evenodd" d="M15.6699 14.3339L15.8203 14.291L29.6956 52.3086L29.5452 52.3515" fill="#E1AE17"/>
<path fill-rule="evenodd" clip-rule="evenodd" d="M15.7773 14.3124L15.9062 14.248L29.7815 52.2655L29.6527 52.33" fill="#E1AE17"/>
<path fill-rule="evenodd" clip-rule="evenodd" d="M15.8633 14.2695L16.0136 14.2266L29.8675 52.2441L29.7386 52.287" fill="#E1AE16"/>
<path fill-rule="evenodd" clip-rule="evenodd" d="M15.9492 14.2265L16.0995 14.1836L29.9749 52.2011L29.8245 52.244" fill="#E1AE16"/>
<path fill-rule="evenodd" clip-rule="evenodd" d="M16.0566 14.205L16.1855 14.1621L30.0608 52.1581L29.932 52.2226" fill="#E2AE16"/>
<path fill-rule="evenodd" clip-rule="evenodd" d="M16.1426 14.1621L16.2929 14.1191L30.1467 52.1366L30.0178 52.1796" fill="#E2AF16"/>
<path fill-rule="evenodd" clip-rule="evenodd" d="M16.2285 14.1406L16.3788 14.0762L30.2542 52.0937L30.1038 52.1581" fill="#E2AF16"/>
<path fill-rule="evenodd" clip-rule="evenodd" d="M16.3359 14.0976L16.4648 14.0547L30.3401 52.0719L30.2113 52.1149" fill="#E2AF15"/>
<path fill-rule="evenodd" clip-rule="evenodd" d="M16.4219 14.0762L16.5722 14.0117L30.4258 52.0292L30.297 52.0721" fill="#E3AF15"/>
<path fill-rule="evenodd" clip-rule="evenodd" d="M16.5078 14.0332L16.6581 13.9902L30.5335 51.9862L30.3831 52.0507" fill="#E3AF15"/>
<path fill-rule="evenodd" clip-rule="evenodd" d="M16.6152 13.9902L16.7441 13.9473L30.6194 51.9648L30.4906 52.0077" fill="#E3AF15"/>
<path fill-rule="evenodd" clip-rule="evenodd" d="M16.7012 13.9687L16.8515 13.9043L30.7268 51.9218L30.5765 51.9863" fill="#E3AF15"/>
<path fill-rule="evenodd" clip-rule="evenodd" d="M16.7871 13.9257L16.9374 13.8828L30.8128 51.9003L30.6624 51.9432" fill="#E4B015"/>
<path fill-rule="evenodd" clip-rule="evenodd" d="M16.8945 13.9043L17.0234 13.8398L30.8987 51.8576L30.7698 51.9005" fill="#E4B014"/>
<path fill-rule="evenodd" clip-rule="evenodd" d="M16.9805 13.8613L17.1308 13.8184L31.0061 51.8359L30.8558 51.8788" fill="#E4B014"/>
<path fill-rule="evenodd" clip-rule="evenodd" d="M17.0879 13.8183L17.2168 13.7754L31.0921 51.7929L30.9418 51.8358" fill="#E4B014"/>
<path fill-rule="evenodd" clip-rule="evenodd" d="M17.1738 13.7968L17.3027 13.7324L31.178 51.7499L31.0491 51.8143" fill="#E5B014"/>
<path fill-rule="evenodd" clip-rule="evenodd" d="M17.2598 13.7539L17.4101 13.7109L31.2854 51.7284L31.1351 51.7714" fill="#E5B014"/>
<path fill-rule="evenodd" clip-rule="evenodd" d="M17.3672 13.7324L17.4961 13.668L31.3714 51.6855L31.221 51.7499" fill="#E5B013"/>
<path fill-rule="evenodd" clip-rule="evenodd" d="M17.4531 13.6894L17.582 13.6465L31.4573 51.664L31.3284 51.7069" fill="#E5B113"/>
<path fill-rule="evenodd" clip-rule="evenodd" d="M17.5391 13.6679L17.6894 13.6035L31.5647 51.6209L31.4144 51.6638" fill="#E6B113"/>
<path fill-rule="evenodd" clip-rule="evenodd" d="M17.6465 13.6254L17.7753 13.5825L31.6507 51.5785L31.5003 51.6429" fill="#E6B113"/>
<path fill-rule="evenodd" clip-rule="evenodd" d="M17.7314 13.5825L17.8603 13.5396L31.7356 51.557L31.6068 51.6" fill="#E6B113"/>
<path fill-rule="evenodd" clip-rule="evenodd" d="M17.8174 13.5611L17.9677 13.4966L31.843 51.5141L31.6927 51.5785" fill="#E6B112"/>
<path fill-rule="evenodd" clip-rule="evenodd" d="M17.9248 13.518L18.0537 13.4751L31.929 51.4926L31.8001 51.5355" fill="#E7B112"/>
<path fill-rule="evenodd" clip-rule="evenodd" d="M18.0107 13.496L18.1396 13.4316L32.0148 51.4491L31.8859 51.492" fill="#E7B112"/>
<path fill-rule="evenodd" clip-rule="evenodd" d="M18.0967 13.4536L18.247 13.4106L32.1223 51.4063L31.972 51.4708" fill="#E7B212"/>
<path fill-rule="evenodd" clip-rule="evenodd" d="M18.2041 13.4106L18.333 13.3677L32.2083 51.3852L32.0794 51.4281" fill="#E7B212"/>
<path fill-rule="evenodd" clip-rule="evenodd" d="M18.29 13.3887L18.4404 13.3242L32.2942 51.3417L32.1654 51.4062" fill="#E8B212"/>
<path fill-rule="evenodd" clip-rule="evenodd" d="M18.376 13.3462L18.5263 13.3032L32.4016 51.3206L32.2513 51.3636" fill="#E8B211"/>
<path fill-rule="evenodd" clip-rule="evenodd" d="M18.4834 13.3246L18.6123 13.2603L32.4876 51.2778L32.3587 51.3421" fill="#E8B211"/>
<path fill-rule="evenodd" clip-rule="evenodd" d="M18.5693 13.2817L18.7197 13.2388L32.5734 51.2563L32.4446 51.2992" fill="#E8B211"/>
<path fill-rule="evenodd" clip-rule="evenodd" d="M18.6553 13.2598L18.8056 13.1953L32.6809 51.2128L32.5306 51.2557" fill="#E9B211"/>
<path fill-rule="evenodd" clip-rule="evenodd" d="M18.7627 13.2172L18.8916 13.1743L32.7669 51.1703L32.638 51.2347" fill="#E9B311"/>
<path fill-rule="evenodd" clip-rule="evenodd" d="M18.8486 13.1743L18.999 13.1313L32.8528 51.1488L32.7239 51.1918" fill="#E9B310"/>
<path fill-rule="evenodd" clip-rule="evenodd" d="M18.9346 13.1528L19.0849 13.0884L32.9602 51.1059L32.8099 51.1703" fill="#E9B310"/>
<path fill-rule="evenodd" clip-rule="evenodd" d="M19.042 13.1098L19.1709 13.0669L33.0462 51.0844L32.9173 51.1273" fill="#EAB310"/>
<path fill-rule="evenodd" clip-rule="evenodd" d="M19.1279 13.0884L19.2783 13.0239L33.1536 51.0414L33.0033 51.0844" fill="#EAB310"/>
<path fill-rule="evenodd" clip-rule="evenodd" d="M19.2139 13.0454L19.3642 13.0024L33.2395 50.9984L33.0892 51.0629" fill="#EAB310"/>
<path fill-rule="evenodd" clip-rule="evenodd" d="M19.3213 13.0029L19.4502 12.96L33.3255 50.9775L33.1966 51.0204" fill="#EAB30F"/>
<path fill-rule="evenodd" clip-rule="evenodd" d="M19.4072 12.981L19.5576 12.9165L33.433 50.9336L33.2826 50.9981" fill="#EBB40F"/>
<path fill-rule="evenodd" clip-rule="evenodd" d="M19.4932 12.9379L19.6435 12.895L33.5188 50.9125L33.3685 50.9554" fill="#EBB40F"/>
<path fill-rule="evenodd" clip-rule="evenodd" d="M19.6006 12.9164L19.7295 12.8521L33.6047 50.8695L33.4758 50.9124" fill="#EBB40F"/>
<path fill-rule="evenodd" clip-rule="evenodd" d="M19.6865 12.8735L19.8369 12.8306L33.7122 50.8481L33.5618 50.891" fill="#EBB40F"/>
<path fill-rule="evenodd" clip-rule="evenodd" d="M19.7939 12.8305L19.9228 12.7876L33.7981 50.8051L33.6478 50.848" fill="#ECB40E"/>
<path fill-rule="evenodd" clip-rule="evenodd" d="M19.8799 12.809L20.0087 12.7661L33.8841 50.7621L33.7552 50.8266" fill="#ECB40E"/>
<path fill-rule="evenodd" clip-rule="evenodd" d="M19.9658 12.7661L20.1161 12.7231L33.9915 50.7406L33.8411 50.7836" fill="#ECB40E"/>
<path fill-rule="evenodd" clip-rule="evenodd" d="M20.0732 12.7446L20.2021 12.6802L34.0774 50.6977L33.9271 50.7621" fill="#ECB50E"/>
<path fill-rule="evenodd" clip-rule="evenodd" d="M20.1592 12.7016L20.288 12.6587L34.1634 50.6762L34.0345 50.7191" fill="#EDB50E"/>
<path fill-rule="evenodd" clip-rule="evenodd" d="M20.2451 12.6801L20.3954 12.6157L34.2708 50.6332L34.1204 50.6761" fill="#EDB50E"/>
<path fill-rule="evenodd" clip-rule="evenodd" d="M20.3525 12.6372L20.4814 12.5942L34.3567 50.5902L34.2063 50.6546" fill="#EDB50D"/>
<path fill-rule="evenodd" clip-rule="evenodd" d="M20.4385 12.5942L20.5673 12.5513L34.4427 50.5688L34.3138 50.6117" fill="#EDB50D"/>
<path fill-rule="evenodd" clip-rule="evenodd" d="M20.5244 12.5728L20.6747 12.5083L34.5501 50.5258L34.3997 50.5903" fill="#EEB50D"/>
<path fill-rule="evenodd" clip-rule="evenodd" d="M20.6318 12.5297L20.7607 12.4868L34.636 50.5043L34.5072 50.5472" fill="#EEB50D"/>
<path fill-rule="evenodd" clip-rule="evenodd" d="M20.7178 12.5083L20.8681 12.4438L34.7219 50.4613L34.593 50.5043" fill="#EEB60D"/>
<path fill-rule="evenodd" clip-rule="evenodd" d="M20.8037 12.4653L20.954 12.4224L34.8294 50.4183L34.679 50.4828" fill="#EEB60C"/>
<path fill-rule="evenodd" clip-rule="evenodd" d="M20.9111 12.4223L21.04 12.3794L34.9153 50.3969L34.7864 50.4398" fill="#EFB60C"/>
<path fill-rule="evenodd" clip-rule="evenodd" d="M20.9971 12.4008L21.1474 12.3364L35.0013 50.3539L34.8724 50.4183" fill="#EFB60C"/>
<path fill-rule="evenodd" clip-rule="evenodd" d="M21.083 12.3579L21.2333 12.3149L35.1087 50.3324L34.9583 50.3754" fill="#EFB60C"/>
<path fill-rule="evenodd" clip-rule="evenodd" d="M21.1904 12.3364L21.3193 12.272L35.1946 50.2895L35.0657 50.3539" fill="#EFB60C"/>
<path fill-rule="evenodd" clip-rule="evenodd" d="M21.2764 12.2934L21.4267 12.2505L35.2806 50.2681L35.1517 50.311" fill="#F0B60B"/>
<path fill-rule="evenodd" clip-rule="evenodd" d="M21.3623 12.2719L21.5126 12.2075L35.3879 50.2252L35.2375 50.2681" fill="#F0B70B"/>
<path fill-rule="evenodd" clip-rule="evenodd" d="M21.4697 12.229L21.5986 12.186L35.4739 50.182L35.345 50.2465" fill="#F0B70B"/>
<path fill-rule="evenodd" clip-rule="evenodd" d="M21.5557 12.186L21.706 12.1431L35.5813 50.1606L35.431 50.2035" fill="#F0B70B"/>
<path fill-rule="evenodd" clip-rule="evenodd" d="M21.6416 12.1645L21.7919 12.1001L35.6673 50.1176L35.5169 50.1821" fill="#F1B70B"/>
<path fill-rule="evenodd" clip-rule="evenodd" d="M21.749 12.1215L21.8779 12.0786L35.7532 50.0961L35.6243 50.139" fill="#F1B70B"/>
<path fill-rule="evenodd" clip-rule="evenodd" d="M21.834 12.1L21.9843 12.0356L35.8596 50.0531L35.7093 50.0961" fill="#F1B70A"/>
<path fill-rule="evenodd" clip-rule="evenodd" d="M21.9199 12.0571L22.0703 12.0142L35.9456 50.0101L35.7952 50.0746" fill="#F1B70A"/>
<path fill-rule="evenodd" clip-rule="evenodd" d="M22.0273 12.0141L22.1562 11.9712L36.0315 49.9887L35.9027 50.0316" fill="#F2B80A"/>
<path fill-rule="evenodd" clip-rule="evenodd" d="M22.1133 11.9931L22.2636 11.9287L36.1389 49.9462L35.9886 50.0106" fill="#F2B80A"/>
<path fill-rule="evenodd" clip-rule="evenodd" d="M22.2207 11.9497L22.3496 11.9067L36.2249 49.9242L36.0746 49.9672" fill="#F2B80A"/>
<path fill-rule="evenodd" clip-rule="evenodd" d="M22.3066 11.9282L22.4355 11.8638L36.3108 49.8813L36.182 49.9242" fill="#F2B809"/>
<path fill-rule="evenodd" clip-rule="evenodd" d="M22.3926 11.8857L22.5429 11.8428L36.4182 49.8603L36.2679 49.9032" fill="#F3B809"/>
<path fill-rule="evenodd" clip-rule="evenodd" d="M22.5 11.8427L22.6289 11.7998L36.5042 49.8175L36.3539 49.8604" fill="#F3B809"/>
<path fill-rule="evenodd" clip-rule="evenodd" d="M22.5859 11.8208L22.7148 11.7778L36.5901 49.7738L36.4613 49.8383" fill="#F3B809"/>
<path fill-rule="evenodd" clip-rule="evenodd" d="M22.6719 11.7783L22.8222 11.7354L36.6975 49.7528L36.5472 49.7958" fill="#F3B909"/>
<path fill-rule="evenodd" clip-rule="evenodd" d="M22.7793 11.7563L22.9082 11.6919L36.7836 49.7093L36.6332 49.7738" fill="#F4B908"/>
<path fill-rule="evenodd" clip-rule="evenodd" d="M22.8652 11.7133L22.9941 11.6704L36.8694 49.6879L36.7406 49.7308" fill="#F4B908"/>
<path fill-rule="evenodd" clip-rule="evenodd" d="M22.9512 11.6923L23.1015 11.6279L36.9768 49.6453L36.8265 49.6883" fill="#F4B908"/>
<path fill-rule="evenodd" clip-rule="evenodd" d="M23.0586 11.6494L23.1875 11.6064L37.0628 49.6024L36.9339 49.6669" fill="#F4B908"/>
<path fill-rule="evenodd" clip-rule="evenodd" d="M23.1445 11.6064L23.2734 11.5635L37.1487 49.5808L37.0198 49.6237" fill="#F5B908"/>
<path fill-rule="evenodd" clip-rule="evenodd" d="M23.2305 11.5845L23.3808 11.52L37.2561 49.5375L37.1058 49.6019" fill="#F5B908"/>
<path fill-rule="evenodd" clip-rule="evenodd" d="M23.3379 11.5419L23.4668 11.499L37.3421 49.5165L37.2132 49.5594" fill="#F5B907"/>
<path fill-rule="evenodd" clip-rule="evenodd" d="M23.4238 11.5204L23.5742 11.4561L37.428 49.4735L37.2991 49.5165" fill="#F5BA07"/>
<path fill-rule="evenodd" clip-rule="evenodd" d="M23.5098 11.4775L23.6601 11.4346L37.5354 49.4305L37.3851 49.4949" fill="#F6BA07"/>
<path fill-rule="evenodd" clip-rule="evenodd" d="M23.6172 11.4345L23.7461 11.3916L37.6214 49.4091L37.4925 49.452" fill="#F6BA07"/>
<path fill-rule="evenodd" clip-rule="evenodd" d="M23.7031 11.413L23.8535 11.3486L37.7073 49.3664L37.5784 49.4308" fill="#F6BA07"/>
<path fill-rule="evenodd" clip-rule="evenodd" d="M23.7891 11.3701L23.9394 11.3271L37.8147 49.3446L37.6644 49.3876" fill="#F6BA06"/>
<path fill-rule="evenodd" clip-rule="evenodd" d="M23.8965 11.3486L24.0253 11.2842L37.9007 49.3017L37.7718 49.3661" fill="#F7BA06"/>
<path fill-rule="evenodd" clip-rule="evenodd" d="M23.9824 11.3056L24.1328 11.2627L37.9865 49.2802L37.8577 49.3231" fill="#F7BA06"/>
<path fill-rule="evenodd" clip-rule="evenodd" d="M24.0684 11.2842L24.2187 11.2197L38.094 49.2372L37.9437 49.2801" fill="#F7BB06"/>
<path fill-rule="evenodd" clip-rule="evenodd" d="M24.1758 11.2412L24.3046 11.1982L38.18 49.1942L38.0511 49.2586" fill="#F7BB06"/>
<path fill-rule="evenodd" clip-rule="evenodd" d="M24.2617 11.1982L24.412 11.1553L38.2874 49.1728L38.137 49.2157" fill="#F8BB05"/>
<path fill-rule="evenodd" clip-rule="evenodd" d="M24.3477 11.1767L24.498 11.1123L38.3733 49.1297L38.223 49.1942" fill="#F8BB05"/>
<path fill-rule="evenodd" clip-rule="evenodd" d="M24.4551 11.1337L24.5839 11.0908L38.4593 49.1083L38.3304 49.1512" fill="#F8BB05"/>
<path fill-rule="evenodd" clip-rule="evenodd" d="M24.541 11.1123L24.6913 11.0479L38.5667 49.0653L38.4164 49.1083" fill="#F8BB05"/>
<path fill-rule="evenodd" clip-rule="evenodd" d="M24.6475 11.0693L24.7763 11.0264L38.6516 49.0224L38.5013 49.0868" fill="#F9BB05"/>
<path fill-rule="evenodd" clip-rule="evenodd" d="M24.7344 11.0263L24.8632 10.9834L38.7386 49.0009L38.6097 49.0438" fill="#F9BC05"/>
<path fill-rule="evenodd" clip-rule="evenodd" d="M24.8203 11.0049L24.9707 10.9404L38.846 48.9579L38.6956 49.0224" fill="#F9BC04"/>
<path fill-rule="evenodd" clip-rule="evenodd" d="M24.9277 10.9624L25.0566 10.9194L38.9319 48.9369L38.7816 48.9799" fill="#F9BC04"/>
<path fill-rule="evenodd" clip-rule="evenodd" d="M25.0137 10.9404L25.1425 10.876L39.0179 48.8931L38.889 48.9575" fill="#FABC04"/>
<path fill-rule="evenodd" clip-rule="evenodd" d="M25.0996 10.8974L25.2499 10.8545L39.1253 48.872L38.9749 48.9149" fill="#FABC04"/>
<path fill-rule="evenodd" clip-rule="evenodd" d="M25.207 10.8545L25.3359 10.8115L39.2112 48.829L39.0609 48.8719" fill="#FABC04"/>
<path fill-rule="evenodd" clip-rule="evenodd" d="M25.293 10.833L25.4218 10.79L39.2971 48.7861L39.1683 48.8505" fill="#FABC03"/>
<path fill-rule="evenodd" clip-rule="evenodd" d="M25.3779 10.79L25.5283 10.7471L39.4036 48.7646L39.2533 48.8075" fill="#FBBD03"/>
<path fill-rule="evenodd" clip-rule="evenodd" d="M25.4863 10.7686L25.6152 10.7041L39.4905 48.7216L39.3402 48.786" fill="#FBBD03"/>
<path fill-rule="evenodd" clip-rule="evenodd" d="M25.5723 10.7255L25.7011 10.6826L39.5765 48.7001L39.4476 48.743" fill="#FBBD03"/>
<path fill-rule="evenodd" clip-rule="evenodd" d="M25.6572 10.7041L25.8076 10.6396L39.6829 48.6571L39.5326 48.7001" fill="#FBBD03"/>
<path fill-rule="evenodd" clip-rule="evenodd" d="M25.7646 10.6611L25.8935 10.6182L39.7688 48.6142L39.64 48.6786" fill="#FCBD02"/>
<path fill-rule="evenodd" clip-rule="evenodd" d="M25.8506 10.6181L26.0009 10.5752L39.8547 48.5927L39.7258 48.6356" fill="#FCBD02"/>
<path fill-rule="evenodd" clip-rule="evenodd" d="M25.9365 10.5966L26.0869 10.5322L39.9622 48.5497L39.8118 48.6142" fill="#FCBD02"/>
<path fill-rule="evenodd" clip-rule="evenodd" d="M26.0439 10.5537L26.1728 10.5107L40.0481 48.5282L39.9193 48.5712" fill="#FCBE02"/>
<path fill-rule="evenodd" clip-rule="evenodd" d="M26.1299 10.5322L26.2802 10.4678L40.134 48.4853L40.0051 48.5282" fill="#FDBE02"/>
<path fill-rule="evenodd" clip-rule="evenodd" d="M26.2158 10.4887L26.3661 10.4458L40.2415 48.4633L40.0911 48.5062" fill="#FDBE02"/>
<path fill-rule="evenodd" clip-rule="evenodd" d="M26.3232 10.4462L26.4521 10.4033L40.3274 48.4208L40.1986 48.4637" fill="#FDBE01"/>
<path fill-rule="evenodd" clip-rule="evenodd" d="M26.4092 10.4247L26.5595 10.3604L40.4134 48.3778L40.2846 48.4422" fill="#FDBE01"/>
<path fill-rule="evenodd" clip-rule="evenodd" d="M26.4951 10.3818L26.6454 10.3389L40.5208 48.3564L40.3704 48.3993" fill="#FEBE01"/>
<path fill-rule="evenodd" clip-rule="evenodd" d="M26.6025 10.3603L26.7314 10.2959L40.6067 48.3134L40.4779 48.3778" fill="#FEBE01"/>
<path fill-rule="evenodd" clip-rule="evenodd" d="M26.6885 10.3173L26.8388 10.2744L40.7141 48.2919L40.5638 48.3348" fill="#FEBF01"/>
<path fill-rule="evenodd" clip-rule="evenodd" d="M26.7744 10.2958L26.9247 10.2314L40.8001 48.2489L40.6497 48.2919" fill="#FEBF00"/>
<path fill-rule="evenodd" clip-rule="evenodd" d="M26.8818 10.2529L27.0107 10.21L40.886 48.2059L40.7572 48.2704" fill="#FFBF00"/>
<path fill-rule="evenodd" clip-rule="evenodd" d="M26.9678 10.21L47.5874 2.69238L61.4413 40.7099L40.8435 48.2275" fill="#FFBF00"/>
</g>
</mask>
<g mask="url(#mask1_779_5831)">
<rect width="170" height="56" fill="#141414"/>
</g>
</g>
</svg>
