<svg xmlns="http://www.w3.org/2000/svg" xmlns:xlink="http://www.w3.org/1999/xlink" width="400" height="114" viewBox="0 0 400 114">
  <defs>
    <clipPath id="clip-Web_1920_1">
      <rect width="400" height="114"/>
    </clipPath>
  </defs>
  <g id="Web_1920_1" data-name="Web 1920 – 1" clip-path="url(#clip-Web_1920_1)">
    <g id="hotel-and-resort-client-02" transform="translate(20.449 -0.045)">
      <path id="Path_1" data-name="Path 1" d="M235.835,114.045a25.837,25.837,0,0,0,25.7-25.791V26.015A26.41,26.41,0,0,0,254.1,7.657,25.825,25.825,0,0,0,235.835.045h-62.6a25.835,25.835,0,0,0-18.179,7.612,26.106,26.106,0,0,0-7.522,18.358V88.344a25.876,25.876,0,0,0,25.7,25.7" fill="#cf381e"/>
      <path id="Path_2" data-name="Path 2" d="M218.1,60.582c-2.418,8.06,1.522,16.119,9.85,12.9-2.418,5.821-6.448,14.507-6.448,23.552,0,0,0,6.09,4.478,7.612,0,0,6.269,1.522,4.927-4.03a26.792,26.792,0,0,1-.806-10.656A108.9,108.9,0,0,1,237,68.284S246.582,48.314,252.134,39c0,0,2.328-4.746-2.418-4.746a4.667,4.667,0,0,0-3.671,1.88L232.522,60.224c-2.061,3.762-4.03,4.926-5.553,4.926-3.4,0-2.687-5.463-2.149-7.434a79.9,79.9,0,0,1,7.164-19.343c2.418-5.283-2.418-5.731-2.418-5.731-3.045-.806-5.373,4.209-5.373,4.209L218.82,47.777a190.536,190.536,0,0,1-11.462,17.553s-.717.9-1.254.538c-.538-.448-.27-1.343-.27-1.343a143.5,143.5,0,0,1,4.478-22.031,6.033,6.033,0,0,0,.179-1.253,3.577,3.577,0,0,0-.806-2.687,3.138,3.138,0,0,0-2.507-1.253c-2.418-.268-3.582.9-5.731,3.492-4.746,5.822-10.3,14.6-12.986,18.538-.268.447-.806.358-.806-.269,0-1.791,6.269-21.135,6.269-21.135s.716-2.686-1.433-3.582c0,0-3.313-2.06-6,1.97L173.6,53.866c-.985,1.343-1.522.9-1.522.9V53.6l2.06-11.462c1.612-8.776-1.433-9.224-3.4-9.582a7.958,7.958,0,0,0-4.209,1.254c-4.029,1.97-7.074,9.94-7.074,9.94s-.9,2.865,1.074,4.029a3.4,3.4,0,0,0,2.06.538c2.866-.179,3.4-5.463,5.463-5.463.358,0,.358.448.358.538L161.776,71.24a3.872,3.872,0,0,0,1.612,4.209,4.017,4.017,0,0,0,2.865.447,4.206,4.206,0,0,0,2.239-1.7l2.418-3.761c3.493-6.18,9.941-15.045,10.568-15.045.268,0,.359,0,.359.268l-2.419,16.389a3.365,3.365,0,0,0,1.881,3.582,4.6,4.6,0,0,0,3.76-.269,12.758,12.758,0,0,0,3.314-3.94c1.343-2.149,7.791-9.761,11.73-16.746.27-.448.538,0,.449.269-.806,3.671-1.434,13.432-1.523,15.85-.179,4.747,3.492,5.284,3.583,5.284A6.736,6.736,0,0,0,208.7,73.21" fill="#fff"/>
      <path id="Path_3" data-name="Path 3" d="M25.387,71.418H18.223V55.388a9.912,9.912,0,0,0-1.074-5.1,3.96,3.96,0,0,0-3.672-1.7,6.241,6.241,0,0,0-3.4.9,8.518,8.518,0,0,0-2.6,2.776V71.418H.312v-29.1H4.342l2.687,3.94c.716-.627,1.433-1.164,2.149-1.7a17.6,17.6,0,0,1,2.239-1.164,12.739,12.739,0,0,1,2.418-.806,12.153,12.153,0,0,1,2.6-.268,10.049,10.049,0,0,1,2.865.358,11.505,11.505,0,0,1,2.149.985,12.2,12.2,0,0,1,1.522,1.523,12.621,12.621,0,0,1,1.254,2.06,17.746,17.746,0,0,1,1.88-1.7,15.861,15.861,0,0,1,2.418-1.522,12.562,12.562,0,0,1,2.687-1.343,13.428,13.428,0,0,1,3.313-.448,8.932,8.932,0,0,1,4.03.985A8,8,0,0,1,41.327,45.9,13.957,13.957,0,0,1,42.849,50.1a24.926,24.926,0,0,1,.538,5.194V71.418H36.133V55.389a8.4,8.4,0,0,0-1.074-5.1,3.815,3.815,0,0,0-3.582-1.7,6.679,6.679,0,0,0-3.4.9,7.978,7.978,0,0,0-2.686,2.776" fill="#174880"/>
      <path id="Path_4" data-name="Path 4" d="M66.76,58.164H60.4a6.265,6.265,0,0,0-3.762.986,3.929,3.929,0,0,0-1.164,2.776,3.587,3.587,0,0,0,1.075,2.6,4.3,4.3,0,0,0,2.955.9,7.534,7.534,0,0,0,2.418-.358,8.24,8.24,0,0,0,2.06-.806A12.816,12.816,0,0,0,65.6,62.911,9.874,9.874,0,0,0,66.85,61.3m-.09,6.9a11.375,11.375,0,0,1-3.493,2.329,13.407,13.407,0,0,1-5.284.9,9,9,0,0,1-3.761-.627,10.326,10.326,0,0,1-2.955-1.88,10.346,10.346,0,0,1-1.88-2.955,10.218,10.218,0,0,1-.627-3.671c0-5.373,4.209-8.866,10.926-8.866H66.85V51.806a2.7,2.7,0,0,0-1.522-2.418,10.3,10.3,0,0,0-4.657-.9,25.824,25.824,0,0,0-5.284.627,35.392,35.392,0,0,0-4.03,1.344l-.806-6a10.458,10.458,0,0,1,1.88-.716c.716-.269,1.612-.448,2.418-.717.805-.179,1.88-.358,2.955-.538a21.2,21.2,0,0,1,3.4-.178,12.745,12.745,0,0,1,9.224,2.954,11.434,11.434,0,0,1,3.134,8.6V71.418h-5.1Z" fill="#174880"/>
      <path id="Path_5" data-name="Path 5" d="M107.148,41.866,95.6,56.374,108.76,71.329H99.8L87.626,56.553V71.329H80.551V31.478h7.075V56.553L98.462,41.866h8.686" fill="#174880"/>
      <path id="Path_6" data-name="Path 6" d="M123,48.761a8.292,8.292,0,0,0-2.6.358,5.116,5.116,0,0,0-1.97.985A3.909,3.909,0,0,0,117,51.627a7.609,7.609,0,0,0-.806,1.97H128.82a4.67,4.67,0,0,0-.358-1.88,4.307,4.307,0,0,0-1.075-1.522A7.321,7.321,0,0,0,125.6,49.12a6.762,6.762,0,0,0-2.6-.359m1.343,16.389a13.9,13.9,0,0,0,3.313-.359,15.045,15.045,0,0,0,2.866-.806,11.009,11.009,0,0,0,2.329-1.074,7.514,7.514,0,0,0,1.075-.716l1.343,6.358a29.061,29.061,0,0,1-4.836,2.06,23.182,23.182,0,0,1-6.09.806,20.962,20.962,0,0,1-6.627-1.074,13.216,13.216,0,0,1-4.746-2.955,11.83,11.83,0,0,1-2.955-4.567A15.765,15.765,0,0,1,108.76,57a16.76,16.76,0,0,1,.9-5.553,14.089,14.089,0,0,1,2.776-4.746,11.936,11.936,0,0,1,4.388-3.134,16.562,16.562,0,0,1,12.089,0,11.268,11.268,0,0,1,4.12,2.954,13.218,13.218,0,0,1,2.418,4.209,18.861,18.861,0,0,1,.717,5.015v1.521c-.09.538-.179,1.075-.269,1.522H116.1a6.727,6.727,0,0,0,.806,2.687,5.408,5.408,0,0,0,1.7,2.06,5.135,5.135,0,0,0,2.507,1.253,9.355,9.355,0,0,0,3.224.538V65.15Z" fill="#174880"/>
      <path id="Path_7" data-name="Path 7" d="M268.521,46.433l9.493-11.463h2.15v7.253h8.149v6.269h-8.149v12a8.654,8.654,0,0,0,.268,2.06,5.328,5.328,0,0,0,.806,1.343,3.313,3.313,0,0,0,1.254.628,3.719,3.719,0,0,0,1.433.268,6.7,6.7,0,0,0,2.329-.358,7.267,7.267,0,0,0,1.969-.627v6.358a9.554,9.554,0,0,1-2.418.806,15.274,15.274,0,0,1-7.522-.269,8.077,8.077,0,0,1-3.045-1.791,8.419,8.419,0,0,1-1.7-2.865A10.642,10.642,0,0,1,273,62.284V48.672h-4.656" fill="#174880"/>
      <path id="Path_8" data-name="Path 8" d="M300.492,48.313a14.083,14.083,0,0,1,4.119-4.478,7.83,7.83,0,0,1,5.1-1.521,4.82,4.82,0,0,1,1.612,0l.985.178s-.179,1.612-1.255,6.627a4.883,4.883,0,0,0-1.611-.089,8.176,8.176,0,0,0-3.583.627,6.762,6.762,0,0,0-2.686,2.06,9.644,9.644,0,0,0-1.7,3.134,17.728,17.728,0,0,0-.536,4.3V71.418h-7.164v-29.1h4.478" fill="#174880"/>
      <path id="Path_9" data-name="Path 9" d="M344.462,48.672a5.093,5.093,0,0,0-2.329.359,8.474,8.474,0,0,0-1.971,1.074,7.289,7.289,0,0,0-1.433,1.433,6.234,6.234,0,0,0-.9,1.7v8.24a5.468,5.468,0,0,0,1.074,1.433,9.139,9.139,0,0,0,1.433,1.164,8.466,8.466,0,0,0,1.882.806,9.144,9.144,0,0,0,5.372-.269,6.709,6.709,0,0,0,2.15-1.7,6.815,6.815,0,0,0,1.343-2.508,20.908,20.908,0,0,0,.538-3.4,11.683,11.683,0,0,0-.538-3.4,7.583,7.583,0,0,0-1.343-2.687,6.66,6.66,0,0,0-5.015-2.329m1.7-6.267a11.68,11.68,0,0,1,5.553,1.164,11.343,11.343,0,0,1,3.85,3.313,15.385,15.385,0,0,1,2.239,4.746A22.815,22.815,0,0,1,358.79,57a19.356,19.356,0,0,1-.806,5.552,12.278,12.278,0,0,1-2.328,4.567,10.848,10.848,0,0,1-3.851,3.135,11.98,11.98,0,0,1-5.284,1.164,13.926,13.926,0,0,1-5.1-.9,10.247,10.247,0,0,1-3.583-2.6V83.06h-7.164V42.314h4.209l2.775,3.492a13.9,13.9,0,0,1,3.94-2.687,12.3,12.3,0,0,1,4.747-.806Z" fill="#174880"/>
      <path id="Path_10" data-name="Path 10" d="M319.656,30.4a3.632,3.632,0,0,0-3.671,3.671,3.673,3.673,0,1,0,7.343,0,3.267,3.267,0,0,0-1.076-2.6,3.52,3.52,0,0,0-2.6-1.164m3.492,41.1h-7.164v-29.1h7.164Z" fill="#174880"/>
    </g>
  </g>
</svg>
