<svg xmlns="http://www.w3.org/2000/svg" width="488.438" height="90" viewBox="0 0 488.438 90">
  <g id="bloomberg-logo_logotyp.us" data-name="bloomberg-logo@logotyp.us" transform="translate(-217.884 18.189)">
    <path id="Path_1" data-name="Path 1" d="M217.884-18.189h35.809c6.821,0,11.936,1.705,15.726,4.547,4.168,3.41,6.442,8.336,6.442,14.4,0,7.01-2.842,11.368-8.526,14.02v.379c7.579,2.463,11.936,9.284,11.936,17.431,0,7.768-3.031,13.831-7.957,17.62-4.168,3.031-9.473,4.358-16.673,4.358H217.884Zm32.209,28.42c3.789,0,6.631-2.084,6.631-6.442,0-4.168-2.842-6.252-6.821-6.252H237.588v12.5h12.5Zm1.705,28.23c4.358,0,7.579-2.652,7.579-7.389,0-5.116-3.41-7.389-7.579-7.389h-14.02V38.651H251.8Z"/>
    <path id="Path_2" data-name="Path 2" d="M282.491-18.189h18.757V54.755H282.491Z"/>
    <path id="Path_3" data-name="Path 3" d="M305.037,28.8c0-16.483,10.61-27.472,27.093-27.472s26.9,11.178,26.9,27.472c0,16.483-10.421,27.472-26.9,27.472S305.037,45.282,305.037,28.8Zm35.24,0c0-9.094-2.842-14.778-8.526-14.778S323.415,19.7,323.415,28.8s2.652,14.968,8.336,14.968c5.684-.189,8.526-5.873,8.526-14.968Z"/>
    <path id="Path_4" data-name="Path 4" d="M361.118,28.8c0-16.483,10.61-27.472,27.093-27.472S414.926,12.315,414.926,28.8s-10.421,27.472-26.9,27.472c-16.294,0-26.9-10.989-26.9-27.472Zm35.24,0c0-9.094-2.842-14.778-8.526-14.778S379.5,19.7,379.5,28.8s2.652,14.968,8.336,14.968c5.684-.189,8.526-5.873,8.526-14.968Z"/>
    <path id="Path_5" data-name="Path 5" d="M418.715,2.652h17.431v7.768h.379c3.41-6.063,8.147-9.284,15.726-9.284,6.631,0,11.557,3.221,14.02,8.9h.379c4.168-6.821,9.663-8.9,16.1-8.9,12.126,0,17.241,8.9,17.241,20.841V54.566H481.807V25.2c0-5.3-1.705-8.715-6.252-8.715s-6.821,4.168-6.821,9.852v28.23H450.545V25.2c0-5.3-1.705-8.715-6.252-8.715s-6.821,4.168-6.821,9.852v28.23H418.715Z"/>
    <path id="Path_6" data-name="Path 6" d="M522.921,47.745h-.19v6.821H505.3V-18.189h18.189V7.957h.379c3.41-4.547,8.147-7.01,14.778-7.01C551.719.947,559.3,12.694,559.3,28.42c0,17.62-8.147,27.851-21.788,27.851a16.04,16.04,0,0,1-14.589-8.526Zm17.62-19.515c0-8.336-3.031-13.831-8.526-13.831-5.684,0-9.094,5.494-9.094,13.831s3.6,13.831,9.094,13.831S540.541,36.756,540.541,28.23Z"/>
    <path id="Path_7" data-name="Path 7" d="M561.382,28.609c0-16.294,10.8-27.472,26.336-27.472,7.768,0,13.641,2.463,18.189,6.821,6.063,5.873,8.715,14.968,8.526,25.578H579.57c.758,6.442,3.789,9.852,9.284,9.852a7.1,7.1,0,0,0,7.2-4.926h17.62c-3.031,11.936-12.315,17.81-25.388,17.81-16.1-.189-26.9-11.178-26.9-27.662Zm18.189-5.494h16.673c-.379-6.252-3.789-9.473-8.147-9.473C582.981,13.452,580.139,17.052,579.57,23.115Z"/>
    <path id="Path_8" data-name="Path 8" d="M635.083,11.557h.379c3.789-7.2,8.715-10.042,14.968-10.042a5.654,5.654,0,0,1,3.031.568V18h-.379c-10.8-1.895-17.052,3.221-17.052,14.968V54.755H617.653V2.652h17.431Z"/>
    <path id="Path_9" data-name="Path 9" d="M655.356,54.755h17.62c.758,2.274,3.031,4.358,7.389,4.358,5.873,0,7.958-3.6,7.958-9.094V46.229h-.379a15.569,15.569,0,0,1-12.5,5.873c-11.178,0-21.031-8.336-21.031-24.63,0-14.968,7.958-26.525,20.083-26.525,7.01,0,11.178,2.842,14.02,7.2h.379V2.463h17.431V47.555c0,8.336-2.842,14.778-7.2,18.567-4.547,3.979-10.989,5.684-18.378,5.684C666.724,72,657.061,66.312,655.356,54.755Zm33.725-28.041c0-6.442-3.031-11.747-8.336-11.747-5.116,0-8.336,4.547-8.336,11.747,0,7.01,3.221,11.936,8.336,11.936S689.081,33.535,689.081,26.714Z"/>
  </g>
</svg>
