<?xml version="1.0" standalone="no"?>
<!DOCTYPE svg PUBLIC "-//W3C//DTD SVG 20010904//EN"
 "http://www.w3.org/TR/2001/REC-SVG-20010904/DTD/svg10.dtd">
<svg version="1.0" xmlns="http://www.w3.org/2000/svg"
 width="512.000000pt" height="480.000000pt" viewBox="0 0 512.000000 480.000000"
 preserveAspectRatio="xMidYMid meet">

<g transform="translate(0.000000,480.000000) scale(0.100000,-0.100000)"
fill="#BD3723" stroke="none">
<path d="M2065 4794 c-110 -16 -170 -28 -239 -50 -329 -105 -602 -374 -706
-696 l-21 -65 -52 -12 c-265 -60 -519 -279 -617 -533 -47 -122 -63 -202 -64
-325 l-1 -111 -152 -4 c-151 -3 -153 -3 -180 -31 -26 -26 -28 -32 -26 -105 3
-119 30 -342 59 -481 55 -276 194 -610 351 -851 226 -344 580 -667 920 -838
l61 -31 4 -213 c3 -205 4 -215 29 -268 33 -70 79 -116 149 -149 l55 -26 925 0
925 0 55 26 c70 33 116 79 149 149 25 53 26 63 29 267 l4 212 83 44 c363 194
708 519 929 877 153 246 265 528 321 802 28 138 55 361 58 480 2 73 0 79 -26
105 -27 27 -30 28 -161 31 l-134 4 23 61 c92 245 31 510 -160 703 -89 90 -184
151 -292 188 -80 27 -187 46 -261 46 l-49 0 -16 68 c-29 118 -91 227 -182 317
-126 126 -246 185 -418 207 -159 20 -318 -19 -459 -111 -142 -92 -256 -252
-295 -413 l-16 -68 -48 0 c-109 0 -227 -26 -341 -75 -16 -6 -18 20 -20 404
l-3 411 -27 26 c-21 22 -37 28 -80 30 -29 1 -66 0 -83 -2z m-5 -298 l0 -103
-67 -16 c-210 -51 -408 -225 -483 -425 -93 -244 -41 -525 132 -716 60 -66 169
-148 235 -175 17 -7 35 -23 41 -37 l12 -24 -169 0 -168 0 -45 40 c-95 83 -200
246 -243 375 -120 361 5 767 306 997 114 87 232 140 380 173 35 7 65 14 67 14
1 1 2 -46 2 -103z m1433 -115 c122 -35 227 -115 293 -223 42 -69 62 -130 73
-227 7 -59 14 -79 35 -100 26 -25 31 -26 184 -32 109 -5 171 -12 204 -24 149
-53 266 -153 329 -280 35 -71 42 -94 46 -166 6 -100 -13 -185 -60 -271 l-32
-58 -285 0 -285 0 130 130 c123 123 130 132 130 170 0 56 -39 95 -95 95 -39 0
-47 -7 -238 -198 l-197 -197 -132 0 -132 0 -3 370 -3 370 -27 27 c-39 38 -97
38 -135 0 l-28 -27 -3 -370 -3 -370 -132 0 -132 0 -197 197 c-191 191 -199
198 -238 198 -56 0 -95 -39 -95 -95 0 -38 7 -47 130 -170 l130 -130 -282 0
-282 0 -21 30 c-69 97 -97 258 -66 380 43 168 181 307 365 367 28 9 108 17
203 21 153 7 158 8 184 33 21 21 28 41 35 100 11 95 31 159 70 223 118 195
349 288 562 227z m-1433 -399 l0 -209 -50 -61 c-79 -100 -129 -223 -145 -357
l-7 -60 -59 63 c-94 100 -139 211 -139 342 0 211 146 413 345 476 22 7 43 13
48 13 4 1 7 -93 7 -207z m-1000 -249 c0 -21 3 -67 6 -103 l7 -66 -68 -39 c-37
-22 -88 -62 -112 -90 -89 -101 -143 -262 -128 -382 l6 -53 -107 0 -107 0 6
118 c6 120 19 182 55 264 70 159 211 297 371 364 31 13 59 23 64 24 4 0 7 -17
7 -37z m71 -410 c19 -60 83 -184 133 -256 l46 -67 -169 0 -170 0 -7 46 c-16
106 23 214 100 280 22 19 43 34 47 34 4 0 13 -17 20 -37z m3779 -556 c0 -41
-26 -244 -41 -314 l-10 -53 -969 -2 -970 -3 -27 -28 c-38 -38 -38 -96 0 -134
l27 -28 940 -3 c633 -2 940 -6 940 -13 0 -26 -79 -216 -136 -331 -220 -433
-584 -797 -1012 -1012 l-92 -46 -1000 0 -1000 0 -83 41 c-225 113 -402 242
-593 433 -197 197 -320 368 -442 611 -47 94 -122 282 -122 304 0 7 304 12 940
13 l940 3 27 27 c38 39 38 97 0 136 l-27 27 -970 3 -969 2 -10 53 c-15 70 -41
273 -41 314 l0 33 2350 0 2350 0 0 -33z m-1390 -2327 c0 -174 -7 -203 -51
-226 -42 -21 -1776 -21 -1818 0 -44 23 -51 52 -51 226 l0 160 960 0 960 0 0
-160z"/>
<path d="M2525 2391 c-64 -27 -81 -110 -32 -158 60 -61 162 -19 162 67 0 66
-72 116 -130 91z"/>
</g>
</svg>
