<svg id="icons" xmlns="http://www.w3.org/2000/svg" viewBox="0 0 64 64"><defs><style>.cls-1{fill:none;stroke:#c19e62;stroke-linecap:round;stroke-linejoin:round;stroke-width:2px;}</style></defs><title>16</title><g id="offer"><path class="cls-1" d="M30.66233,45.77866H37.019a2.51055,2.51055,0,0,0,.2909-.01127,3.05379,3.05379,0,0,0,.70031-.18042l.097-.03382a2.72593,2.72593,0,0,0,.89425-.63145,3.04111,3.04111,0,0,0,.81882-2.086,2.873,2.873,0,0,0-2.80125-2.943H26.16956a13.279,13.279,0,0,0-7.27247,2.19877l-7.56,4.877"/><path class="cls-1" d="M11.33709,56.12948H21.74283A25.13408,25.13408,0,0,0,28.47505,55.21l13.79276-3.833a25.71776,25.71776,0,0,0,8.34645-4.06938l8.16985-6.00643a3.08105,3.08105,0,0,0,.37826-4.56494h0a2.76495,2.76495,0,0,0-3.60915-.37319L44.25441,45.38128"/><path class="cls-1" d="M53.58487,37.7376h0a4.127,4.127,0,0,0-5.75665.03369l-3.29392,3.187"/><line class="cls-1" x1="39.17381" y1="40.95263" x2="39.16304" y2="40.96391"/><path class="cls-1" d="M10.34113,60H5.00931c-1.20146,0-.996-.52465-.996-1.17184V43.21484c0-.64718-.2055-1.17183.996-1.17183h5.33182c1.20146,0,.996.52465.996,1.17183V58.82816C11.33709,59.47535,11.54259,60,10.34113,60Z"/><path class="cls-1" d="M36.98668,14.68009l.01078.01127,6.82,13.655a17.65851,17.65851,0,0,1,1.86391,7.91559,8.83328,8.83328,0,0,1-1.1205,4.67945,9.85309,9.85309,0,0,1-6.45364,4.61179l-.097.03382"/><path class="cls-1" d="M16.726,43.53017a12.53292,12.53292,0,0,1-1.40181-5.76149V36.25759a17.714,17.714,0,0,1,1.85535-7.9074l6.82473-13.66636"/><path class="cls-1" d="M22.33239,12.99947h0a1.65073,1.65073,0,0,0,1.61192,1.687h13.114a1.65074,1.65074,0,0,0,1.61192-1.687h0a1.65074,1.65074,0,0,0-1.61192-1.687h-13.114A1.65073,1.65073,0,0,0,22.33239,12.99947Z"/><path class="cls-1" d="M22.33239,4.153,25.801,11.31249h9.40061L38.67027,4.153H36.97852a1.58852,1.58852,0,0,0-1.14855.4979l-.30312.31724a2.08667,2.08667,0,0,1-3.0459,0l-.29418-.30789A2.10633,2.10633,0,0,0,30.66382,4h-.91948a2.10631,2.10631,0,0,0-1.52294.6602l-.0019.002a2.08664,2.08664,0,0,1-3.04589,0h0a1.5889,1.5889,0,0,0-1.13818-.49786Z"/><path class="cls-1" d="M33.53236,22.00956l-3.7082-.57666a1.911,1.911,0,0,0-1.19856,3.521l3.75146,2.37053a1.911,1.911,0,0,1-1.19857,3.521l-3.7082-.57666"/><line class="cls-1" x1="30.60279" y1="21.55399" x2="30.60279" y2="19.11501"/><line class="cls-1" x1="30.60279" y1="33.16326" x2="30.60279" y2="30.75584"/></g></svg>