<svg width="147" height="50" viewBox="0 0 147 50" fill="none" xmlns="http://www.w3.org/2000/svg">
<path d="M141.976 0H5.02386C2.24926 0 0 2.64665 0 5.91146V44.0885C0 47.3533 2.24926 50 5.02386 50H141.976C144.751 50 147 47.3533 147 44.0885V5.91146C147 2.64665 144.751 0 141.976 0Z" fill="white"/>
<path d="M48.8221 15.3131L48.2033 17.3446H46.854L49.152 10.1748H50.8216L53.1516 17.3446H51.747L51.0983 15.3131H48.8221ZM50.8754 14.3236L50.3112 12.5579C50.1749 12.1218 50.0556 11.6325 49.9493 11.2175H49.9282C49.8219 11.6325 49.7155 12.132 49.5874 12.5579L49.0347 14.3236H50.8754Z" fill="black"/>
<path d="M55.1073 12.1641L55.9469 14.7918C56.0962 15.2491 56.2025 15.6641 56.2986 16.0866H56.3306C56.426 15.6614 56.5432 15.2573 56.6816 14.7918L57.5109 12.1641H58.8834L56.9071 17.3433H55.6178L53.6919 12.1641H55.1073Z" fill="black"/>
<path d="M64.1051 16.1001C64.0963 16.5166 64.1248 16.9331 64.1903 17.3445H63.0093L62.9139 16.77H62.8819C62.697 16.9955 62.4626 17.1752 62.1969 17.2952C61.9311 17.4152 61.6413 17.4722 61.3499 17.4617C61.1398 17.4743 60.9293 17.4436 60.7315 17.3716C60.5337 17.2995 60.3528 17.1876 60.2001 17.0427C60.0473 16.8979 59.9259 16.7232 59.8434 16.5295C59.7609 16.3359 59.7191 16.1273 59.7205 15.9168C59.7205 14.622 60.879 13.9494 62.7947 13.9596V13.8744C62.7947 13.5337 62.6584 12.9708 61.7418 12.9708C61.2513 12.9712 60.77 13.1035 60.3481 13.3538L60.0926 12.5026C60.6659 12.1887 61.3118 12.031 61.9653 12.0453C63.6247 12.0453 64.1031 13.0982 64.1031 14.2363L64.1051 16.1001ZM62.8287 14.8128C61.9033 14.8019 61.0201 14.9934 61.0201 15.7812C61.0112 15.8812 61.0244 15.9819 61.0587 16.0763C61.093 16.1707 61.1476 16.2564 61.2186 16.3273C61.2896 16.3983 61.3754 16.4528 61.4698 16.487C61.5642 16.5212 61.6649 16.5343 61.7649 16.5254C61.9899 16.5295 62.2105 16.4629 62.3956 16.335C62.5807 16.2072 62.721 16.0244 62.7967 15.8125C62.8231 15.7193 62.8339 15.6224 62.8287 15.5256V14.8128Z" fill="black"/>
<path d="M66.6033 11.4196C66.4075 11.4182 66.2202 11.3392 66.0825 11.2C65.9448 11.0607 65.8679 10.8726 65.8687 10.6768C65.8694 10.481 65.9477 10.2935 66.0864 10.1553C66.2251 10.0171 66.4129 9.93945 66.6087 9.93945C66.8046 9.93945 66.9924 10.0171 67.1311 10.1553C67.2698 10.2935 67.3481 10.481 67.3488 10.6768C67.3495 10.8726 67.2726 11.0607 67.135 11.2C66.9973 11.3392 66.81 11.4182 66.6142 11.4196H66.6033ZM65.9545 17.345V12.1658H67.263V17.345H65.9545Z" fill="black"/>
<path d="M69.1453 9.78369H70.4537V17.3481H69.1453V9.78369Z" fill="black"/>
<path d="M76.3677 16.1001C76.3589 16.5166 76.3872 16.933 76.4522 17.3445H75.2711L75.1757 16.77H75.1437C74.9589 16.9955 74.7245 17.1753 74.4587 17.2953C74.193 17.4153 73.9031 17.4722 73.6117 17.4617C73.402 17.4735 73.1921 17.4423 72.9949 17.3699C72.7977 17.2974 72.6175 17.1854 72.4653 17.0407C72.313 16.8959 72.1921 16.7215 72.1098 16.5282C72.0276 16.3349 71.9858 16.1269 71.9871 15.9168C71.9871 14.622 73.1456 13.9494 75.0613 13.9596V13.8744C75.0613 13.5337 74.925 12.9708 74.0084 12.9708C73.5179 12.9712 73.0366 13.1035 72.6147 13.3538L72.3599 12.5026C72.933 12.1886 73.5786 12.0309 74.2319 12.0453C75.8913 12.0453 76.3704 13.0982 76.3704 14.2363L76.3677 16.1001ZM75.0906 14.8128C74.1651 14.8019 73.2826 14.9934 73.2826 15.7812C73.2737 15.8811 73.2869 15.9818 73.3212 16.0761C73.3554 16.1704 73.41 16.2561 73.4809 16.327C73.5519 16.398 73.6375 16.4525 73.7318 16.4868C73.8261 16.5211 73.9268 16.5342 74.0268 16.5254C74.2517 16.5295 74.4723 16.4629 74.6574 16.335C74.8425 16.2072 74.9828 16.0244 75.0585 15.8125C75.085 15.7193 75.0958 15.6224 75.0906 15.5256V14.8128Z" fill="black"/>
<path d="M78.2172 9.78369H79.5257V12.8796H79.5468C79.7277 12.6094 79.9758 12.3908 80.2668 12.2454C80.5577 12.1 80.8814 12.0328 81.2062 12.0503C82.4724 12.0503 83.376 13.1032 83.3651 14.6774C83.3651 16.5392 82.1848 17.4646 81.0147 17.4646C80.6861 17.4809 80.3595 17.406 80.0708 17.2482C79.7822 17.0904 79.5428 16.8559 79.3791 16.5705H79.358L79.2939 17.3474H78.177C78.1981 16.9964 78.2199 16.4219 78.2199 15.9006L78.2172 9.78369ZM79.5257 15.2089C79.525 15.3127 79.5355 15.4161 79.557 15.5176C79.6198 15.7778 79.7681 16.0094 79.9782 16.1753C80.1882 16.3413 80.4478 16.4319 80.7155 16.4329C81.5333 16.4329 82.0342 15.7841 82.0342 14.7292C82.0342 13.8146 81.598 13.0698 80.7257 13.0698C80.4537 13.0762 80.1917 13.1737 79.9817 13.3467C79.7717 13.5197 79.6257 13.7581 79.5672 14.0238C79.5407 14.1355 79.5265 14.2498 79.525 14.3646L79.5257 15.2089Z" fill="black"/>
<path d="M84.9058 9.78369H86.2142V17.3481H84.9058V9.78369Z" fill="black"/>
<path d="M89.0329 15.122C89.0404 15.3181 89.0889 15.5104 89.1751 15.6867C89.2614 15.8629 89.3836 16.0191 89.5338 16.1454C89.6841 16.2716 89.859 16.365 90.0475 16.4196C90.236 16.4742 90.4338 16.4888 90.6282 16.4625C91.1169 16.469 91.6029 16.3897 92.0641 16.228L92.2556 17.1214C91.6809 17.3506 91.0662 17.4627 90.4476 17.4513C90.0934 17.4837 89.7364 17.4387 89.4013 17.3194C89.0663 17.2001 88.7611 17.0094 88.5071 16.7605C88.253 16.5116 88.0561 16.2104 87.93 15.8778C87.804 15.5452 87.7517 15.1892 87.7769 14.8344C87.7769 13.3985 88.6492 12.0479 90.3093 12.0479C91.9898 12.0479 92.5425 13.4306 92.5425 14.5693C92.544 14.7546 92.5301 14.9397 92.5009 15.1227L89.0329 15.122ZM91.309 14.2068C91.3305 14.0515 91.3189 13.8935 91.2751 13.7431C91.2313 13.5926 91.1562 13.4531 91.0547 13.3336C90.9533 13.2142 90.8278 13.1175 90.6864 13.0499C90.545 12.9823 90.391 12.9453 90.2343 12.9413C89.9111 12.9611 89.6074 13.1027 89.3845 13.3375C89.1615 13.5723 89.0359 13.883 89.0329 14.2068H91.309Z" fill="black"/>
<path d="M98.9982 17.4621C98.6473 17.4757 98.2974 17.4153 97.9714 17.2849C97.6453 17.1546 97.3502 16.9571 97.1054 16.7053C96.8606 16.4535 96.6714 16.1531 96.5502 15.8235C96.429 15.4939 96.3784 15.1425 96.4018 14.7921C96.3749 14.4302 96.4254 14.0667 96.5498 13.7258C96.6742 13.3849 96.8697 13.0743 97.1233 12.8148C97.3769 12.5552 97.6829 12.3526 98.0208 12.2203C98.3588 12.0881 98.721 12.0293 99.0834 12.0478C99.4322 12.0345 99.7799 12.0948 100.104 12.2248C100.428 12.3548 100.721 12.5515 100.963 12.8023C101.206 13.053 101.394 13.3521 101.513 13.68C101.633 14.0079 101.682 14.3573 101.657 14.7055C101.684 15.0652 101.635 15.4266 101.513 15.766C101.391 16.1054 101.199 16.4152 100.949 16.6753C100.699 16.9353 100.397 17.1396 100.062 17.275C99.7281 17.4103 99.3689 17.4736 99.0085 17.4607L98.9982 17.4621ZM99.0405 16.5148C99.7847 16.5148 100.307 15.7918 100.307 14.7389C100.307 13.93 99.9441 12.9943 99.0514 12.9943C98.1253 12.9943 97.7566 13.8986 97.7566 14.76C97.7566 15.7598 98.2568 16.5148 99.0337 16.5148H99.0405Z" fill="black"/>
<path d="M103.199 13.7073C103.199 13.111 103.178 12.6115 103.156 12.1645H104.294L104.358 12.9414H104.39C104.565 12.6611 104.81 12.4313 105.101 12.2746C105.392 12.1179 105.719 12.0398 106.05 12.0479C106.954 12.0479 107.89 12.6326 107.89 14.2709V17.3451H106.581V14.4181C106.581 13.6733 106.304 13.109 105.592 13.109C105.363 13.1141 105.141 13.1907 104.958 13.328C104.774 13.4654 104.639 13.6566 104.569 13.875C104.524 14.0085 104.502 14.149 104.505 14.29V17.343H103.199V13.7073Z" fill="black"/>
<path d="M113.918 10.8345V12.164H115.162V13.1426H113.918V15.4194C113.918 16.0573 114.088 16.3769 114.589 16.3769C114.76 16.3849 114.932 16.3669 115.099 16.3238L115.12 17.3126C114.814 17.4109 114.494 17.457 114.173 17.4489C113.966 17.4598 113.759 17.4276 113.565 17.3545C113.371 17.2813 113.194 17.1686 113.046 17.0236C112.726 16.609 112.577 16.087 112.631 15.566V13.1426H111.897V12.164H112.631V11.1963L113.918 10.8345Z" fill="black"/>
<path d="M116.619 9.78369H117.928V12.8687H117.949C118.111 12.6215 118.335 12.4201 118.598 12.284C118.874 12.1297 119.186 12.0492 119.503 12.0503C120.389 12.0503 121.311 12.635 121.311 14.2944V17.3474H120.002V14.43C120.002 13.6851 119.725 13.1107 119.002 13.1107C118.776 13.1124 118.557 13.1839 118.374 13.3153C118.191 13.4467 118.053 13.6316 117.98 13.8446C117.94 13.972 117.922 14.1051 117.926 14.2385V17.3447H116.618L116.619 9.78369Z" fill="black"/>
<path d="M124.096 15.122C124.103 15.3181 124.152 15.5104 124.238 15.6867C124.324 15.8629 124.447 16.0191 124.597 16.1454C124.747 16.2716 124.922 16.365 125.11 16.4196C125.299 16.4742 125.497 16.4888 125.691 16.4625C126.18 16.469 126.666 16.3897 127.127 16.228L127.319 17.1214C126.744 17.3506 126.129 17.4627 125.511 17.4513C125.156 17.4837 124.799 17.4387 124.464 17.3194C124.129 17.2001 123.824 17.0094 123.57 16.7605C123.316 16.5116 123.119 16.2104 122.993 15.8778C122.867 15.5452 122.815 15.1892 122.84 14.8344C122.84 13.3985 123.712 12.0479 125.372 12.0479C127.053 12.0479 127.606 13.4306 127.606 14.5693C127.607 14.7546 127.593 14.9397 127.564 15.1227L124.096 15.122ZM126.372 14.2068C126.393 14.0516 126.382 13.8936 126.338 13.7432C126.294 13.5928 126.219 13.4533 126.118 13.3339C126.017 13.2145 125.891 13.1177 125.75 13.0501C125.609 12.9824 125.455 12.9454 125.298 12.9413C124.975 12.9609 124.671 13.1024 124.448 13.3373C124.225 13.5721 124.099 13.8829 124.096 14.2068H126.372Z" fill="black"/>
<path d="M32.5461 24.2993C32.5598 23.2228 32.8456 22.1672 33.377 21.2309C33.9085 20.2946 34.6682 19.5079 35.5855 18.9443C35.0029 18.1118 34.2342 17.4267 33.3405 16.9433C32.4467 16.4599 31.4525 16.1916 30.4369 16.1598C28.2712 15.9329 26.1702 17.4546 25.0689 17.4546C23.9438 17.4546 22.2414 16.1796 20.4123 16.2164C19.2286 16.2549 18.075 16.5994 17.0639 17.2162C16.0529 17.833 15.2188 18.7012 14.6429 19.7362C12.1487 24.0554 14.0091 30.4026 16.3984 33.8959C17.5944 35.605 18.9921 37.5145 20.8206 37.4464C22.6094 37.3721 23.2739 36.3069 25.4369 36.3069C27.5774 36.3069 28.2051 37.4464 30.071 37.4034C31.9907 37.3721 33.199 35.6854 34.3521 33.9599C35.2129 32.7426 35.8745 31.3959 36.312 29.9706C35.1969 29.4994 34.2451 28.7103 33.5754 27.7018C32.9058 26.6933 32.5478 25.5099 32.5461 24.2993Z" fill="black"/>
<path d="M29.0214 13.8638C30.0695 12.608 30.5853 10.9922 30.4587 9.36133C28.86 9.52904 27.3834 10.2934 26.3234 11.5018C25.8041 12.0919 25.4064 12.7787 25.153 13.5228C24.8996 14.2669 24.7955 15.0537 24.8467 15.8381C25.6467 15.8459 26.4381 15.6721 27.1612 15.3298C27.8844 14.9875 28.5204 14.4855 29.0214 13.8618" fill="black"/>
<path d="M58.4044 37.1676H55.9129L54.5465 32.8743H49.8013L48.4997 37.1676H46.0723L50.7745 22.5581H53.6762L58.4044 37.1676ZM54.1362 31.0745L52.9021 27.2582C52.7699 26.8698 52.5238 25.9528 52.164 24.5071H52.1211C51.9762 25.1291 51.7445 26.0461 51.426 27.2582L50.2123 31.0745H54.1362Z" fill="black"/>
<path d="M70.4999 31.7696C70.5851 33.3207 70.0644 34.8442 69.0476 36.0187C68.6396 36.4667 68.1404 36.8221 67.5836 37.0612C67.0268 37.3003 66.4253 37.4174 65.8194 37.4048C65.2316 37.452 64.642 37.3376 64.1144 37.074C63.5869 36.8103 63.1415 36.4075 62.8264 35.9089H62.7855V41.4575H60.4426V30.1C60.4426 28.9733 60.4139 27.8175 60.3567 26.6327H62.4148L62.5456 28.3023H62.5899C62.9447 27.7594 63.4215 27.3069 63.9822 26.9809C64.5429 26.655 65.172 26.4645 65.8194 26.4248C66.4667 26.3851 67.1144 26.4972 67.7107 26.7522C68.3071 27.0071 68.8356 27.398 69.2541 27.8934C70.1241 28.9936 70.5666 30.3714 70.4999 31.7724M68.1147 31.8582C68.1509 30.9616 67.9085 30.0758 67.4209 29.3225C67.1951 28.9931 66.8905 28.7253 66.5349 28.5434C66.1793 28.3616 65.7839 28.2714 65.3847 28.2812C64.8093 28.2807 64.2525 28.4842 63.8132 28.8557C63.3435 29.2394 63.0183 29.7714 62.8911 30.3644C62.8274 30.597 62.7915 30.8363 62.7841 31.0773V32.8348C62.764 33.5465 63.0146 34.2394 63.4854 34.7736C63.7136 35.0326 63.9963 35.2378 64.3133 35.3745C64.6303 35.5111 64.9736 35.5759 65.3186 35.5641C65.7195 35.5813 66.1183 35.4971 66.4781 35.3193C66.8378 35.1414 67.1469 34.8757 67.3766 34.5467C67.9028 33.752 68.1613 32.8101 68.1147 31.8582Z" fill="black"/>
<path d="M82.6181 31.7696C82.7035 33.3208 82.1825 34.8445 81.1652 36.0187C80.7572 36.4669 80.2579 36.8225 79.701 37.0616C79.144 37.3007 78.5423 37.4177 77.9364 37.4048C77.349 37.4518 76.7599 37.3373 76.233 37.0737C75.706 36.81 75.2612 36.4072 74.9467 35.9089H74.9031V41.4575H72.5629V30.1C72.5629 28.9733 72.534 27.8175 72.4763 26.6327H74.5344L74.6652 28.3023H74.7102C75.065 27.7594 75.5417 27.3069 76.1023 26.9809C76.6629 26.655 77.292 26.4645 77.9393 26.4248C78.5866 26.3851 79.2343 26.4972 79.8305 26.7522C80.4268 27.0072 80.9553 27.398 81.3737 27.8934C82.243 28.9939 82.6849 30.3716 82.6181 31.7724M80.2329 31.8582C80.2694 30.9614 80.0265 30.0754 79.5378 29.3225C79.3121 28.993 79.0075 28.7251 78.6519 28.5433C78.2963 28.3614 77.9009 28.2713 77.5016 28.2812C76.9261 28.281 76.3692 28.4845 75.9294 28.8557C75.4605 29.2396 75.1363 29.7717 75.0101 30.3644C74.9444 30.5966 74.9075 30.8361 74.9004 31.0773V32.8348C74.8799 33.5469 75.1314 34.2402 75.6036 34.7736C75.8315 35.0329 76.1142 35.2384 76.4313 35.3751C76.7483 35.5118 77.0918 35.5764 77.4368 35.5641C77.8377 35.5809 78.2364 35.4965 78.596 35.3187C78.9557 35.1409 79.2648 34.8754 79.4949 34.5467C80.02 33.7505 80.2785 32.8081 80.2329 31.8555" fill="black"/>
<path d="M96.1633 33.0699C96.1826 33.6401 96.0763 34.2075 95.8518 34.7319C95.6273 35.2563 95.2902 35.725 94.8644 36.1045C93.7459 37.0149 92.326 37.4713 90.8866 37.383C89.5633 37.4453 88.2497 37.13 87.0989 36.4739L87.6441 34.5228C88.6639 35.1417 89.8361 35.464 91.029 35.4537C91.7639 35.4982 92.4916 35.2881 93.0898 34.8588C93.3285 34.6685 93.5193 34.425 93.647 34.1478C93.7747 33.8705 93.8357 33.5672 93.8251 33.2621C93.8314 32.9841 93.7809 32.7078 93.6767 32.45C93.5725 32.1923 93.4169 31.9584 93.2193 31.7629C92.6304 31.2522 91.9422 30.8689 91.198 30.6371C88.6406 29.683 87.3624 28.2862 87.3633 26.4467C87.3487 25.885 87.4621 25.3274 87.695 24.816C87.9278 24.3046 88.2739 23.853 88.7072 23.4952C89.7187 22.6873 90.9907 22.2772 92.2836 22.3421C93.4286 22.3026 94.5661 22.5408 95.599 23.0366L95.015 24.9447C94.155 24.4891 93.1939 24.2582 92.2209 24.2734C91.5255 24.2311 90.8389 24.4471 90.293 24.88C90.1067 25.0457 89.9581 25.2495 89.8574 25.4776C89.7566 25.7056 89.706 25.9527 89.709 26.202C89.7031 26.4761 89.7605 26.7478 89.8768 26.996C89.9932 27.2442 90.1652 27.4623 90.3795 27.6331C91.0218 28.1186 91.7375 28.4982 92.4996 28.7576C93.5491 29.1278 94.4986 29.7358 95.2739 30.5342C95.8744 31.2398 96.1903 32.1439 96.1599 33.0699" fill="black"/>
<path d="M103.901 28.388H101.321V33.5031C101.321 34.8038 101.777 35.454 102.688 35.4535C103.038 35.4607 103.387 35.4247 103.727 35.3465L103.791 37.1231C103.205 37.3158 102.589 37.4037 101.972 37.3828C101.572 37.4054 101.171 37.3418 100.797 37.1962C100.423 37.0507 100.084 36.8266 99.8044 36.5391C99.2059 35.7195 98.9283 34.709 99.0241 33.6987V28.388H97.4846V26.6311H99.0241V24.7032L101.321 24.0088V26.6311H103.901V28.388Z" fill="black"/>
<path d="M115.541 31.8133C115.599 33.2702 115.103 34.6951 114.154 35.802C113.667 36.334 113.069 36.753 112.402 37.0299C111.736 37.3068 111.017 37.4347 110.296 37.4048C109.605 37.4355 108.915 37.3135 108.277 37.0474C107.638 36.7814 107.066 36.3778 106.601 35.8654C105.666 34.7948 105.174 33.4087 105.224 31.9884C105.164 30.5188 105.672 29.0825 106.644 27.978C107.129 27.4552 107.723 27.0446 108.383 26.7749C109.044 26.5051 109.755 26.3826 110.468 26.416C111.164 26.3876 111.858 26.5105 112.501 26.7761C113.145 27.0418 113.724 27.4439 114.197 27.9548C115.119 29.0234 115.6 30.4031 115.541 31.8133ZM113.112 31.8889C113.137 31.0136 112.92 30.1485 112.483 29.3893C112.286 29.0034 111.985 28.6806 111.614 28.4577C111.242 28.2348 110.816 28.1208 110.383 28.1286C109.943 28.1161 109.508 28.2277 109.128 28.4506C108.749 28.6736 108.44 28.9989 108.236 29.3893C107.797 30.1637 107.581 31.0443 107.61 31.9339C107.584 32.8085 107.801 33.6732 108.236 34.4322C108.44 34.8182 108.746 35.1403 109.121 35.3627C109.497 35.5852 109.926 35.6992 110.362 35.6923C110.797 35.6951 111.224 35.5767 111.595 35.3502C111.966 35.1237 112.266 34.7983 112.462 34.4104C112.91 33.647 113.135 32.7736 113.112 31.8889Z" fill="black"/>
<path d="M123.148 28.6908C122.905 28.648 122.659 28.6265 122.412 28.6268C122.041 28.6106 121.672 28.6876 121.339 28.8505C121.006 29.0135 120.719 29.2573 120.504 29.5597C120.096 30.1746 119.891 30.9022 119.92 31.6396V37.1663H117.578L117.598 29.9502C117.598 28.7358 117.569 27.63 117.512 26.6328H119.554L119.64 28.6499H119.703C119.925 27.9924 120.332 27.4128 120.874 26.9803C121.363 26.6149 121.956 26.417 122.567 26.4161C122.762 26.4151 122.957 26.429 123.151 26.4576L123.148 28.6908Z" fill="black"/>
<path d="M133.615 31.4013C133.621 31.7573 133.593 32.113 133.531 32.4637H126.512C126.496 32.9115 126.579 33.3573 126.755 33.7694C126.931 34.1815 127.195 34.5501 127.529 34.8489C128.183 35.3604 128.998 35.621 129.828 35.5835C130.797 35.5959 131.759 35.4272 132.666 35.086L133.033 36.712C131.913 37.1698 130.71 37.3916 129.5 37.3635C128.794 37.4023 128.087 37.2941 127.425 37.0457C126.763 36.7974 126.16 36.4144 125.653 35.9208C125.175 35.4006 124.806 34.7907 124.566 34.1264C124.326 33.4621 124.22 32.7568 124.255 32.0514C124.204 30.6161 124.666 29.2094 125.558 28.0839C125.995 27.5334 126.557 27.0937 127.196 26.8003C127.835 26.5069 128.535 26.3681 129.238 26.3952C129.909 26.358 130.579 26.4938 131.183 26.7894C131.787 27.0851 132.305 27.5308 132.688 28.0839C133.332 29.0677 133.655 30.2263 133.615 31.4013ZM131.384 30.7941C131.415 30.1629 131.257 29.5366 130.93 28.9957C130.737 28.6793 130.461 28.4214 130.132 28.2496C129.803 28.0777 129.434 27.9983 129.064 28.0198C128.699 28.014 128.338 28.098 128.014 28.2644C127.689 28.4307 127.41 28.6744 127.201 28.9739C126.802 29.5021 126.562 30.1337 126.51 30.7941H131.384Z" fill="black"/>
</svg>
