<svg width="170" height="56" viewBox="0 0 170 56" fill="none" xmlns="http://www.w3.org/2000/svg">
<mask id="mask0_779_5832" style="mask-type:alpha" maskUnits="userSpaceOnUse" x="0" y="0" width="170" height="56">
<rect width="170" height="56" fill="#D9D9D9"/>
</mask>
<g mask="url(#mask0_779_5832)">
<mask id="mask1_779_5832" style="mask-type:alpha" maskUnits="userSpaceOnUse" x="23" y="4" width="125" height="50">
<path d="M118.716 32.8316L97.5477 54H87.042L113.465 27.5781L118.716 32.8316Z" fill="#FF6E00"/>
<path d="M109.814 8.41211L118.716 17.3148L113.466 22.5683L99.3066 8.41211H109.814Z" fill="#045293"/>
<path fill-rule="evenodd" clip-rule="evenodd" d="M126.474 25.0725H115.967L137.039 4H147.548L126.474 25.0725Z" fill="#6FB900"/>
<path fill-rule="evenodd" clip-rule="evenodd" d="M126.474 25.0728H115.967L130.305 39.4113H140.812L126.474 25.0728Z" fill="#489B12"/>
<path d="M95.9951 27.8552H98.759C98.7561 28.0915 98.8095 28.3252 98.9149 28.5368C99.0202 28.7484 99.1744 28.9319 99.3648 29.072C99.8552 29.3647 100.421 29.506 100.992 29.4781C101.428 29.4908 101.861 29.3933 102.25 29.1945C102.395 29.1243 102.518 29.0149 102.604 28.8787C102.69 28.7425 102.737 28.5849 102.738 28.4237C102.738 27.9351 102.17 27.5716 101.03 27.328C100.658 27.2729 100.291 27.1911 99.9306 27.083C98.8789 26.9103 97.8866 26.4789 97.0429 25.8275C96.7723 25.5824 96.5591 25.2807 96.4183 24.9438C96.2775 24.607 96.2125 24.2432 96.2281 23.8785C96.2185 23.3906 96.3195 22.907 96.5236 22.4638C96.7276 22.0206 97.0294 21.6294 97.4064 21.3196C98.3308 20.6648 99.4472 20.3369 100.579 20.3877C101.775 20.3241 102.959 20.6512 103.953 21.3196C104.338 21.6457 104.649 22.0499 104.866 22.5056C105.083 22.9612 105.2 23.4578 105.211 23.9623H103.464C103.222 23.9698 102.982 23.9086 102.773 23.7859C102.564 23.6632 102.394 23.4839 102.282 23.2687C102.171 23.1569 102.063 23.0504 101.956 22.9399C101.561 22.6734 101.089 22.5438 100.614 22.5711C100.193 22.5444 99.7723 22.6284 99.3941 22.8147C99.2744 22.8947 99.1777 23.0046 99.1137 23.1335C99.0497 23.2625 99.0206 23.4059 99.0293 23.5496C99.0293 23.9827 99.7345 24.348 101.145 24.6453C101.285 24.6951 101.429 24.7356 101.575 24.7665C101.687 24.7931 101.802 24.807 101.917 24.8077C102.956 25.0057 103.942 25.4193 104.811 26.0219C105.071 26.2743 105.273 26.5787 105.407 26.9151C105.54 27.2515 105.6 27.6123 105.584 27.9737C105.61 28.5064 105.505 29.0374 105.278 29.5198C105.05 30.0023 104.708 30.4214 104.28 30.7402C103.184 31.4124 101.905 31.7252 100.622 31.6349C99.3979 31.7301 98.1789 31.401 97.1694 30.7029C96.7711 30.3736 96.4565 29.9545 96.2514 29.4801C96.0464 29.0057 95.9567 28.4895 95.9898 27.9737L95.9951 27.8552ZM84.8025 27.8552H87.5663C87.5634 28.0917 87.6169 28.3255 87.7225 28.5371C87.8281 28.7488 87.9827 28.9322 88.1734 29.072C88.6633 29.3649 89.229 29.5062 89.799 29.4781C90.2356 29.4908 90.6683 29.3933 91.0571 29.1945C91.2023 29.1243 91.325 29.0149 91.4113 28.8787C91.4977 28.7425 91.5442 28.5849 91.5457 28.4237C91.5457 27.9351 90.9786 27.5716 89.8376 27.328C89.4656 27.2729 89.0981 27.1911 88.7379 27.083C87.6862 26.9103 86.6939 26.4789 85.8502 25.8275C85.5797 25.5824 85.3664 25.2807 85.2256 24.9438C85.0848 24.607 85.0199 24.2432 85.0354 23.8785C85.0258 23.3906 85.1268 22.907 85.3309 22.4638C85.535 22.0206 85.8368 21.6294 86.2137 21.3196C87.1382 20.6648 88.2546 20.3369 89.3863 20.3877C90.5822 20.3241 91.7663 20.6512 92.7599 21.3196C93.1451 21.6457 93.4565 22.0499 93.6734 22.5056C93.8903 22.9612 94.0078 23.4578 94.0181 23.9623H92.2713C92.0297 23.9682 91.7912 23.9058 91.5833 23.7824C91.3754 23.6591 91.2064 23.4796 91.0958 23.2647C90.9839 23.1529 90.8774 23.0464 90.7696 22.9359C90.3746 22.6696 89.9032 22.54 89.4276 22.5671C89.0068 22.5404 88.5863 22.6244 88.2081 22.8107C88.0884 22.8907 87.9917 23.0006 87.9277 23.1295C87.8637 23.2585 87.8346 23.4019 87.8433 23.5456C87.8433 23.9788 88.5484 24.344 89.9588 24.6413C90.0993 24.6913 90.2429 24.7318 90.3888 24.7625C90.5009 24.7891 90.6157 24.803 90.731 24.8037C91.7712 25.0028 92.7581 25.4178 93.628 26.0219C93.887 26.2744 94.0897 26.5788 94.2228 26.9152C94.3559 27.2516 94.4163 27.6123 94.4002 27.9737C94.4264 28.5063 94.3212 29.0373 94.0939 29.5197C93.8666 30.0021 93.5242 30.4213 93.0968 30.7402C92.0003 31.4124 90.7212 31.7252 89.4382 31.6349C88.2142 31.7298 86.9948 31.4008 85.9847 30.7029C85.5868 30.3733 85.2726 29.9542 85.0678 29.4798C84.863 29.0054 84.7734 28.4893 84.8064 27.9737L84.8025 27.8552ZM76.1167 24.9262H80.2599C80.2588 24.3378 80.0584 23.7672 79.6914 23.3073C79.4956 23.1118 79.2604 22.9602 79.0014 22.8627C78.7425 22.7651 78.4658 22.7238 78.1896 22.7415C77.9198 22.731 77.6508 22.7758 77.3989 22.8731C77.1471 22.9704 76.9178 23.1182 76.7251 23.3073C76.3222 23.7473 76.1042 24.3257 76.1167 24.9222V24.9262ZM80.9908 28.1095H83.0224C82.7864 29.1536 82.1806 30.0771 81.317 30.7096C80.3913 31.3588 79.2781 31.6862 78.1484 31.6415C77.4709 31.6772 76.7941 31.5605 76.1676 31.3002C75.5412 31.0398 74.9811 30.6424 74.5284 30.1371C73.5884 28.9531 73.1237 27.4611 73.225 25.9527C73.1363 24.4905 73.5852 23.0464 74.4871 21.8921C74.9399 21.3869 75.5 20.9895 76.1264 20.7292C76.7529 20.4688 77.4296 20.3521 78.1071 20.3877C78.8053 20.3466 79.5041 20.4561 80.1563 20.7087C80.8084 20.9614 81.3986 21.3514 81.8868 21.8521C82.8132 23.0375 83.2752 24.5201 83.1862 26.0219V26.4666C83.1927 26.563 83.1787 26.6596 83.1449 26.7502H76.1167C76.0865 27.4306 76.303 28.0992 76.7265 28.6327C76.9213 28.8578 77.1659 29.0344 77.441 29.1483C77.716 29.2623 78.0139 29.3105 78.3108 29.289C78.7228 29.3009 79.1304 29.2011 79.4904 29.0001C79.5751 28.9733 79.6514 28.9247 79.7114 28.859C79.7819 28.7924 79.8538 28.7166 79.9377 28.6327C80.0084 28.5 80.112 28.3877 80.2386 28.3065C80.4608 28.1596 80.7249 28.089 80.9908 28.1055V28.1095ZM71.6221 31.4378H70.1962C70.0123 31.4464 69.8286 31.4164 69.6569 31.3499C69.4852 31.2834 69.3293 31.1818 69.1991 31.0517C69.0689 30.9215 68.9673 30.7655 68.9008 30.5939C68.8343 30.4222 68.8044 30.2385 68.8129 30.0546V24.5242C68.836 24.2576 68.7948 23.9894 68.6929 23.742C68.5909 23.4946 68.4312 23.2753 68.2271 23.1023C67.8503 22.8098 67.3861 22.6523 66.9091 22.655C66.439 22.6499 65.9817 22.808 65.615 23.1023C65.4161 23.2786 65.2611 23.499 65.1624 23.7459C65.0637 23.9928 65.024 24.2593 65.0465 24.5242V31.4338H62.1974V25.0993C62.105 24.4116 62.1888 23.7116 62.441 23.0651C62.6932 22.4187 63.1055 21.8469 63.6393 21.4035C64.5929 20.7821 65.6972 20.431 66.8345 20.3877C67.9973 20.3801 69.1383 20.7033 70.1243 21.3196C71.1273 21.9409 71.6278 23.2008 71.6261 25.0993L71.6221 31.4378ZM57.8359 17.4587H59.3004C59.4818 17.4558 59.6619 17.4898 59.8299 17.5584C59.9978 17.627 60.1502 17.729 60.2776 17.8581C60.4079 17.984 60.511 18.1351 60.5809 18.3022C60.6507 18.4693 60.6857 18.6489 60.6837 18.83V19.6794H57.8359V17.4587ZM57.8359 20.6313H59.3004C59.6665 20.6317 60.0175 20.777 60.2767 21.0354C60.536 21.2939 60.6823 21.6445 60.6837 22.0106V31.4378H57.8359V20.6313ZM46.1613 27.8592H48.9239C48.9215 28.0956 48.9754 28.3291 49.0809 28.5407C49.1864 28.7522 49.3407 28.9357 49.5309 29.076C50.0212 29.3693 50.5872 29.5111 51.1579 29.4834C51.5944 29.4962 52.0271 29.3986 52.416 29.1998C52.5612 29.1296 52.6838 29.0203 52.7702 28.8841C52.8565 28.7479 52.9031 28.5902 52.9046 28.429C52.9046 27.9404 52.3361 27.5769 51.1951 27.3333C50.8222 27.2779 50.4538 27.1956 50.0928 27.087C49.0408 26.9139 48.0481 26.4825 47.2037 25.8315C46.9335 25.5862 46.7204 25.2844 46.5796 24.9476C46.4388 24.6108 46.3737 24.2472 46.389 23.8824C46.3796 23.3945 46.4808 22.9109 46.6851 22.4677C46.8894 22.0245 47.1915 21.6334 47.5685 21.3236C48.493 20.6688 49.6094 20.3409 50.7411 20.3917C51.937 20.3283 53.121 20.6554 54.1148 21.3236C54.5 21.6497 54.8113 22.0539 55.0282 22.5096C55.2452 22.9652 55.3627 23.4618 55.3729 23.9663H53.6302C53.3885 23.9722 53.1501 23.9098 52.9422 23.7864C52.7342 23.6631 52.5653 23.4836 52.4546 23.2687C52.3428 23.1569 52.2363 23.0504 52.1284 22.9399C51.7334 22.6736 51.262 22.544 50.7864 22.5711C50.3652 22.5446 49.9444 22.6286 49.5656 22.8147C49.4463 22.895 49.3501 23.0051 49.2863 23.1339C49.2226 23.2628 49.1936 23.4061 49.2021 23.5496C49.2021 23.9823 49.9051 24.3484 51.3176 24.6453C51.4577 24.6951 51.6009 24.7356 51.7463 24.7665C51.8589 24.7932 51.9741 24.807 52.0898 24.8077C53.128 25.0058 54.1131 25.4195 54.9815 26.0219C55.241 26.2742 55.4441 26.5785 55.5774 26.9149C55.7107 27.2513 55.7713 27.6122 55.755 27.9737C55.7812 28.5063 55.6761 29.0373 55.4488 29.5197C55.2215 30.0021 54.879 30.4213 54.4516 30.7402C53.3551 31.4124 52.076 31.7252 50.7931 31.6349C49.569 31.7301 48.3495 31.401 47.3395 30.7029C46.9416 30.3733 46.6274 29.9542 46.4226 29.4798C46.2178 29.0054 46.1283 28.4893 46.1613 27.9737V27.8592ZM44.541 20.6167V26.9645C44.541 28.8896 44.0405 30.1504 43.0393 30.7469C42.0454 31.3409 40.9074 31.6504 39.7495 31.6415C38.6177 31.5987 37.5165 31.2619 36.5543 30.6643C35.5948 30.0679 35.1142 28.8346 35.1124 26.9645V20.6167H37.9628V27.5397C37.9397 27.8049 37.979 28.0718 38.0774 28.3192C38.1759 28.5666 38.3309 28.7874 38.53 28.9642C38.8967 29.2584 39.354 29.4165 39.8241 29.4115C40.3011 29.4142 40.7652 29.2567 41.1421 28.9642C41.3466 28.7909 41.5065 28.5711 41.6085 28.3233C41.7104 28.0754 41.7514 27.8067 41.7279 27.5397V21.9999C41.7246 21.8199 41.7571 21.641 41.8236 21.4737C41.8902 21.3064 41.9893 21.154 42.1153 21.0254C42.2426 20.8902 42.3973 20.7838 42.569 20.7133C42.7408 20.6428 42.9256 20.6099 43.1112 20.6167H44.541ZM30.4154 25.9554C30.4643 25.1496 30.2513 24.3496 29.8083 23.6748C29.626 23.404 29.3782 23.1838 29.088 23.0346C28.7977 22.8853 28.4744 22.812 28.1481 22.8214C27.8128 22.8035 27.4783 22.8684 27.1741 23.0106C26.8699 23.1527 26.6054 23.3675 26.404 23.6362C25.9646 24.3269 25.7523 25.1379 25.7969 25.9554C25.7288 26.8216 25.9272 27.688 26.3654 28.4383C26.5532 28.7128 26.8075 28.935 27.1047 29.0843C27.4018 29.2335 27.732 29.3049 28.0642 29.2917C28.4033 29.3079 28.741 29.2382 29.0459 29.089C29.3508 28.9398 29.6131 28.716 29.8083 28.4383C30.26 27.6923 30.4719 26.8256 30.4154 25.9554ZM25.7969 18.7967V22.0518C26.107 21.5226 26.5553 21.0877 27.0937 20.7937C27.6452 20.5077 28.2608 20.3679 28.8817 20.3877C29.4922 20.3791 30.0958 20.5188 30.6405 20.7947C31.1852 21.0706 31.6548 21.4746 32.009 21.972C32.8032 23.1931 33.2259 24.6185 33.2259 26.0752C33.2259 27.5319 32.8032 28.9572 32.009 30.1784C31.5842 30.7071 31.0105 31.0962 30.3621 31.2954C29.7026 31.5215 29.0105 31.6385 28.3132 31.6415C27.0366 31.648 25.7837 31.2961 24.6972 30.6257C24.0989 30.1808 23.6295 29.5849 23.3371 28.8991C23.0447 28.2132 22.9398 27.462 23.0331 26.7222V17.4121H24.4163C24.7833 17.4125 25.1352 17.5585 25.3945 17.8181C25.6539 18.0777 25.7996 18.4297 25.7996 18.7967H25.7969Z" fill="#045293"/>
</mask>
<g mask="url(#mask1_779_5832)">
<rect width="170" height="56" fill="#141414"/>
</g>
</g>
</svg>
