<svg id="icons" xmlns="http://www.w3.org/2000/svg" viewBox="0 0 64 64"><defs><style>.cls-1{fill:none;stroke:#c19e62;stroke-linecap:round;stroke-linejoin:round;stroke-width:2px;}</style></defs><title>21</title><g id="suitcase"><path class="cls-1" d="M42.45545,17.64482H55.78027a4.24629,4.24629,0,0,1,3.51641,1.87542A4.313,4.313,0,0,1,60,21.8645V48.74858a4.214,4.214,0,0,1-4.21969,4.21969H20.87879"/><path class="cls-1" d="M5.87547,31.401V21.8645a4.05923,4.05923,0,0,1,.73141-2.363V19.4921a4.271,4.271,0,0,1,2.288-1.67849c.09377-.02813.20629-.05627.31882-.0844a4.50741,4.50741,0,0,1,.87207-.08439H23.4106"/><polyline class="cls-1" points="27.949 33.155 27.94 33.155 20.879 33.155"/><polyline class="cls-1" points="11.412 31.401 6.607 19.501 6.607 19.492 6.598 19.483"/><path class="cls-1" d="M37.92687,33.15163H49.04832a6.9957,6.9957,0,0,0,6.505-4.38329l3.74039-9.24743"/><path class="cls-1" d="M42.45609,17.64528V11.15889a2,2,0,0,0-2-2H25.41542a2,2,0,0,0-2,2v6.48639Z"/><path class="cls-1" d="M32.93575,28.16511h0a4.992,4.992,0,0,1,4.992,4.992v4.05362a.93834.93834,0,0,1-.93834.93834H28.88213a.93834.93834,0,0,1-.93834-.93834V33.15706A4.992,4.992,0,0,1,32.93575,28.16511Z" transform="translate(65.87151 66.31414) rotate(180)"/><path class="cls-1" d="M38.38342,17.64528v-3.6712a1,1,0,0,0-1-1H28.48809a1,1,0,0,0-1,1v3.67074"/><rect class="cls-1" x="4.00004" y="31.39842" width="16.87874" height="23.44269" rx="0.93771"/><line class="cls-1" x1="7.75087" y1="35.6181" x2="17.12795" y2="35.6181"/><line class="cls-1" x1="7.75087" y1="39.36893" x2="17.12795" y2="39.36893"/><line class="cls-1" x1="7.75087" y1="43.11976" x2="17.12795" y2="43.11976"/><line class="cls-1" x1="7.75087" y1="46.87059" x2="17.12795" y2="46.87059"/><line class="cls-1" x1="7.75087" y1="50.62142" x2="17.12795" y2="50.62142"/></g></svg>