<svg xmlns="http://www.w3.org/2000/svg" viewBox="0 0 32 32"><g id="air_conditioner" data-name="air conditioner"><path d="M26,5H6A4,4,0,0,0,2,9v6a4,4,0,0,0,4,4H26a4,4,0,0,0,4-4V9A4,4,0,0,0,26,5ZM9.62,17l.13-.26A3.12,3.12,0,0,1,12.56,15h6.88a3.12,3.12,0,0,1,2.81,1.74l.13.26ZM28,15a2,2,0,0,1-2,2h-1.4L24,15.85A5.11,5.11,0,0,0,19.44,13H12.56A5.11,5.11,0,0,0,8,15.85L7.38,17H6a2,2,0,0,1-2-2V9A2,2,0,0,1,6,7H26a2,2,0,0,1,2,2Z"/><path d="M25,9H23a1,1,0,0,0,0,2h2a1,1,0,0,0,0-2Z"/><path d="M16,21a11.11,11.11,0,0,0-6.6,2.2,1,1,0,0,0,1.2,1.6,9,9,0,0,1,10.8,0,1,1,0,0,0,.6.2,1,1,0,0,0,.8-.4,1,1,0,0,0-.2-1.4A11.11,11.11,0,0,0,16,21Z"/><path d="M16,24a6,6,0,0,0-3.6,1.2,1,1,0,0,0,1.2,1.6,4,4,0,0,1,4.8,0,1,1,0,0,0,.6.2,1,1,0,0,0,.8-.4,1,1,0,0,0-.2-1.4A6.07,6.07,0,0,0,16,24Z"/></g></svg>