<svg width="109" height="109" viewBox="0 0 109 109" fill="none" xmlns="http://www.w3.org/2000/svg">
<mask id="mask0_812_1530" style="mask-type:alpha" maskUnits="userSpaceOnUse" x="0" y="0" width="109" height="109">
<rect width="109" height="109" fill="#FFC700"/>
</mask>
<g mask="url(#mask0_812_1530)">
<path opacity="0.1" d="M-190 -192.091L375.685 373.594M-182.929 -199.162L382.756 366.523M-175.858 -206.233L389.828 359.452M-168.787 -213.305L396.899 352.381M-161.716 -220.376L403.97 345.31M-154.645 -227.447L411.041 338.239M-147.574 -234.518L418.112 331.168M-140.502 -241.589L425.183 324.097M-133.431 -248.66L432.254 317.026M-126.36 -255.731L439.325 309.954M-119.289 -262.802L446.396 302.883M-112.218 -269.873L453.467 295.812M-105.147 -276.944L460.538 288.741M-98.0761 -284.015L467.609 281.67M-91.005 -291.086L474.68 274.599M-83.934 -298.157L481.751 267.528M-76.8629 -305.228L488.822 260.457M-69.7918 -312.299L495.894 253.386M-62.7208 -319.371L502.965 246.315M-55.6497 -326.442L510.036 239.244M-48.5786 -333.513L517.107 232.173M-41.5076 -340.584L524.178 225.102M-34.4365 -347.655L531.249 218.031M-27.3654 -354.726L538.32 210.96M-20.2944 -361.797L545.391 203.888M-13.2233 -368.868L552.462 196.817M-6.15222 -375.939L559.533 189.746M0.918849 -383.01L566.604 182.675M7.98992 -390.081L573.675 175.604M15.061 -397.152L580.746 168.533M22.1321 -404.223L587.817 161.462M29.2031 -411.294L594.889 154.391M36.2742 -418.365L601.96 147.32M43.3453 -425.437L609.031 140.249M50.4163 -432.508L616.102 133.178M57.4874 -439.579L623.173 126.107M64.5585 -446.65L630.244 119.036M71.6295 -453.721L637.315 111.965M78.7006 -460.792L644.386 104.894M85.7717 -467.863L651.457 97.8225M92.8427 -474.934L658.528 90.7514M99.9138 -482.005L665.599 83.6803M106.985 -489.076L672.67 76.6093M114.056 -496.147L679.741 69.5382M121.127 -503.218L686.812 62.4671M128.198 -510.289L693.883 55.3961M135.269 -517.36L700.955 48.325M142.34 -524.432L708.026 41.2539M149.411 -531.503L715.097 34.1829M156.482 -538.574L722.168 27.1118M163.553 -545.645L729.239 20.0407M170.624 -552.716L736.31 12.9697M177.696 -559.787L743.381 5.89859M184.767 -566.858L750.452 -1.17248M191.838 -573.929L757.523 -8.24355M198.909 -581L764.594 -15.3146" stroke="black" stroke-width="2"/>
<path opacity="0.1" d="M-183 -192.091L382.685 373.594M-175.929 -199.162L389.756 366.523M-168.858 -206.233L396.828 359.452M-161.787 -213.305L403.899 352.381M-154.716 -220.376L410.97 345.31M-147.645 -227.447L418.041 338.239M-140.574 -234.518L425.112 331.168M-133.502 -241.589L432.183 324.097M-126.431 -248.66L439.254 317.026M-119.36 -255.731L446.325 309.954M-112.289 -262.802L453.396 302.883M-105.218 -269.873L460.467 295.812M-98.1472 -276.944L467.538 288.741M-91.0761 -284.015L474.609 281.67M-84.005 -291.086L481.68 274.599M-76.934 -298.157L488.751 267.528M-69.8629 -305.228L495.822 260.457M-62.7918 -312.299L502.894 253.386M-55.7208 -319.371L509.965 246.315M-48.6497 -326.442L517.036 239.244M-41.5786 -333.513L524.107 232.173M-34.5076 -340.584L531.178 225.102M-27.4365 -347.655L538.249 218.031M-20.3654 -354.726L545.32 210.96M-13.2944 -361.797L552.391 203.888M-6.22329 -368.868L559.462 196.817M0.847782 -375.939L566.533 189.746M7.91885 -383.01L573.604 182.675M14.9899 -390.081L580.675 175.604M22.061 -397.152L587.746 168.533M29.1321 -404.223L594.817 161.462M36.2031 -411.294L601.889 154.391M43.2742 -418.365L608.96 147.32M50.3453 -425.437L616.031 140.249M57.4163 -432.508L623.102 133.178M64.4874 -439.579L630.173 126.107M71.5585 -446.65L637.244 119.036M78.6295 -453.721L644.315 111.965M85.7006 -460.792L651.386 104.894M92.7717 -467.863L658.457 97.8225M99.8427 -474.934L665.528 90.7514M106.914 -482.005L672.599 83.6803M113.985 -489.076L679.67 76.6093M121.056 -496.147L686.741 69.5382M128.127 -503.218L693.812 62.4671M135.198 -510.289L700.883 55.3961M142.269 -517.36L707.955 48.325M149.34 -524.432L715.026 41.2539M156.411 -531.503L722.097 34.1829M163.482 -538.574L729.168 27.1118M170.553 -545.645L736.239 20.0407M177.624 -552.716L743.31 12.9697M184.696 -559.787L750.381 5.89859M191.767 -566.858L757.452 -1.17248M198.838 -573.929L764.523 -8.24355M205.909 -581L771.594 -15.3146" stroke="black" stroke-width="2"/>
</g>
</svg>
