<svg xmlns="http://www.w3.org/2000/svg" width="359.992" height="93.494" viewBox="0 0 359.992 93.494">
  <path id="forbes-logo_logotyp.us" data-name="forbes-logo@logotyp.us" d="M426.764,246.939c-4.611-.494-11.949-2.1-14.392-3.151l-1.194-.513-.163-5.912c-.089-3.252-.192-7.6-.229-9.662l-.067-3.75.716-.343a5.541,5.541,0,0,1,1.764-.391l1.049-.049.894,2.2c3.486,8.582,7.576,13.21,12.917,14.617a17.07,17.07,0,0,0,7.367.009,9.145,9.145,0,0,0,6.562-9.061c.024-5.176-2.821-7.663-13.569-11.862-6.659-2.6-8.983-3.94-11.748-6.771-2.984-3.054-4.416-6.53-4.685-11.372a19.069,19.069,0,0,1,5.564-14.986c4.083-4.23,9.384-6.522,16.605-7.181,6.359-.58,16.12.768,21.234,2.934l.933.4.167,5.27c.091,2.9.186,6.783.21,8.634l.044,3.364-1.253.465c-1.981.736-2.111.643-3.213-2.276-3.089-8.185-6.678-12.058-12.27-13.241-3.408-.72-6.255.055-8.324,2.267a8.223,8.223,0,0,0-2.4,5.832,7.175,7.175,0,0,0,2.037,6.16c2.1,2.3,5.54,4.281,12.393,7.145,8.394,3.507,12.4,6.485,14.576,10.837,1.415,2.827,1.815,5.084,1.673,9.43a16.091,16.091,0,0,1-.953,6.12c-2.419,7.138-7.879,11.838-16.314,14.041-2.857.746-3.265.785-8.946.847-3.274.036-6.419.015-6.988-.046Zm-111.546-.74c7.862-1.179,13.629-3.879,18.513-8.667,7.059-6.921,10.459-16.689,10-28.727a32.873,32.873,0,0,0-3.818-15.27c-3.48-6.8-9.432-11.577-16.19-12.983a28.191,28.191,0,0,0-16.552,2.1,15.584,15.584,0,0,1-2.629,1.052c-.333,0-.369-1.916-.285-15.1l.1-15.1-1.039.208c-.571.115-6.395,1.2-12.943,2.412s-12.161,2.263-12.473,2.337c-.474.111-.557.292-.506,1.1.056.9.131.985,1.085,1.2,3.281.722,3.865.979,5.085,2.239,1.494,1.544,2.169,3.515,2.612,7.629.353,3.278.431,59.755.094,68.092l-.2,4.943,2.668.57c10.1,2.159,20.158,2.907,26.479,1.963Zm71.295-.008a31.335,31.335,0,0,0,16.146-7.87c2.324-2.2,3.1-3.264,2.772-3.82-.862-1.485-.825-1.484-3.028-.13a18.163,18.163,0,0,1-9.386,3.171,23.348,23.348,0,0,1-13.356-2.42,21.161,21.161,0,0,1-7.613-7.513c-2.224-3.951-3.431-8.565-3.791-14.5-.151-2.49-.118-3.111.174-3.3.2-.126,8.829-.23,19.318-.232l18.958,0v-.749a61.5,61.5,0,0,0-1.06-8.676c-2.014-9.646-7.33-16.524-14.911-19.29A26.487,26.487,0,0,0,381.1,179.3q-13.371,0-21.826,8.765c-4.49,4.658-7.154,9.89-8.78,17.245-.49,2.216-.572,3.368-.572,8.023,0,4.62.084,5.812.559,7.949,3.018,13.574,11.948,22.513,24.779,24.8a38.583,38.583,0,0,0,11.251.1Zm-183.487-.337a29.951,29.951,0,0,0,11.525-5.153c7.96-5.945,12.321-15.059,12.724-26.591.4-11.368-3.032-21.058-9.661-27.306-5.381-5.072-12.163-7.5-20.929-7.5-9.292,0-16.776,2.881-22.533,8.675-6.167,6.207-9.43,14.865-9.43,25.027,0,10.542,2.948,19.052,8.663,25.014A25.418,25.418,0,0,0,184,244.841a40.9,40.9,0,0,0,6.859,1.592c.356.066,2.743.078,5.3.027a32.4,32.4,0,0,0,6.859-.606ZM152.99,215.663l-.6-2.459c-1.127-4.619-3.3-7.926-5.977-9.112-1.237-.547-4.3-.859-10.225-1.039l-2.782-.084v5.841c0,6.366.35,14.978.8,19.651.626,6.516,2.291,10.116,5.281,11.419a23.024,23.024,0,0,0,4.014.9,24.018,24.018,0,0,1,3.429.679c.632.327.669,3.7.044,3.941-.49.188-46.162.174-46.629-.014-.215-.087-.323-.732-.323-1.926,0-2.145-.137-2.049,4.011-2.818,3.182-.591,4.32-1.194,5.725-3.036,2.724-3.572,3.313-10.448,3.319-38.763.006-26.592-.507-32.185-3.324-36.295-1.25-1.824-3.356-2.814-6.884-3.236l-2.718-.326-.075-2.121L100,154.741l.852-.151c.468-.084,16.92-.119,36.559-.079l35.708.074.168,1.035c.092.569.243,6.409.335,12.978l.169,11.943-1.841.559c-2.772.842-2.755.852-4-2.446-3.063-8.1-6.574-12.772-11.379-15.129-3.314-1.627-4.846-1.823-14.205-1.823H134.22l-.14,1.359c-.263,2.547-.679,18.938-.676,26.657l0,7.7,2.394-.014c1.317-.007,3.913-.1,5.769-.215,2.791-.167,3.621-.315,4.788-.855,2.869-1.328,4.821-4.251,6.017-9.011l.617-2.457,4.225-.15v31.1Zm74.933,29.672c-.236-.15-.313-.747-.259-2l.078-1.788.906-.193c.5-.106,1.568-.317,2.378-.468,2.506-.468,3.946-1.829,4.756-4.492.66-2.171.951-9.114.966-23.057.019-17.053-.336-21.08-2.061-23.363-.934-1.237-1.608-1.589-3.875-2.024-1.119-.215-2.3-.445-2.617-.512-.519-.108-.583-.277-.583-1.545,0-1.233.079-1.456.583-1.664.774-.318,26.413-5.443,27.232-5.443h.639l-.125,3.817c-.069,2.1-.18,5.157-.245,6.794l-.12,2.976.929-1.675c2.973-5.362,6.308-8.69,10.742-10.722a14.558,14.558,0,0,1,7.065-1.449c3.567,0,7.132,1.164,7.132,2.328,0,.783-6.283,17.386-6.63,17.519a10.422,10.422,0,0,1-2.726-1.043,18.065,18.065,0,0,0-7.9-1.977c-3.148.007-6.663,1.165-8.051,2.654-.593.637-.6.675-.744,10.184-.146,9.417.168,20.9.7,25.523.452,3.935,1.5,5.873,3.657,6.775a38.678,38.678,0,0,0,6.767.927,5.043,5.043,0,0,1,.129,2.006l-.075,2.006-19.152.062c-10.422.033-19.117-.034-19.488-.153Zm-29.091-3.541c1.833-.544,4.1-2.665,5.3-4.97,2.489-4.759,3.6-11.8,3.628-22.973.035-14.005-2.161-22.918-6.795-27.584-1.946-1.959-3.326-2.568-5.814-2.564-5.522.009-9.027,5.774-10.412,17.125a129.675,129.675,0,0,0-.006,22.211c1.962,14.119,7.026,20.856,14.1,18.755Zm112.137-.125a9.585,9.585,0,0,0,4.909-2.514c3.93-3.534,6.885-10.83,8.047-19.869a76.29,76.29,0,0,0-.115-15.143c-1.419-8.311-4.469-13.773-8.917-15.972a6.949,6.949,0,0,0-4.319-.977,14.422,14.422,0,0,0-4.057.505l-1.714.505-.127,9.459c-.162,12.117.232,42.452.563,43.323.211.555.444.673,1.492.755A12.368,12.368,0,0,0,310.969,241.669Zm72.16-37.166,4.5-.157-.162-3.2c-.572-11.279-3.332-17.442-7.809-17.438-4.865.006-8.753,6.261-10.37,16.683a31.813,31.813,0,0,0-.366,3.377l0,1.046,4.852-.078C376.442,204.695,380.652,204.589,383.129,204.5Z" transform="translate(-100 -153.509)" fill="#33629a" fill-rule="evenodd"/>
</svg>
