<svg xmlns="http://www.w3.org/2000/svg" xmlns:xlink="http://www.w3.org/1999/xlink" width="45" height="47" viewBox="0 0 45 47">
  <defs>
    <clipPath id="clip-Custom_Size_1">
      <rect width="45" height="47"/>
    </clipPath>
  </defs>
  <g id="Custom_Size_1" data-name="Custom Size – 1" clip-path="url(#clip-Custom_Size_1)">
    <g id="_20_1_" data-name="20 1 " transform="translate(-1990.579 -1137.325)">
      <path id="_Path_" data-name="&lt;Path&gt;" d="M1994.2,1193.037v-1.37a13.951,13.951,0,0,1,3.818-9.789c1.99-2.056,4.5-3.328,6.82-2.676,1.273.359,2.937.75,4.34,1.077a6.306,6.306,0,0,0,7.733-5.547,4.21,4.21,0,0,0,.033-.522,7,7,0,0,0-.881-3.393,23.669,23.669,0,0,0-1.86-2.219,9.112,9.112,0,0,1,7.7-14.618c4.862.228,8.418,4.242,8.712,9.136.261,4.013,1.109,9.463.685,15.173a11.637,11.637,0,0,1-9.593,10.278c-5.547,1.305-9.691,0-11.192-.946-1.534-.946-3.2-3.459-6.1-3.622q-6.2-.326-6.2,9.038" transform="translate(0 -10.287)" fill="none" stroke="#16c1cc" stroke-linecap="square" stroke-width="2"/>
      <path id="_Path_2" data-name="&lt;Path&gt;" d="M2027.3,1140.4c.326,2.219,1.4,6.917,4.6,9.006" transform="translate(-22.3 -1.145)" fill="none" stroke="#16c1cc" stroke-linecap="square" stroke-width="2"/>
      <path id="_Path_3" data-name="&lt;Path&gt;" d="M2042.8,1138.7c.587,2.284,1.99,5.384,5.253,6.787" transform="translate(-32.742)" fill="none" stroke="#16c1cc" stroke-linecap="square" stroke-width="2"/>
      <path id="_Path_4" data-name="&lt;Path&gt;" d="M2081.729,1227.5q.229,4.4-4.829,5.612" transform="translate(-55.715 -59.825)" fill="none" stroke="#16c1cc" stroke-linecap="square" stroke-width="2"/>
    </g>
  </g>
</svg>
