<svg xmlns="http://www.w3.org/2000/svg" viewBox="0 0 32 32"><g id="washbasin"><path d="M29.26,15.05a4.7,4.7,0,0,0-.34-2.44,4.93,4.93,0,0,0-2-2.26A3.58,3.58,0,0,0,25.59,8.2a3.54,3.54,0,0,0-3.53-.36,5.89,5.89,0,0,0-8.43,2.34l-.31-.13a2.82,2.82,0,0,0-.77-.13A4.18,4.18,0,0,0,9,8a4.17,4.17,0,0,0-3.81,3.12A3.46,3.46,0,0,0,3.2,12.41a3.5,3.5,0,0,0-.61,2.68A1,1,0,0,0,2,16v3a1,1,0,0,0,1,1h.11l.63,5.69A3.72,3.72,0,0,0,7.44,29H24.56a3.72,3.72,0,0,0,3.7-3.31L28.89,20H29a1,1,0,0,0,1-1V16A1,1,0,0,0,29.26,15.05ZM28,17h0v1H24a1.14,1.14,0,0,1,1.13-1ZM4.8,13.59A1.68,1.68,0,0,1,6,13a1,1,0,0,0,1-.91A2.24,2.24,0,0,1,9,10a2.2,2.2,0,0,1,2,1.39,1,1,0,0,0,1.23.56.65.65,0,0,1,.37,0,.7.7,0,0,1,.38.39,1,1,0,0,0,1,.66,1,1,0,0,0,.91-.77A4.25,4.25,0,0,1,18.19,9a4.22,4.22,0,0,1,3.21.82,1,1,0,0,0,1.15,0,1.66,1.66,0,0,1,1.86,0A1.68,1.68,0,0,1,25,11a1,1,0,0,0,.6.89,2.84,2.84,0,0,1,1.48,1.47A2.78,2.78,0,0,1,27.25,15H25.14A3.15,3.15,0,0,0,22,18.14V19a1,1,0,0,1-2,0v-.86A3.15,3.15,0,0,0,16.86,15H4.62A1.58,1.58,0,0,1,4.8,13.59ZM4,18V17H16.86A1.14,1.14,0,0,1,18,18Zm22.28,7.47A1.73,1.73,0,0,1,24.56,27H7.44a1.73,1.73,0,0,1-1.72-1.53L5.12,20H18.17a3,3,0,0,0,5.66,0h3.05Z"/><path d="M12.5,8A2.5,2.5,0,1,0,10,5.5,2.5,2.5,0,0,0,12.5,8Zm0-3a.5.5,0,1,1-.5.5A.5.5,0,0,1,12.5,5Z"/></g></svg>