<?xml version="1.0" standalone="no"?>
<!DOCTYPE svg PUBLIC "-//W3C//DTD SVG 20010904//EN"
 "http://www.w3.org/TR/2001/REC-SVG-20010904/DTD/svg10.dtd">
<svg version="1.0" xmlns="http://www.w3.org/2000/svg"
 width="512.000000pt" height="512.000000pt" viewBox="0 0 512.000000 512.000000"
 preserveAspectRatio="xMidYMid meet">

<g transform="translate(0.000000,512.000000) scale(0.100000,-0.100000)"
fill="#2a2b3f" stroke="none">
<path d="M4833 5105 c-735 -85 -1460 -353 -1968 -730 -164 -122 -351 -296
-488 -455 l-48 -55 -57 31 c-150 83 -358 115 -517 79 -102 -22 -233 -90 -325
-168 -243 -205 -435 -608 -466 -979 -8 -87 4 -128 42 -153 44 -28 84 -19 149
34 125 101 238 147 385 157 88 6 136 -4 146 -30 3 -8 -17 -75 -44 -148 -100
-269 -129 -398 -110 -484 7 -31 5 -33 -76 -82 -110 -67 -221 -173 -272 -258
-106 -179 -213 -559 -218 -776 -1 -61 2 -70 27 -95 25 -25 34 -28 95 -27 217
5 597 112 776 218 86 51 191 162 258 273 29 47 57 82 64 79 46 -18 108 -16
185 4 80 20 261 80 398 131 l63 24 20 -25 c19 -23 20 -34 14 -120 -9 -156 -56
-271 -157 -393 -54 -64 -63 -107 -34 -151 26 -39 66 -50 156 -42 367 31 774
225 976 466 78 94 146 224 168 325 36 159 4 367 -79 517 l-31 57 55 48 c433
373 751 862 963 1480 111 322 187 663 222 991 21 196 21 198 -19 238 -39 39
-60 41 -253 19z m77 -204 c0 -38 -36 -272 -61 -396 -27 -137 -106 -454 -116
-465 -4 -4 -693 681 -693 690 0 19 517 136 720 164 131 17 150 18 150 7z
m-667 -659 l418 -418 -40 -102 c-128 -321 -301 -617 -505 -862 -174 -210 -453
-454 -728 -637 -164 -110 -477 -283 -510 -283 -17 0 -938 921 -938 938 0 33
173 346 283 510 344 517 735 868 1244 1118 110 54 335 152 353 154 3 0 193
-188 423 -418z m-2187 -473 c85 -26 147 -57 139 -69 -3 -5 -40 -58 -81 -117
-100 -143 -166 -251 -254 -414 -40 -74 -73 -135 -75 -137 -1 -1 -15 4 -31 13
-44 21 -177 29 -279 16 -75 -10 -188 -42 -267 -76 -26 -10 -23 9 17 133 111
342 328 597 565 661 65 17 193 13 266 -10z m209 -1509 c225 -225 407 -411 405
-413 -8 -7 -300 -103 -356 -117 -48 -12 -54 -12 -85 8 -56 35 -497 484 -504
514 -4 15 -2 44 5 65 39 129 115 353 119 353 4 0 190 -184 416 -410z m1464
-97 c55 -109 77 -267 51 -368 -63 -240 -316 -458 -662 -570 -124 -40 -143 -43
-133 -17 61 143 89 285 83 418 -3 56 -11 104 -22 124 -9 18 -15 34 -14 35 2 2
63 35 137 75 166 89 272 154 421 259 63 44 116 81 117 81 2 0 11 -17 22 -37z
m-1892 -325 c90 -90 163 -169 163 -176 0 -26 -62 -130 -115 -195 -91 -110
-218 -178 -445 -237 -118 -31 -249 -55 -257 -47 -8 8 16 139 47 257 59 227
128 355 237 445 66 54 167 114 193 115 8 0 88 -73 177 -162z"/>
<path d="M3550 4100 c-255 -30 -440 -239 -440 -496 0 -277 217 -494 494 -494
280 0 497 215 497 495 0 143 -51 263 -151 359 -109 104 -252 153 -400 136z
m150 -212 c168 -51 250 -251 170 -414 -34 -69 -80 -112 -156 -145 -39 -18 -61
-21 -123 -17 -116 7 -200 60 -253 161 -31 57 -33 203 -4 257 77 144 215 203
366 158z"/>
<path d="M2974 3112 c-56 -41 -163 -158 -170 -187 -18 -73 48 -139 121 -121
29 7 146 114 187 170 38 53 37 89 -6 132 -43 43 -79 44 -132 6z"/>
<path d="M2593 2712 c-38 -6 -73 -50 -73 -94 0 -85 104 -132 163 -73 70 71 11
182 -90 167z"/>
<path d="M708 2262 c-162 -161 -168 -169 -168 -207 0 -22 7 -50 15 -61 20 -29
69 -48 102 -39 34 8 336 305 353 346 9 21 9 36 0 63 -14 43 -48 66 -96 66 -35
0 -49 -11 -206 -168z"/>
<path d="M755 1722 c-32 -6 -743 -721 -751 -755 -17 -80 69 -142 144 -103 42
22 709 697 722 730 12 32 -1 86 -25 106 -18 15 -66 27 -90 22z"/>
<path d="M2285 1001 c-53 -33 -323 -314 -330 -344 -9 -33 10 -82 39 -102 11
-8 39 -15 61 -15 38 0 46 6 207 168 157 157 168 171 168 206 0 47 -23 82 -62
95 -41 15 -48 14 -83 -8z"/>
<path d="M785 865 c-37 -20 -701 -680 -721 -717 -41 -77 22 -161 108 -143 26
5 105 79 389 363 235 235 358 366 361 382 15 86 -65 152 -137 115z"/>
<path d="M1585 865 c-37 -20 -701 -680 -721 -717 -41 -77 22 -161 108 -143 26
5 105 79 389 363 235 235 358 366 361 382 15 86 -65 152 -137 115z"/>
</g>
</svg>
