<svg xmlns="http://www.w3.org/2000/svg" xmlns:xlink="http://www.w3.org/1999/xlink" width="360" height="338" viewBox="0 0 360 338">
  <defs>
    <clipPath id="clip-Custom_Size_1">
      <rect width="360" height="338"/>
    </clipPath>
  </defs>
  <g id="Custom_Size_1" data-name="Custom Size – 1" clip-path="url(#clip-Custom_Size_1)">
    <g id="Group_1" data-name="Group 1">
      <g id="Path_1" data-name="Path 1" transform="translate(90.487 -14.075) rotate(30)" fill="none">
        <path d="M91.585,0l30.528,52.829L91.585,105.658H30.528L0,52.829,30.528,0Z" stroke="none"/>
        <path d="M 33.41368865966797 5.000007629394531 L 5.774795532226562 52.82898712158203 L 33.41367340087891 100.6579666137695 L 88.69923400878906 100.6579666137695 L 116.3381118774414 52.82898712158203 L 88.69923400878906 5.000007629394531 L 33.41368865966797 5.000007629394531 M 30.52823638916016 7.62939453125e-06 L 91.58469390869141 7.62939453125e-06 L 122.1129150390625 52.82898712158203 L 91.58469390869141 105.6579666137695 L 30.52821350097656 105.6579666137695 L -7.62939453125e-06 52.82898712158203 L 30.52823638916016 7.62939453125e-06 Z" stroke="none" fill="#20c3dc"/>
      </g>
      <g id="Path_2" data-name="Path 2" transform="translate(216.487 -14.075) rotate(30)" fill="none">
        <path d="M91.585,0l30.528,52.829L91.585,105.658H30.528L0,52.829,30.528,0Z" stroke="none"/>
        <path d="M 33.41368865966797 5.000007629394531 L 5.774795532226562 52.82898712158203 L 33.41367340087891 100.6579666137695 L 88.69923400878906 100.6579666137695 L 116.3381118774414 52.82898712158203 L 88.69923400878906 5.000007629394531 L 33.41368865966797 5.000007629394531 M 30.52823638916016 7.62939453125e-06 L 91.58469390869141 7.62939453125e-06 L 122.1129150390625 52.82898712158203 L 91.58469390869141 105.6579666137695 L 30.52821350097656 105.6579666137695 L -7.62939453125e-06 52.82898712158203 L 30.52823638916016 7.62939453125e-06 Z" stroke="none" fill="#20c3dc"/>
      </g>
      <g id="Path_3" data-name="Path 3" transform="translate(27.487 92.926) rotate(30)" fill="none">
        <path d="M91.585,0l30.528,52.829L91.585,105.658H30.528L0,52.829,30.528,0Z" stroke="none"/>
        <path d="M 33.41368865966797 5.000007629394531 L 5.774795532226562 52.82898712158203 L 33.41367340087891 100.6579666137695 L 88.69923400878906 100.6579666137695 L 116.3381118774414 52.82898712158203 L 88.69923400878906 5.000007629394531 L 33.41368865966797 5.000007629394531 M 30.52823638916016 7.62939453125e-06 L 91.58469390869141 7.62939453125e-06 L 122.1129150390625 52.82898712158203 L 91.58469390869141 105.6579666137695 L 30.52821350097656 105.6579666137695 L -7.62939453125e-06 52.82898712158203 L 30.52823638916016 7.62939453125e-06 Z" stroke="none" fill="#20c3dc"/>
      </g>
      <g id="Path_4" data-name="Path 4" transform="translate(153.487 92.926) rotate(30)" fill="none">
        <path d="M91.585,0l30.528,52.829L91.585,105.658H30.528L0,52.829,30.528,0Z" stroke="none"/>
        <path d="M 33.41368865966797 5.000007629394531 L 5.774795532226562 52.82898712158203 L 33.41367340087891 100.6579666137695 L 88.69923400878906 100.6579666137695 L 116.3381118774414 52.82898712158203 L 88.69923400878906 5.000007629394531 L 33.41368865966797 5.000007629394531 M 30.52823638916016 7.62939453125e-06 L 91.58469390869141 7.62939453125e-06 L 122.1129150390625 52.82898712158203 L 91.58469390869141 105.6579666137695 L 30.52821350097656 105.6579666137695 L -7.62939453125e-06 52.82898712158203 L 30.52823638916016 7.62939453125e-06 Z" stroke="none" fill="#20c3dc"/>
      </g>
      <g id="Path_5" data-name="Path 5" transform="translate(279.487 92.926) rotate(30)" fill="none">
        <path d="M91.585,0l30.528,52.829L91.585,105.658H30.528L0,52.829,30.528,0Z" stroke="none"/>
        <path d="M 33.41368865966797 5.000007629394531 L 5.774795532226562 52.82898712158203 L 33.41367340087891 100.6579666137695 L 88.69923400878906 100.6579666137695 L 116.3381118774414 52.82898712158203 L 88.69923400878906 5.000007629394531 L 33.41368865966797 5.000007629394531 M 30.52823638916016 7.62939453125e-06 L 91.58469390869141 7.62939453125e-06 L 122.1129150390625 52.82898712158203 L 91.58469390869141 105.6579666137695 L 30.52821350097656 105.6579666137695 L -7.62939453125e-06 52.82898712158203 L 30.52823638916016 7.62939453125e-06 Z" stroke="none" fill="#20c3dc"/>
      </g>
      <g id="Path_6" data-name="Path 6" transform="translate(90.487 199.926) rotate(30)" fill="none">
        <path d="M91.585,0l30.528,52.829L91.585,105.658H30.528L0,52.829,30.528,0Z" stroke="none"/>
        <path d="M 33.41368865966797 5.000007629394531 L 5.774795532226562 52.82898712158203 L 33.41367340087891 100.6579666137695 L 88.69923400878906 100.6579666137695 L 116.3381118774414 52.82898712158203 L 88.69923400878906 5.000007629394531 L 33.41368865966797 5.000007629394531 M 30.52823638916016 7.62939453125e-06 L 91.58469390869141 7.62939453125e-06 L 122.1129150390625 52.82898712158203 L 91.58469390869141 105.6579666137695 L 30.52821350097656 105.6579666137695 L -7.62939453125e-06 52.82898712158203 L 30.52823638916016 7.62939453125e-06 Z" stroke="none" fill="#20c3dc"/>
      </g>
      <g id="Path_7" data-name="Path 7" transform="translate(216.487 199.926) rotate(30)" fill="none">
        <path d="M91.585,0l30.528,52.829L91.585,105.658H30.528L0,52.829,30.528,0Z" stroke="none"/>
        <path d="M 33.41368865966797 5.000007629394531 L 5.774795532226562 52.82898712158203 L 33.41367340087891 100.6579666137695 L 88.69923400878906 100.6579666137695 L 116.3381118774414 52.82898712158203 L 88.69923400878906 5.000007629394531 L 33.41368865966797 5.000007629394531 M 30.52823638916016 7.62939453125e-06 L 91.58469390869141 7.62939453125e-06 L 122.1129150390625 52.82898712158203 L 91.58469390869141 105.6579666137695 L 30.52821350097656 105.6579666137695 L -7.62939453125e-06 52.82898712158203 L 30.52823638916016 7.62939453125e-06 Z" stroke="none" fill="#20c3dc"/>
      </g>
    </g>
  </g>
</svg>
