<svg viewBox="0 0 32 32" xmlns="http://www.w3.org/2000/svg"><path d="M27 2H5a3 3 0 0 0-3 3v4a1 1 0 0 0 1 1h26a1 1 0 0 0 1-1V5a3 3 0 0 0-3-3Z" fill="#ffffff" class="fill-d8e1ef"></path><rect height="8" rx="1" ry="1" width="28" x="2" y="12" fill="#ffffff" class="fill-d8e1ef"></rect><path d="M29 22H3a1 1 0 0 0-1 1v4a3 3 0 0 0 3 3h22a3 3 0 0 0 3-3v-4a1 1 0 0 0-1-1Z" fill="#ffffff" class="fill-d8e1ef"></path><path d="M21 17H7a1 1 0 0 1 0-2h14a1 1 0 0 1 0 2ZM21 7H7a1 1 0 0 1 0-2h14a1 1 0 0 1 0 2ZM21 27H7a1 1 0 0 1 0-2h14a1 1 0 0 1 0 2Z" fill="#152bca" class="fill-0593ff"></path><circle cx="25" cy="6" r="1" fill="#152bca" class="fill-0593ff"></circle><circle cx="25" cy="16" r="1" fill="#152bca" class="fill-0593ff"></circle><circle cx="25" cy="26" r="1" fill="#152bca" class="fill-0593ff"></circle></svg>