<svg width="289" height="10" viewBox="0 0 289 10" fill="none" xmlns="http://www.w3.org/2000/svg">
<path d="M17.6733 2.4917C16.9661 2.14398 16.3066 1.7735 15.4412 2.33942C15.2343 2.47474 14.6655 2.17999 14.2242 2.22009C13.8715 2.25221 13.4452 1.98322 13.2425 2.49822C13.2024 2.59998 12.3213 2.96817 11.7622 2.68233C11.5722 2.58522 11.4206 2.55691 11.2946 2.6455C10.9137 2.9132 10.6427 3.08911 10.7247 2.47005C10.7559 2.23447 10.5082 2.21578 10.289 2.29603C9.88705 2.43727 9.47499 2.56166 9.0546 2.66863C8.47239 2.82473 8.21499 2.82744 7.55392 2.82413C7.16289 2.82216 6.59 2.68453 6.31386 3.12326C6.09842 3.46559 5.54617 3.20051 5.15677 3.4735C4.76063 3.75153 3.98331 3.64471 3.36502 3.68518C2.46355 3.74385 1.584 3.91153 0.790682 4.28077C0.303915 4.50736 0.185022 4.91676 0.0591827 5.24361C-0.113829 5.69278 0.0854163 6.19527 0.75039 6.43313C1.51284 6.70594 2.28201 6.81568 3.08302 6.46493C3.78684 6.15692 4.6106 6.17788 5.39547 6.08263C6.05341 6.00259 6.87305 6.29937 7.34816 5.60305C7.50799 5.36884 8.10084 5.66959 8.43058 5.76705C8.7225 5.85338 8.88985 5.99665 9.27659 5.90637C10.166 5.70893 11.0843 5.59184 12.0122 5.55752C12.9806 5.51582 13.972 5.4121 14.9525 5.44104C16.7017 5.49274 18.4331 5.23713 20.1959 5.38761C20.9685 5.45356 21.7419 5.08357 22.5718 5.10529C23.7023 5.13493 24.8406 5.07164 25.9625 5.15679C26.4548 5.18828 26.9497 5.17549 27.4369 5.11867C29.578 4.90305 31.7403 5.00057 33.884 4.8944C34.8815 4.84495 35.9672 5.07813 36.9034 4.59929C37.0175 4.54093 37.1163 4.71299 37.3168 4.71649C39.324 4.75141 41.3268 4.57757 43.3197 4.61152C44.5489 4.63253 45.7873 4.49319 47.0144 4.64959C47.1876 4.67382 47.3657 4.66355 47.5312 4.61977C48.255 4.43843 48.9567 4.26032 49.7568 4.5335C50.2238 4.69297 50.7689 4.33426 51.2292 4.38973C51.8563 4.46537 52.5527 4.05812 53.1654 4.59903C53.3087 4.7256 54.0201 4.44568 54.478 4.41673C55.9641 4.32281 57.4522 4.02882 58.945 4.35844C59.4848 4.47762 59.8565 4.16144 60.3578 4.16563C60.9298 4.17064 61.4669 4.47307 62.0545 4.27263C62.158 4.23736 62.3127 4.28025 62.4085 4.23985C63.2915 3.86723 64.3799 3.81912 65.2013 3.97577C66.5658 4.23604 67.8916 4.12623 69.1734 4.0372C72.1079 3.83354 75.0925 4.14809 77.9822 3.60758C78.4382 3.52227 78.7914 3.72083 79.1835 3.75518C81.0947 3.92246 82.9801 3.67852 84.8731 3.67682C86.7589 3.67507 88.6627 3.6634 90.5568 3.56415C92.5268 3.46095 94.505 3.42065 96.4899 3.43519C98.0505 3.44667 99.6364 3.48287 101.179 3.38743C103.087 3.26935 105.006 3.29848 106.902 3.27C108.752 3.24222 110.614 3.10831 112.488 3.21367C114.352 3.31858 116.235 3.18191 118.111 3.09964C119.38 3.04416 120.714 3.16339 121.995 3.10855C124.036 3.02087 126.079 3.15829 128.121 2.99701C129.456 2.89154 130.816 3.14494 132.183 3.09149C134.099 3.01662 136.023 3.04617 137.943 3.03137C137.973 3.03391 138.004 3.03517 138.034 3.03515C138.699 2.97129 139.258 2.69898 140.062 2.93663C140.787 3.15082 141.726 2.92205 142.57 2.9279C143.397 2.93365 144.229 2.96396 145.053 2.97012C147.59 2.98909 150.135 2.79898 152.661 2.92107C154.442 3.00735 156.228 2.65211 158.003 3.04288C158.395 3.12906 158.87 3.00136 159.304 2.96051C160.6 2.83866 161.89 2.84228 163.165 3.10536C163.506 3.17573 163.344 2.78942 163.79 2.80332C164.92 2.83863 166.044 2.97343 167.171 2.96194C167.744 2.95612 168.344 2.98648 168.888 2.90898C170.095 2.73717 171.295 3.00732 172.486 2.87269C172.799 2.83735 173.157 3.34438 173.372 2.69698C173.584 3.05695 173.269 3.4184 173.73 3.53592C174.188 3.65285 174.232 3.30836 174.4 3.11282C174.528 2.9624 174.727 2.8934 174.946 2.94164C176.07 3.18906 177.213 2.95024 178.347 3.04373C178.647 3.06849 178.751 3.10222 178.857 3.28631C178.892 3.34752 179.096 3.41854 179.162 3.39393C179.405 3.3043 179.137 3.22997 179.11 3.14688C179.068 3.02238 179.171 2.94911 179.281 2.96054C180.203 3.05617 181.164 2.70484 181.978 2.86572C182.99 3.06561 183.803 3.00602 184.66 2.66474C184.687 2.6528 184.716 2.64517 184.746 2.64235C184.776 2.63953 184.807 2.64158 184.837 2.64837C184.866 2.65516 184.893 2.66654 184.917 2.68176C184.94 2.69698 184.959 2.71571 184.972 2.73672C185.102 2.94306 184.63 2.90095 184.714 3.12372C185.094 3.153 185.551 3.02487 185.842 3.36366C185.939 3.47654 186.198 3.42675 186.252 3.36351C186.595 2.95528 187.082 3.224 187.493 3.16465C189.011 2.94563 190.488 3.12535 191.994 3.18969C192.789 3.22366 193.659 3.0816 194.471 3.14576C195.61 3.23605 196.778 2.94866 197.9 3.38966C198.484 3.61885 199.073 3.23003 199.676 3.17056C200.484 3.0914 201.092 3.47419 201.819 3.55865C202.378 3.62392 202.821 4.20909 203.514 3.56178C203.819 3.27669 204.654 2.98585 205.377 3.45041C205.594 3.58967 206.035 3.72368 206.414 3.51029C207.063 3.14464 207.783 3.424 208.416 3.51214C209.632 3.68146 210.919 3.0452 212.056 3.73102C212.354 3.9105 212.398 3.62355 212.58 3.63265C212.818 3.64456 213.245 3.31825 213.219 3.84412C213.214 3.95754 213.43 4.02035 213.577 3.93513C214.426 3.44499 215.343 3.55096 216.324 3.66121C216.72 3.70562 217.173 3.66681 217.611 3.70092C217.887 3.72245 218.136 3.63116 218.243 3.90547C218.317 4.09649 218.588 4.08491 218.69 4.04128C219.902 3.52452 221.198 3.94405 222.446 3.878C223.675 3.81299 224.923 3.95143 226.163 3.97033C227.235 3.98661 228.315 4.18304 229.388 3.87316C229.515 3.83662 230.003 4.16728 230.382 4.13249C231.465 4.03323 232.564 4.14828 233.625 4.18875C234.619 4.22671 235.578 4.25452 236.557 4.14651C236.704 4.13032 236.883 4.25377 237.041 4.32025C237.291 4.42515 237.612 4.52381 237.806 4.37773C238.162 4.11014 238.455 4.2724 238.84 4.30293C240.793 4.46313 242.755 4.54162 244.718 4.53805C245.716 4.5336 246.761 4.6611 247.795 4.63912C248.984 4.61388 250.161 4.76602 251.374 4.64917C251.872 4.60111 252.604 4.87989 253.236 4.84346C255.513 4.71232 257.791 4.90497 260.054 4.97491C262.591 5.0534 265.156 4.97609 267.684 5.31217C267.896 5.34029 268.197 5.32157 268.216 5.08778C268.227 4.95107 267.987 4.76953 268.375 4.75374C268.616 4.74367 268.91 4.74361 268.926 4.99374C268.951 5.37941 269.315 5.35091 269.636 5.35887C273.467 5.45409 277.292 5.6494 281.111 5.91392C281.554 5.94464 282.029 5.75249 282.43 6.0453C282.683 5.43565 282.973 6.20134 283.284 6.03715C283.612 5.86453 284.115 6.04868 284.402 5.91229C284.971 5.64114 284.969 6.18948 285.339 6.20322C286.134 6.23268 286.924 6.34089 287.719 6.37902C288.13 6.3988 288.548 6.33766 288.962 6.31307L288.942 6.33177C289.033 5.94091 288.667 5.81025 288.303 5.84859C287.627 5.91953 287.016 5.71947 286.373 5.67638C285.468 5.61572 284.556 5.59412 283.655 5.57674C283.216 5.56826 282.54 5.41211 281.999 5.25446C281.521 5.11492 280.929 5.46619 280.503 5.03545C280.456 4.98809 280.154 5.04071 280.088 5.20842C280.061 5.27878 280.058 5.44033 279.913 5.35405C279.028 4.82647 277.931 5.00113 276.945 4.82067C276.068 4.6602 274.896 4.39426 274.282 4.6857C273.251 5.17461 272.775 4.55665 272.054 4.43992C271.498 4.3534 270.933 4.30583 270.367 4.29782C268.713 4.2659 267.066 4.20632 265.418 4.0578C264.081 3.93736 262.726 3.94769 261.378 3.90131C259.636 3.84134 257.891 3.80501 256.151 3.71794C253.808 3.60071 251.467 3.35249 249.127 3.34281C247.867 3.33756 246.608 3.16796 245.328 3.30879C244.559 3.39334 243.727 3.19153 242.928 3.09841C242.161 3.0091 241.39 3.0706 240.624 3.04799C239.253 3.00758 237.86 3.03298 236.504 2.96528C235.276 2.90395 234.053 2.83737 232.817 2.79822C230.705 2.73156 228.583 2.65396 226.481 2.52304C224.394 2.39289 222.305 2.26617 220.18 2.21472C220.065 2.37261 220.381 2.36734 220.427 2.45821C220.516 2.63509 220.331 2.77049 220.121 2.80018C219.884 2.83371 219.85 2.70578 219.866 2.53954C219.923 1.96275 219.567 1.93134 218.935 2.09237C218.075 2.31171 217.168 2.10335 216.282 2.11508C214.909 2.13325 213.562 1.76818 212.153 1.94826C211.651 2.01241 211.061 1.85448 210.507 1.81549C209.756 1.76253 208.992 1.78069 208.238 1.7169C207.375 1.64366 206.448 1.56547 205.595 1.6219C202.99 1.79438 200.427 1.27973 197.856 1.38422C196.171 1.45273 194.506 1.30555 192.829 1.32801C191.09 1.35128 189.334 1.16494 187.583 1.21594C186.686 1.2421 185.765 0.985694 184.962 1.07924C184.06 1.18438 183.2 0.999084 182.345 1.10878C180.975 1.28433 179.615 0.830491 178.269 1.06278C177.602 1.17786 177.013 1.29064 176.451 0.88679C176.354 0.817696 176.128 0.756239 176.037 0.793946C174.938 1.25028 173.741 0.82709 172.619 1.00399C172.042 1.09479 171.516 0.707818 170.964 0.889886C169.985 1.21226 168.971 0.905734 167.987 1.0088C167.142 1.09725 166.236 0.627371 165.443 1.15365C162.88 0.669486 160.274 1.11137 157.709 0.897486C156.14 0.76682 154.618 1.01184 153.068 0.940594C149.356 0.769897 145.644 0.91996 141.934 0.878062C139.869 0.854702 137.798 0.840834 135.736 0.843382C133.743 0.845766 131.739 0.823581 129.739 0.906201C128.667 0.950488 127.58 0.841131 126.498 1.00221C126.118 1.05881 125.743 0.853632 125.305 0.840344C124.313 0.810512 123.336 0.994501 122.315 0.806612C121.511 0.658444 120.64 0.941261 119.765 0.860759C119.348 0.822397 118.861 0.826589 118.553 0.678577C117.912 0.369544 117.608 0.514645 117.401 0.994422C116.705 0.442964 116.192 0.445177 115.417 0.920518C115.044 1.14949 114.497 0.688982 114.123 1.05287C113.72 0.731516 113.222 1.12999 112.874 0.987322C111.938 0.603002 110.697 0.962775 109.895 0.213455C109.735 0.0646163 109.25 0.353294 108.915 0.438606C108.22 0.615262 107.707 1.2373 106.808 0.909809C106.354 1.42371 105.749 0.836051 105.197 1.05032C105.395 0.820814 105.465 0.372654 105.326 0.447786C104.639 0.816568 104.291 0.130166 103.709 0.279781C104.216 0.408054 104.173 0.692318 103.954 0.922439C103.702 1.18651 103.4 0.986697 103.192 0.834202C102.744 0.505265 102.47 0.889988 102.189 0.990009C101.782 1.13519 101.456 0.928676 101.137 0.895703C100.859 0.86702 101.363 0.617967 101.375 0.341375C101.089 0.50205 100.882 0.71026 100.491 0.490092C99.9037 0.159228 99.1132 0.247351 98.4439 0.170662C97.8626 0.104097 97.2547 0.571099 97.1986 1.16975C97.6993 0.696661 98.2917 0.439622 99.2376 0.658791C98.5412 1.02764 97.9309 1.24248 97.1982 1.16721C96.4169 1.19102 96.5129 0.448958 95.9177 0.20818C95.85 0.563796 96.1904 0.631741 96.3067 0.809228C96.5164 1.12944 96.0292 1.09799 96.0028 1.27408C95.6344 0.925332 95.2843 1.3294 94.9032 1.28577C94.3392 1.22127 93.8115 1.23411 94.2592 0.629324C94.3976 0.442286 94.3722 0.215521 94.1499 0.0736939C93.7549 -0.178328 93.9184 0.298944 93.7494 0.273945C93.3868 0.22045 93.0471 0.555955 92.6613 0.264609C92.4872 0.133323 90.9305 0.559197 90.8206 0.728953C90.5209 1.19188 89.8246 1.25126 89.3718 0.851078C89.2014 0.70058 89.0449 0.724181 88.82 0.806492C88.4865 0.928732 88.1168 0.995679 87.65 1.11496C87.7877 0.874895 87.9073 0.731461 87.9476 0.575723C87.9647 0.507352 87.9501 0.436384 87.9063 0.374711C87.8626 0.313039 87.7922 0.26441 87.7071 0.23697C87.4703 0.150065 87.4876 0.338271 87.414 0.404652C87.1005 0.687289 86.6291 0.72845 86.3398 0.538877C85.9157 0.260993 85.5276 0.471317 85.1391 0.452004C84.5122 0.420781 85.1571 0.810842 84.8543 0.972568C84.5669 0.834383 84.5298 0.39409 83.9874 0.447961C84.1428 0.597396 84.2995 0.729221 84.4256 0.875935C84.5149 0.979629 84.4717 1.18036 84.3539 1.15897C83.6766 1.03597 82.8556 1.66034 82.2841 0.889453C82.1137 0.659419 81.7463 0.40193 81.3563 0.854483C81.0425 1.21869 80.7706 0.822181 80.5951 0.687565C80.3796 0.52225 80.1509 0.382508 79.9088 0.485427C79.6693 0.587201 79.8449 0.815464 79.8894 0.987456C79.9714 1.3045 79.9748 1.30409 79.4335 1.24717C79.4087 1.24235 79.383 1.24094 79.3576 1.24302C79.0844 1.29414 78.736 1.64704 78.5662 1.2242C78.4587 0.956667 79.0496 1.04209 79.1864 0.81407C78.7888 0.765419 78.396 0.713095 78.0014 0.67029C77.6735 0.634688 77.2436 0.39746 77.1708 0.901365C77.1665 0.924315 77.1541 0.945896 77.1348 0.963817C77.1155 0.981737 77.0901 0.995327 77.0613 1.00314C77.0325 1.01095 77.0013 1.01269 76.9712 1.00817C76.941 1.00366 76.9129 0.993055 76.8899 0.977495C76.5216 0.695267 76.0503 1.07406 75.6031 0.785251C75.0551 0.431245 74.349 0.871588 73.6939 0.800142C73.2621 0.753022 72.7031 1.20614 72.4209 0.583707C72.4082 0.555646 72.1419 0.538218 72.0908 0.581467C71.5921 1.00384 70.9613 0.847166 70.35 0.834755C69.9101 0.825783 69.4529 0.872533 69.9821 1.41863C69.3517 1.25541 68.979 0.806493 68.372 1.0745C68.5303 1.28161 68.8592 1.19311 69.1139 1.30677C68.5791 1.69844 67.753 1.131 67.2755 1.7646C67.3317 1.10122 66.8482 0.863316 66.133 0.998171C65.7295 1.07416 65.1993 0.918365 65.3884 1.51272C65.4372 1.66607 64.9578 1.67145 64.7286 1.72867C64.5487 1.77357 64.3161 1.652 64.4086 1.42777C64.5216 1.1532 64.3979 1.08182 64.0639 1.2021C63.9159 1.2554 63.7553 1.27288 63.6391 1.18829C62.991 0.716264 62.5339 1.04743 62.1415 1.40574C61.8547 1.66754 61.7663 1.68612 61.4305 1.39996C60.9594 0.998543 60.2665 0.966293 59.5681 1.10328C59.6347 1.29559 60.1429 1.26448 59.9341 1.56394C59.7369 1.84683 59.5316 1.56894 59.333 1.5794C59.2153 1.58955 59.101 1.61507 58.9952 1.65481C58.2357 1.91481 57.5214 1.67054 56.8103 1.5132C56.2555 1.39047 55.7961 1.85455 55.1763 1.59899C55.042 1.54353 54.535 2.02193 54.471 1.41737C53.9626 1.75865 53.368 1.32981 52.8262 1.51596C52.384 1.66795 51.94 1.67785 51.4369 1.52204C50.7249 1.30155 50.649 1.37185 50.4094 2.10049C50.319 1.80298 49.4992 1.95021 50.0507 1.47125C49.6019 1.36164 49.1212 1.35606 48.6709 1.45524C47.9526 1.61347 47.1873 1.61195 46.4659 1.45085C46.3583 1.42638 46.2565 1.38671 46.1521 1.35408C45.9603 2.09408 44.9841 1.58559 44.5376 1.9238C44.4978 1.95892 44.4415 1.98094 44.3804 1.98526C44.3193 1.98958 44.2581 1.97586 44.2096 1.94697C43.6845 1.64184 43.485 1.63786 42.8954 2.0062C42.6862 2.13717 42.4413 2.2225 42.2522 2.11624C42.0061 1.97807 42.5943 1.95555 42.4045 1.77069C41.534 2.06957 41.534 2.06957 41.1979 1.64569C41.0839 1.98581 41.0894 2.5272 40.4218 1.98338C40.2009 1.80341 40.1029 1.78254 40.1542 2.10961C40.1926 2.35476 39.8498 2.25568 39.7442 2.13707C39.2947 1.63219 38.692 1.60777 38.0053 1.75623C37.9668 2.04451 38.7662 1.79682 38.4768 2.12657C38.2943 2.33452 37.6116 2.31962 37.5267 2.14637C37.3184 1.72132 36.9462 1.90291 36.621 1.86466C36.4313 1.84234 36.1498 1.91929 36.1129 1.68371C36.0882 1.52565 35.9466 1.4543 35.8513 1.55282C35.3231 2.09887 34.4222 1.76194 33.788 2.06166C33.5683 2.16551 33.4132 2.1678 33.3686 1.82545C33.3241 1.48311 32.8485 1.86939 32.5948 1.77399C32.3402 2.09764 33.0998 1.91635 32.8575 2.13138C32.7078 2.2643 32.4309 2.41001 32.097 2.21764C31.723 2.00221 31.4496 1.62979 30.8119 2.12943C30.3349 2.50312 30.9681 1.75581 30.4253 1.82809C30.166 2.04671 30.1336 2.44474 29.6947 2.70641C29.8077 2.44878 29.1325 2.39546 29.5048 2.043C29.6718 1.88495 29.3848 1.89548 29.2712 1.87985C28.7016 1.80163 28.1242 1.88041 27.6214 2.02637C27.0233 2.20004 26.2696 2.10345 25.8271 2.56248C25.1696 1.98025 24.5303 2.67301 23.8887 2.56216C23.4585 2.488 23.0572 2.48199 22.6481 2.60597C22.2746 2.71909 22.0287 2.66543 22.0571 2.30502C22.0741 2.08861 21.8168 2.12059 21.6918 2.13577C21.0642 2.2118 20.4517 2.321 19.842 2.03843C19.7083 1.97653 19.3896 2.12315 19.4183 2.21172C19.5797 2.70881 18.9712 2.48134 18.7771 2.62923C18.3978 2.64689 18.0032 2.72793 17.6733 2.4917Z" fill="#97E14D"/>
<path d="M17.6515 5.65801C16.9362 5.31704 16.2681 4.95284 15.4161 5.5269C15.2124 5.66416 14.6367 5.37484 14.1965 5.41912C13.8445 5.45457 13.4119 5.18964 13.2213 5.70651C13.1837 5.80864 12.3113 6.18514 11.7455 5.90463C11.5533 5.80933 11.4011 5.78245 11.2771 5.87224C10.9026 6.14351 10.6357 6.32197 10.7032 5.7022C10.7289 5.46635 10.4807 5.45001 10.2634 5.53233C9.86487 5.67736 9.45578 5.80564 9.03795 5.91659C8.45948 6.07818 8.20217 6.08333 7.54109 6.08628C7.15006 6.08801 6.574 5.95583 6.30821 6.39713C6.10085 6.74146 5.54243 6.48164 5.15949 6.75829C4.76994 7.04004 3.99019 6.9406 3.37292 6.98692C2.47292 7.05413 1.59742 7.23012 0.812878 7.60684C0.331495 7.83802 0.222246 8.24849 0.10411 8.57651C-0.0583166 9.02726 0.152727 9.52781 0.823222 9.75935C1.592 10.0249 2.36367 10.1273 3.15634 9.76904C3.85284 9.45439 4.67699 9.46755 5.45954 9.36487C6.11552 9.2786 6.94206 9.56759 7.40073 8.86685C7.55504 8.63114 8.15489 8.92624 8.48689 9.02057C8.7808 9.10412 8.95151 9.24579 9.33608 9.15186C10.2208 8.94602 11.1362 8.82023 12.0632 8.77713C13.0305 8.72626 14.0193 8.61316 15.0004 8.63281C16.7506 8.66792 18.4758 8.39594 20.2419 8.5297C21.016 8.58832 21.7807 8.21104 22.611 8.2249C23.7421 8.24382 24.8787 8.16976 26.0025 8.24427C26.4955 8.2711 26.9901 8.25361 27.4758 8.19218C29.6116 7.9563 31.776 8.03332 33.917 7.90686C34.9132 7.84796 36.0042 8.07083 36.929 7.58317C37.0417 7.52373 37.1446 7.69485 37.3452 7.69645C39.3529 7.71234 41.3515 7.51955 43.3449 7.53461C44.5745 7.54397 45.8095 7.39292 47.0401 7.53767C47.2139 7.56026 47.3917 7.54829 47.5561 7.50296C48.2756 7.31478 48.9731 7.13004 49.7795 7.39561C50.2502 7.55063 50.7868 7.1868 51.2483 7.2379C51.8772 7.30759 52.5639 6.89379 53.1892 7.42883C53.3355 7.55403 54.0402 7.2674 54.4974 7.23412C55.9811 7.12613 57.4622 6.81808 58.9625 7.13351C59.5051 7.24757 59.8693 6.9279 60.3706 6.92734C60.9427 6.92692 61.4868 7.22424 62.0697 7.01825C62.1723 6.982 62.3281 7.02342 62.4229 6.98213C63.297 6.60118 64.3842 6.54276 65.2091 6.69161C66.5796 6.93893 67.9027 6.81656 69.1822 6.7154C72.1116 6.48396 75.1033 6.77019 77.9799 6.20237C78.4339 6.11275 78.7917 6.30794 79.1846 6.33857C81.0996 6.48773 82.979 6.22595 84.8717 6.20631C86.7573 6.1867 88.6606 6.15699 90.5522 6.0398C92.5195 5.91795 94.4966 5.85892 96.4816 5.85465C98.0422 5.85134 99.6288 5.87251 101.169 5.76247C103.074 5.62632 104.994 5.63726 106.889 5.59082C108.738 5.54552 110.596 5.39398 112.473 5.48158C114.338 5.56881 116.219 5.41432 118.093 5.31428C119.36 5.24678 120.696 5.35336 121.976 5.28639C124.015 5.17939 126.06 5.29744 128.098 5.11683C129.431 4.99872 130.797 5.2392 132.163 5.17281C134.076 5.07979 136.001 5.09111 137.921 5.05812C137.951 5.06037 137.981 5.06134 138.011 5.06104C138.675 4.99088 139.228 4.71331 140.037 4.94331C140.767 5.1506 141.7 4.91298 142.545 4.91083C143.372 4.90874 144.204 4.93116 145.028 4.92951C147.565 4.92445 150.106 4.71025 152.634 4.80839C154.418 4.87778 156.194 4.50566 157.979 4.87956C158.372 4.96203 158.844 4.82984 159.277 4.78488C160.571 4.65076 161.86 4.64216 163.141 4.89314C163.484 4.96027 163.313 4.57554 163.759 4.58521C164.89 4.60981 166.017 4.73394 167.144 4.71177C167.716 4.70052 168.317 4.72519 168.859 4.64255C170.062 4.45933 171.268 4.71808 172.456 4.57218C172.768 4.53387 173.138 5.03746 173.338 4.38809C173.558 4.74601 173.252 5.11041 173.715 5.22355C174.176 5.33613 174.212 4.99125 174.375 4.79415C174.5 4.64253 174.697 4.57166 174.917 4.61781C176.047 4.85456 177.184 4.60493 178.32 4.68767C178.621 4.70958 178.725 4.74233 178.836 4.92539C178.873 4.98625 179.078 5.05534 179.144 5.0301C179.384 4.93819 179.115 4.8664 179.085 4.78358C179.041 4.65949 179.142 4.58525 179.252 4.59564C180.176 4.68252 181.129 4.32213 181.947 4.47527C182.964 4.66555 183.775 4.59827 184.624 4.2489C184.65 4.23672 184.679 4.22881 184.709 4.22571C184.74 4.2226 184.77 4.22436 184.8 4.23087C184.83 4.23738 184.857 4.24849 184.881 4.26349C184.904 4.27849 184.924 4.29704 184.937 4.31793C185.072 4.52301 184.599 4.48537 184.688 4.70733C185.07 4.733 185.523 4.60055 185.822 4.93656C185.921 5.0485 186.18 4.99626 186.232 4.93252C186.565 4.52109 187.059 4.78515 187.468 4.72192C188.981 4.48854 190.462 4.65425 191.969 4.70431C192.765 4.73075 193.632 4.58046 194.445 4.63692C195.586 4.71641 196.747 4.41798 197.88 4.8483C198.468 5.07193 199.048 4.67758 199.65 4.6124C200.456 4.52559 201.073 4.90258 201.801 4.98015C202.363 5.04011 202.819 5.62101 203.497 4.96722C203.795 4.67927 204.623 4.38055 205.357 4.8382C205.577 4.9754 206.021 5.10521 206.395 4.88825C207.036 4.51649 207.762 4.78901 208.397 4.87114C209.617 5.02891 210.889 4.38053 212.042 5.0555C212.344 5.23214 212.381 4.9448 212.563 4.95218C212.802 4.96183 213.221 4.63151 213.207 5.15757C213.204 5.27103 213.422 5.33178 213.568 5.24518C214.405 4.74705 215.324 4.84432 216.308 4.94526C216.705 4.98591 217.157 4.94282 217.595 4.97277C217.872 4.99168 218.119 4.89805 218.232 5.17132C218.311 5.36162 218.581 5.34747 218.683 5.30287C219.882 4.77469 221.187 5.1819 222.434 5.10402C223.662 5.02738 224.913 5.15398 226.153 5.16113C227.225 5.16725 228.31 5.35342 229.375 5.03341C229.501 4.99567 229.997 5.32168 230.375 5.2833C231.455 5.17379 232.557 5.27841 233.619 5.30883C234.614 5.33736 235.574 5.35608 236.55 5.23881C236.696 5.22124 236.878 5.34297 237.038 5.40795C237.291 5.51046 237.614 5.60607 237.804 5.45817C238.153 5.18724 238.45 5.3467 238.836 5.37358C240.793 5.51526 242.757 5.57515 244.719 5.55298C245.716 5.53908 246.765 5.65667 247.798 5.62489C248.986 5.58839 250.166 5.72936 251.377 5.60103C251.874 5.54825 252.612 5.82007 253.244 5.77765C255.517 5.62496 257.799 5.796 260.064 5.84449C262.603 5.89894 265.166 5.79733 267.701 6.10942C267.913 6.13554 268.214 6.11396 268.227 5.88002C268.235 5.74322 267.991 5.56398 268.379 5.5445C268.62 5.53216 268.914 5.52931 268.935 5.77926C268.969 6.16466 269.333 6.1327 269.654 6.13763C273.487 6.19654 277.315 6.35559 281.14 6.5839C281.584 6.61041 282.055 6.41379 282.463 6.70276C282.701 6.09079 283.009 6.85364 283.316 6.68652C283.64 6.51081 284.148 6.69017 284.431 6.55109C284.994 6.27457 285.005 6.82286 285.375 6.8331C286.17 6.85503 286.963 6.95574 287.759 6.98634C288.171 7.00221 288.586 6.93713 289 6.90862L288.98 6.9275C289.062 6.53582 288.693 6.40864 288.33 6.45044C287.656 6.52776 287.04 6.33352 286.396 6.29653C285.49 6.24445 284.578 6.23149 283.676 6.22265C283.237 6.21833 282.557 6.0686 282.013 5.91609C281.532 5.7811 280.947 6.13794 280.512 5.71128C280.464 5.66438 280.163 5.71984 280.101 5.88816C280.075 5.95877 280.076 6.12033 279.93 6.03543C279.032 5.5163 277.939 5.70133 276.949 5.53024C276.069 5.37809 274.89 5.12329 274.283 5.42051C273.264 5.91914 272.773 5.30575 272.05 5.19587C271.492 5.11463 270.926 5.07241 270.359 5.06978C268.705 5.05353 267.057 5.00955 265.405 4.87667C264.066 4.7689 262.711 4.79208 261.363 4.75846C259.619 4.71502 257.874 4.69521 256.131 4.62464C253.786 4.52963 251.44 4.30361 249.099 4.3161C247.839 4.3228 246.576 4.16515 245.3 4.31808C244.533 4.40992 243.697 4.216 242.895 4.13047C242.126 4.04843 241.357 4.11723 240.59 4.10188C239.218 4.07447 237.826 4.11306 236.469 4.05821C235.24 4.00852 234.015 3.95354 232.778 3.92611C230.665 3.87947 228.542 3.82197 226.436 3.71099C224.346 3.60063 222.256 3.4937 220.129 3.4624C220.018 3.62136 220.334 3.61309 220.382 3.70353C220.475 3.87954 220.293 4.01668 220.084 4.04836C219.848 4.08413 219.811 3.95653 219.823 3.79015C219.866 3.2129 219.51 3.18486 218.882 3.35186C218.027 3.57932 217.115 3.37959 216.229 3.39971C214.857 3.43088 213.502 3.07861 212.096 3.27203C211.596 3.34093 211.003 3.1886 210.448 3.15486C209.695 3.10902 208.933 3.13442 208.177 3.07778C207.312 3.01273 206.383 2.94333 205.532 3.00784C202.931 3.20497 200.356 2.71466 197.788 2.8435C196.105 2.92797 194.437 2.79658 192.761 2.83492C191.022 2.87467 189.261 2.705 187.513 2.77258C186.616 2.80724 185.689 2.55958 184.889 2.66072C183.989 2.7744 183.125 2.59727 182.272 2.71505C180.907 2.90356 179.536 2.46266 178.196 2.70768C177.532 2.82906 176.945 2.94741 176.373 2.54893C176.276 2.48076 176.047 2.42146 175.957 2.46002C174.869 2.92672 173.663 2.51492 172.544 2.70243C171.971 2.79867 171.436 2.41673 170.887 2.60402C169.916 2.93563 168.895 2.63874 167.914 2.75112C167.071 2.84756 166.154 2.38633 165.373 2.92006C162.799 2.46023 160.204 2.92675 157.634 2.7372C156.062 2.62141 154.546 2.88083 152.994 2.82428C149.279 2.68876 145.571 2.87398 141.86 2.86724C139.795 2.86344 137.724 2.86921 135.663 2.89128C133.67 2.91255 131.665 2.90936 129.667 3.01092C128.597 3.06536 127.507 2.96631 126.429 3.13761C126.051 3.19781 125.671 2.99621 125.233 2.98707C124.24 2.96665 123.267 3.15988 122.242 2.98168C121.435 2.84114 120.57 3.13218 119.693 3.05998C119.276 3.02557 118.788 3.03438 118.478 2.8893C117.829 2.58637 117.528 2.73435 117.333 3.21602C116.624 2.67123 116.111 2.6783 115.348 3.16092C114.98 3.39341 114.422 2.93814 114.056 3.30553C113.646 2.98803 113.157 3.39118 112.806 3.25182C111.861 2.87641 110.629 3.2479 109.809 2.50627C109.646 2.35896 109.168 2.65219 108.835 2.74067C108.144 2.92389 107.645 3.55072 106.739 3.23178C106.298 3.74993 105.678 3.16807 105.131 3.38755C105.324 3.15619 105.384 2.70741 105.246 2.78386C104.569 3.1591 104.204 2.47607 103.626 2.63119C104.136 2.75464 104.099 3.03928 103.885 3.27146C103.64 3.53789 103.333 3.34096 103.122 3.19045C102.666 2.86579 102.401 3.25307 102.123 3.35574C101.719 3.50477 101.388 3.30136 101.068 3.27141C100.79 3.24537 101.288 2.99156 101.293 2.71489C101.011 2.87826 100.809 3.08841 100.413 2.87196C99.8179 2.5467 99.0295 2.64231 98.3585 2.57197C97.7757 2.51092 97.1789 2.98363 97.1368 3.58274C97.6264 3.10496 98.2126 2.84234 99.1637 3.05252C98.476 3.42793 97.8708 3.64853 97.1364 3.58021C96.3558 3.61141 96.4342 2.86853 95.8335 2.63342C95.7741 2.98963 96.1161 3.05435 96.2366 3.23071C96.4538 3.5489 95.966 3.52207 95.9437 3.69839C95.5671 3.35317 95.2265 3.76051 94.8444 3.7205C94.279 3.66135 93.7516 3.67918 94.1851 3.07023C94.3191 2.8819 94.2883 2.6554 94.0628 2.51569C93.6619 2.26744 93.8366 2.74311 93.667 2.71972C93.3031 2.66966 92.9714 3.00835 92.5788 2.72069C92.4016 2.59107 90.8551 3.03165 90.7492 3.20242C90.4604 3.66814 89.7657 3.7341 89.3034 3.33826C89.1296 3.18939 88.9736 3.21448 88.7506 3.29891C88.4201 3.42429 88.052 3.49474 87.5881 3.61843C87.7201 3.37708 87.8363 3.23253 87.8729 3.07643C87.8884 3.00791 87.8722 2.93708 87.827 2.87583C87.7817 2.81458 87.7102 2.76663 87.6245 2.74C87.3857 2.65534 87.4074 2.84336 87.3354 2.91043C87.0285 3.19601 86.5582 3.24163 86.2644 3.05482C85.8339 2.78099 85.4508 2.99497 85.0618 2.97934C84.4343 2.95406 85.0883 3.33796 84.7893 3.50254C84.4987 3.36709 84.4512 2.9272 83.9102 2.9862C84.069 3.13415 84.2289 3.26448 84.3584 3.40998C84.4501 3.51282 84.4116 3.71394 84.2934 3.69366C83.6133 3.57709 82.807 4.20917 82.2174 3.44379C82.0416 3.21539 81.6682 2.96141 81.2889 3.41761C80.9837 3.78475 80.7025 3.39086 80.5239 3.25792C80.3045 3.09467 80.0726 2.95711 79.8329 3.06231C79.5958 3.16634 79.7768 3.39292 79.8254 3.56447C79.9148 3.88069 79.9182 3.88026 79.3756 3.82847C79.3506 3.82389 79.3249 3.82272 79.2996 3.82504C79.0276 3.87874 78.6876 4.23491 78.5079 3.81372C78.3941 3.54724 78.9869 3.62705 79.1184 3.39776C78.7196 3.35288 78.3256 3.30429 77.9301 3.26522C77.6014 3.23273 77.1659 2.9996 77.105 3.50414C77.1012 3.52713 77.0893 3.54883 77.0704 3.56693C77.0516 3.58503 77.0265 3.59886 76.9979 3.60694C76.9693 3.61502 76.9382 3.61706 76.9079 3.61283C76.8776 3.6086 76.8493 3.59827 76.8259 3.58292C76.451 3.30422 75.9887 3.68744 75.5348 3.40289C74.9784 3.05412 74.2828 3.5011 73.6261 3.43587C73.1933 3.39285 72.645 3.85122 72.3482 3.23152C72.3348 3.20359 72.0681 3.18868 72.018 3.23241C71.5293 3.65947 70.8949 3.50878 70.2834 3.50216C69.8433 3.49736 69.3873 3.54844 69.9292 4.08946C69.2951 3.93223 68.9119 3.4869 68.3112 3.76062C68.4744 3.96621 68.8011 3.87461 69.0585 3.98584C68.533 4.38253 67.6936 3.82298 67.2311 4.46103C67.2717 3.79719 66.7827 3.5639 66.0707 3.70552C65.669 3.78532 65.1352 3.63457 65.3383 4.22706C65.3907 4.37993 64.9115 4.38985 64.6836 4.44924C64.5048 4.49584 64.2694 4.37648 64.3566 4.15141C64.4632 3.8758 64.3377 3.8056 64.0066 3.92903C63.8599 3.98372 63.6997 4.00273 63.5815 3.91925C62.9224 3.45341 62.4732 3.78887 62.0893 4.15086C61.8086 4.41535 61.7207 4.43476 61.3782 4.15181C60.8977 3.75491 60.2041 3.72922 59.509 3.87281C59.5802 4.06447 60.0875 4.02854 59.8858 4.32995C59.6953 4.61468 59.4834 4.33877 59.2851 4.35111C59.1676 4.36237 59.054 4.38897 58.9491 4.42971C58.1959 4.69688 57.4759 4.4594 56.7611 4.30882C56.2035 4.19135 55.7551 4.65973 55.1294 4.41008C54.9938 4.35589 54.4981 4.83905 54.4198 4.23516C53.9195 4.58122 53.315 4.15806 52.7775 4.34933C52.339 4.50549 51.8953 4.5196 51.3885 4.36856C50.6715 4.15485 50.5972 4.22586 50.3748 4.95668C50.2774 4.66006 49.4612 4.81505 50.0013 4.33092C49.55 4.22557 49.0692 4.22455 48.6213 4.32798C47.9068 4.493 47.1415 4.49873 46.4165 4.34448C46.3083 4.32103 46.2056 4.28233 46.1004 4.2507C45.926 4.99243 44.938 4.49324 44.4994 4.83565C44.4605 4.87114 44.4047 4.89369 44.3437 4.89859C44.2827 4.90349 44.2212 4.89035 44.1721 4.86193C43.6398 4.56181 43.4402 4.55972 42.8594 4.9336C42.6533 5.06654 42.4104 5.15418 42.2188 5.04972C41.9695 4.9139 42.5571 4.88581 42.363 4.70277C41.4996 5.00986 41.4996 5.00986 41.1536 4.58921C41.0476 4.93038 41.0658 5.47165 40.3856 4.93422C40.1604 4.75637 40.062 4.73642 40.1209 5.06296C40.1651 5.30773 39.82 5.21191 39.7116 5.09431C39.2503 4.59374 38.6471 4.57504 37.964 4.72999C37.9323 5.01861 38.7258 4.76336 38.4441 5.09582C38.2665 5.30548 37.5835 5.29704 37.4946 5.12462C37.2764 4.70159 36.9084 4.88669 36.5823 4.85152C36.3921 4.831 36.1125 4.91061 36.0701 4.6754C36.0417 4.5176 35.8984 4.44759 35.8054 4.54701C35.2901 5.098 34.3814 4.76964 33.7543 5.07534C33.5371 5.18126 33.382 5.18502 33.3294 4.84313C33.2769 4.50125 32.8104 4.89199 32.5545 4.79901C32.3075 5.12503 33.0627 4.93657 32.8256 5.15387C32.679 5.28819 32.4056 5.43651 32.0671 5.24732C31.6882 5.03546 31.406 4.66568 30.7802 5.1713C30.312 5.54947 30.9275 4.79625 30.3865 4.87365C30.1324 5.09471 30.1093 5.493 29.6766 5.7588C29.7836 5.50013 29.1072 5.45321 29.4711 5.09726C29.6344 4.93765 29.3477 4.9509 29.2338 4.93635C28.6624 4.86353 28.0869 4.94778 27.5876 5.09848C26.9936 5.2778 26.2377 5.18836 25.8061 5.65154C25.135 5.0756 24.512 5.77433 23.8679 5.66958C23.436 5.5995 23.0347 5.59729 22.6284 5.72514C22.2577 5.84178 22.0105 5.79046 22.0305 5.42982C22.0424 5.21327 21.7858 5.24769 21.6612 5.26404C21.0354 5.34602 20.4256 5.46101 19.8093 5.18424C19.6742 5.12362 19.359 5.27324 19.3898 5.36154C19.5628 5.85704 18.949 5.63536 18.7584 5.78507C18.3796 5.80632 17.987 5.89109 17.6515 5.65801Z" fill="#97E14D"/>
</svg>
