<svg id="icons" xmlns="http://www.w3.org/2000/svg" viewBox="0 0 64 64"><defs><style>.cls-1{fill:none;stroke:#c19e62;stroke-linecap:round;stroke-linejoin:round;stroke-width:2px;}</style></defs><title>25</title><g id="injured"><path class="cls-1" d="M38.31,32h6.64a9.01433,9.01433,0,0,1,8.81,9V60H10.24V41a9.00072,9.00072,0,0,1,9-9h6.84"/><path class="cls-1" d="M38.31476,31.99809l-.167.19587a7.82,7.82,0,0,1-12.06149-.19317l-.00215-.0027"/><polyline class="cls-1" points="44.954 32.002 31.997 59.995 39.236 59.995 51.83 35.337"/><line class="cls-1" x1="38.31476" y1="31.99809" x2="38.31476" y2="25.65554"/><line class="cls-1" x1="26.08415" y1="31.99809" x2="26.08415" y2="25.65615"/><path class="cls-1" d="M43.2713,15.07185a11.07185,11.07185,0,1,0-22.14369,0c0,6.11481,4.957,13.03355,11.07185,13.03355S43.2713,21.18666,43.2713,15.07185Z"/><line class="cls-1" x1="42.25957" y1="10.44205" x2="23.76382" y2="7.90065"/><line class="cls-1" x1="22.19517" y1="10.32268" x2="42.89639" y2="18.07564"/><line class="cls-1" x1="21.21278" y1="16.48169" x2="32.19946" y2="14.06945"/><path class="cls-1" d="M21.13534,44.75272h0a4.64506,4.64506,0,0,1,4.64506,4.64506v4.64506a0,0,0,0,1,0,0H16.49028a0,0,0,0,1,0,0V49.39778a4.64506,4.64506,0,0,1,4.64506-4.64506Z" transform="translate(42.27069 98.79557) rotate(-180)"/></g></svg>