<svg width="256" height="11" viewBox="0 0 256 11" fill="none" xmlns="http://www.w3.org/2000/svg">
<path d="M250.756 3.30509C250.998 3.35845 251.273 3.70226 251.627 3.51112C251.869 3.33559 252.126 3.21081 252.39 3.13998C252.612 3.12097 252.874 3.47961 253.065 3.39831C253.521 3.20104 253.488 4.13279 253.725 4.06105C254.016 3.9725 254.255 3.55541 254.541 3.36739C254.668 3.2839 254.855 3.41462 255.015 3.44751C254.991 3.72945 254.936 4.00216 254.853 4.25378C254.738 4.41942 254.588 4.51731 254.43 4.53073C253.703 4.68105 252.927 4.35661 252.253 5.0439C252.197 5.08407 252.135 5.10279 252.072 5.09848C252.009 5.09418 251.948 5.06698 251.893 5.01914C251.224 4.27565 250.638 4.81734 250.088 5.29483C249.848 5.50347 249.674 5.78533 249.471 5.35211C249.351 5.12038 249.188 4.95106 249.004 4.86781C248.82 4.78455 248.625 4.79152 248.446 4.88772C247.879 5.03133 247.319 5.2248 246.767 5.46717C246.655 5.51659 246.597 5.86012 246.515 6.0679C246.422 4.7503 245.493 5.95692 245.262 5.05378C244.715 5.2185 244.178 5.44337 243.654 5.72669C243.419 5.93228 243.149 6.022 242.878 5.98388C242.607 5.94577 242.349 5.78165 242.137 5.5133C241.728 5.09065 241.681 5.08981 241.6 5.96371C241.559 6.41467 241.439 6.50675 241.206 6.46429C240.89 6.4066 240.567 6.05907 240.271 6.52097C240.223 6.44654 240.184 6.35752 240.159 6.25956C240.133 6.1616 240.121 6.05688 240.124 5.95213C240.145 5.83118 240.097 5.89444 240.048 5.96122L240.169 6.13347C240.208 6.05694 240.243 5.97542 240.274 5.88972C240.278 5.87449 240.222 5.81334 240.124 5.95447C239.471 6.13869 238.807 6.23658 238.141 6.24712C237.971 6.25637 237.697 6.37253 237.647 6.25709C237.122 5.07046 236.737 5.76184 236.244 6.30283C236.077 6.48495 235.5 6.81043 235.387 5.77449C235.356 5.49386 235.071 5.53747 234.923 5.91078C234.658 6.58169 234.585 6.57617 234.277 6.04026C233.746 5.11407 233.464 4.99801 233.245 5.82404C232.96 6.89596 232.56 6.67693 232.11 6.32788C232.07 6.27931 232.023 6.24448 231.973 6.22562C231.924 6.20675 231.872 6.2043 231.822 6.21846C231.772 6.23262 231.725 6.26307 231.683 6.30776C231.642 6.35245 231.607 6.41037 231.582 6.4777C231.401 6.83713 231.238 7.20434 230.948 6.59993C230.658 5.99553 230.186 6.18207 229.898 6.36488C229.75 6.47024 229.589 6.52303 229.425 6.51938C229.261 6.51573 229.1 6.45575 228.951 6.3438C228.389 5.92714 227.822 6.03988 227.249 6.06599C226.568 6.09718 225.884 6.10338 225.207 6.18924C224.505 6.17707 223.808 6.31997 223.136 6.61355C222.609 6.91532 221.921 6.33465 221.288 6.39341C220.655 6.45217 220.011 6.51928 219.373 6.49021C218.925 6.46953 218.494 6.67736 218.011 6.40118C217.693 6.21836 217.258 6.94044 216.846 6.28609C216.787 6.19352 216.438 6.64719 216.221 6.65914C215.922 6.67505 215.499 6.27827 215.342 6.47011C215.063 6.80997 214.79 6.69144 214.518 6.78368C214.375 6.83271 214.224 6.81266 214.086 6.72618C213.948 6.6397 213.83 6.49091 213.747 6.29963C213.634 6.08763 213.752 5.58446 213.412 5.65828C213.17 5.71147 212.817 5.65223 212.712 5.87155C212.367 6.58889 211.75 6.18962 211.359 6.76816C211.187 7.02259 210.752 6.89045 210.437 6.86825C210.202 6.85146 209.969 6.70298 209.733 6.65884C209.248 6.57137 208.849 7.23156 208.265 6.79906C207.854 6.49522 207.26 6.75527 206.753 6.83304C206.397 6.88738 206.022 6.68937 205.683 7.18242C205.559 7.28894 205.419 7.34661 205.276 7.35041C205.133 7.3542 204.991 7.304 204.862 7.20419C204.693 7.01242 204.49 6.91121 204.282 6.91644C204.075 6.92167 203.876 7.03305 203.716 7.2331C203.673 7.27938 203.57 7.3001 203.543 7.25813C202.842 6.1659 201.846 7.11415 201.103 6.34536C200.809 6.0415 200.711 6.69155 200.376 6.60921C199.452 6.38036 198.523 5.97229 197.577 6.15964C197.058 6.26209 196.553 6.5599 196.034 6.6053C195.55 6.66951 195.074 6.83241 194.619 7.08975C194.283 7.25898 193.989 7.7843 193.533 7.21118C193.349 6.98198 192.884 7.20562 192.568 7.33544C192.438 7.38873 192.393 7.65225 192.197 7.39708C191.709 6.76174 191.115 6.95308 190.542 6.92619C189.551 6.88036 188.547 7.40135 187.569 6.71008C187.355 6.90131 187.104 6.9783 186.856 6.92941C186.608 6.88051 186.375 6.70839 186.193 6.43908C186.168 6.40174 185.946 6.80099 185.823 6.78716C185.256 6.72463 184.655 7.20843 184.127 6.50809C183.667 7.14681 183.027 6.79635 182.513 7.17064C182.287 7.38516 182.022 7.48464 181.755 7.45528C181.487 7.42592 181.231 7.26918 181.022 7.00678C180.472 6.3488 179.824 6.75901 179.225 6.91316C178.959 7.0216 178.701 7.17155 178.456 7.36071C177.644 7.85165 177.649 7.8428 176.854 6.74549C176.731 6.62624 176.584 6.58374 176.443 6.62681C175.845 8.57499 174.788 7.49109 173.929 7.38028C173.7 7.35054 173.401 7.16677 173.119 7.10897C173.05 7.08847 172.984 7.04626 172.925 6.98494C172.866 6.92362 172.816 6.84449 172.777 6.7525C172.689 6.50681 172.861 6.00838 172.544 5.99266C172.259 5.93822 171.972 6.03059 171.729 6.25538C171.473 6.67315 171.121 6.92011 170.746 6.94512C170.37 6.97013 170.001 6.77129 169.713 6.38975C169.585 6.23846 169.426 6.16177 169.267 6.17342C168.917 6.26956 168.582 6.47834 168.234 6.6018C167.924 6.70996 167.593 5.7599 167.273 6.61067C167.248 6.67932 167.01 6.66491 166.945 6.56899C166.715 6.23299 166.561 6.23258 166.312 6.56835C165.832 7.21854 165.348 7.22828 164.649 7.24236C164.093 7.25357 163.458 6.88732 162.96 7.64267C162.908 7.69498 162.848 7.72749 162.785 7.73764C162.722 7.7478 162.659 7.73529 162.599 7.70115C161.573 7.01261 160.529 7.5944 159.496 7.48593C159.097 7.44391 158.722 7.60111 158.284 7.23843C157.992 6.99511 157.412 7.35559 157.036 7.66072C156.594 8.019 156.305 6.7857 155.901 7.49316C154.991 7.58428 154.056 7.92281 153.179 7.69011C152.497 7.45081 151.791 7.46645 151.119 7.73569C150.848 7.8681 150.777 7.5813 150.65 7.61471C149.354 7.95586 148.063 7.08452 146.785 7.44334C146.141 7.65514 145.476 7.69785 144.819 7.56973C144.41 7.4778 143.886 7.27642 143.513 7.93669C143.468 8.01562 143.232 7.79853 143.083 7.78115C142.854 7.75492 142.57 7.65465 142.403 7.81466C142.28 7.97758 142.124 8.0685 141.961 8.07178C141.797 8.07507 141.638 7.99053 141.509 7.83268C141.363 7.67606 141.108 7.7825 140.903 7.73655C140.502 7.64971 140.119 7.93754 139.677 7.5569C139.42 7.33556 138.942 7.8483 138.561 7.84957C137.868 7.8513 137.154 8.26165 136.482 7.5974C136.181 7.30067 136.004 8.1241 135.633 7.79793C135.407 7.59984 135.068 7.72315 134.78 7.68585C134.459 7.64515 134.115 7.92634 133.819 7.46124C133.77 7.41174 133.714 7.38162 133.657 7.37363C133.599 7.36564 133.541 7.38001 133.489 7.41547C133.079 8.2005 132.352 7.44305 131.939 8.15885C131.529 7.40431 130.85 8.38226 130.419 7.57399C130.377 7.49623 130.018 7.93145 129.797 7.95046C128.82 8.04779 127.841 8.10187 126.861 8.11269C126.66 8.07809 126.473 7.93786 126.33 7.71578C126.007 7.25644 125.96 7.41636 125.944 7.98385C125.941 8.07766 125.586 8.18904 125.39 8.20405C124.37 8.27993 123.349 8.35581 122.327 8.37116C121.859 8.38059 121.319 7.99493 120.936 8.23846C120.437 8.55714 119.956 8.4329 119.472 8.53467C119.136 8.60432 118.652 8.80914 118.479 8.55467C118.093 7.98773 117.919 8.81285 117.64 8.64902C117.602 8.62766 117.541 8.67955 117.516 8.64861C117.325 8.40382 117.104 7.89994 116.961 7.94823C116.714 8.02774 116.533 8.64571 116.297 8.68482C115.454 8.82526 114.598 8.81048 113.747 8.86721C113.413 8.88967 113.47 8.52342 113.435 8.21667C113.416 8.04586 113.501 7.61149 113.219 7.85767C113.16 7.9196 113.111 8.00168 113.077 8.09762C113.042 8.19357 113.022 8.30088 113.018 8.41142C113.024 8.57433 113.342 8.74728 113.02 8.89817C112.51 9.13672 111.995 8.66844 111.465 8.83574C111.349 8.87245 111.139 8.43475 110.943 8.76652C110.915 8.83094 110.879 8.88593 110.837 8.92837C110.795 8.97081 110.748 8.99983 110.699 9.01372C110.649 9.02761 110.598 9.02612 110.548 9.00932C110.499 8.99251 110.452 8.96073 110.41 8.91583C110.146 8.75036 109.861 8.68441 109.579 8.72352C109.364 8.74124 109.055 9.1417 108.966 9.02993C108.652 8.63332 108.451 8.68629 108.243 9.14875C108.158 9.01125 108.052 8.90769 107.936 8.84727C107.819 8.78685 107.695 8.7714 107.575 8.80232C107.332 8.86179 107.082 8.82558 106.848 8.69702C106.267 8.25862 105.694 8.59044 105.121 8.5979C104.638 8.61221 104.155 8.54382 103.679 8.39402C103.609 8.35877 103.508 8.5192 103.416 8.53503C103.047 8.60068 102.609 8.85697 102.324 8.63795C101.928 8.3344 101.669 8.16903 101.332 8.68475C101.271 8.77797 101.05 8.61472 100.903 8.58393C100.755 8.55313 100.492 8.47922 100.481 8.53069C100.182 9.94354 99.6145 9.08562 99.1279 8.8957C98.898 8.80542 98.6552 8.40094 98.4461 8.93271C97.8792 8.78051 97.3141 9.27697 96.7167 8.7498C96.4959 8.55453 96.0616 8.9726 95.7198 9.07614C95.599 9.08182 95.478 9.05835 95.3612 9.00653C95.4328 8.81584 95.5067 8.62742 95.576 8.43445C95.6345 8.26964 95.9088 8.10807 95.6119 7.91782C95.4174 7.79716 95.2087 7.74429 95.0009 7.76302C94.9136 7.7706 94.8289 8.02444 94.7601 8.18362C94.6823 8.36396 94.6467 8.69485 94.5517 8.73287C94.1566 8.9708 93.7323 9.07849 93.3056 9.04912C92.8846 8.92834 92.6044 9.48889 92.2031 9.29958C91.9388 9.17505 91.6613 9.40308 91.3659 9.05732C91.1766 8.83579 90.8012 8.97437 90.5107 8.98837C89.2335 9.05137 87.9572 9.13709 86.6799 9.19194C86.4251 9.2029 86.0372 9.46925 86.0537 8.64207C86.0533 8.62111 85.6757 8.48836 85.6493 8.56168C85.3432 9.40926 84.8215 9.30973 84.3163 9.33564C82.699 9.41714 81.0823 9.5324 79.4641 9.59121C79.0681 9.60501 78.6525 9.86958 78.2603 9.308C78.1458 9.21905 78.0189 9.17677 77.8918 9.18524C77.7647 9.19372 77.6418 9.25269 77.535 9.35642C77.0708 10.0546 76.7278 9.78028 76.3666 9.18605L75.0458 9.32913C74.3543 9.75067 74.292 9.72513 73.5521 9.3534C73.2854 9.21961 72.8669 9.03646 72.7302 9.23079C72.3431 9.78536 72.1083 9.62356 71.7923 9.12217C71.5976 8.81573 71.4328 8.45919 71.0587 8.4609C70.6311 8.46253 70.8091 9.17516 70.6564 9.19396C70.2509 9.24522 69.8201 10.0813 69.4063 9.13997C69.362 9.04012 69.0895 9.04736 68.9894 9.15302C67.9042 10.2999 66.7574 9.66381 65.6186 9.39154C65.2578 9.25265 64.885 9.21463 64.5178 9.27923C62.8644 9.8535 62.863 9.91407 61.2197 9.14012C60.866 8.97256 60.4526 9.39958 60.1572 8.81217C60.1265 8.809 60.0958 8.81572 60.0671 8.83194C60.0384 8.84816 60.0123 8.87352 59.9905 8.90637C59.7829 9.47713 59.3158 9.37474 59.0703 9.69354C58.6992 10.1756 58.4931 9.27134 58.2099 9.60895C58.1869 9.06497 57.8706 9.14413 57.747 9.26192C57.1417 9.84068 56.4626 9.62206 55.8155 9.7533C54.8348 9.95299 53.8169 9.51873 52.8567 10.2648C52.4375 10.5906 51.949 9.70542 51.4265 9.9774C51.1499 10.0535 50.863 9.96033 50.6263 9.71751C50.4734 9.61287 50.2059 10.0206 49.9796 10.0543C49.4298 10.1353 48.874 10.1348 48.3224 10.1634C48.1945 10.1601 48.0668 10.1685 47.9398 10.1886C47.6215 10.266 47.5897 9.08054 47.0642 9.78289C46.8391 10.0844 46.3258 9.91422 45.9438 9.89396C45.2457 9.94749 44.5445 9.88552 43.8523 9.70904C43.1518 9.4837 42.4278 9.57346 41.7667 9.96765C41.3615 10.1982 40.7889 9.76318 40.2934 9.61478C40.2175 9.59243 40.1138 9.421 40.0876 9.45064C39.2067 10.4641 38.2635 9.49264 37.3567 9.59186C37.2714 9.58369 37.1861 9.59031 37.1021 9.61156C36.843 9.7379 36.5799 10.0297 36.3336 9.98689C36.0797 9.94426 35.8573 9.49979 35.5957 9.39675C35.3631 9.35039 35.1278 9.40328 34.9155 9.54964C34.349 9.86271 33.7402 9.96336 33.1387 9.84339C32.6302 9.79541 32.1161 9.94145 31.6069 9.89988C31.0402 9.85307 30.4433 10.3053 29.9025 9.63025C29.8538 9.56951 29.6521 9.68482 29.5832 9.80383C29.3477 10.2086 29.1593 10.0645 28.9555 9.74017C28.7888 9.47509 28.638 9.12237 28.3957 9.6583C28.3253 9.7279 28.2445 9.76895 28.1605 9.77776C28.0765 9.78657 27.992 9.76286 27.9148 9.70876C27.1209 8.95671 26.4204 9.38015 25.7494 10.0278C25.5518 10.2181 25.5163 10.2509 25.4556 9.87826C25.3391 9.1673 24.9871 9.08763 24.5778 9.11626C23.3019 9.20544 22.0248 9.29231 20.747 9.32271C20.3082 9.33155 19.8261 9.68308 19.4244 9.04425C19.388 9.01195 19.3469 8.99448 19.3051 8.99348C19.2634 8.99249 19.2224 9.00801 19.186 9.03857C18.6446 10.0766 18.0101 9.26314 17.4856 9.05826C17.103 8.84351 16.6959 8.76162 16.2936 8.8185C15.6939 9.00527 15.1441 8.66698 14.6009 8.45491C14.1957 8.29712 13.966 9.10065 13.5035 8.62434C13.2428 8.35591 12.7616 8.60202 12.38 8.62135C11.8691 8.64737 11.3573 8.6612 10.8476 8.71048C10.4825 8.80852 10.1044 8.68496 9.79191 8.36547C9.47796 8.04632 9.09798 7.92633 8.73263 8.03102C8.47781 8.05538 8.22033 8.04137 7.96691 8.07908C6.93937 8.3062 5.88884 8.20651 4.87955 7.7861C4.46397 7.58077 4.24847 8.02183 3.92796 7.91183C3.61462 7.80168 3.34522 7.17764 2.95775 7.91798C2.78889 8.24047 1.84876 7.15655 1.81367 6.44453C1.79745 6.00428 1.72421 5.57193 1.59828 5.17309C1.47235 4.77424 1.29628 4.41701 1.08052 4.12257C0.868469 3.81765 1.001 3.75092 1.19812 3.70793C1.47478 3.64413 1.75661 3.78113 2.01696 3.39506C2.3086 2.98559 2.64716 2.66304 3.01601 2.44326C3.34148 2.23814 3.73886 2.55098 4.06774 2.02844C4.28698 1.67931 4.49909 2.23054 4.67994 2.46564C4.99433 2.87098 5.19815 2.93559 5.23953 2.16322C5.24461 2.05947 5.48189 1.87592 5.50095 1.90465C5.8899 2.49192 6.20794 1.73086 6.57755 1.80726C6.94716 1.88366 7.35628 1.6751 7.72113 1.79585C8.10383 1.92323 8.42152 2.19285 8.80407 1.73211C8.99442 1.50293 9.29381 1.70653 9.4598 2.08342C9.54252 2.28098 9.67122 2.42247 9.81868 2.47797C9.96613 2.53347 10.1208 2.49861 10.2498 2.38077C10.9143 1.55858 11.615 2.22981 12.2151 2.4023C12.7063 2.5438 13.276 2.8357 13.6412 2.54476C14.042 2.22516 14.3052 2.54013 14.6016 2.59704C15.1434 2.70258 15.6446 3.24449 16.2028 2.51877C16.349 2.38409 16.5223 2.33457 16.692 2.37901C16.8617 2.42345 17.0168 2.55899 17.1298 2.76154C17.2517 2.97512 17.5775 3.23115 17.6385 3.15247C17.8567 2.82598 18.0461 2.45657 18.202 2.05341C18.2482 1.94999 18.5893 1.17217 18.5996 1.19991C18.6728 1.38818 18.7319 1.58843 18.7757 1.79671C18.8856 2.45772 19.1358 2.82244 19.5831 2.67484C20.586 2.34369 21.5594 2.96341 22.5574 2.9532C23.0883 2.94833 23.5649 3.46922 24.1572 2.87907C24.5612 2.47671 25.1994 2.6461 25.726 2.50447C26.0197 2.42519 26.404 3.14007 26.6088 2.29686C26.8265 2.45339 27.0381 2.62997 27.2425 2.82562C27.9791 3.61958 28.7389 4.10039 29.6203 3.46657C29.6868 3.41923 29.8005 3.52117 29.8922 3.55776C31.2311 4.07115 31.2669 4.18455 32.2976 3.43533C32.7317 3.11972 32.6168 3.40734 32.6994 3.74457C32.7241 3.84539 33.0008 3.93299 33.0158 3.89251C33.3176 3.0951 33.6522 3.65726 33.965 3.85651C34.3344 4.09071 34.6258 4.41905 35.0748 3.90807C35.5084 3.41545 35.9763 3.72922 36.2179 4.59954C36.2825 4.83115 36.4321 4.97777 36.5759 4.64297C36.7383 4.26528 36.8858 4.00437 37.2296 4.42601C37.3442 4.50913 37.4703 4.54538 37.5956 4.53122C37.7209 4.51707 37.8411 4.45298 37.9445 4.34521C38.2359 3.83682 38.3339 4.29892 38.5154 4.47228C38.6488 4.59944 38.8864 4.80837 38.9404 4.73624C39.5648 3.90845 40.3209 4.41146 41.0052 4.26957C41.6767 4.13085 42.4357 3.86457 43.0301 4.20371C43.9721 4.7414 44.9323 3.9773 45.8241 4.66623C45.8624 4.69632 45.9584 4.63267 45.996 4.56844C46.6007 3.53201 47.3583 4.51886 48.0265 4.27306C48.1388 4.23179 48.2975 4.51103 48.4419 4.61992C48.6069 4.79196 48.7929 4.90901 48.9877 4.9635C49.2747 4.96354 49.613 4.62483 49.834 4.77469C49.9768 4.90941 50.1453 4.96154 50.3089 4.9216C50.4725 4.88166 50.6203 4.75229 50.7256 4.55698C50.7831 4.47081 51.0082 4.69571 51.1553 4.69798C51.6386 4.7904 52.1269 4.75833 52.6005 4.60308C52.8767 4.53654 53.1494 4.44173 53.4169 4.31933C53.7676 4.02112 54.3712 5.5672 54.5035 3.97313C54.5649 4.00508 54.6524 4.00738 54.6839 4.07313C54.9123 4.55358 55.1065 4.45533 55.4624 4.28337C56.0038 4.12041 56.5584 4.0726 57.1109 4.14126C57.2308 4.11967 57.3526 4.15804 57.4586 4.25072C57.5933 4.42269 57.4555 4.94139 57.7992 4.88788C58.3827 4.85941 58.9636 4.76813 59.5375 4.6147C60.2988 4.2787 61.1044 4.23009 61.8871 4.473C61.9588 4.49717 62.1066 4.4348 62.1141 4.37758C62.1509 4.08919 62.0906 3.585 62.4104 4.10961C62.6339 4.47661 62.7696 4.45639 63.083 4.24977C63.4574 4.02525 63.8658 3.9607 64.2656 4.06288C64.7464 4.08312 65.2176 3.88316 65.62 3.48823C65.8896 3.26269 66.0437 3.14432 66.2497 3.52157C66.3425 3.69838 66.4638 3.83457 66.601 3.91606C66.7383 3.99754 66.8864 4.02136 67.0302 3.98506C67.4063 3.93265 67.8871 3.74593 68.1416 4.02089C68.5838 4.49935 68.7662 3.37126 69.1165 3.8545C69.5414 3.39873 69.9509 4.31519 70.4602 3.83851C70.8352 3.4874 71.3974 3.78175 71.8867 4.05489C72.2227 4.2426 72.654 3.95503 73.0238 4.05937C73.3369 4.20012 73.6696 4.17783 73.9699 3.99603C74.2923 3.77059 74.6237 4.30954 74.8907 4.27214C75.6192 4.17128 76.4013 4.63998 77.0896 3.83827C77.218 3.72183 77.3635 3.65645 77.5134 3.64795C77.6632 3.63944 77.8128 3.68807 77.9489 3.78951C78.601 4.58109 79.1235 3.78623 79.6457 3.55618C79.9855 3.40667 80.1929 2.88134 80.2826 3.83449C80.3724 3.81463 80.4638 3.80404 80.5514 3.77083C81.1382 3.49133 81.7673 3.47644 82.3656 3.72787C82.7532 3.93015 83.1732 3.90235 83.5429 3.64999C84.0297 3.21569 84.2964 3.48342 84.6328 3.95063C84.7259 4.08035 84.9186 4.03862 85.0652 4.07526C85.0604 3.85071 85.0443 3.62677 85.0171 3.40544C84.9986 3.29634 84.8893 3.22458 84.8637 3.1133C84.8505 2.98808 84.8521 2.86063 84.8682 2.73705C84.9604 2.75777 85.0519 2.78666 85.1422 2.82354C85.7833 3.1402 86.366 3.66823 87.1164 3.28918C87.6975 3.08665 88.2991 3.04418 88.8935 3.16371C89.2488 3.22219 89.597 3.36505 89.9259 3.58719C90.5858 3.97393 90.9158 4.05228 91.4343 3.78504C91.6582 3.67047 91.9578 3.28364 92.0675 3.39381C92.8212 4.15656 93.7307 3.19548 94.4485 4.02476C94.6701 4.28058 94.7682 4.29843 95.024 4.02251C95.3977 3.64422 95.8413 3.45926 96.2917 3.49386C96.9438 3.51391 97.6091 3.58901 98.2208 3.02875C98.9184 2.38931 99.705 2.83522 100.395 3.07579C100.799 3.1764 101.207 3.21903 101.615 3.20316C101.925 3.22546 102.26 3.7509 102.553 3.16679C103.371 3.30635 104.168 2.87513 105.031 3.35271C105.629 3.68477 106.377 3.35001 107.058 3.3066C107.137 3.30208 107.266 3.29891 107.287 3.23036C107.8 1.58205 108.644 3.16984 109.28 2.78959C109.705 3.538 110.085 3.01795 110.474 2.72247C110.737 2.52268 110.973 1.93853 111.301 2.61726C111.335 2.6529 111.375 2.67496 111.416 2.68145C111.456 2.68795 111.497 2.67869 111.535 2.65449C112.199 2.08386 112.744 2.4857 113.428 2.84925C114.12 3.21902 114.991 2.77001 115.782 2.651C115.976 2.62206 116.218 2.31673 116.341 2.41965C116.993 2.96551 117.568 2.25574 118.182 2.27888C118.637 2.29591 119.082 2.319 119.415 1.59956C119.556 1.29334 120.027 0.969401 120.134 1.89832C120.14 1.95642 120.168 2.04905 120.191 2.05324C120.827 2.18075 121.464 2.29893 122.1 2.41829C122.315 1.70822 122.689 2.84896 123.016 2.22516C123.185 1.90265 123.713 2.01079 124.082 1.96435C124.462 1.88973 124.846 1.87225 125.23 1.91211C125.662 2.02056 126.089 2.17044 126.51 2.36088C126.66 2.41609 126.903 2.615 126.94 2.54439C127.509 1.43938 128.282 2.34615 128.929 2.0839C129.257 1.95152 129.372 2.22169 129.413 2.68493C129.419 2.75178 129.632 2.76966 129.744 2.82854C130.075 3.00355 129.62 1.62626 130.18 2.30206C130.56 2.76025 130.631 1.90866 130.932 1.95383C131.511 2.04 132.094 2.04342 132.675 2.05559C132.793 2.05785 132.913 1.89471 133.03 1.90225C133.264 1.91792 133.589 1.87003 133.712 2.07775C134.035 2.63025 134.218 2.53804 134.465 2.00842C134.533 1.86031 134.81 1.74237 134.872 1.82553C134.937 1.93533 135.016 2.02197 135.104 2.07911C135.192 2.13624 135.287 2.16243 135.382 2.15571C135.476 2.149 135.569 2.10956 135.651 2.04031C135.734 1.97107 135.806 1.87377 135.86 1.75555C135.964 1.60614 136.418 1.71693 136.423 1.7704C136.517 2.69143 137.018 2.20682 137.274 2.44506C137.457 2.62315 137.674 2.70271 137.888 2.6712C138.102 2.63968 138.301 2.49888 138.456 2.27101C138.743 1.93216 138.919 1.77544 139.177 2.24247C139.414 1.80738 139.749 1.87401 140.066 1.85422C140.362 1.80446 140.66 1.79534 140.958 1.82694C141.098 1.85731 141.211 2.15843 141.351 2.30059C141.438 2.35755 141.53 2.39172 141.623 2.40166C141.561 1.69834 141.878 1.68612 142.174 1.75002C142.446 1.83154 142.715 1.94491 142.977 2.08907C143.167 2.17607 143.265 2.33947 143.559 2.15303C144.287 1.69117 145.095 2.10343 145.866 2.3214C146.094 3.45925 146.446 2.73246 146.761 2.48212C146.936 2.3441 147.1 2.17602 147.274 2.03858C147.675 1.80184 148.107 1.70949 148.537 1.76854C148.92 1.78471 149.466 1.96822 149.652 1.66168C150.014 1.06511 150.217 1.81215 150.502 1.70276C150.702 1.6242 150.96 1.941 151.186 1.93819C151.589 1.96887 151.991 1.89484 152.376 1.71917C152.767 1.49643 153.058 1.01306 153.479 1.75106C153.612 1.98421 154.042 1.90568 154.32 1.8337C154.884 1.69826 155.455 1.65375 156.027 1.7009C157.209 1.72817 158.389 1.93474 159.55 2.31762C160.01 2.50404 160.494 2.47174 160.937 2.22502C161.258 1.96727 161.614 1.82449 161.979 1.80707C162.344 1.78965 162.708 1.89805 163.044 2.12434C163.184 2.21535 163.334 2.25735 163.484 2.24727C163.634 2.2372 163.779 2.1753 163.911 2.06612C164.309 1.5282 164.635 1.88731 164.997 2.04423C165.562 2.17622 166.138 2.08632 166.67 1.78286C166.824 1.63831 166.999 1.55159 167.18 1.52955C167.361 1.50751 167.544 1.55075 167.714 1.65582C167.985 1.79526 168.269 1.85241 168.552 1.8241C168.945 1.75213 169.342 1.34759 169.707 1.43399C170.137 1.61633 170.58 1.71096 171.025 1.71546C171.449 1.65712 171.875 1.63222 172.301 1.64084C172.623 1.64018 172.939 1.48416 173.254 1.93085C173.388 2.12204 173.757 2.02028 173.993 1.91594C174.32 1.77311 174.369 0.587736 174.971 1.38556C175.245 1.74689 175.704 1.1763 176.031 1.7392C176.114 1.88194 176.416 1.74541 176.613 1.69719C176.706 1.67376 176.812 1.46027 176.873 1.49922C177.169 1.67609 177.462 2.09701 177.736 2.0682C178.025 2.03735 178.277 1.58624 178.642 1.66448C178.871 1.72335 179.105 1.68372 179.318 1.54996C179.531 1.4162 179.715 1.19351 179.849 0.906454C179.9 0.801594 179.965 0.715334 180.04 0.653619C180.115 0.591904 180.198 0.556175 180.283 0.548924C180.368 0.541672 180.454 0.563065 180.534 0.611606C180.614 0.660147 180.687 0.734686 180.747 0.830118C180.987 1.17534 181.287 1.40289 181.609 1.48304C181.931 1.56318 182.259 1.49223 182.551 1.27943C182.635 1.22402 182.729 1.21472 182.818 1.25308C183.287 1.40518 183.772 1.34235 184.213 1.0724C184.981 0.686442 185.806 0.629572 186.601 0.9078C187.374 1.15659 188.166 1.21066 188.946 1.06786C189.975 0.977842 191.049 1.33585 192.024 0.540011C192.122 0.46001 192.333 0.444677 192.39 0.540786C192.938 1.48178 193.589 0.19809 194.143 0.805915C194.616 -0.0362992 195.052 0.65893 195.383 1.04648C195.553 1.27668 195.764 1.42284 195.987 1.46566C196.21 1.50848 196.435 1.4459 196.632 1.28622C197.106 0.979065 197.601 0.752223 198.108 0.609578C198.406 0.529625 198.761 1.41162 199.043 0.532497C199.401 0.569476 199.755 0.690997 200.091 0.892789C200.933 1.64329 201.72 0.988048 202.396 0.57439C202.926 0.251025 203.12 0.498702 203.256 0.992643C203.396 1.49642 203.476 1.60253 203.773 1.3188C203.936 1.16354 204.209 0.950154 204.321 1.05446C204.965 1.65638 205.631 1.26447 206.283 1.30142C206.652 1.33808 207.019 1.20504 207.335 0.919159C207.566 0.713036 208.098 1.3318 208.353 1.14324C208.851 0.863995 209.377 0.715634 209.909 0.704269C210.698 0.546878 210.722 0.475331 211.118 1.11137C211.476 1.68645 211.754 1.91786 212.256 1.41222C212.61 1.05571 213.179 1.62653 213.568 1.04047C213.596 1.02039 213.626 1.01113 213.656 1.01346C213.687 1.01579 213.717 1.02964 213.743 1.05382C214.721 2.16783 215.735 1.74506 216.654 1.0767C217.14 0.722772 217.486 1.05991 217.821 1.24474C218.212 1.4593 218.605 1.58999 218.857 1.21807C219.46 0.326077 220.126 0.687054 220.753 0.939364C221.073 1.06801 221.315 1.52954 221.582 0.869684C221.604 0.811 221.806 0.916406 221.919 0.97061C222.572 1.28353 223.209 1.48906 223.734 0.557886C223.775 0.484852 223.908 0.519997 223.997 0.530436C224.323 0.568117 224.651 0.589461 224.974 0.669722C225.287 0.747839 225.67 1.12561 225.891 0.961626C226.59 0.440934 227.161 0.828285 227.779 1.27001C227.922 1.37194 228.161 1.15635 228.353 1.07329C228.416 1.04639 228.476 0.923488 228.529 0.937573C228.763 0.998659 228.766 1.78294 229.189 1.38079C229.456 1.22071 229.742 1.15025 230.03 1.17401C230.327 1.13427 230.626 1.13579 230.924 1.11872C231.222 1.10165 231.52 1.06715 231.818 1.07395C231.962 1.11679 232.111 1.09803 232.247 1.01974C232.383 0.941442 232.503 0.806578 232.592 0.629768C233.076 1.15688 233.634 0.841693 234.146 0.998503C235.263 1.34225 235.239 1.12437 236.392 0.921223C237.632 0.702332 238.945 0.108693 240.185 1.24131C240.29 1.33703 240.474 1.25995 240.614 1.21578C240.847 1.14179 241.078 1.03934 241.305 0.92995C241.775 0.702108 242.182 1.23371 242.617 1.2261C242.971 1.21897 243.3 0.534551 243.69 1.18469C243.728 1.21472 243.771 1.22923 243.813 1.22684C243.856 1.22445 243.897 1.20524 243.934 1.17104C244.321 0.604819 244.725 1.05317 245.133 1.07932C245.536 1.10747 245.936 1.21826 246.323 1.40878C246.492 1.53199 246.675 1.59672 246.861 1.59832C247.046 1.59992 247.229 1.53836 247.396 1.41805C247.528 1.32492 247.673 1.27918 247.82 1.28418C247.967 1.28918 248.112 1.34479 248.244 1.44694C248.315 1.54003 248.398 1.61063 248.486 1.65459C248.575 1.69856 248.668 1.71502 248.76 1.70303C248.852 1.69104 248.941 1.65084 249.022 1.58476C249.104 1.51867 249.175 1.42802 249.233 1.31812C249.334 1.17575 249.635 1.28267 249.819 1.38727C250.079 1.53459 250.307 1.82407 250.565 1.98189C250.76 2.06658 250.959 2.11801 251.16 2.13527C250.99 2.25557 250.832 2.41135 250.691 2.59834C250.63 2.70029 250.693 2.9756 250.755 3.31032C250.671 3.28408 250.623 3.18375 250.581 3.18866C250.471 3.2118 250.361 3.24865 250.255 3.29888C250.272 3.3847 250.293 3.54558 250.307 3.54472C250.47 3.53801 250.626 3.45438 250.756 3.30509ZM69.0195 6.47388C69.2593 6.53338 69.5012 6.56549 69.7433 6.56994C69.7889 6.56611 69.8783 6.23354 69.8496 6.10193C69.731 5.54998 69.4307 5.89609 69.2138 5.85853C69.1755 5.84941 69.1186 6.14988 69.0195 6.47388ZM149.094 6.49079C148.971 6.47824 148.848 6.48754 148.727 6.51856C148.639 6.58564 148.556 6.66757 148.48 6.76286C148.566 6.90136 148.659 7.02973 148.757 7.14684C148.946 7.34101 149.203 6.64173 149.369 7.26377C149.417 7.17226 149.454 7.06803 149.478 6.95588C149.489 6.84619 149.469 6.64513 149.428 6.62032C149.32 6.56045 149.208 6.5178 149.094 6.4931L149.094 6.49079ZM67.9045 6.23662C67.9335 6.23138 67.9841 6.23912 67.9883 6.2204C68.0892 5.7799 68.1866 5.33771 68.2772 4.89159C68.2823 4.86703 68.2112 4.76367 68.1914 4.7728C68.1301 4.80897 68.0726 4.85833 68.0205 4.91947C67.9201 5.0259 67.8452 5.18018 67.8071 5.35932C67.7689 5.53846 67.7694 5.73288 67.8086 5.91365C67.8321 6.02743 67.8643 6.13667 67.9046 6.23897L67.9045 6.23662ZM247.157 3.13305C247.186 3.1942 247.247 3.35365 247.258 3.34585C247.39 3.27923 247.511 3.16915 247.612 3.02314C247.643 2.96427 247.53 2.71909 247.482 2.55992L247.157 3.13305ZM53.7602 8.29356C53.6697 8.38914 53.5688 8.45232 53.5724 8.49883C53.5944 8.67373 53.6269 8.84538 53.6694 9.0116C53.7238 8.95868 53.8238 8.90777 53.8239 8.85304C53.8145 8.66496 53.7934 8.47836 53.761 8.29586L53.7602 8.29356ZM249.137 3.41459C249.24 3.51033 249.314 3.6346 249.373 3.62119C249.482 3.57574 249.587 3.50783 249.684 3.41926C249.617 3.35772 249.548 3.23919 249.484 3.24861C249.365 3.28313 249.248 3.33961 249.137 3.41689L249.137 3.41459ZM122.589 7.34747C122.693 7.44378 122.766 7.56805 122.825 7.55464C122.935 7.50892 123.039 7.44103 123.137 7.35271C123.07 7.29117 123 7.17263 122.937 7.18206C122.817 7.2166 122.701 7.27289 122.59 7.34976L122.589 7.34747ZM135.12 5.77373C135.183 5.91511 135.226 6.07206 135.256 6.06738C135.369 6.03653 135.48 5.98944 135.587 5.92678C135.552 5.84188 135.517 5.68655 135.481 5.68552C135.359 5.69772 135.238 5.72805 135.121 5.77606L135.12 5.77373ZM85.4478 4.87112L85.2879 4.53369C85.2393 4.69153 85.2046 4.85907 85.1848 5.03187C85.1818 5.12335 85.2683 5.22526 85.3144 5.32041C85.3629 5.16628 85.4095 5.00813 85.4486 4.87341L85.4478 4.87112ZM63.8515 7.37402L63.7654 7.51955C63.8211 7.56764 63.8801 7.60555 63.9412 7.63247C63.9624 7.63903 63.9942 7.54989 64.0208 7.50452L63.8515 7.37402ZM67.1416 8.91133C67.1715 8.95382 67.2094 9.03867 67.2299 9.03011C67.289 8.99631 67.3451 8.95157 67.397 8.89688C67.3671 8.85497 67.3295 8.77013 67.3086 8.77871C67.2499 8.81327 67.1942 8.85858 67.1428 8.91366L67.1416 8.91133ZM214.14 5.35597L214.044 5.22047C214.014 5.30554 213.991 5.39592 213.974 5.48975C213.971 5.52242 214.029 5.57247 214.059 5.61496L214.14 5.35597ZM145.381 3.14055C145.355 3.18593 145.3 3.24235 145.306 3.27484C145.329 3.3666 145.359 3.45395 145.395 3.53505C145.422 3.48967 145.477 3.43328 145.471 3.40079C145.448 3.31 145.419 3.22343 145.383 3.14286L145.381 3.14055ZM143.359 4.89268L143.273 5.03764C143.329 5.0859 143.388 5.12381 143.449 5.15056C143.47 5.15654 143.501 5.06799 143.528 5.02261L143.359 4.89268ZM142.309 4.16034L142.223 4.3059C142.279 4.35406 142.338 4.39194 142.399 4.41879C142.42 4.42476 142.452 4.33621 142.479 4.29084L142.309 4.16034ZM132.545 5.63814C132.575 5.68062 132.612 5.76545 132.633 5.75687C132.692 5.72291 132.748 5.67841 132.8 5.62425C132.771 5.58176 132.733 5.49692 132.712 5.50491C132.654 5.54026 132.598 5.58613 132.547 5.64158L132.545 5.63814ZM131.754 6.02089L131.658 5.88543C131.628 5.97043 131.604 6.06082 131.588 6.1547C131.584 6.18738 131.642 6.23801 131.672 6.27992L131.754 6.02089ZM125.662 6.41967C125.692 6.46158 125.73 6.5464 125.75 6.53842C125.81 6.50438 125.866 6.45965 125.918 6.40518C125.888 6.3627 125.85 6.27788 125.829 6.28644C125.771 6.32143 125.716 6.36732 125.664 6.42312L125.662 6.41967ZM125.204 6.89474L125.3 7.02963C125.33 6.94471 125.354 6.8543 125.37 6.76036C125.373 6.72769 125.315 6.67764 125.285 6.63515L125.204 6.89474ZM122.542 5.01051C122.572 5.05242 122.609 5.13726 122.63 5.12869C122.689 5.09485 122.745 5.05034 122.797 4.99605C122.767 4.95357 122.729 4.86872 122.709 4.87728C122.65 4.9132 122.595 4.96008 122.544 5.01687L122.542 5.01051ZM117.339 3.66368L117.243 3.52821C117.213 3.61322 117.189 3.70358 117.173 3.79745C117.169 3.83013 117.227 3.8808 117.257 3.9227L117.339 3.66368ZM81.24 4.82021L81.0805 4.9696C81.1104 5.01151 81.1483 5.09691 81.1689 5.08834C81.2279 5.0543 81.2839 5.00961 81.3359 4.95514L81.24 4.82021ZM251.204 2.94145C251.307 3.01941 251.416 3.07595 251.528 3.10959C251.588 3.11654 251.652 2.98423 251.713 2.91487L251.418 2.70246L251.204 2.94145ZM58.2104 9.61246C58.1432 9.64106 58.0792 9.68491 58.0207 9.74263C58.0056 9.76215 58.0528 9.89686 58.0714 9.97859L58.2184 9.78815C58.2146 9.72942 58.2123 9.67123 58.2104 9.61246Z" fill="#26AC47"/>
</svg>
