<svg width="54" height="54" viewBox="0 0 54 54" fill="none" xmlns="http://www.w3.org/2000/svg">
<path fill-rule="evenodd" clip-rule="evenodd" d="M27.0014 0C32.3415 0.000290081 37.5617 1.5841 42.0016 4.55114C46.4416 7.51818 49.902 11.7352 51.9453 16.6689C53.9886 21.6026 54.523 27.0314 53.4809 32.2689C52.4388 37.5063 49.867 42.3171 46.0908 46.0929C42.3146 49.8687 37.5035 52.44 32.266 53.4815C27.0284 54.523 21.5997 53.988 16.6662 51.9442C11.7327 49.9003 7.51608 46.4395 4.54953 41.9992C1.58297 37.5589 -0.000290025 32.3386 3.98494e-08 26.9985C0.00524516 19.8392 2.85183 12.9746 7.91453 7.91244C12.9772 2.85029 19.8421 0.00446733 27.0014 0Z" fill="#B8B9BB"/>
<path fill-rule="evenodd" clip-rule="evenodd" d="M22.3274 12.041L18.0932 27.8806L14.7383 29.2006L13.5291 33.7105L16.9382 32.5555L14.6833 41.9046L39.1027 41.9589L40.5869 35.9647H25.7366L27.6615 28.7599L31.6764 27.0542L32.8307 22.6543L28.9265 23.9743L32.0064 12.2053L22.3274 12.041Z" fill="white"/>
</svg>
