<?xml version="1.0" standalone="no"?>
<!DOCTYPE svg PUBLIC "-//W3C//DTD SVG 20010904//EN"
 "http://www.w3.org/TR/2001/REC-SVG-20010904/DTD/svg10.dtd">
<svg version="1.0" xmlns="http://www.w3.org/2000/svg"
 width="512.000000pt" height="512.000000pt" viewBox="0 0 512.000000 512.000000"
 preserveAspectRatio="xMidYMid meet">

<g transform="translate(0.000000,512.000000) scale(0.100000,-0.100000)"
fill="#2a2b3f" stroke="none">
<path d="M3991 5106 c-53 -29 -50 47 -51 -1512 l0 -1451 -42 -7 c-24 -3 -53
-8 -65 -12 -19 -5 -26 3 -54 58 -39 77 -98 166 -156 235 l-43 51 0 821 c0 614
-3 827 -12 846 -24 53 -38 55 -408 55 -370 0 -384 -2 -408 -55 -9 -19 -12
-180 -12 -619 l0 -592 -72 9 c-40 4 -121 7 -180 5 l-108 -3 0 853 c0 926 2
894 -55 920 -18 9 -124 12 -366 12 -369 0 -383 -2 -407 -55 -9 -20 -12 -281
-12 -1067 l0 -1041 -64 -71 c-98 -110 -173 -220 -237 -351 l-59 -119 0 756 c0
566 -3 764 -12 783 -24 53 -38 55 -407 55 -242 0 -348 -3 -366 -12 -57 -26
-55 12 -55 -980 l0 -913 -65 -68 c-121 -126 -206 -279 -247 -443 -31 -126 -31
-332 0 -458 42 -169 132 -328 256 -452 122 -121 279 -211 447 -256 82 -21 101
-22 718 -25 475 -3 642 -1 663 8 31 13 58 54 58 89 0 34 -27 76 -57 88 -19 8
-221 12 -658 14 l-630 3 -91 32 c-244 85 -414 254 -495 493 -31 88 -33 105
-33 230 -1 155 16 228 85 360 97 187 280 332 489 387 92 25 271 24 373 -1 72
-18 80 -18 111 -3 36 17 40 25 90 187 130 419 500 743 951 831 103 20 349 18
453 -5 387 -83 696 -324 868 -676 80 -163 91 -169 222 -124 232 80 479 1 608
-193 75 -113 108 -257 85 -376 -16 -88 -1 -115 91 -163 216 -113 327 -351 273
-583 -44 -187 -199 -342 -386 -386 -54 -12 -181 -15 -817 -15 -817 0 -794 2
-820 -55 -24 -53 -3 -114 46 -134 21 -9 228 -11 818 -9 l789 3 80 27 c116 40
199 92 290 183 91 91 144 175 182 290 23 71 26 96 26 215 1 118 -3 145 -25
212 -49 147 -153 292 -265 369 l-43 30 0 1854 c0 1416 -3 1860 -12 1880 -24
53 -38 55 -410 55 -265 -1 -348 -4 -367 -14z m589 -1698 l0 -1512 -47 46 c-97
94 -241 172 -355 192 l-38 7 0 1389 0 1390 220 0 220 0 0 -1512z m-2400 302
c0 -640 -3 -811 -12 -814 -165 -50 -272 -94 -375 -155 l-53 -31 0 905 0 905
220 0 220 0 0 -810z m1200 -385 c0 -366 -2 -665 -4 -665 -3 0 -47 27 -98 60
-75 49 -227 121 -320 153 -17 6 -18 42 -18 562 l0 555 220 0 220 0 0 -665z
m-2400 -654 l0 -738 -86 -7 c-97 -8 -205 -34 -294 -69 l-60 -25 0 789 0 789
220 0 220 0 0 -739z"/>
<path d="M1510 1566 c-217 -58 -292 -320 -131 -457 24 -21 90 -54 174 -87 74
-30 148 -62 165 -73 56 -33 55 -101 -1 -141 -26 -19 -45 -23 -102 -23 -77 1
-148 29 -194 79 -32 34 -79 42 -119 22 -39 -20 -52 -44 -52 -92 0 -32 7 -45
50 -85 200 -193 539 -159 641 64 44 99 14 234 -69 309 -49 44 -78 59 -241 124
-135 53 -154 71 -133 120 33 70 165 70 269 0 62 -43 138 -27 163 33 25 62 -9
116 -107 165 -106 53 -218 68 -313 42z"/>
<path d="M2223 1566 c-17 -8 -36 -23 -42 -35 -7 -13 -11 -163 -11 -456 l0
-436 24 -24 c33 -33 66 -37 263 -33 155 3 174 5 199 24 52 38 56 103 9 150
-23 23 -30 24 -160 24 l-135 0 0 99 0 99 126 4 c124 3 126 3 150 31 16 19 24
40 24 67 0 27 -8 48 -24 67 -24 28 -26 28 -150 31 l-126 4 0 99 0 99 135 0
c130 0 137 1 160 24 47 47 43 112 -9 150 -25 19 -43 21 -214 23 -144 2 -194 0
-219 -11z"/>
<path d="M3256 1564 c-223 -54 -377 -250 -377 -481 -1 -142 47 -260 147 -357
261 -257 698 -155 820 193 33 93 33 229 0 322 -86 245 -339 384 -590 323z
m250 -217 c53 -27 111 -84 141 -139 14 -25 18 -55 18 -128 0 -106 -9 -131 -72
-201 -77 -85 -199 -118 -308 -84 -75 24 -154 95 -185 166 -30 71 -30 167 0
238 29 66 114 145 178 166 68 22 165 14 228 -18z"/>
<path d="M2471 186 c-87 -48 -50 -186 49 -186 51 0 100 49 100 99 0 75 -83
124 -149 87z"/>
</g>
</svg>
