<svg id="icons" xmlns="http://www.w3.org/2000/svg" viewBox="0 0 64 64"><defs><style>.cls-1{fill:none;stroke:#c19e62;stroke-linecap:round;stroke-linejoin:round;stroke-width:2px;}</style></defs><title>1</title><g id="justice_1"><path class="cls-1" d="M40.39275,54.07677H23.53549C21.93392,54.07677,18.67131,60,18.67131,60H45.25693S41.99432,54.07677,40.39275,54.07677Z"/><line class="cls-1" x1="29.81889" y1="54.07677" x2="29.81889" y2="48.20165"/><line class="cls-1" x1="29.81889" y1="43.53988" x2="29.81889" y2="21.90967"/><line class="cls-1" x1="34.24119" y1="43.53988" x2="34.24119" y2="21.90967"/><line class="cls-1" x1="34.24119" y1="54.07677" x2="34.24119" y2="48.20165"/><path class="cls-1" d="M35.247,45.87075a3.22694,3.22694,0,1,1-1.0058-2.33088A3.18044,3.18044,0,0,1,35.247,45.87075Z"/><path class="cls-1" d="M21.28455,31.42089H6.034c0,4.46875,3.414,6.47005,7.62528,6.47005S21.28455,35.88964,21.28455,31.42089Z"/><path class="cls-1" d="M43.27811,31.20947H57.966c0,4.46875-3.288,6.47-7.34395,6.47S43.27811,35.67822,43.27811,31.20947Z"/><polyline class="cls-1" points="21.285 31.421 13.659 13.09 6.034 31.421"/><polyline class="cls-1" points="57.966 31.209 50.622 12.879 43.278 31.209"/><path class="cls-1" d="M34.697,9.61841,31.43423,9.1336c-1.8213,0-2.55348,2.05517-1.0546,2.96017l3.30083,1.993c1.49888.905.7667,2.96016-1.05459,2.96016l-3.26276-.48481"/><line class="cls-1" x1="32.11933" y1="9.2354" x2="32.11933" y2="7.18489"/><line class="cls-1" x1="32.11933" y1="18.99561" x2="32.11933" y2="16.97164"/><line class="cls-1" x1="13.65926" y1="13.09025" x2="22.93979" y2="13.09025"/><line class="cls-1" x1="50.62207" y1="12.87884" x2="41.1203" y2="12.87884"/><circle class="cls-1" cx="32.03005" cy="13.09025" r="9.09025"/></g></svg>