<svg xmlns="http://www.w3.org/2000/svg" xmlns:xlink="http://www.w3.org/1999/xlink" width="400" height="114" viewBox="0 0 400 114">
  <defs>
    <clipPath id="clip-Web_1920_1">
      <rect width="400" height="114"/>
    </clipPath>
  </defs>
  <g id="Web_1920_1" data-name="Web 1920 – 1" clip-path="url(#clip-Web_1920_1)">
    <g id="Group_1" data-name="Group 1" transform="translate(34.673 17.706)">
      <g id="g20" transform="translate(124.629 41.675)">
        <path id="path22" d="M27.5,24.317H16.979a.118.118,0,0,1-.1-.042L7.809,13.2-1.268,24.275c-.019.033-.052.042-.1.042H-9.792a.145.145,0,0,1-.127-.08A.137.137,0,0,1-9.9,24.1L3.454,7.7-9.745-8.548A.172.172,0,0,1-9.769-8.7a.2.2,0,0,1,.118-.075H.877a.119.119,0,0,1,.1.066L8.93,1.146l8.1-9.863a.112.112,0,0,1,.1-.061h8.581a.174.174,0,0,1,.123.075.155.155,0,0,1-.019.156L13.28,6.5,27.592,24.1a.1.1,0,0,1,.024.132.122.122,0,0,1-.113.08" transform="translate(14.39 -0.327)" fill="#1e2845"/>
      </g>
      <g id="g24" transform="translate(200.637 40.337)">
        <path id="path26" d="M13.144,5.277C8.483,5.277,5.3,8.1,4.393,13.019H20.245V12.7a7.193,7.193,0,0,0-7.1-7.427M28.421,18.062a.139.139,0,0,1-.113.061H4.223c.5,5.608,4.142,8.8,10.038,8.8,3.629,0,7.483-1.239,12.931-4.138a.135.135,0,0,1,.2.132l-.009,7.408a.127.127,0,0,1-.08.113c-5.066,2.135-10.155,3.591-14.156,3.591-10.372,0-17.889-7.559-17.889-17.969S2.771-1.9,13.144-1.9c9.463,0,15.542,6.376,15.542,15.146,0,1.418-.245,4.717-.264,4.821" transform="translate(9.694 -7.209)" fill="#1e2845"/>
      </g>
      <g id="g28" transform="translate(276.884 24.253)">
        <path id="path30" d="M3.937,7.863A5.323,5.323,0,0,1-1.421,2.585,5.393,5.393,0,0,1,3.937-2.839,5.4,5.4,0,0,1,9.3,2.585,5.327,5.327,0,0,1,3.937,7.863M-.389,47.792a.126.126,0,0,1-.137-.137V14.833a.137.137,0,0,1,.1-.132h8.7a.127.127,0,0,1,.108.132V47.656a.126.126,0,0,1-.127.137Z" transform="translate(6.86 -6.379)" fill="#1e2845"/>
      </g>
      <g id="g32" transform="translate(163.77 40.342)">
        <path id="path34" d="M10.249,21.672a19.083,19.083,0,0,1-5.024-.716L5.244-.1a19.145,19.145,0,0,1,5.9-1.013c6.032,0,10.08,4.449,10.08,11.055,0,7.125-4.312,11.729-10.98,11.729m2.366-29.5A22.958,22.958,0,0,0,5.079-6.481H-3.577a.128.128,0,0,0-.123.137V47.482a19.964,19.964,0,0,0,8.93-3.506l0-16.371a40.176,40.176,0,0,0,5.6.5C22.68,28.109,30.352,21,30.352,10c0-10.49-7.3-17.823-17.738-17.823" transform="translate(8.412 -1.29)" fill="#1e2845"/>
      </g>
      <g id="g36" transform="translate(237.189 20.917)">
        <path id="path38" d="M18.472,34.033a15.931,15.931,0,0,1-7.408,2.1c-5.368,0-8.586-3.794-8.586-10.146,0-7.351,4.109-12.106,10.462-12.106a13.08,13.08,0,0,1,5.532,1.367Zm0-42.8V8.411a25.068,25.068,0,0,0-7.036-1.06A17.707,17.707,0,0,0-6.669,25.456C-6.669,35.739.2,43.194,9.655,43.194A20.956,20.956,0,0,0,19.6,40.517l0,2.964A19.821,19.821,0,0,0,27.4,40.168V-12.286a19.244,19.244,0,0,0-8.93,3.516" transform="translate(11.853 3.047)" fill="#1e2845"/>
      </g>
      <g id="g40" transform="translate(291.618 40.43)">
        <path id="path42" d="M18.455,19.556a14.03,14.03,0,0,1-6.876,2.238c-5.749,0-9.194-3.779-9.194-10.155,0-7.243,4.057-12.1,10.089-12.1a13.375,13.375,0,0,1,5.98,1.89ZM27.395-6.2a.371.371,0,0,0-.372-.363l-7.031.009a.389.389,0,0,0-.382.377v1.2h-.179A21.416,21.416,0,0,0,10.689-7.06C.962-7.06-6.662,1-6.662,11.338c0,10.448,6.824,17.45,16.979,17.45,2.719,0,6.2-.188,9.463-3.94v4.222a20.251,20.251,0,0,0,7.606-3.327L27.395-6.2Z" transform="translate(12.196 -2.054)" fill="#1e2845"/>
      </g>
      <g id="g44" transform="translate(95.855 12.59)">
        <path id="path46" d="M6.835,32.963l21.838-.009a19.732,19.732,0,0,1-3.049,8.209H2.9a5.4,5.4,0,0,1-5.339-4.877.64.64,0,0,1-.033-.118V-6.9a.414.414,0,0,1,.033-.108A5.412,5.412,0,0,1,2.9-11.9c.09,0,.174.009.25.009l25.471,0a20.066,20.066,0,0,1-3.049,8.27H6.835V8.1H25.388a.125.125,0,0,1,.132.127v8.134a.131.131,0,0,1-.132.127H6.835V32.963Z" transform="translate(2.467 11.9)" fill="#1e2845"/>
      </g>
      <g id="g64">
        <path id="path66" d="M33.5,22l-1.573-4.453L18.581-.293l2.4-.595L43.988,19l13.542-3.872a19.392,19.392,0,0,1,4.776-.492A39.067,39.067,0,0,0-11.756,36.927l32.44-11.271Z" transform="translate(13.2 8.01)" fill="#1e2845"/>
      </g>
      <g id="g68" transform="translate(1.801 26.164)">
        <path id="path70" d="M55.073,0A20.868,20.868,0,0,1,50.4,2.341L36.835,6.214,27.779,35.282l-2.351.763,1.91-22.2L26.271,9.234,13.554,12.863l-33.61,7.913A39.064,39.064,0,1,0,55.073,0" transform="translate(20.056)" fill="#1e2845"/>
      </g>
      <g id="g72" transform="translate(0.444 7.119)">
        <path id="path74" d="M34.221,20.732l1.072,4.607-1.915,22.2,2.351-.763,9.056-29.064,13.57-3.872A21.272,21.272,0,0,0,63.023,11.5c-.417-1.194-.894-2.369-1.423-3.516a19.838,19.838,0,0,0-4.776.487L43.282,12.35,20.267-7.55l-2.393.6,13.34,17.835,1.578,4.448L19.973,19-12.463,30.265c.1.674.22,1.344.356,2.009l33.615-7.913Z" transform="translate(13.463 7.55)" fill="#fbc108"/>
      </g>
    </g>
  </g>
</svg>
