<svg width="265" height="254" viewBox="0 0 265 254" fill="none" xmlns="http://www.w3.org/2000/svg">
<mask id="mask0_1241_8698" style="mask-type:alpha" maskUnits="userSpaceOnUse" x="0" y="0" width="265" height="254">
<rect width="265" height="254" fill="#D9D9D9"/>
</mask>
<g mask="url(#mask0_1241_8698)">
<rect opacity="0.5" x="143" width="1" height="258" fill="#2d313c"/>
<rect opacity="0.5" x="10" width="1" height="258" fill="#2d313c"/>
<rect opacity="0.5" x="153" width="1" height="258" fill="#2d313c"/>
<rect opacity="0.5" x="20" width="1" height="258" fill="#2d313c"/>
<rect opacity="0.5" x="163" width="1" height="258" fill="#2d313c"/>
<rect opacity="0.5" x="30" width="1" height="258" fill="#2d313c"/>
<rect opacity="0.5" x="173" width="1" height="258" fill="#2d313c"/>
<rect opacity="0.5" x="40" width="1" height="258" fill="#2d313c"/>
<rect opacity="0.5" x="183" width="1" height="258" fill="#2d313c"/>
<rect opacity="0.5" x="50" width="1" height="258" fill="#2d313c"/>
<rect opacity="0.5" x="193" width="1" height="258" fill="#2d313c"/>
<rect opacity="0.5" x="60" width="1" height="258" fill="#2d313c"/>
<rect opacity="0.5" x="203" width="1" height="258" fill="#2d313c"/>
<rect opacity="0.5" x="70" width="1" height="258" fill="#2d313c"/>
<rect opacity="0.5" x="213" width="1" height="258" fill="#2d313c"/>
<rect opacity="0.5" x="80" width="1" height="258" fill="#2d313c"/>
<rect opacity="0.5" x="223" width="1" height="258" fill="#2d313c"/>
<rect opacity="0.5" x="90" width="1" height="258" fill="#2d313c"/>
<rect opacity="0.5" x="233" width="1" height="258" fill="#2d313c"/>
<rect opacity="0.5" x="100" width="1" height="258" fill="#2d313c"/>
<rect opacity="0.5" x="243" width="1" height="258" fill="#2d313c"/>
<rect opacity="0.5" x="110" width="1" height="258" fill="#2d313c"/>
<rect opacity="0.5" x="253" width="1" height="258" fill="#2d313c"/>
<rect opacity="0.5" x="120" width="1" height="258" fill="#2d313c"/>
<g opacity="0.5">
<rect x="-1" y="122" width="1" height="266" transform="rotate(-90 -1 122)" fill="#2d313c"/>
<rect x="-1" y="112" width="1" height="266" transform="rotate(-90 -1 112)" fill="#2d313c"/>
<rect x="-1" y="102" width="1" height="266" transform="rotate(-90 -1 102)" fill="#2d313c"/>
<rect x="-1" y="92" width="1" height="266" transform="rotate(-90 -1 92)" fill="#2d313c"/>
<rect x="-1" y="82" width="1" height="266" transform="rotate(-90 -1 82)" fill="#2d313c"/>
<rect x="-1" y="71" width="1" height="266" transform="rotate(-90 -1 71)" fill="#2d313c"/>
<rect x="-1" y="61" width="1" height="266" transform="rotate(-90 -1 61)" fill="#2d313c"/>
<rect x="-1" y="51" width="1" height="266" transform="rotate(-90 -1 51)" fill="#2d313c"/>
<rect x="-1" y="41" width="1" height="266" transform="rotate(-90 -1 41)" fill="#2d313c"/>
<rect x="-1" y="31" width="1" height="266" transform="rotate(-90 -1 31)" fill="#2d313c"/>
<rect x="-1" y="21" width="1" height="266" transform="rotate(-90 -1 21)" fill="#2d313c"/>
<rect x="-1" y="11" width="1" height="266" transform="rotate(-90 -1 11)" fill="#2d313c"/>
</g>
<g opacity="0.5">
<rect x="-1" y="245" width="1" height="266" transform="rotate(-90 -1 245)" fill="#2d313c"/>
<rect x="-1" y="235" width="1" height="266" transform="rotate(-90 -1 235)" fill="#2d313c"/>
<rect x="-1" y="225" width="1" height="266" transform="rotate(-90 -1 225)" fill="#2d313c"/>
<rect x="-1" y="215" width="1" height="266" transform="rotate(-90 -1 215)" fill="#2d313c"/>
<rect x="-1" y="205" width="1" height="266" transform="rotate(-90 -1 205)" fill="#2d313c"/>
<rect x="-1" y="194" width="1" height="266" transform="rotate(-90 -1 194)" fill="#2d313c"/>
<rect x="-1" y="184" width="1" height="266" transform="rotate(-90 -1 184)" fill="#2d313c"/>
<rect x="-1" y="174" width="1" height="266" transform="rotate(-90 -1 174)" fill="#2d313c"/>
<rect x="-1" y="164" width="1" height="266" transform="rotate(-90 -1 164)" fill="#2d313c"/>
<rect x="-1" y="154" width="1" height="266" transform="rotate(-90 -1 154)" fill="#2d313c"/>
<rect x="-1" y="144" width="1" height="266" transform="rotate(-90 -1 144)" fill="#2d313c"/>
</g>
<rect x="131" width="1" height="258" fill="#2d313c"/>
<rect x="-1" y="133" width="1" height="266" transform="rotate(-90 -1 133)" fill="#2d313c"/>
<rect x="-1" y="1" width="1" height="266" transform="rotate(-90 -1 1)" fill="#2d313c"/>
<rect width="1" height="258" transform="matrix(-1 0 0 1 265 0)" fill="#2d313c"/>
</g>
</svg>
