<?xml version="1.0" standalone="no"?>
<!DOCTYPE svg PUBLIC "-//W3C//DTD SVG 20010904//EN"
 "http://www.w3.org/TR/2001/REC-SVG-20010904/DTD/svg10.dtd">
<svg version="1.0" xmlns="http://www.w3.org/2000/svg"
 width="512.000000pt" height="470.000000pt" viewBox="0 0 512.000000 470.000000"
 preserveAspectRatio="xMidYMid meet">

<g transform="translate(0.000000,470.000000) scale(0.100000,-0.100000)"
fill="#BD3723" stroke="none">
<path d="M1343 4690 c-92 -19 -166 -78 -203 -162 -24 -54 -37 -227 -25 -323 6
-48 13 -64 38 -88 l31 -29 -40 -423 -40 -423 -67 -72 c-80 -87 -125 -153 -177
-262 -74 -155 -83 -206 -88 -525 l-4 -283 -350 0 c-220 0 -356 -4 -369 -10
-50 -28 -49 4 -49 -1037 0 -754 3 -974 13 -993 7 -14 28 -33 47 -43 33 -16 99
-17 1068 -15 l1034 3 29 33 c30 34 36 63 19 106 -19 52 0 51 -815 56 l-760 5
0 380 0 380 1925 0 1925 0 0 -380 0 -380 -762 -5 -761 -5 -25 -23 c-34 -32
-40 -64 -23 -107 29 -68 -27 -65 1098 -65 944 0 1015 1 1048 18 19 9 40 28 47
42 10 19 13 239 13 993 0 1041 1 1009 -49 1037 -13 6 -141 10 -345 10 l-326 0
0 228 c0 147 -5 261 -15 323 -31 206 -127 394 -275 539 l-47 46 -45 429 -46
430 31 26 32 27 0 168 c0 151 -2 174 -21 214 -27 56 -82 112 -143 142 -44 22
-54 23 -306 23 -317 0 -335 -4 -417 -85 -78 -79 -91 -123 -86 -316 l3 -146 33
-27 32 -28 -41 -429 -42 -429 -76 -81 c-81 -86 -140 -178 -184 -284 -62 -152
-77 -261 -77 -558 l0 -213 -127 3 -128 3 -6 285 c-5 254 -8 294 -28 365 -45
159 -124 297 -239 417 l-64 66 -45 429 -46 429 32 31 31 31 0 160 c0 157 0
159 -31 220 -33 68 -71 105 -139 136 -41 19 -65 21 -290 23 -135 1 -264 -2
-287 -7z m523 -214 c26 -22 28 -29 28 -102 l1 -79 -292 -3 -293 -2 0 76 c0 70
2 78 29 105 l29 29 236 0 c233 0 235 0 262 -24z m1933 9 c37 -18 41 -31 41
-121 l0 -74 -290 0 -290 0 0 78 c1 130 5 131 288 132 177 0 229 -3 251 -15z
m-1969 -389 c0 -47 103 -943 110 -955 5 -11 39 -48 76 -82 110 -106 183 -230
218 -370 9 -36 16 -71 16 -77 0 -15 -1265 -18 -1274 -3 -12 18 35 165 81 253
37 73 66 111 139 186 84 85 93 97 98 140 4 26 24 236 46 467 22 231 42 426 45
433 3 9 58 12 225 12 121 0 220 -2 220 -4z m1996 -479 l51 -477 80 -78 c43
-42 98 -106 121 -142 51 -78 98 -197 108 -268 l7 -52 -637 0 -636 0 0 26 c0
48 61 208 107 282 25 41 81 108 124 150 42 43 80 88 83 102 4 14 24 216 46
450 22 234 43 440 46 458 l5 32 222 -2 222 -3 51 -478z m-1568 -1365 l3 -152
-648 2 -648 3 -3 140 c-1 76 0 145 2 152 4 11 127 13 648 11 l643 -3 3 -153z
m1942 3 l0 -155 -645 0 -645 0 0 155 0 155 645 0 645 0 0 -155z m-3765 -720
l0 -370 -117 -3 -118 -3 0 376 0 376 118 -3 117 -3 0 -370z m4050 0 l0 -370
-1925 0 -1925 0 -3 360 c-1 198 0 366 3 372 3 11 390 13 1927 11 l1923 -3 0
-370z m435 0 l0 -376 -117 3 -118 3 -3 360 c-1 198 0 366 3 372 3 10 36 13
120 13 l115 0 0 -375z m-4480 -950 l0 -385 -120 0 -120 0 0 385 0 385 120 0
120 0 0 -385z m4480 0 l0 -385 -120 0 -120 0 0 385 0 385 120 0 120 0 0 -385z"/>
<path d="M859 1601 c-21 -22 -29 -39 -29 -66 0 -83 105 -127 164 -69 20 20 26
36 26 68 -1 44 -13 66 -47 84 -39 21 -82 14 -114 -17z"/>
<path d="M4133 1615 c-32 -23 -48 -79 -33 -116 17 -39 46 -59 90 -59 44 0 73
20 90 59 26 63 -20 131 -87 131 -21 0 -48 -7 -60 -15z"/>
<path d="M859 651 c-62 -62 -19 -161 71 -161 58 0 90 33 90 94 0 37 -5 48 -31
70 -43 36 -91 35 -130 -3z"/>
<path d="M4128 657 c-34 -32 -44 -77 -24 -116 20 -37 44 -51 88 -51 42 0 72
20 88 59 38 92 -79 175 -152 108z"/>
<path d="M2514 190 c-65 -26 -72 -138 -10 -169 74 -37 146 2 146 79 0 74 -67
118 -136 90z"/>
</g>
</svg>
