<svg xmlns="http://www.w3.org/2000/svg" xmlns:xlink="http://www.w3.org/1999/xlink" width="128" height="128" viewBox="0 0 128 128">
  <defs>
    <clipPath id="clip-path">
      <rect id="Rectangle_2" data-name="Rectangle 2" width="128" height="128"/>
    </clipPath>
  </defs>
  <g id="demo-real-estate-icon-swimming" clip-path="url(#clip-path)">
    <g id="SWIMMING_POOL" data-name="SWIMMING POOL" clip-path="url(#clip-path)">
      <path id="Path_1" data-name="Path 1" d="M0,0H128V128H0Z" fill="none"/>
      <path id="Path_236" data-name="Path 236" d="M274.25,34.24H258.478V21a21,21,0,1,0-42,0V34.24h-8.957V21a21,21,0,0,0-42,0V34.24H149.75A1.75,1.75,0,0,0,148,35.99v90.257a1.751,1.751,0,0,0,1.75,1.75h124.5a1.751,1.751,0,0,0,1.75-1.75V35.99A1.75,1.75,0,0,0,274.25,34.24Zm-78.229,0h-19V21a9.5,9.5,0,0,1,19,0Zm20.457,33.066a17.811,17.811,0,0,0-4.488-.516,16.5,16.5,0,0,0-8.579,2.193,14.383,14.383,0,0,1-13.959,0,16.512,16.512,0,0,0-8.582-2.193,18.4,18.4,0,0,0-3.849.373V59.219h39.457Zm0-11.587H177.021V46.742h39.457ZM173.9,72.089c.675-.344,1.313-.669,2.015-.948h0a12.623,12.623,0,0,1,4.954-.851A13.015,13.015,0,0,1,187.85,72.1a17.876,17.876,0,0,0,17.161,0,13,13,0,0,1,6.978-1.806,12.53,12.53,0,0,1,5.518,1.087h0c.507.227.981.472,1.456.716a16.532,16.532,0,0,0,6.925,2.125,11.828,11.828,0,0,0,1.662.07,16.5,16.5,0,0,0,8.581-2.194,14.4,14.4,0,0,1,13.966,0,17.885,17.885,0,0,0,17.166,0,13.168,13.168,0,0,1,5.233-1.715v14.96a16.45,16.45,0,0,0-6.833,2.124,14.4,14.4,0,0,1-13.966,0,17.889,17.889,0,0,0-17.166,0,14.394,14.394,0,0,1-13.963,0,17.879,17.879,0,0,0-17.161,0,14.39,14.39,0,0,1-13.959,0,17.878,17.878,0,0,0-17.162,0,14.391,14.391,0,0,1-13.96,0,16.424,16.424,0,0,0-6.83-2.125V70.381a13.169,13.169,0,0,1,5.229,1.715,16.506,16.506,0,0,0,8.581,2.194,20.149,20.149,0,0,0,2.075-.112h.139a16.826,16.826,0,0,0,6.38-2.089ZM246.978,34.24h-19V21a9.5,9.5,0,1,1,19,0ZM272.5,66.859a16.435,16.435,0,0,0-6.833,2.124,14.4,14.4,0,0,1-13.966,0,17.891,17.891,0,0,0-17.165,0,12.938,12.938,0,0,1-6.558,1.8V46.742H272.5ZM165.521,70.788h-.211a13,13,0,0,1-6.98-1.807,16.425,16.425,0,0,0-6.83-2.124V46.742h14.021ZM151.5,88.862a13.153,13.153,0,0,1,5.229,1.714,17.876,17.876,0,0,0,17.161,0,14.39,14.39,0,0,1,13.961,0,17.879,17.879,0,0,0,17.161,0,14.388,14.388,0,0,1,13.96,0,17.887,17.887,0,0,0,17.163,0,14.4,14.4,0,0,1,13.966,0,17.893,17.893,0,0,0,17.166,0A13.167,13.167,0,0,1,272.5,88.86v14.958a16.436,16.436,0,0,0-6.833,2.124,14.4,14.4,0,0,1-13.966,0,17.889,17.889,0,0,0-17.166,0,14.394,14.394,0,0,1-13.963,0,17.879,17.879,0,0,0-17.161,0,14.39,14.39,0,0,1-13.959,0,17.878,17.878,0,0,0-17.162,0,14.391,14.391,0,0,1-13.96,0,16.424,16.424,0,0,0-6.83-2.125Zm121-45.62H227.978v-5.5H272.5ZM219.978,21a17.5,17.5,0,1,1,35,0V34.24h-4.5V21a13,13,0,0,0-26,0V70.5a14.389,14.389,0,0,1-3.913-1.525c-.2-.1-.39-.2-.587-.3Zm-3.5,22.241H177.021v-5.5h39.457ZM169.021,21a17.5,17.5,0,0,1,35,0V34.24h-4.5V21a13,13,0,1,0-26,0V68.37c-.42.2-.818.4-1.209.6a15.972,15.972,0,0,1-3.29,1.373ZM151.5,37.74h14.021v5.5H151.5Zm0,86.757V107.342a13.153,13.153,0,0,1,5.229,1.714,17.876,17.876,0,0,0,17.161,0,14.39,14.39,0,0,1,13.961,0,17.879,17.879,0,0,0,17.161,0,14.388,14.388,0,0,1,13.96,0,17.887,17.887,0,0,0,17.163,0,14.4,14.4,0,0,1,13.966,0,17.893,17.893,0,0,0,17.166,0,13.152,13.152,0,0,1,5.233-1.715V124.5Z" transform="translate(-148)"/>
    </g>
  </g>
</svg>
