<svg id="icons" xmlns="http://www.w3.org/2000/svg" viewBox="0 0 64 64"><defs><style>.cls-1,.cls-2{fill:none;stroke:#c19e62;stroke-width:2px;}.cls-1{stroke-miterlimit:10;}.cls-2{stroke-linecap:round;stroke-linejoin:round;}</style></defs><title>18</title><g id="nda"><ellipse class="cls-1" cx="45.37686" cy="34.15249" rx="7.24497" ry="7.47566" transform="translate(-8.67774 16.72974) rotate(-19.10158)"/><polyline class="cls-2" points="52.337 36.445 60 42.761 56.069 43.808 56.104 47.051 48.654 40.869 48.591 50.789 45.945 48.843 43.204 51.118 43.437 41.294"/><ellipse class="cls-1" cx="45.37686" cy="34.15249" rx="3.27661" ry="3.38094" transform="translate(-8.67774 16.72974) rotate(-19.10158)"/><path class="cls-2" d="M52.6157,54.68944l6.84192.00726c0,1.85219-1.53093,5.3033-3.42206,5.3033H19.03379"/><path class="cls-2" d="M52.72637,44.30045l-.115,10.384H22.44772c0,1.86709-1.5162,5.2985-3.41453,5.31111h-.01233a3.366,3.366,0,0,1-3.4022-3.35571V7.3512a3.37662,3.37662,0,0,0-3.42685-3.34309H49.18457A3.36888,3.36888,0,0,1,52.61142,7.3512V33.05566"/><path class="cls-2" d="M12.19228,4S4.93521,3.95608,4,10.27276H15.61179"/><line class="cls-2" x1="21.65718" y1="16.04939" x2="47.63209" y2="16.04939"/><line class="cls-2" x1="21.65718" y1="21.05425" x2="47.63209" y2="21.05425"/><line class="cls-2" x1="21.65718" y1="26.0591" x2="33.41195" y2="26.0591"/><line class="cls-2" x1="21.65718" y1="31.06395" x2="33.41195" y2="31.06395"/><line class="cls-2" x1="21.65718" y1="36.0688" x2="28.15091" y2="36.0688"/><line class="cls-2" x1="21.65718" y1="41.07365" x2="28.15091" y2="41.07365"/></g></svg>