<svg xmlns="http://www.w3.org/2000/svg" width="600" height="147.3" viewBox="0 0 600 147.3" fill="#ffffff">
  <g id="trustpilot-1" transform="translate(-20.5 -248.5)">
    <path id="Path_1" data-name="Path 1" d="M178.2,300.7h60.7V312H215v63.7H201.9V312H178.1Zm58.1,20.7h11.2v10.5h.2a13.192,13.192,0,0,1,2.1-4.3,16.622,16.622,0,0,1,3.7-3.8,16.366,16.366,0,0,1,4.8-2.8,13.971,13.971,0,0,1,5.3-1.1c1.4,0,2.4.1,2.9.1a8.752,8.752,0,0,0,1.6.2v11.5a20.235,20.235,0,0,0-2.6-.4,22.751,22.751,0,0,0-2.6-.2,13.879,13.879,0,0,0-5.7,1.2,14.45,14.45,0,0,0-4.7,3.5,18.963,18.963,0,0,0-3.2,5.8,24.472,24.472,0,0,0-1.2,8v25.8h-12Zm86.8,54.3H311.3v-7.6h-.2a16.755,16.755,0,0,1-6.6,6.6,17.42,17.42,0,0,1-8.9,2.5c-7.1,0-12.3-1.7-15.5-5.3-3.2-3.5-4.8-8.9-4.8-16V321.4h12v33.3c0,4.8.9,8.2,2.8,10.1,1.8,2,4.4,3,7.7,3a14.75,14.75,0,0,0,6.3-1.2,10.866,10.866,0,0,0,4.1-3.1,12.163,12.163,0,0,0,2.3-4.7,22.2,22.2,0,0,0,.7-5.9V321.4h12v54.3Zm20.4-17.4c.4,3.5,1.7,5.9,4,7.4a15.748,15.748,0,0,0,8.3,2.1,27.485,27.485,0,0,0,3.8-.3,16.744,16.744,0,0,0,4-1,7.037,7.037,0,0,0,3.1-2.2,5.121,5.121,0,0,0,1.1-3.7,5.381,5.381,0,0,0-1.7-3.8,14.167,14.167,0,0,0-4-2.4,34.684,34.684,0,0,0-5.6-1.5c-2.1-.4-4.2-.9-6.4-1.4s-4.4-1.1-6.5-1.8a18.629,18.629,0,0,1-5.6-2.9,12.472,12.472,0,0,1-3.9-4.6,14.375,14.375,0,0,1-1.5-6.9,11.826,11.826,0,0,1,2.2-7.4,15.947,15.947,0,0,1,5.5-4.8,24.964,24.964,0,0,1,7.4-2.6,42.368,42.368,0,0,1,7.7-.7,34.405,34.405,0,0,1,8,.9,20.222,20.222,0,0,1,6.9,2.9,15.843,15.843,0,0,1,5.1,5.2,18.012,18.012,0,0,1,2.6,7.7H365.5c-.6-2.9-1.9-4.8-3.9-5.8a16.105,16.105,0,0,0-7.1-1.5c-.8,0-1.9.1-3,.2a17.675,17.675,0,0,0-3.3.8,7.82,7.82,0,0,0-2.6,1.7,4,4,0,0,0-1.1,2.9,4.4,4.4,0,0,0,1.5,3.5,13.594,13.594,0,0,0,4,2.3,34.684,34.684,0,0,0,5.6,1.5c2.1.4,4.3.9,6.5,1.4s4.3,1.1,6.4,1.8a17.517,17.517,0,0,1,5.6,2.9,14.423,14.423,0,0,1,4,4.5,13.822,13.822,0,0,1,1.5,6.7,14.576,14.576,0,0,1-2.2,8.2,18.7,18.7,0,0,1-5.7,5.5,28.266,28.266,0,0,1-7.8,3.1,41.9,41.9,0,0,1-8.5,1,35.816,35.816,0,0,1-9.5-1.2,24.194,24.194,0,0,1-7.6-3.5,16.787,16.787,0,0,1-5-5.9,19.264,19.264,0,0,1-2-8.4h12.1v.1ZM383,321.4h9.1V305h12v16.3h10.8v8.9H404.1v29a30.768,30.768,0,0,0,.2,3.3,6.931,6.931,0,0,0,.7,2.3,3.907,3.907,0,0,0,1.7,1.4,8.92,8.92,0,0,0,3.2.5,20.9,20.9,0,0,0,2.5-.1,21.662,21.662,0,0,0,2.5-.4v9.3c-1.3.2-2.6.3-3.9.4a24.843,24.843,0,0,1-3.9.2,25.847,25.847,0,0,1-7.6-.9,10.92,10.92,0,0,1-4.5-2.6,9.3,9.3,0,0,1-2.2-4.3,34.127,34.127,0,0,1-.7-6v-32H383v-8.9Zm40.3,0h11.3v7.4h.2a14.854,14.854,0,0,1,7-6.8,22.672,22.672,0,0,1,9.8-2.1,24.642,24.642,0,0,1,11.2,2.3,21.014,21.014,0,0,1,7.9,6.2,25.861,25.861,0,0,1,4.7,9.2,40.4,40.4,0,0,1,.2,21.8,29.421,29.421,0,0,1-4.3,9.1,21.274,21.274,0,0,1-7.3,6.3,21.583,21.583,0,0,1-10.4,2.4,30.519,30.519,0,0,1-5.2-.5,22.13,22.13,0,0,1-5-1.5,17.936,17.936,0,0,1-4.4-2.7,15.238,15.238,0,0,1-3.4-3.8h-.2v27.1h-12V321.4Zm41.9,27.2a24.367,24.367,0,0,0-1-7.1,18.111,18.111,0,0,0-2.9-6.1,16,16,0,0,0-4.7-4.3,12.792,12.792,0,0,0-6.5-1.6c-5,0-8.8,1.7-11.4,5.2-2.5,3.5-3.8,8.2-3.8,14a25.9,25.9,0,0,0,1,7.6,16.928,16.928,0,0,0,3,6,14.289,14.289,0,0,0,4.8,4,13.558,13.558,0,0,0,6.5,1.5,13.3,13.3,0,0,0,6.9-1.7,16.116,16.116,0,0,0,4.7-4.3,17.6,17.6,0,0,0,2.6-6.1A34.341,34.341,0,0,0,465.2,348.6Zm21.1-47.9h12V312h-12Zm0,20.7h12v54.3h-12ZM509,300.7h12v75H509Zm48.6,76.5A28.575,28.575,0,0,1,546,375a26.33,26.33,0,0,1-8.6-5.9,25.688,25.688,0,0,1-5.3-9.1,35.549,35.549,0,0,1-1.9-11.5,32.48,32.48,0,0,1,1.9-11.4,26.6,26.6,0,0,1,5.3-9.1,23.984,23.984,0,0,1,8.6-5.9,30.354,30.354,0,0,1,11.6-2.2,28.575,28.575,0,0,1,11.6,2.2,24.888,24.888,0,0,1,8.6,5.9,25.688,25.688,0,0,1,5.3,9.1,34.939,34.939,0,0,1,1.9,11.4,32.654,32.654,0,0,1-1.9,11.5,28.3,28.3,0,0,1-5.3,9.1,23.984,23.984,0,0,1-8.6,5.9A29.983,29.983,0,0,1,557.6,377.2Zm0-9.5a13.831,13.831,0,0,0,6.9-1.7,14.475,14.475,0,0,0,4.8-4.4,18.849,18.849,0,0,0,2.8-6.1,27.283,27.283,0,0,0,0-13.9,17.93,17.93,0,0,0-2.8-6.1,15.191,15.191,0,0,0-4.8-4.3,14.105,14.105,0,0,0-6.9-1.7,13.831,13.831,0,0,0-6.9,1.7,15.315,15.315,0,0,0-4.8,4.3,17.928,17.928,0,0,0-2.8,6.1,27.283,27.283,0,0,0,0,13.9,17.93,17.93,0,0,0,2.8,6.1,15.511,15.511,0,0,0,4.8,4.4A13.1,13.1,0,0,0,557.6,367.7Zm31-46.3h9.1V305h12v16.3h10.8v8.9H609.7v29a30.76,30.76,0,0,0,.2,3.3,6.931,6.931,0,0,0,.7,2.3,3.907,3.907,0,0,0,1.7,1.4,8.92,8.92,0,0,0,3.2.5,20.9,20.9,0,0,0,2.5-.1,21.662,21.662,0,0,0,2.5-.4v9.3c-1.3.2-2.6.3-3.9.4a24.843,24.843,0,0,1-3.9.2,25.847,25.847,0,0,1-7.6-.9,10.92,10.92,0,0,1-4.5-2.6,9.3,9.3,0,0,1-2.2-4.3,34.13,34.13,0,0,1-.7-6v-32h-9.1v-8.9Z"/>
    <path id="Path_2" data-name="Path 2" d="M164.2,300.7H109.3L92.4,248.5l-17,52.2-54.9-.1,44.4,32.3-17,52.2,44.4-32.3,44.4,32.3-16.9-52.2Z" fill="#ffffff"/>
    <path id="Path_3" data-name="Path 3" d="M123.6,344.7l-3.8-11.8L92.4,352.8Z" fill="#ffffff"/>
  </g>
</svg>
