<svg xmlns="http://www.w3.org/2000/svg" xmlns:xlink="http://www.w3.org/1999/xlink" width="45" height="47" viewBox="0 0 45 47">
  <defs>
    <clipPath id="clip-Custom_Size_1">
      <rect width="45" height="47"/>
    </clipPath>
  </defs>
  <g id="Custom_Size_1" data-name="Custom Size – 1" clip-path="url(#clip-Custom_Size_1)">
    <g id="_3" data-name="3" transform="translate(-1427.936 -204.533)">
      <path id="_Path_" data-name="&lt;Path&gt;" d="M1468.764,235.344q1.408,1.518,2.208,2.567-9.109,12.311-20.536,12.311-11.4,0-20.536-12.311,9.275-12.311,20.536-12.311c6.183,0,11.759,3.7,15.54,7.039" transform="translate(0 -8.977)" fill="none" stroke="#16c1cc" stroke-linecap="square" stroke-width="2"/>
      <path id="_Path_2" data-name="&lt;Path&gt;" d="M1496.55,257.675a4.775,4.775,0,1,1-4.775-4.775" transform="translate(-41.339 -28.742)" fill="none" stroke="#16c1cc" stroke-linecap="square" stroke-width="2"/>
      <path id="_Path_3" data-name="&lt;Path&gt;" d="M1490.172,247.322a8.736,8.736,0,1,1-8.75-8.722A8.729,8.729,0,0,1,1490.172,247.322Z" transform="translate(-30.986 -18.389)" fill="none" stroke="#16c1cc" stroke-linecap="square" stroke-width="2"/>
      <path id="_Path_4" data-name="&lt;Path&gt;" d="M1504.3,213.2v.718" transform="translate(-53.864 0)" fill="none" stroke="#16c1cc" stroke-linecap="square" stroke-width="2"/>
      <path id="_Path_5" data-name="&lt;Path&gt;" d="M1529.893,217l-.193.69" transform="translate(-72.253 -2.751)" fill="none" stroke="#16c1cc" stroke-linecap="square" stroke-width="2"/>
      <path id="_Path_6" data-name="&lt;Path&gt;" d="M1553.686,228.7l-.386.635" transform="translate(-89.339 -11.222)" fill="none" stroke="#16c1cc" stroke-linecap="square" stroke-width="2"/>
      <path id="_Path_7" data-name="&lt;Path&gt;" d="M1572.77,243.9l-.469.552" transform="translate(-103.094 -22.226)" fill="none" stroke="#16c1cc" stroke-linecap="square" stroke-width="2"/>
      <path id="_Path_8" data-name="&lt;Path&gt;" d="M1478.3,217l.193.69" transform="translate(-35.041 -2.751)" fill="none" stroke="#16c1cc" stroke-linecap="square" stroke-width="2"/>
      <path id="_Path_9" data-name="&lt;Path&gt;" d="M1454,228.7l.359.635" transform="translate(-17.448 -11.222)" fill="none" stroke="#16c1cc" stroke-linecap="square" stroke-width="2"/>
      <path id="_Path_10" data-name="&lt;Path&gt;" d="M1434.7,243.9l.469.552" transform="translate(-3.475 -22.226)" fill="none" stroke="#16c1cc" stroke-linecap="square" stroke-width="2"/>
      <path id="_Path_11" data-name="&lt;Path&gt;" d="M1504.3,325.318V324.6" transform="translate(-53.864 -80.651)" fill="none" stroke="#16c1cc" stroke-linecap="square" stroke-width="2"/>
      <path id="_Path_12" data-name="&lt;Path&gt;" d="M1478.3,321.59l.193-.69" transform="translate(-35.041 -77.972)" fill="none" stroke="#16c1cc" stroke-linecap="square" stroke-width="2"/>
      <path id="_Path_13" data-name="&lt;Path&gt;" d="M1454,310.035l.359-.635" transform="translate(-17.448 -69.647)" fill="none" stroke="#16c1cc" stroke-linecap="square" stroke-width="2"/>
      <path id="_Path_14" data-name="&lt;Path&gt;" d="M1434.7,295.052l.469-.552" transform="translate(-3.475 -58.859)" fill="none" stroke="#16c1cc" stroke-linecap="square" stroke-width="2"/>
      <path id="_Path_15" data-name="&lt;Path&gt;" d="M1529.893,321.59l-.193-.69" transform="translate(-72.253 -77.972)" fill="none" stroke="#16c1cc" stroke-linecap="square" stroke-width="2"/>
      <path id="_Path_16" data-name="&lt;Path&gt;" d="M1553.686,310.035l-.386-.635" transform="translate(-89.339 -69.647)" fill="none" stroke="#16c1cc" stroke-linecap="square" stroke-width="2"/>
      <path id="_Path_17" data-name="&lt;Path&gt;" d="M1572.77,295.052l-.469-.552" transform="translate(-103.094 -58.859)" fill="none" stroke="#16c1cc" stroke-linecap="square" stroke-width="2"/>
    </g>
  </g>
</svg>
