<?xml version="1.0" standalone="no"?>
<!DOCTYPE svg PUBLIC "-//W3C//DTD SVG 20010904//EN"
 "http://www.w3.org/TR/2001/REC-SVG-20010904/DTD/svg10.dtd">
<svg version="1.0" xmlns="http://www.w3.org/2000/svg"
 width="512.000000pt" height="512.000000pt" viewBox="0 0 512.000000 512.000000"
 preserveAspectRatio="xMidYMid meet">

<g transform="translate(0.000000,512.000000) scale(0.100000,-0.100000)"
fill="#BD3723" stroke="none">
<path d="M2320 5103 c-82 -7 -293 -43 -374 -64 -460 -114 -915 -378 -1236
-716 -372 -393 -598 -855 -682 -1398 -31 -199 -31 -531 0 -730 84 -543 310
-1005 682 -1398 321 -338 776 -602 1236 -716 214 -54 324 -65 614 -65 290 0
400 11 614 65 460 114 915 378 1236 716 372 393 598 856 682 1398 25 166 30
497 9 660 -34 266 -97 497 -203 742 l-31 71 36 44 c59 72 81 131 81 218 0 115
-28 166 -166 304 -116 115 -175 154 -248 163 -37 5 -39 7 -49 55 -18 82 -49
128 -161 241 -80 80 -123 114 -166 134 -107 49 -226 40 -320 -23 l-37 -26
-156 75 c-243 117 -482 192 -741 232 -102 16 -514 28 -620 18z m592 -227 c239
-39 439 -101 671 -208 48 -23 87 -46 87 -53 0 -7 -9 -20 -19 -29 -64 -58 -88
-233 -44 -327 11 -26 37 -64 56 -86 l36 -39 -78 -78 -79 -78 -43 29 c-182 125
-478 234 -716 263 -127 16 -362 13 -478 -5 -380 -61 -702 -224 -969 -491 -265
-266 -429 -595 -487 -974 -17 -111 -17 -383 0 -485 26 -162 87 -368 139 -472
11 -21 25 -69 31 -108 70 -409 390 -742 798 -831 43 -9 137 -18 208 -20 72 -2
185 -13 253 -25 154 -25 391 -27 537 -4 381 61 702 224 969 491 513 515 648
1289 339 1947 l-47 98 91 91 92 91 37 -33 c95 -83 229 -104 348 -55 33 13 61
23 61 22 8 -12 68 -169 89 -232 125 -385 144 -822 55 -1230 -52 -236 -184
-549 -319 -755 -298 -455 -729 -786 -1245 -955 -465 -153 -985 -153 -1450 0
-709 233 -1267 785 -1498 1481 -88 264 -120 463 -120 744 0 375 76 701 239
1029 208 420 506 742 912 986 267 160 584 268 912 310 136 18 497 13 632 -9z
m1193 -242 c19 -9 72 -55 118 -103 107 -111 116 -148 57 -231 -38 -53 -20
-130 37 -159 35 -18 64 -13 118 19 90 53 129 38 261 -102 112 -119 110 -144
-31 -285 -100 -101 -103 -103 -148 -103 -44 0 -51 4 -126 75 -83 77 -112 92
-158 80 -18 -4 -110 -88 -253 -231 -124 -123 -228 -224 -231 -224 -3 0 -62 57
-132 127 l-127 127 225 226 c225 225 246 252 237 308 -2 12 -36 58 -77 101
-113 121 -110 152 23 283 109 109 142 123 207 92z m-1215 -597 c166 -40 309
-97 458 -185 l44 -25 -62 -62 c-55 -56 -67 -63 -109 -67 -81 -8 -149 -48 -275
-162 -342 -308 -662 -484 -1096 -601 -169 -46 -242 -74 -330 -125 -181 -106
-332 -269 -415 -448 -16 -34 -32 -62 -36 -62 -11 0 -24 164 -22 292 9 561 329
1066 839 1321 239 119 415 157 704 152 165 -3 211 -7 300 -28z m434 -562 c42
-20 262 -242 275 -279 14 -36 14 -92 -1 -119 -6 -12 -48 -62 -92 -112 -198
-219 -324 -401 -439 -630 -90 -181 -140 -313 -233 -620 -42 -139 -74 -206
-138 -292 -236 -313 -652 -418 -1004 -253 -322 151 -505 474 -470 830 24 247
149 454 361 599 77 53 163 88 317 130 211 58 337 104 498 181 273 132 453 254
695 475 49 44 98 85 110 92 30 17 83 16 121 -2z m634 -332 c40 -93 87 -257
103 -358 16 -99 16 -333 0 -440 -85 -568 -485 -1043 -1030 -1222 -111 -36
-302 -73 -378 -73 l-46 0 65 49 c35 27 91 78 122 113 122 133 187 254 246 455
152 514 308 806 617 1150 112 125 152 193 161 272 3 38 12 54 50 93 25 27 49
45 53 40 4 -4 21 -39 37 -79z"/>
<path d="M2485 1891 c-30 -13 -53 -42 -70 -91 -51 -145 -168 -244 -317 -270
-114 -20 -220 11 -326 95 -70 54 -113 60 -160 20 -64 -54 -48 -126 45 -200
147 -116 325 -158 508 -120 206 43 385 207 446 408 18 58 19 72 8 99 -21 52
-83 79 -134 59z"/>
</g>
</svg>
