<svg xmlns="http://www.w3.org/2000/svg" xmlns:xlink="http://www.w3.org/1999/xlink" width="400" height="114" viewBox="0 0 400 114">
  <defs>
    <clipPath id="clip-Web_1920_1">
      <rect width="400" height="114"/>
    </clipPath>
  </defs>
  <g id="Web_1920_1" data-name="Web 1920 – 1" clip-path="url(#clip-Web_1920_1)">
    <g id="Layer_2" data-name="Layer 2" transform="translate(20.367 17.79)">
      <g id="Layer_1" data-name="Layer 1" transform="translate(0)">
        <path id="Path_1" data-name="Path 1" d="M336.817,44.294a16.091,16.091,0,0,0,.254,2.9,9.514,9.514,0,0,0,9.206,7.321c6.59,0,10.445-5.536,10.445-13.713,0-7.326-3.546-13.29-10.216-13.29a9.864,9.864,0,0,0-9.37,7.754,13.724,13.724,0,0,0-.343,2.641v6.386Zm-10.38-10.306c0-5.471-.174-9.883-.343-13.8h9.122l.5,6.386h.169c3.039-4.685,7.853-7.326,14.1-7.326,9.45,0,17.313,8.177,17.313,21.123,0,15-9.37,22.232-18.746,22.232-5.148,0-9.45-2.213-11.574-5.536h-.169V78.533h-10.37ZM306.592,61.672h10.385V20.192H306.592V61.672Zm5.148-47.444A5.526,5.526,0,0,1,306,8.6a5.828,5.828,0,0,1,11.653,0,5.55,5.55,0,0,1-5.824,5.625ZM278.555,33.566c0-5.625-.085-9.714-.333-13.374h8.953l.418,7.834h.254c2.024-5.789,6.839-8.774,11.315-8.774a10.663,10.663,0,0,1,2.452.259V29.3a16.736,16.736,0,0,0-3.128-.254c-4.9,0-8.361,3.148-9.286,7.918a18.362,18.362,0,0,0-.254,3.153V61.672h-10.39Zm-15.7-24V20.192h9.883v7.834h-9.883V46.254c0,5.113,1.353,7.664,5.317,7.664a13.489,13.489,0,0,0,4.054-.423l.169,7.918a22.462,22.462,0,0,1-7.515,1.109c-3.884,0-7.008-1.278-8.953-3.407-2.283-2.387-3.293-6.222-3.293-11.673v-19.4h-5.824V20.192h5.829V12.438ZM220.631,33.586c0-5.625-.085-9.714-.338-13.374h8.953l.423,7.834h.249c2.029-5.789,6.844-8.774,11.32-8.774a10.618,10.618,0,0,1,2.447.259V29.3a16.646,16.646,0,0,0-3.123-.254c-4.9,0-8.361,3.148-9.291,7.918a18.4,18.4,0,0,0-.249,3.153V61.672h-10.39V33.566Zm-19.164,7.809c-7.351-.085-14.359,1.447-14.359,7.754,0,4.083,2.616,5.968,5.914,5.968a8.525,8.525,0,0,0,8.187-5.715,6.963,6.963,0,0,0,.259-2.3v-5.71ZM211.6,51.7a56.028,56.028,0,0,0,.671,9.947H202.9l-.761-4.6h-.254c-2.447,3.238-6.754,5.536-12.161,5.536-8.271,0-12.932-6.048-12.932-12.35,0-10.39,9.2-15.757,24.4-15.672V33.9c0-2.726-1.094-7.242-8.356-7.242a21.616,21.616,0,0,0-11.061,3.069l-2.029-6.819a29.456,29.456,0,0,1,14.866-3.661c13.17,0,16.97,8.455,16.97,17.547V51.72ZM163.125,36.545c.09-3.835-1.6-10.136-8.525-10.136-6.416,0-9.122,5.874-9.545,10.136Zm-18.069,7.336c.254,7.5,6.083,10.738,12.668,10.738a32.931,32.931,0,0,0,11.4-1.875l1.517,7.152a36.7,36.7,0,0,1-14.354,2.641c-13.339,0-21.193-8.261-21.193-20.954,0-11.5,6.923-22.317,20.1-22.317,13.339,0,17.731,11.071,17.731,20.188a25.909,25.909,0,0,1-.338,4.427ZM117.611,61.687H128V1.108h-10.39V61.672ZM111.7,60.409a30.345,30.345,0,0,1-11.653,2.129c-12.832,0-21.193-8.346-21.193-21.208,0-12.434,8.455-22.063,22.879-22.063a27.415,27.415,0,0,1,10.047,1.875l-1.855,7.923a16.943,16.943,0,0,0-7.853-1.621c-7.958,0-12.668,5.879-12.583,13.459,0,8.515,5.471,13.374,12.583,13.374a20.527,20.527,0,0,0,8.192-1.616l1.432,7.749Z" transform="translate(-8.03 -0.113)" fill="#204199" fill-rule="evenodd"/>
        <path id="Path_2" data-name="Path 2" d="M61.246,54.515a6.714,6.714,0,0,1-6.71,6.715H6.719A6.719,6.719,0,0,1,0,54.515V7.837A6.719,6.719,0,0,1,6.719,1.108H54.537a6.714,6.714,0,0,1,6.71,6.714Z" transform="translate(0 -0.113)" fill="#f26522" fill-rule="evenodd"/>
        <path id="Path_3" data-name="Path 3" d="M16.965,26.043,24.56,39.288,49.135,18.318l5.66,9.649L23.53,47.658,11.18,35.174Z" transform="translate(-1.139 -1.865)" fill="#fff" fill-rule="evenodd"/>
      </g>
    </g>
  </g>
</svg>
