<svg width="54" height="54" viewBox="0 0 54 54" fill="none" xmlns="http://www.w3.org/2000/svg">
<path d="M53.1976 33.5358C51.905 38.7168 49.1052 43.3981 45.1521 46.9879C41.1991 50.5778 36.2703 52.9149 30.9891 53.7037C25.7078 54.4926 20.3113 53.6977 15.4817 51.4198C10.6522 49.1418 6.60657 45.4829 3.85639 40.9058C1.10622 36.3287 -0.224993 31.0389 0.0310704 25.7053C0.287133 20.3716 2.11897 15.2337 5.29497 10.9411C8.47097 6.64848 12.8485 3.39399 17.8741 1.58911C22.8996 -0.215761 28.3475 -0.489963 33.5289 0.801175C36.9698 1.65901 40.2081 3.18621 43.0588 5.29556C45.9095 7.40491 48.3168 10.0551 50.1432 13.0948C51.9696 16.1345 53.1794 19.5042 53.7035 23.0115C54.2276 26.5188 54.0557 30.0949 53.1976 33.5358Z" fill="#F7931A"/>
<path d="M38.4888 23.1569C39.0062 19.5627 36.3685 17.6314 32.764 16.3426L33.9337 11.4742L31.0776 10.7356L29.939 15.4756C29.1891 15.2812 28.418 15.0985 27.6519 14.9166L28.799 10.1488L25.945 9.41013L24.7746 14.277C24.1534 14.1303 23.5434 13.9836 22.9511 13.8318V13.8164L19.0137 12.796L18.2539 15.9612C18.2539 15.9612 20.3743 16.4651 20.3276 16.4966C20.7226 16.5457 21.0833 16.7537 21.3321 17.0759C21.5809 17.3981 21.6978 17.8089 21.6577 18.2197L20.3219 23.787L18.4539 31.5564C18.413 31.6921 18.3465 31.8179 18.2585 31.9268C18.1704 32.0357 18.0625 32.1254 17.9409 32.1907C17.8193 32.2561 17.6864 32.2959 17.55 32.3078C17.4135 32.3196 17.2761 32.3034 17.1457 32.2599C17.174 32.3032 15.0699 31.7222 15.0699 31.7222L13.6564 35.1155L17.3761 36.0712C18.0673 36.2509 18.7444 36.438 19.4109 36.6162L18.2292 41.5411L21.081 42.2797L22.2521 37.4077C23.0296 37.6278 23.7865 37.8302 24.5272 38.0209L23.3611 42.8695L26.2157 43.6081L27.3975 38.6936C32.2664 39.6471 35.9289 39.2635 37.4683 34.6944C38.7101 31.0144 37.4075 28.8916 34.8454 27.506C36.7113 27.0578 38.1164 25.7844 38.491 23.1533L38.4888 23.1569ZM31.9646 32.6516C31.0812 36.3316 25.1089 34.3431 23.1759 33.8435L24.7435 27.3197C26.6794 27.8214 32.8841 28.8138 31.9646 32.6516ZM32.8467 23.1041C32.0417 26.4512 27.073 24.7509 25.4602 24.3335L26.8815 18.417C28.4944 18.8292 33.6863 19.6089 32.8467 23.1012V23.1041Z" fill="white"/>
</svg>
