<svg xmlns="http://www.w3.org/2000/svg" viewBox="0 0 32 32"><title>Artboard 2</title><g id="Alarm"><path d="M27,23H25V17A9,9,0,0,0,7,17v6H5a1,1,0,0,0-1,1v4a1,1,0,0,0,1,1H27a1,1,0,0,0,1-1V24A1,1,0,0,0,27,23ZM9,17a7,7,0,0,1,14,0v6H9ZM26,27H6V25H26Z" style="fill:#16c1cc"/><path d="M18,16H17V15a1,1,0,0,0-2,0v1H14a1,1,0,0,0,0,2h1v1a1,1,0,0,0,2,0V18h1a1,1,0,0,0,0-2Z" style="fill:#16c1cc"/><path d="M16,7a1,1,0,0,0,1-1V4a1,1,0,0,0-2,0V6A1,1,0,0,0,16,7Z" style="fill:#16c1cc"/><path d="M7.5146,9.9287A1,1,0,1,0,8.9287,8.5146L7.5146,7.1006a1,1,0,0,0-1.414,1.414Z" style="fill:#16c1cc"/><path d="M6,17a1,1,0,0,0-1-1H3a1,1,0,0,0,0,2H5A1,1,0,0,0,6,17Z" style="fill:#16c1cc"/><path d="M24.4854,9.9287l1.414-1.4141a1,1,0,1,0-1.414-1.414l-1.4141,1.414a1,1,0,1,0,1.4141,1.4141Z" style="fill:#16c1cc"/><path d="M29,16H27a1,1,0,0,0,0,2h2a1,1,0,0,0,0-2Z" style="fill:#16c1cc"/></g></svg>