<svg xmlns="http://www.w3.org/2000/svg" xmlns:xlink="http://www.w3.org/1999/xlink" width="150" height="150" viewBox="0 0 150 150">
  <defs>
    <clipPath id="clip-demo-real-estate-icon-01">
      <rect width="150" height="150"/>
    </clipPath>
  </defs>
  <g id="demo-real-estate-icon-01" clip-path="url(#clip-demo-real-estate-icon-01)">
    <rect width="150" height="150" fill="#fff"/>
    <g id="demo-real-estate-icon-01-2" data-name="demo-real-estate-icon-01" transform="translate(-12.973 -48.031)">
      <g id="Group_3" data-name="Group 3" transform="translate(12.973 62.093)">
        <g id="Group_2" data-name="Group 2">
          <path id="Path_1" data-name="Path 1" d="M17.661,130.063a4.687,4.687,0,0,1-4.687-4.687V76.155A14.077,14.077,0,0,1,27.035,62.093H148.912a14.077,14.077,0,0,1,14.061,14.061v48.926a4.687,4.687,0,0,1-9.375,0V76.155a4.692,4.692,0,0,0-4.686-4.687H27.035a4.692,4.692,0,0,0-4.686,4.687v49.22A4.687,4.687,0,0,1,17.661,130.063Z" transform="translate(-12.973 -62.093)" fill="#232323"/>
          <g id="Group_1" data-name="Group 1" transform="translate(0 51.561)">
            <path id="Path_2" data-name="Path 2" d="M158.286,358.882H144.223a4.687,4.687,0,0,1-4.687-4.687v-9.375H36.411v9.375a4.687,4.687,0,0,1-4.687,4.687H17.661a4.687,4.687,0,0,1-4.687-4.687V321.381a4.687,4.687,0,0,1,4.687-4.687H120.787a4.687,4.687,0,1,1,0,9.375H22.348v23.439h4.688v-9.375a4.687,4.687,0,0,1,4.687-4.687h112.5a4.687,4.687,0,0,1,4.687,4.688v9.375H153.6V326.068H139.535a4.687,4.687,0,1,1,0-9.375h18.751a4.687,4.687,0,0,1,4.687,4.687v32.814A4.687,4.687,0,0,1,158.286,358.882Z" transform="translate(-12.973 -288.568)" fill="#232323"/>
            <path id="Path_3" data-name="Path 3" d="M158.293,264.333a4.687,4.687,0,0,1-4.687-4.687V240.895a4.692,4.692,0,0,0-4.686-4.687H27.045a4.692,4.692,0,0,0-4.686,4.687v18.751a4.687,4.687,0,1,1-9.375,0V240.895a14.077,14.077,0,0,1,14.061-14.061H148.919a14.077,14.077,0,0,1,14.061,14.061v18.751A4.687,4.687,0,0,1,158.293,264.333Z" transform="translate(-12.98 -226.833)" fill="#232323"/>
          </g>
        </g>
        <path id="Path_4" data-name="Path 4" d="M110.374,174.467H82.249a9.387,9.387,0,0,1-9.376-9.376V146.339a9.387,9.387,0,0,1,9.376-9.376h28.125a9.387,9.387,0,0,1,9.376,9.376v18.751A9.387,9.387,0,0,1,110.374,174.467ZM82.249,146.338v18.752h28.113l.014-18.752Z" transform="translate(-54.126 -113.53)" fill="#232323"/>
        <path id="Path_5" data-name="Path 5" d="M320.044,174.467H291.919a9.387,9.387,0,0,1-9.376-9.376V146.339a9.387,9.387,0,0,1,9.376-9.376h28.125a9.387,9.387,0,0,1,9.376,9.376v18.751A9.387,9.387,0,0,1,320.044,174.467Zm-28.125-28.128v18.752h28.113l.014-18.752Z" transform="translate(-198.172 -113.53)" fill="#232323"/>
      </g>
    </g>
  </g>
</svg>
