<svg width="54" height="54" viewBox="0 0 54 54" fill="none" xmlns="http://www.w3.org/2000/svg">
<path d="M26.9978 53.9999C32.338 54.0004 37.5584 52.4172 41.9988 49.4507C46.4392 46.4842 49.9002 42.2675 51.9441 37.3339C53.988 32.4004 54.523 26.9715 53.4815 21.7339C52.4399 16.4963 49.8686 11.6851 46.0927 7.9089C42.3168 4.13267 37.5058 1.56095 32.2683 0.518969C27.0308 -0.523008 21.6018 0.0115539 16.6681 2.05505C11.7344 4.09855 7.51745 7.5592 4.55056 11.9994C1.58367 16.4395 8.10617e-05 21.6598 8.1044e-05 27C-0.00862229 30.5479 0.683747 34.0626 2.0374 37.3422C3.39106 40.6218 5.37931 43.6016 7.88799 46.1105C10.3967 48.6193 13.3763 50.6079 16.6558 51.9618C19.9353 53.3157 23.4499 54.0083 26.9978 53.9999Z" fill="#2775CA"/>
<path d="M34.4231 31.2743C34.4231 27.338 32.0605 25.9881 27.3352 25.4235C23.9622 24.9725 23.2853 24.0735 23.2853 22.4991C23.2853 20.9248 24.4117 19.9129 26.6584 19.9129C28.683 19.9129 29.8115 20.5882 30.371 22.2755C30.4292 22.4385 30.536 22.5797 30.6769 22.6802C30.8179 22.7806 30.9862 22.8354 31.1593 22.8372H32.9602C33.0644 22.8398 33.1681 22.8212 33.2649 22.7825C33.3617 22.7438 33.4497 22.6859 33.5234 22.6121C33.5971 22.5384 33.6551 22.4505 33.6938 22.3536C33.7325 22.2568 33.7511 22.1531 33.7484 22.0489V21.9353C33.5309 20.7166 32.917 19.6039 32.002 18.77C31.0871 17.9361 29.9224 17.4277 28.6889 17.3237V14.6238C28.6889 14.1728 28.3515 13.8355 27.7899 13.7248H26.1033C25.6531 13.7248 25.3151 14.0621 25.2043 14.6238V17.21C21.8313 17.661 19.6916 19.9099 19.6916 22.7235C19.6916 26.4361 21.9405 27.8997 26.665 28.4607C29.8181 29.0224 30.8285 29.6977 30.8285 31.4986C30.8285 33.2996 29.2542 34.5359 27.116 34.5359C24.1924 34.5359 23.1797 33.2996 22.8424 31.6116C22.8086 31.4255 22.7116 31.2568 22.5679 31.134C22.4242 31.0111 22.2425 30.9415 22.0534 30.937H20.1418C20.0376 30.9343 19.9339 30.9529 19.8371 30.9916C19.7402 31.0303 19.6523 31.0883 19.5786 31.162C19.5049 31.2357 19.4469 31.3237 19.4082 31.4205C19.3695 31.5173 19.3509 31.621 19.3535 31.7252V31.8389C19.8045 34.6525 21.6025 36.6785 25.3151 37.2387V39.9386C25.3151 40.3896 25.6531 40.7269 26.2141 40.8376H27.9006C28.3515 40.8376 28.6889 40.5003 28.7996 39.9386V37.2358C32.1727 36.6712 34.4238 34.3093 34.4238 31.2713L34.4231 31.2743Z" fill="white"/>
<path d="M21.2607 43.0866C18.023 41.9 15.2279 39.7478 13.2532 36.9209C11.2785 34.0941 10.2196 30.729 10.2196 27.2808C10.2196 23.8326 11.2785 20.4675 13.2532 17.6407C15.2279 14.8138 18.023 12.6616 21.2607 11.475C21.4766 11.3813 21.6577 11.2224 21.7787 11.0206C21.8997 10.8187 21.9544 10.584 21.9353 10.3495V8.77512C21.9511 8.56892 21.8913 8.36402 21.7672 8.19861C21.6431 8.03321 21.4631 7.91858 21.2607 7.87612C21.1016 7.85916 20.9417 7.89946 20.8097 7.98978C16.7137 9.29111 13.1381 11.8622 10.6005 15.331C8.06298 18.7997 6.69519 22.9859 6.69519 27.2837C6.69519 31.5815 8.06298 35.7678 10.6005 39.2365C13.1381 42.7052 16.7137 45.2764 20.8097 46.5777C20.9033 46.632 21.0084 46.6633 21.1163 46.6691C21.2243 46.6748 21.3321 46.6549 21.4309 46.6108C21.5297 46.5668 21.6166 46.5 21.6846 46.4158C21.7525 46.3317 21.7995 46.2326 21.8216 46.1267C21.9353 46.0138 21.9353 45.9031 21.9353 45.6758V44.1022C21.9001 43.8951 21.8218 43.6978 21.7056 43.5229C21.5894 43.3479 21.4379 43.1993 21.2607 43.0866ZM33.1838 7.98685C33.0901 7.93274 32.985 7.90158 32.877 7.8959C32.7691 7.89023 32.6612 7.91021 32.5625 7.9542C32.4637 7.99819 32.3767 8.06494 32.3087 8.149C32.2407 8.23305 32.1935 8.33203 32.1711 8.43781C32.0574 8.55147 32.0574 8.66219 32.0574 8.88877V10.4631C32.0769 10.6898 32.1479 10.909 32.2649 11.104C32.382 11.2991 32.542 11.4649 32.7328 11.5887C35.9701 12.7756 38.7649 14.9279 40.7393 17.7547C42.7137 20.5815 43.7725 23.9464 43.7725 27.3945C43.7725 30.8425 42.7137 34.2074 40.7393 37.0342C38.7649 39.861 35.9701 42.0133 32.7328 43.2002C32.5168 43.2938 32.3355 43.4527 32.2144 43.6546C32.0932 43.8564 32.0383 44.0912 32.0574 44.3258V45.9002C32.0417 46.1065 32.1015 46.3114 32.2258 46.4769C32.35 46.6423 32.5303 46.7568 32.7328 46.7992C32.8917 46.8158 33.0514 46.7758 33.1838 46.6862C37.2774 45.3662 40.8469 42.7819 43.3789 39.305C45.9109 35.8281 47.2751 31.6377 47.2751 27.3365C47.2751 23.0354 45.9109 18.845 43.3789 15.3681C40.8469 11.8912 37.2774 9.30687 33.1838 7.98685Z" fill="white"/>
</svg>
