<svg width="241" height="21" viewBox="0 0 241 21" fill="none" xmlns="http://www.w3.org/2000/svg">
<g clip-path="url(#clip0_444_151957)">
<path d="M226.541 8.68904L240.279 9.45986C239.693 9.87124 239.072 9.68005 238.49 9.66822C236.938 9.63676 235.392 9.77216 233.846 9.76938C232.246 9.76653 230.648 9.83191 229.042 9.75933C227.44 9.6771 225.835 9.69634 224.234 9.81696C223.463 9.88064 222.682 9.526 221.929 9.8859C221.381 10.1486 220.849 9.71703 220.276 9.8462C219.626 9.99231 218.922 9.74453 218.304 9.785C217.006 9.87013 215.723 9.72777 214.435 9.73629C212.931 9.74619 211.422 9.76715 209.915 9.65756C209.073 9.59633 208.218 9.76105 207.368 9.77941C206.939 9.78871 206.509 9.67156 206.078 9.66048C205.48 9.64511 204.818 9.51163 204.302 9.73592C203.846 9.93453 203.682 9.35895 203.216 9.60946C202.563 9.95979 201.761 9.31513 200.996 9.79034C200.71 9.96801 200.201 9.63897 199.789 9.56672C199.383 9.49541 199.03 9.56531 198.675 9.64179C197.9 9.80891 197.169 9.62735 196.409 9.54572C195.885 9.48933 195.293 9.39527 194.77 9.50242C194.151 9.62914 193.519 9.42277 192.995 9.53403C192.221 9.69806 191.416 9.219 190.7 9.74183C190.677 9.75819 190.616 9.71459 190.573 9.70045C189.405 9.3204 188.227 9.15674 187.095 9.78189C186.767 9.96322 186.917 9.55489 186.652 9.52332C185.826 9.42468 185.039 9.65064 184.234 9.63417C183.914 9.62761 183.777 9.33205 183.455 9.33191C182.795 9.33165 182.156 9.52574 181.487 9.46849C180.945 9.42219 180.176 9.22092 179.9 9.40814C179.225 9.86577 178.549 9.54122 177.984 9.53706C177.125 9.53066 176.201 9.77142 175.352 9.41101C175.127 9.31561 174.933 9.36535 174.727 9.3928C173.766 9.52136 172.795 9.59907 171.869 9.27853C171.467 9.13927 171.247 9.4688 170.88 9.46773C169.574 9.4642 168.272 9.31043 166.959 9.41136C165.843 9.49735 164.699 9.27401 163.596 9.42714C162.837 9.53258 162.113 9.36858 161.368 9.41224C160.382 9.46987 159.36 9.37229 158.372 9.39513C157.728 9.41003 157.042 9.31379 156.387 9.50467C155.94 9.63502 155.449 9.55135 155.012 9.54234C153.581 9.5118 152.165 9.63183 150.742 9.70475C150.217 9.73157 149.685 9.54472 149.154 9.47497C148.602 9.40239 148.058 9.5693 147.497 9.55362C146.956 9.53848 146.398 9.46333 145.879 9.51407C145.387 9.56245 144.903 9.67896 144.4 9.60753C143.49 9.47835 142.578 9.79761 141.668 9.60954C141.6 9.59537 141.499 9.50795 141.477 9.52885C140.689 10.2845 139.678 9.13986 138.881 9.87759C138.77 9.97956 138.545 9.80901 138.412 9.82264C137.978 9.86712 137.494 9.39516 137.094 9.96336C137.03 10.0545 136.699 10.0786 136.624 9.99743C136.173 9.51587 135.653 9.79499 135.151 9.77026C133.783 9.70478 132.411 9.74153 131.046 9.88022C130.147 9.96971 129.193 9.66921 128.294 9.71227C127.243 9.76271 126.143 9.45157 125.169 9.78111C124.36 10.0545 123.664 9.56769 122.889 9.82831C122.149 10.0775 121.307 10.0066 120.542 9.96863C119.898 9.93657 119.283 9.85266 118.663 10.0665C118.281 10.1983 117.959 9.86606 117.644 9.89238C116.99 9.94705 116.35 9.77559 115.69 9.88258C114.912 10.0087 114.14 9.6992 113.317 9.86078C112.403 10.0403 111.427 9.9105 110.499 9.97491C109.688 10.0311 108.928 9.79681 108.132 9.85686C107.094 9.93516 106.034 10.0139 105.011 9.87351C104.085 9.74645 103.179 10.4276 102.27 9.86376C102.077 9.74372 101.842 9.85568 101.645 9.94256C101.157 10.1579 100.67 10.0069 100.181 9.97686C99.4788 9.93367 98.7707 9.82381 98.0743 9.87911C96.9598 9.96774 95.8606 10.0195 94.743 9.87323C94.2352 9.80694 93.6932 10.0935 93.1668 10.0952C92.2268 10.098 91.2787 9.90034 90.3494 9.98414C89.4495 10.0653 88.5527 9.97471 87.6468 10.0875C86.9038 10.18 86.0884 10.0479 85.3417 10.1481C84.683 10.2366 83.9815 9.73456 83.3765 10.3043C83.2761 10.3987 83.2114 10.3333 83.1237 10.3056C81.9486 9.93482 80.7517 10.1779 79.5652 10.2029C79.0653 10.2134 78.5904 10.2349 78.1109 10.0244C77.8043 9.88981 77.6169 10.2848 77.3347 10.3833C76.6415 10.625 76.0736 10.1078 75.3952 10.1837C74.177 10.3197 72.9397 10.1871 71.7305 10.5546C71.3841 10.6598 70.9683 10.5253 70.5888 10.5172C69.8631 10.5017 69.1357 11.0553 68.4168 10.5507C67.9555 10.9952 67.3259 10.2317 66.881 10.7935C65.9296 10.4371 64.9688 11.3178 64.0172 10.7813C63.9825 10.7618 63.8956 10.7658 63.8874 10.7847C63.6208 11.4048 63.0969 11.113 62.7184 11.0807C62.2269 11.0388 61.7609 11.1158 61.2861 11.1692C61.0783 11.1925 60.8929 11.2643 60.7958 10.9665C60.7519 10.832 60.6274 10.757 60.4415 10.815C59.3335 11.1575 58.1717 11.2599 57.0266 11.116C56.4602 11.0487 55.9603 11.1692 55.4973 11.5343C55.1413 11.8149 54.7564 11.5123 54.3829 11.5144C53.8476 11.5173 53.3254 11.3632 52.7654 11.4083C52.4667 11.4323 52.1912 11.5309 51.9104 11.5466C51.2445 11.5837 50.5956 11.8627 49.8969 11.6167C49.6227 11.5201 49.1547 11.2651 48.8988 11.8005C48.8751 11.8501 48.6742 11.8789 48.6529 11.8465C48.3127 11.3276 48.0279 11.6087 47.7276 11.8956C47.6664 11.9541 47.5248 12.0101 47.4749 11.9768C46.8739 11.5755 46.1944 11.9551 45.5743 11.7559C44.7786 11.5003 44.0118 11.6352 43.2408 11.933C42.9702 12.0374 42.651 11.9903 42.3423 11.896C41.9978 11.7906 41.5973 11.5546 41.2909 12.0228C41.2647 12.0628 41.159 12.0777 41.1037 12.0595C40.0303 11.7069 38.9329 12.052 37.8575 11.9347C37.4682 11.8921 37.1426 11.7542 36.9145 12.208C36.8953 12.2201 36.8736 12.2275 36.8513 12.2295C36.8289 12.2316 36.8065 12.2283 36.7855 12.2199C36.2799 11.3561 35.4137 12.168 34.7957 11.7519C34.565 11.5966 34.4949 12.0381 34.1972 12.103C33.6455 12.2234 33.3084 11.7531 32.7918 11.803C32.0401 11.8756 31.1531 11.4894 30.5443 11.7926C29.9138 12.1065 29.5064 11.7735 29.0138 11.7504C27.9817 11.7023 26.9265 11.8949 25.9207 11.5518C25.4535 11.3924 25.0879 11.8506 24.5954 11.6539C24.1412 11.4723 23.6489 11.4212 23.169 11.506C22.1968 11.706 21.1624 11.1253 20.2404 11.7989C20.1512 11.8641 20.0709 11.7966 19.9821 11.7522C19.0092 11.2668 18.0012 11.3366 16.9743 11.5312C16.5152 11.6181 16.0626 11.4098 15.5699 11.4837C14.71 11.6126 13.8273 11.5636 12.9547 11.6039C11.8959 11.6531 10.868 11.9514 9.79865 11.9939C8.95622 12.0275 8.12105 12.3557 7.28932 12.5825C7.11012 12.6313 6.96535 12.6835 6.82865 12.536C6.65883 12.3529 6.84118 12.2209 6.9016 12.0683C7.19704 11.3214 7.87607 11.2806 8.47853 11.1636C8.89535 11.0827 9.26624 10.813 9.72016 10.8693C9.87215 10.888 9.89226 10.663 9.88095 10.5034C9.8786 10.4647 9.86827 10.4271 9.85068 10.3931C9.83309 10.3592 9.80865 10.3297 9.77909 10.3067C9.74952 10.2837 9.71553 10.2679 9.67948 10.2602C9.64344 10.2525 9.60621 10.2532 9.57039 10.2622C8.55498 10.583 7.46243 10.114 6.46844 10.6168C6.36395 10.6697 6.23921 10.7422 6.13628 10.7249C4.6197 10.4707 3.12441 11.1656 1.59799 10.8285C0.988583 10.6938 0.945025 10.7673 0.976964 10.5699C1.05707 10.0741 1.25495 9.69236 1.81897 9.78428C2.45755 9.88833 3.02548 9.54491 3.64036 9.49171C5.3625 9.34267 7.0687 9.05025 8.80825 9.02381C9.413 9.01459 10.0808 8.80885 10.7196 8.68961C11.1056 8.61763 11.4693 8.92739 11.8753 8.62961C12.1415 8.43439 12.5272 8.06242 12.8925 8.57462C12.9248 8.61992 13.1327 8.6097 13.1642 8.55952C13.586 7.88502 14.2108 8.27479 14.6362 8.38198C15.6445 8.63576 16.5083 8.2423 17.4162 7.98863C17.5056 7.96363 17.6219 7.84057 17.6651 7.86811C18.4553 8.37036 19.2963 8.0024 20.075 7.91709C20.9697 7.81907 21.8672 8.23208 22.7782 7.74761C23.1889 7.52932 23.8075 7.71436 24.326 7.77198C24.5117 7.79257 24.6593 7.85267 24.8604 7.7649C25.6584 7.41695 26.4762 7.44875 27.3122 7.63272C27.582 7.69212 27.8485 7.46324 28.1879 7.50518C28.9492 7.59938 29.7284 7.52802 30.4985 7.56381C30.6413 7.57043 30.821 7.62842 30.9068 7.54029C31.2157 7.22186 31.5737 7.32994 31.931 7.26979C32.4096 7.18955 32.8375 7.48342 33.2199 7.37036C33.7507 7.21328 34.3563 7.38428 34.8338 6.91657C35.0685 6.68665 35.0095 7.38813 35.4667 7.23773C36.2869 6.9679 37.1843 7.22895 38.0187 7.13495C38.7033 7.05785 39.387 7.55383 40.0465 7.07577C40.4417 6.78938 40.8122 7.02474 41.1879 7.1728C41.726 7.38488 42.2703 7.16347 42.7834 7.07205C43.5363 6.93797 44.296 7.08933 45.0651 6.87291C45.3459 6.79387 46.0034 6.86596 46.5164 7.11218C46.9518 7.32108 47.7389 7.28178 48.3486 6.987C48.7157 6.8094 49.2009 6.97568 49.5152 6.55204C49.5409 6.51786 49.9517 6.91952 50.1731 6.90665C51.096 6.85302 52.0354 6.94653 52.934 6.79497C53.4409 6.70947 53.9145 6.81985 54.3893 6.8107C55.5502 6.78827 56.7225 6.87167 57.8878 6.93878C58.9295 6.99869 59.9879 6.67933 61.0436 6.59025C61.6407 6.53989 62.3073 6.79081 62.8328 6.58789C63.3858 6.37439 63.9713 7.01266 64.4547 6.38365C64.5603 6.24631 64.7666 6.54865 64.9382 6.62038C65.1365 6.7033 65.3595 6.94782 65.5031 6.53665C65.5437 6.42111 65.6214 6.29215 65.7625 6.43621C66.1523 6.83453 66.5764 6.4951 66.9739 6.47058C67.3892 6.44548 67.8026 6.22483 68.1371 6.66933C68.1606 6.70073 68.2419 6.7292 68.2602 6.71316C68.7405 6.29437 69.3687 6.96229 69.8458 6.45703C70.0975 6.19045 70.2934 6.58508 70.5563 6.57569C72.2629 6.51476 73.9603 6.79414 75.6806 6.60235C76.8586 6.47097 78.0673 6.68797 79.2554 6.61619C79.8158 6.5823 80.391 6.67382 80.8811 6.62744C82.1106 6.51096 83.41 6.88205 84.502 6.54605C85.5568 6.22121 86.2369 6.91205 87.1172 6.87354C88.2495 6.82393 89.3672 6.62305 90.5108 6.60703C91.3165 6.59574 92.106 6.88977 92.8513 6.74235C93.5932 6.5956 94.2574 6.83857 94.9206 6.81784C95.9991 6.78408 97.1127 6.9038 98.1421 6.7139C98.8143 6.58982 99.4431 6.71999 100.084 6.6605C100.826 6.59166 101.609 6.6839 102.373 6.7907C103.001 6.88438 103.642 6.85061 104.259 6.69121C104.672 6.57641 104.722 7.07318 105.071 6.97727C105.489 6.86247 105.921 6.95596 106.368 6.78807C107.03 6.53962 107.743 6.83405 108.436 6.86911C109.265 6.91098 110.131 7.06438 110.912 7.02707C111.477 7.00041 112.139 7.03694 112.759 6.90695C113.393 6.77416 114.169 6.94468 114.879 7.02589C115.204 7.06312 115.586 6.85427 116.008 6.93505C117.017 7.12783 118.077 6.87032 119.047 6.97217C120.09 7.08165 121.155 6.77193 122.215 7.20541C122.786 7.43895 123.562 7.17212 124.234 7.0535C124.429 7.01895 124.609 6.97841 124.775 7.05478C125.512 7.39437 126.207 7.26936 126.982 7.09987C127.394 7.00955 128.003 7.26437 128.517 7.37065C128.875 7.44475 129.069 7.20222 129.367 7.1906C130.068 7.16309 130.817 7.6906 131.494 7.06395C131.626 6.94273 131.83 6.96915 131.995 7.1362C132.288 7.4315 132.672 7.3663 133.004 7.2781C133.836 7.04961 134.707 7.02686 135.548 7.21162C136.369 7.38853 137.223 7.32375 138.058 7.18631C138.807 7.0633 139.533 7.3003 140.274 7.31406C140.67 7.32148 141.051 7.53685 141.402 7.14184C141.58 6.94199 141.802 7.15836 141.998 7.20393C142.457 7.31836 142.934 7.32614 143.397 7.22675C143.898 7.12488 144.509 7.05207 145.062 7.10197C146.228 7.2125 147.401 7.21854 148.568 7.12003C149.235 7.06155 149.951 6.85243 150.625 7.17576C150.668 7.19652 150.734 7.22919 150.762 7.21051C151.792 6.53012 152.878 7.54834 153.818 7.15705C154.527 6.86216 155.291 7.38711 155.897 6.78241C156.019 6.6607 156.146 6.76724 156.279 6.85691C156.767 7.18705 156.771 7.17292 157.351 6.80815C157.468 6.7346 157.567 6.83969 157.677 6.89622C158.144 7.13726 158.586 7.38793 159.144 7.00946C159.335 6.87945 159.703 6.91549 160.026 6.96367C160.957 7.10262 161.933 7.27235 162.817 6.72669C163.233 6.46988 163.302 7.21038 163.694 6.99011C164.15 6.73371 164.705 6.90068 165.161 6.88123C165.635 6.8608 166.2 6.77555 166.702 6.90311C167.627 7.13818 168.566 7.06128 169.471 6.91436C169.989 6.83646 170.514 6.82411 171.035 6.87759C171.541 6.92112 172.079 7.22518 172.424 6.5379C172.443 6.49983 172.582 6.4757 172.618 6.5064C173.528 7.29589 174.618 6.71442 175.605 6.92545C175.819 6.97118 176.154 7.04598 176.288 6.68014C176.515 6.78099 176.721 6.5271 176.969 6.6602C177.659 7.03154 178.328 7.00196 179.06 6.65676C179.368 6.51148 179.816 6.85364 180.238 6.84798C180.577 6.8435 180.928 6.86788 181.255 7.12194C181.466 7.28584 181.713 6.90403 182.032 6.87931C183.075 6.79823 184.123 6.96302 185.14 6.86101C185.787 6.79615 186.306 7.28139 187.023 6.98359C187.592 6.74726 188.367 7.11912 189.052 7.13247C190.457 7.15994 191.873 6.85409 193.26 7.30778C193.903 6.8318 194.734 7.02324 195.299 7.13742C196.602 7.40125 197.909 7.06978 199.193 7.40432C199.808 7.56433 200.458 7.28139 201.135 7.36799C202.533 7.55673 203.946 7.60396 205.354 7.50904C206.788 7.40119 208.195 7.63069 209.602 7.59612C210.32 7.57849 211.085 7.66309 211.859 7.48519C212.42 7.35618 213.234 7.534 213.931 7.61391C215.051 7.75071 216.184 7.73143 217.301 7.55657C217.583 7.51041 217.779 7.71264 218.086 7.69758C219.383 7.6335 220.685 7.70988 221.986 7.76317C223.064 7.8073 224.147 7.9103 225.226 7.85062C225.604 7.83637 225.982 7.8448 226.359 7.87585C227.202 7.92923 228.043 7.91401 228.884 7.91338C229.799 7.91281 230.727 7.94404 231.647 8.0005C231.758 8.00728 231.909 7.95746 231.92 8.14956C231.936 8.42742 231.702 8.31393 231.61 8.31595C230.098 8.34906 228.586 8.37404 227.074 8.36736C226.893 8.35734 226.712 8.39581 226.549 8.47917C226.546 8.54878 226.544 8.61874 226.541 8.68904ZM21.4769 9.74265C21.7788 10.4256 22.4105 9.87086 22.8609 10.1362C23.1305 10.2949 22.9924 9.63103 23.3055 9.62C22.7732 8.99907 22.1066 9.91193 21.5658 9.40418C21.5417 9.52496 21.5174 9.64575 21.494 9.76733C20.9564 9.28142 20.3416 9.82853 19.7711 9.64107C19.6574 9.60374 19.6012 9.96915 19.7269 9.9465C20.308 9.84156 20.9452 10.2595 21.4769 9.74265ZM53.0327 8.85823C52.7487 8.50917 52.5079 8.85814 52.3205 8.82962C51.4898 8.70323 50.6796 8.56002 49.8629 8.91685C49.7565 8.94638 49.6456 8.95257 49.5369 8.935C48.2348 8.72693 46.9348 8.52397 45.6337 8.93478C45.4752 8.98486 45.3123 8.97256 45.2199 8.89272C44.8369 8.56163 44.2438 8.77821 44.0872 8.88318C43.6065 9.20514 43.291 8.99945 42.9334 8.79083C42.75 8.68382 42.5904 8.59173 42.408 8.7499C41.9207 9.17213 41.3283 8.93983 40.8006 8.98634C39.9665 9.05984 39.1252 8.9082 38.2692 9.02394C37.8085 9.08625 37.3486 9.26984 36.8073 9.14286C36.3786 9.0422 35.8586 8.7523 35.3439 9.06186C35.0996 9.20865 34.7465 9.63999 34.5377 8.97161C34.4912 8.82252 34.3272 8.86958 34.2335 8.95707C33.882 9.28533 33.4919 9.24586 33.1128 9.06931C32.5748 8.81866 32.0643 9.18628 31.5324 9.1875C30.3819 9.19021 29.2011 9.21347 28.035 9.3324C27.2961 9.40786 26.4933 9.62375 25.73 9.24164C25.4287 9.09072 25.3332 9.60273 25.0513 9.642C25.237 9.75663 25.2611 10.07 25.565 10.0517C26.6108 9.99219 27.6593 10.0418 28.6952 10.1998C29.3277 10.293 30.0533 9.98211 30.7633 10.1841C30.9449 10.2358 31.1728 9.9295 31.4177 10.1334C31.8011 10.4527 32.2496 10.1884 32.6534 10.2749C33.0397 10.3577 33.371 10.1353 33.7405 10.1089C34.4578 10.0578 35.1217 10.1966 35.8087 10.2972C36.8458 10.449 37.8661 10.0505 38.9289 10.1845C39.36 10.2388 39.9332 10.5123 40.3301 10.1771C40.6117 9.93922 40.7754 10.0002 40.8957 10.2054C41.166 10.6664 41.3796 10.4754 41.5 10.1468C41.6292 9.7942 41.946 9.80277 42.0522 9.92627C42.6849 10.6639 43.4326 9.93026 44.1291 10.1351C44.6761 10.2961 45.3862 9.85568 45.9297 10.0212C46.6336 10.2356 47.1316 9.70412 47.773 9.73577C48.0834 9.75102 48.6891 9.97021 48.897 9.34605C49.7551 9.71952 50.5847 9.35229 51.3965 9.16042C51.9308 9.03435 52.5247 9.333 53.0327 8.85823ZM10.0333 10.4422C11.1454 10.8216 12.1664 10.3472 13.378 10.1583C12.1285 9.9428 11.0936 10.3512 10.0333 10.4422ZM56.3564 8.46256C56.904 8.97415 58.1417 8.96604 58.4871 8.53368C57.7763 8.59622 57.0614 8.57242 56.3564 8.46275L56.3564 8.46256ZM24.6142 10.1363C24.7241 10.0706 24.8513 10.0146 24.8349 9.82331C24.8145 9.5833 24.7506 9.34057 24.4929 9.32665C24.3123 9.31687 24.0924 9.42221 24.1355 9.68651C24.1754 9.93149 24.3848 10.0341 24.6142 10.1363Z" fill="#97E14D"/>
</g>
<defs>
<clipPath id="clip0_444_151957">
<rect width="239.143" height="12" fill="white" transform="translate(1.30371 0.438477) rotate(1.8753)"/>
</clipPath>
</defs>
</svg>
