<svg id="cdnlogo.com_the-guardian" xmlns="http://www.w3.org/2000/svg" width="545.5" height="96.033" viewBox="0 0 545.5 96.033">
  <path id="Path_10" data-name="Path 10" d="M35.36,22.9H24.123l.063-12L7.555,13.379v9.268L0,23.79v7.364H7.808L7.745,63.467C7.8,64.629,9.666,75.115,21.012,74.449c12.87-.755,13.966-2.221,15.109-2.984-.091.094,0-6.284,0-6.284l-6.983.191a5.143,5.143,0,0,1-4.571-4.635c-.025,0-.127-29.456-.127-29.456l10.919.063V22.9ZM59.53,0,37.073,3.222l.032,4.285,5.967,2.667.063,56.086-5.65,2.222.064,4.6,27.551.032V68.545l-5.555-2.413.032-33.17a20.2,20.2,0,0,1,7.491-1.4c4.348,0,6.348,2.793,6.348,4.507V66.228l-5.079,2.253v4.635H95.826V68.672l-5.65-2.762V31.916S90.3,21.124,77.8,21.663c-7.609.046-13,2.444-18.3,6.634C59.5,28.281,59.5.032,59.53,0Zm83.761,49.34c.638-11.066-.519-28.71-22.849-27.651C98.562,22.726,95.8,39.464,95.934,50.282c1.257,17.481,10.271,23.979,27.2,24.24,13.377-.449,18.225-7.5,18.225-7.5V62.291a49.821,49.821,0,0,1-12.883,1.84c-15.621-.107-15.442-14.791-15.442-14.791h30.255Zm-30.3-5.88s-.093-7.133,1.33-11.663c1.135-3.614,3.43-4.808,6.077-4.812,4.409-.007,5.511,2.465,6.006,5.5a60.644,60.644,0,0,1,.547,10.343Z" fill="#b2c9d9"/>
  <path id="Path_11" data-name="Path 11" d="M497.413,62.361H477.48A3.511,3.511,0,0,1,474.369,59c-.127-3.047,2.031-3.809,2.031-3.809a34.624,34.624,0,0,0,8.7,1.27c4.443,0,21.9-1.841,21.9-16.95a14.27,14.27,0,0,0-5.4-10.792l9.653,2.586-.163-9.918L497.16,23.955s-7.236-2.634-12.379-2.634c-3.46,0-21.3,1.371-21.95,17.033a16.134,16.134,0,0,0,8.809,15.183c-.064,0-8.888,5.459-8.951,12.252-.061,6.54,7.407,8.548,7.962,8.688.024,0,.037,0,.036.009l-.036-.009c-.717-.021-12.154,2.127-12.152,10.166,0,7.681,12.7,11.427,26.155,11.49S512.9,92.388,512.9,76.454s-15.49-14.094-15.49-14.094Zm-12.76-35.01c6.19-.032,6.221,6.38,6.253,9.078v4.793s.825,8.634-5.714,8.665-6.348-5.015-6.348-8.665v-5.65S478.465,27.383,484.654,27.351Zm.032,62.689c-9.205,0-12.506-3.745-12.506-7.364a6.115,6.115,0,0,1,2.254-5.11l19.965-.032s3.968.444,3.968,3.936C498.366,86.835,493.891,90.04,484.686,90.04Zm50.626-68.371-22.473,3.492v4.38l5.777,2.793V60.584s.3,13.873,13.9,14.03a20.76,20.76,0,0,0,16.569-7.555v7.428l21.774-2.6v-4L565.3,64.672V21.8L542.93,25.289v4.19l5.9,2.983V62.617s-1.523,1.27-6.411,1.65-7.11-4.253-7.11-4.253Zm40.144,3.622s10.728-3.905,19.572-3.905,21.636,3.007,21.636,14.005V65.87l5.476,2.873v3.636a22.028,22.028,0,0,1-9.651,2.11c-5.746,0-10.728-2.918-10.728-7.317-1.249.022-1.7,7.227-15.172,7.227-15.711,0-14.5-13.916-14.5-14.185s-.452-10.388,11-12.569c11.312-2.154,16.564-3.007,16.564-3.007L599.6,34.4s-.932-6.195-6.274-6.15-5.3.09-5.3.09l-3.77,10.279h-8.843l.045-13.332Zm24.621,38.357V49.823s-11.268-1.01-11.29,8.012c-.016,6.793,4.252,7.586,6.195,7.586A10.453,10.453,0,0,0,600.078,63.648Zm45.046-42.442-21.95,3.456v4.579l5.656,2.693V65.915l-5.252,2.693v4.309h28.909v-4.13L645.574,66l.045-28.055a27.467,27.467,0,0,1,8.843-1.751,33.852,33.852,0,0,1,6.644.494V22.013s-9.407-2.947-16.07,10.19c0,.046.089-11,.089-11Zm43.5-16.743V8.907l5.521,2.648v12.03a22.05,22.05,0,0,0-8.529-1.841c-4.668,0-23.746.718-24.285,26.933s19.84,25.856,19.661,25.856,9.337.27,13.646-5.3c-.022,0-.045,5.274-.045,5.274l21.57-2.626V67.621l-5.185-2.648L710.931.962l-22.31,3.5Zm5.5,25.991v34.07a12.2,12.2,0,0,1-5.095.9c-5.392,0-9.953-3.669-9.921-15.487.029-10.324,1.536-18.435,6.051-20.559A9,9,0,0,1,694.12,30.454ZM740.741,9.322A9.173,9.173,0,1,1,731.568.149a9.176,9.176,0,0,1,9.173,9.173Zm-.381,12.093-22.79,3.238v4.38l5.967,2.92V65.98l-5.459,2.476V73.09H745.5V68.646l-5.205-2.54.063-44.691Zm10.4,3.82s10.729-3.905,19.572-3.905,21.637,3.007,21.637,14.005V65.814l5.476,2.873v3.636a22.024,22.024,0,0,1-9.651,2.11c-5.746,0-10.729-2.918-10.729-7.317-1.248.022-1.7,7.227-15.172,7.227-15.711,0-14.5-13.915-14.5-14.185s-.452-10.388,11-12.569c11.311-2.155,16.564-3.008,16.564-3.008L774.9,34.347s-.932-6.195-6.274-6.15-5.3.09-5.3.09l-3.771,10.279H750.72l.044-13.332Zm24.622,38.357V49.767s-11.268-1.01-11.29,8.013c-.016,6.792,4.252,7.586,6.2,7.586A10.459,10.459,0,0,0,775.386,63.592Zm45.277-42.3-22.409,3.555V29.1l6.031,2.857v34.28l-5.522,2.222v4.761h27.424v-4.7l-5.079-2.413V32.969a17.372,17.372,0,0,1,6.729-1.27c4,0,7.11,1.778,7.11,5.713V66.107l-5.627,2.765-.023,4.218h27.932V68.583L851.769,66.3v-31.8s.381-12.7-12.506-12.7-18.537,6.792-18.537,6.792l-.063-7.3Z" transform="translate(-311.729 -0.101)" fill="#00417b"/>
</svg>
