<svg width="54" height="54" viewBox="0 0 54 54" fill="none" xmlns="http://www.w3.org/2000/svg">
<path d="M27 54C41.9117 54 54 41.9117 54 27C54 12.0883 41.9117 0 27 0C12.0883 0 0 12.0883 0 27C0 41.9117 12.0883 54 27 54Z" fill="#3CC8C8"/>
<path d="M26.4839 7.6812C26.6798 7.5962 26.895 7.56605 27.1067 7.59398C27.3184 7.6219 27.5185 7.70686 27.6856 7.83974C27.8528 7.97263 27.9806 8.14844 28.0555 8.34838C28.1304 8.54832 28.1495 8.76487 28.1109 8.97485C28.0722 9.18483 27.9771 9.38034 27.8359 9.54047C27.6947 9.7006 27.5126 9.81933 27.3091 9.88394C27.1056 9.94855 26.8883 9.95661 26.6806 9.90728C26.4729 9.85794 26.2824 9.75307 26.1297 9.60386C25.9959 9.46683 25.8968 9.29966 25.841 9.11641C25.7852 8.93316 25.7741 8.73919 25.8088 8.5508C25.8435 8.3624 25.923 8.18509 26.0404 8.03377C26.1579 7.88245 26.31 7.76153 26.4839 7.6812ZM16.6235 8.74372C16.7669 8.6979 16.9193 8.68777 17.0674 8.7142C17.2156 8.74064 17.3551 8.80284 17.4737 8.89541C17.5924 8.98798 17.6867 9.10812 17.7484 9.2454C17.8101 9.38267 17.8374 9.53295 17.8278 9.68315C17.8183 9.83336 17.7722 9.97895 17.6936 10.1073C17.615 10.2357 17.5063 10.3429 17.3768 10.4197C17.2474 10.4965 17.1012 10.5405 16.9509 10.548C16.8005 10.5555 16.6507 10.5261 16.5143 10.4625C16.3493 10.3809 16.2121 10.2524 16.12 10.093C16.0279 9.9337 15.9849 9.75068 15.9965 9.567C16.0081 9.38332 16.0738 9.20716 16.1852 9.06068C16.2966 8.91419 16.4488 8.80392 16.6228 8.74372M36.8194 10.4816C36.6277 10.4409 36.454 10.3402 36.3234 10.1941C36.1929 10.0481 36.1123 9.86414 36.0933 9.66912C36.0743 9.4741 36.118 9.27811 36.218 9.1096C36.318 8.94108 36.4691 8.8088 36.6493 8.73198C37.299 8.41521 37.8959 9.0099 37.9905 9.62585C37.9716 9.75998 37.926 9.88895 37.8564 10.0051C37.7867 10.1213 37.6944 10.2223 37.585 10.3021C37.4756 10.3819 37.3512 10.4389 37.2193 10.4698C37.0874 10.5006 36.9507 10.5046 36.8172 10.4816M18.8644 12.941C19.0905 12.8146 19.3468 12.7522 19.6057 12.7604C19.8646 12.7686 20.1164 12.8472 20.3341 12.9876C20.5518 13.1281 20.7271 13.3251 20.8413 13.5576C20.9555 13.7901 21.0043 14.0493 20.9823 14.3075C20.9604 14.5656 20.8686 14.8129 20.7168 15.0228C20.565 15.2327 20.359 15.3973 20.1207 15.499C19.8825 15.6007 19.621 15.6357 19.3644 15.6001C19.1079 15.5645 18.8658 15.4597 18.6642 15.297C18.4853 15.1488 18.3449 14.9595 18.2551 14.7452C18.1652 14.531 18.1285 14.2982 18.1482 14.0667C18.1679 13.8352 18.2433 13.6119 18.368 13.4158C18.4927 13.2198 18.663 13.0569 18.8644 12.941ZM33.0783 13.5658C33.1926 13.3248 33.3716 13.1203 33.5953 12.9751C33.819 12.8299 34.0787 12.7496 34.3453 12.7433C34.6119 12.737 34.8751 12.8049 35.1054 12.9394C35.3358 13.0738 35.5243 13.2696 35.6499 13.5049C35.7425 13.702 35.7914 13.9168 35.7932 14.1346C35.795 14.3524 35.7498 14.568 35.6605 14.7666C35.5712 14.9652 35.44 15.1422 35.2759 15.2854C35.1118 15.4286 34.9187 15.5346 34.7098 15.5962C34.4478 15.6415 34.1785 15.6159 33.9298 15.5219C33.6811 15.4279 33.4621 15.2691 33.2956 15.0618C33.1291 14.8546 33.0211 14.6065 32.9829 14.3434C32.9446 14.0803 32.9776 13.8118 33.0783 13.5658ZM25.2967 15.5317C25.322 15.0914 25.5105 14.6763 25.8256 14.3677C26.1406 14.059 26.5594 13.879 27.0001 13.8627C27.3024 13.8907 27.5933 13.9916 27.8478 14.1569C28.1024 14.3222 28.313 14.5469 28.4615 14.8116C28.5645 15.0128 28.6259 15.2326 28.642 15.4581C28.6581 15.6835 28.6285 15.9099 28.5552 16.1237C28.4818 16.3374 28.3661 16.5342 28.2149 16.7022C28.0638 16.8703 27.8803 17.0061 27.6755 17.1016C27.2769 17.2577 26.8418 17.2956 26.4223 17.2109C26.0899 17.0733 25.8056 16.8405 25.6053 16.5417C25.405 16.2428 25.2976 15.8914 25.2967 15.5317ZM10.6312 16.8721C10.8192 16.7749 11.03 16.7301 11.2413 16.7426C11.4526 16.755 11.6567 16.8242 11.832 16.9428C12.0073 17.0615 12.1474 17.2252 12.2375 17.4167C12.3277 17.6082 12.3645 17.8205 12.3442 18.0312C12.3239 18.2419 12.2472 18.4433 12.1221 18.614C11.997 18.7848 11.8282 18.9187 11.6335 19.0017C11.4387 19.0846 11.2252 19.1135 11.0154 19.0854C10.8056 19.0572 10.6072 18.973 10.4412 18.8417C10.2904 18.7174 10.1725 18.558 10.0977 18.3775C10.0229 18.197 9.99357 18.0009 10.0123 17.8064C10.0311 17.6119 10.0973 17.4249 10.2052 17.262C10.3131 17.0991 10.4594 16.9652 10.6312 16.8721ZM42.1218 16.8721C42.2931 16.757 42.4917 16.6892 42.6976 16.6754C42.9035 16.6616 43.1094 16.7024 43.2945 16.7936C43.4796 16.8848 43.6374 17.0232 43.7519 17.1949C43.8664 17.3666 43.9337 17.5654 43.9468 17.7713C43.9599 17.9773 43.9185 18.1831 43.8267 18.3679C43.735 18.5527 43.596 18.71 43.424 18.824C43.252 18.938 43.0529 19.0046 42.847 19.0171C42.641 19.0296 42.4354 18.9876 42.2508 18.8952C42.0674 18.8034 41.9112 18.6651 41.7979 18.4941C41.6846 18.3231 41.6181 18.1254 41.6051 17.9207C41.592 17.716 41.6329 17.5115 41.7235 17.3275C41.8142 17.1435 41.9515 16.9865 42.1218 16.8721ZM29.4199 18.5264C29.9493 18.3489 30.5191 18.3312 31.0585 18.4754C31.5978 18.6196 32.0828 18.9194 32.4529 19.3374C32.823 19.7554 33.0619 20.2731 33.1398 20.8259C33.2176 21.3788 33.131 21.9423 32.8907 22.4463C32.6505 22.9502 32.2672 23.3723 31.7886 23.6599C31.3101 23.9475 30.7575 24.0878 30.1997 24.0635C29.642 24.0391 29.1037 23.851 28.6521 23.5228C28.2005 23.1946 27.8554 22.7407 27.6601 22.2177C27.5288 21.8601 27.4704 21.4798 27.4881 21.0993C27.5058 20.7188 27.5994 20.3456 27.7634 20.0018C27.9273 19.6579 28.1583 19.3503 28.4428 19.0969C28.7272 18.8435 29.0595 18.6496 29.4199 18.5264ZM22.4333 18.6679C22.9388 18.429 23.5037 18.3445 24.057 18.425C24.6104 18.5055 25.1277 18.7475 25.5442 19.1207C25.9607 19.4938 26.2579 19.9815 26.3985 20.5227C26.5392 21.064 26.517 21.6346 26.3349 22.1633C26.1527 22.692 25.8187 23.1552 25.3745 23.495C24.9304 23.8347 24.3959 24.0359 23.8379 24.0734C23.28 24.1108 22.7234 23.9828 22.2378 23.7054C21.7523 23.428 21.3594 23.0136 21.1082 22.5139C20.9412 22.1747 20.8431 21.8057 20.8193 21.4283C20.7956 21.0509 20.8468 20.6725 20.97 20.315C21.0931 19.9575 21.2858 19.6279 21.537 19.3452C21.7881 19.0625 22.0927 18.8323 22.4333 18.6679ZM15.4371 21.0598C15.5116 20.657 15.7223 20.2921 16.0339 20.0262C16.3455 19.7602 16.739 19.6095 17.1485 19.5992C17.5735 19.6468 17.9697 19.8374 18.2721 20.1399C18.5744 20.4424 18.7649 20.8387 18.8123 21.2637C18.8003 21.7058 18.6237 22.1274 18.317 22.446C18.0103 22.7646 17.5957 22.9573 17.1544 22.9862C16.9077 22.9966 16.6618 22.9521 16.4344 22.8558C16.2069 22.7596 16.0038 22.6141 15.8394 22.4298C15.6751 22.2455 15.5538 22.027 15.4842 21.7901C15.4146 21.5531 15.3985 21.3037 15.4371 21.0598ZM36.1008 19.7839C36.3619 19.6478 36.6542 19.5828 36.9483 19.5955C37.2424 19.6082 37.528 19.698 37.7764 19.8561C38.0248 20.0141 38.2272 20.2348 38.3633 20.4958C38.4994 20.7569 38.5643 21.0492 38.5516 21.3433C38.5389 21.6375 38.449 21.9231 38.2909 22.1714C38.1328 22.4198 37.9121 22.6222 37.651 22.7582C37.3899 22.8942 37.0976 22.9591 36.8035 22.9464C36.5094 22.9336 36.2238 22.8436 35.9754 22.6855C35.7296 22.5256 35.5298 22.3044 35.3956 22.0438C35.2614 21.7831 35.1974 21.4919 35.2101 21.1989C35.2227 20.906 35.3116 20.6214 35.4678 20.3733C35.624 20.1252 35.8422 19.922 36.1008 19.7839ZM19.5896 24.2701C20.1112 24.1308 20.6618 24.143 21.1767 24.3052C21.6917 24.4675 22.1497 24.7731 22.4973 25.1862C22.8448 25.5994 23.0675 26.1031 23.1391 26.6382C23.2108 27.1733 23.1285 27.7178 22.9019 28.2078C22.6753 28.6979 22.3138 29.1133 21.8597 29.4053C21.4056 29.6973 20.8777 29.8539 20.3378 29.8568C19.7979 29.8596 19.2684 29.7086 18.8112 29.4213C18.354 29.1341 17.9882 28.7226 17.7564 28.235C17.582 27.8578 17.4916 27.4473 17.4916 27.0318C17.4916 26.6163 17.5819 26.2058 17.7562 25.8286C17.9306 25.4515 18.1849 25.1168 18.5015 24.8477C18.818 24.5786 19.1893 24.3815 19.5896 24.2701ZM32.8421 24.2635C33.3573 24.1073 33.9062 24.1004 34.425 24.2436C34.9439 24.3869 35.4115 24.6744 35.7736 25.0728C36.1356 25.4712 36.3771 25.9641 36.4702 26.4943C36.5633 27.0245 36.504 27.5702 36.2993 28.0681C36.0946 28.5659 35.7529 28.9955 35.3138 29.3069C34.8747 29.6183 34.3563 29.7987 33.8187 29.8273C33.2812 29.8558 32.7466 29.7313 32.277 29.4681C31.8074 29.2049 31.4221 28.8139 31.1659 28.3406C30.9703 27.9685 30.8586 27.5581 30.8389 27.1382C30.8192 26.7183 30.8918 26.2992 31.0516 25.9105C31.2115 25.5217 31.4546 25.1727 31.764 24.8882C32.0734 24.6036 32.4414 24.3904 32.8421 24.2635ZM11.7237 25.6773C11.9754 25.5983 12.2439 25.5901 12.4999 25.6534C12.7559 25.7168 12.9896 25.8492 13.1754 26.0364C13.3612 26.2236 13.492 26.4582 13.5535 26.7147C13.6149 26.9712 13.6047 27.2396 13.5239 27.4907C13.4488 27.7144 13.3192 27.9158 13.1468 28.0769C12.9744 28.2381 12.7646 28.3538 12.5364 28.4136C12.3081 28.4735 12.0686 28.4756 11.8393 28.4199C11.61 28.3641 11.3982 28.2522 11.2229 28.0942C11.0393 27.9259 10.9026 27.7128 10.826 27.4758C10.7495 27.2388 10.7358 26.986 10.7863 26.7421C10.8367 26.4982 10.9497 26.2716 11.114 26.0844C11.2783 25.8972 11.4884 25.756 11.7237 25.6744M40.3597 27.1944C40.337 26.7698 40.4825 26.3533 40.7646 26.0351C41.0468 25.717 41.443 25.5228 41.8673 25.4947C42.2385 25.5306 42.5834 25.702 42.8361 25.9762C43.0888 26.2504 43.2316 26.6082 43.2371 26.9811C43.235 27.224 43.1708 27.4624 43.0507 27.6736C42.9306 27.8848 42.7585 28.0619 42.5508 28.1879C42.343 28.314 42.1066 28.3848 41.8638 28.3938C41.6209 28.4028 41.3799 28.3497 41.1634 28.2394C40.7797 27.9971 40.494 27.627 40.3568 27.1944M6.52628 26.1876C6.68515 26.1198 6.85985 26.0978 7.03057 26.1242C7.2013 26.1506 7.36123 26.2242 7.49223 26.3368C7.62323 26.4494 7.72005 26.5965 7.77174 26.7613C7.82343 26.9262 7.82791 27.1022 7.78467 27.2694C7.74143 27.4367 7.65221 27.5885 7.5271 27.7076C7.402 27.8268 7.24603 27.9085 7.07686 27.9435C6.9077 27.9785 6.73211 27.9654 6.56999 27.9057C6.40788 27.8461 6.26572 27.7422 6.15964 27.6058C6.07583 27.4931 6.01833 27.363 5.99137 27.2251C5.96441 27.0872 5.96866 26.9451 6.00382 26.809C6.03899 26.673 6.10416 26.5466 6.19457 26.4391C6.28498 26.3316 6.39832 26.2456 6.52628 26.1876ZM46.6021 26.1723C46.7157 26.0999 46.8439 26.0534 46.9775 26.0363C47.1111 26.0191 47.2469 26.0316 47.3751 26.0729C47.5033 26.1143 47.6209 26.1833 47.7193 26.2753C47.8178 26.3672 47.8947 26.4798 47.9447 26.6049C48.0061 26.7471 48.0298 26.9028 48.0135 27.0569C47.9972 27.211 47.9415 27.3583 47.8518 27.4846C47.762 27.6109 47.6412 27.7119 47.5011 27.778C47.3609 27.844 47.2061 27.8729 47.0516 27.8617C46.1497 27.9438 45.8571 26.569 46.6021 26.1752M23.0397 30.011C23.6154 29.8801 24.2176 29.9319 24.7626 30.159C25.3076 30.3862 25.7682 30.7774 26.0806 31.2785C26.393 31.7795 26.5415 32.3654 26.5056 32.9547C26.4696 33.544 26.251 34.1075 25.8801 34.5669C25.5092 35.0262 25.0043 35.3586 24.4358 35.5179C23.8673 35.6771 23.2633 35.6553 22.7077 35.4555C22.1521 35.2557 21.6726 34.8877 21.3357 34.4028C20.9989 33.9179 20.8215 33.3401 20.8281 32.7497C20.841 32.1127 21.0653 31.498 21.4656 31.0022C21.8659 30.5065 22.4196 30.1578 23.0397 30.011ZM29.6634 30.011C30.2657 29.8614 30.9004 29.9129 31.4707 30.1577C32.0409 30.4025 32.5155 30.827 32.822 31.3667C33.1286 31.9063 33.2502 32.5313 33.1684 33.1465C33.0865 33.7617 32.8058 34.3332 32.3689 34.774C31.932 35.2147 31.3629 35.5005 30.7485 35.5877C30.1341 35.6749 29.508 35.5587 28.9657 35.257C28.4234 34.9552 27.9947 34.4844 27.7449 33.9162C27.4952 33.3481 27.4381 32.7139 27.5823 32.1103C27.7051 31.604 27.9638 31.1409 28.3306 30.7709C28.6973 30.4009 29.1582 30.1381 29.6634 30.011ZM16.8926 31.0705C17.18 31.0325 17.4724 31.0696 17.7412 31.1782C18.0099 31.2869 18.246 31.4633 18.4262 31.6904C18.6065 31.9174 18.7248 32.1873 18.7696 32.4738C18.8144 32.7602 18.7842 33.0533 18.682 33.3246C18.5797 33.5959 18.4088 33.836 18.1861 34.0215C17.9634 34.2071 17.6963 34.3317 17.411 34.3833C17.1257 34.4349 16.832 34.4116 16.5583 34.3157C16.2847 34.2199 16.0406 34.0548 15.8499 33.8365C15.6535 33.6069 15.5224 33.3289 15.4703 33.0314C15.4181 32.7339 15.4468 32.4278 15.5533 32.1451C15.6599 31.8625 15.8404 31.6137 16.076 31.4246C16.3116 31.2356 16.5936 31.1133 16.8926 31.0705ZM36.3171 31.1233C36.5843 31.0253 36.8721 30.9969 37.1533 31.0409C37.4345 31.085 37.6999 31.1999 37.9243 31.375C38.1487 31.5501 38.3248 31.7794 38.436 32.0415C38.5472 32.3035 38.5897 32.5895 38.5597 32.8725C38.5296 33.1556 38.4279 33.4263 38.2641 33.6591C38.1004 33.8919 37.88 34.0791 37.6238 34.2031C37.3676 34.3271 37.084 34.3838 36.7998 34.3677C36.5156 34.3517 36.2402 34.2635 35.9996 34.1114C35.7365 33.9435 35.5253 33.7056 35.39 33.4243C35.2546 33.143 35.2004 32.8295 35.2334 32.5191C35.2663 32.2087 35.3852 31.9136 35.5767 31.667C35.7681 31.4205 36.0246 31.2322 36.3171 31.1233ZM41.7434 36.5686C41.6601 36.3819 41.6273 36.1765 41.6484 35.973C41.6695 35.7696 41.7437 35.5753 41.8636 35.4095C41.9835 35.2438 42.1448 35.1126 42.3314 35.0289C42.5181 34.9452 42.7234 34.912 42.9269 34.9327C43.1245 34.9598 43.3144 35.0275 43.4845 35.1316C43.6547 35.2357 43.8013 35.374 43.9154 35.5377C43.9711 35.9908 44.062 36.5313 43.688 36.8803C43.5576 37.027 43.3923 37.1384 43.2075 37.2043C43.0226 37.2702 42.8241 37.2885 42.6303 37.2575C42.4365 37.2264 42.2537 37.147 42.0986 37.0266C41.9436 36.9062 41.8215 36.7487 41.7434 36.5686ZM10.6224 35.1454C10.8142 35.0361 11.0327 34.9826 11.2534 34.9909C11.474 34.9993 11.6879 35.0691 11.8709 35.1926C12.0539 35.316 12.1988 35.4882 12.2891 35.6896C12.3795 35.8911 12.4117 36.1137 12.3822 36.3325C12.3538 36.5302 12.2756 36.7174 12.1551 36.8765C12.0345 37.0357 11.8755 37.1617 11.6929 37.2426C11.5104 37.3235 11.3103 37.3567 11.1114 37.3392C10.9125 37.3216 10.7213 37.2538 10.5557 37.1421C10.3902 37.0305 10.2557 36.8786 10.1649 36.7007C10.0742 36.5229 10.03 36.3249 10.0367 36.1253C10.0433 35.9257 10.1006 35.7311 10.203 35.5597C10.3055 35.3883 10.4497 35.2457 10.6224 35.1454ZM26.2954 36.8627C26.5623 36.7616 26.8507 36.7304 27.133 36.7723C27.4154 36.8142 27.6823 36.9276 27.9084 37.1018C28.1344 37.2761 28.3121 37.5053 28.4246 37.7676C28.537 38.03 28.5804 38.3167 28.5506 38.6006C28.5208 38.8844 28.4188 39.156 28.2544 39.3893C28.09 39.6226 27.8685 39.8099 27.6112 39.9334C27.3539 40.0569 27.0692 40.1124 26.7844 40.0948C26.4995 40.0771 26.2239 39.9868 25.9838 39.8325C25.7294 39.6609 25.5264 39.4234 25.3967 39.1453C25.267 38.8672 25.2153 38.5591 25.2474 38.2539C25.2794 37.9488 25.3938 37.6581 25.5785 37.413C25.7631 37.1679 26.011 36.9777 26.2954 36.8627ZM19.036 38.5558C19.2543 38.46 19.4933 38.4207 19.7309 38.4415C19.9684 38.4624 20.1969 38.5427 20.3952 38.6751C20.5936 38.8074 20.7554 38.9876 20.8658 39.199C20.9762 39.4104 21.0316 39.6461 21.0268 39.8845C21.0256 40.082 20.9827 40.2771 20.901 40.4569C20.8192 40.6367 20.7005 40.7972 20.5524 40.9279C20.4044 41.0587 20.2304 41.1567 20.0419 41.2156C19.8533 41.2745 19.6545 41.2929 19.4584 41.2697C19.1372 41.2521 18.8319 41.1247 18.5934 40.9089C18.3549 40.6931 18.1978 40.402 18.1483 40.0842C18.0989 39.7664 18.16 39.4413 18.3216 39.1632C18.4832 38.8851 18.7354 38.6702 19.036 38.5558ZM33.7404 38.5705C33.9654 38.4465 34.2196 38.3854 34.4763 38.3937C34.7331 38.402 34.9828 38.4794 35.1993 38.6178C35.4157 38.7561 35.5909 38.9502 35.7063 39.1797C35.8217 39.4092 35.873 39.6656 35.855 39.9218C35.8369 40.1781 35.7501 40.4247 35.6036 40.6357C35.4572 40.8468 35.2565 41.0144 35.0228 41.121C34.7891 41.2276 34.531 41.2692 34.2756 41.2414C34.0202 41.2137 33.7771 41.1175 33.5718 40.9632C33.3838 40.8182 33.2346 40.6289 33.1374 40.4123C33.0402 40.1957 32.9981 39.9585 33.0148 39.7216C33.0315 39.4848 33.1065 39.2558 33.2331 39.055C33.3597 38.8541 33.5339 38.6877 33.7404 38.5705ZM36.2973 44.8928C36.2174 44.7506 36.1732 44.591 36.1685 44.4279C36.1639 44.2648 36.1989 44.103 36.2706 43.9564C36.3423 43.8099 36.4485 43.6829 36.5802 43.5865C36.7118 43.49 36.8649 43.427 37.0262 43.4028C37.5542 43.5106 38.1129 43.908 38.0022 44.5203C37.9715 44.7057 37.8859 44.8776 37.7564 45.0138C37.627 45.15 37.4596 45.2443 37.276 45.2844C37.0924 45.3245 36.9011 45.3086 36.7266 45.2388C36.5521 45.169 36.4026 45.0485 36.2973 44.8928ZM15.9988 44.3612C16.1601 43.8758 16.5502 43.3933 17.1214 43.5194C17.3072 43.5496 17.4795 43.6356 17.6154 43.7659C17.7513 43.8962 17.8445 44.0647 17.8826 44.2491C17.9206 44.4335 17.9018 44.6251 17.8286 44.7986C17.7554 44.972 17.6313 45.1192 17.4726 45.2206C17.322 45.3028 17.1527 45.3447 16.9811 45.3423C16.8095 45.3399 16.6415 45.2932 16.4932 45.2068C16.345 45.1203 16.2215 44.9971 16.1349 44.8489C16.0483 44.7008 16.0014 44.5328 15.9988 44.3612ZM25.7917 44.9177C25.8409 44.7481 25.9281 44.5918 26.0465 44.4608C26.165 44.3297 26.3117 44.2273 26.4756 44.1613C26.6394 44.0953 26.8161 44.0673 26.9924 44.0796C27.1686 44.0919 27.3398 44.144 27.4929 44.2321C27.8976 44.4059 28.0157 44.8583 28.1198 45.2433C28.0641 45.4442 28.0142 45.6444 27.9658 45.8446C27.8558 46.0109 27.7094 46.15 27.5378 46.2516C27.3663 46.3532 27.1739 46.4146 26.9752 46.4312C26.7868 46.4426 26.5984 46.4081 26.4263 46.3306C26.2542 46.2532 26.1035 46.1351 25.9871 45.9865C25.8707 45.8379 25.7921 45.6633 25.758 45.4777C25.724 45.292 25.7355 45.1009 25.7917 44.9207" fill="white"/>
</svg>
