<svg xmlns="http://www.w3.org/2000/svg" xmlns:xlink="http://www.w3.org/1999/xlink" width="512" height="318" viewBox="0 0 512 318">
  <defs>
    <clipPath id="clip-diners_club">
      <rect width="512" height="318"/>
    </clipPath>
  </defs>
  <g id="diners_club" data-name="diners club" clip-path="url(#clip-diners_club)">
    <g id="_213724_card_cash_checkout_online_shopping_payment_method_icon" data-name="213724_card_cash_checkout_online shopping_payment method_icon" transform="translate(-0.864 -98.198)">
      <g id="Group_1" data-name="Group 1">
        <path id="Path_7" data-name="Path 7" d="M60.6,2.963H31.511l-16.7,3.771-8.888,9.7L1.077,45.247V80.8L2.155,287.913,8.08,305.688l10.235,8.08,24.778,2.155H209l273.908.269L500.683,310l8.349-13.466v-7.811l.808-256.67-3.5-16.16-7.811-8.619L486.139,2.963H60.6Z" transform="translate(0.864 98.198)" fill="#fff"/>
        <path id="Path_1" data-name="Path 1" d="M482.737,103.2a25.149,25.149,0,0,1,25.127,25.114V386.086A25.149,25.149,0,0,1,482.737,411.2H30.991A25.149,25.149,0,0,1,5.864,386.086V128.31A25.149,25.149,0,0,1,30.991,103.2H482.737m0-5H30.991A30.119,30.119,0,0,0,.864,128.31V386.086A30.119,30.119,0,0,0,30.991,416.2H482.737a30.118,30.118,0,0,0,30.127-30.112V128.31A30.119,30.119,0,0,0,482.737,98.2Z" fill="#d5d5dd"/>
      </g>
      <g id="Group_2" data-name="Group 2" transform="translate(-26.388 14.089)">
        <path id="Path_2" data-name="Path 2" d="M305.893,348.609c57.817.281,110.588-47.138,110.588-104.832,0-63.081-52.771-106.685-110.588-106.668h-49.76c-58.5-.017-106.662,43.595-106.662,106.668,0,57.707,48.158,105.113,106.662,104.832Z" transform="translate(0 0)" fill="#0064a7"/>
        <path id="Path_3" data-name="Path 3" d="M276.572,298.431V183.878a61.324,61.324,0,0,1,0,114.552m-83.317-57.279a61.473,61.473,0,0,1,39.386-57.272V298.41a61.447,61.447,0,0,1-39.386-57.259m61.357-96.82a96.812,96.812,0,1,0,96.815,96.82,96.824,96.824,0,0,0-96.815-96.82" transform="translate(1.759 1.522)" fill="#fff"/>
      </g>
    </g>
  </g>
</svg>
