<svg xmlns="http://www.w3.org/2000/svg" xmlns:xlink="http://www.w3.org/1999/xlink" width="512" height="318" viewBox="0 0 512 318">
  <defs>
    <clipPath id="clip-path">
      <rect id="Rectangle_3" data-name="Rectangle 3" width="508" height="326" transform="translate(0 0.223)"/>
    </clipPath>
    <clipPath id="clip-path-2">
      <path id="Path_8" data-name="Path 8" d="M39.215,47.7H19.6v68.1H38.845c10.363,0,17.764-2.591,24.426-7.772A34.128,34.128,0,0,0,75.484,81.748C75.854,61.763,60.68,47.7,39.215,47.7ZM54.759,98.772c-4.071,3.7-9.622,5.551-18.134,5.551h-3.7V59.173h3.7c8.512,0,13.693,1.48,18.134,5.551a23.279,23.279,0,0,1,0,34.048Z" transform="translate(-19.6 -47.7)"/>
    </clipPath>
    <clipPath id="clip-path-3">
      <rect id="Rectangle_2" data-name="Rectangle 2" width="470" height="302" transform="translate(-0.203 0.003)"/>
    </clipPath>
    <clipPath id="clip-path-5">
      <rect id="Rectangle_6" data-name="Rectangle 6" width="13.323" height="68.097"/>
    </clipPath>
    <clipPath id="clip-path-8">
      <path id="Path_9" data-name="Path 9" d="M68.917,74.817c-8.142-2.961-10.363-4.811-10.363-8.512,0-4.441,4.071-7.4,9.992-7.4,4.071,0,7.4,1.48,10.733,5.551L86.311,55.2c-5.551-5.181-12.583-7.4-19.985-7.4-12.213,0-21.1,8.512-21.1,19.615,0,9.252,4.441,14.063,16.654,18.875,5.181,1.85,7.772,2.961,9.252,4.071,2.591,1.85,4.071,4.071,4.071,7.032,0,5.551-4.441,9.622-10.363,9.622-6.292,0-11.473-3.331-14.434-9.252L41.9,105.9c6.292,8.882,13.323,12.953,23.686,12.953,13.693,0,23.686-9.252,23.686-22.576-.74-11.1-5.181-15.914-20.355-21.465" transform="translate(-41.9 -47.8)"/>
    </clipPath>
    <clipPath id="clip-path-11">
      <path id="Path_10" data-name="Path 10" d="M55.4,82.529c0,19.985,15.914,35.529,35.9,35.529a35.59,35.59,0,0,0,16.654-4.071V98.443c-5.181,5.181-9.992,7.4-15.914,7.4-13.323,0-22.946-9.622-22.946-23.316,0-12.953,9.622-23.316,22.205-23.316,6.291,0,11.1,2.221,16.654,7.772V51.441A30.972,30.972,0,0,0,91.669,47C71.314,47,55.4,62.914,55.4,82.529" transform="translate(-55.4 -47)"/>
    </clipPath>
    <clipPath id="clip-path-14">
      <path id="Path_11" data-name="Path 11" d="M122.268,93.591,104.134,47.7H89.7l28.867,69.947H125.6L155.206,47.7H140.772l-18.5,45.891" transform="translate(-89.7 -47.7)"/>
    </clipPath>
    <clipPath id="clip-path-17">
      <path id="Path_12" data-name="Path 12" d="M109,115.8h37.749V104.324H122.323v-18.5h23.316V74.346H122.323V59.173h24.426V47.7H109v68.1" transform="translate(-109 -47.7)"/>
    </clipPath>
    <clipPath id="clip-path-20">
      <path id="Path_13" data-name="Path 13" d="M165.571,67.685c0-12.583-8.882-19.985-24.056-19.985H121.9v68.1h13.323V88.41h1.85l18.5,27.387h16.284L150.4,86.93C160.019,85.079,165.571,78.047,165.571,67.685ZM138.924,79.158h-3.7V58.433h4.071c8.142,0,12.583,3.331,12.583,9.992C151.877,75.457,147.436,79.158,138.924,79.158Z" transform="translate(-121.9 -47.7)"/>
    </clipPath>
    <clipPath id="clip-path-23">
      <path id="Path_14" data-name="Path 14" d="M142.157,82.529A35.529,35.529,0,1,1,106.629,47a35.538,35.538,0,0,1,35.529,35.529" transform="translate(-71.1 -47)"/>
    </clipPath>
    <clipPath id="clip-discover">
      <rect width="512" height="318"/>
    </clipPath>
  </defs>
  <g id="discover" clip-path="url(#clip-discover)">
    <g id="_213724_card_cash_checkout_online_shopping_payment_method_icon" data-name="213724_card_cash_checkout_online shopping_payment method_icon" transform="translate(-0.864 -98.198)">
      <g id="Group_1" data-name="Group 1">
        <path id="Path_7" data-name="Path 7" d="M60.6,2.963H31.511l-16.7,3.771-8.888,9.7L1.077,45.247V80.8L2.155,287.913,8.08,305.688l10.235,8.08,24.778,2.155H209l273.908.269L500.683,310l8.349-13.466v-7.811l.808-256.67-3.5-16.16-7.811-8.619L486.139,2.963H60.6Z" transform="translate(0.864 98.198)" fill="#fff"/>
        <path id="Path_1" data-name="Path 1" d="M482.737,103.2a25.149,25.149,0,0,1,25.127,25.114V386.086A25.149,25.149,0,0,1,482.737,411.2H30.991A25.149,25.149,0,0,1,5.864,386.086V128.31A25.149,25.149,0,0,1,30.991,103.2H482.737m0-5H30.991A30.119,30.119,0,0,0,.864,128.31V386.086A30.119,30.119,0,0,0,30.991,416.2H482.737a30.118,30.118,0,0,0,30.127-30.112V128.31A30.119,30.119,0,0,0,482.737,98.2Z" fill="#d5d5dd"/>
      </g>
      <g id="Group_4" data-name="Group 4" transform="translate(4.864 121.975)" clip-path="url(#clip-path)">
        <g id="Group_3" data-name="Group 3" transform="translate(38.237 102.899)" clip-path="url(#clip-path-2)">
          <g id="Group_2" data-name="Group 2" transform="translate(-19.035 -90.679)" clip-path="url(#clip-path-3)">
            <rect id="Rectangle_1" data-name="Rectangle 1" width="93.263" height="105.106" transform="translate(0.53 72.174)" fill="#1a1919"/>
          </g>
        </g>
      </g>
      <g id="Group_7" data-name="Group 7" transform="translate(4.864 121.975)" clip-path="url(#clip-path)">
        <g id="Group_6" data-name="Group 6" transform="translate(101.893 102.899)" clip-path="url(#clip-path-5)">
          <g id="Group_5" data-name="Group 5" transform="translate(-82.69 -90.679)" clip-path="url(#clip-path-3)">
            <rect id="Rectangle_4" data-name="Rectangle 4" width="50.332" height="105.106" transform="translate(64.186 72.174)" fill="#1a1919"/>
          </g>
        </g>
      </g>
      <g id="Group_10" data-name="Group 10" transform="translate(4.864 121.975)" clip-path="url(#clip-path)">
        <g id="Group_9" data-name="Group 9" transform="translate(120.768 103.269)" clip-path="url(#clip-path-8)">
          <g id="Group_8" data-name="Group 8" transform="translate(-101.565 -91.049)" clip-path="url(#clip-path-3)">
            <rect id="Rectangle_8" data-name="Rectangle 8" width="84.01" height="108.066" transform="translate(82.69 72.174)" fill="#1a1919"/>
          </g>
        </g>
      </g>
      <g id="Group_13" data-name="Group 13" transform="translate(4.864 121.975)" clip-path="url(#clip-path)">
        <g id="Group_12" data-name="Group 12" transform="translate(170.73 100.308)" clip-path="url(#clip-path-11)">
          <g id="Group_11" data-name="Group 11" transform="translate(-151.527 -88.088)" clip-path="url(#clip-path-3)">
            <rect id="Rectangle_11" data-name="Rectangle 11" width="89.562" height="108.066" transform="translate(133.022 69.584)" fill="#1a1919"/>
          </g>
        </g>
      </g>
      <g id="Group_16" data-name="Group 16" transform="translate(4.864 121.975)" clip-path="url(#clip-path)">
        <g id="Group_15" data-name="Group 15" transform="translate(297.671 102.899)" clip-path="url(#clip-path-14)">
          <g id="Group_14" data-name="Group 14" transform="translate(-278.468 -90.679)" clip-path="url(#clip-path-3)">
            <rect id="Rectangle_14" data-name="Rectangle 14" width="102.515" height="106.956" transform="translate(259.963 72.174)" fill="#1a1919"/>
          </g>
        </g>
      </g>
      <g id="Group_19" data-name="Group 19" transform="translate(4.864 121.975)" clip-path="url(#clip-path)">
        <g id="Group_18" data-name="Group 18" transform="translate(369.098 102.899)" clip-path="url(#clip-path-17)">
          <g id="Group_17" data-name="Group 17" transform="translate(-349.895 -90.679)" clip-path="url(#clip-path-3)">
            <rect id="Rectangle_17" data-name="Rectangle 17" width="74.758" height="105.106" transform="translate(331.391 72.174)" fill="#1a1919"/>
          </g>
        </g>
      </g>
      <g id="Group_22" data-name="Group 22" transform="translate(4.864 121.975)" clip-path="url(#clip-path)">
        <g id="Group_21" data-name="Group 21" transform="translate(416.84 102.899)" clip-path="url(#clip-path-20)">
          <g id="Group_20" data-name="Group 20" transform="translate(-397.637 -90.679)" clip-path="url(#clip-path-3)">
            <rect id="Rectangle_20" data-name="Rectangle 20" width="86.601" height="105.106" transform="translate(379.133 72.174)" fill="#1a1919"/>
          </g>
        </g>
      </g>
      <g id="Group_25" data-name="Group 25" transform="translate(4.864 121.975)" clip-path="url(#clip-path)">
        <g id="Group_24" data-name="Group 24" transform="translate(228.834 100.308)" clip-path="url(#clip-path-23)">
          <g id="Group_23" data-name="Group 23" transform="translate(-209.631 -88.088)" clip-path="url(#clip-path-3)">
            <rect id="Rectangle_23" data-name="Rectangle 23" width="108.066" height="108.066" transform="translate(191.127 69.584)" fill="#e6772f"/>
          </g>
        </g>
      </g>
    </g>
  </g>
</svg>
