<svg xmlns="http://www.w3.org/2000/svg" xmlns:xlink="http://www.w3.org/1999/xlink" width="175" height="39" viewBox="0 0 175 39">
  <defs>
    <clipPath id="clip-envato">
      <rect width="175" height="39"/>
    </clipPath>
  </defs>
  <g id="envato" clip-path="url(#clip-envato)">
    <g id="envato-2" data-name="envato" transform="translate(0.917 -210.279)">
      <g id="Group_1" data-name="Group 1" transform="translate(0 212.28)">
        <path id="Path_1" data-name="Path 1" d="M32.594,219.337c-15.356,16.251-19.8,27.824-19.8,27.824,3.335,3.806,9.02,3.485,9.02,3.485a13.9,13.9,0,0,0,9.661-3.469C38.917,239.8,38,218.859,38,218.859,36.5,215.637,32.594,219.337,32.594,219.337Z" transform="translate(-8.199 -215.653)" fill="#2d2d2c"/>
        <path id="Path_2" data-name="Path 2" d="M.7,240.44s-2.349,4.581,1.528,12.29l10.305-22.088C12.421,230.682,3.244,233.8.7,240.44Z" transform="translate(0 -224.05)" fill="#2d2d2c"/>
        <path id="Path_3" data-name="Path 3" d="M381.614,242.217a5.449,5.449,0,0,1-1.877-.11,2.292,2.292,0,0,1-1.841-1.935,4.755,4.755,0,0,1,.037-1.714c.294-1.609.6-3.218.909-4.827q.822-4.384,1.657-8.775c.019-.131.056-.263.086-.4h8.151c.332-.667,1.665-3.938,1.679-4.132h-7.7c-.51,0-1.018.01-1.566-.006.539-2.7,1.068-5.373,1.6-8.039H382.7a.513.513,0,0,1-.126.084c-.591.294-1.181.578-1.774.868-1.269.615-2.535,1.235-3.808,1.846a.346.346,0,0,0-.219.31c-.019.158-.045.31-.07.468-.208,1.288-.413,2.576-.622,3.864-.195,1.2-.391,2.4-.58,3.591q-.309,1.924-.615,3.843c-.2,1.193-.382,2.387-.573,3.575q-.32,1.955-.627,3.9c-.2,1.193-.385,2.387-.578,3.576a11.815,11.815,0,0,0-.19,1.273,7.853,7.853,0,0,0,.219,2.4,5.094,5.094,0,0,0,3.39,3.754,8.69,8.69,0,0,0,2.745.494,14.031,14.031,0,0,0,2.566-.147c.444-.058.892-.147,1.348-.226.318-1.335.633-2.659.959-4.01-.1.021-.158.031-.214.047A13.288,13.288,0,0,1,381.614,242.217Z" transform="translate(-241.835 -212.28)" fill="#2d2d2c"/>
        <path id="Path_5" data-name="Path 5" d="M313.158,232.383a17.87,17.87,0,0,0-3.624.075,17.085,17.085,0,0,0-4.783,1.347,22.153,22.153,0,0,0-5.308,3.437,16.638,16.638,0,0,0-3.474,4.014,15.3,15.3,0,0,0-2.332,9.14,11.536,11.536,0,0,0,.836,3.655,9.351,9.351,0,0,0,5.864,5.554,6.089,6.089,0,0,0,1.177.294,12.415,12.415,0,0,0,2.959-.027,11.083,11.083,0,0,0,8.715-6.285c.036-.075.072-.139.1-.209l.048.016q-.641,2.926-1.287,5.864h4.942q2.221-12.267,4.436-24.534c-.289-.134-.553-.257-.823-.369A23.527,23.527,0,0,0,313.158,232.383Zm2.4,6.425a42.346,42.346,0,0,1-1.593,7.542,15.208,15.208,0,0,1-3.809,6.462,9.865,9.865,0,0,1-3.643,2.469,6.856,6.856,0,0,1-2.493.459,4.808,4.808,0,0,1-1.41-.129,5.532,5.532,0,0,1-3.871-3.875,7.024,7.024,0,0,1-.257-2.5,13.685,13.685,0,0,1,1.332-4.805c.265-.578.562-1.155.878-1.716a8.716,8.716,0,0,1,1.442-1.807,13.969,13.969,0,0,1,7.24-3.9,11.144,11.144,0,0,1,5.957.4c.094.038.185.07.313.117C315.62,237.964,315.6,238.385,315.561,238.808Z" transform="translate(-190.19 -225.692)" fill="#2d2d2c"/>
        <path id="Path_6" data-name="Path 6" d="M437.135,235.02a11.71,11.71,0,0,0-7.093-2.758,14.175,14.175,0,0,0-5.564.764,17.284,17.284,0,0,0-10.169,9,14.406,14.406,0,0,0-1.5,6.291,12.41,12.41,0,0,0,.307,2.881,10.952,10.952,0,0,0,6.155,7.7,12.533,12.533,0,0,0,6.473,1.112,15.016,15.016,0,0,0,4.266-.962,17.2,17.2,0,0,0,6.368-4.217,16.52,16.52,0,0,0,3.947-6.478,13.528,13.528,0,0,0,.43-7.232A10.972,10.972,0,0,0,437.135,235.02Zm-3.118,14.923a12.154,12.154,0,0,1-5.324,4.784,8.971,8.971,0,0,1-4.031.855,6.43,6.43,0,0,1-6.161-4.693,8.362,8.362,0,0,1-.3-3.341,11.778,11.778,0,0,1,3.41-7.072,11.447,11.447,0,0,1,4.356-2.871,8.17,8.17,0,0,1,3.7-.518,6.319,6.319,0,0,1,5.572,4.233,7.99,7.99,0,0,1,.5,2.913A11.068,11.068,0,0,1,434.017,249.943Z" transform="translate(-267.419 -225.635)" fill="#2d2d2c"/>
        <path id="Path_7" data-name="Path 7" d="M112.228,239.311a7.931,7.931,0,0,0-.257-1.609,6.223,6.223,0,0,0-3.741-4.18,8.664,8.664,0,0,0-2.817-.615,13.612,13.612,0,0,0-3.632.294,19.168,19.168,0,0,0-5.754,2.245,18.375,18.375,0,0,0-5.211,4.426,12.987,12.987,0,0,0-2.363,4.41,13.892,13.892,0,0,0-.422,2.116c-.1.743-.225,1.481-.27,2.235a12.7,12.7,0,0,0,.393,4.213,8.772,8.772,0,0,0,4.741,5.788,11.971,11.971,0,0,0,4.31,1.122,18.039,18.039,0,0,0,3.99-.139,26.177,26.177,0,0,0,4.511-1.074c.428-.145.85-.294,1.283-.444.193-1.652.385-3.282.583-4.95-.088.048-.139.075-.19.107a14.034,14.034,0,0,1-6.545,2.432,9.07,9.07,0,0,1-3.148-.2A5.989,5.989,0,0,1,94.7,253.77a6.585,6.585,0,0,1-1.542-3.09c-.005-.026.01-.054.016-.09.1-.006.187-.016.283-.016.992-.048,1.988-.085,2.983-.145a44.739,44.739,0,0,0,5.139-.555,25.33,25.33,0,0,0,3.921-.968,12.943,12.943,0,0,0,3.516-1.774,7.634,7.634,0,0,0,3.068-4.757A10.75,10.75,0,0,0,112.228,239.311Zm-5.193,2.71a4.407,4.407,0,0,1-1.531,2.32,7.942,7.942,0,0,1-2.392,1.346,14.931,14.931,0,0,1-3.381.834,23.528,23.528,0,0,1-4.014.214c-.738-.027-1.47-.086-2.2-.134a1.379,1.379,0,0,1-.192-.038c.032-.123.056-.229.086-.326a12.119,12.119,0,0,1,2.721-4.746,12.806,12.806,0,0,1,5.158-3.506,7.428,7.428,0,0,1,2.766-.492,3.72,3.72,0,0,1,1.366.273,2.5,2.5,0,0,1,1.55,1.732A4.835,4.835,0,0,1,107.034,242.021Z" transform="translate(-56.818 -226.052)" fill="#2d2d2c"/>
        <path id="Path_8" data-name="Path 8" d="M178.667,233.613a9.507,9.507,0,0,0-3.17-.705,13.8,13.8,0,0,0-3.859.321,9.781,9.781,0,0,0-5.655,3.491,13.369,13.369,0,0,0-1.465,2.3c-.027.053-.059.106-.088.16a.265.265,0,0,0-.035-.022c.288-1.791.577-3.576.871-5.387h-5.212q-2.221,12.932-4.442,25.86h5.064a1.77,1.77,0,0,0,.048-.187c.31-1.813.606-3.635.927-5.442a46.248,46.248,0,0,1,1.242-5.275,24.284,24.284,0,0,1,2.509-5.784,12.574,12.574,0,0,1,5.164-4.746,7.813,7.813,0,0,1,4.105-.887,3.937,3.937,0,0,1,1.478.4,2.333,2.333,0,0,1,1.146,1.261,4.184,4.184,0,0,1,.235,1.005,9.164,9.164,0,0,1-.112,2.565c-.294,1.753-.61,3.506-.916,5.255q-.493,2.82-.991,5.633-.546,3.1-1.091,6.2c-.006.059-.006.117-.011.187h5.142c.016-.07.032-.128.043-.187q.328-1.772.663-3.544.541-2.918,1.087-5.826.513-2.774,1.032-5.543a20.966,20.966,0,0,0,.462-3.437,11.066,11.066,0,0,0-.391-3.452A6.326,6.326,0,0,0,178.667,233.613Z" transform="translate(-100.799 -226.051)" fill="#2d2d2c"/>
        <path id="Path_9" data-name="Path 9" d="M260.412,234.711h-.277q-2.439,0-4.874-.005a.37.37,0,0,0-.374.219q-2.894,5.2-5.8,10.4-1.957,3.5-3.913,7c-.037.07-.08.14-.123.2-.013-.007-.029-.011-.043-.016q-1.949-8.827-3.9-17.649h-5.086q3.219,13.245,6.438,26.495h.257c.492,0,.981-.011,1.47,0a.359.359,0,0,0,.364-.2c1.036-1.747,2.085-3.484,3.134-5.227q6.286-10.463,12.574-20.931Z" transform="translate(-152.85 -227.219)" fill="#2d2d2c"/>
      </g>
    </g>
  </g>
</svg>
