<svg xmlns="http://www.w3.org/2000/svg" xmlns:xlink="http://www.w3.org/1999/xlink" width="128" height="39" viewBox="0 0 128 39">
  <defs>
    <clipPath id="clip-fwa">
      <rect width="128" height="39"/>
    </clipPath>
  </defs>
  <g id="fwa" clip-path="url(#clip-fwa)">
    <g id="Layer_1" data-name="Layer 1" transform="translate(-0.017 -359.356)">
      <g id="_Group_" data-name="&lt;Group&gt;" transform="translate(0.9 359.9)">
        <path id="_Compound_Path_" data-name="&lt;Compound Path&gt;" d="M112.318,360.971a8.266,8.266,0,0,1,4.357,7.323v2.166h1.932a8.326,8.326,0,0,1,0,16.652h-1.932v1.932a8.221,8.221,0,0,1-8.332,8.184H87.384a8.361,8.361,0,0,1-7.741-5.181,8.45,8.45,0,0,1-4.148,4.492,8.236,8.236,0,0,1-3.618.825,8.328,8.328,0,0,1-7.114-4,9.745,9.745,0,0,1-.554-1.071l-2.966-5.809-2.388,5.292a9.455,9.455,0,0,1-4.7,4.726,8.25,8.25,0,0,1-3.618.837,8.375,8.375,0,0,1-7.126-4.012c-.2-.345-.369-.689-.542-1.071l-3.286-6.424a8.259,8.259,0,0,1-4.381,1.243H27.8v1.932a8.326,8.326,0,1,1-16.652,0v-1.932H9.22a8.32,8.32,0,0,1,0-16.64h1.932v-2.178a8.331,8.331,0,0,1,8.332-8.332H39.89a8.628,8.628,0,0,1,7.606,4.7l3.212,6.289L53.329,366c1-2.24,2.2-4.172,4.381-5.206A8.3,8.3,0,0,1,66.793,362c1.218.96,5.255,8.911,5.255,8.911l3.483-6.5.074-.135a8.168,8.168,0,0,1,2.412-2.658A8.416,8.416,0,0,1,83.1,359.9h25.242a7.714,7.714,0,0,1,3.975,1.071Zm-3.975,4.591H83.1a2.778,2.778,0,0,0-1.76.615,2.611,2.611,0,0,0-.9.935L71.876,383l-7.631-15.372a3.382,3.382,0,0,0-1.071-1.3,2.545,2.545,0,0,0-1.834-.726,2.845,2.845,0,0,0-1.169.271c-.9.418-1.108,1.182-1.526,2.006L50.56,383l-8.074-15.852a2.527,2.527,0,0,0-1.354-1.317,2.561,2.561,0,0,0-1.243-.308H19.484a2.722,2.722,0,0,0-1.317.345,2.82,2.82,0,0,0-1.415,2.425v7.766H9.22a2.726,2.726,0,0,0,0,5.452h7.667v7.532a2.732,2.732,0,0,0,5.464,0v-7.532H35.373a2.726,2.726,0,0,0,0-5.452H22.352v-5.046H38.437l9.637,18.892a3.062,3.062,0,0,0,.246.492,2.69,2.69,0,0,0,2.351,1.342,2.891,2.891,0,0,0,1.169-.271,3.783,3.783,0,0,0,1.661-1.945L61.477,374.4l7.877,15.47a2.3,2.3,0,0,0,.246.492,2.684,2.684,0,0,0,2.338,1.342,2.946,2.946,0,0,0,1.181-.271,2.76,2.76,0,0,0,1.489-1.932l9.981-18.547h21.033v5.034H87.384a2.773,2.773,0,0,0-2.732,2.634v10.252a2.711,2.711,0,0,0,2.732,2.732h20.959a2.711,2.711,0,0,0,2.732-2.732v-7.384h7.532a2.732,2.732,0,0,0,0-5.464h-7.532v-7.766a2.73,2.73,0,0,0-1.415-2.425,2.476,2.476,0,0,0-1.317-.345ZM90,381.487h15.618v4.628H90Z" transform="translate(-0.9 -359.9)" fill="#2d2d2c" fill-rule="evenodd"/>
      </g>
    </g>
    <g id="Layer_1-2" data-name="Layer 1" transform="translate(-0.302 -359.356)">
      <g id="_Group_2" data-name="&lt;Group&gt;" transform="translate(0.9 359.9)">
        <path id="_Compound_Path_2" data-name="&lt;Compound Path&gt;" d="M112.318,360.971a8.266,8.266,0,0,1,4.357,7.323v2.166h1.932a8.326,8.326,0,0,1,0,16.652h-1.932v1.932a8.221,8.221,0,0,1-8.332,8.184H87.384a8.361,8.361,0,0,1-7.741-5.181,8.45,8.45,0,0,1-4.148,4.492,8.237,8.237,0,0,1-3.618.825,8.328,8.328,0,0,1-7.114-4,9.743,9.743,0,0,1-.554-1.071l-2.966-5.809-2.388,5.292a9.455,9.455,0,0,1-4.7,4.726,8.25,8.25,0,0,1-3.618.837,8.375,8.375,0,0,1-7.126-4.012c-.2-.345-.369-.689-.542-1.071l-3.286-6.424a8.259,8.259,0,0,1-4.381,1.243H27.8v1.932a8.326,8.326,0,1,1-16.652,0v-1.932H9.22a8.32,8.32,0,1,1,0-16.639h1.932v-2.178a8.331,8.331,0,0,1,8.332-8.332H39.89a8.628,8.628,0,0,1,7.606,4.7l3.212,6.289L53.329,366c1-2.24,2.2-4.172,4.381-5.206A8.3,8.3,0,0,1,66.793,362c1.218.96,5.255,8.911,5.255,8.911l3.483-6.5.074-.135a8.168,8.168,0,0,1,2.412-2.658A8.416,8.416,0,0,1,83.1,359.9h25.242a7.713,7.713,0,0,1,3.975,1.071Zm-3.975,4.591H83.1a2.778,2.778,0,0,0-1.76.615,2.612,2.612,0,0,0-.9.935L71.876,383l-7.631-15.372a3.383,3.383,0,0,0-1.071-1.3,2.545,2.545,0,0,0-1.834-.726,2.845,2.845,0,0,0-1.169.271c-.9.418-1.108,1.182-1.526,2.006L50.56,383l-8.074-15.852a2.527,2.527,0,0,0-1.354-1.317,2.561,2.561,0,0,0-1.243-.308H19.484a2.721,2.721,0,0,0-1.317.345,2.82,2.82,0,0,0-1.415,2.425v7.766H9.22a2.726,2.726,0,0,0,0,5.452h7.667v7.532a2.732,2.732,0,1,0,5.464,0v-7.532H35.373a2.726,2.726,0,0,0,0-5.452H22.352v-5.046H38.437l9.637,18.892a3.064,3.064,0,0,0,.246.492,2.69,2.69,0,0,0,2.351,1.341,2.89,2.89,0,0,0,1.169-.271,3.782,3.782,0,0,0,1.661-1.945L61.477,374.4l7.877,15.47a2.3,2.3,0,0,0,.246.492,2.684,2.684,0,0,0,2.338,1.342,2.946,2.946,0,0,0,1.182-.271,2.759,2.759,0,0,0,1.489-1.932l9.981-18.547h21.033v5.034H87.384a2.773,2.773,0,0,0-2.732,2.634v10.252a2.711,2.711,0,0,0,2.732,2.732h20.959a2.711,2.711,0,0,0,2.732-2.732v-7.384h7.532a2.732,2.732,0,0,0,0-5.464h-7.532v-7.766a2.73,2.73,0,0,0-1.415-2.425,2.475,2.475,0,0,0-1.317-.345ZM90.005,381.487h15.618v4.628H90.005Z" transform="translate(-0.9 -359.9)" fill="#2d2d2c" fill-rule="evenodd"/>
      </g>
    </g>
  </g>
</svg>
