<svg xmlns="http://www.w3.org/2000/svg" xmlns:xlink="http://www.w3.org/1999/xlink" width="1900" height="380" viewBox="0 0 1900 380">
  <defs>
    <clipPath id="clip-path">
      <rect id="Rectangle_1" data-name="Rectangle 1" width="1800" height="365.684"/>
    </clipPath>
    <clipPath id="clip-logo-woocommerce">
      <rect width="1900" height="380"/>
    </clipPath>
  </defs>
  <g id="logo-woocommerce" clip-path="url(#clip-logo-woocommerce)">
    <g id="logo-woocommerce_" data-name="logo-woocommerce " transform="translate(50 7)" clip-path="url(#clip-path)">
      <g id="_1012803_coding_development_logo_woocommerce_icon" data-name="1012803_coding_development_logo_woocommerce_icon" transform="translate(1.895 1.895)">
        <path id="Path_8" data-name="Path 8" d="M61.473,9.3H556.78A56.67,56.67,0,0,1,613.5,65.971V254.876a56.67,56.67,0,0,1-56.721,56.671H379.156l24.38,59.648L296.316,311.542H61.722A56.671,56.671,0,0,1,5,254.871V65.971A56.457,56.457,0,0,1,61.473,9.3Z" transform="translate(-5 -9.3)" fill="#353642"/>
        <path id="Path_9" data-name="Path 9" d="M19.705,40.911c3.483-4.726,8.707-7.214,15.672-7.712Q54.408,31.706,57.021,51.11q11.568,77.99,25.126,132.1L136.628,79.472q7.463-14.18,18.658-14.927c10.946-.747,17.663,6.219,20.4,20.9,6.219,33.087,14.18,61.2,23.633,85.08q9.7-94.783,32.838-136.826c3.732-6.966,9.2-10.449,16.419-10.946a21.613,21.613,0,0,1,15.672,4.976,19.485,19.485,0,0,1,7.712,14.18,21.59,21.59,0,0,1-2.488,11.937c-9.7,17.912-17.663,48.014-24.131,89.811-6.219,40.547-8.458,72.144-6.966,94.782a29.525,29.525,0,0,1-2.985,16.419c-2.985,5.473-7.463,8.458-13.185,8.955-6.468.5-13.185-2.488-19.653-9.2q-34.7-35.451-54.979-105.977-24.253,47.764-35.824,71.647c-14.678,28.111-27.117,42.537-37.565,43.286-6.717.5-12.439-5.224-17.415-17.165Q37.739,197.512,15.722,57.577C14.978,51.11,16.222,45.388,19.705,40.911Z" transform="translate(10.647 10.585)" fill="#fff"/>
        <path id="Path_10" data-name="Path 10" d="M310.6,63.85c-8.955-15.672-22.141-25.126-39.8-28.858A65.3,65.3,0,0,0,257.366,33.5c-23.882,0-43.286,12.439-58.462,37.316q-19.4,31.72-19.4,70.155,0,28.734,11.937,49.257c8.955,15.672,22.141,25.126,39.8,28.858a65.3,65.3,0,0,0,13.434,1.493c24.131,0,43.535-12.439,58.462-37.316a133.3,133.3,0,0,0,19.4-70.4c0-19.4-3.979-35.575-11.937-49.008ZM279.258,132.76c-3.483,16.419-9.7,28.611-18.907,36.819-7.214,6.468-13.931,9.2-20.151,7.958-5.968-1.244-10.946-6.468-14.678-16.171a63.14,63.14,0,0,1-4.478-22.642,86.514,86.514,0,0,1,1.741-18.16,80.438,80.438,0,0,1,13.184-29.6c8.21-12.19,16.916-17.165,25.873-15.424,5.968,1.244,10.946,6.468,14.678,16.171A63.139,63.139,0,0,1,281,114.348a107.551,107.551,0,0,1-1.741,18.409Z" transform="translate(254.563 26.594)" fill="#fff"/>
        <path id="Path_11" data-name="Path 11" d="M247.9,63.85c-8.955-15.672-22.389-25.126-39.8-28.858A65.3,65.3,0,0,0,194.666,33.5c-23.882,0-43.286,12.439-58.462,37.316q-19.4,31.72-19.4,70.155,0,28.734,11.937,49.257c8.955,15.672,22.141,25.126,39.8,28.858a65.3,65.3,0,0,0,13.434,1.493c24.131,0,43.535-12.439,58.462-37.316a133.3,133.3,0,0,0,19.4-70.4c0-19.4-3.979-35.575-11.937-49.008ZM216.558,132.76c-3.483,16.419-9.7,28.611-18.907,36.819-7.214,6.468-13.931,9.2-20.151,7.958-5.968-1.244-10.946-6.468-14.678-16.171a63.139,63.139,0,0,1-4.478-22.642,86.515,86.515,0,0,1,1.741-18.16,80.438,80.438,0,0,1,13.185-29.6c8.21-12.19,16.916-17.165,25.873-15.424,5.968,1.244,10.946,6.468,14.678,16.171a63.139,63.139,0,0,1,4.478,22.642,87.279,87.279,0,0,1-1.741,18.409Z" transform="translate(161.299 26.594)" fill="#fff"/>
        <g id="Group_2" data-name="Group 2" transform="translate(646.381 63.575)">
          <g id="Group_1" data-name="Group 1">
            <path id="Path_12" data-name="Path 12" d="M289.777,59.532C273.11,75.948,264.9,96.845,264.9,122.219c0,27.117,8.21,49.257,24.632,65.925s37.813,25.126,64.432,25.126a93.725,93.725,0,0,0,25.873-3.979v-40.3c-8.707,2.488-16.171,3.732-22.642,3.732-13.185,0-23.633-4.478-31.594-13.185-7.958-8.955-11.937-20.9-11.937-36.072,0-14.18,3.979-25.873,11.692-34.828,7.958-9.2,17.663-13.683,29.6-13.683a92.909,92.909,0,0,1,24.877,3.732v-40.3a103.913,103.913,0,0,0-27.117-3.233C327.342,34.9,306.445,43.11,289.777,59.532ZM462.425,34.9c-22.887,0-40.8,7.712-53.735,22.887s-19.156,36.568-19.156,63.935c0,29.6,6.468,52.243,19.156,67.915s31.346,23.633,55.725,23.633c23.633,0,41.794-7.958,54.481-23.633s19.156-37.813,19.156-66.174-6.469-50.253-19.4-65.676C505.463,42.612,486.806,34.9,462.426,34.9Zm19.653,129.362c-4.478,6.966-11.2,10.449-19.653,10.449-7.958,0-13.931-3.483-18.16-10.449s-6.219-20.9-6.219-42.042c0-32.589,8.209-48.759,24.877-48.759,17.415,0,26.37,16.419,26.37,49.506-.245,20.4-2.736,34.334-7.214,41.3ZM660.942,39.627l-8.947,38.061c-2.239,9.7-4.478,19.653-6.468,29.853l-4.976,26.37c-4.726-26.37-11.2-57.716-19.4-94.285h-57.72L541.784,209.041h43.286L596.763,92.366l29.6,116.674h30.847l28.36-116.425,12.19,116.426h45.277L720.154,39.626Zm207.227,0L859.214,77.69c-2.239,9.7-4.478,19.653-6.468,29.853l-4.976,26.37c-4.726-26.37-11.2-57.716-19.4-94.285H770.655L749.012,209.041H792.3L803.991,92.366l29.6,116.674h30.848L892.554,92.616l12.19,116.426h45.277L927.133,39.626H868.175Zm140.806,102.495h40.547V107.044h-40.547v-31.1h46.77V39.876H963.205V209.29H1056V173.216h-47.018Zm175.883-26.867c4.726-7.712,7.214-15.672,7.214-23.882,0-15.921-6.219-28.611-18.657-37.813s-29.6-13.931-51-13.931h-53.242V209.041h45.774V131.926h.746l37.068,77.116h48.262l-36.568-76.373c8.716-3.979,15.679-9.7,20.406-17.415Zm-70.155-2.737v-40.3c10.946.249,18.658,1.989,23.385,5.473s6.966,8.955,6.966,16.916c.008,11.692-10.195,17.664-30.345,17.912Zm104.245-52.986c-16.668,16.419-24.877,37.316-24.877,62.691,0,27.117,8.21,49.257,24.632,65.925s37.809,25.123,64.43,25.123A93.726,93.726,0,0,0,1309,209.292v-40.3c-8.707,2.488-16.171,3.732-22.642,3.732-13.185,0-23.633-4.478-31.594-13.185-7.958-8.955-11.937-20.9-11.937-36.072,0-14.18,3.979-25.873,11.693-34.828,7.958-9.2,17.663-13.683,29.6-13.683a92.91,92.91,0,0,1,24.877,3.732v-40.3a103.911,103.911,0,0,0-27.117-3.234C1256.757,34.9,1235.612,43.11,1218.947,59.532Zm148.517,113.192V141.872h40.547V106.8h-40.547V75.7h47.018V39.626h-92.544V209.041h92.792V172.969h-47.267Z" transform="translate(-264.9 -34.9)" fill="#353642"/>
          </g>
        </g>
      </g>
    </g>
  </g>
</svg>
