<svg xmlns="http://www.w3.org/2000/svg" width="109.569" height="27.768" viewBox="0 0 109.569 27.768">
  <g id="Brands" transform="translate(0)">
    <g id="_992px" data-name="992px" transform="translate(-851 -381)">
      <g id="LOGOS" transform="translate(17 379)">
        <g id="ppcom-white-copy-2" transform="translate(834 2)">
          <g id="Group" transform="translate(28.377 5.923)">
            <path id="Shape" d="M54.843.27h-6.3a.875.875,0,0,0-.865.739L45.127,17.157a.525.525,0,0,0,.519.607H48.88a.612.612,0,0,0,.605-.517l.723-4.578a.875.875,0,0,1,.865-.739h1.994c4.151,0,6.547-2.008,7.173-5.986a4.847,4.847,0,0,0-.8-4.065C58.54.827,56.951.27,54.843.27Zm.727,5.9c-.344,2.261-2.072,2.261-3.743,2.261h-.951l.667-4.221a.526.526,0,0,1,.519-.443H52.5c1.138,0,2.212,0,2.766.648A2.1,2.1,0,0,1,55.57,6.168Z" fill="#232323"/>
            <path id="Shape-2" data-name="Shape" d="M9.894.27h-6.3a.876.876,0,0,0-.865.739L.178,17.157a.525.525,0,0,0,.519.607H3.707a.876.876,0,0,0,.865-.738l.688-4.357a.875.875,0,0,1,.865-.739H8.118c4.151,0,6.547-2.008,7.173-5.986a4.848,4.848,0,0,0-.8-4.065C13.591.827,12,.27,9.894.27Zm.727,5.9c-.344,2.261-2.072,2.261-3.743,2.261H5.928l.667-4.221a.525.525,0,0,1,.519-.443h.436c1.137,0,2.212,0,2.766.648A2.1,2.1,0,0,1,10.622,6.168Z" fill="#232323"/>
            <path id="Shape-3" data-name="Shape" d="M28.73,6.1H25.713a.526.526,0,0,0-.519.443l-.133.843-.211-.305c-.654-.948-2.11-1.265-3.565-1.265a6.938,6.938,0,0,0-6.736,6.066,5.69,5.69,0,0,0,1.123,4.633,4.725,4.725,0,0,0,3.8,1.533,5.78,5.78,0,0,0,4.178-1.725l-.135.838a.525.525,0,0,0,.519.607h2.718a.875.875,0,0,0,.865-.738L29.249,6.7A.525.525,0,0,0,28.73,6.1Zm-4.206,5.87a3.364,3.364,0,0,1-3.406,2.88,2.548,2.548,0,0,1-2.026-.814,2.56,2.56,0,0,1-.473-2.118A3.377,3.377,0,0,1,22,9.011a2.543,2.543,0,0,1,2.012.822A2.6,2.6,0,0,1,24.525,11.965Z" fill="#232323"/>
            <path id="Shape-4" data-name="Shape" d="M73.679,6.1H70.662a.525.525,0,0,0-.519.443l-.133.843L69.8,7.077c-.654-.948-2.11-1.265-3.565-1.265A6.937,6.937,0,0,0,59.5,11.878a5.69,5.69,0,0,0,1.123,4.633,4.724,4.724,0,0,0,3.8,1.533A5.78,5.78,0,0,0,68.6,16.319l-.135.838a.525.525,0,0,0,.519.607H71.7a.875.875,0,0,0,.865-.738L74.2,6.7A.525.525,0,0,0,73.679,6.1Zm-4.205,5.87a3.364,3.364,0,0,1-3.406,2.88,2.548,2.548,0,0,1-2.027-.814,2.561,2.561,0,0,1-.473-2.118,3.376,3.376,0,0,1,3.382-2.9,2.544,2.544,0,0,1,2.012.822A2.6,2.6,0,0,1,69.474,11.965Z" fill="#232323"/>
            <path id="Shape-5" data-name="Shape" d="M44.8,6.1H41.77a.877.877,0,0,0-.724.384l-4.184,6.158L35.088,6.72a.876.876,0,0,0-.839-.624H31.268a.525.525,0,0,0-.5.695l3.34,9.8-3.141,4.429a.525.525,0,0,0,.429.829h3.03a.876.876,0,0,0,.72-.377L45.235,6.92A.525.525,0,0,0,44.8,6.1Z" fill="#232323"/>
            <path id="Shape-6" data-name="Shape" d="M77.236.714,74.65,17.157a.525.525,0,0,0,.519.607h2.6a.876.876,0,0,0,.865-.738L81.185.877a.525.525,0,0,0-.519-.607H77.756A.525.525,0,0,0,77.236.714Z" fill="#232323"/>
          </g>
          <g id="Group-2" data-name="Group">
            <path id="Shape-7" data-name="Shape" d="M21.144,7.055a5.528,5.528,0,0,0-1.167-4.961C18.694.628,16.377,0,13.413,0h-8.6A1.232,1.232,0,0,0,3.593,1.043L.009,23.83a.74.74,0,0,0,.73.856H6.051l-.367,2.332a.647.647,0,0,0,.638.749H10.8a1.078,1.078,0,0,0,1.064-.912l.044-.229.843-5.365.054-.3a1.078,1.078,0,0,1,1.064-.912h.67c4.338,0,7.734-1.767,8.727-6.879.415-2.136.2-3.919-.9-5.172a4.27,4.27,0,0,0-1.226-.947" fill="#232323" opacity="0.68"/>
            <path id="Shape-8" data-name="Shape" d="M21.144,7.055a5.528,5.528,0,0,0-1.167-4.961C18.694.628,16.377,0,13.413,0h-8.6A1.232,1.232,0,0,0,3.593,1.043L.009,23.83a.74.74,0,0,0,.73.856H6.051L7.385,16.2l-.041.266a1.228,1.228,0,0,1,1.212-1.042H11.08c4.958,0,8.841-2.021,9.975-7.864.034-.173.062-.34.088-.5" fill="#232323" opacity="0.7"/>
            <path id="Shape-9" data-name="Shape" d="M8.819,7.083a1.077,1.077,0,0,1,1.064-.912h6.745a14.024,14.024,0,0,1,2.225.163q.292.047.568.109t.535.137c.087.025.171.052.255.08a6.065,6.065,0,0,1,.933.4,5.528,5.528,0,0,0-1.167-4.961C18.694.628,16.377,0,13.413,0h-8.6A1.232,1.232,0,0,0,3.593,1.043L.009,23.83a.74.74,0,0,0,.73.856H6.051L7.385,16.2Z" fill="#232323"/>
          </g>
        </g>
      </g>
    </g>
  </g>
</svg>
