<svg xmlns="http://www.w3.org/2000/svg" xmlns:xlink="http://www.w3.org/1999/xlink" width="1900" height="538" viewBox="0 0 1900 538">
  <defs>
    <clipPath id="clip-logo-jquery">
      <rect width="1900" height="538"/>
    </clipPath>
  </defs>
  <g id="logo-jquery" clip-path="url(#clip-logo-jquery)">
    <g id="JQuery_logo_text" transform="translate(2 2)">
      <path id="Path_1" data-name="Path 1" d="M131.671,46.189l0-.023L116.529,99.848,131.67,46.189Z" transform="translate(410.047 162.397)" fill="#353642"/>
      <path id="Path_2" data-name="Path 2" d="M150.117,72.039l-16.691-.1Z" transform="translate(469.506 253.068)" fill="#353642"/>
      <path id="Path_3" data-name="Path 3" d="M214.028,89.7h.018l-100,.364,99.989-.364Z" transform="translate(401.3 315.555)" fill="#353642"/>
      <path id="Path_4" data-name="Path 4" d="M153.812,72.061l-16.7-.1Z" transform="translate(482.486 253.146)" fill="#353642"/>
      <path id="Path_5" data-name="Path 5" d="M138.11,139.927l17.42-66.434L138.11,139.94v-.009Z" transform="translate(485.988 258.522)" fill="#353642"/>
      <path id="Path_6" data-name="Path 6" d="M244.859,20.49,212.409,173.041Z" transform="translate(747.433 72.072)" fill="#353642"/>
      <path id="Path_7" data-name="Path 7" d="M220.313,20.5,195.678,134.458l24.635-113.97Z" transform="translate(688.562 72.067)" fill="#353642"/>
      <path id="Path_8" data-name="Path 8" d="M461.346,18.971H391.957a9.126,9.126,0,0,0-8.495,6.851l-24.634,113.97-24.635,113.97a9.1,9.1,0,0,1-8.483,6.84H276.6c-48.589,0-42.97-33.6-33.018-79.651.1-.463.2-.916.3-1.39l1.092-5.8c.066-.375.143-.75.2-1.092l2.217-11.815,2.377-12.665c.723-3.817,1.82-9.4,2.537-12.907l11.2-54.717L274.71,25.846a5.512,5.512,0,0,0-5.6-6.873H197.883a9.053,9.053,0,0,0-8.45,6.862L174.12,98.491l-15.312,72.647a.463.463,0,0,0-.023.11L157.362,178c-17.64,80.532-12.962,157.327,82.9,159.731,1.567.045,2.78.056,2.78.056H393.527a9.075,9.075,0,0,0,8.467-6.862l32.451-152.537L466.9,25.837a5.458,5.458,0,0,0-5.549-6.862Z" transform="translate(525.382 66.71)" fill="#353642"/>
      <path id="Path_9" data-name="Path 9" d="M280.5,72.621a5.5,5.5,0,0,1,5.6,6.862l-6.74,32.93" transform="translate(983.055 255.459)" fill="#353642"/>
      <path id="Path_10" data-name="Path 10" d="M277.884,114.379l6.735-32.952-6.74,32.963c0-.009,0-.009,0-.009Z" transform="translate(977.813 286.435)" fill="#353642"/>
      <path id="Path_11" data-name="Path 11" d="M375.585,90.26c.009,0,.023-.009.032-.009-20.42.165-81.784.629-127.906.629,56.131,0,127.87-.618,127.87-.618Z" transform="translate(871.66 317.482)" fill="#353642"/>
      <path id="Path_12" data-name="Path 12" d="M240.356,70.991c-.057-3.608,4.049-9.819,7.9-9.819l-8.665-.143c-3.905,39.274.761,9.962.761,9.962Z" transform="translate(837.615 214.685)" fill="#353642"/>
      <path id="Path_13" data-name="Path 13" d="M250.149,90.387c-.441,0-.894,0-1.335.009C249.256,90.387,249.708,90.387,250.149,90.387Z" transform="translate(875.54 317.961)" fill="#353642"/>
      <path id="Path_14" data-name="Path 14" d="M281.36,72.621a5.5,5.5,0,0,1,5.6,6.862l-6.74,32.93-1.1,5.373" transform="translate(982.2 255.458)" fill="#353642"/>
      <path id="Path_15" data-name="Path 15" d="M256.6,90.37h0Z" transform="translate(901.942 317.901)" fill="#353642"/>
      <path id="Path_16" data-name="Path 16" d="M253.379,90.382h0Z" transform="translate(888.127 317.943)" fill="#353642"/>
      <path id="Path_17" data-name="Path 17" d="M252.732,90.385c-.551,0-1.092,0-1.633.009C251.639,90.385,252.18,90.385,252.732,90.385Z" transform="translate(883.577 317.954)" fill="#353642"/>
      <path id="Path_18" data-name="Path 18" d="M251.407,90.387h0Z" transform="translate(879.615 317.961)" fill="#353642"/>
      <path id="Path_19" data-name="Path 19" d="M255.663,90.382c-1.406,0-2.813.009-4.2.009C252.85,90.391,254.256,90.382,255.663,90.382Z" transform="translate(884.848 317.943)" fill="#353642"/>
      <path id="Path_20" data-name="Path 20" d="M269.356,90.37c-5.615.023-11.219.045-16.741.056C258.137,90.417,263.746,90.395,269.356,90.37Z" transform="translate(888.914 317.901)" fill="#353642"/>
      <path id="Path_21" data-name="Path 21" d="M345.144,90.25h0c-14.965.122-51.92.4-88.774.541C293.21,90.659,330.174,90.372,345.144,90.25Z" transform="translate(902.146 317.479)" fill="#353642"/>
      <path id="Path_22" data-name="Path 22" d="M277.884,110.207l5.643-27.591-5.648,27.613c0-.009,0-.009,0-.023Z" transform="translate(977.813 290.62)" fill="#353642"/>
      <path id="Path_23" data-name="Path 23" d="M253.952,90.387h0Z" transform="translate(880.73 317.961)" fill="#353642"/>
      <path id="Path_24" data-name="Path 24" d="M252.667,90.389h0Z" transform="translate(871.667 317.968)" fill="#353642"/>
      <path id="Path_25" data-name="Path 25" d="M253.011,90.387h0Z" transform="translate(876.565 317.961)" fill="#353642"/>
      <path id="Path_26" data-name="Path 26" d="M35.756,100.624,46.534,52.843,34.211,107.46,22.385,163.094l10.364-48.77c.8-3.773,2.157-9.94,3.006-13.7Z" transform="translate(78.765 185.877)" fill="#353642"/>
      <path id="Path_27" data-name="Path 27" d="M131.284,18.793H55.08a9.228,9.228,0,0,0-8.561,6.829L39.294,57.515l-7.226,31.9a5.363,5.363,0,0,0,5.461,6.829h76.8a9.133,9.133,0,0,0,8.506-6.84l6.983-31.893L136.8,25.644v-.009a5.41,5.41,0,0,0-5.511-6.84Z" transform="translate(112.246 66.107)" fill="#353642"/>
      <path id="Path_28" data-name="Path 28" d="M67.628,42.279V42.27l-22.351,103.4Z" transform="translate(159.317 148.687)" fill="#353642"/>
      <path id="Path_29" data-name="Path 29" d="M1.258,118.1s38.413.5,62.832.5c-18.55,0-49.186-.342-62.864-.507.014,0,.023.009.036.009Z" transform="translate(4.316 415.405)" fill="#353642"/>
      <path id="Path_30" data-name="Path 30" d="M38.516,42.269,27.726,90.05,38.516,42.269Z" transform="translate(97.559 148.689)" fill="#353642"/>
      <path id="Path_31" data-name="Path 31" d="M221.433,40.756h-76.8a9.207,9.207,0,0,0-8.55,6.84L125.29,95.376l-10.778,47.781c-.849,3.762-2.206,9.929-3.006,13.7l-10.365,48.77L90.782,254.4c-.805,3.762-2.46,9.84-3.7,13.492,0,0-14.347,42.693-38.468,42.208-1.026-.023-2.024-.032-3.012-.056-11.688-.221-20.872-.386-20.872-.386h-.018a9.144,9.144,0,0,0-8.61,6.685L8.14,349.823.186,383.294a5.366,5.366,0,0,0,5.351,6.9c13.68.165,44.315.507,62.864.507,60.252,0,92.014-33.383,112.375-129.447L204.6,151,226.955,47.6a5.427,5.427,0,0,0-5.527-6.84Z" transform="translate(0 143.3)" fill="#353642"/>
      <path id="Path_32" data-name="Path 32" d="M294.881,305.6a5.447,5.447,0,0,1-5.538-6.862L347.119,28.116" transform="translate(1017.619 98.879)" fill="#353642"/>
      <path id="Path_33" data-name="Path 33" d="M308.22,177.949,331.586,62.442Z" transform="translate(1084.579 219.641)" fill="#353642"/>
      <path id="Path_34" data-name="Path 34" d="M290.186,196.8c-.469-1.887-.193-6.509.623-10.282l27.42-128.457L289.342,193.37a5.447,5.447,0,0,0,5.538,6.862H301.9c-3.856,0-11.247-1.544-11.711-3.431Z" transform="translate(1017.614 204.232)" fill="#353642"/>
      <path id="Path_35" data-name="Path 35" d="M315.642,98.676c-2.1.849-6.972,1.544-10.828,1.544h7.016a8.949,8.949,0,0,0,8.4-6.873l1.39-6.862c-.767,3.773-3.872,11.341-5.974,12.19Z" transform="translate(1072.593 304.233)" fill="#353642"/>
      <path id="Path_36" data-name="Path 36" d="M310.811,114.921l10.315-50.98a.569.569,0,0,1-.018.1l-10.3,50.88Z" transform="translate(1093.692 224.924)" fill="#353642"/>
      <path id="Path_37" data-name="Path 37" d="M362.987,32.128l3.183,13.15a5.32,5.32,0,0,1-5.4,6.829" transform="translate(1269.501 113.018)" fill="#353642"/>
      <path id="Path_38" data-name="Path 38" d="M308.53,126.113l10.287-50.889Z" transform="translate(1085.67 264.614)" fill="#353642"/>
      <path id="Path_39" data-name="Path 39" d="M360.56,29.147l3.15,13.47Z" transform="translate(1268.765 102.532)" fill="#353642"/>
      <path id="Path_40" data-name="Path 40" d="M313.09,114.738c.767-3.773,2.035-9.885,2.835-13.624l11.015-51.608-12.477,58.458-1.373,6.774Z" transform="translate(1101.716 174.144)" fill="#353642"/>
      <path id="Path_41" data-name="Path 41" d="M325.44,27.135c-.767,3.641-1.749,8.241-2.4,11.286l-27.42,128.466L324.508,31.571l.932-4.435Z" transform="translate(1040.245 95.446)" fill="#353642"/>
      <path id="Path_42" data-name="Path 42" d="M617.408,90.945,614.225,77.8l-3.149-13.47-1.594-6.818c-6.239-24.237-24.552-38.226-64.314-38.226l-61.906-.066-57.012-.066H362.1A9.041,9.041,0,0,0,353.641,26h0L350.8,39.4l-3.348,15.831-.932,4.435L317.634,194.986l-27.42,128.457c-.816,3.773-1.092,8.4-.623,10.282s7.855,3.431,11.71,3.431h57.875c3.856,0,8.732-.7,10.828-1.544s5.207-8.417,5.974-12.19l10.287-50.889,10.3-50.88c0-.023.009-.066.018-.1l1.373-6.774,12.477-58.458,11.021-51.63a9.085,9.085,0,0,1,8.456-6.829l182.1-.088a5.32,5.32,0,0,0,5.4-6.829Z" transform="translate(1018.243 67.337)" fill="#353642"/>
      <path id="Path_43" data-name="Path 43" d="M666.076,8.836c-3.856.027-10.16.051-14.016.051H593.773a14.91,14.91,0,0,0-10.966,5.786L453.921,203.5c-2.179,3.188-4.661,2.714-5.516-1.037l-9.482-41.6a9.221,9.221,0,0,0-8.566-6.829H347.5c-3.856,0-6.139,3.023-5.086,6.73L379.54,290.824a30.67,30.67,0,0,1,.182,13.525L363.539,367.3a5.185,5.185,0,0,0,5.268,6.8H450.7a9.528,9.528,0,0,0,8.743-6.8l16.19-62.95a41.864,41.864,0,0,1,5.957-12.389L690.83,14.247c2.322-3.078,1.064-5.582-2.786-5.554l-21.964.143Z" transform="translate(1204.004 30.586)" fill="#353642"/>
      <path id="Path_44" data-name="Path 44" d="M442.19,139.194l0-.077a8.442,8.442,0,0,1-8.191,7.248H328.943c-3.63,0-5.478-2.471-4.943-5.516a.92.92,0,0,1,.1-.243.207.207,0,0,0-.066.032c.023-.122.023-.231.056-.353l.48-1.787c10.033-26.675,30.47-44.183,68.878-44.183,43.24,0,51.68,21.126,48.743,44.878ZM411.372,17.94c-134.842,0-166.794,81.847-184.719,164.453-17.927,84.2-16.382,162.921,123.148,162.921h4.953c.441-.009.894-.009,1.335-.009h9c.541-.009,1.081-.009,1.633-.009,1.39,0,2.8-.009,4.2-.009h.987c5.521-.009,11.126-.036,16.741-.056h.281c36.852-.143,73.808-.419,88.778-.54a9.085,9.085,0,0,0,8.362-6.884l5.648-27.613,1.1-5.373,6.74-32.93a5.5,5.5,0,0,0-5.6-6.862H368.517c-49.891,0-64.707-13.261-59.249-52.236H509.794l-.018.023c.051,0,.094-.023.138-.023a8.273,8.273,0,0,0,7.3-5.174,7.342,7.342,0,0,0,.485-1.754l-.023.023C547.454,93.58,538.915,17.946,411.363,17.946Z" transform="translate(769.583 63.083)" fill="#353642"/>
      <path id="Path_45" data-name="Path 45" d="M342.028,201.89l-1.9,6.718c0,.023,0,.023,0,.023L324.985,262.29l-15.136,53.65a9.819,9.819,0,0,1-8.914,6.741H220.792c-60.79,0-75.593-47.546-60.79-117.676,14.8-71.73,43.819-116.32,103.65-120.834C345.412,78,361.77,135.513,342.028,201.892Zm54.961,116.663s37.784-91.743,46.366-144.738C455.1,102.877,419.587,0,282.4,0,145.985,0,86.754,98.223,64.152,205c-22.6,107.549,7.011,201.872,142.641,201.1l107-.4,100-.364a9.672,9.672,0,0,0,8.77-6.807l17.419-66.447a5.19,5.19,0,0,0-5.234-6.818l-16.7-.1-16.691-.1c-3.276-.023-5.152-2.14-4.755-4.953a6.451,6.451,0,0,1,.408-1.567Z" transform="translate(201.569)" fill="#353642"/>
      <path id="Path_46" data-name="Path 46" d="M289.065,60.482a4.6,4.6,0,1,1-4.6-4.589A4.6,4.6,0,0,1,289.065,60.482Z" transform="translate(984.798 196.616)" fill="#353642"/>
    </g>
  </g>
</svg>
