<svg xmlns="http://www.w3.org/2000/svg" width="1920" height="445.483" viewBox="0 0 1920 445.483">
  <g id="layer1" transform="translate(-193.432 -645.148)">
    <path id="path2449" d="M1188.315,1039.345c79.632,0,146.191-32.091,146.191-111.723,0-45.561-32.09-76.067-83.594-89.537-53.088-13.074-121.232-11.093-121.232-45.561,3.566-22.583,24.563-28.525,56.654-28.525,49.523,0,51.5,26.544,53.484,43.976h81.613c-5.943-62.6-57.05-106.572-138.663-106.572-85.575,0-134.7,45.56-134.7,104.592,0,34.072,17.036,64.578,45.561,79.632,20.6,9.509,49.126,17.036,83.594,22.978,35.656,3.566,68.143,7.528,70.124,32.091,0,17.036-17.036,38.033-55.07,38.033-55.069,0-66.558-30.506-66.558-51.108H1040.54c1.585,66.162,56.654,111.723,147.776,111.723" transform="translate(778.925 51.286)" fill="#232323"/>
    <path id="path2451" d="M1013.685,1039.345c36.448,0,68.539-11.489,95.083-28.525v21h81.613V705.364h-81.613v24.563c-26.544-19.016-58.635-28.525-95.083-28.525-92.707,0-170.754,74.086-170.754,169.169,0,93.1,78.048,168.773,170.754,168.773ZM922.96,870.572c0-51.5,43.58-95.084,94.687-95.084,49.523,0,91.122,43.58,91.122,95.084,0,49.126-41.6,93.1-91.122,93.1-51.107,0-94.687-43.976-94.687-93.1" transform="translate(597.153 51.286)" fill="#232323" fill-rule="evenodd"/>
    <path id="path2453" d="M915.28,645.148V781.641c-28.525-18.99-60.616-28.485-96.668-28.485-93.1,0-169.169,73.983-169.169,168.935,0,92.974,76.067,168.539,169.169,168.539a181.512,181.512,0,0,0,96.668-28.485v20.968h79.632V645.148H915.28ZM727.49,922.092c0-51.432,43.58-94.952,92.707-94.952,51.5,0,95.083,43.52,95.083,94.952,0,49.059-43.58,92.974-95.083,92.974-49.127,0-92.707-43.915-92.707-92.974" transform="translate(419.26 0)" fill="#232323" fill-rule="evenodd"/>
    <path id="path2455" d="M590.3,1083.1h79.633V757.11H590.3Zm0-356.457h79.633v-81.5H590.3v81.5" transform="translate(365.073 0)" fill="#232323" fill-rule="evenodd"/>
    <path id="path2457" d="M558.706,1090.63c36.052,0,68.143-11.473,96.668-28.485v20.968h81.613V645.148H655.375V781.641c-28.525-18.99-60.616-28.485-96.668-28.485-93.1,0-170.754,73.983-170.754,168.935,0,92.974,77.652,168.539,170.754,168.539ZM465.6,922.091c0-51.432,43.58-94.952,96.668-94.952,49.523,0,93.1,43.52,93.1,94.952,0,49.058-43.58,92.974-93.1,92.974-53.088,0-96.668-43.915-96.668-92.974" transform="translate(178.842 0)" fill="#232323" fill-rule="evenodd"/>
    <path id="path2459" d="M362.2,1039.345c38.033,0,70.124-11.489,98.649-28.525v21h79.632V705.364H460.854v24.563c-28.525-19.016-62.6-28.525-98.649-28.525-93.1,0-168.773,74.086-168.773,169.169,0,93.1,75.671,168.773,168.773,168.773Zm-91.12-168.773c0-51.5,43.58-95.084,93.1-95.084,53.088,0,96.668,43.58,96.668,95.084,0,49.127-43.58,93.1-96.668,93.1-49.523,0-93.1-43.976-93.1-93.1" transform="translate(0 51.286)" fill="#232323" fill-rule="evenodd"/>
  </g>
</svg>
