<svg xmlns="http://www.w3.org/2000/svg" xmlns:xlink="http://www.w3.org/1999/xlink" width="1415" height="414" viewBox="0 0 1415 414">
  <defs>
    <clipPath id="clip-path">
      <rect id="Rectangle_1" data-name="Rectangle 1" width="1411.141" height="280"/>
    </clipPath>
    <clipPath id="clip-logo-dropbox-dark-blue">
      <rect width="1415" height="414"/>
    </clipPath>
  </defs>
  <g id="logo-dropbox-dark-blue" clip-path="url(#clip-logo-dropbox-dark-blue)">
    <g id="dropbox" transform="translate(2 67)" clip-path="url(#clip-path)">
      <g id="Group_1" data-name="Group 1" transform="translate(1.485 1.485)">
        <g id="Dropbox_logo_2017">
          <path id="Path_1" data-name="Path 1" d="M163.4,52.057,81.7,104.115l81.7,52.057L81.7,208.229,0,155.894,81.7,103.83,0,52.057,81.7,0ZM81.274,224.972l81.7-52.057,81.7,52.057-81.7,52.057ZM163.4,155.894l81.7-52.064L163.4,52.057,244.667,0l81.7,52.057-81.7,52.057,81.7,52.057-81.7,52.057Z" fill="#1e242f"/>
          <path id="Path_2" data-name="Path 2" d="M277.2,40.985h66.061c42.116,0,76.907,24.335,76.907,79.9v11.675a112.051,112.051,0,0,1-4.018,30.962c-9.767,34.289-37.358,50.2-71.622,50.2H277.2Zm36.9,31.371V182.217h28.312c23.946,0,40-15.614,40-50.355v-9.15c0-34.745-16.9-50.355-41.271-50.355Zm125.644,1.688h29.58l4.789,32.494c5.634-22.084,20-33.9,46.06-33.9h9.155v37.276H514.123c-30.005,0-37.327,10.409-37.327,39.949v64.283H440.314V74.042Zm96.909,72.863v-3.936c0-46.842,30.005-72.444,70.854-72.444,41.693,0,70.854,25.6,70.854,72.444v3.936c0,46-28.312,70.755-70.854,70.755C562.293,217.241,536.657,193.046,536.657,146.908Zm104.375-.422v-3.517c0-26.024-13.1-41.638-33.946-41.638-20.424,0-33.946,14.348-33.946,41.638v3.517c0,25.178,13.1,39.528,33.946,39.528,20.846-.423,33.946-14.348,33.946-39.528Zm56.484-72.443H727.94l3.521,26.446c7.325-17.724,22.96-29.962,46.06-29.962,35.637,0,59.16,25.6,59.16,73.008v3.936c0,46-26.059,70.334-59.159,70.334-22.114,0-37.327-9.987-44.793-26.024v70.755H697.092l.423-188.493Zm102.122,72.443v-3.095c0-27.851-14.368-41.638-33.523-41.638-20.424,0-33.946,15.614-33.946,41.638v2.674c0,24.757,13.1,40.371,33.524,40.371,20.986-.423,33.945-13.786,33.945-39.951Zm90.993,41.778-3.1,25.6H856.264V27.2H891.9V98.8c7.888-18.287,23.523-28.274,45.638-28.274,33.524.422,58.314,23.491,58.314,69.912v4.36c0,46.419-23.523,73.008-59.16,73.008C913.164,217.241,897.953,206.41,890.63,188.264ZM958.382,144.8V141.28c0-25.6-13.945-39.949-33.523-39.949-20,0-33.946,16.036-33.946,40.371V144.8c0,26.024,13.523,41.216,33.523,41.216,21.407,0,33.944-13.362,33.944-41.214Zm53.1,2.11v-3.936c0-46.842,30.005-72.444,70.854-72.444,41.693,0,70.854,25.6,70.854,72.444v3.936c0,46-28.734,70.755-70.854,70.755-45.218-.422-70.856-24.617-70.856-70.755Zm104.656-.422v-3.517c0-26.024-13.1-41.638-33.946-41.638-20.424,0-33.946,14.348-33.946,41.638v3.517c0,25.178,13.1,39.528,33.946,39.528,20.982-.423,33.942-14.348,33.942-39.528Zm84.8-5.2-49.164-67.239h42.116L1222.2,116.1l28.735-42.059h41.693l-49.863,66.817,52.539,73.008h-41.271l-32.115-46.419-31.268,46.419h-43.1Z" transform="translate(112.862 11.113)" fill="#1e242f"/>
        </g>
      </g>
    </g>
  </g>
</svg>
