<svg xmlns="http://www.w3.org/2000/svg" xmlns:xlink="http://www.w3.org/1999/xlink" width="386" height="377" viewBox="0 0 386 377">
  <defs>
    <clipPath id="clip-github-icon">
      <rect width="386" height="377"/>
    </clipPath>
  </defs>
  <g id="github-icon" clip-path="url(#clip-github-icon)">
    <path id="github" d="M191.2,7.93C85.619,7.93,0,93.534,0,199.124A191.235,191.235,0,0,0,130.75,380.545c9.563,1.771,13.077-4.157,13.077-9.21,0-4.559-.191-19.619-.268-35.583-53.2,11.567-64.411-22.569-64.411-22.569C70.453,291.08,57.919,285.2,57.919,285.2c-17.347-11.878,1.32-11.617,1.32-11.617,19.2,1.341,29.3,19.69,29.3,19.69,17.065,29.231,44.743,20.769,55.646,15.893,1.722-12.357,6.662-20.8,12.138-25.575-42.471-4.82-87.115-21.221-87.115-94.49,0-20.869,7.481-37.933,19.7-51.314-1.99-4.827-8.539-24.262,1.842-50.593,0,0,16.055-5.145,52.6,19.6a181.4,181.4,0,0,1,95.731,0c36.493-24.728,52.534-19.6,52.534-19.6,10.4,26.338,3.875,45.788,1.885,50.594,12.258,13.381,19.676,30.445,19.676,51.313,0,73.438-44.743,89.584-87.306,94.32,6.86,5.928,12.986,17.566,12.986,35.392,0,25.569-.219,46.175-.219,52.464,0,5.088,3.444,11.038,13.14,9.174A191.214,191.214,0,0,0,382.412,199.06c0-105.577-85.6-191.2-191.2-191.2l-.014.064Z" transform="translate(2 -5.865)" fill="#1e242f" fill-rule="evenodd"/>
  </g>
</svg>
