<svg xmlns="http://www.w3.org/2000/svg" xmlns:xlink="http://www.w3.org/1999/xlink" width="1260" height="414" viewBox="0 0 1260 414">
  <defs>
    <clipPath id="clip-path">
      <rect id="Rectangle_1" data-name="Rectangle 1" width="1216.976" height="310"/>
    </clipPath>
    <clipPath id="clip-logo-slack-dark-blue">
      <rect width="1260" height="414"/>
    </clipPath>
  </defs>
  <g id="logo-slack-dark-blue" clip-path="url(#clip-logo-slack-dark-blue)">
    <g id="slack" transform="translate(22 52)" clip-path="url(#clip-path)">
      <g id="Group_7" data-name="Group 7" transform="translate(1.644 0)">
        <g id="Slack_RGB" transform="translate(0 0)">
          <g id="Group_1" data-name="Group 1" transform="translate(388.426 4.648)">
            <path id="Path_1" data-name="Path 1" d="M221.5,256.792l15.165-35.222c16.388,12.23,38.154,18.589,59.683,18.589,15.9,0,25.927-6.115,25.927-15.41-.247-25.927-95.149-5.626-95.884-70.69C226.145,121.038,255.5,95.6,297.081,95.6c24.7,0,49.409,6.115,67.021,20.057l-14.186,35.957C333.772,141.34,313.715,134,294.636,134c-12.964,0-21.525,6.115-21.525,13.943.247,25.438,95.884,11.5,96.865,73.625,0,33.755-28.615,57.477-69.711,57.477-30.086,0-57.724-7.094-78.761-22.258" transform="translate(-221.5 -19.529)" fill="#1e242f"/>
            <path id="Path_2" data-name="Path 2" d="M536.166,208.849a43.783,43.783,0,1,1,0-43.05l41.827-23.237a91.725,91.725,0,1,0,0,89.524Z" transform="translate(45.739 -19.527)" fill="#1e242f"/>
            <rect id="Rectangle_1-2" data-name="Rectangle 1" width="52.345" height="256.097" transform="translate(169.508)" fill="#1e242f"/>
            <path id="Path_3" data-name="Path 3" d="M484.9,64.5V320.6h52.345V243.8l62.128,76.8h67.021l-79.006-91.236,73.135-85.121H596.438l-59.194,70.69V64.5Z" transform="translate(159.378 -64.5)" fill="#1e242f"/>
            <path id="Path_4" data-name="Path 4" d="M455.186,209.34c-7.582,12.475-23.237,21.769-40.848,21.769a43.784,43.784,0,1,1,0-87.567c17.612,0,33.265,9.785,40.848,22.5Zm0-110.071V120.06c-8.559-14.429-29.841-24.46-52.1-24.46-45.985,0-82.186,40.6-82.186,91.48s36.2,91.971,82.186,91.971c22.258,0,43.539-10.032,52.1-24.46v20.791H507.53V99.269Z" transform="translate(-77.767 -19.529)" fill="#1e242f"/>
          </g>
          <g id="Group_6" data-name="Group 6">
            <g id="Group_2" data-name="Group 2" transform="translate(0.245 161.925)">
              <path id="Path_5" data-name="Path 5" d="M127.375,161.087A32.287,32.287,0,1,1,95.088,128.8h32.286Z" transform="translate(-62.801 -128.8)" fill="#1e242f"/>
              <path id="Path_6" data-name="Path 6" d="M95.8,161.087a32.287,32.287,0,0,1,64.575,0v80.718a32.287,32.287,0,1,1-64.575,0Z" transform="translate(-15.082 -128.799)" fill="#1e242f"/>
            </g>
            <g id="Group_3" data-name="Group 3" transform="translate(0 0.001)">
              <path id="Path_7" data-name="Path 7" d="M128.087,127.175a32.287,32.287,0,1,1,32.287-32.287v32.287Z" transform="translate(-14.837 -62.601)" fill="#1e242f"/>
              <path id="Path_8" data-name="Path 8" d="M175.95,95.7a32.287,32.287,0,1,1,0,64.575H94.987a32.287,32.287,0,0,1,0-64.575Z" transform="translate(-62.7 -14.738)" fill="#1e242f"/>
            </g>
            <g id="Group_4" data-name="Group 4" transform="translate(161.926)">
              <path id="Path_9" data-name="Path 9" d="M161.9,127.987a32.287,32.287,0,1,1,32.287,32.287H161.9Z" transform="translate(-81.182 -14.737)" fill="#1e242f"/>
              <path id="Path_10" data-name="Path 10" d="M193.475,175.85a32.287,32.287,0,0,1-64.575,0V94.887a32.287,32.287,0,1,1,64.575,0Z" transform="translate(-128.9 -62.599)" fill="#1e242f"/>
            </g>
            <g id="Group_5" data-name="Group 5" transform="translate(161.925 161.926)">
              <path id="Path_11" data-name="Path 11" d="M161.187,161.8A32.287,32.287,0,1,1,128.9,194.087V161.8Z" transform="translate(-128.9 -81.082)" fill="#1e242f"/>
              <path id="Path_12" data-name="Path 12" d="M161.187,193.375a32.287,32.287,0,0,1,0-64.575h80.963a32.287,32.287,0,0,1,0,64.575Z" transform="translate(-128.899 -128.8)" fill="#1e242f"/>
            </g>
          </g>
        </g>
      </g>
    </g>
  </g>
</svg>
