<svg xmlns="http://www.w3.org/2000/svg" width="1920" height="417.384" viewBox="0 0 1920 417.384">
  <g id="logo-gucci" transform="translate(1798.458 1662.224)">
    <path id="path830" d="M1206.858-1540.236l-3.588,1.192q-20.928-45.445-59.8-72.353-38.268-26.908-96.271-26.908a143.247,143.247,0,0,0-61.589,13.753,153.24,153.24,0,0,0-51.424,37.672q-21.526,23.919-34.682,58t-13.154,75.343q0,41.259,13.154,75.343t34.682,58.6a157.063,157.063,0,0,0,51.424,37.074,148.711,148.711,0,0,0,61.59,13.154q57.4,0,93.281-17.939,36.476-18.536,61.59-56.207l3.588,1.192-1.192,38.269a168.466,168.466,0,0,1-31.691,25.712,233.086,233.086,0,0,1-38.867,18.537,245.237,245.237,0,0,1-42.456,10.763,237.352,237.352,0,0,1-44.248,4.189,259.369,259.369,0,0,1-87.9-14.949q-41.857-14.949-73.549-41.857a203.713,203.713,0,0,1-50.228-65.775Q817-1406.3,817-1453.537t18.537-85.507a201.863,201.863,0,0,1,50.228-66.373q31.691-27.506,73.549-41.857a259.361,259.361,0,0,1,87.9-14.949,275.992,275.992,0,0,1,44.248,3.588,214.8,214.8,0,0,1,42.456,11.362,183.649,183.649,0,0,1,38.867,18.537,151.717,151.717,0,0,1,31.691,25.114Z" transform="translate(-1266.092)" fill="#232323"/>
    <path id="path824" d="M-1376.9-1426.016a59.315,59.315,0,0,0-12.557,7.777q-5.983,4.78-5.983,13.155v73.549a196.365,196.365,0,0,1-73.549,63.981q-44.847,22.723-99.261,22.723a259.363,259.363,0,0,1-87.9-14.949q-41.856-14.949-73.548-41.857a203.717,203.717,0,0,1-50.228-65.775q-18.536-38.867-18.536-86.106t18.536-85.508a201.875,201.875,0,0,1,50.228-66.373q31.692-27.506,73.548-41.858a259.363,259.363,0,0,1,87.9-14.949,276.015,276.015,0,0,1,44.25,3.588,214.808,214.808,0,0,1,42.454,11.361,183.656,183.656,0,0,1,38.867,18.537,151.742,151.742,0,0,1,31.692,25.114l2.4,63.383-3.588,1.192q-20.928-45.445-59.795-72.353-38.269-26.908-96.272-26.908a143.236,143.236,0,0,0-61.589,13.753,153.239,153.239,0,0,0-51.425,37.671q-21.527,23.919-34.681,58t-13.156,75.343q0,40.661,12.557,74.744,13.156,34.083,34.682,58.6a164.879,164.879,0,0,0,51.424,37.671,150.109,150.109,0,0,0,62.187,13.154q62.188,0,106.437-23.918v-111.818a15.39,15.39,0,0,0-6.574-13.156,68.344,68.344,0,0,0-11.96-7.777l.547-2.986q2.986.547,10.763,1.192,7.777.547,16.145,1.192h51.427q7.176-.547,13.754-1.192,6.574-.547,10.162-1.192Z" transform="translate(0 -0.009)" fill="#232323"/>
    <path id="path826" d="M-488.954-1640.682a67.181,67.181,0,0,0-11.959,7.777q-5.983,4.78-6.574,17.939-.547,14.351-1.192,36.476,0,21.526-.547,49.032,0,27.507-.547,59.8v66.971q-.547,38.867-9.571,66.373-8.969,27.505-23.918,46.042-14.351,18.537-32.29,29.3a150.469,150.469,0,0,1-34.682,16.145,123.758,123.758,0,0,1-31.691,7.176,208.817,208.817,0,0,1-23.32,1.794,240.375,240.375,0,0,1-65.776-8.969q-31.691-8.368-55.61-27.506t-38.268-49.63q-14.351-30.5-14.351-74.147v-129.757q0-28.7-.547-51.424,0-23.32-.547-37.671-.547-13.156-6.574-17.939a68.37,68.37,0,0,0-11.959-7.777l.547-2.986q2.986.547,9.571,1.192,7.175.547,14.351,1.192,7.777,0,14.949.547h21.526q7.176-.547,14.948-.547,7.777-.547,14.351-1.192a85.88,85.88,0,0,0,10.161-1.192l.547,2.986a59.338,59.338,0,0,0-12.557,7.777q-5.382,4.78-5.983,17.939-.547,14.351-1.192,37.671v181.181q0,65.177,30.5,96.271t90.292,31.094a214.649,214.649,0,0,0,39.465-4.189,105.227,105.227,0,0,0,41.259-19.134q19.733-14.351,32.888-40.661,13.753-26.311,13.753-69.961,0-47.239-.547-80.724,0-34.083-.547-58,0-24.516-.547-41.857t-1.192-31.691q-.547-13.155-6.574-17.939a68.371,68.371,0,0,0-11.959-7.777l.547-2.986q6.574,1.192,14.948,2.4,8.368.547,15.548.547,6.574,0,14.948-.547,8.969-1.192,15.548-2.4Z" transform="translate(-454.834 -8.981)" fill="#232323"/>
    <path id="path828" d="M333.351-1540.236l-3.588,1.192q-20.929-45.445-59.8-72.353Q231.7-1638.3,173.7-1638.3a143.249,143.249,0,0,0-61.59,13.753,153.226,153.226,0,0,0-51.424,37.672q-21.526,23.919-34.682,58t-13.155,75.343q0,41.259,13.155,75.343t34.682,58.6a157.048,157.048,0,0,0,51.424,37.074,148.712,148.712,0,0,0,61.59,13.154q57.4,0,93.281-17.939,36.475-18.536,61.589-56.207l3.588,1.192-1.192,38.269a168.464,168.464,0,0,1-31.691,25.712A233.064,233.064,0,0,1,260.4-1259.8a245.209,245.209,0,0,1-42.454,10.763,237.365,237.365,0,0,1-44.248,4.189A259.364,259.364,0,0,1,85.8-1259.8q-41.858-14.949-73.549-41.857a203.694,203.694,0,0,1-50.228-65.775q-18.537-38.867-18.537-86.106t18.537-85.507a201.844,201.844,0,0,1,50.228-66.373q31.691-27.506,73.549-41.857a259.356,259.356,0,0,1,87.9-14.949,276,276,0,0,1,44.248,3.588,214.774,214.774,0,0,1,42.454,11.362,183.641,183.641,0,0,1,38.868,18.537,151.717,151.717,0,0,1,31.691,25.114Z" transform="translate(-843.243)" fill="#232323"/>
    <path id="path832" d="M1827.8-1245.983q-2.986-.547-10.162-1.192-6.574,0-14.351-.547-7.777,0-14.949-.547h-35.874q-7.175.547-14.351,1.192-6.574.547-10.162,1.192l-.547-2.4a67.16,67.16,0,0,0,11.959-7.777q5.983-4.78,6.574-17.939.547-14.351.547-29.9.547-15.548.547-35.28v-211.078q0-19.733-.547-34.682,0-15.547-.547-29.9-.547-13.155-6.574-17.939a54.516,54.516,0,0,0-11.959-8.368l.547-2.4a47.631,47.631,0,0,0,10.162,1.794q7.175,0,14.351.547,7.777.547,14.949.547h20.925q7.176-.547,14.949-.547,7.777-.547,14.351-1.192a85.905,85.905,0,0,0,10.162-1.192l.547,2.4a49.3,49.3,0,0,0-12.557,8.368q-5.381,4.78-5.983,17.939-.547,14.351-1.192,29.9v281.041q.547,15.546,1.192,29.9.547,13.155,5.983,17.939a59.931,59.931,0,0,0,12.557,7.777Z" transform="translate(-1706.802 -9.027)" fill="#232323"/>
  </g>
</svg>
