<svg xmlns="http://www.w3.org/2000/svg" xmlns:xlink="http://www.w3.org/1999/xlink" width="1900" height="399" viewBox="0 0 1900 399">
  <defs>
    <clipPath id="clip-zillow">
      <rect width="1900" height="399"/>
    </clipPath>
  </defs>
  <g id="zillow" clip-path="url(#clip-zillow)">
    <g id="zillow-seeklogo.com" transform="translate(-87.066 -158.035)">
      <path id="Path_1" data-name="Path 1" d="M743.7,252.769c0-73.262,59.1-127.516,131.37-127.516,71.587,0,130.684,54.254,130.684,127.516,0,73.46-59.1,127.805-130.684,127.805C802.8,380.483,743.7,326.229,743.7,252.769ZM297.484,38.13V52.98c0,5.544-1.188,7.235-2.269,9.5l-139.9,238.2a.6.6,0,0,0,.5.99H304.81v70.886H36.512V358.7c0-6.138.792-7.418,4.158-13.556L178.985,110.2c.289-.487.091-.99-.5-.99H40.761V38.13ZM1159.5,372.471h-71.663l-77.923-241.08h77.025l22.283,72.973c7.418,24.157,19.892,69.5,19.892,69.5a.563.563,0,0,0,1.081,0s12.87-46.242,20.212-69.5l23.365-72.973H1230.6l22.969,72.973c7.722,24.949,19.8,69.5,19.8,69.5.183.594.883.594,1.188,0,0,0,12.474-45.054,19.892-69.5l22.283-72.973H1388.3l-77.42,241.08H1240.5l-19.207-60.59c-7.341-23.761-20.3-69.9-20.3-69.9a.55.55,0,0,0-1.081,0s-12.977,45.237-20.791,69.5Zm-727.064,0H354.51V131.391h77.923Zm59.1-368.5h77.923v368.5H491.53Zm135.634,0h77.923v368.5H627.164Zm303.848,248.8c0-35.839-25.649-60.3-55.944-60.3-30.98,0-56.63,24.461-56.63,60.3,0,36.144,25.649,60.285,56.63,60.285C905.363,313.069,931.012,288.912,931.012,252.769Zm496.1-179.2a29.107,29.107,0,1,0,29.107,29.107A29.154,29.154,0,0,0,1427.109,73.573Zm0,52.578a23.464,23.464,0,1,1,23.471-23.471A23.463,23.463,0,0,1,1427.109,126.151Zm1.691-40.9c6.732,0,11.576,4.95,11.576,11.789a11.377,11.377,0,0,1-7.128,10.982l6.641,10.89h-6.336l-6.153-10.1h-5.438v10.1h-5.544V85.255Zm-.3,4.95h-6.534v13.662h6.534c3.671,0,6.336-2.879,6.336-6.824C1434.831,93.084,1432.166,90.205,1428.5,90.205Zm-1035.07-79.6c24.248,0,44.353,19.6,44.353,43.759s-20.105,43.759-44.353,43.759c-24.263,0-44.353-19.6-44.353-43.759-.015-24.157,20.09-43.759,44.353-43.759Z" transform="translate(529.012 175.42)" fill="#262b35"/>
      <path id="Path_2" data-name="Path 2" d="M96.011,347.217a2.939,2.939,0,0,1-3.884-.6l-33.2-39.557c-.887-1.1-.994-1.7.2-3.379,25.658-37.569,78.029-96.118,111.424-120.858.6-.4.4-.9-.306-.6C135.461,193.56,36.576,236.1,0,256.772v134.36H355.924V261.742c-48.5,8.242-193.811,51.484-259.913,85.475ZM240.723,105.5c1.789-.4,2.584.2,3.67,1.391,6.162,6.85,25.857,30.9,31.208,37.462a2.213,2.213,0,0,1-.489,3.18c-39.756,31.01-83.992,74.94-108.641,106.347-.489.7-.092.7.306.6,42.937-18.487,143.81-48.013,189.239-56.255V140.685L178.214.04.107,140.578v62.906C55.261,170.7,182.878,119.9,240.723,105.5Z" transform="translate(89.066 159.995)" fill="#262b35"/>
    </g>
  </g>
</svg>
