<svg xmlns="http://www.w3.org/2000/svg" xmlns:xlink="http://www.w3.org/1999/xlink" width="1900" height="444" viewBox="0 0 1900 444">
  <defs>
    <clipPath id="clip-path">
      <rect id="Rectangle_2" data-name="Rectangle 2" width="1900" height="444"/>
    </clipPath>
    <clipPath id="clip-path-2">
      <rect id="Rectangle_1" data-name="Rectangle 1" width="1476" height="344" transform="translate(-0.49 0.297)"/>
    </clipPath>
  </defs>
  <g id="logo-yahoo" clip-path="url(#clip-path)">
    <g id="logo-yahoo-2" data-name="logo-yahoo" clip-path="url(#clip-path)">
      <g id="logo-yahoo-3" data-name="logo-yahoo" transform="translate(212.49 49.703)" clip-path="url(#clip-path-2)">
        <g id="Yahoo__Messenger_Logo__2013-2018_" data-name="Yahoo!_Messenger_Logo_(2013-2018)" transform="translate(1.576 1.511)">
          <g id="Group_1" data-name="Group 1">
            <path id="Path_1" data-name="Path 1" d="M280.9,8.889h0a24.454,24.454,0,0,0-4.821-.689c-11.023,0-21.364,6.2-21.364,22.746-6.2,81.315-13.1,162.635-24.12,239.82h0c6.891-1.379,11.715.689,16.54,2.757h0c12.4-78.562,42.038-196.4,49.619-230.173,1.378-4.824,2.757-10.337,2.757-14.472C300.2,17.159,292.626,10.267,280.9,8.889Z" transform="translate(1172.503 -4.754)" fill="#1E3238"/>
            <path id="Path_2" data-name="Path 2" d="M203.488,12.9h0c-11.023,4.135-20.674,3.446-31.7,0h0C135.952,103.868,93.914,206.551,56.7,283.046h0c17.228-4.135,33.769-2.757,44.106,0h0c9.648-24.12,20.674-51.686,31.012-79.252h0c36.525-1.379,73.738-1.379,110.263,0,10.337,26.188,20.674,53.064,31.012,79.252h0c16.54-4.135,33.079-3.446,44.793,0h0C291.7,232.05,237.945,100.422,203.488,12.9Zm-15.85,46.862c15.161,41.349,31.012,83.387,48.24,125.425h0c-31.7,1.378-64.091,1.378-95.792,0h0C159.383,135.568,177.99,87.328,187.638,59.762Z" transform="translate(147.976 22.936)" fill="#1E3238"/>
            <path id="Path_3" data-name="Path 3" d="M179.99,203.418h0C217.2,137.949,279.228,30.446,296.454,7.7h0q-23.776,5.169-45.483,0h0c-13.092,24.12-59.954,100.616-89.587,150.234C131.061,107.626,95.225,49.049,71.793,7.7h0C53.185,11.835,45.6,11.835,27,7.7h0c36.525,55.821,95.792,161.26,115.777,195.718L140.02,348.139h0s13.094-2.067,21.364-2.067a146.87,146.87,0,0,1,21.364,2.067h0Z" transform="translate(-27 -7.7)" fill="#1E3238"/>
            <path id="Path_4" data-name="Path 4" d="M103.6,52.1Z" transform="translate(424.286 253.881)" fill="#1E3238"/>
            <path id="Path_5" data-name="Path 5" d="M278.31,12.4h0C183.2,12.4,132.9,73.045,132.9,151.608c0,86.143,54.443,137.829,145.41,137.829,97.859,0,146.1-59.267,146.1-137.141C424.409,64.775,367.21,12.4,278.31,12.4ZM279,274.276c-63.4,0-100.616-45.483-100.616-122.668,0-86.832,46.173-121.979,98.548-122.668h2.757C338.266,28.94,381,68.91,381,151.608,379.619,234.308,336.892,274.276,279,274.276Z" transform="translate(596.907 19.99)" fill="#1E3238"/>
            <path id="Path_6" data-name="Path 6" d="M344.963,10h0C249.861,10,177.5,63.753,177.5,164.369c0,82.7,48.24,155.058,168.151,155.058,101.993,0,168.152-55.821,168.152-153.68C513.8,73.4,451.78,10,344.963,10ZM222.293,163.68c0-105.44,64.78-137.141,122.668-137.141,71.671,0,124.047,43.416,124.047,139.208,0,104.061-63.4,137.829-124.047,137.829C280.872,303.577,222.293,265.673,222.293,163.68Z" transform="translate(859.666 5.851)" fill="#1E3238"/>
            <path id="Path_7" data-name="Path 7" d="M248.664,51C234.192,51,227.3,62.023,227.3,73.052c0,13.783,11.023,20.674,24.12,20.674,9.649,0,20.672-6.2,20.672-22.052C272.783,59.27,262.446,51,248.664,51Z" transform="translate(1153.061 247.401)" fill="#1E3238"/>
            <path id="Path_8" data-name="Path 8" d="M227.4,54.3Z" transform="translate(1153.65 266.842)" fill="#1E3238"/>
            <path id="Path_9" data-name="Path 9" d="M43.4,57.1Z" transform="translate(69.62 283.338)" fill="#1E3238"/>
            <path id="Path_10" data-name="Path 10" d="M330.722,12.9h0a98.334,98.334,0,0,1-44.793,0h0c2.067,42.038,3.446,84.073,3.446,126.114q-75.462,2.067-150.923,0c0-42.038,1.378-84.073,3.446-126.114h0a98.334,98.334,0,0,1-44.793,0h0c4.135,90.278,3.446,179.869,0,269.454h0a98.333,98.333,0,0,1,44.793,0h0c-2.067-42.038-3.446-83.387-3.446-125.425q75.462-1.034,150.923,0c0,42.038-1.378,83.387-3.446,125.425h0a98.333,98.333,0,0,1,44.793,0h0C327.275,192.769,327.275,103.178,330.722,12.9Z" transform="translate(385.991 22.936)" fill="#1E3238"/>
          </g>
        </g>
      </g>
    </g>
  </g>
</svg>
