<svg xmlns="http://www.w3.org/2000/svg" xmlns:xlink="http://www.w3.org/1999/xlink" width="1900" height="304" viewBox="0 0 1900 304">
  <defs>
    <clipPath id="clip-logo-awwwards">
      <rect width="1900" height="304"/>
    </clipPath>
  </defs>
  <g id="logo-awwwards" clip-path="url(#clip-logo-awwwards)">
    <g id="awwwards-seeklogo.com" transform="translate(207.625 34.667)">
      <path id="logo-a1" d="M6.339,52.589C11.622,25.118,35.923,6.1,69.733,6.1c39.093,0,69.733,16.905,69.733,69.733v98.26h-33.81l-4.226-21.131c-11.622,14.792-27.471,24.3-50.715,24.3C22.188,177.263,0,159.3,0,126.548S29.584,72.664,70.79,72.664H98.26v-7.4c0-19.018-13.735-24.3-29.584-24.3-11.622,0-23.244,4.226-28.527,19.018ZM60.224,142.4c19.018,0,38.036-12.679,38.036-33.81v-3.17H71.846c-17.962-1.057-28.527,6.339-28.527,21.131C43.319,133.944,49.659,142.4,60.224,142.4Z" transform="translate(0 57.347)" fill="#fff"/>
      <path id="logo-a2" d="M81.739,52.589C87.022,25.118,111.323,6.1,145.133,6.1c39.093,0,69.733,16.905,69.733,69.733v98.26h-33.81l-4.226-21.131c-11.622,14.792-27.471,24.3-50.715,24.3-28.527,0-50.715-17.962-50.715-50.715s29.584-53.885,70.79-53.885H173.66v-7.4c0-19.018-13.735-24.3-29.584-24.3-11.622,0-23.244,4.226-28.527,19.018ZM135.624,142.4c19.018,0,38.036-12.679,38.036-33.81v-3.17H146.19c-17.962,0-28.527,6.339-28.527,21.131C118.719,133.944,125.059,142.4,135.624,142.4Z" transform="translate(717.522 57.347)" fill="#fff"/>
      <path id="logo-r" d="M92.1,175.15V8.213h41.206V35.684C144.928,15.609,163.946,6.1,181.908,6.1a61.516,61.516,0,0,1,20.075,3.17l-7.4,38.036c-5.283-3.17-10.566-5.283-16.905-5.283-24.3,0-44.376,20.075-44.376,72.9v59.168L92.1,175.15Z" transform="translate(876.54 57.347)" fill="#fff"/>
      <path id="logo-d" d="M178.716,64.177c16.905,0,32.753,8.417,40.149,17.885V0h41.206V232.51H218.866V215.677c-5.283,8.417-20.075,19.99-40.149,19.99-49.659,0-75.016-34.719-75.016-85.219S129.058,64.177,178.716,64.177ZM185.055,199.9c21.131,0,38.036-17.885,38.036-50.5s-16.9-50.5-38.036-50.5-38.036,17.885-38.036,50.5S163.924,199.9,185.055,199.9Z" transform="translate(986.766)" fill="#fff"/>
      <path id="logo-s" d="M237.722,34.427l-24.3,22.188A34.652,34.652,0,0,0,185.95,41.823c-8.452,0-15.848,5.283-15.848,13.735,0,7.4,6.339,12.679,15.848,15.848,23.245,8.453,60.224,15.848,60.224,50.715,0,30.64-23.244,54.941-59.168,54.941-34.867,0-58.111-24.3-65.507-44.376l32.753-17.962c6.339,15.848,16.905,27.471,33.81,27.471,12.679,0,21.131-6.339,21.131-17.962,0-13.735-21.131-16.905-41.206-25.358-17.962-7.4-33.81-19.018-33.81-44.376S155.31,5.9,187.007,5.9C208.138,6.957,228.213,18.579,237.722,34.427Z" transform="translate(1155.908 55.434)" fill="#fff"/>
      <path id="logo-w2" d="M199.211,6.3,169.627,121.466,141.1,6.3H103.064L75.593,121.466,52.348,54.9l-3.17,7.4L36.5,105.617l21.131,67.62H93.554l28.527-107.77,28.527,107.77h36.98L240.417,6.3Z" transform="translate(347.251 59.26)" fill="#fff"/>
      <path id="logo-w3" d="M218.868,6.3,189.284,121.466,160.756,6.3H122.72L95.249,121.466,72.005,54.9l-3.17,7.4L55.1,105.617l22.188,67.62h35.923l28.527-107.77,28.527,107.77h35.923L260.074,6.3Z" transform="translate(524.204 59.26)" fill="#fff"/>
      <path id="logo-w1" d="M249.457,6.3,196.629,172.181H160.706L132.179,65.468l-28.527,107.77H67.728L14.9,7.357H56.106L85.69,121.465,114.217,7.357h38.036l28.527,114.109L210.364,7.357,249.457,6.3Z" transform="translate(142.528 59.26)" fill="#fff"/>
      <path id="logo-p" d="M163.271,17c15.848,0,27.471,11.622,27.471,27.471s-11.622,27.471-27.471,27.471S135.8,60.319,135.8,44.471,147.422,17,163.271,17Z" transform="translate(1292.696 161.612)" fill="#fff"/>
    </g>
  </g>
</svg>
