<svg xmlns="http://www.w3.org/2000/svg" xmlns:xlink="http://www.w3.org/1999/xlink" width="1900" height="639" viewBox="0 0 1900 639">
  <defs>
    <clipPath id="clip-logo-invision">
      <rect width="1900" height="639"/>
    </clipPath>
  </defs>
  <g id="logo-invision" clip-path="url(#clip-logo-invision)">
    <g id="XMLID_1_" transform="translate(-65.5 40.456)">
      <path id="XMLID_3_" d="M645.807,188.8H125.175A57.878,57.878,0,0,0,67.5,246.475V767.107a57.878,57.878,0,0,0,57.675,57.675H645.807a57.878,57.878,0,0,0,57.675-57.675V246.475A57.878,57.878,0,0,0,645.807,188.8Z" transform="translate(0 -227.256)" fill="#1E3238"/>
      <path id="XMLID_11_" d="M483.5,502.827H544.3V237.315H483.5ZM705.889,345.91c-31.176-9.872-59.753-18.186-59.753-37.411v-1.039c0-15.588,13.51-26.5,37.411-26.5,11.431,0,24.421,2.6,37.93,7.274H722a25.347,25.347,0,0,0,3.637,1.559c9.872,3.118,35.332,7.274,57.675-27.019-28.058-18.705-64.429-30.136-97.683-30.136-53,0-94.566,30.656-94.566,81.057v1.039c0,50.92,43.646,67.027,83.135,77.939,31.176,9.353,59.234,16.627,59.234,37.411v1.039c0,17.666-15.068,28.578-41.048,28.578-17.147,0-36.372-4.676-55.6-13.509-5.716-2.078-33.774-11.951-58.195,22.343,33.254,25.98,74.3,39.489,112.232,39.489,55.077,0,98.723-27.538,98.723-83.654V423.33C788.5,375.527,744.858,357.861,705.889,345.91ZM317.753,432.682,246.569,237.315H181.1l109.114,267.59h54.557l108.595-267.59h-63.91ZM1071.162,231.6c-81.576,0-141.849,62.871-141.849,139.251,0,75.861,59.753,137.692,140.81,137.692,82.1,0,142.368-62.871,142.368-138.731C1212.492,293.432,1152.219,231.6,1071.162,231.6Zm0,224.464c-47.283,0-81.056-38.969-81.056-86.252,0-46.763,31.176-85.213,80.017-85.213,47.8,0,81.576,38.969,81.576,86.252C1151.18,418.134,1120,456.064,1071.162,456.064ZM1392.79,231.6c-41.048,0-65.988,21.823-83.135,46.763V237.315h-60.793V502.828h60.793V353.185c0-41.048,24.421-65.988,59.753-65.988,36.372,0,56.636,23.382,56.636,64.949V502.827h60.792V333.96C1487.356,272.128,1452.544,231.6,1392.79,231.6ZM828.513,502.827h60.793V237.315H828.513Z" transform="translate(476.658 -47.67)" fill="#1E3238"/>
      <path id="XMLID_12_" d="M139.869,289.4c21.3,0,38.969-16.627,38.969-38.45s-17.666-38.45-38.969-38.45S100.9,229.127,100.9,250.95,118.566,289.4,139.869,289.4Z" transform="translate(140.144 -127.812)" fill="#fff"/>
      <path id="XMLID_13_" d="M105.488,407.364c-2.078,9.872-3.637,20.264-3.637,28.578,0,33.773,18.186,56.116,57.155,56.116,32.215,0,58.194-19.225,76.9-49.881L224.475,488.42h63.91l36.372-146.525c9.353-36.891,27.019-56.636,53.518-56.636,21.3,0,34.293,12.99,34.293,34.813a78.274,78.274,0,0,1-2.6,20.784L391.264,408.4a111.776,111.776,0,0,0-4.157,28.578c0,32.215,18.705,55.6,58.194,55.6,33.774,0,60.792-21.823,75.341-73.782L495.7,408.922c-12.47,34.813-23.382,41.048-32.215,41.048-8.314,0-12.99-5.716-12.99-17.147,0-5.2,1.039-10.911,2.6-17.666l18.186-65.469a141.641,141.641,0,0,0,6.235-41.567c0-49.361-29.617-74.821-65.469-74.821-33.774,0-68.067,30.136-85.213,62.351l12.47-57.675H241.621l-13.509,50.4h45.724L245.778,401.128c-22.342,49.361-62.871,49.881-67.547,48.842-8.314-2.078-13.509-5.2-13.509-16.107,0-6.235,1.039-15.068,4.157-25.98l42.607-169.907H103.409L89.9,288.377h45.2Z" transform="translate(93.989 -40.537)" fill="#fff"/>
    </g>
  </g>
</svg>
