<svg xmlns="http://www.w3.org/2000/svg" xmlns:xlink="http://www.w3.org/1999/xlink" width="1900" height="350" viewBox="0 0 1900 350">
  <defs>
    <clipPath id="clip-remax">
      <rect width="1900" height="350"/>
    </clipPath>
  </defs>
  <g id="remax" clip-path="url(#clip-remax)">
    <g id="layer1" transform="translate(84.2 -250.4)">
      <g id="g4693" transform="translate(24.8 271.4)">
        <path id="path104" d="M24.8,274.9V571.525H90.966V474.519l19.345.28,19.345.28L157.973,523.3l28.317,48.223h75.7L228.9,516.574c-18.224-30.279-32.8-54.951-32.8-54.951a107.594,107.594,0,0,0,30.84-20.466c12.336-12.336,19.906-26.354,23.831-45.419,2.243-9.813,2.243-34.765,0-45.139-8.411-41.494-36.167-65.605-84.67-73.736-7.009-1.121-17.943-1.4-74.857-1.682Zm65.885,58.035h27.2c28.6,0,34.485.561,44.017,4.205,6.168,2.243,13.738,8.131,17.1,13.177,4.766,7.009,6.168,12.056,6.729,22.709.561,15.42-2.243,24.392-11.215,33.083-5.888,5.888-11.495,8.972-20.186,11.495-5.888,1.682-9.252,1.682-34.485,2.243-15.42.28-28.317,0-28.6-.28s-.561-19.906-.561-43.456Z" transform="translate(-24.8 -265.087)" fill="#262b35"/>
        <path id="path100" d="M131.68,423.312V275h201.3v57.755H197.566v61.119H316.44v57.755H197.566v63.362h44.3c24.392,0,44.3.28,44.3.28,0,.281-19.906,38.13-26.635,50.746l-3.084,5.607H131.4Z" transform="translate(167.468 -264.907)" fill="#262b35"/>
        <path id="path98" d="M200.7,570.571c.28-.561,35.326-67.287,78.221-148.032l77.661-147.191,40.372-.28c32.242-.28,40.372,0,39.812.841-.28.561-35.326,67.287-78.221,148.032L280.888,571.132l-40.372.28c-31.962.28-40.092,0-39.812-.841Z" transform="translate(292.455 -264.975)" fill="#262b35"/>
        <path id="path96" d="M285.961,487.9V404.348l33.924-64.2c18.784-35.326,34.2-64.2,34.485-64.2s3.925,4.766,8.131,10.654c7.009,10.093,42.335,59.717,54.391,76.82,3.084,4.206,5.607,7.85,5.888,7.57.28,0,15.42-21.588,33.924-47.942L490.066,275.1h68.969V571.725H494.551v-92.24c0-50.465-.28-91.959-.561-91.959s-16.541,20.747-35.606,45.98c-25.233,33.083-35.606,45.98-36.447,45.7-.841,0-17.1-20.747-36.447-45.7l-35.045-45.419-.28,91.679-.28,91.679H285.4V487.9Z" transform="translate(445.228 -264.727)" fill="#262b35"/>
        <path id="path94" d="M512.724,274.4l-.841,2.243c-.561,1.4-12.9,34.485-27.476,73.736s-39.251,105.136-54.671,146.63c-15.42,41.213-28.036,75.137-28.036,75.418s14.859.28,33.083.28h33.083l3.365-9.813c1.963-5.327,7.009-19.625,11.215-31.681l7.57-21.868h52.708c28.878,0,52.428,0,52.428.28,0,.561,22.429,62.521,22.709,62.8s15.7.28,34.2.28l33.924-.28L663.56,512.148c-12.336-33.083-37.569-100.09-55.792-148.873L574.685,274.4H512.724Zm29.719,88.315c.561-.561,31.961,88.315,31.681,89.716,0,.28-14.3.561-31.681.561s-31.681-.28-31.681-.561C510.762,451.59,541.882,363.556,542.443,362.715Z" transform="translate(654.991 -265.989)" fill="#262b35"/>
        <path id="path90" d="M519.95,559.95c84.67-138.5,84.95-139.06,83.548-141.023-2.8-4.205-86.633-143.266-86.633-143.546s16.822-.28,37.288-.28h37.288l25.513,46.54c14.018,25.513,25.793,46.54,26.354,46.821.28,0,12.336-20.467,26.634-45.98s26.074-46.54,26.354-46.821,17.1-.561,37.008-.28l36.447.28-25.233,40.933c-13.738,22.429-33.363,54.391-43.456,70.932s-18.784,30.56-19.345,31.4c-.841,1.4.841,4.205,23.551,41.774,5.047,8.131,21.588,35.606,37.288,61.119s28.877,47.1,29.438,48.223l1.122,1.963-37.849-.28-37.849-.28-27.2-48.783c-15.14-26.915-27.756-49.064-28.036-49.064s-3.084,3.925-5.888,9.252c-2.8,5.047-15.42,27.2-27.756,49.064l-22.429,39.812-37.008.28-37.008.28Z" transform="translate(854.112 -264.727)" fill="#262b35"/>
        <g id="g4682" transform="translate(1638.719)">
          <path id="path4676" d="M630.612,271.4a21.062,21.062,0,0,0-15.42,6.729c-10.654,10.654-6.168,30.279,7.85,35.326,5.046,1.682,12.056,1.682,16.261-.28,14.3-6.448,17.943-24.672,6.729-35.326a22.388,22.388,0,0,0-15.42-6.448Zm.56,3.364c6.448,0,12.336,3.645,15.7,10.373,1.4,2.523,1.682,5.888,1.4,9.532-.28,3.364-1.122,7.009-2.8,9.252-1.4,1.963-3.925,4.486-5.887,5.327-6.448,3.645-12.9,3.364-19.065-.841-11.215-7.85-10.093-24.672,1.963-31.4a20.023,20.023,0,0,1,8.691-2.243Z" transform="translate(-609.297 -271.4)" fill="#262b35"/>
          <path id="path4672" d="M614.1,275v24.111h4.206V289.018h2.8c3.364,0,5.047,1.963,5.888,7.009.28,1.4.561,3.084,1.122,3.084H631.2c.28-.28,0-.841,0-1.4-.28-.841-.841-3.084-1.4-5.047s-.561-3.364-1.682-3.925c-.561-.561-1.682-1.121-1.4-1.4,0-.28.561-.561,1.682-1.4a5.783,5.783,0,0,0,0-9.252c-1.682-1.4-3.364-1.682-8.411-1.682Zm4.206,2.523h2.8c3.084,0,6.168,2.243,6.168,4.486a4.622,4.622,0,0,1-1.4,2.523,7.134,7.134,0,0,1-4.486,1.4h-3.084v-8.411Z" transform="translate(-600.636 -264.907)" fill="#262b35"/>
        </g>
      </g>
    </g>
  </g>
</svg>
