<svg xmlns="http://www.w3.org/2000/svg" width="1920" height="556.381" viewBox="0 0 1920 556.381">
  <path id="logo-asos" d="M1327.12,407.686c-28.8,30.895-65.786,46.586-109.911,46.586-44.143,0-81.129-15.692-109.911-46.586-27.491-29.428-43.287-76.486-43.287-129.059,0-51.316,15.971-97.728,43.759-127.366,29.079-30.895,65.891-46.656,109.405-46.778,43.584.122,80.4,15.884,109.457,46.778,27.823,29.638,43.759,76.049,43.759,127.366,0,52.573-15.779,99.63-43.27,129.059ZM940.677,278.627c0,2.374.1,4.713.175,7.052-44.16-40.2-108.009-55.156-147.02-62.958-72.175-15.22-127.313-29.149-127.313-80.535,0-36.253,32.465-62.627,94.83-58.106,56.989,4.137,80.989,38.976,87.569,72.593.943,5.516,3.491,9.53,9.775,9.583l102.493.873c.489,0,.908-.052,1.344-.087-14.452,33.7-21.853,71.232-21.853,111.587ZM766.359,467.171c-49.571,0-104.186-17.612-116.771-85.754-1.065-6.511-4.137-9.2-9.129-9.338l-99.089-1.327V195.6c13.021,51.334,56.151,86.871,149.428,107.869,62.435,14.941,170.74,24.436,170.74,88.529,0,44.684-32.9,76.224-95.18,75.177ZM272.814,454.342c-79.942,0-153.181-62.924-153.181-175.645,0-88.442,54.912-174.144,153.7-174.144,42.8,0,151.313,14.662,151.313,174.144,0,159.9-113.3,175.645-151.854,175.645Zm1217.96-218.67c22.743,30.336,63.8,52.8,130.49,67.811,62.417,14.941,170.74,24.436,170.74,88.529,0,44.684-32.919,76.224-95.18,75.177-49.553,0-104.2-17.612-116.771-85.754-1.047-6.511-4.119-9.2-9.129-9.338l-91.811-1.222c9.687-28.573,14.627-59.52,14.627-92.23a314.208,314.208,0,0,0-2.967-42.973Zm199.278,320.71c109.946,0,239.529-40.931,229.388-173.69C1908.234,264.838,1785.6,234.99,1724.3,222.737c-72.192-15.22-127.331-29.149-127.331-80.535,0-36.253,32.465-62.627,94.848-58.106,56.989,4.137,80.989,38.976,87.569,72.593.943,5.516,3.508,9.53,9.774,9.583l102.493.873c7.8.052,10.228-4,9.251-9.548C1880.831,34.752,1778.2,0,1683.752,0c-94.307,0-207.936,26.5-216,143.808-.279,4.538-.384,9.007-.384,13.388-15.011-31.209-36.655-59.869-64.547-85.248C1351.33,25.519,1287.132.646,1217.122.035H1214.8a265.087,265.087,0,0,0-97.292,18.38A281.786,281.786,0,0,0,1031.6,71.948c-26.409,24.017-47.267,50.967-62.173,80.239C947.223,33.792,846.3,0,753.268,0c-86.574,0-189.451,22.394-211.9,116.945V23.092a9.076,9.076,0,0,0-9.076-9.059H435.77a9.076,9.076,0,0,0-9.059,9.076V48.419c0,4.259-2.845,5.743-6.319,3.264C386.059,26.775,335.267.052,274.141.052,239.79.052,206.993,6.092,176.64,18,146.269,29.935,117.4,48.1,90.9,72.017,60.742,99.456,37.772,130.734,22.708,164.98S0,237.486,0,278.679c0,38.452,6.772,74.513,20.108,107.1s33.635,62.732,60.358,89.612c26.705,26.88,56.588,47.3,88.756,60.742,32.169,13.388,67.619,20.177,105.425,20.177,64.966,0,113.716-27.665,145.658-52.817,3.526-2.688,6.406-1.239,6.406,3.159v26.583a9.1,9.1,0,0,0,9.076,9.076h96.524a9.094,9.094,0,0,0,9.059-9.076V443.694c45.5,107,161.454,112.669,218.217,112.669,94.883,0,204.305-30.545,226.019-124.241a291.415,291.415,0,0,0,35.555,43.2c51.735,52.067,119.529,80.064,196.136,80.9h3.142a267.746,267.746,0,0,0,104.326-20.788,273.758,273.758,0,0,0,88.495-60.113,283.019,283.019,0,0,0,47.93-63.6c34.4,137.943,166.918,144.646,228.864,144.646Z" transform="translate(0)" fill="#232323" fill-rule="evenodd"/>
</svg>
