<svg xmlns="http://www.w3.org/2000/svg" xmlns:xlink="http://www.w3.org/1999/xlink" width="1610" height="414" viewBox="0 0 1610 414">
  <defs>
    <clipPath id="clip-path">
      <rect id="Rectangle_1" data-name="Rectangle 1" width="1468.599" height="320"/>
    </clipPath>
    <clipPath id="clip-logo-monday-dark-blue">
      <rect width="1610" height="414"/>
    </clipPath>
  </defs>
  <g id="logo-monday-dark-blue" clip-path="url(#clip-logo-monday-dark-blue)">
    <g id="logo-monday" transform="translate(71 47)" clip-path="url(#clip-path)">
      <g id="g853" transform="translate(1.546 1.546)">
        <g id="g847" transform="translate(0 76.504)">
          <path id="path841" d="M36.1,174A36.24,36.24,0,0,1,4.519,155.672,35.042,35.042,0,0,1,5.511,119.6L70.551,17.461a36.429,36.429,0,0,1,63.18,1.708,35.009,35.009,0,0,1-1.957,36.019l-65,102.136A36.251,36.251,0,0,1,36.1,174Z" transform="translate(0 -0.002)" fill="#1e242f"/>
          <path id="path843" d="M65.973,174A36.133,36.133,0,0,1,34.446,155.71a34.932,34.932,0,0,1,.992-35.98l64.917-101.9a36.391,36.391,0,0,1,63.414,1.447,34.93,34.93,0,0,1-2.343,36.186l-64.9,101.9A36.2,36.2,0,0,1,65.973,174Z" transform="translate(81.688 0.001)" fill="#1e242f"/>
          <ellipse id="ellipse845" cx="33.485" cy="32.782" rx="33.485" ry="32.782" transform="translate(223.243 109.287)" fill="#1e242f"/>
        </g>
        <path id="path851" d="M1204.427,84.828H1155.5l-34.3,88.425-34.119-88.425h-48.931l59.487,139.726-37,92.379h48.574ZM906.843,162.545c0,22.323,19.512,37.013,38.68,37.013,18.837,0,37.343-13.67,37.343-37.024s-18.506-37.04-37.343-37.04c-19.169,0-38.68,14.7-38.68,37.04Zm76.022,78.02v-17.68c-9.922,15.02-33.071,20.7-44.949,20.7-39.328,0-78.668-31-78.668-81.052s39.327-81.038,78.668-81.038c9.908,0,33.057,3.307,44.949,20.669V84.883h45.611v155.71l-45.611-.014Zm-136.6,0H800.656V221.217c-7.62,14.331-26.1,22.681-45.28,22.681-39.672,0-74.713-31.679-74.713-80.735,0-49.979,35.042-81.7,74.713-81.7,19.154,0,37.687,7.992,45.28,22.338V0h45.611Zm-46.6-78.377c0-23.343-16.85-37.024-35.689-37.024-19.512,0-35.717,14.675-35.717,37.024,0,23.067,16.2,37.673,35.7,37.673,19.2.028,35.7-15.323,35.7-37.673ZM567.89,158.165c0-23.674,12.236-31.679,28.427-31.679,15.529,0,26.774,10.335,26.774,31v83.051H669.03V147.5c0-44.343-21.827-66.032-56.538-66.032-18.175,0-36.351,10.335-44.618,26.016V84.828H521.961V240.541h45.928ZM428.672,243.212c-43.627,0-80.019-32.01-80.019-81.038,0-49.056,36.351-80.749,80.019-80.749s80.335,31.691,80.335,80.749-36.71,81.051-80.335,81.051Zm0-45.335c19.154,0,35.042-14.027,35.042-35.689,0-21.014-15.874-35.358-35.042-35.358a34.01,34.01,0,0,0-24.831,10.211,34.628,34.628,0,0,0-9.88,25.148c.013,21.689,15.877,35.687,34.711,35.687ZM266.292,126.5c13.545,0,25.451,10.679,25.451,31v83.064h45.611V152.128c0-47.016-22.861-70.69-59.5-70.69-10.886,0-31.39,3.307-46.272,27.672-8.6-18.01-25.121-27.353-49.538-27.353a44.135,44.135,0,0,0-40.318,25.683v-22.6H95.754v155.71h45.928V158.163c0-23.674,12.9-31.679,26.774-31.679,13.228,0,25.107,10.335,25.451,30.012v84.056h45.942V158.163c0-22.64,11.9-31.652,26.443-31.652Z" transform="translate(261.276)" fill="#1e242f" fill-rule="evenodd"/>
      </g>
    </g>
  </g>
</svg>
