<svg xmlns="http://www.w3.org/2000/svg" xmlns:xlink="http://www.w3.org/1999/xlink" width="1900" height="518" viewBox="0 0 1900 518">
  <defs>
    <clipPath id="clip-path">
      <rect id="Rectangle_1" data-name="Rectangle 1" width="1900" height="518" fill="#fff"/>
    </clipPath>
  </defs>
  <g id="logo-netflix" clip-path="url(#clip-path)">
    <g id="layer1" transform="translate(-382.284 -426.813)">
      <g id="g3235" transform="translate(384.284 428.813)">
        <path id="path3015" d="M-516.8,2368.56q39.639,3.833,79.157,8.166l58.161-143.614,55.285,156.846q42.565,5.341,84.989,11.183l-96.915-275.06,96.955-239.4h-82.113l-.845,1.166-52.369,129.335-45.974-130.5h-81.068l83.7,237.511Z" transform="translate(2136.031 -1886.674)" fill="#fff"/>
        <path id="path3019" d="M-458.264,2362.93V1886.68h-81.047v469.573q40.574,3.106,81.047,6.676" transform="translate(2016.184 -1886.661)" fill="#fff"/>
        <path id="path3023" d="M-609.45,2336.3c21.881,0,43.721.161,65.542.343V2161.68h97.357v-74.51h-97.357v-125.9h112.119v-74.592H-625.277v449.683c5.269,0,10.538-.065,15.828-.065" transform="translate(1558.601 -1886.673)" fill="#fff"/>
        <path id="path3035" d="M-598.791,2340.85q40.484-1.449,81.088-2.435V1961.28h75.738v-74.592H-674.549v74.592h75.758v379.576Z" transform="translate(1296.329 -1886.667)" fill="#fff"/>
        <path id="path3039" d="M-695.139,2391.07V2107.32l95.95,272.283q44.254-4.978,88.69-9.372V1886.69h-77.749v293.9L-691.8,1886.69h-81.087v514.58h.483q38.552-5.339,77.266-10.2" transform="translate(772.887 -1886.656)" fill="#fff"/>
        <path id="path3051" d="M-524,1961.27v-74.591H-717.511V2362.17q96.322-8.324,193.347-13.977v-74.657q-56.111,3.259-111.978,7.462V2161.7h97.357v-74.552h-97.357V1961.27Z" transform="translate(1067.651 -1886.674)" fill="#fff"/>
        <path id="path3055" d="M-500.755,2269.98v-383.3h-81.389v454.448q97.1,3.559,193.508,9.855v-74.688q-55.958-3.62-112.119-6.316" transform="translate(1788.19 -1886.68)" fill="#fff"/>
      </g>
    </g>
  </g>
</svg>
