<svg xmlns="http://www.w3.org/2000/svg" xmlns:xlink="http://www.w3.org/1999/xlink" width="1900" height="484" viewBox="0 0 1900 484">
  <defs>
    <clipPath id="clip-trulia">
      <rect width="1900" height="484"/>
    </clipPath>
  </defs>
  <g id="trulia" clip-path="url(#clip-trulia)">
    <path id="trulia-logo-vector" d="M1434.438,355.147a52.474,52.474,0,1,0-52.474-52.474h0C1381.964,331.439,1405.356,354.831,1434.438,355.147ZM1481.854,636.8V389.6H1334.232v88.51h59.428v247.2h147.622V636.8Zm-252.569,0V274.54H1081.663v88.51h59.112V637.114h-59.112v88.51H1288.4v-88.51h-59.112ZM600.865,388.655H574A115.6,115.6,0,0,0,471.578,440.18L453.56,389.919H366.63v88.51h41.094V725.624h88.51V553.03A77.706,77.706,0,0,1,574,475.268h26.869Zm409.358,174.807V389.6H922.345v177.02a79.027,79.027,0,0,1-158.053,0V389.6H675.466V563.461A167.42,167.42,0,0,0,843,731C935.306,731,1010.223,656.081,1010.223,563.461ZM289.5,478.113V389.6H174.122V281.178H85.928V389.6H26.5v88.51H85.928v85.033c0,92.3,74.917,167.536,167.22,167.536h0a175.229,175.229,0,0,0,36.352-3.793V639.643a90.24,90.24,0,0,1-30.346,5.374c-46.152.948-84.084-36.036-85.033-82.188v-84.4H289.5ZM1834.312,389.6V423.11a125.53,125.53,0,0,0-87.245-38.249h-6.954c-87.245,0-158.369,77.446-158.369,172.91S1652.551,731,1740.113,730.682h6.954a125.365,125.365,0,0,0,87.245-38.249V725.94h88.826V389.6Zm-83.768,255.73c-47.732-.948-85.665-40.462-84.717-87.878a84.448,84.448,0,0,1,168.8-5.69v5.69a85.558,85.558,0,0,1-83.452,87.878Z" transform="translate(-24.5 -248.2)" fill="#262b35"/>
  </g>
</svg>
