<svg xmlns="http://www.w3.org/2000/svg" xmlns:xlink="http://www.w3.org/1999/xlink" width="380" height="80" viewBox="0 0 380 80">
  <defs>
    <clipPath id="clip-Custom_Size_1">
      <rect width="380" height="80"/>
    </clipPath>
  </defs>
  <g id="Custom_Size_1" data-name="Custom Size – 1" clip-path="url(#clip-Custom_Size_1)">
    <g id="Dropbox_logo_2017" transform="translate(-0.667 3.047)">
      <path id="Path_1" data-name="Path 1" d="M44.157,14.085,22.079,28.169,44.157,42.254,22.079,56.339,0,42.178,22.079,28.093,0,14.085,22.079,0ZM21.964,60.869,44.043,46.784,66.122,60.869,44.043,74.953ZM44.157,42.178,66.236,28.093,44.157,14.085,66.122,0,88.2,14.085,66.122,28.169,88.2,42.254,66.122,56.339Z" fill="#0061ff"/>
      <path id="Path_2" data-name="Path 2" d="M277.2,30.931h17.853c11.382,0,20.784,6.586,20.784,21.622v3.16c0,15.151-8.793,21.964-20.442,21.964H277.2Zm9.973,8.489v29.73h7.651c6.471,0,10.811-4.225,10.811-13.628V53.047c0-9.4-4.568-13.628-11.154-13.628h-7.309Zm33.955.457h7.994l1.294,8.793c1.523-5.976,5.405-9.174,12.448-9.174h2.474V49.583h-4.111c-8.108,0-10.088,2.817-10.088,10.811v17.4h-9.859V39.876Zm26.19,19.719V58.529c0-12.676,8.108-19.6,19.148-19.6,11.268,0,19.148,6.928,19.148,19.6v1.066c0,12.448-7.651,19.148-19.148,19.148C354.247,78.628,347.319,72.081,347.319,59.595Zm28.207-.114v-.952c0-7.042-3.54-11.268-9.174-11.268-5.52,0-9.174,3.883-9.174,11.268v.952c0,6.814,3.54,10.7,9.174,10.7C371.986,70.063,375.526,66.294,375.526,59.481Zm15.265-19.6h8.222l.952,7.157c1.979-4.8,6.2-8.108,12.448-8.108,9.631,0,15.988,6.928,15.988,19.757v1.066c0,12.448-7.042,19.033-15.988,19.033-5.976,0-10.088-2.7-12.105-7.042V90.886h-9.631l.114-51.009Zm27.6,19.6v-.837c0-7.537-3.883-11.268-9.06-11.268-5.52,0-9.174,4.225-9.174,11.268v.723c0,6.7,3.54,10.925,9.06,10.925C414.887,70.177,418.389,66.561,418.389,59.481ZM442.98,70.786l-.838,6.928h-8.451V27.2h9.631V46.576c2.132-4.949,6.357-7.651,12.334-7.651,9.06.114,15.76,6.357,15.76,18.919v1.18c0,12.562-6.357,19.757-15.988,19.757C449.071,78.628,444.96,75.7,442.98,70.786Zm18.31-11.763v-.952c0-6.928-3.769-10.811-9.06-10.811-5.405,0-9.174,4.34-9.174,10.925v.837c0,7.042,3.654,11.154,9.06,11.154C457.9,70.177,461.29,66.561,461.29,59.024Zm14.351.571V58.529c0-12.676,8.108-19.6,19.148-19.6,11.268,0,19.148,6.928,19.148,19.6v1.066c0,12.448-7.766,19.148-19.148,19.148C482.57,78.628,475.642,72.081,475.642,59.595Zm28.284-.114v-.952c0-7.042-3.54-11.268-9.174-11.268-5.52,0-9.174,3.883-9.174,11.268v.952c0,6.814,3.54,10.7,9.174,10.7C500.423,70.063,503.925,66.294,503.925,59.481Zm22.916-1.408-13.285-18.2h11.382l7.651,11.382,7.766-11.382h11.268L538.147,57.958l14.2,19.757H541.192l-8.679-12.562-8.451,12.562H512.414Z" transform="translate(-171.679 -16.846)" fill="#183339"/>
    </g>
  </g>
</svg>
