<svg xmlns="http://www.w3.org/2000/svg" xmlns:xlink="http://www.w3.org/1999/xlink" width="1900" height="502" viewBox="0 0 1900 502">
  <defs>
    <clipPath id="clip-logo-pingdom">
      <rect width="1900" height="502"/>
    </clipPath>
  </defs>
  <g id="logo-pingdom" clip-path="url(#clip-logo-pingdom)">
    <g id="Page-1" transform="translate(1.999 2)">
      <g id="pingdom" transform="translate(0.001 0)">
        <path id="Shape" d="M510.824,297.018c-14.413,7.438-28.559,12.461-43.679,14.6-34.347,4.868-66.271-1.341-95.191-20.9-33.511-22.664-53.874-53.925-59.174-94.141-5.309-40.271,5.149-76.32,32.132-106.983,42.454-48.242,110.87-60.765,166.585-29.222,43.829,24.813,68.073,63.3,69.431,113.976,1.263,47.175.783,94.419.177,141.622-.844,66.033-50.216,121.584-115.578,130.855A112.837,112.837,0,0,1,443.7,447.9,34.466,34.466,0,0,1,411.478,417c-1.676-17.9,9.019-33.615,26.055-37.836a61.252,61.252,0,0,1,12.172-1.4c33.168-1.364,60.207-28.619,61.094-61.781C510.962,309.951,510.824,303.913,510.824,297.018Zm.062-118.308a64.652,64.652,0,1,0-65.2,64.231C481.931,243.2,510.7,214.857,510.886,178.71Z" transform="translate(354.453 48.984)" fill="#353642"/>
        <path id="Shape-2" data-name="Shape" d="M933.911,204.2c0,24.411.272,48.826-.077,73.233-.351,24.815-23.361,40.951-46.863,33.316-14.283-4.64-23.511-18.544-23.536-35.807q-.08-57.463-.021-114.928c0-10.334.066-20.669-.021-31-.088-10.235-6.327-16.124-16.592-15.852-34.391.911-62.206,28.753-62.527,63.181-.312,33.141-.013,66.284-.13,99.424-.066,19.066-12.142,33.8-29.478,36.408-21.727,3.269-40.323-11.779-40.611-34.665-.475-37.577-.68-75.212.851-112.745C716.24,132.082,731,104.41,754.035,81.639c25.215-24.924,55.942-38.118,91.59-38.907a123.138,123.138,0,0,1,47.13,7.774,15.663,15.663,0,0,0,11.281.254c52.709-17.438,99.692-6.934,139.576,31.2,25.439,24.327,39,55.14,39.707,90.6.686,34.734.34,69.491.177,104.235-.083,17.426-11.492,31.7-27.278,35.056-16.408,3.481-32.484-3.99-39.313-19.412-2.5-5.651-3.466-12.384-3.534-18.642-.342-31.892.019-63.791-.216-95.683-.233-31.631-20.513-56.85-50.705-63.5a67.751,67.751,0,0,0-11.642-1.4c-10.49-.453-16.705,5.6-16.878,16.147,0,.177,0,.357,0,.535v74.3S933.919,204.2,933.911,204.2Z" transform="translate(812.275 48.471)" fill="#353642"/>
        <path id="Shape-3" data-name="Shape" d="M70.661,297.309c0,24.206,0,47.528,0,70.849,0,15.418-6.31,27.214-20.271,34.27C28.853,413.312,1.97,397.875.339,373.821c-.1-1.42-.167-2.846-.167-4.27.006-64.479-.507-128.965.216-193.437C.91,129.576,21.369,92.542,59.958,66.859c45.193-30.079,93-31.6,140.572-6.136,65.6,35.108,88.958,120.391,51.77,184.767-36.141,62.557-113.264,85.745-177.94,53.5C73.432,298.527,72.476,298.132,70.661,297.309ZM199.628,178.526a64.47,64.47,0,1,0-128.939-.244c-.135,36.324,28.349,64.954,64.539,64.866A64.234,64.234,0,0,0,199.628,178.526Z" transform="translate(-0.001 48.783)" fill="#353642"/>
        <path id="Shape-4" data-name="Shape" d="M645.172,108.6c0-3.055-.011-5.159,0-7.263.15-23.335-.216-46.688.626-70C646.429,13.752,662.287.041,680.237,0c18.007-.043,33.594,14.1,34.924,31.7.107,1.422.186,2.848.186,4.272-.006,64.678.543,129.364-.229,194.034-.552,46.322-20.951,83.224-59.363,108.864-45.375,30.288-93.316,31.822-141.04,6.115-65.42-35.236-88.593-120.074-51.556-184.472a135.042,135.042,0,0,1,177.517-53.983C641.761,107.068,642.877,107.549,645.172,108.6ZM515.878,227.566c.27,36.237,28.935,64.558,65.148,64.366a64.662,64.662,0,1,0-65.148-64.366Z" transform="translate(507.038 0)" fill="#353642"/>
        <path id="Shape-5" data-name="Shape" d="M849.4,178.144c-.622,75.208-61.186,135.317-135.674,134.652A134.958,134.958,0,0,1,579.681,176.442C580.355,102.186,641.3,41.974,715.167,42.6,790.1,43.233,850.022,103.74,849.4,178.144Zm-199.37-.34a64.651,64.651,0,1,0,64.163-64.7A64.314,64.314,0,0,0,650.033,177.8Z" transform="translate(659.733 48.479)" fill="#353642"/>
        <path id="Shape-6" data-name="Shape" d="M447.369,220.21c0,18.529.12,37.06-.034,55.589-.165,19.844-12.183,34.276-30.271,36.726-20.735,2.807-38.638-11.77-39.859-32.743-.434-7.46-.165-14.963-.171-22.444-.019-26.726.186-53.455-.079-80.179-.3-30.177-21.041-55.505-50.464-62.238-39.337-9-77.994,20.648-78.659,60.981-.554,33.487-.088,66.991-.195,100.489-.06,18.544-11.969,33.331-28.657,35.952-22.529,3.539-41.139-11.3-41.42-34.757-.449-37.577-.853-75.225.922-112.741,1.608-34,17.319-62.476,42.144-85.518C250.193,51.884,285.493,40.27,325.6,43.892c33.908,3.062,62.407,17.678,85.529,42.452,25.272,27.081,36.784,59.534,36.267,96.446C447.224,195.262,447.369,207.736,447.369,220.21Z" transform="translate(201.644 49.221)" fill="#353642"/>
        <path id="Shape-7" data-name="Shape" d="M204.69,178.552c0,32.6.086,65.191-.032,97.784-.071,19.788-12.36,33.859-31.321,36.316a34.689,34.689,0,0,1-38.386-27.894,44.053,44.053,0,0,1-.757-7.965q-.061-98.585,0-197.172c.024-17.537,9.84-30.6,25.747-35.065A35.069,35.069,0,0,1,204.26,73.84a113.543,113.543,0,0,1,.415,13.87Q204.72,133.136,204.69,178.552Z" transform="translate(152.67 49.209)" fill="#353642"/>
        <path id="Shape-8" data-name="Shape" d="M169.142,0a35.216,35.216,0,1,1-34.971,35.568A35.391,35.391,0,0,1,169.142,0Z" transform="translate(152.697 0.001)" fill="#353642"/>
      </g>
    </g>
  </g>
</svg>
