<svg xmlns="http://www.w3.org/2000/svg" xmlns:xlink="http://www.w3.org/1999/xlink" width="380" height="80" viewBox="0 0 380 80">
  <defs>
    <clipPath id="clip-Custom_Size_1">
      <rect width="380" height="80"/>
    </clipPath>
  </defs>
  <g id="Custom_Size_1" data-name="Custom Size – 1" clip-path="url(#clip-Custom_Size_1)">
    <g id="Slack_Technologies_Logo" transform="translate(33.411 -0.6)">
      <path id="Path_1" data-name="Path 1" d="M159.5,64.283l3.949-9.172a26.326,26.326,0,0,0,15.541,4.841c4.14,0,6.752-1.592,6.752-4.013-.064-6.752-24.777-1.465-24.968-18.408-.064-8.6,7.58-15.223,18.408-15.223,6.433,0,12.866,1.592,17.452,5.223l-3.694,9.363a27.879,27.879,0,0,0-14.395-4.586c-3.376,0-5.605,1.592-5.605,3.631.064,6.624,24.968,2.994,25.223,19.172,0,8.79-7.452,14.968-18.153,14.968-7.834,0-15.032-1.847-20.51-5.8M311.029,51.8a11.4,11.4,0,1,1,0-11.21l10.892-6.051a23.885,23.885,0,1,0,0,23.312ZM203.64,2.5h13.631V69.188H203.64Zm123.631,0V69.188H340.9v-20l16.178,20h17.452L353.959,45.43,373,23.264H356.315L340.9,41.672V2.5ZM257.78,51.927A12.569,12.569,0,0,1,247.143,57.6a11.4,11.4,0,1,1,0-22.8,12.576,12.576,0,0,1,10.637,5.86Zm0-28.662v5.414c-2.229-3.758-7.771-6.369-13.567-6.369-11.975,0-21.4,10.573-21.4,23.822s9.427,23.949,21.4,23.949c5.8,0,11.338-2.611,13.567-6.369v5.414h13.631V23.264Z" transform="translate(-57.654 -0.69)" fill="#183339"/>
      <path id="Path_2" data-name="Path 2" d="M17.615,75.208A8.408,8.408,0,1,1,9.208,66.8h8.408Zm4.2,0a8.408,8.408,0,0,1,16.815,0V96.227a8.408,8.408,0,0,1-16.815,0Z" transform="translate(-0.036 -24.034)" fill="#e01e5a"/>
      <path id="Path_3" data-name="Path 3" d="M30.19,17.415A8.408,8.408,0,1,1,38.6,9.008v8.408Zm0,4.268a8.408,8.408,0,1,1,0,16.815H9.108a8.408,8.408,0,0,1,0-16.815Z" transform="translate(0)" fill="#36c5f0"/>
      <path id="Path_4" data-name="Path 4" d="M87.919,30.09A8.408,8.408,0,1,1,96.327,38.5H87.919Zm-4.2,0a8.408,8.408,0,1,1-16.815,0V9.008a8.408,8.408,0,1,1,16.815,0Z" transform="translate(-24.034)" fill="#2eb67d"/>
      <path id="Path_5" data-name="Path 5" d="M75.308,87.819A8.408,8.408,0,1,1,66.9,96.227V87.819Zm0-4.2a8.408,8.408,0,0,1,0-16.815H96.39a8.408,8.408,0,0,1,0,16.815Z" transform="translate(-24.034 -24.034)" fill="#ecb22e"/>
    </g>
  </g>
</svg>
