<svg xmlns="http://www.w3.org/2000/svg" width="1920" height="396.522" viewBox="0 0 1920 396.522">
  <path id="Celine_logo" d="M1751.285,326.18v-111.7h123.573V157.414H1751.285V68.87h153.221V11.786H1688.023V383.225h232.269V326.18ZM1577.368,397.5l.484-386.2H1514.59l.992,244.5L1237.844.979l-.5,382.227h63.262l-1-235.135Zm-450.778-14.3.039-371.9h-63.244l-.058,371.9Zm-362.2.019H984.31V326.18H827.651V11.3H764.388v371.92Zm-327.173,0H669.5V326.18H500.478v-111.7H624.024V157.414H500.478V68.87H653.692V11.786H437.215ZM67.5,195.31c0-70.859,49.426-135.3,133.435-135.3,38.551,0,76.6,13.775,102.8,39.36l33.6-43.791c-12.348-14.757-59.8-52.633-136.4-52.633C82.327,2.944.292,92.47.292,196.774c0,106.77,86.487,195.314,207.556,195.314,53.374,0,97.866-17.2,131.966-49.686l-29.165-40.844c-14.824,14.778-52.871,33.966-99.82,33.966C126.315,335.524,67.5,273.046,67.5,195.31Z" transform="translate(-0.292 -0.979)" fill="#232323" fill-rule="evenodd"/>
</svg>
