<svg xmlns="http://www.w3.org/2000/svg" width="1920" height="298.435" viewBox="0 0 1920 298.435">
  <path id="logo-chanel" d="M168.007,20C86.906,20,20,82.034,20,169.218S86.906,318.435,168.007,318.435c55.554,0,104.62-29.988,129.761-76.221l-50.282-28.789c-14.6,30-44.2,48.246-79.478,48.246-50.688,0-89.207-37.712-89.207-92.454s38.519-92.454,89.207-92.454c35.279,0,64.881,18.25,79.478,48.257l50.282-28.789C272.627,50.01,223.561,20,168.007,20Zm200.711,7.3V311.129h56.775V189.49H567.415V311.14h56.764V27.3H567.415V132.726H425.493V27.3H368.718Zm437.936,0L680.943,311.139H742.99l27.975-64.875h148.4l27.986,64.875h62.036L883.7,27.3H806.654Zm259.511,0V311.139h52.7V87.714l152.068,223.425h50.689V27.3h-52.714V215.45L1141.186,27.3h-75.021Zm364.928,0V311.139l210.868.011V258.436H1483.807V193.561h129.761V140.836H1483.807V80.011H1633.84V27.3H1431.094Zm302.1,0V311.15H1940V254.386H1789.967V27.3h-56.775ZM845.173,73.925l51.5,119.625H793.669l51.5-119.625Z" transform="translate(-20 -20)" fill="#232323"/>
</svg>
