<svg xmlns="http://www.w3.org/2000/svg" xmlns:xlink="http://www.w3.org/1999/xlink" width="1900" height="455" viewBox="0 0 1900 455">
  <defs>
    <clipPath id="clip-logo-walmart">
      <rect width="1900" height="455"/>
    </clipPath>
  </defs>
  <g id="logo-walmart" clip-path="url(#clip-logo-walmart)">
    <g id="walmart" transform="translate(386.5 -303.5)">
      <path id="Path_1" data-name="Path 1" d="M512.607,457.287c10.565,0,19.262-5.493,20.436-12.59l10.431-117.965c0-11.66-13.659-21.232-30.833-21.232-17.157,0-30.8,9.572-30.8,21.234L492.262,444.7c1.147,7.095,9.843,12.59,20.381,12.59h-.036m-63.756,36.846c5.3-9.138,4.9-19.409-.686-23.972L351.2,402.145c-10.081-5.838-25.2,1.189-33.775,16.067-8.608,14.859-7.082,31.454,2.972,37.294L427.765,505.5c6.712,2.488,15.863-2.3,21.12-11.432l-.034.069m127.569-.063c5.291,9.132,14.4,13.922,21.114,11.432L704.9,455.512c10.117-5.838,11.554-22.436,3.026-37.294-8.621-14.863-23.763-21.905-33.817-16.067L577.14,470.167c-5.544,4.557-5.956,14.836-.686,23.972l-.034-.069M512.607,604.643c10.565,0,19.262,5.447,20.436,12.55l10.431,117.948c0,11.7-13.659,21.246-30.833,21.246-17.157,0-30.8-9.551-30.8-21.246l10.424-117.948c1.147-7.1,9.843-12.55,20.381-12.55h-.036m63.813-36.854c5.291-9.157,14.4-13.905,21.114-11.388L704.9,606.356c10.117,5.845,11.554,22.457,3.026,37.328C699.3,658.5,684.161,665.56,674.107,659.73L577.14,591.778c-5.544-4.592-5.956-14.878-.686-24.008h-.042m-127.56.006c5.3,9.124,4.9,19.409-.686,24.01L351.2,659.736c-10.081,5.83-25.2-1.231-33.775-16.046-8.608-14.871-7.082-31.483,2.972-37.328l107.364-49.956c6.712-2.517,15.863,2.231,21.12,11.39h-.034" transform="translate(769.18)" fill="#ffffff"/>
      <path id="Path_2" data-name="Path 2" d="M670.182,541.906a37.487,37.487,0,0,1-1.313,10.633c-4.112,13.619-18.214,25.136-35.855,25.136-14.709,0-26.392-8.355-26.392-26,0-27.009,29.728-34.468,63.569-34.28l-.008,24.513Zm53.079-47.068c0-44.536-19.03-83.725-83.331-83.725-33.007,0-59.2,9.271-73.5,17.534l10.473,35.8c13.068-8.25,33.9-15.08,53.605-15.08,32.616-.09,37.957,18.47,37.957,30.349v2.812c-71.1-.105-116.039,24.513-116.039,74.662,0,30.643,22.89,59.344,62.68,59.344,24.45,0,44.928-9.759,57.183-25.407h1.21s8.109,33.973,52.877,20.975c-2.336-14.129-3.1-29.21-3.1-47.346l-.006-69.923M-384.5,350.461s46.46,190.373,53.879,221.27c8.654,36.063,24.252,49.339,69.2,40.375l29.008-118.024c7.356-29.33,12.279-50.242,17.018-80.048h.825c3.327,30.122,8.048,50.808,14.1,80.145,0,0,11.8,53.584,17.858,81.719s22.932,45.864,66.965,36.208L-46.52,350.453h-55.794l-23.61,113.131c-6.348,32.917-12.1,58.667-16.542,88.774h-.789c-4.035-29.842-9.172-54.542-15.619-86.621l-24.561-115.284h-58.143L-267.865,462.83c-7.44,34.158-14.417,61.729-18.837,90.834h-.8c-4.538-27.407-10.578-62.072-17.115-95.121,0,0-15.606-80.383-21.095-108.09l-58.785.008M59.02,541.906a36.967,36.967,0,0,1-1.328,10.633c-4.1,13.619-18.214,25.136-35.855,25.136-14.711,0-26.377-8.355-26.377-26,0-27.009,29.72-34.468,63.567-34.28L59.02,541.9Zm53.073-47.068c0-44.536-19.03-83.725-83.319-83.725-33.016,0-59.233,9.271-73.524,17.534l10.46,35.8c13.066-8.25,33.893-15.08,53.609-15.08,32.639-.09,37.98,18.47,37.98,30.349v2.812c-71.126-.105-116.048,24.513-116.048,74.662,0,30.643,22.877,59.344,62.638,59.344,24.483,0,44.949-9.759,57.219-25.407h1.2s8.132,33.973,52.89,20.975c-2.34-14.129-3.1-29.21-3.1-47.346V494.838m88.576,61.727v-206.1H147.526V612.115h53.142v-55.55m695.2-206.1V543.478c0,26.624,5.02,45.256,15.722,56.659,9.378,9.97,24.786,16.423,43.265,16.423,15.717,0,31.17-3,38.462-5.7l-.686-41.516a81.2,81.2,0,0,1-20.183,2.4c-18.108,0-24.163-11.6-24.163-35.491V462.4h46.277V412.327H948.281V350.461H895.865M758.7,415.552V612.115h54.82V511.471a74.545,74.545,0,0,1,1.189-14.516c4.056-21.093,20.177-34.558,43.335-34.558a102.083,102.083,0,0,1,15.814,1.389V412.327a53.4,53.4,0,0,0-12.074-1.208c-20.457,0-43.732,13.2-53.5,41.516H806.8V415.552H758.7m-520.819,0V612.115h53.41V496.85a46.381,46.381,0,0,1,2.509-16.088c4.426-11.6,15.227-25.2,32.462-25.2,21.562,0,31.631,18.22,31.631,44.515V612.1h53.367V495.431a54.344,54.344,0,0,1,2.231-15.932c4.382-13.209,16.016-23.949,32.041-23.949,21.848,0,32.336,17.9,32.336,48.851V612.094h53.4V496.317c0-61.049-31-85.217-66-85.217-15.486,0-27.722,3.879-38.789,10.66-9.292,5.725-17.626,13.836-24.9,24.5h-.789c-8.44-21.183-28.3-35.148-54.173-35.148-33.243,0-48.184,16.852-57.246,31.142h-.8V415.545h-50.7" transform="translate(0 49.657)" fill="#ffffff"/>
      <path id="Path_3" data-name="Path 3" d="M516.205,475.211h.806c1.069,0,1.755-.442,1.755-1.1,0-.747-.644-1.153-1.637-1.153-.341,0-.69.069-.922.069v2.18Zm-.124,5.3h-2.839v-9.25a22.364,22.364,0,0,1,4.07-.351c2.09,0,3.026.295,3.712.758a2.392,2.392,0,0,1,1,2.027c0,.949-.873,1.753-2.161,2.1v.118a2.719,2.719,0,0,1,1.924,2.378,9.356,9.356,0,0,0,.642,2.223h-3.216a6.133,6.133,0,0,1-.636-1.978c-.181-.937-.623-1.406-1.572-1.406h-.93l.006,3.378Zm1.174-12.264a7.354,7.354,0,1,0,.063,0h-.063Zm.183-2.511a10.7,10.7,0,1,1-.078,0h.063" transform="translate(984.802 177.003)" fill="#ffffff"/>
    </g>
  </g>
</svg>
