<svg xmlns="http://www.w3.org/2000/svg" xmlns:xlink="http://www.w3.org/1999/xlink" width="1900" height="363" viewBox="0 0 1900 363">
  <defs>
    <clipPath id="clip-path">
      <rect id="Rectangle_1" data-name="Rectangle 1" width="1420.557" height="270" transform="translate(-0.008 0.671)"/>
    </clipPath>
    <clipPath id="clip-logo-envato">
      <rect width="1900" height="363"/>
    </clipPath>
  </defs>
  <g id="logo-envato" clip-path="url(#clip-logo-envato)">
    <g id="logo-envato-2" data-name="logo-envato" transform="translate(239.008 37.329)" clip-path="url(#clip-path)">
      <g id="Envato_Logo-ar" transform="translate(1.46 1.461)">
        <path id="Path_1" data-name="Path 1" d="M182.8,31.293c-7.135-3.956-27.59-1.51-52.154,6.086C87.655,66.737,51.37,109.989,48.838,179.441c-.461,1.661-4.7-.224-5.54-.739-11.609-22.23-16.209-45.638-6.515-79.4,1.807-3-4.1-6.7-5.159-5.648-2.128,2.129-11,11.569-16.889,21.777-29.2,50.608-10.108,115.45,40.983,143.828A105.94,105.94,0,0,0,199.737,218.3c32.906-58.914,2.354-176.241-16.935-187Z" transform="translate(-1.001 -4.224)" fill="#ffffff"/>
        <path id="Path_2" data-name="Path 2" d="M398.916,63.459c-60.563,0-104.527,45.025-104.527,107.063,0,62.546,43.847,106.229,106.637,106.229,31.716,0,56.825-9.917,76.794-30.332,5.964-6.44,6.606-12.646,6.606-15.019,0-10.113-7.521-17.459-17.883-17.459-5.223,0-9.592,1.972-14.6,6.606-11.307,10.536-26.2,21.3-50.914,21.3-34.369,0-62.32-25.8-64.077-58.941H473.735c14.875,0,22.1-6.954,22.1-21.255a79.541,79.541,0,0,0-.846-13.242c-7.369-53.189-43.277-84.942-96.069-84.942Zm0,33.212c32.842,0,53.915,20.929,55.215,54.709H336.989c3.075-31.263,29.508-54.709,61.926-54.709Z" transform="translate(-34.307 -8.329)" fill="#ffffff"/>
        <path id="Path_3" data-name="Path 3" d="M655.513,63.459c-27.515,0-54.754,15.82-65.4,37.792V87.672c0-21.036-16.3-22.1-19.569-22.1-9.66,0-19.984,5.805-19.984,22.1V251.679c0,21.845,17.354,22.948,20.831,22.948s20.839-1.1,20.839-22.948V163.76c0-38.254,21.678-64.974,52.712-64.974,30.057,0,44.678,19.727,44.678,60.316v92.578c0,21.845,17.361,22.948,20.839,22.948s20.831-1.1,20.831-22.948V146.018c0-39.909-19.909-82.545-75.781-82.545Z" transform="translate(-63.389 -8.329)" fill="#ffffff"/>
        <path id="Path_4" data-name="Path 4" d="M944.509,65.845c-9.629,0-16.612,5.617-20.771,16.667L866.732,225.871,810.157,82.512C805.728,71.3,798.8,65.845,788.963,65.845c-11.488,0-20.838,8.964-20.838,19.985a28.673,28.673,0,0,0,2.617,11.79l65.516,154.7c7.808,18.662,20.649,22.58,30.051,22.58s22.245-3.916,30.068-22.569L962.324,96.771a30.5,30.5,0,0,0,2.6-11.36c0-11.149-8.783-19.562-20.408-19.562Z" transform="translate(-88.088 -8.599)" fill="#ffffff"/>
        <path id="Path_5" data-name="Path 5" d="M1091.565,63.457c-26.652,0-51.474,7.422-69.885,20.884-6.244,4.308-9.282,9.683-9.282,16.439a16.221,16.221,0,0,0,16.191,16.6,22.254,22.254,0,0,0,12.365-4.392c15.828-10.551,30.7-15.471,46.806-15.471,30.8,0,48.495,15.669,48.495,42.992v4.528c-69.161.075-139.5,8.428-139.5,68.593,0,43.3,37.006,62.689,73.678,62.689,29.206,0,52.532-11.573,67.5-33.485v10.537c0,15.691,10.537,21.255,19.578,21.255,1.9,0,18.714-.6,18.714-21.255V143.037c0-49.84-31.654-79.59-84.654-79.59Zm35.919,112.258h8.767v9.6c0,35.109-22.356,57.792-56.944,57.792-9.388,0-40.03-2.185-40.03-30.324C1039.279,179.555,1089.621,175.715,1127.484,175.715Z" transform="translate(-114.041 -8.328)" fill="#ffffff"/>
        <path id="Path_6" data-name="Path 6" d="M1311.523,96.263c18.232,0,19.154-14.174,19.154-17.014,0-8.428-5.034-17.437-19.154-17.437h-37.489V23.927C1274.034,7,1263.043,1,1253.626,1c-3.477,0-20.831,1.1-20.831,22.927V203.833c0,41.518,20.5,63.463,59.292,63.463,10.037,0,19.818-1.775,26.212-4.75,7.333-3.655,11.535-9.665,11.535-16.485,0-9.621-6.984-16.6-16.614-16.6a29.142,29.142,0,0,0-7.422,1.3,33.579,33.579,0,0,1-8.631,1.238c-15.782,0-23.129-10.293-23.129-32.4V96.246h37.489Z" transform="translate(-140.83 -1)" fill="#ffffff"/>
        <path id="Path_7" data-name="Path 7" d="M1463.084,63.459c-63.023,0-108.747,44.671-108.747,106.211,0,29.962,11.081,57.273,31.186,76.891,19.954,19.463,47.5,30.181,77.564,30.181,62.236,0,109.173-46.031,109.173-107.069,0-61.541-45.926-106.211-109.173-106.211Zm0,177.951c-43.217,0-65.82-36.093-65.82-71.746,0-48.994,34.119-71.306,65.82-71.306s65.819,22.313,65.819,71.306c0,49.3-34.117,71.748-65.819,71.748Z" transform="translate(-154.639 -8.329)" fill="#ffffff"/>
      </g>
    </g>
  </g>
</svg>
