<svg xmlns="http://www.w3.org/2000/svg" xmlns:xlink="http://www.w3.org/1999/xlink" width="1900" height="504" viewBox="0 0 1900 504">
  <defs>
    <clipPath id="clip-redfin">
      <rect width="1900" height="504"/>
    </clipPath>
  </defs>
  <g id="redfin" clip-path="url(#clip-redfin)">
    <g id="redfin-seeklogo.com" transform="translate(1.425 0.212)">
      <g id="Group_2" data-name="Group 2" transform="translate(0.575 1.788)">
        <g id="Logotype_1_">
          <g id="Group_1" data-name="Group 1" transform="translate(713.859 65.799)">
            <path id="Path_1" data-name="Path 1" d="M687.983,72.627C652.839,49.444,605.521,40.809,542.5,40.809l-119.2-.057V435.393l121.694.059c43.329,0,80.57-5.571,111.712-18.069,31.28-12.755,55.736-33,72.321-62.189,16.573-29.162,25.245-67.167,25.245-115.513,0-41.786-5.257-75.967-16.171-103.5C727.188,108.6,710.519,87.685,687.983,72.627ZM656.065,307.954c-5.878,19.682-15.274,34.69-29.877,45.146-16.051,11.318-40.278,17.487-70.207,17.487H513.319l-.064-264.892,35.814.039c35.257.125,61.358,5.757,78.926,18.674,12.838,9.568,21.778,22.929,27.626,41.154,5.84,18.262,8.435,41.279,8.435,69.795C664.057,263.887,661.933,288.222,656.065,307.954Z" transform="translate(-423.297 -40.752)" fill="#262b35"/>
            <path id="Path_2" data-name="Path 2" d="M687.983,72.627C652.839,49.444,605.521,40.809,542.5,40.809l-119.2-.057V435.393l121.694.059c43.329,0,80.57-5.571,111.712-18.069,31.28-12.755,55.736-33,72.321-62.189,16.573-29.162,25.245-67.167,25.245-115.513,0-41.786-5.257-75.967-16.171-103.5C727.188,108.6,710.519,87.685,687.983,72.627ZM656.065,307.954c-5.878,19.682-15.274,34.69-29.877,45.146-16.051,11.318-40.278,17.487-70.207,17.487H513.319l-.064-264.892,35.814.039c35.257.125,61.358,5.757,78.926,18.674,12.838,9.568,21.778,22.929,27.626,41.154,5.84,18.262,8.435,41.279,8.435,69.795C664.057,263.887,661.933,288.222,656.065,307.954Z" transform="translate(-423.297 -40.752)" fill="#262b35"/>
            <path id="Path_3" data-name="Path 3" d="M652.75,435.393h90.134V267.206H847.066v-64.3H742.884V105.714l160.945.019V40.752H652.75Z" transform="translate(-265.269 -40.752)" fill="#262b35"/>
            <path id="Path_4" data-name="Path 4" d="M835.331,435.393h90.252V40.752H835.331S834.656,435.393,835.331,435.393Z" transform="translate(-139.729 -40.752)" fill="#262b35"/>
            <path id="Path_5" data-name="Path 5" d="M1258.326,40.752h-90.617V267.206L1000.014,40.752H927.761V435.393h90.652V202.968l165.879,232.425h74.034Z" transform="translate(-75.864 -40.752)" fill="#262b35"/>
            <path id="Path_6" data-name="Path 6" d="M652.75,435.393h90.134V267.206H847.066v-64.3H742.884V105.714l160.945.019V40.752H652.75Z" transform="translate(-265.269 -40.752)" fill="#262b35"/>
            <path id="Path_7" data-name="Path 7" d="M1258.326,40.752h-90.617V267.206L1000.014,40.752H927.761V435.393h90.652V202.968l165.879,232.425h74.034Z" transform="translate(-75.864 -40.752)" fill="#262b35"/>
          </g>
          <path id="Path_8" data-name="Path 8" d="M373.934,477.278c-7.577-3.04-15.18-8.837-35.573-43.172l-40.636-67.378-47.9-79.414-4.061-6.753c2.344-.659,4.644-1.419,6.924-2.177,54.983-18.856,87.079-69.19,87.079-141.013,0-35.492-14.352-68.271-41.759-92.8a137.87,137.87,0,0,0-12.539-9.589C248.884,10.848,199.613,1.844,133.981,1.844L9.862,1.788H9.8v.027H7.975c-8.069-.1-8.83,4.543-5.666,8.749C5.167,14.3,8.4,19.3,9.8,31.989V428.218C8.4,444.355,5.123,449.5,2.31,453.209c-3.2,4.195-1.785,9,6.282,8.9H100.5V294.041h41.77l29.345,49.849,36.9,62.712,17.938,30.486c22.793,38.361,42.738,59.624,82.443,64.163a144.973,144.973,0,0,0,17.421,1.115h6.145c14.28,0,28.22-5.732,36.9-9.42,1.182-.439,2.327-.9,3.467-1.4C383.244,486.926,380.359,479.837,373.934,477.278ZM158.886,229.741H100.5V67.616h58.391c28.9,0,50.94,3.747,67.446,18.741a58.16,58.16,0,0,1,14.155,21.177c4.051,10.212,6.091,22.5,6.091,37.3C246.579,166.375,244.6,229.741,158.886,229.741Z" transform="translate(-0.575 -1.788)" fill="#262b35"/>
          <path id="Path_9" data-name="Path 9" d="M328.485,267.241H432.9V202.952H328.485V105.513H489.357V40.786H238.172V435.422H489.406V369.991H328.485Z" transform="translate(163.063 25.071)" fill="#262b35"/>
        </g>
      </g>
    </g>
  </g>
</svg>
