<svg xmlns="http://www.w3.org/2000/svg" width="1000" height="420.625" viewBox="0 0 1000 420.625">
  <path id="path815" d="M948.708,408.179,800.551.269l-.1-.269h-2.924L767.016,83.825l-55.543,152.6-.13-.121c-19.251-16.986-46.409-27.6-80.613-31.558L620.3,203.672l10.349-1.327c56.406-10.136,94.322-45.76,94.322-88.679,0-58.856-55.357-99.938-134.652-99.938H425.332v2.979h47.941V320.828L356.841.269l-.1-.269h-2.924L323.306,83.825,205.631,407.13l-.724.083q-3.017.372-5.968.594c-2.961.232-5.9.371-8.855.371H71.183L297.2,16.707l1.68-2.942H22.453v121.1h2.933c.52-58.986,34.872-118.158,110.77-118.158h91.566L0,411.112H306.784V295.089h-2.933c-.4,51.412-29.544,100.244-92.921,111.271l-2.014.343,48.266-132.666H392.391l48.72,134.141H393.05v2.933H581.685v-2.933H533.419V205.833H589.11c56.675,0,89.18,25.321,89.18,69.447v35.893c0,3.954.269,9.737.566,14.573v.176l-29.934,82.237h-39.1v2.933h80.947v-2.933H652.078l27.261-74.886c.056.724.083,1.16.083,1.16l.752,6.748.724,4.465c4.548,27.614,15.111,47.913,31.382,60.332l2.339,1.7c12.363,8.6,27.725,12.948,45.685,12.948,23.789,0,39.652-5.931,52.749-19.891l-1.717-1.615c-12.066,11.138-22.193,15.649-34.881,15.649-21.617,0-32.932-26.221-32.932-52.081V312.4a112.916,112.916,0,0,0-5.783-36.728l-.538-1.559v-.056h98.9L884.821,408.2H836.76v2.933H1000V408.2ZM258.259,271.105,324.865,88.113l66.458,182.992Zm275.188-68.213V16.707h42.511c56.786,0,86.767,33.758,86.767,97.589,0,67.888-17.209,88.6-73.615,88.6Zm202.6,68.212-.288-.724a90.855,90.855,0,0,0-18.851-28.773l-2.785-2.785-.3-.278L768.538,88.113,835,271.1Z" fill="#232323"/>
</svg>
