<svg xmlns="http://www.w3.org/2000/svg" xmlns:xlink="http://www.w3.org/1999/xlink" width="1900" height="349" viewBox="0 0 1900 349">
  <defs>
    <clipPath id="clip-realtor">
      <rect width="1900" height="349"/>
    </clipPath>
  </defs>
  <g id="realtor" clip-path="url(#clip-realtor)">
    <g id="realtor-com-seeklogo.com" transform="translate(-24.1 -270)">
      <path id="Path_1" data-name="Path 1" d="M159.463,362.712c-11.693,0-18.329-5.056-21.806-14.537-3.476-8.849-2.528-12.957-11.377-12.957S96.574,359.552,93.729,393.05c-.632,3.792-.948,26.23-.948,38.555v30.338c0,13.273-.948,30.022,1.58,39.819,2.528,13.273,6,14.853,16.117,19.278a40.327,40.327,0,0,0,7.269,2.528v.948H26.1v-.948a50.932,50.932,0,0,0,7.269-2.528c10.429-4.424,13.273-6,15.8-19.278,2.528-9.8,1.58-26.546,1.58-39.819V376.3c0-8.217.632-31.919-.632-39.5-1.58-9.481-3.792-12.325-8.533-15.8-5.056-3.792-9.8-3.792-12.957-4.424v-.948H90.253c2.844,0,2.844.948,2.844,2.844l-.632,56.252H93.1c6-24.65,18.646-40.451,25.6-47.4,6.953-7.269,19.594-16.117,35.395-16.117,7.269,0,15.8,1.9,21.174,7.9,3.792,3.792,6.953,10.429,6.953,20.858.316,11.377-6.953,22.754-22.754,22.754" transform="translate(0 84.682)" fill="#262b35"/>
      <path id="Path_2" data-name="Path 2" d="M452.395,362.712c-11.693,0-18.329-5.056-21.806-14.537-3.476-8.849-2.528-12.957-11.377-12.957s-29.706,24.334-32.551,57.832c-.632,3.792-.948,26.23-.948,38.555v30.338c0,13.273-.948,30.022,1.58,39.819,2.528,13.273,6,14.853,16.117,19.278a40.326,40.326,0,0,0,7.269,2.528v.948H318.4v-.948a50.925,50.925,0,0,0,7.269-2.528c10.429-4.424,13.273-6,15.8-19.278,2.528-9.8,1.58-26.546,1.58-39.819V376.3c0-8.217.632-31.919-.632-39.5-1.58-9.481-3.792-12.325-8.217-15.8-5.056-3.792-9.8-3.792-12.957-4.424v-.948H383.5c2.844,0,2.844.948,2.844,2.844l-.632,56.252h.632c6-24.65,18.645-40.451,25.6-47.4,6.953-7.269,19.594-16.117,35.395-16.117,7.269,0,15.8,1.9,21.174,7.9,3.792,3.792,6.953,10.429,6.953,20.858,0,11.377-7.269,22.754-23.07,22.754" transform="translate(631.442 84.682)" fill="#252521"/>
      <path id="Path_3" data-name="Path 3" d="M191.293,414.211c-7.9-6.636-15.8-8.849-27.494-8.849-10.429,0-18.329,2.528-25.6,9.481-10.745,9.8-16.749,31.919-18.329,64.153h70.79c14.221,0,15.8-.316,15.8-18.329.316-24.966-7.269-39.819-15.169-46.456Zm58.781,74.582h-130.2c0,57.517,7.269,75.214,21.806,91.331,11.377,12.957,21.806,16.117,36.027,16.117,39.5,0,60.993-19.91,68.577-54.672l1.9.632c-8.849,42.979-36.027,70.789-78.374,70.789-24.65,0-51.2-6-69.526-24.966C80.685,566.852,73.1,541.254,73.1,505.859c0-66.049,37.923-110.293,90.067-110.293,60.677,0,87.223,40.767,87.223,79.322A70.684,70.684,0,0,1,250.074,488.793Zm83.431,23.07c-13.905,7.269-19.594,12.325-24.018,19.278-5.056,7.9-7.9,16.749-7.9,30.654,0,28.126,10.745,34.131,30.655,34.131a29.7,29.7,0,0,0,12.325-2.528c10.429-5.372,25.282-21.174,25.282-36.975l.632-68.893c-6.952,10.429-23.7,17.381-36.975,24.334Zm73.318,101.444c-11.693,0-21.174-.632-27.178-3.792-6.32-3.476-10.745-13.273-9.8-31.6h-.632c-5.056,16.749-27.178,35.395-58.781,35.395-29.074,0-54.672-16.749-54.672-52.144,0-13.273,3.792-23.7,12.325-31.6,15.169-14.221,36.027-15.169,57.2-23.7,28.126-10.745,46.14-24.018,46.14-38.871,0-7.269.632-24.334.632-31.6,0-26.546-12.009-30.97-33.183-30.97-10.429,0-16.749,1.9-21.806,6.953s-6.953,9.481-6.953,24.018c0,15.169-8.217,21.806-22.122,21.806-10.745,0-19.594-6-19.594-18.646,0-8.217,2.844-14.221,7.9-20.226,10.745-13.905,40.767-22.122,61.941-22.122,36.343,0,77.11,13.273,77.11,48.352,0,16.117-.948,93.544-.948,122.934,0,6.637,0,12.957.316,19.594.632,7.9,2.844,17.065,12.009,19.277a17.106,17.106,0,0,0,12.957-2.528v.632C434.633,608.883,422.624,613.307,406.823,613.307Zm33.5-4.424v-.948a62.441,62.441,0,0,0,8.217-2.528c8.533-3.476,12.325-6.32,14.853-19.278,1.9-9.481,1.9-25.6,1.9-39.5V332.361c0-8.217.632-31.919-.948-39.5-1.58-9.481-3.792-12.957-8.217-15.8-5.372-4.108-9.481-4.108-12.957-4.424V272h61.941c2.844,0,2.844,0,2.844,3.476,0,7.268-.632,17.7-.632,30.97v240.5c0,13.905-.632,29.706,1.58,39.5,2.844,13.273,6.32,15.8,16.749,19.594,2.844.948,3.792,1.58,6.32,1.9v.948H440.321" transform="translate(101.532 0)" fill="#262b35"/>
      <path id="Path_4" data-name="Path 4" d="M352.263,555.018c-7.269,16.117-29.074,31.6-50.248,31.6-19.278,0-31.919-2.844-42.979-12.957-8.849-7.9-12.957-17.7-12.957-36.027,0-9.8,1.58-137.471,1.9-161.489-7.269-.632-21.806-.632-29.074-1.58v-.948c30.654-6.953,49.616-22.754,70.474-89.119h1.58v81.534h48.668v9.481H290.954l-1.9,165.6c0,18.646,5.372,34.763,24.966,34.763,17.381,0,30.654-10.113,36.343-22.122l1.9,1.264" transform="translate(416.497 27.003)" fill="#252521"/>
      <path id="Path_5" data-name="Path 5" d="M389.179,335.334c-9.8-11.693-21.174-14.221-32.551-14.221a43.727,43.727,0,0,0-31.919,13.905c-14.853,15.169-23.07,47.4-23.07,85.011,0,38.555,8.849,68.578,22.754,84.695,9.8,11.693,21.806,14.853,32.551,14.853,11.377,0,22.122-2.528,32.551-14.221,13.273-16.117,22.754-46.772,22.754-85.327-.632-38.239-9.481-68.261-23.07-84.695ZM356.628,529.057c-48.668,0-101.128-41.715-101.128-109.345s52.144-108.4,101.128-108.4c48.668,0,101.444,41.4,101.444,108.4S405.3,529.057,356.628,529.057ZM961.184,335.334c-9.8-11.693-21.174-14.221-32.551-14.221a43.727,43.727,0,0,0-31.918,13.905c-14.853,15.169-23.07,47.4-23.07,85.011,0,38.555,8.849,68.578,22.754,84.695,9.8,11.693,21.806,14.853,32.551,14.853,11.377,0,22.122-2.528,32.551-14.221,13.273-16.117,22.754-46.772,22.754-85.327-.632-38.239-9.481-68.261-23.07-84.695ZM928.634,529.057c-48.668,0-101.128-41.715-101.128-109.345s52.144-108.4,101.128-108.4c48.668,0,101.444,41.4,101.444,108.4S977.3,529.057,928.634,529.057Zm-315.393,3.16c-14.221,0-26.23-11.377-26.23-27.178s11.693-27.178,26.23-27.178c14.221,0,26.23,9.8,26.23,27.178s-12.009,27.178-26.23,27.178m136.839-3.16c-27.178,0-51.2-10.429-67-26.23-20.226-20.542-28.126-49.616-28.126-85.327,0-67,51.2-106.5,95.44-106.5,30.655,0,53.092,11.377,61.941,22.122,6.953,8.533,10.429,15.8,10.429,22.754,0,15.169-11.377,21.174-20.226,21.174-16.749,0-22.754-10.429-24.65-26.23-3.792-28.126-8.533-31.6-29.706-31.6-8.217,0-21.806,3.476-29.706,12.325C707.1,344.5,701.1,370.729,701.1,408.968c0,48.352,6,67.313,18.646,85.959,9.481,13.905,21.174,17.381,32.551,17.381,44.244,0,64.153-25.914,70.79-54.988l1.9.632c-7.9,39.187-33.5,71.106-74.9,71.106" transform="translate(495.562 84.25)" fill="#252521"/>
      <path id="Path_6" data-name="Path 6" d="M755.165,538.127v-.948a33.448,33.448,0,0,0,7.269-2.528c9.8-3.792,13.273-6.321,15.8-19.594,2.528-9.8,1.9-25.6,1.9-39.5V389.911c0-22.754-1.9-33.183-7.269-40.767-6.321-8.533-14.221-12.957-27.178-12.957-22.122,0-46.772,37.923-50.248,75.846-.632,7.269-.948,13.589-.948,22.754v40.767c0,13.905-.948,29.706,1.58,39.5,2.528,13.273,6.32,15.8,16.117,19.594a40.321,40.321,0,0,0,7.269,2.528v.948H627.49v-.948a33.45,33.45,0,0,0,7.269-2.528c9.8-3.792,13.273-6.321,15.8-19.594,2.528-9.8,1.9-25.6,1.9-39.5V389.911c0-22.754-2.528-33.183-7.9-40.767-6.32-8.533-14.221-12.957-27.178-12.957-24.65,0-46.772,38.871-50.248,76.794-.948,11.693-.948,7.269-.948,22.122v40.451c0,13.905-.948,30.022,1.58,39.819,2.528,13.273,6.321,14.853,16.749,19.278l6.953,2.528v.948H499.5v-.948a50.925,50.925,0,0,0,7.269-2.528c10.429-3.792,12.957-6,15.8-19.278,2.528-9.8,1.9-26.23,1.9-39.819V390.227c0-8.849,0-32.551-.948-39.819-1.58-9.481-3.476-11.693-8.533-15.8-5.056-3.792-9.481-3.792-12.957-4.424v-.948h61.941c2.844,0,2.844.632,2.844,2.844l-.948,48.352h.632c6-21.806,16.749-34.131,27.494-41.715,7.9-6,23.7-13.905,40.767-13.905,21.806,0,36.975,6.32,45.824,17.381,5.056,6,12.957,19.594,12.957,39.819h.632c6.32-23.07,18.329-36.027,28.442-43.3,10.745-7.9,27.494-13.905,40.451-13.905,27.178,0,39.5,8.533,46.772,17.7,6.32,7.269,11.693,20.542,11.693,45.824v87.223c0,13.905-.632,29.706,1.9,39.5,2.528,13.273,6,15.169,16.117,19.594l6.952,2.528v.948H755.165m117.561-207c1.9,0,3.476-.316,4.424-1.264a4.528,4.528,0,0,0,1.58-3.476v-.316a4.078,4.078,0,0,0-1.58-3.476c-.948-.948-2.528-1.264-4.424-1.264h-7.585v9.481h7.585Zm-13.273-14.853h13.589c3.792,0,6.953.948,9.165,3.16a8.824,8.824,0,0,1,2.528,6.321h0a9.113,9.113,0,0,1-1.9,6,9.306,9.306,0,0,1-5.056,3.16L886,346.3h-6.953l-7.269-10.429h-6.32V346.3h-5.688l-.316-30.022Zm11.693,40.451a25.753,25.753,0,0,0,9.8-1.9,26.919,26.919,0,0,0,7.9-5.372,22.628,22.628,0,0,0,5.056-7.9,24.183,24.183,0,0,0,1.9-9.481h0a23.093,23.093,0,0,0-1.9-9.481,25.962,25.962,0,0,0-5.056-7.9,23.341,23.341,0,0,0-7.9-5.372,24.62,24.62,0,0,0-9.8-1.9,25.754,25.754,0,0,0-9.8,1.9,26.917,26.917,0,0,0-7.9,5.372,22.627,22.627,0,0,0-5.056,7.9,24.183,24.183,0,0,0-1.9,9.481h0a23.091,23.091,0,0,0,1.9,9.481,25.964,25.964,0,0,0,5.056,7.9,23.343,23.343,0,0,0,7.9,5.372,25.751,25.751,0,0,0,9.8,1.9Zm0,3.792a25.649,25.649,0,0,1-11.061-2.212,28.431,28.431,0,0,1-14.853-14.853,25.2,25.2,0,0,1-2.212-10.745h0a24.252,24.252,0,0,1,2.212-10.745,29.182,29.182,0,0,1,6-8.849,27.468,27.468,0,0,1,8.849-6,26.622,26.622,0,0,1,11.061-2.212,25.648,25.648,0,0,1,11.061,2.212,28.43,28.43,0,0,1,14.853,14.853,25.2,25.2,0,0,1,2.212,10.745h0a24.252,24.252,0,0,1-2.212,10.745,29.182,29.182,0,0,1-6,8.849,27.468,27.468,0,0,1-8.849,6,31.338,31.338,0,0,1-11.061,2.212Z" transform="translate(1022.664 71.072)" fill="#252521"/>
    </g>
  </g>
</svg>
