<svg xmlns="http://www.w3.org/2000/svg" xmlns:xlink="http://www.w3.org/1999/xlink" width="1900" height="815" viewBox="0 0 1900 815">
  <defs>
    <clipPath id="clip-logo-less">
      <rect width="1900" height="815"/>
    </clipPath>
  </defs>
  <g id="logo-less" clip-path="url(#clip-logo-less)">
    <g id="_x31_98-less" transform="translate(-24.001 -155.553)">
      <g id="Group_3" data-name="Group 3" transform="translate(26.001 157.553)">
        <path id="Path_13" data-name="Path 13" d="M1841.116,453.354c0-60.7,9.48-96.528,9.48-161.67,0-101.265-37.335-133.838-120-133.838h-60.742V229.5h18.667c42.075,0,51.258,13.918,51.258,65.438,0,48.262-4.74,96.524-4.74,152.489,0,71.654,23.407,99.49,69.934,110.447v4.733c-46.815,10.952-69.934,38.788-69.934,110.446,0,55.961,4.74,101.257,4.74,152.489,0,53.007-10.964,66.921-51.258,66.921v1.475h-18.667v74.615H1730.6c82.365,0,120-32.569,120-133.834,0-66.917-9.48-101.261-9.48-161.666,0-32.569,20.147-66.925,80.885-69.883V522.339c-60.738-2.068-80.885-36.416-80.885-68.985ZM1528.221,548.1c-46.811-18.655-90.365-29.611-90.365-60.7,0-23.392,18.663-37.306,53.03-37.306s65.49,13.914,99.561,38.784l62.218-82.314c-38.818-29.611-91.849-60.7-163.555-60.7-105.781,0-177.483,60.7-177.483,146.269,0,76.1,66.966,115.183,122.969,136.8,48.295,18.647,95.105,34.348,95.105,65.438,0,23.392-18.667,38.784-60.738,38.784-38.814,0-77.93-15.7-120-48.262l-62.214,90.309c46.8,38.793,118.22,65.447,177.475,65.447,124.44,0,191.406-65.447,191.406-151.01S1588.963,568.237,1528.221,548.1ZM464.816,723.984c-10.964,0-24.887-9.474-24.887-38.785V157.553H218.891c-84.154,0-121.485,32.569-121.485,133.834,0,66.921,9.48,104.227,9.48,161.67,0,32.573-20.147,66.917-80.885,69.879v80.839c60.738,1.475,80.885,35.823,80.885,68.392,0,57.448-9.48,91.788-9.48,158.7,0,101.265,37.331,133.838,120,133.838h60.742V893.056H259.478c-38.81,0-51.262-15.7-51.262-66.925s4.74-95.033,4.74-152.489c0-71.65-23.4-99.482-69.921-110.442v-4.741c46.807-10.948,69.921-38.784,69.921-110.442,0-55.956-4.74-101.261-4.74-152.489s10.968-65.438,51.262-65.438H301.26V676.608c0,95.042,32.591,157.23,127.7,157.23,29.627,0,53.035-4.741,69.926-10.953L483.178,721.616a62.183,62.183,0,0,1-18.362,2.368ZM1151.332,548.1c-48.3-18.655-91.849-29.611-91.849-60.7,0-23.392,18.663-37.306,53.035-37.306s65.482,13.914,99.553,38.784l62.222-82.314c-38.811-29.611-91.849-60.7-163.551-60.7-105.781,0-177.483,60.7-177.483,146.269,0,76.1,66.966,115.183,122.969,136.8,48.291,18.647,95.1,34.348,95.1,65.438,0,23.392-18.667,38.784-60.738,38.784-38.811,0-77.926-15.7-120-48.262L909.85,775.207c46.811,38.793,118.22,65.447,177.487,65.447,124.444,0,191.406-65.447,191.406-151.01.3-85.576-66.669-121.407-127.412-141.541ZM692.081,344.39c-113.781,0-222.521,95.05-219.562,244.281,0,153.976,101.333,244.285,234.965,244.285,56,0,118.224-20.146,166.515-52.995l-46.815-82.322c-34.371,20.134-66.962,29.6-101.333,29.6-62.222,0-110.517-29.6-122.964-101.253H884.967c1.48-10.965,4.736-32.569,4.736-57.443C891.483,442.4,822.745,344.39,692.081,344.39ZM603.187,540.4c9.476-62.18,46.815-91.788,90.37-91.788,56,0,77.922,38.788,77.922,91.788Z" transform="translate(-26.001 -157.553)" fill="#232323"/>
      </g>
    </g>
  </g>
</svg>
