<svg xmlns="http://www.w3.org/2000/svg" xmlns:xlink="http://www.w3.org/1999/xlink" width="380" height="80" viewBox="0 0 380 80">
  <defs>
    <clipPath id="clip-Custom_Size_1">
      <rect width="380" height="80"/>
    </clipPath>
  </defs>
  <g id="Custom_Size_1" data-name="Custom Size – 1" clip-path="url(#clip-Custom_Size_1)">
    <g id="monday-ar21" transform="translate(-4.839 -1.553)">
      <g id="Group_1" data-name="Group 1" transform="translate(12.65 20.481)">
        <path id="Path_1" data-name="Path 1" d="M29.858,88.833a8.987,8.987,0,0,1-7.606-13.752L38.42,49.261A8.985,8.985,0,0,1,53.65,58.8L37.478,84.618a8.976,8.976,0,0,1-7.62,4.215Z" transform="translate(-20.885 -44.725)" fill="#ff3d57"/>
        <path id="Path_2" data-name="Path 2" d="M44.078,88.989a8.987,8.987,0,0,1-7.62-13.752l16.179-25.82a8.983,8.983,0,1,1,15.208,9.538L51.695,84.774a8.976,8.976,0,0,1-7.62,4.215Z" transform="translate(-7.242 -44.881)" fill="#ffcb00"/>
        <ellipse id="Ellipse_1" data-name="Ellipse 1" cx="8.998" cy="8.773" rx="8.998" ry="8.773" transform="translate(55.693 26.558)" fill="#00d647"/>
      </g>
      <path id="Path_3" data-name="Path 3" d="M329.452,40.408H316.993L308.259,62.78l-8.673-22.372H287.1l15.157,35.278-9.422,23.327h12.378ZM254.619,60.026c0,5.636,4.969,9.349,9.9,9.349a9.35,9.35,0,1,0,0-18.7C259.627,50.678,254.619,54.386,254.619,60.026Zm19.36,19.7V75.269c-2.525,3.786-8.419,5.223-11.444,5.223A20.048,20.048,0,0,1,242.5,60.031a20.048,20.048,0,0,1,20.04-20.461c2.525,0,8.419.839,11.444,5.223V40.425H285.6V79.739Zm-34.8,0H227.567V74.847c-1.936,3.622-6.651,5.722-11.539,5.722-10.11,0-19.033-8-19.033-20.384,0-12.618,8.927-20.629,19.033-20.629,4.883,0,9.6,2.022,11.539,5.636V19.013h11.616ZM227.309,59.949a9.1,9.1,0,1,0-18.19,0c0,5.825,4.13,9.508,9.095,9.508A9.156,9.156,0,0,0,227.309,59.949Zm-59.044-1.015c0-6.023,3.115-8,7.241-8,3.958,0,6.819,2.611,6.819,7.83V79.731h11.7V56.24c0-11.2-5.559-16.671-14.4-16.671a13.131,13.131,0,0,0-11.367,6.565V40.412h-11.7V79.726h11.7ZM132.793,80.4c-11.117,0-20.384-8.08-20.384-20.461s9.263-20.384,20.384-20.384,20.461,8,20.461,20.384S143.906,80.4,132.793,80.4Zm0-11.444a9.085,9.085,0,1,0-8.845-9.009A8.693,8.693,0,0,0,132.793,68.958ZM91.406,50.931c3.45,0,6.483,2.693,6.483,7.83V79.731h11.616V57.359c0-11.874-5.825-17.854-15.157-17.854-2.775,0-8,.839-11.788,6.991-2.194-4.547-6.4-6.905-12.618-6.905a11.25,11.25,0,0,0-10.269,6.483V40.365H47.987V79.679h11.7V58.929c0-6.023,3.287-8,6.819-8,3.369,0,6.4,2.611,6.483,7.572V79.718h11.7V58.929c0-5.722,3.033-8,6.711-8Z" transform="translate(50.974 -17.46)" fill="#242e45" fill-rule="evenodd"/>
    </g>
  </g>
</svg>
