<svg xmlns="http://www.w3.org/2000/svg" xmlns:xlink="http://www.w3.org/1999/xlink" width="350" height="56" viewBox="0 0 350 56">
  <defs>
    <clipPath id="clip-reviewsio">
      <rect width="350" height="56"/>
    </clipPath>
  </defs>
  <g id="reviewsio" clip-path="url(#clip-reviewsio)">
    <g id="reviewsio-logo--black">
      <rect id="reviewsio-logo--black-2" data-name="reviewsio-logo--black" width="350" height="56" fill="none"/>
      <g id="reviewsio-logo" transform="translate(1.944 3.888)">
        <g id="Group_3" data-name="Group 3" transform="translate(58.319 3.468)">
          <g id="Group_1" data-name="Group 1">
            <path id="Path_1" data-name="Path 1" d="M61.357,38.972l-9-11.592c5.781-1.353,9.823-5.126,9.823-11.382v-.107A11.031,11.031,0,0,0,59.09,8.022h0C56.614,5.545,52.735,4.064,47.9,4.064H33.613A2.668,2.668,0,0,0,31,6.731V40.807a2.639,2.639,0,1,0,5.278,0V28.371H46.511L57.105,42.136a2.975,2.975,0,0,0,2.4,1.337,2.606,2.606,0,0,0,1.849-4.5ZM56.843,16.054v.109h0c0,4.64-3.915,7.366-9.329,7.366H36.278V9.015h11.29c5.82,0,9.275,2.609,9.275,7.039Z" transform="translate(-31 -3.52)"/>
            <path id="Path_2" data-name="Path 2" d="M50.994,40.535A2.668,2.668,0,0,0,53.607,43.2H77.6a2.448,2.448,0,0,0,0-4.9H56.272V25.916h18.6a2.438,2.438,0,0,0,2.449-2.447,2.483,2.483,0,0,0-2.449-2.449h-18.6V8.963H77.323a2.449,2.449,0,1,0,0-4.9H53.607a2.668,2.668,0,0,0-2.613,2.667Z" transform="translate(-12.127 -3.52)"/>
            <path id="Path_3" data-name="Path 3" d="M86.06,43.769h.286a3.09,3.09,0,0,0,2.883-2.086L104.012,7.534a2.711,2.711,0,0,0,.2-1.052A2.609,2.609,0,0,0,101.6,3.924a3.038,3.038,0,0,0-2.56,1.794.155.155,0,0,0-.016.031L86.225,36.4,73.479,5.858A2.88,2.88,0,0,0,70.8,3.924a2.713,2.713,0,0,0-2.669,2.611A2.428,2.428,0,0,0,68.4,7.728l14.71,33.943A3.037,3.037,0,0,0,86.06,43.769Zm-2.508-2.286Z" transform="translate(4.046 -3.652)"/>
            <path id="Path_4" data-name="Path 4" d="M90.281,6.591V40.939a2.639,2.639,0,1,0,5.278,0V6.591a2.639,2.639,0,1,0-5.278,0Z" transform="translate(24.959 -3.652)"/>
            <path id="Path_5" data-name="Path 5" d="M124.356,4.066l-.062,0H100.576a2.668,2.668,0,0,0-2.611,2.667v33.8a2.667,2.667,0,0,0,2.611,2.665h23.99a2.448,2.448,0,0,0,0-4.9H103.243V25.916h18.6a2.436,2.436,0,0,0,2.449-2.447,2.482,2.482,0,0,0-2.449-2.449h-18.6V8.963h21.051a2.449,2.449,0,0,0,.062-4.9Z" transform="translate(32.212 -3.52)"/>
            <path id="Path_6" data-name="Path 6" d="M154.861,43.821h.447a2.886,2.886,0,0,0,2.634-2.179l12.212-33.9a.05.05,0,0,0,0-.014,4.228,4.228,0,0,0,.3-1.188,2.759,2.759,0,0,0-2.667-2.611,2.663,2.663,0,0,0-2.533,2.02S155.153,35,155.153,35L145.623,5.947a2.67,2.67,0,0,0-2.585-2.022v0l-.274,0a2.615,2.615,0,0,0-2.587,2.022L130.647,35,120.6,6.048A2.919,2.919,0,0,0,117.9,3.925a2.768,2.768,0,0,0-2.72,2.665,3.643,3.643,0,0,0,.241,1.135L127.64,41.644a2.815,2.815,0,0,0,2.634,2.177h.447a2.884,2.884,0,0,0,2.632-2.179l9.413-27.97,9.463,27.97A2.888,2.888,0,0,0,154.861,43.821Z" transform="translate(48.465 -3.651)"/>
            <path id="Path_7" data-name="Path 7" d="M169.4,33.056v.109c0,3.522-3.221,6-8.019,6a16.885,16.885,0,0,1-11.712-4.391l-.01-.01a2.422,2.422,0,0,0-1.635-.616,2.567,2.567,0,0,0-2.56,2.613,2.438,2.438,0,0,0,1.013,2.028,22.786,22.786,0,0,0,14.741,5.22c7.883,0,13.514-4.475,13.514-11.281v-.111c0-6.048-4-9.347-12.813-11.267a0,0,0,0,0,0,0c-8.009-1.717-9.974-3.507-9.974-6.94V14.3c0-3.206,3.007-5.674,7.638-5.674a15.5,15.5,0,0,1,9.582,3.233l0,0a2.458,2.458,0,0,0,1.538.472,2.556,2.556,0,0,0,2.556-2.558,2.706,2.706,0,0,0-1.122-2.133l-.01-.006a19.915,19.915,0,0,0-12.439-3.853c-7.556,0-13.026,4.65-13.026,10.9l.486.486-.486-.484v.1l.486.488-.486-.486c0,6.493,4.106,9.514,13.2,11.489h0c7.628,1.612,9.537,3.4,9.537,6.777Z" transform="translate(77.053 -3.784)"/>
          </g>
          <g id="Group_2" data-name="Group 2" transform="translate(255.995 15.989)">
            <path id="Path_8" data-name="Path 8" d="M164.488,21.578h-.045a1.682,1.682,0,0,0-1.755,1.724l.292.292-.292-.292v.61a1.74,1.74,0,1,0,3.48,0,.292.292,0,0,1-.292.292.322.322,0,0,0,.292-.307V23.3a1.676,1.676,0,0,0-1.68-1.724ZM163,24.2l-.025.006.025,0Z" transform="translate(-162.688 -2.976)"/>
            <path id="Path_9" data-name="Path 9" d="M166.919,19.528V33.219A1.46,1.46,0,0,0,168.4,34.7a1.433,1.433,0,0,0,1.452-1.481V19.528a1.459,1.459,0,0,0-1.481-1.481A1.48,1.48,0,0,0,166.919,19.528Zm-.214-5.581h0a1.685,1.685,0,0,0,3.357,0v-.395a1.685,1.685,0,0,0-3.357,0Z" transform="translate(-158.896 -12.009)"/>
            <path id="Path_10" data-name="Path 10" d="M187.348,23.553v-.066a8.51,8.51,0,0,0-17.019.06l.06.06-.06-.06v.06a8.366,8.366,0,0,0,8.464,8.464A8.473,8.473,0,0,0,187.348,23.553Zm-2.992.054v-.06a5.679,5.679,0,0,0-5.564-5.871,5.534,5.534,0,0,0-5.472,5.81v.06a5.627,5.627,0,0,0,5.534,5.836A5.531,5.531,0,0,0,184.357,23.607Z" transform="translate(-155.475 -9.166)" fill-rule="evenodd"/>
          </g>
        </g>
        <path id="Path_11" data-name="Path 11" d="M1,25.7A23.7,23.7,0,1,0,24.7,2,23.7,23.7,0,0,0,1,25.7Zm16.5,4.286a1.943,1.943,0,0,0-.69-2.142L9.27,22.219a.973.973,0,0,1,.581-1.752h9.008A1.941,1.941,0,0,0,20.7,19.134c.71-2.144,2.121-6.407,3.058-9.232a.972.972,0,0,1,1.845,0c.945,2.827,2.374,7.1,3.091,9.24a1.942,1.942,0,0,0,1.843,1.328h9.03a.972.972,0,0,1,.585,1.748c-2.317,1.746-5.777,4.353-7.529,5.671a1.946,1.946,0,0,0-.682,2.14c.676,2.138,2.033,6.425,2.951,9.319a.972.972,0,0,1-1.518,1.065l-7.509-5.764a1.946,1.946,0,0,0-2.372,0L16.07,40.393a.972.972,0,0,1-1.522-1.061c.918-2.9,2.272-7.2,2.949-9.343Z" transform="translate(-1 -2)" fill="#24cb7a"/>
      </g>
    </g>
  </g>
</svg>
