<svg xmlns="http://www.w3.org/2000/svg" xmlns:xlink="http://www.w3.org/1999/xlink" width="718" height="718" viewBox="0 0 718 718">
  <defs>
    <clipPath id="clip-TripAdvisor-icon">
      <rect width="718" height="718"/>
    </clipPath>
  </defs>
  <g id="TripAdvisor-icon" clip-path="url(#clip-TripAdvisor-icon)">
    <g id="TripAdvisor_Logo" transform="translate(1.999 2)">
      <circle id="Ellipse_1" data-name="Ellipse 1" cx="356.748" cy="356.748" r="356.748" transform="translate(0.001 0)" fill="#34e0a1"/>
      <path id="Path_2" data-name="Path 2" d="M577.095,287.152l43.049-46.836H524.679a298.263,298.263,0,0,0-335.543,0h-95.7l43.049,46.836a131.589,131.589,0,1,0,178.1,193.76l42.172,45.919,42.172-45.879a131.629,131.629,0,1,0,178.174-193.8ZM225.17,473.458a89.048,89.048,0,1,1,89.047-89.047A89.036,89.036,0,0,1,225.17,473.458ZM356.788,381.82c0-58.6-42.61-108.9-98.853-130.383a256.913,256.913,0,0,1,197.666,0C399.4,272.962,356.788,323.226,356.788,381.82Zm131.579,91.638a89.048,89.048,0,1,1,89.047-89.047A89.037,89.037,0,0,1,488.367,473.458Zm0-135.764a46.676,46.676,0,1,0,46.676,46.677A46.663,46.663,0,0,0,488.367,337.694ZM271.846,384.411a46.676,46.676,0,1,1-46.676-46.677A46.662,46.662,0,0,1,271.846,384.411Z"/>
    </g>
  </g>
</svg>
