<svg xmlns="http://www.w3.org/2000/svg" xmlns:xlink="http://www.w3.org/1999/xlink" width="952" height="597" viewBox="0 0 952 597">
  <defs>
    <clipPath id="clip-union-pay">
      <rect width="952" height="597"/>
    </clipPath>
  </defs>
  <g id="union-pay" clip-path="url(#clip-union-pay)">
    <g id="_2593673_pay_union_icon" data-name="2593673_pay_union_icon" transform="translate(-82.444 -82.438)">
      <path id="Path_2" data-name="Path 2" d="M268.771,82.438H506.284c33.167,0,53.783,27.025,46.029,60.329L441.746,618.129c-7.787,33.3-40.979,60.308-74.133,60.308H130.1c-33.192,0-53.8-27.008-46.013-60.308L194.675,142.767C202.425,109.462,235.579,82.438,268.771,82.438Z" fill="#ed1c24"/>
      <path id="Path_3" data-name="Path 3" d="M486.575,82.438h237.5c33.188,0,53.8,27.025,46.013,60.329L659.5,618.129c-7.787,33.3-40.942,60.308-74.167,60.308H347.871c-33.225,0-53.8-27.008-46.017-60.308L412.413,142.767C420.2,109.462,453.388,82.438,486.575,82.438Z" fill="#00569e"/>
      <path id="Path_4" data-name="Path 4" d="M748.884,82.438H986.359c33.192,0,53.8,27.025,46.017,60.329L921.826,618.129c-7.788,33.3-40.975,60.308-74.171,60.308H610.146c-33.192,0-53.8-27.008-46.013-60.308l110.55-475.362C682.467,109.462,715.659,82.438,748.884,82.438Z" fill="#00898e"/>
      <path id="Path_5" data-name="Path 5" d="M784.263,432.909l-22.417,95.754h7.75l-4.687,19.875h-7.754L755.73,554.6H728.2l1.425-6.067H673.676l4.379-18.329,5.7-.088,22.763-97.213,4.521-19.65h28.113l-2.221,9.958s7.087-5.437,14.037-7.262c6.987-1.825,47.683-2.538,47.683-2.538l-4.725,19.492Zm-49.525,0L729,457.413s8.067-3.787,12.55-5a75.411,75.411,0,0,1,11.4-1.667l4.138-17.833Zm-8.617,36.7L720.176,495s8.2-4.363,12.725-5.583a95.03,95.03,0,0,1,11.392-1.979l4.246-17.829Zm-13.867,59.342h22.379l5.042-21.567H717.292Z" transform="translate(0 0.601)" fill="#fff" fill-rule="evenodd"/>
      <path id="Path_6" data-name="Path 6" d="M800.18,413.454h29.958l.35,11.15c-.175,1.808,1.425,2.717,4.933,2.779h5.037l-4.517,18.458H819.751c-14.042,1.008-19.363-5.042-19.013-11.8Z" transform="translate(0 0.485)" fill="#fff" fill-rule="evenodd"/>
      <path id="Path_7" data-name="Path 7" d="M805.255,500.959h-28.6l3.825-16.438h32.633l3.65-15.046h-32.25L788.851,451h89.737l-4.379,18.475H844.076l-3.646,15.046H870.6l-3.858,16.438h-32.6l-5.388,6.937h13.242l4.692,20.708c.375,2.037.588,3.379,1.283,4.225.7.733,4.725,1.1,7.021,1.1h4l-4.725,20.2H844.076c-1.562,0-3.925-.067-7.121-.35-3.1-.237-5.421-2.013-7.546-2.988a10.864,10.864,0,0,1-5.837-7.054L819.017,523.1,805.6,543.5c-4.346,6.329-10.392,11.233-21.133,11.233h-20.85l4.2-17.9h8a12.489,12.489,0,0,0,5.729-1.679,8.968,8.968,0,0,0,4.175-3.638Z" transform="translate(0 0.618)" fill="#fff" fill-rule="evenodd"/>
      <path id="Path_8" data-name="Path 8" d="M489.25,455.988H564.9l-4.342,18.075H530.175l-3.7,15.4h30.879l-4.483,18.7H521.988L516,533.088c-.7,2.8,7.558,3.183,10.55,3.183l15.337-2.05-4.929,20.542H502.042a30.343,30.343,0,0,1-7.992-1.079,8.9,8.9,0,0,1-5.8-4.067c-1.375-1.946-3.425-3.65-2.383-7.988l7.962-33.158H476.617l4.571-19.013H498.43l3.662-15.4H484.925Z" transform="translate(0 0.62)" fill="#fff" fill-rule="evenodd"/>
      <path id="Path_9" data-name="Path 9" d="M538.2,423.563h31.071l-4.521,18.821H522.338l-4.379,4.05c-1.792,1.875-2.571,1.092-5.021,2.433a29.158,29.158,0,0,1-13.783,3.613H485.571l4.358-18.146H494c3.471,0,5.821-.308,6.983-1.087,1.25-.783,2.658-2.75,4.188-5.862l6.913-14.175H543Z" transform="translate(0 0.491)" fill="#fff" fill-rule="evenodd"/>
      <path id="Path_10" data-name="Path 10" d="M581.925,413.35h26.483l-3.058,13.342s7.958-6.687,13.692-8.929c5.7-2.262,18.767-4.171,18.767-4.171l42.746-.275L669.017,461.9c-1.979,8.312-4.483,13.7-6.079,16.179a17.721,17.721,0,0,1-6.85,6.658A26.909,26.909,0,0,1,646.359,488c-2.883.246-7.192.333-13.175.4H591.967l-9.208,38.458c-.938,3.8-1.325,5.592-.558,6.6a5.194,5.194,0,0,0,4.1,1.987l18.042-1.742-4.9,21.075h-20.4c-6.429,0-11.192-.083-14.458-.4-3.162-.246-6.429,0-8.687-1.742-2.054-1.629-5.042-3.783-5.112-6.042a67.253,67.253,0,0,1,1.737-10.292Zm59.221,49.142H597.8l-2.121,8.721h37.538a29.649,29.649,0,0,1,5.7-.054ZM599.68,454.6s7.958-7.75,22.354-10.288c3.267-.592,23.946-.417,23.946-.417l2.463-10.392H604.721Z" transform="translate(0 0.601)" fill="#fff" fill-rule="evenodd"/>
      <path id="Path_11" data-name="Path 11" d="M663.909,491.8l-1.667,11.7c-.908,3.6-1.567,6.358-4.171,8.754-2.746,2.467-6.013,5.008-13.938,5.008l-14.6.571L630.163,531c.108,3.825,1.046,3.429,1.671,4.029a4.43,4.43,0,0,0,2.017,1.1l4.654-.171,13.9-.854-4.558,19.338H631.8c-11.329,0-19.671-.346-22.554-2.4-2.817-1.858-3.337-4-3.475-7.592l-2.154-51.492H629.3L629.6,503.5h6.154c2.154,0,3.546-.212,4.417-.767a4.785,4.785,0,0,0,1.563-2.742l1.946-8.188Z" transform="translate(0 0.634)" fill="#fff" fill-rule="evenodd"/>
      <path id="Path_12" data-name="Path 12" d="M296.884,234c-.9,4.254-17.408,80.263-17.446,80.3-3.546,15.329-6.117,26.383-14.837,33.471a27.01,27.01,0,0,1-17.55,6.063c-10.813,0-17.138-5.4-18.246-15.6l-.212-3.458s3.3-20.608,3.337-20.713c0,0,17.342-69.3,20.4-78.508a9.573,9.573,0,0,1,.279-1.079c-33.679.421-39.688.1-40.1-.488-.175.733-1.079,5.042-1.079,5.042l-17.654,78.146-1.529,6.617L189.354,345.4c0,6.446,1.254,11.708,3.792,16.092,8.025,14.108,31,16.229,43.963,16.229,16.717,0,32.392-3.65,43.025-10.025,18.35-10.933,23.217-28,27.525-43.046l1.983-7.75s17.825-72.013,20.888-81.375c.1-.5.171-.746.242-1.062C306.409,234.834,299.179,234.538,296.884,234Z" transform="translate(0 0.277)" fill="#fff"/>
      <path id="Path_13" data-name="Path 13" d="M395.45,376.925c-11.992-.138-16.125-.138-30.1.488l-.558-.938c1.217-5.392,2.571-10.6,3.788-15.988l1.667-7.212c2.608-11.383,5.146-24.433,5.425-28.446.275-2.433,1.042-8.446-5.8-8.446-2.921,0-5.979,1.392-9.038,2.779-1.667,5.979-5.075,22.9-6.671,30.583-3.442,16.283-3.688,18.125-5.213,26.1l-1.013,1.075c-12.3-.138-16.579-.138-30.721.488l-.663-1.075c2.367-9.7,4.729-19.379,6.954-29.058,5.975-26.117,7.367-36.108,9-49.317l1.112-.933c13.833-1.846,17.133-2.3,32.146-5.375l1.221,1.375-2.263,8.446c2.5-1.529,4.971-3.058,7.579-4.446a48.015,48.015,0,0,1,19.146-4.454c6.538,0,13.729,1.846,16.717,9.383,2.888,6.742.975,15.05-2.779,31.488l-1.908,8.308c-3.858,18.279-4.487,21.654-6.571,34.1Z" transform="translate(0 0.339)" fill="#fff"/>
      <path id="Path_14" data-name="Path 14" d="M444,376.925c-7.229-.067-11.854-.1-16.371-.05-4.483.05-8.863.221-15.571.538l-.383-.554-.417-.521a89.2,89.2,0,0,1,3.721-11.821,83.638,83.638,0,0,0,3.371-11.921c2.083-9.087,3.371-15.55,4.308-21.1.942-5.5,1.529-10.1,2.192-15.392l.554-.454.592-.488c7.158-.987,11.713-1.65,16.333-2.4,4.658-.746,9.383-1.6,16.858-2.988l.483,1.25c-1.392,5.683-2.779,11.4-4.133,17.087s-2.675,11.4-4,17.079c-2.708,12.025-3.75,16.575-4.375,19.671s-.8,4.763-1.842,10.983l-.663.55Z" transform="translate(0 0.355)" fill="#fff"/>
      <path id="Path_15" data-name="Path 15" d="M551.271,335.813c4.2-18.4,1.008-26.988-3.129-32.217-6.258-7.962-17.183-10.567-28.621-10.567-6.846,0-23.142.762-35.9,12.583-9.1,8.408-13.413,19.908-15.95,30.963-2.571,11.208-5.562,31.608,13,38.958,5.838,2.471,14.042,3.238,19.358,3.238,13.692,0,27.667-3.825,38.142-15.033C546.3,354.842,549.988,341.338,551.271,335.813Zm-31.192-1.375c-.7,3.075-3.371,14.721-7.088,19.621-2.471,3.542-5.563,5.7-8.9,5.7-.937,0-6.846,0-6.988-8.754a58.745,58.745,0,0,1,1.913-13.646c3.163-13.812,6.883-25.454,16.337-25.454C522.825,311.9,523.275,320.484,520.08,334.438Z" transform="translate(0 0.341)" fill="#fff"/>
      <path id="Path_16" data-name="Path 16" d="M814.6,355.5c-2.467,3.492-8.271,5.646-11.612,5.646-.933,0-6.842,0-6.983-8.688a57.64,57.64,0,0,1,1.912-13.554c3.158-13.7,6.879-25.267,16.333-25.267,6.154,0,9.142,6.033,8.313,15.85-.492,2.2-.908,4.2-1.5,6.808-1.008,4.279-2.187,8.483-3.229,12.738A28.217,28.217,0,0,1,814.6,355.5Zm47.267-61.533c-14.946,2.725-18.871,3.337-33.2,5.321l-1.108.9c-.175,1.217-.312,2.329-.483,3.5a20.245,20.245,0,0,0-10.4-8.779c-6.4-2.467-21.4.767-34.163,12.479-9.1,8.375-13.417,19.792-15.95,30.754-2.571,11.125-5.562,31.383,13,38.683a36.764,36.764,0,0,0,16.546,2.883c5.7-.292,10.913-3.283,15.813-7.383-.458,1.737-.871,3.492-1.325,5.229l.838,1.083c13.379-.629,17.479-.629,31.9-.458l1.321-1.079c2.083-12.337,4.1-24.358,9.6-48.113,2.6-11.279,5.346-22.542,8.092-33.8Z" transform="translate(0 0.342)" fill="#fff"/>
      <path id="Path_17" data-name="Path 17" d="M632.875,376.925c-11.992-.138-16.092-.138-30.1.488l-.558-.938c1.25-5.392,2.571-10.6,3.825-15.988l1.633-7.212c2.6-11.383,5.146-24.433,5.454-28.446.242-2.433,1.008-8.446-5.842-8.446-2.883,0-5.937,1.392-9,2.779-1.663,5.979-5.071,22.9-6.7,30.583-3.4,16.283-3.688,18.125-5.213,26.1l-1.008,1.075c-12.275-.138-16.546-.138-30.692.488l-.658-1.075c2.363-9.7,4.725-19.379,6.95-29.058,5.979-26.117,7.333-36.108,9-49.317l1.113-.933c13.8-1.846,17.133-2.3,32.117-5.375l1.213,1.375-2.221,8.446c2.467-1.529,4.967-3.058,7.538-4.446a48.046,48.046,0,0,1,19.15-4.454c6.538,0,13.733,1.846,16.754,9.383,2.846,6.742.933,15.05-2.817,31.488l-1.875,8.308c-3.9,18.279-4.517,21.654-6.6,34.1Z" transform="translate(0 0.339)" fill="#fff"/>
      <path id="Path_18" data-name="Path 18" d="M749.334,278.538c-2.15,9.483-8.233,17.479-16.192,21.408-6.6,3.283-14.567,3.563-22.833,3.563h-5.388l.483-2.171s9.8-42.783,9.767-42.646l.279-2.171.208-1.721,3.9.383s20.258,1.8,20.779,1.908C748.326,260.15,751.7,268.142,749.334,278.538Zm-12.925-44.7-9.942.208c-25.821.258-36.179.192-40.454-.346-.383,1.842-1.079,5.229-1.079,5.246,0,0-9.212,42.888-9.212,42.921,0,0-22.133,91.2-23.175,95.475,22.517-.317,31.8-.333,35.658.1.9-4.308,6.15-29.712,6.188-29.767,0,0,4.479-18.717,4.758-19.3a10.045,10.045,0,0,1,2.817-2.746h2.017c19.429,0,41.425,0,58.629-12.687,11.679-8.617,19.7-21.408,23.283-36.979a58.013,58.013,0,0,0,1.6-13c0-5.875-1.187-11.837-4.667-16.542C774.046,234.209,756.634,234.05,736.409,233.842Z" transform="translate(0 0.276)" fill="#fff"/>
      <path id="Path_19" data-name="Path 19" d="M457.1,303.629c7.892-5.442,8.9-13.071,2.188-17.029-6.7-3.929-18.521-2.7-26.446,2.746-7.958,5.492-8.9,13.117-2.225,17.063C437.329,310.354,449.18,309.117,457.1,303.629Z" transform="translate(0 0.292)" fill="#fff"/>
      <path id="Path_20" data-name="Path 20" d="M961.367,293.829l-1.175-1.358c-14.7,3.042-17.379,3.513-30.9,5.321l-1.079.917c-.033.229-.067.454-.1.679l-.071-.175c-10.15,23.321-9.8,18.283-18,36.563-.033-.833-.075-1.458-.108-2.242l-2.05-39.7-1.254-1.358c-15.463,3.042-15.842,3.513-30.092,5.321l-1.15.917c-.067.542-.138,1.063-.208,1.621l.142.137c1.738,9.175,1.354,7.158,3.129,21.513.8,7.021,1.912,14.163,2.708,21.167,1.458,11.571,2.221,17.442,3.925,35.1-9.625,15.983-11.917,22-21.1,36v.033l-6.567,10.392a5.032,5.032,0,0,1-2.329,2.154,11.285,11.285,0,0,1-4.346.629h-5l-4.167,18.692,18.629-.275c10.8-.087,17.65-5.421,21.371-12.162l11.4-19.892Z" transform="translate(0 0.392)" fill="#fff" fill-rule="evenodd"/>
    </g>
  </g>
</svg>
