<svg xmlns="http://www.w3.org/2000/svg" xmlns:xlink="http://www.w3.org/1999/xlink" width="512" height="318" viewBox="0 0 512 318">
  <defs>
    <clipPath id="clip-visa">
      <rect width="512" height="318"/>
    </clipPath>
  </defs>
  <g id="visa" clip-path="url(#clip-visa)">
    <g id="_213724_card_cash_checkout_online_shopping_payment_method_icon" data-name="213724_card_cash_checkout_online shopping_payment method_icon" transform="translate(-0.864 -98.198)">
      <g id="Group_1" data-name="Group 1">
        <path id="Path_7" data-name="Path 7" d="M60.6,2.963H31.511l-16.7,3.771-8.888,9.7L1.077,45.247V80.8L2.155,287.913,8.08,305.688l10.235,8.08,24.778,2.155H209l273.908.269L500.683,310l8.349-13.466v-7.811l.808-256.67-3.5-16.16-7.811-8.619L486.139,2.963H60.6Z" transform="translate(0.864 98.198)" fill="#fff"/>
        <path id="Path_1" data-name="Path 1" d="M482.737,103.2a25.149,25.149,0,0,1,25.127,25.114V386.086A25.149,25.149,0,0,1,482.737,411.2H30.991A25.149,25.149,0,0,1,5.864,386.086V128.31A25.149,25.149,0,0,1,30.991,103.2H482.737m0-5H30.991A30.119,30.119,0,0,0,.864,128.31V386.086A30.119,30.119,0,0,0,30.991,416.2H482.737a30.118,30.118,0,0,0,30.127-30.112V128.31A30.119,30.119,0,0,0,482.737,98.2Z" fill="#d5d5dd"/>
      </g>
      <g id="Group_2" data-name="Group 2">
        <path id="Path_2" data-name="Path 2" d="M190.88,321.1l21.649-127.082h34.653L225.494,321.1Z" fill="#005098"/>
        <path id="Path_3" data-name="Path 3" d="M351.141,197.152a89.4,89.4,0,0,0-31.049-5.339c-34.226,0-58.336,17.234-58.549,41.94-.193,18.256,17.21,28.451,30.351,34.527,13.489,6.231,18.023,10.2,17.966,15.767-.1,8.518-10.775,12.4-20.737,12.4-13.857,0-21.222-1.918-32.6-6.667l-4.458-2.016L247.2,316.219c8.082,3.546,23.043,6.618,38.587,6.772,36.417,0,60.042-17.035,60.313-43.423.136-14.447-9.089-25.446-29.071-34.522-12.113-5.882-19.535-9.8-19.458-15.757,0-5.281,6.279-10.93,19.846-10.93a63.708,63.708,0,0,1,25.912,4.869l3.121,1.468,4.689-27.544Z" fill="#005098"/>
        <path id="Path_4" data-name="Path 4" d="M439.964,194.144H413.2c-8.3,0-14.5,2.262-18.14,10.538L343.62,321.152H380s5.931-15.66,7.287-19.1c3.974,0,39.3.059,44.363.059,1.027,4.447,4.206,19.041,4.206,19.041h32.152L439.964,194.144Zm-42.716,81.918c2.868-7.326,13.8-35.53,13.8-35.53-.194.339,2.849-7.36,4.593-12.132l2.346,10.959s6.628,30.336,8.022,36.7Z" fill="#005098"/>
        <path id="Path_5" data-name="Path 5" d="M161.828,194.114l-33.917,86.667-3.624-17.607c-6.3-20.312-25.971-42.309-47.968-53.317l31.009,111.149,36.649-.048,54.538-126.844H161.828Z" fill="#005098"/>
        <path id="Path_6" data-name="Path 6" d="M96.456,194.037H40.581l-.426,2.641c43.452,10.523,72.213,35.946,84.133,66.5l-12.133-58.41c-2.093-8.048-8.179-10.446-15.7-10.727Z" fill="#f6a500"/>
      </g>
    </g>
  </g>
</svg>
